M48
;GenerationSoftware,Autodesk,EAGLE,9.6.2*%
;CreationDate,2022-05-25T23:26:04Z*%
FMAT,2
ICI,OFF
METRIC,TZ,000.000
T3C0.305
T2C0.700
T1C3.302
%
G90
M71
T1
X60706Y55626
X3810Y16510
X11938Y16510
X20066Y16510
X28194Y16510
X36322Y16510
X44450Y16510
X52578Y16510
X60706Y16510
X3810Y36068
X11938Y36068
X20066Y36068
X28194Y36068
X36322Y36068
X44450Y36068
X52578Y36068
X60706Y36068
X3810Y55626
X11938Y55626
X20066Y55626
X28194Y55626
X36322Y55626
X44450Y55626
X52578Y55626
X60706Y114300
X3810Y75184
X11938Y75184
X20066Y75184
X28194Y75184
X36322Y75184
X44450Y75184
X52578Y75184
X60706Y75184
X3810Y94742
X11938Y94742
X20066Y94742
X28194Y94742
X36322Y94742
X44450Y94742
X52578Y94742
X60706Y94742
X3810Y114300
X11938Y114300
X20066Y114300
X28194Y114300
X36322Y114300
X44450Y114300
X52578Y114300
X60706Y153416
X3810Y133858
X11938Y133858
X20066Y133858
X28194Y133858
X36322Y133858
X44450Y133858
X52578Y133858
X60706Y133858
X3810Y153416
X11938Y153416
X20066Y153416
X28194Y153416
X36322Y153416
X44450Y153416
X52578Y153416
T2
X63246Y150876
X1270Y13970
X6350Y13970
X9398Y13970
X14478Y13970
X17526Y13970
X22606Y13970
X25654Y13970
X30734Y13970
X33782Y13970
X38862Y13970
X41910Y13970
X46990Y13970
X50038Y13970
X55118Y13970
X58166Y13970
X63246Y13970
X1270Y33528
X6350Y33528
X9398Y33528
X14478Y33528
X17526Y33528
X22606Y33528
X25654Y33528
X30734Y33528
X33782Y33528
X38862Y33528
X41910Y33528
X46990Y33528
X50038Y33528
X55118Y33528
X58166Y33528
X63246Y33528
X1270Y53086
X6350Y53086
X9398Y53086
X14478Y53086
X17526Y53086
X22606Y53086
X25654Y53086
X30734Y53086
X33782Y53086
X38862Y53086
X41910Y53086
X46990Y53086
X50038Y53086
X55118Y53086
X58166Y53086
X63246Y53086
X1270Y72644
X6350Y72644
X9398Y72644
X14478Y72644
X17526Y72644
X22606Y72644
X25654Y72644
X30734Y72644
X33782Y72644
X38862Y72644
X41910Y72644
X46990Y72644
X50038Y72644
X55118Y72644
X58166Y72644
X63246Y72644
X1270Y92202
X6350Y92202
X9398Y92202
X14478Y92202
X17526Y92202
X22606Y92202
X25654Y92202
X30734Y92202
X33782Y92202
X38862Y92202
X41910Y92202
X46990Y92202
X50038Y92202
X55118Y92202
X58166Y92202
X63246Y92202
X1270Y111760
X6350Y111760
X9398Y111760
X14478Y111760
X17526Y111760
X22606Y111760
X25654Y111760
X30734Y111760
X33782Y111760
X38862Y111760
X41910Y111760
X46990Y111760
X50038Y111760
X55118Y111760
X58166Y111760
X63246Y111760
X1270Y131318
X6350Y131318
X9398Y131318
X14478Y131318
X17526Y131318
X22606Y131318
X25654Y131318
X30734Y131318
X33782Y131318
X38862Y131318
X41910Y131318
X46990Y131318
X50038Y131318
X55118Y131318
X58166Y131318
X63246Y131318
X1270Y150876
X6350Y150876
X9398Y150876
X14478Y150876
X17526Y150876
X22606Y150876
X25654Y150876
X30734Y150876
X33782Y150876
X38862Y150876
X41910Y150876
X46990Y150876
X50038Y150876
X55118Y150876
X58166Y150876
T3
X63881Y6350
X61722Y3429
X57658Y11430
X60706Y8890
X62738Y6604
X59436Y6350
X58039Y8890
X61849Y10922
X61214Y3937
X62230Y3937
X60376Y10617
X63119Y11557
X63424Y7366
X63500Y10414
X57912Y7747
X57912Y10160
X3861Y27153
X3302Y23495
X2286Y23495
X3810Y20828
X2032Y20828
X5588Y20828
X4318Y25781
X6548Y28067
X1778Y31877
X6985Y29337
X6985Y25908
X4826Y22987
X762Y30988
X3810Y28448
X5842Y26162
X2540Y25908
X1143Y28448
X4953Y30480
X4318Y23495
X5334Y23495
X3480Y30175
X6223Y31115
X6528Y26924
X6604Y29972
X1016Y27305
X1016Y29718
X11989Y27153
X11430Y23495
X10414Y23495
X11938Y20828
X10160Y20828
X13716Y20828
X12446Y25781
X14676Y28067
X9906Y31877
X15113Y29337
X15113Y25908
X12954Y22987
X8890Y30988
X11938Y28448
X13970Y26162
X10668Y25908
X9271Y28448
X13081Y30480
X12446Y23495
X13462Y23495
X11608Y30175
X14351Y31115
X14656Y26924
X14732Y29972
X9144Y27305
X9144Y29718
X20117Y27153
X19558Y23495
X18542Y23495
X20066Y20828
X18288Y20828
X21844Y20828
X20574Y25781
X22804Y28067
X18034Y31877
X23241Y29337
X23241Y25908
X21082Y22987
X17018Y30988
X20066Y28448
X22098Y26162
X18796Y25908
X17399Y28448
X21209Y30480
X20574Y23495
X21590Y23495
X19736Y30175
X22479Y31115
X22784Y26924
X22860Y29972
X17272Y27305
X17272Y29718
X28245Y27153
X27686Y23495
X26670Y23495
X28194Y20828
X26416Y20828
X29972Y20828
X28702Y25781
X30932Y28067
X26162Y31877
X31369Y29337
X31369Y25908
X29210Y22987
X25146Y30988
X28194Y28448
X30226Y26162
X26924Y25908
X25527Y28448
X29337Y30480
X28702Y23495
X29718Y23495
X27864Y30175
X30607Y31115
X30912Y26924
X30988Y29972
X25400Y27305
X25400Y29718
X36373Y27153
X35814Y23495
X34798Y23495
X36322Y20828
X34544Y20828
X38100Y20828
X36830Y25781
X39060Y28067
X34290Y31877
X39497Y29337
X39497Y25908
X37338Y22987
X33274Y30988
X36322Y28448
X38354Y26162
X35052Y25908
X33655Y28448
X37465Y30480
X36830Y23495
X37846Y23495
X35992Y30175
X38735Y31115
X39040Y26924
X39116Y29972
X33528Y27305
X33528Y29718
X44501Y27153
X43942Y23495
X42926Y23495
X44450Y20828
X42672Y20828
X46228Y20828
X44958Y25781
X47188Y28067
X42418Y31877
X47625Y29337
X47625Y25908
X45466Y22987
X41402Y30988
X44450Y28448
X46482Y26162
X43180Y25908
X41783Y28448
X45593Y30480
X44958Y23495
X45974Y23495
X44120Y30175
X46863Y31115
X47168Y26924
X47244Y29972
X41656Y27305
X41656Y29718
X52629Y27153
X52070Y23495
X51054Y23495
X52578Y20828
X50800Y20828
X54356Y20828
X53086Y25781
X55316Y28067
X50546Y31877
X55753Y29337
X55753Y25908
X53594Y22987
X49530Y30988
X52578Y28448
X54610Y26162
X51308Y25908
X49911Y28448
X53721Y30480
X53086Y23495
X54102Y23495
X52248Y30175
X54991Y31115
X55296Y26924
X55372Y29972
X49784Y27305
X49784Y29718
X60757Y27153
X60198Y23495
X59182Y23495
X60706Y20828
X58928Y20828
X62484Y20828
X61214Y25781
X63444Y28067
X58674Y31877
X63881Y29337
X63881Y25908
X61722Y22987
X57658Y30988
X60706Y28448
X62738Y26162
X59436Y25908
X58039Y28448
X61849Y30480
X61214Y23495
X62230Y23495
X60376Y30175
X63119Y31115
X63424Y26924
X63500Y29972
X57912Y27305
X57912Y29718
X3861Y46711
X3302Y43053
X2286Y43053
X3810Y40386
X2032Y40386
X5588Y40386
X4318Y45339
X6548Y47625
X1778Y51435
X6985Y48895
X6985Y45466
X4826Y42545
X762Y50546
X3810Y48006
X5842Y45720
X2540Y45466
X1143Y48006
X4953Y50038
X4318Y43053
X5334Y43053
X3480Y49733
X6223Y50673
X6528Y46482
X6604Y49530
X1016Y46863
X1016Y49276
X11989Y46711
X11430Y43053
X10414Y43053
X11938Y40386
X10160Y40386
X13716Y40386
X12446Y45339
X14676Y47625
X9906Y51435
X15113Y48895
X15113Y45466
X12954Y42545
X8890Y50546
X11938Y48006
X13970Y45720
X10668Y45466
X9271Y48006
X13081Y50038
X12446Y43053
X13462Y43053
X11608Y49733
X14351Y50673
X14656Y46482
X14732Y49530
X9144Y46863
X9144Y49276
X20117Y46711
X19558Y43053
X18542Y43053
X20066Y40386
X18288Y40386
X21844Y40386
X20574Y45339
X22804Y47625
X18034Y51435
X23241Y48895
X23241Y45466
X21082Y42545
X17018Y50546
X20066Y48006
X22098Y45720
X18796Y45466
X17399Y48006
X21209Y50038
X20574Y43053
X21590Y43053
X19736Y49733
X22479Y50673
X22784Y46482
X22860Y49530
X17272Y46863
X17272Y49276
X28245Y46711
X27686Y43053
X26670Y43053
X28194Y40386
X26416Y40386
X29972Y40386
X28702Y45339
X30932Y47625
X26162Y51435
X31369Y48895
X31369Y45466
X29210Y42545
X25146Y50546
X28194Y48006
X30226Y45720
X26924Y45466
X25527Y48006
X29337Y50038
X28702Y43053
X29718Y43053
X27864Y49733
X30607Y50673
X30912Y46482
X30988Y49530
X25400Y46863
X25400Y49276
X36373Y46711
X35814Y43053
X34798Y43053
X36322Y40386
X34544Y40386
X38100Y40386
X36830Y45339
X39060Y47625
X34290Y51435
X39497Y48895
X39497Y45466
X37338Y42545
X33274Y50546
X36322Y48006
X38354Y45720
X35052Y45466
X33655Y48006
X37465Y50038
X36830Y43053
X37846Y43053
X35992Y49733
X38735Y50673
X39040Y46482
X39116Y49530
X33528Y46863
X33528Y49276
X44501Y46711
X43942Y43053
X42926Y43053
X44450Y40386
X42672Y40386
X46228Y40386
X44958Y45339
X47188Y47625
X42418Y51435
X47625Y48895
X47625Y45466
X45466Y42545
X41402Y50546
X44450Y48006
X46482Y45720
X43180Y45466
X41783Y48006
X45593Y50038
X44958Y43053
X45974Y43053
X44120Y49733
X46863Y50673
X47168Y46482
X47244Y49530
X41656Y46863
X41656Y49276
X52629Y46711
X52070Y43053
X51054Y43053
X52578Y40386
X50800Y40386
X54356Y40386
X53086Y45339
X55316Y47625
X50546Y51435
X55753Y48895
X55753Y45466
X53594Y42545
X49530Y50546
X52578Y48006
X54610Y45720
X51308Y45466
X49911Y48006
X53721Y50038
X53086Y43053
X54102Y43053
X52248Y49733
X54991Y50673
X55296Y46482
X55372Y49530
X49784Y46863
X49784Y49276
X60757Y46711
X60198Y43053
X59182Y43053
X60706Y40386
X58928Y40386
X62484Y40386
X61214Y45339
X63444Y47625
X58674Y51435
X63881Y48895
X63881Y45466
X61722Y42545
X57658Y50546
X60706Y48006
X62738Y45720
X59436Y45466
X58039Y48006
X61849Y50038
X61214Y43053
X62230Y43053
X60376Y49733
X63119Y50673
X63424Y46482
X63500Y49530
X57912Y46863
X57912Y49276
X3861Y66269
X3302Y62611
X2286Y62611
X3810Y59944
X2032Y59944
X5588Y59944
X4318Y64897
X6548Y67183
X1778Y70993
X6985Y68453
X6985Y65024
X4826Y62103
X762Y70104
X3810Y67564
X5842Y65278
X2540Y65024
X1143Y67564
X4953Y69596
X4318Y62611
X5334Y62611
X3480Y69291
X6223Y70231
X6528Y66040
X6604Y69088
X1016Y66421
X1016Y68834
X11989Y66269
X11430Y62611
X10414Y62611
X11938Y59944
X10160Y59944
X13716Y59944
X12446Y64897
X14676Y67183
X9906Y70993
X15113Y68453
X15113Y65024
X12954Y62103
X8890Y70104
X11938Y67564
X13970Y65278
X10668Y65024
X9271Y67564
X13081Y69596
X12446Y62611
X13462Y62611
X11608Y69291
X14351Y70231
X14656Y66040
X14732Y69088
X9144Y66421
X9144Y68834
X20117Y66269
X19558Y62611
X18542Y62611
X20066Y59944
X18288Y59944
X21844Y59944
X20574Y64897
X22804Y67183
X18034Y70993
X23241Y68453
X23241Y65024
X21082Y62103
X17018Y70104
X20066Y67564
X22098Y65278
X18796Y65024
X17399Y67564
X21209Y69596
X20574Y62611
X21590Y62611
X19736Y69291
X22479Y70231
X22784Y66040
X22860Y69088
X17272Y66421
X17272Y68834
X28245Y66269
X27686Y62611
X26670Y62611
X28194Y59944
X26416Y59944
X29972Y59944
X28702Y64897
X30932Y67183
X26162Y70993
X31369Y68453
X31369Y65024
X29210Y62103
X25146Y70104
X28194Y67564
X30226Y65278
X26924Y65024
X25527Y67564
X29337Y69596
X28702Y62611
X29718Y62611
X27864Y69291
X30607Y70231
X30912Y66040
X30988Y69088
X25400Y66421
X25400Y68834
X36373Y66269
X35814Y62611
X34798Y62611
X36322Y59944
X34544Y59944
X38100Y59944
X36830Y64897
X39060Y67183
X34290Y70993
X39497Y68453
X39497Y65024
X37338Y62103
X33274Y70104
X36322Y67564
X38354Y65278
X35052Y65024
X33655Y67564
X37465Y69596
X36830Y62611
X37846Y62611
X35992Y69291
X38735Y70231
X39040Y66040
X39116Y69088
X33528Y66421
X33528Y68834
X44501Y66269
X43942Y62611
X42926Y62611
X44450Y59944
X42672Y59944
X46228Y59944
X44958Y64897
X47188Y67183
X42418Y70993
X47625Y68453
X47625Y65024
X45466Y62103
X41402Y70104
X44450Y67564
X46482Y65278
X43180Y65024
X41783Y67564
X45593Y69596
X44958Y62611
X45974Y62611
X44120Y69291
X46863Y70231
X47168Y66040
X47244Y69088
X41656Y66421
X41656Y68834
X52629Y66269
X52070Y62611
X51054Y62611
X52578Y59944
X50800Y59944
X54356Y59944
X53086Y64897
X55316Y67183
X50546Y70993
X55753Y68453
X55753Y65024
X53594Y62103
X49530Y70104
X52578Y67564
X54610Y65278
X51308Y65024
X49911Y67564
X53721Y69596
X53086Y62611
X54102Y62611
X52248Y69291
X54991Y70231
X55296Y66040
X55372Y69088
X49784Y66421
X49784Y68834
X60757Y66269
X60198Y62611
X59182Y62611
X60706Y59944
X58928Y59944
X62484Y59944
X61214Y64897
X63444Y67183
X58674Y70993
X63881Y68453
X63881Y65024
X61722Y62103
X57658Y70104
X60706Y67564
X62738Y65278
X59436Y65024
X58039Y67564
X61849Y69596
X61214Y62611
X62230Y62611
X60376Y69291
X63119Y70231
X63424Y66040
X63500Y69088
X57912Y66421
X57912Y68834
X3861Y85827
X3302Y82169
X2286Y82169
X3810Y79502
X2032Y79502
X5588Y79502
X4318Y84455
X6548Y86741
X1778Y90551
X6985Y88011
X6985Y84582
X4826Y81661
X762Y89662
X3810Y87122
X5842Y84836
X2540Y84582
X1143Y87122
X4953Y89154
X4318Y82169
X5334Y82169
X3480Y88849
X6223Y89789
X6528Y85598
X6604Y88646
X1016Y85979
X1016Y88392
X11989Y85827
X11430Y82169
X10414Y82169
X11938Y79502
X10160Y79502
X13716Y79502
X12446Y84455
X14676Y86741
X9906Y90551
X15113Y88011
X15113Y84582
X12954Y81661
X8890Y89662
X11938Y87122
X13970Y84836
X10668Y84582
X9271Y87122
X13081Y89154
X12446Y82169
X13462Y82169
X11608Y88849
X14351Y89789
X14656Y85598
X14732Y88646
X9144Y85979
X9144Y88392
X20117Y85827
X19558Y82169
X18542Y82169
X20066Y79502
X18288Y79502
X21844Y79502
X20574Y84455
X22804Y86741
X18034Y90551
X23241Y88011
X23241Y84582
X21082Y81661
X17018Y89662
X20066Y87122
X22098Y84836
X18796Y84582
X17399Y87122
X21209Y89154
X20574Y82169
X21590Y82169
X19736Y88849
X22479Y89789
X22784Y85598
X22860Y88646
X17272Y85979
X17272Y88392
X28245Y85827
X27686Y82169
X26670Y82169
X28194Y79502
X26416Y79502
X29972Y79502
X28702Y84455
X30932Y86741
X26162Y90551
X31369Y88011
X31369Y84582
X29210Y81661
X25146Y89662
X28194Y87122
X30226Y84836
X26924Y84582
X25527Y87122
X29337Y89154
X28702Y82169
X29718Y82169
X27864Y88849
X30607Y89789
X30912Y85598
X30988Y88646
X25400Y85979
X25400Y88392
X36373Y85827
X35814Y82169
X34798Y82169
X36322Y79502
X34544Y79502
X38100Y79502
X36830Y84455
X39060Y86741
X34290Y90551
X39497Y88011
X39497Y84582
X37338Y81661
X33274Y89662
X36322Y87122
X38354Y84836
X35052Y84582
X33655Y87122
X37465Y89154
X36830Y82169
X37846Y82169
X35992Y88849
X38735Y89789
X39040Y85598
X39116Y88646
X33528Y85979
X33528Y88392
X44501Y85827
X43942Y82169
X42926Y82169
X44450Y79502
X42672Y79502
X46228Y79502
X44958Y84455
X47188Y86741
X42418Y90551
X47625Y88011
X47625Y84582
X45466Y81661
X41402Y89662
X44450Y87122
X46482Y84836
X43180Y84582
X41783Y87122
X45593Y89154
X44958Y82169
X45974Y82169
X44120Y88849
X46863Y89789
X47168Y85598
X47244Y88646
X41656Y85979
X41656Y88392
X52629Y85827
X52070Y82169
X51054Y82169
X52578Y79502
X50800Y79502
X54356Y79502
X53086Y84455
X55316Y86741
X50546Y90551
X55753Y88011
X55753Y84582
X53594Y81661
X49530Y89662
X52578Y87122
X54610Y84836
X51308Y84582
X49911Y87122
X53721Y89154
X53086Y82169
X54102Y82169
X52248Y88849
X54991Y89789
X55296Y85598
X55372Y88646
X49784Y85979
X49784Y88392
X60757Y85827
X60198Y82169
X59182Y82169
X60706Y79502
X58928Y79502
X62484Y79502
X61214Y84455
X63444Y86741
X58674Y90551
X63881Y88011
X63881Y84582
X61722Y81661
X57658Y89662
X60706Y87122
X62738Y84836
X59436Y84582
X58039Y87122
X61849Y89154
X61214Y82169
X62230Y82169
X60376Y88849
X63119Y89789
X63424Y85598
X63500Y88646
X57912Y85979
X57912Y88392
X3861Y105385
X3302Y101727
X2286Y101727
X3810Y99060
X2032Y99060
X5588Y99060
X4318Y104013
X6548Y106299
X1778Y110109
X6985Y107569
X6985Y104140
X4826Y101219
X762Y109220
X3810Y106680
X5842Y104394
X2540Y104140
X1143Y106680
X4953Y108712
X4318Y101727
X5334Y101727
X3480Y108407
X6223Y109347
X6528Y105156
X6604Y108204
X1016Y105537
X1016Y107950
X11989Y105385
X11430Y101727
X10414Y101727
X11938Y99060
X10160Y99060
X13716Y99060
X12446Y104013
X14676Y106299
X9906Y110109
X15113Y107569
X15113Y104140
X12954Y101219
X8890Y109220
X11938Y106680
X13970Y104394
X10668Y104140
X9271Y106680
X13081Y108712
X12446Y101727
X13462Y101727
X11608Y108407
X14351Y109347
X14656Y105156
X14732Y108204
X9144Y105537
X9144Y107950
X20117Y105385
X19558Y101727
X18542Y101727
X20066Y99060
X18288Y99060
X21844Y99060
X20574Y104013
X22804Y106299
X18034Y110109
X23241Y107569
X23241Y104140
X21082Y101219
X17018Y109220
X20066Y106680
X22098Y104394
X18796Y104140
X17399Y106680
X21209Y108712
X20574Y101727
X21590Y101727
X19736Y108407
X22479Y109347
X22784Y105156
X22860Y108204
X17272Y105537
X17272Y107950
X28245Y105385
X27686Y101727
X26670Y101727
X28194Y99060
X26416Y99060
X29972Y99060
X28702Y104013
X30932Y106299
X26162Y110109
X31369Y107569
X31369Y104140
X29210Y101219
X25146Y109220
X28194Y106680
X30226Y104394
X26924Y104140
X25527Y106680
X29337Y108712
X28702Y101727
X29718Y101727
X27864Y108407
X30607Y109347
X30912Y105156
X30988Y108204
X25400Y105537
X25400Y107950
X36373Y105385
X35814Y101727
X34798Y101727
X36322Y99060
X34544Y99060
X38100Y99060
X36830Y104013
X39060Y106299
X34290Y110109
X39497Y107569
X39497Y104140
X37338Y101219
X33274Y109220
X36322Y106680
X38354Y104394
X35052Y104140
X33655Y106680
X37465Y108712
X36830Y101727
X37846Y101727
X35992Y108407
X38735Y109347
X39040Y105156
X39116Y108204
X33528Y105537
X33528Y107950
X44501Y105385
X43942Y101727
X42926Y101727
X44450Y99060
X42672Y99060
X46228Y99060
X44958Y104013
X47188Y106299
X42418Y110109
X47625Y107569
X47625Y104140
X45466Y101219
X41402Y109220
X44450Y106680
X46482Y104394
X43180Y104140
X41783Y106680
X45593Y108712
X44958Y101727
X45974Y101727
X44120Y108407
X46863Y109347
X47168Y105156
X47244Y108204
X41656Y105537
X41656Y107950
X52629Y105385
X52070Y101727
X51054Y101727
X52578Y99060
X50800Y99060
X54356Y99060
X53086Y104013
X55316Y106299
X50546Y110109
X55753Y107569
X55753Y104140
X53594Y101219
X49530Y109220
X52578Y106680
X54610Y104394
X51308Y104140
X49911Y106680
X53721Y108712
X53086Y101727
X54102Y101727
X52248Y108407
X54991Y109347
X55296Y105156
X55372Y108204
X49784Y105537
X49784Y107950
X60757Y105385
X60198Y101727
X59182Y101727
X60706Y99060
X58928Y99060
X62484Y99060
X61214Y104013
X63444Y106299
X58674Y110109
X63881Y107569
X63881Y104140
X61722Y101219
X57658Y109220
X60706Y106680
X62738Y104394
X59436Y104140
X58039Y106680
X61849Y108712
X61214Y101727
X62230Y101727
X60376Y108407
X63119Y109347
X63424Y105156
X63500Y108204
X57912Y105537
X57912Y107950
X3861Y124943
X3302Y121285
X2286Y121285
X3810Y118618
X2032Y118618
X5588Y118618
X4318Y123571
X6548Y125857
X1778Y129667
X6985Y127127
X6985Y123698
X4826Y120777
X762Y128778
X3810Y126238
X5842Y123952
X2540Y123698
X1143Y126238
X4953Y128270
X4318Y121285
X5334Y121285
X3480Y127965
X6223Y128905
X6528Y124714
X6604Y127762
X1016Y125095
X1016Y127508
X11989Y124943
X11430Y121285
X10414Y121285
X11938Y118618
X10160Y118618
X13716Y118618
X12446Y123571
X14676Y125857
X9906Y129667
X15113Y127127
X15113Y123698
X12954Y120777
X8890Y128778
X11938Y126238
X13970Y123952
X10668Y123698
X9271Y126238
X13081Y128270
X12446Y121285
X13462Y121285
X11608Y127965
X14351Y128905
X14656Y124714
X14732Y127762
X9144Y125095
X9144Y127508
X20117Y124943
X19558Y121285
X18542Y121285
X20066Y118618
X18288Y118618
X21844Y118618
X20574Y123571
X22804Y125857
X18034Y129667
X23241Y127127
X23241Y123698
X21082Y120777
X17018Y128778
X20066Y126238
X22098Y123952
X18796Y123698
X17399Y126238
X21209Y128270
X20574Y121285
X21590Y121285
X19736Y127965
X22479Y128905
X22784Y124714
X22860Y127762
X17272Y125095
X17272Y127508
X28245Y124943
X27686Y121285
X26670Y121285
X28194Y118618
X26416Y118618
X29972Y118618
X28702Y123571
X30932Y125857
X26162Y129667
X31369Y127127
X31369Y123698
X29210Y120777
X25146Y128778
X28194Y126238
X30226Y123952
X26924Y123698
X25527Y126238
X29337Y128270
X28702Y121285
X29718Y121285
X27864Y127965
X30607Y128905
X30912Y124714
X30988Y127762
X25400Y125095
X25400Y127508
X36373Y124943
X35814Y121285
X34798Y121285
X36322Y118618
X34544Y118618
X38100Y118618
X36830Y123571
X39060Y125857
X34290Y129667
X39497Y127127
X39497Y123698
X37338Y120777
X33274Y128778
X36322Y126238
X38354Y123952
X35052Y123698
X33655Y126238
X37465Y128270
X36830Y121285
X37846Y121285
X35992Y127965
X38735Y128905
X39040Y124714
X39116Y127762
X33528Y125095
X33528Y127508
X44501Y124943
X43942Y121285
X42926Y121285
X44450Y118618
X42672Y118618
X46228Y118618
X44958Y123571
X47188Y125857
X42418Y129667
X47625Y127127
X47625Y123698
X45466Y120777
X41402Y128778
X3861Y7595
X46482Y123952
X43180Y123698
X41783Y126238
X45593Y128270
X44958Y121285
X45974Y121285
X44120Y127965
X46863Y128905
X47168Y124714
X47244Y127762
X41656Y125095
X41656Y127508
X52629Y124943
X52070Y121285
X51054Y121285
X52578Y118618
X50800Y118618
X54356Y118618
X53086Y123571
X55316Y125857
X50546Y129667
X55753Y127127
X55753Y123698
X53594Y120777
X49530Y128778
X52578Y126238
X54610Y123952
X51308Y123698
X49911Y126238
X53721Y128270
X53086Y121285
X54102Y121285
X52248Y127965
X54991Y128905
X55296Y124714
X55372Y127762
X49784Y125095
X49784Y127508
X60757Y124943
X60198Y121285
X59182Y121285
X60706Y118618
X58928Y118618
X62484Y118618
X61214Y123571
X63444Y125857
X58674Y129667
X63881Y127127
X63881Y123698
X61722Y120777
X57658Y128778
X60706Y126238
X62738Y123952
X59436Y123698
X58039Y126238
X61849Y128270
X61214Y121285
X62230Y121285
X60376Y127965
X63119Y128905
X63424Y124714
X63500Y127762
X57912Y125095
X57912Y127508
X3861Y144501
X3302Y140843
X2286Y140843
X3810Y138176
X2032Y138176
X5588Y138176
X4318Y143129
X6548Y145415
X1778Y149225
X6985Y146685
X6985Y143256
X4826Y140335
X762Y148336
X3810Y145796
X5842Y143510
X2540Y143256
X1143Y145796
X4953Y147828
X4318Y140843
X5334Y140843
X3480Y147523
X6223Y148463
X6528Y144272
X6604Y147320
X1016Y144653
X1016Y147066
X11989Y144501
X11430Y140843
X10414Y140843
X11938Y138176
X10160Y138176
X13716Y138176
X12446Y143129
X14676Y145415
X9906Y149225
X15113Y146685
X15113Y143256
X12954Y140335
X8890Y148336
X11938Y145796
X13970Y143510
X10668Y143256
X9271Y145796
X13081Y147828
X12446Y140843
X13462Y140843
X11608Y147523
X14351Y148463
X14656Y144272
X14732Y147320
X9144Y144653
X9144Y147066
X20117Y144501
X19558Y140843
X18542Y140843
X20066Y138176
X18288Y138176
X21844Y138176
X20574Y143129
X22804Y145415
X18034Y149225
X23241Y146685
X23241Y143256
X21082Y140335
X17018Y148336
X20066Y145796
X22098Y143510
X18796Y143256
X17399Y145796
X21209Y147828
X20574Y140843
X21590Y140843
X19736Y147523
X22479Y148463
X22784Y144272
X22860Y147320
X17272Y144653
X17272Y147066
X28245Y144501
X27686Y140843
X26670Y140843
X28194Y138176
X26416Y138176
X29972Y138176
X28702Y143129
X30932Y145415
X26162Y149225
X31369Y146685
X31369Y143256
X29210Y140335
X25146Y148336
X28194Y145796
X30226Y143510
X26924Y143256
X25527Y145796
X29337Y147828
X28702Y140843
X29718Y140843
X27864Y147523
X30607Y148463
X30912Y144272
X30988Y147320
X25400Y144653
X25400Y147066
X36373Y144501
X35814Y140843
X34798Y140843
X36322Y138176
X34544Y138176
X38100Y138176
X36830Y143129
X39060Y145415
X34290Y149225
X39497Y146685
X39497Y143256
X37338Y140335
X33274Y148336
X36322Y145796
X38354Y143510
X35052Y143256
X33655Y145796
X37465Y147828
X36830Y140843
X37846Y140843
X35992Y147523
X38735Y148463
X39040Y144272
X39116Y147320
X33528Y144653
X33528Y147066
X44501Y144501
X43942Y140843
X42926Y140843
X44450Y138176
X42672Y138176
X46228Y138176
X44958Y143129
X47188Y145415
X42418Y149225
X47625Y146685
X47625Y143256
X45466Y140335
X41402Y148336
X44450Y145796
X46482Y143510
X43180Y143256
X41783Y145796
X45593Y147828
X44958Y140843
X45974Y140843
X44120Y147523
X46863Y148463
X47168Y144272
X47244Y147320
X41656Y144653
X41656Y147066
X52629Y144501
X52070Y140843
X51054Y140843
X52578Y138176
X50800Y138176
X54356Y138176
X53086Y143129
X55316Y145415
X50546Y149225
X55753Y146685
X55753Y143256
X44450Y126238
X49530Y148336
X52578Y145796
X54610Y143510
X51308Y143256
X49911Y145796
X53721Y147828
X53086Y140843
X54102Y140843
X52248Y147523
X54991Y148463
X55296Y144272
X55372Y147320
X49784Y144653
X49784Y147066
X60757Y144501
X60198Y140843
X59182Y140843
X60706Y138176
X58928Y138176
X62484Y138176
X61214Y143129
X63444Y145415
X58674Y149225
X63881Y146685
X63881Y143256
X61722Y140335
X57658Y148336
X60706Y145796
X62738Y143510
X59436Y143256
X58039Y145796
X61849Y147828
X61214Y140843
X62230Y140843
X60376Y147523
X63119Y148463
X63424Y144272
X63500Y147320
X57912Y144653
X57912Y147066
X3302Y3937
X2286Y3937
X3810Y1270
X2032Y1270
X5588Y1270
X4318Y6223
X6548Y8509
X1778Y12319
X6985Y9779
X6985Y6350
X4826Y3429
X762Y11430
X3810Y8890
X5842Y6604
X2540Y6350
X1143Y8890
X4953Y10922
X4318Y3937
X5334Y3937
X3480Y10617
X6223Y11557
X6528Y7366
X6604Y10414
X1016Y7747
X1016Y10160
X11989Y7595
X11430Y3937
X10414Y3937
X11938Y1270
X10160Y1270
X13716Y1270
X12446Y6223
X14676Y8509
X9906Y12319
X15113Y9779
X15113Y6350
X12954Y3429
X8890Y11430
X11938Y8890
X13970Y6604
X10668Y6350
X9271Y8890
X13081Y10922
X12446Y3937
X13462Y3937
X11608Y10617
X14351Y11557
X14656Y7366
X14732Y10414
X9144Y7747
X9144Y10160
X20117Y7595
X19558Y3937
X18542Y3937
X20066Y1270
X18288Y1270
X21844Y1270
X20574Y6223
X22804Y8509
X18034Y12319
X23241Y9779
X23241Y6350
X21082Y3429
X17018Y11430
X20066Y8890
X22098Y6604
X18796Y6350
X17399Y8890
X21209Y10922
X20574Y3937
X21590Y3937
X19736Y10617
X22479Y11557
X22784Y7366
X22860Y10414
X17272Y7747
X17272Y10160
X28245Y7595
X27686Y3937
X26670Y3937
X28194Y1270
X26416Y1270
X29972Y1270
X28702Y6223
X30932Y8509
X26162Y12319
X31369Y9779
X31369Y6350
X29210Y3429
X25146Y11430
X28194Y8890
X30226Y6604
X26924Y6350
X25527Y8890
X29337Y10922
X28702Y3937
X29718Y3937
X27864Y10617
X30607Y11557
X30912Y7366
X30988Y10414
X25400Y7747
X25400Y10160
X36373Y7595
X35814Y3937
X34798Y3937
X36322Y1270
X34544Y1270
X38100Y1270
X36830Y6223
X39060Y8509
X34290Y12319
X39497Y9779
X39497Y6350
X37338Y3429
X33274Y11430
X36322Y8890
X38354Y6604
X35052Y6350
X33655Y8890
X37465Y10922
X36830Y3937
X37846Y3937
X35992Y10617
X38735Y11557
X39040Y7366
X39116Y10414
X33528Y7747
X33528Y10160
X44501Y7595
X43942Y3937
X42926Y3937
X44450Y1270
X42672Y1270
X46228Y1270
X44958Y6223
X47188Y8509
X42418Y12319
X47625Y9779
X47625Y6350
X45466Y3429
X41402Y11430
X44450Y8890
X46482Y6604
X43180Y6350
X41783Y8890
X45593Y10922
X44958Y3937
X45974Y3937
X44120Y10617
X46863Y11557
X47168Y7366
X47244Y10414
X41656Y7747
X41656Y10160
X52629Y7595
X52070Y3937
X51054Y3937
X52578Y1270
X50800Y1270
X54356Y1270
X53086Y6223
X55316Y8509
X50546Y12319
X55753Y9779
X55753Y6350
X53594Y3429
X49530Y11430
X52578Y8890
X54610Y6604
X51308Y6350
X49911Y8890
X53721Y10922
X53086Y3937
X54102Y3937
X52248Y10617
X54991Y11557
X55296Y7366
X55372Y10414
X49784Y7747
X49784Y10160
X60757Y7595
X60198Y3937
X59182Y3937
X60706Y1270
X58928Y1270
X62484Y1270
X61214Y6223
X63444Y8509
X58674Y12319
X63881Y9779
X53594Y140335
M30