M48
;GenerationSoftware,Autodesk,EAGLE,9.6.2*%
;CreationDate,2022-05-26T18:51:24Z*%
FMAT,2
ICI,OFF
METRIC,TZ,000.000
T4C0.305
T3C0.350
T2C1.016
T1C3.302
%
G90
M71
T1
X2540Y22860
X22860Y22860
T2
X20320Y1270
X5080Y1270
X7620Y1270
X10160Y1270
X12700Y1270
X15240Y1270
X17780Y1270
T3
X17630Y6985
X20447Y7112
T4
X8890Y2540
X5715Y10287
X6350Y14224
X21590Y11303
X16002Y12319
X10160Y7874
X16764Y8763
X18415Y11303
X16383Y17145
X10541Y14859
X13081Y9652
X8509Y12192
X18161Y14097
X7493Y10541
X12700Y6604
X19558Y18415
X24130Y1270
X15240Y7620
X14986Y9271
X22860Y11303
X19050Y5715
X12446Y8255
X17780Y13200
X7613Y12207
X6350Y11200
X19050Y14200
X13970Y5461
X15240Y10287
X21590Y12192
X9891Y17160
X15509Y17160
X10574Y13683
X11430Y9525
X20447Y19050
X12954Y14224
X11430Y2540
X13970Y2540
X9017Y17145
X16510Y2540
X19050Y24130
X6350Y24130
X12700Y19177
X10668Y10414
X13970Y9525
M30