G04 EAGLE Gerber RS-274X export*
G75*
%MOMM*%
%FSLAX34Y34*%
%LPD*%
%INSilkscreen Bottom*%
%IPPOS*%
%AMOC8*
5,1,8,0,0,1.08239X$1,22.5*%
G01*
%ADD10C,0.152400*%
%ADD11C,0.203200*%

G36*
X158711Y21139D02*
X158711Y21139D01*
X158718Y21134D01*
X159218Y21334D01*
X159233Y21358D01*
X159240Y21364D01*
X159238Y21367D01*
X159243Y21375D01*
X159249Y21380D01*
X159249Y94980D01*
X159246Y94984D01*
X159249Y94987D01*
X159149Y95683D01*
X159149Y96280D01*
X159143Y96288D01*
X159147Y96294D01*
X158947Y96994D01*
X158946Y96995D01*
X158947Y96996D01*
X158747Y97596D01*
X158744Y97597D01*
X158745Y97599D01*
X158445Y98299D01*
X158437Y98304D01*
X158438Y98311D01*
X158040Y98809D01*
X157641Y99407D01*
X157638Y99408D01*
X157638Y99411D01*
X157238Y99911D01*
X157231Y99913D01*
X157231Y99918D01*
X156731Y100318D01*
X156727Y100319D01*
X156727Y100321D01*
X156129Y100720D01*
X155631Y101118D01*
X155621Y101119D01*
X155619Y101125D01*
X154919Y101425D01*
X154916Y101425D01*
X154916Y101427D01*
X154316Y101627D01*
X154309Y101625D01*
X154307Y101629D01*
X153608Y101729D01*
X153008Y101829D01*
X153007Y101828D01*
X153007Y101829D01*
X152307Y101929D01*
X152298Y101924D01*
X152293Y101929D01*
X151593Y101829D01*
X151592Y101828D01*
X151592Y101829D01*
X150992Y101729D01*
X150989Y101725D01*
X150986Y101727D01*
X150286Y101527D01*
X150285Y101526D01*
X150284Y101527D01*
X149684Y101327D01*
X149681Y101322D01*
X149678Y101324D01*
X149078Y101024D01*
X149076Y101020D01*
X149073Y101021D01*
X148473Y100621D01*
X148472Y100618D01*
X148469Y100618D01*
X147969Y100218D01*
X147968Y100214D01*
X147965Y100215D01*
X146965Y99215D01*
X146965Y99211D01*
X146962Y99211D01*
X146562Y98711D01*
X146561Y98703D01*
X146556Y98702D01*
X146256Y98102D01*
X146257Y98095D01*
X146253Y98094D01*
X146219Y97974D01*
X146176Y97826D01*
X146162Y97777D01*
X146120Y97629D01*
X146078Y97482D01*
X146064Y97432D01*
X146054Y97398D01*
X145756Y96802D01*
X145757Y96796D01*
X145752Y96792D01*
X145755Y96789D01*
X145751Y96787D01*
X145651Y96088D01*
X145551Y95488D01*
X145554Y95483D01*
X145551Y95480D01*
X145551Y21680D01*
X145559Y21669D01*
X145554Y21662D01*
X145754Y21162D01*
X145795Y21137D01*
X145800Y21131D01*
X158700Y21131D01*
X158711Y21139D01*
G37*
G36*
X133747Y21167D02*
X133747Y21167D01*
X133745Y21170D01*
X133749Y21172D01*
X133849Y21772D01*
X133846Y21777D01*
X133849Y21780D01*
X133849Y92280D01*
X133846Y92284D01*
X133849Y92287D01*
X133749Y92987D01*
X133724Y93011D01*
X133722Y93024D01*
X127022Y96324D01*
X126990Y96318D01*
X126978Y96324D01*
X120378Y93024D01*
X120366Y93000D01*
X120353Y92996D01*
X120153Y92396D01*
X120157Y92385D01*
X120151Y92380D01*
X120151Y21180D01*
X120187Y21133D01*
X120194Y21138D01*
X120200Y21131D01*
X133700Y21131D01*
X133747Y21167D01*
G37*
G36*
X108347Y21167D02*
X108347Y21167D01*
X108345Y21170D01*
X108349Y21172D01*
X108449Y21772D01*
X108446Y21777D01*
X108449Y21780D01*
X108449Y87480D01*
X108446Y87484D01*
X108449Y87487D01*
X108249Y88887D01*
X108244Y88892D01*
X108247Y88896D01*
X108047Y89495D01*
X107847Y90194D01*
X107842Y90198D01*
X107844Y90202D01*
X107544Y90802D01*
X107537Y90805D01*
X107538Y90811D01*
X107140Y91309D01*
X106741Y91907D01*
X106738Y91908D01*
X106738Y91911D01*
X106338Y92411D01*
X106328Y92413D01*
X106327Y92421D01*
X105729Y92820D01*
X105231Y93218D01*
X105223Y93219D01*
X105222Y93224D01*
X104022Y93824D01*
X104015Y93823D01*
X104014Y93827D01*
X103314Y94027D01*
X103310Y94026D01*
X103308Y94029D01*
X102708Y94129D01*
X102707Y94128D01*
X102707Y94129D01*
X102007Y94229D01*
X102002Y94226D01*
X102000Y94229D01*
X101300Y94229D01*
X101296Y94226D01*
X101293Y94229D01*
X100593Y94129D01*
X100592Y94128D01*
X100592Y94129D01*
X99992Y94029D01*
X99989Y94025D01*
X99986Y94027D01*
X99286Y93827D01*
X99285Y93826D01*
X99284Y93827D01*
X98684Y93627D01*
X98679Y93619D01*
X98673Y93621D01*
X98075Y93223D01*
X97478Y92924D01*
X97473Y92914D01*
X97465Y92915D01*
X96465Y91915D01*
X96465Y91911D01*
X96462Y91911D01*
X96062Y91411D01*
X96061Y91403D01*
X96056Y91402D01*
X95757Y90805D01*
X95359Y90207D01*
X95360Y90198D01*
X95359Y90197D01*
X95353Y90196D01*
X94953Y88996D01*
X94955Y88989D01*
X94951Y88987D01*
X94751Y87587D01*
X94753Y87583D01*
X94753Y87582D01*
X94751Y87580D01*
X94751Y21280D01*
X94787Y21233D01*
X94790Y21235D01*
X94792Y21231D01*
X95392Y21131D01*
X95397Y21134D01*
X95400Y21131D01*
X108300Y21131D01*
X108347Y21167D01*
G37*
G36*
X109248Y151914D02*
X109248Y151914D01*
X109260Y151911D01*
X109660Y152211D01*
X109664Y152227D01*
X109671Y152232D01*
X109667Y152238D01*
X109669Y152242D01*
X109679Y152250D01*
X109679Y165150D01*
X109666Y165168D01*
X109669Y165180D01*
X109369Y165580D01*
X109338Y165589D01*
X109330Y165599D01*
X69730Y165599D01*
X69726Y165596D01*
X69723Y165599D01*
X69023Y165499D01*
X69022Y165498D01*
X69022Y165499D01*
X68422Y165399D01*
X68419Y165395D01*
X68416Y165397D01*
X67716Y165197D01*
X67712Y165192D01*
X67708Y165194D01*
X66508Y164594D01*
X66506Y164590D01*
X66503Y164591D01*
X65903Y164191D01*
X65902Y164188D01*
X65899Y164188D01*
X65399Y163788D01*
X65398Y163784D01*
X65395Y163785D01*
X64895Y163285D01*
X64895Y163281D01*
X64892Y163281D01*
X64492Y162781D01*
X64491Y162777D01*
X64489Y162777D01*
X64089Y162177D01*
X64089Y162173D01*
X64086Y162172D01*
X63786Y161572D01*
X63787Y161569D01*
X63784Y161567D01*
X63785Y161566D01*
X63783Y161566D01*
X63583Y160966D01*
X63584Y160964D01*
X63583Y160964D01*
X63544Y160828D01*
X63502Y160681D01*
X63488Y160631D01*
X63446Y160484D01*
X63403Y160336D01*
X63389Y160287D01*
X63383Y160264D01*
X63384Y160260D01*
X63381Y160258D01*
X63281Y159658D01*
X63282Y159657D01*
X63281Y159657D01*
X63181Y158957D01*
X63184Y158952D01*
X63181Y158950D01*
X63181Y158250D01*
X63184Y158246D01*
X63181Y158243D01*
X63281Y157543D01*
X63286Y157538D01*
X63283Y157534D01*
X63483Y156935D01*
X63683Y156236D01*
X63688Y156232D01*
X63686Y156228D01*
X64286Y155028D01*
X64293Y155025D01*
X64292Y155019D01*
X65092Y154019D01*
X65096Y154018D01*
X65095Y154015D01*
X65595Y153515D01*
X65602Y153514D01*
X65603Y153509D01*
X66203Y153109D01*
X66205Y153109D01*
X66205Y153108D01*
X66705Y152808D01*
X66710Y152808D01*
X66711Y152805D01*
X67409Y152505D01*
X68008Y152206D01*
X68019Y152208D01*
X68022Y152201D01*
X68622Y152101D01*
X68623Y152102D01*
X68623Y152101D01*
X70023Y151901D01*
X70028Y151904D01*
X70030Y151901D01*
X109230Y151901D01*
X109248Y151914D01*
G37*
G36*
X184274Y151904D02*
X184274Y151904D01*
X184277Y151901D01*
X184977Y152001D01*
X184982Y152006D01*
X184986Y152003D01*
X185585Y152203D01*
X186284Y152403D01*
X186288Y152408D01*
X186292Y152406D01*
X187492Y153006D01*
X187495Y153013D01*
X187501Y153012D01*
X188001Y153412D01*
X188002Y153416D01*
X188005Y153415D01*
X189005Y154415D01*
X189005Y154419D01*
X189008Y154419D01*
X189408Y154919D01*
X189409Y154927D01*
X189414Y154928D01*
X190014Y156128D01*
X190013Y156135D01*
X190017Y156136D01*
X190056Y156271D01*
X190070Y156320D01*
X190112Y156468D01*
X190154Y156615D01*
X190168Y156665D01*
X190210Y156812D01*
X190211Y156812D01*
X190210Y156812D01*
X190217Y156835D01*
X190417Y157434D01*
X190415Y157441D01*
X190419Y157443D01*
X190519Y158143D01*
X190516Y158148D01*
X190519Y158150D01*
X190519Y159550D01*
X190516Y159555D01*
X190519Y159558D01*
X190419Y160158D01*
X190415Y160161D01*
X190417Y160164D01*
X190217Y160864D01*
X190212Y160868D01*
X190214Y160872D01*
X189314Y162672D01*
X189307Y162675D01*
X189308Y162681D01*
X188908Y163181D01*
X188904Y163182D01*
X188905Y163185D01*
X187905Y164185D01*
X187893Y164186D01*
X187892Y164194D01*
X187295Y164493D01*
X186697Y164891D01*
X186688Y164890D01*
X186686Y164897D01*
X185486Y165297D01*
X185484Y165296D01*
X185484Y165297D01*
X184784Y165497D01*
X184779Y165496D01*
X184777Y165499D01*
X184077Y165599D01*
X184072Y165596D01*
X184070Y165599D01*
X183770Y165599D01*
X183750Y165584D01*
X183737Y165586D01*
X183712Y165564D01*
X183714Y165573D01*
X183687Y165577D01*
X183670Y165599D01*
X144370Y165599D01*
X144323Y165563D01*
X144326Y165559D01*
X144323Y165556D01*
X144325Y165553D01*
X144321Y165550D01*
X144321Y152050D01*
X144357Y152003D01*
X144360Y152005D01*
X144362Y152001D01*
X144962Y151901D01*
X144967Y151904D01*
X144970Y151901D01*
X184270Y151901D01*
X184274Y151904D01*
G37*
G36*
X142704Y168414D02*
X142704Y168414D01*
X142707Y168411D01*
X144107Y168611D01*
X144108Y168612D01*
X144108Y168611D01*
X144708Y168711D01*
X144714Y168718D01*
X144719Y168715D01*
X145419Y169015D01*
X145421Y169017D01*
X145422Y169016D01*
X146022Y169316D01*
X146023Y169319D01*
X146025Y169318D01*
X146525Y169618D01*
X146526Y169619D01*
X146527Y169619D01*
X147127Y170019D01*
X147130Y170026D01*
X147135Y170025D01*
X147635Y170525D01*
X147635Y170529D01*
X147638Y170529D01*
X148038Y171029D01*
X148039Y171033D01*
X148041Y171033D01*
X148441Y171633D01*
X148441Y171637D01*
X148444Y171638D01*
X149044Y172838D01*
X149043Y172843D01*
X149047Y172844D01*
X149247Y173444D01*
X149246Y173446D01*
X149247Y173446D01*
X149268Y173519D01*
X149282Y173569D01*
X149324Y173716D01*
X149325Y173716D01*
X149324Y173716D01*
X149367Y173864D01*
X149381Y173913D01*
X149423Y174061D01*
X149447Y174146D01*
X149444Y174156D01*
X149449Y174160D01*
X149449Y176160D01*
X149446Y176164D01*
X149449Y176167D01*
X149349Y176867D01*
X149344Y176872D01*
X149347Y176876D01*
X149147Y177476D01*
X149144Y177477D01*
X149145Y177479D01*
X148845Y178179D01*
X148843Y178181D01*
X148844Y178182D01*
X148544Y178782D01*
X148537Y178785D01*
X148538Y178791D01*
X147738Y179791D01*
X147734Y179792D01*
X147735Y179795D01*
X146735Y180795D01*
X146723Y180796D01*
X146722Y180804D01*
X144922Y181704D01*
X144917Y181703D01*
X144916Y181707D01*
X144316Y181907D01*
X144311Y181905D01*
X144309Y181905D01*
X144307Y181909D01*
X142907Y182109D01*
X142902Y182106D01*
X142900Y182109D01*
X110800Y182109D01*
X110795Y182106D01*
X110792Y182109D01*
X110192Y182009D01*
X110189Y182005D01*
X110186Y182007D01*
X109486Y181807D01*
X109485Y181806D01*
X109484Y181807D01*
X108884Y181607D01*
X108883Y181604D01*
X108881Y181605D01*
X108181Y181305D01*
X108179Y181303D01*
X108178Y181304D01*
X107578Y181004D01*
X107575Y180997D01*
X107569Y180998D01*
X107069Y180598D01*
X107068Y180594D01*
X107065Y180595D01*
X106567Y180097D01*
X106069Y179698D01*
X106067Y179688D01*
X106059Y179687D01*
X105659Y179087D01*
X105659Y179083D01*
X105656Y179082D01*
X104756Y177282D01*
X104758Y177271D01*
X104751Y177267D01*
X104651Y176568D01*
X104551Y175968D01*
X104552Y175967D01*
X104551Y175967D01*
X104451Y175267D01*
X104456Y175258D01*
X104451Y175253D01*
X104651Y173853D01*
X104656Y173848D01*
X104653Y173844D01*
X104853Y173245D01*
X105053Y172546D01*
X105058Y172542D01*
X105056Y172538D01*
X105356Y171938D01*
X105359Y171937D01*
X105358Y171935D01*
X105658Y171435D01*
X105663Y171433D01*
X105662Y171428D01*
X106162Y170829D01*
X106562Y170329D01*
X106569Y170327D01*
X106569Y170322D01*
X107069Y169922D01*
X107073Y169921D01*
X107073Y169919D01*
X107673Y169519D01*
X107677Y169519D01*
X107678Y169516D01*
X108878Y168916D01*
X108883Y168917D01*
X108884Y168913D01*
X109484Y168713D01*
X109486Y168714D01*
X109486Y168713D01*
X110186Y168513D01*
X110191Y168515D01*
X110193Y168511D01*
X110893Y168411D01*
X110898Y168414D01*
X110900Y168411D01*
X142700Y168411D01*
X142704Y168414D01*
G37*
G36*
X223954Y129044D02*
X223954Y129044D01*
X223957Y129041D01*
X225357Y129241D01*
X225362Y129246D01*
X225366Y129243D01*
X225965Y129443D01*
X226664Y129643D01*
X226668Y129648D01*
X226672Y129646D01*
X227272Y129946D01*
X227275Y129953D01*
X227281Y129952D01*
X227779Y130350D01*
X228377Y130749D01*
X228380Y130756D01*
X228385Y130755D01*
X228885Y131255D01*
X228885Y131259D01*
X228888Y131259D01*
X229288Y131759D01*
X229289Y131763D01*
X229291Y131763D01*
X229691Y132363D01*
X229691Y132367D01*
X229694Y132368D01*
X230294Y133568D01*
X230293Y133573D01*
X230297Y133574D01*
X230497Y134174D01*
X230495Y134181D01*
X230499Y134183D01*
X230699Y135583D01*
X230696Y135588D01*
X230699Y135590D01*
X230699Y136290D01*
X230696Y136295D01*
X230699Y136298D01*
X230599Y136898D01*
X230595Y136901D01*
X230597Y136904D01*
X230397Y137604D01*
X230396Y137605D01*
X230397Y137606D01*
X230197Y138205D01*
X229997Y138904D01*
X229992Y138908D01*
X229994Y138912D01*
X229694Y139512D01*
X229687Y139515D01*
X229688Y139521D01*
X229288Y140021D01*
X229284Y140022D01*
X229285Y140025D01*
X228285Y141025D01*
X228281Y141025D01*
X228281Y141028D01*
X227781Y141428D01*
X227777Y141429D01*
X227777Y141431D01*
X227177Y141831D01*
X227173Y141831D01*
X227172Y141834D01*
X226572Y142134D01*
X226567Y142133D01*
X226566Y142137D01*
X225366Y142537D01*
X225361Y142535D01*
X225359Y142535D01*
X225357Y142539D01*
X223957Y142739D01*
X223952Y142736D01*
X223950Y142739D01*
X194750Y142739D01*
X194746Y142736D01*
X194743Y142739D01*
X194043Y142639D01*
X194039Y142635D01*
X194036Y142637D01*
X193336Y142437D01*
X193335Y142436D01*
X193334Y142437D01*
X192734Y142237D01*
X192731Y142232D01*
X192728Y142234D01*
X191528Y141634D01*
X191526Y141630D01*
X191523Y141631D01*
X190923Y141231D01*
X190920Y141224D01*
X190915Y141225D01*
X190415Y140725D01*
X190415Y140721D01*
X190412Y140721D01*
X189612Y139721D01*
X189611Y139717D01*
X189609Y139717D01*
X189209Y139117D01*
X189209Y139113D01*
X189206Y139112D01*
X188906Y138512D01*
X188906Y138510D01*
X188906Y138509D01*
X188907Y138505D01*
X188903Y138504D01*
X188876Y138412D01*
X188862Y138362D01*
X188820Y138215D01*
X188778Y138067D01*
X188764Y138018D01*
X188722Y137870D01*
X188703Y137804D01*
X188704Y137800D01*
X188701Y137798D01*
X188601Y137198D01*
X188602Y137197D01*
X188601Y137197D01*
X188401Y135797D01*
X188406Y135788D01*
X188401Y135783D01*
X188501Y135083D01*
X188502Y135082D01*
X188501Y135082D01*
X188601Y134482D01*
X188605Y134479D01*
X188603Y134476D01*
X188803Y133776D01*
X188804Y133775D01*
X188803Y133774D01*
X189003Y133174D01*
X189008Y133171D01*
X189006Y133168D01*
X189306Y132568D01*
X189310Y132566D01*
X189309Y132563D01*
X189709Y131963D01*
X189712Y131962D01*
X189712Y131959D01*
X190512Y130959D01*
X190519Y130957D01*
X190518Y130952D01*
X191118Y130452D01*
X191124Y130452D01*
X191125Y130448D01*
X191624Y130148D01*
X192223Y129749D01*
X192232Y129750D01*
X192234Y129743D01*
X192834Y129543D01*
X192836Y129544D01*
X192836Y129543D01*
X193535Y129343D01*
X194134Y129143D01*
X194141Y129145D01*
X194143Y129141D01*
X194843Y129041D01*
X194848Y129044D01*
X194850Y129041D01*
X223950Y129041D01*
X223954Y129044D01*
G37*
G36*
X57647Y21167D02*
X57647Y21167D01*
X57642Y21174D01*
X57649Y21180D01*
X57649Y58380D01*
X57646Y58385D01*
X57649Y58388D01*
X57549Y58988D01*
X57505Y59029D01*
X57503Y59026D01*
X57500Y59029D01*
X44000Y59029D01*
X43953Y58993D01*
X43958Y58986D01*
X43951Y58980D01*
X43951Y21780D01*
X43954Y21775D01*
X43951Y21772D01*
X44051Y21172D01*
X44095Y21131D01*
X44098Y21134D01*
X44100Y21131D01*
X57600Y21131D01*
X57647Y21167D01*
G37*
G36*
X234994Y64274D02*
X234994Y64274D01*
X234997Y64271D01*
X236397Y64471D01*
X236402Y64476D01*
X236406Y64473D01*
X237606Y64873D01*
X237609Y64878D01*
X237612Y64876D01*
X238212Y65176D01*
X238214Y65180D01*
X238217Y65179D01*
X238817Y65579D01*
X238818Y65582D01*
X238821Y65582D01*
X239321Y65982D01*
X239322Y65986D01*
X239325Y65985D01*
X240325Y66985D01*
X240325Y66989D01*
X240328Y66989D01*
X240728Y67489D01*
X240729Y67497D01*
X240734Y67498D01*
X241034Y68098D01*
X241033Y68105D01*
X241037Y68106D01*
X241049Y68148D01*
X241091Y68296D01*
X241092Y68296D01*
X241091Y68296D01*
X241134Y68444D01*
X241148Y68493D01*
X241190Y68641D01*
X241232Y68788D01*
X241237Y68805D01*
X241437Y69404D01*
X241436Y69406D01*
X241437Y69406D01*
X241444Y69429D01*
X241458Y69478D01*
X241500Y69626D01*
X241542Y69773D01*
X241556Y69823D01*
X241598Y69970D01*
X241599Y69970D01*
X241598Y69970D01*
X241637Y70106D01*
X241636Y70110D01*
X241639Y70112D01*
X241739Y70712D01*
X241736Y70717D01*
X241739Y70720D01*
X241739Y71420D01*
X241736Y71424D01*
X241739Y71427D01*
X241539Y72827D01*
X241534Y72832D01*
X241537Y72836D01*
X241337Y73436D01*
X241332Y73439D01*
X241334Y73442D01*
X240734Y74642D01*
X240730Y74644D01*
X240731Y74647D01*
X240331Y75247D01*
X240328Y75248D01*
X240328Y75251D01*
X239928Y75751D01*
X239924Y75752D01*
X239925Y75755D01*
X239425Y76255D01*
X239421Y76255D01*
X239421Y76258D01*
X238921Y76658D01*
X238917Y76659D01*
X238917Y76661D01*
X238317Y77061D01*
X238313Y77061D01*
X238312Y77064D01*
X237712Y77364D01*
X237707Y77363D01*
X237706Y77367D01*
X237106Y77567D01*
X237104Y77566D01*
X237104Y77567D01*
X236404Y77767D01*
X236399Y77766D01*
X236397Y77769D01*
X235698Y77869D01*
X235098Y77969D01*
X235093Y77966D01*
X235090Y77969D01*
X203090Y77969D01*
X203064Y77950D01*
X203051Y77950D01*
X202751Y77550D01*
X202751Y77538D01*
X202743Y77532D01*
X202748Y77525D01*
X202741Y77520D01*
X202741Y64620D01*
X202760Y64594D01*
X202760Y64581D01*
X203160Y64281D01*
X203182Y64281D01*
X203190Y64271D01*
X234990Y64271D01*
X234994Y64274D01*
G37*
G36*
X184438Y21160D02*
X184438Y21160D01*
X184446Y21162D01*
X184646Y21662D01*
X184642Y21675D01*
X184649Y21680D01*
X184649Y56380D01*
X184635Y56398D01*
X184638Y56411D01*
X184238Y56911D01*
X184224Y56914D01*
X184222Y56924D01*
X178222Y59924D01*
X178206Y59921D01*
X178200Y59929D01*
X177600Y59929D01*
X177587Y59920D01*
X177578Y59924D01*
X171478Y56924D01*
X171475Y56917D01*
X171469Y56918D01*
X170969Y56518D01*
X170962Y56488D01*
X170951Y56480D01*
X170951Y21280D01*
X170987Y21233D01*
X170990Y21235D01*
X170992Y21231D01*
X171592Y21131D01*
X171597Y21134D01*
X171600Y21131D01*
X184400Y21131D01*
X184438Y21160D01*
G37*
G36*
X82511Y21139D02*
X82511Y21139D01*
X82518Y21134D01*
X83018Y21334D01*
X83033Y21358D01*
X83040Y21364D01*
X83038Y21367D01*
X83043Y21375D01*
X83049Y21380D01*
X83049Y57680D01*
X83046Y57685D01*
X83049Y57688D01*
X82949Y58288D01*
X82905Y58329D01*
X82903Y58326D01*
X82900Y58329D01*
X70000Y58329D01*
X69995Y58326D01*
X69992Y58329D01*
X69392Y58229D01*
X69351Y58185D01*
X69354Y58183D01*
X69351Y58180D01*
X69351Y21680D01*
X69359Y21669D01*
X69354Y21662D01*
X69554Y21162D01*
X69595Y21137D01*
X69600Y21131D01*
X82500Y21131D01*
X82511Y21139D01*
G37*
G36*
X34720Y165246D02*
X34720Y165246D01*
X34828Y165256D01*
X34841Y165262D01*
X34855Y165264D01*
X34952Y165312D01*
X35051Y165357D01*
X35064Y165368D01*
X35073Y165372D01*
X35088Y165388D01*
X35165Y165450D01*
X37750Y168035D01*
X37813Y168124D01*
X37879Y168209D01*
X37884Y168222D01*
X37892Y168234D01*
X37923Y168337D01*
X37959Y168440D01*
X37959Y168454D01*
X37963Y168467D01*
X37959Y168575D01*
X37960Y168684D01*
X37955Y168697D01*
X37955Y168711D01*
X37917Y168813D01*
X37882Y168915D01*
X37873Y168930D01*
X37869Y168939D01*
X37855Y168956D01*
X37801Y169038D01*
X35037Y172428D01*
X35594Y173510D01*
X35600Y173530D01*
X35642Y173625D01*
X36013Y174784D01*
X40364Y175227D01*
X40468Y175255D01*
X40574Y175280D01*
X40586Y175287D01*
X40599Y175290D01*
X40689Y175351D01*
X40782Y175408D01*
X40790Y175419D01*
X40802Y175427D01*
X40868Y175513D01*
X40937Y175597D01*
X40941Y175610D01*
X40950Y175621D01*
X40984Y175724D01*
X41023Y175825D01*
X41024Y175843D01*
X41028Y175852D01*
X41028Y175874D01*
X41037Y175972D01*
X41037Y179628D01*
X41020Y179735D01*
X41006Y179843D01*
X41000Y179855D01*
X40998Y179869D01*
X40946Y179965D01*
X40899Y180062D01*
X40889Y180072D01*
X40883Y180084D01*
X40803Y180158D01*
X40727Y180235D01*
X40715Y180241D01*
X40705Y180251D01*
X40606Y180296D01*
X40509Y180344D01*
X40491Y180348D01*
X40482Y180352D01*
X40461Y180354D01*
X40364Y180373D01*
X36013Y180816D01*
X35642Y181975D01*
X35633Y181993D01*
X35631Y182000D01*
X35627Y182007D01*
X35594Y182090D01*
X35037Y183172D01*
X37801Y186562D01*
X37855Y186656D01*
X37912Y186748D01*
X37915Y186761D01*
X37922Y186773D01*
X37943Y186880D01*
X37968Y186985D01*
X37966Y186999D01*
X37969Y187013D01*
X37954Y187120D01*
X37944Y187228D01*
X37938Y187241D01*
X37936Y187255D01*
X37888Y187352D01*
X37843Y187451D01*
X37832Y187464D01*
X37828Y187473D01*
X37812Y187488D01*
X37750Y187565D01*
X35165Y190150D01*
X35076Y190213D01*
X34991Y190279D01*
X34978Y190284D01*
X34966Y190292D01*
X34863Y190323D01*
X34760Y190359D01*
X34746Y190359D01*
X34733Y190363D01*
X34625Y190359D01*
X34516Y190360D01*
X34503Y190355D01*
X34489Y190355D01*
X34387Y190317D01*
X34285Y190282D01*
X34270Y190273D01*
X34261Y190269D01*
X34244Y190255D01*
X34162Y190201D01*
X30772Y187437D01*
X29690Y187994D01*
X29670Y188000D01*
X29575Y188042D01*
X28416Y188413D01*
X27973Y192764D01*
X27945Y192868D01*
X27920Y192974D01*
X27913Y192986D01*
X27910Y192999D01*
X27849Y193089D01*
X27792Y193182D01*
X27781Y193190D01*
X27773Y193202D01*
X27687Y193268D01*
X27603Y193337D01*
X27590Y193341D01*
X27579Y193350D01*
X27476Y193384D01*
X27375Y193423D01*
X27357Y193424D01*
X27348Y193428D01*
X27326Y193428D01*
X27228Y193437D01*
X23572Y193437D01*
X23465Y193420D01*
X23357Y193406D01*
X23345Y193400D01*
X23331Y193398D01*
X23235Y193346D01*
X23138Y193299D01*
X23128Y193289D01*
X23116Y193283D01*
X23042Y193203D01*
X22965Y193127D01*
X22959Y193115D01*
X22949Y193105D01*
X22904Y193006D01*
X22856Y192909D01*
X22852Y192891D01*
X22848Y192882D01*
X22846Y192861D01*
X22827Y192764D01*
X22384Y188413D01*
X21225Y188042D01*
X21207Y188032D01*
X21110Y187994D01*
X20028Y187437D01*
X16638Y190201D01*
X16544Y190255D01*
X16452Y190312D01*
X16439Y190315D01*
X16427Y190322D01*
X16320Y190343D01*
X16215Y190368D01*
X16201Y190366D01*
X16187Y190369D01*
X16080Y190354D01*
X15972Y190344D01*
X15959Y190338D01*
X15946Y190336D01*
X15848Y190288D01*
X15749Y190243D01*
X15736Y190232D01*
X15727Y190228D01*
X15712Y190212D01*
X15635Y190150D01*
X13050Y187565D01*
X12987Y187476D01*
X12921Y187391D01*
X12916Y187378D01*
X12908Y187366D01*
X12877Y187263D01*
X12841Y187160D01*
X12841Y187146D01*
X12837Y187133D01*
X12841Y187025D01*
X12840Y186916D01*
X12845Y186903D01*
X12845Y186889D01*
X12883Y186787D01*
X12918Y186685D01*
X12927Y186670D01*
X12931Y186661D01*
X12945Y186644D01*
X12999Y186562D01*
X15763Y183172D01*
X15206Y182090D01*
X15200Y182070D01*
X15158Y181975D01*
X14787Y180816D01*
X10436Y180373D01*
X10332Y180345D01*
X10226Y180320D01*
X10214Y180313D01*
X10201Y180310D01*
X10111Y180249D01*
X10018Y180192D01*
X10010Y180181D01*
X9998Y180173D01*
X9932Y180087D01*
X9864Y180003D01*
X9859Y179990D01*
X9850Y179979D01*
X9816Y179876D01*
X9777Y179775D01*
X9776Y179757D01*
X9772Y179748D01*
X9773Y179726D01*
X9763Y179628D01*
X9763Y175972D01*
X9780Y175865D01*
X9794Y175757D01*
X9800Y175745D01*
X9802Y175731D01*
X9854Y175635D01*
X9901Y175538D01*
X9911Y175528D01*
X9917Y175516D01*
X9997Y175442D01*
X10073Y175365D01*
X10085Y175359D01*
X10096Y175349D01*
X10194Y175304D01*
X10291Y175256D01*
X10309Y175252D01*
X10318Y175248D01*
X10339Y175246D01*
X10436Y175227D01*
X14787Y174784D01*
X15158Y173625D01*
X15168Y173607D01*
X15206Y173510D01*
X15763Y172428D01*
X12999Y169038D01*
X12945Y168944D01*
X12888Y168852D01*
X12885Y168839D01*
X12878Y168827D01*
X12857Y168720D01*
X12832Y168615D01*
X12834Y168601D01*
X12831Y168587D01*
X12846Y168480D01*
X12856Y168372D01*
X12862Y168359D01*
X12864Y168346D01*
X12912Y168248D01*
X12957Y168149D01*
X12968Y168136D01*
X12972Y168127D01*
X12988Y168112D01*
X13050Y168035D01*
X15635Y165450D01*
X15724Y165387D01*
X15809Y165321D01*
X15822Y165316D01*
X15834Y165308D01*
X15937Y165277D01*
X16040Y165241D01*
X16054Y165241D01*
X16067Y165237D01*
X16175Y165241D01*
X16284Y165240D01*
X16297Y165245D01*
X16311Y165245D01*
X16413Y165283D01*
X16515Y165318D01*
X16530Y165327D01*
X16539Y165331D01*
X16556Y165345D01*
X16638Y165399D01*
X20028Y168163D01*
X21110Y167606D01*
X21163Y167589D01*
X21212Y167563D01*
X21278Y167552D01*
X21342Y167531D01*
X21398Y167532D01*
X21452Y167523D01*
X21519Y167534D01*
X21586Y167535D01*
X21638Y167553D01*
X21693Y167562D01*
X21753Y167594D01*
X21816Y167617D01*
X21859Y167651D01*
X21909Y167677D01*
X21955Y167726D01*
X22007Y167768D01*
X22038Y167815D01*
X22076Y167855D01*
X22132Y167960D01*
X22140Y167973D01*
X22141Y167978D01*
X22145Y167985D01*
X24298Y173182D01*
X24318Y173265D01*
X24323Y173278D01*
X24325Y173294D01*
X24350Y173379D01*
X24349Y173400D01*
X24354Y173420D01*
X24346Y173502D01*
X24347Y173521D01*
X24343Y173541D01*
X24339Y173622D01*
X24332Y173642D01*
X24330Y173663D01*
X24298Y173732D01*
X24292Y173759D01*
X24277Y173783D01*
X24251Y173850D01*
X24238Y173866D01*
X24229Y173885D01*
X24184Y173934D01*
X24164Y173966D01*
X24133Y173991D01*
X24095Y174037D01*
X24072Y174053D01*
X24062Y174063D01*
X24041Y174075D01*
X23976Y174120D01*
X23975Y174121D01*
X23974Y174122D01*
X23075Y174628D01*
X22388Y175272D01*
X21873Y176060D01*
X21561Y176948D01*
X21469Y177885D01*
X21602Y178817D01*
X21953Y179691D01*
X22502Y180456D01*
X23216Y181069D01*
X24056Y181494D01*
X24973Y181708D01*
X25914Y181698D01*
X26826Y181464D01*
X27656Y181021D01*
X28357Y180392D01*
X28889Y179615D01*
X29220Y178734D01*
X29333Y177799D01*
X29225Y176882D01*
X28905Y176014D01*
X28391Y175245D01*
X27712Y174618D01*
X26828Y174123D01*
X26786Y174090D01*
X26744Y174067D01*
X26713Y174034D01*
X26665Y173999D01*
X26653Y173983D01*
X26637Y173970D01*
X26602Y173915D01*
X26577Y173889D01*
X26564Y173859D01*
X26522Y173801D01*
X26516Y173782D01*
X26506Y173765D01*
X26487Y173690D01*
X26477Y173667D01*
X26474Y173643D01*
X26451Y173568D01*
X26452Y173548D01*
X26447Y173528D01*
X26454Y173442D01*
X26453Y173424D01*
X26456Y173408D01*
X26459Y173324D01*
X26467Y173299D01*
X26468Y173285D01*
X26478Y173263D01*
X26502Y173182D01*
X27431Y170939D01*
X27431Y170938D01*
X28362Y168691D01*
X28363Y168691D01*
X28655Y167985D01*
X28684Y167938D01*
X28705Y167886D01*
X28748Y167835D01*
X28784Y167778D01*
X28827Y167743D01*
X28863Y167700D01*
X28920Y167666D01*
X28972Y167623D01*
X29024Y167604D01*
X29072Y167575D01*
X29138Y167561D01*
X29201Y167537D01*
X29256Y167535D01*
X29310Y167524D01*
X29377Y167531D01*
X29444Y167529D01*
X29498Y167545D01*
X29553Y167552D01*
X29664Y167596D01*
X29678Y167600D01*
X29682Y167603D01*
X29690Y167606D01*
X30772Y168163D01*
X34162Y165399D01*
X34256Y165345D01*
X34348Y165288D01*
X34361Y165285D01*
X34373Y165278D01*
X34480Y165257D01*
X34585Y165232D01*
X34599Y165234D01*
X34613Y165231D01*
X34720Y165246D01*
G37*
G36*
X139505Y117614D02*
X139505Y117614D01*
X139508Y117611D01*
X140108Y117711D01*
X140111Y117715D01*
X140114Y117713D01*
X140814Y117913D01*
X140815Y117914D01*
X140816Y117913D01*
X141416Y118113D01*
X141417Y118116D01*
X141419Y118115D01*
X142119Y118415D01*
X142121Y118417D01*
X142122Y118416D01*
X142722Y118716D01*
X142725Y118723D01*
X142731Y118722D01*
X143731Y119522D01*
X143732Y119526D01*
X143735Y119525D01*
X144235Y120025D01*
X144236Y120032D01*
X144241Y120033D01*
X144641Y120633D01*
X144641Y120637D01*
X144644Y120638D01*
X145544Y122438D01*
X145542Y122449D01*
X145549Y122453D01*
X145649Y123152D01*
X145749Y123752D01*
X145748Y123753D01*
X145749Y123753D01*
X145849Y124453D01*
X145844Y124462D01*
X145849Y124467D01*
X145749Y125167D01*
X145748Y125168D01*
X145749Y125168D01*
X145649Y125768D01*
X145549Y126467D01*
X145541Y126475D01*
X145544Y126482D01*
X144644Y128282D01*
X144640Y128284D01*
X144641Y128287D01*
X144241Y128887D01*
X144234Y128890D01*
X144235Y128895D01*
X143735Y129395D01*
X143731Y129395D01*
X143731Y129398D01*
X142731Y130198D01*
X142723Y130199D01*
X142722Y130204D01*
X141522Y130804D01*
X141515Y130803D01*
X141514Y130807D01*
X140114Y131207D01*
X140110Y131206D01*
X140108Y131209D01*
X139508Y131309D01*
X139503Y131306D01*
X139500Y131309D01*
X114600Y131309D01*
X114596Y131306D01*
X114593Y131309D01*
X113893Y131209D01*
X113892Y131208D01*
X113892Y131209D01*
X113292Y131109D01*
X113286Y131102D01*
X113281Y131105D01*
X112582Y130806D01*
X111984Y130607D01*
X111979Y130599D01*
X111973Y130601D01*
X111374Y130202D01*
X110875Y129902D01*
X110871Y129894D01*
X110865Y129895D01*
X109865Y128895D01*
X109865Y128891D01*
X109862Y128891D01*
X109462Y128391D01*
X109461Y128387D01*
X109459Y128387D01*
X109059Y127787D01*
X109059Y127783D01*
X109056Y127782D01*
X108756Y127182D01*
X108756Y127179D01*
X108755Y127179D01*
X108757Y127177D01*
X108753Y127176D01*
X108553Y126576D01*
X108554Y126574D01*
X108553Y126574D01*
X108529Y126489D01*
X108486Y126341D01*
X108472Y126292D01*
X108430Y126144D01*
X108388Y125997D01*
X108374Y125947D01*
X108353Y125874D01*
X108354Y125870D01*
X108351Y125868D01*
X108251Y125268D01*
X108252Y125267D01*
X108251Y125267D01*
X108151Y124567D01*
X108156Y124558D01*
X108151Y124553D01*
X108351Y123153D01*
X108352Y123152D01*
X108351Y123152D01*
X108451Y122552D01*
X108456Y122548D01*
X108453Y122544D01*
X108653Y121944D01*
X108656Y121943D01*
X108655Y121941D01*
X108955Y121241D01*
X108963Y121236D01*
X108962Y121229D01*
X109360Y120731D01*
X109759Y120133D01*
X109762Y120132D01*
X109762Y120129D01*
X110162Y119629D01*
X110169Y119627D01*
X110169Y119622D01*
X110669Y119222D01*
X110673Y119221D01*
X110673Y119219D01*
X111271Y118820D01*
X111769Y118422D01*
X111779Y118421D01*
X111781Y118415D01*
X112481Y118115D01*
X112484Y118116D01*
X112484Y118113D01*
X113084Y117913D01*
X113086Y117914D01*
X113086Y117913D01*
X113786Y117713D01*
X113796Y117716D01*
X113800Y117711D01*
X114397Y117711D01*
X115093Y117611D01*
X115098Y117614D01*
X115100Y117611D01*
X139500Y117611D01*
X139505Y117614D01*
G37*
G36*
X209726Y21150D02*
X209726Y21150D01*
X209739Y21150D01*
X210039Y21550D01*
X210039Y21558D01*
X210043Y21561D01*
X210039Y21565D01*
X210039Y21572D01*
X210049Y21580D01*
X210049Y57080D01*
X210048Y57081D01*
X210049Y57082D01*
X210046Y57085D01*
X210013Y57127D01*
X209999Y57117D01*
X209984Y57127D01*
X209384Y56927D01*
X209381Y56922D01*
X209378Y56924D01*
X203296Y53833D01*
X202719Y54026D01*
X196622Y57024D01*
X196563Y57013D01*
X196564Y57008D01*
X196559Y57007D01*
X196359Y56707D01*
X196359Y56703D01*
X196359Y56702D01*
X196360Y56687D01*
X196351Y56680D01*
X196351Y21380D01*
X196380Y21342D01*
X196382Y21334D01*
X196882Y21134D01*
X196895Y21138D01*
X196900Y21131D01*
X209700Y21131D01*
X209726Y21150D01*
G37*
G36*
X118140Y214091D02*
X118140Y214091D01*
X118191Y214093D01*
X118223Y214111D01*
X118259Y214119D01*
X118298Y214152D01*
X118343Y214176D01*
X118364Y214206D01*
X118392Y214229D01*
X118413Y214276D01*
X118443Y214318D01*
X118451Y214360D01*
X118463Y214388D01*
X118462Y214418D01*
X118470Y214460D01*
X118470Y227260D01*
X118466Y227278D01*
X118468Y227302D01*
X118268Y229102D01*
X118257Y229133D01*
X118251Y229180D01*
X118051Y229780D01*
X118038Y229800D01*
X118030Y229830D01*
X117730Y230430D01*
X117722Y230440D01*
X117716Y230456D01*
X117416Y230956D01*
X117402Y230970D01*
X117393Y230989D01*
X117316Y231059D01*
X117295Y231080D01*
X117290Y231082D01*
X117286Y231086D01*
X116802Y231376D01*
X116418Y231664D01*
X116383Y231679D01*
X116331Y231713D01*
X115331Y232113D01*
X115298Y232118D01*
X115253Y232135D01*
X114653Y232235D01*
X114626Y232233D01*
X114590Y232240D01*
X113790Y232240D01*
X113754Y232232D01*
X113698Y232229D01*
X113343Y232140D01*
X113190Y232140D01*
X113175Y232137D01*
X113160Y232139D01*
X113028Y232102D01*
X113021Y232101D01*
X113021Y232100D01*
X113020Y232100D01*
X112820Y232000D01*
X112801Y231984D01*
X112777Y231975D01*
X112735Y231929D01*
X112687Y231889D01*
X112677Y231867D01*
X112660Y231848D01*
X112642Y231788D01*
X112616Y231731D01*
X112618Y231706D01*
X112610Y231682D01*
X112621Y231620D01*
X112624Y231558D01*
X112636Y231536D01*
X112640Y231511D01*
X112689Y231438D01*
X112707Y231406D01*
X112715Y231401D01*
X112721Y231391D01*
X112821Y231291D01*
X112853Y231271D01*
X112920Y231220D01*
X113320Y231020D01*
X113343Y231014D01*
X113370Y230999D01*
X113585Y230928D01*
X113895Y230618D01*
X114045Y230392D01*
X114110Y230198D01*
X114110Y230022D01*
X114038Y229806D01*
X113878Y229485D01*
X113648Y229256D01*
X113412Y229098D01*
X112981Y228926D01*
X112552Y228840D01*
X111837Y228840D01*
X111146Y229013D01*
X110650Y229344D01*
X110329Y229745D01*
X110170Y230222D01*
X110170Y230782D01*
X110416Y231355D01*
X111076Y232109D01*
X111874Y233007D01*
X111875Y233009D01*
X111876Y233010D01*
X112576Y233810D01*
X112592Y233839D01*
X112622Y233875D01*
X113122Y234775D01*
X113133Y234813D01*
X113161Y234878D01*
X113361Y235778D01*
X113361Y235811D01*
X113370Y235860D01*
X113370Y236660D01*
X113362Y236697D01*
X113351Y236780D01*
X113051Y237680D01*
X113030Y237714D01*
X112999Y237781D01*
X112499Y238481D01*
X112473Y238504D01*
X112443Y238544D01*
X111543Y239344D01*
X111512Y239361D01*
X111472Y239394D01*
X110372Y239994D01*
X110336Y240004D01*
X110258Y240034D01*
X109158Y240234D01*
X109129Y240233D01*
X109090Y240240D01*
X108090Y240240D01*
X108053Y240232D01*
X107970Y240221D01*
X107070Y239921D01*
X107064Y239917D01*
X107057Y239916D01*
X106257Y239616D01*
X106242Y239606D01*
X106220Y239600D01*
X106054Y239517D01*
X105620Y239300D01*
X105598Y239282D01*
X105562Y239264D01*
X105162Y238964D01*
X105147Y238946D01*
X105121Y238929D01*
X105021Y238829D01*
X105008Y238807D01*
X104988Y238791D01*
X104962Y238734D01*
X104930Y238682D01*
X104927Y238656D01*
X104917Y238632D01*
X104919Y238571D01*
X104913Y238509D01*
X104922Y238485D01*
X104923Y238459D01*
X104953Y238405D01*
X104975Y238347D01*
X104994Y238330D01*
X105006Y238307D01*
X105057Y238272D01*
X105102Y238230D01*
X105127Y238222D01*
X105148Y238207D01*
X105232Y238191D01*
X105268Y238180D01*
X105278Y238182D01*
X105290Y238180D01*
X105590Y238180D01*
X105627Y238188D01*
X105710Y238199D01*
X105952Y238280D01*
X106143Y238280D01*
X106498Y238191D01*
X106506Y238191D01*
X106515Y238187D01*
X106966Y238097D01*
X107289Y237935D01*
X107610Y237695D01*
X107745Y237492D01*
X107829Y237240D01*
X107842Y237220D01*
X107850Y237190D01*
X107938Y237014D01*
X107989Y236860D01*
X107929Y236680D01*
X107928Y236667D01*
X107921Y236652D01*
X107837Y236316D01*
X107674Y236071D01*
X107666Y236051D01*
X107650Y236030D01*
X107478Y235685D01*
X107248Y235456D01*
X106979Y235276D01*
X106972Y235269D01*
X106962Y235264D01*
X106570Y234971D01*
X106299Y234790D01*
X105867Y234574D01*
X105600Y234440D01*
X105052Y234440D01*
X104859Y234505D01*
X104710Y234604D01*
X104570Y235022D01*
X104570Y235760D01*
X104558Y235810D01*
X104558Y235831D01*
X104557Y235855D01*
X104556Y235862D01*
X104539Y235894D01*
X104531Y235929D01*
X104498Y235969D01*
X104473Y236014D01*
X104443Y236035D01*
X104421Y236062D01*
X104373Y236084D01*
X104331Y236113D01*
X104295Y236119D01*
X104262Y236133D01*
X104211Y236131D01*
X104160Y236139D01*
X104119Y236128D01*
X104089Y236127D01*
X104062Y236112D01*
X104020Y236100D01*
X104009Y236095D01*
X103249Y235715D01*
X103220Y235700D01*
X103216Y235697D01*
X103106Y235613D01*
X102306Y234713D01*
X102291Y234685D01*
X102262Y234652D01*
X101562Y233452D01*
X101553Y233423D01*
X101532Y233388D01*
X101032Y231988D01*
X101029Y231962D01*
X101016Y231930D01*
X100716Y230330D01*
X100718Y230294D01*
X100710Y230239D01*
X100810Y228439D01*
X100820Y228407D01*
X100824Y228358D01*
X101324Y226558D01*
X101341Y226527D01*
X101358Y226475D01*
X102358Y224675D01*
X102375Y224657D01*
X102390Y224627D01*
X103090Y223727D01*
X103097Y223721D01*
X103101Y223713D01*
X103111Y223707D01*
X103121Y223691D01*
X103921Y222891D01*
X103931Y222885D01*
X103940Y222874D01*
X104740Y222174D01*
X104765Y222160D01*
X104794Y222134D01*
X105794Y221534D01*
X105819Y221526D01*
X105849Y221507D01*
X106849Y221107D01*
X106868Y221104D01*
X106890Y221093D01*
X107990Y220793D01*
X108007Y220793D01*
X108028Y220785D01*
X109228Y220585D01*
X109254Y220587D01*
X109290Y220580D01*
X111159Y220580D01*
X111656Y220497D01*
X112072Y220247D01*
X113022Y219487D01*
X113498Y218917D01*
X113510Y218907D01*
X113521Y218891D01*
X114799Y217614D01*
X115281Y216939D01*
X115301Y216921D01*
X115321Y216891D01*
X115909Y216303D01*
X116398Y215717D01*
X116410Y215707D01*
X116421Y215691D01*
X116902Y215210D01*
X117186Y214832D01*
X117204Y214817D01*
X117221Y214791D01*
X117495Y214518D01*
X117674Y214249D01*
X117693Y214231D01*
X117706Y214207D01*
X117756Y214172D01*
X117800Y214131D01*
X117826Y214123D01*
X117848Y214107D01*
X117929Y214092D01*
X117966Y214081D01*
X117977Y214082D01*
X117990Y214080D01*
X118090Y214080D01*
X118140Y214091D01*
G37*
G36*
X163829Y188591D02*
X163829Y188591D01*
X163891Y188593D01*
X163913Y188606D01*
X163939Y188610D01*
X164010Y188658D01*
X164043Y188676D01*
X164049Y188684D01*
X164059Y188691D01*
X164944Y189576D01*
X166428Y190763D01*
X166439Y190778D01*
X166459Y190791D01*
X167344Y191676D01*
X167828Y192063D01*
X167834Y192071D01*
X167843Y192076D01*
X167887Y192139D01*
X167935Y192199D01*
X167937Y192209D01*
X167943Y192218D01*
X167958Y192299D01*
X167963Y192310D01*
X167963Y192322D01*
X167970Y192360D01*
X167970Y210860D01*
X167969Y210864D01*
X167970Y210869D01*
X167950Y210949D01*
X167931Y211029D01*
X167928Y211032D01*
X167927Y211037D01*
X167873Y211099D01*
X167821Y211162D01*
X167816Y211164D01*
X167814Y211168D01*
X167682Y211229D01*
X167282Y211329D01*
X167274Y211329D01*
X167265Y211333D01*
X166765Y211433D01*
X166733Y211432D01*
X166690Y211440D01*
X166237Y211440D01*
X165882Y211529D01*
X165874Y211529D01*
X165865Y211533D01*
X165373Y211631D01*
X164982Y211729D01*
X164974Y211729D01*
X164965Y211733D01*
X163965Y211933D01*
X163963Y211933D01*
X163962Y211933D01*
X163878Y211930D01*
X163791Y211927D01*
X163790Y211927D01*
X163789Y211927D01*
X163715Y211886D01*
X163639Y211845D01*
X163638Y211844D01*
X163637Y211844D01*
X163589Y211775D01*
X163538Y211704D01*
X163538Y211703D01*
X163537Y211702D01*
X163510Y211560D01*
X163510Y210778D01*
X163359Y210929D01*
X163343Y210939D01*
X163328Y210957D01*
X162828Y211357D01*
X162807Y211367D01*
X162786Y211386D01*
X161786Y211986D01*
X161773Y211990D01*
X161653Y212035D01*
X160453Y212235D01*
X160426Y212233D01*
X160390Y212240D01*
X159690Y212240D01*
X159679Y212238D01*
X159665Y212239D01*
X158165Y212139D01*
X158128Y212128D01*
X158062Y212118D01*
X156662Y211618D01*
X156633Y211599D01*
X156586Y211581D01*
X155486Y210881D01*
X155459Y210853D01*
X155407Y210814D01*
X154507Y209814D01*
X154494Y209791D01*
X154469Y209764D01*
X153769Y208664D01*
X153757Y208628D01*
X153727Y208572D01*
X153327Y207272D01*
X153326Y207257D01*
X153318Y207240D01*
X153018Y205840D01*
X153019Y205816D01*
X153011Y205785D01*
X152911Y204285D01*
X152914Y204263D01*
X152911Y204233D01*
X153011Y202833D01*
X153018Y202809D01*
X153020Y202775D01*
X153320Y201475D01*
X153332Y201450D01*
X153339Y201414D01*
X153839Y200214D01*
X153849Y200199D01*
X153856Y200178D01*
X154456Y199078D01*
X154482Y199049D01*
X154521Y198991D01*
X155421Y198091D01*
X155443Y198078D01*
X155466Y198052D01*
X156566Y197252D01*
X156602Y197237D01*
X156670Y197199D01*
X157870Y196799D01*
X157900Y196796D01*
X157940Y196783D01*
X159440Y196583D01*
X159479Y196587D01*
X159553Y196585D01*
X161353Y196885D01*
X161389Y196900D01*
X161460Y196920D01*
X161590Y196985D01*
X162060Y197220D01*
X162070Y197228D01*
X162086Y197234D01*
X163086Y197834D01*
X163106Y197854D01*
X163187Y197922D01*
X163410Y198201D01*
X163410Y188960D01*
X163416Y188935D01*
X163413Y188909D01*
X163435Y188852D01*
X163449Y188791D01*
X163466Y188771D01*
X163475Y188747D01*
X163520Y188705D01*
X163559Y188658D01*
X163583Y188647D01*
X163602Y188630D01*
X163661Y188612D01*
X163718Y188587D01*
X163743Y188588D01*
X163768Y188580D01*
X163829Y188591D01*
G37*
G36*
X147820Y196587D02*
X147820Y196587D01*
X147865Y196587D01*
X148328Y196680D01*
X148790Y196680D01*
X148826Y196688D01*
X148882Y196691D01*
X149282Y196791D01*
X149302Y196801D01*
X149331Y196807D01*
X149831Y197007D01*
X149843Y197015D01*
X149860Y197020D01*
X150260Y197220D01*
X150276Y197233D01*
X150301Y197244D01*
X150581Y197431D01*
X150960Y197620D01*
X150989Y197644D01*
X151059Y197691D01*
X151359Y197991D01*
X151375Y198018D01*
X151406Y198049D01*
X151601Y198340D01*
X151894Y198732D01*
X151898Y198741D01*
X151906Y198749D01*
X152106Y199049D01*
X152107Y199050D01*
X152108Y199051D01*
X152163Y199185D01*
X152253Y199636D01*
X152430Y199990D01*
X152434Y200005D01*
X152443Y200018D01*
X152469Y200152D01*
X152470Y200159D01*
X152470Y200160D01*
X152470Y200622D01*
X152563Y201085D01*
X152563Y201095D01*
X152564Y201228D01*
X152364Y202328D01*
X152355Y202350D01*
X152351Y202380D01*
X152051Y203280D01*
X152034Y203307D01*
X152020Y203349D01*
X151620Y204049D01*
X151597Y204073D01*
X151537Y204149D01*
X150837Y204749D01*
X150811Y204763D01*
X150779Y204790D01*
X150079Y205190D01*
X150053Y205198D01*
X150024Y205216D01*
X149224Y205516D01*
X149205Y205519D01*
X149182Y205529D01*
X148382Y205729D01*
X148360Y205729D01*
X148332Y205738D01*
X147432Y205838D01*
X145638Y206037D01*
X144969Y206133D01*
X144303Y206323D01*
X143750Y206508D01*
X143350Y206748D01*
X143170Y206987D01*
X143170Y207870D01*
X143403Y208335D01*
X143459Y208391D01*
X143479Y208423D01*
X143530Y208490D01*
X143573Y208577D01*
X143980Y208780D01*
X144090Y208780D01*
X144105Y208783D01*
X144120Y208781D01*
X144252Y208818D01*
X144259Y208819D01*
X144259Y208820D01*
X144260Y208820D01*
X144380Y208880D01*
X146000Y208880D01*
X146865Y208448D01*
X147178Y208135D01*
X147238Y208014D01*
X147329Y207740D01*
X147342Y207720D01*
X147350Y207690D01*
X147410Y207570D01*
X147410Y207160D01*
X147421Y207110D01*
X147423Y207059D01*
X147441Y207027D01*
X147449Y206991D01*
X147482Y206952D01*
X147506Y206907D01*
X147536Y206886D01*
X147559Y206858D01*
X147606Y206837D01*
X147648Y206807D01*
X147690Y206799D01*
X147718Y206787D01*
X147748Y206788D01*
X147790Y206780D01*
X151690Y206780D01*
X151770Y206798D01*
X151850Y206815D01*
X151854Y206818D01*
X151859Y206819D01*
X151922Y206872D01*
X151986Y206922D01*
X151988Y206926D01*
X151992Y206929D01*
X152026Y207004D01*
X152061Y207078D01*
X152061Y207083D01*
X152063Y207088D01*
X152062Y207115D01*
X152065Y207223D01*
X151865Y208423D01*
X151855Y208446D01*
X151855Y208448D01*
X151854Y208468D01*
X151852Y208473D01*
X151851Y208480D01*
X151651Y209080D01*
X151631Y209112D01*
X151594Y209188D01*
X151306Y209572D01*
X151016Y210056D01*
X151004Y210068D01*
X150994Y210088D01*
X150694Y210488D01*
X150669Y210509D01*
X150662Y210522D01*
X150647Y210533D01*
X150618Y210564D01*
X150218Y210864D01*
X150202Y210871D01*
X150186Y210886D01*
X149186Y211486D01*
X149161Y211494D01*
X149131Y211513D01*
X148631Y211713D01*
X148602Y211717D01*
X148565Y211733D01*
X148088Y211828D01*
X147510Y212021D01*
X147485Y212023D01*
X147453Y212035D01*
X146859Y212134D01*
X146365Y212233D01*
X146333Y212232D01*
X146290Y212240D01*
X143990Y212240D01*
X143960Y212233D01*
X143915Y212233D01*
X143452Y212140D01*
X142890Y212140D01*
X142860Y212133D01*
X142815Y212133D01*
X142315Y212033D01*
X142289Y212021D01*
X142249Y212013D01*
X141781Y211826D01*
X141315Y211733D01*
X141289Y211721D01*
X141249Y211713D01*
X140749Y211513D01*
X140718Y211491D01*
X140662Y211464D01*
X139462Y210564D01*
X139437Y210534D01*
X139386Y210488D01*
X139086Y210088D01*
X139074Y210062D01*
X139050Y210030D01*
X138850Y209630D01*
X138847Y209616D01*
X138837Y209601D01*
X138637Y209101D01*
X138633Y209072D01*
X138617Y209035D01*
X138517Y208535D01*
X138518Y208503D01*
X138510Y208460D01*
X138510Y199850D01*
X138450Y199730D01*
X138446Y199715D01*
X138437Y199702D01*
X138411Y199568D01*
X138410Y199562D01*
X138410Y199561D01*
X138410Y199560D01*
X138410Y198750D01*
X138350Y198630D01*
X138346Y198615D01*
X138337Y198602D01*
X138328Y198556D01*
X138327Y198553D01*
X138327Y198551D01*
X138311Y198468D01*
X138310Y198462D01*
X138310Y198461D01*
X138310Y198460D01*
X138310Y198350D01*
X138250Y198230D01*
X138246Y198215D01*
X138237Y198202D01*
X138211Y198068D01*
X138210Y198062D01*
X138210Y198061D01*
X138210Y198060D01*
X138210Y197850D01*
X138178Y197785D01*
X138121Y197729D01*
X138081Y197664D01*
X138037Y197602D01*
X138035Y197590D01*
X138030Y197582D01*
X138026Y197545D01*
X138010Y197460D01*
X138010Y197360D01*
X138021Y197310D01*
X138023Y197259D01*
X138041Y197227D01*
X138049Y197191D01*
X138082Y197152D01*
X138106Y197107D01*
X138136Y197086D01*
X138159Y197058D01*
X138206Y197037D01*
X138248Y197007D01*
X138290Y196999D01*
X138318Y196987D01*
X138348Y196988D01*
X138390Y196980D01*
X142290Y196980D01*
X142340Y196991D01*
X142391Y196993D01*
X142423Y197011D01*
X142459Y197019D01*
X142498Y197052D01*
X142543Y197076D01*
X142564Y197106D01*
X142592Y197129D01*
X142613Y197176D01*
X142643Y197218D01*
X142651Y197260D01*
X142663Y197288D01*
X142663Y197298D01*
X142699Y197356D01*
X142743Y197418D01*
X142745Y197430D01*
X142750Y197438D01*
X142754Y197475D01*
X142756Y197489D01*
X142759Y197491D01*
X142799Y197556D01*
X142843Y197618D01*
X142845Y197630D01*
X142850Y197638D01*
X142854Y197675D01*
X142870Y197760D01*
X142870Y197909D01*
X142883Y197930D01*
X143021Y197791D01*
X143048Y197775D01*
X143079Y197744D01*
X143379Y197544D01*
X143415Y197530D01*
X143470Y197499D01*
X143722Y197415D01*
X143979Y197244D01*
X144015Y197230D01*
X144070Y197199D01*
X145270Y196799D01*
X145307Y196796D01*
X145390Y196780D01*
X145628Y196780D01*
X145870Y196699D01*
X145907Y196696D01*
X145990Y196680D01*
X146328Y196680D01*
X146570Y196599D01*
X146607Y196596D01*
X146690Y196580D01*
X147790Y196580D01*
X147820Y196587D01*
G37*
G36*
X116822Y196987D02*
X116822Y196987D01*
X116856Y196985D01*
X116906Y197007D01*
X116959Y197019D01*
X116984Y197040D01*
X117015Y197053D01*
X117062Y197105D01*
X117092Y197129D01*
X117099Y197145D01*
X117113Y197160D01*
X120769Y203066D01*
X121810Y202095D01*
X121810Y197360D01*
X121821Y197310D01*
X121823Y197259D01*
X121841Y197227D01*
X121849Y197191D01*
X121882Y197152D01*
X121906Y197107D01*
X121936Y197086D01*
X121959Y197058D01*
X122006Y197037D01*
X122048Y197007D01*
X122090Y196999D01*
X122118Y196987D01*
X122148Y196988D01*
X122190Y196980D01*
X126090Y196980D01*
X126140Y196991D01*
X126191Y196993D01*
X126223Y197011D01*
X126259Y197019D01*
X126298Y197052D01*
X126343Y197076D01*
X126364Y197106D01*
X126392Y197129D01*
X126413Y197176D01*
X126443Y197218D01*
X126451Y197260D01*
X126463Y197288D01*
X126462Y197318D01*
X126470Y197360D01*
X126470Y214760D01*
X126460Y214803D01*
X126460Y214848D01*
X126441Y214887D01*
X126431Y214929D01*
X126402Y214963D01*
X126382Y215003D01*
X126343Y215036D01*
X126321Y215062D01*
X126297Y215073D01*
X126270Y215095D01*
X122370Y217195D01*
X122315Y217210D01*
X122262Y217233D01*
X122232Y217232D01*
X122203Y217240D01*
X122147Y217229D01*
X122089Y217227D01*
X122063Y217212D01*
X122033Y217206D01*
X121988Y217171D01*
X121937Y217144D01*
X121920Y217119D01*
X121896Y217101D01*
X121870Y217049D01*
X121837Y217002D01*
X121831Y216968D01*
X121819Y216945D01*
X121820Y216910D01*
X121810Y216860D01*
X121810Y207405D01*
X117564Y211823D01*
X117497Y211867D01*
X117432Y211913D01*
X117424Y211914D01*
X117419Y211918D01*
X117386Y211922D01*
X117290Y211940D01*
X112690Y211940D01*
X112663Y211934D01*
X112636Y211936D01*
X112580Y211914D01*
X112521Y211901D01*
X112500Y211883D01*
X112474Y211873D01*
X112434Y211829D01*
X112388Y211791D01*
X112376Y211765D01*
X112358Y211745D01*
X112341Y211687D01*
X112317Y211632D01*
X112318Y211605D01*
X112310Y211578D01*
X112321Y211519D01*
X112323Y211459D01*
X112337Y211435D01*
X112342Y211408D01*
X112388Y211341D01*
X112406Y211307D01*
X112416Y211300D01*
X112424Y211289D01*
X117501Y206307D01*
X111772Y197568D01*
X111747Y197499D01*
X111717Y197432D01*
X111717Y197419D01*
X111713Y197406D01*
X111721Y197333D01*
X111723Y197259D01*
X111730Y197247D01*
X111731Y197234D01*
X111771Y197172D01*
X111806Y197107D01*
X111817Y197099D01*
X111825Y197088D01*
X111888Y197050D01*
X111948Y197007D01*
X111963Y197004D01*
X111973Y196998D01*
X112012Y196995D01*
X112090Y196980D01*
X116790Y196980D01*
X116822Y196987D01*
G37*
G36*
X77340Y196991D02*
X77340Y196991D01*
X77391Y196993D01*
X77423Y197011D01*
X77459Y197019D01*
X77498Y197052D01*
X77543Y197076D01*
X77564Y197106D01*
X77592Y197129D01*
X77613Y197176D01*
X77643Y197218D01*
X77651Y197260D01*
X77663Y197288D01*
X77662Y197318D01*
X77670Y197360D01*
X77670Y205336D01*
X77767Y206109D01*
X77866Y206803D01*
X77953Y207326D01*
X78206Y207748D01*
X78450Y208072D01*
X78829Y208300D01*
X79259Y208386D01*
X79798Y208476D01*
X80535Y208384D01*
X81056Y208297D01*
X81436Y208069D01*
X81777Y207642D01*
X82051Y207187D01*
X82318Y206562D01*
X82410Y205739D01*
X82410Y197360D01*
X82421Y197310D01*
X82423Y197259D01*
X82441Y197227D01*
X82449Y197191D01*
X82482Y197152D01*
X82506Y197107D01*
X82536Y197086D01*
X82559Y197058D01*
X82606Y197037D01*
X82648Y197007D01*
X82690Y196999D01*
X82718Y196987D01*
X82748Y196988D01*
X82790Y196980D01*
X86690Y196980D01*
X86740Y196991D01*
X86791Y196993D01*
X86823Y197011D01*
X86859Y197019D01*
X86898Y197052D01*
X86943Y197076D01*
X86964Y197106D01*
X86992Y197129D01*
X87013Y197176D01*
X87043Y197218D01*
X87051Y197260D01*
X87063Y197288D01*
X87062Y197318D01*
X87070Y197360D01*
X87070Y211560D01*
X87059Y211610D01*
X87057Y211661D01*
X87039Y211693D01*
X87031Y211729D01*
X86998Y211768D01*
X86974Y211813D01*
X86944Y211834D01*
X86921Y211862D01*
X86874Y211883D01*
X86832Y211913D01*
X86790Y211921D01*
X86762Y211933D01*
X86732Y211932D01*
X86690Y211940D01*
X82990Y211940D01*
X82940Y211929D01*
X82889Y211927D01*
X82857Y211909D01*
X82821Y211901D01*
X82782Y211868D01*
X82737Y211844D01*
X82716Y211814D01*
X82688Y211791D01*
X82667Y211744D01*
X82637Y211702D01*
X82629Y211660D01*
X82617Y211632D01*
X82618Y211602D01*
X82610Y211560D01*
X82610Y210578D01*
X82359Y210829D01*
X82343Y210839D01*
X82328Y210857D01*
X81828Y211257D01*
X81814Y211263D01*
X81801Y211276D01*
X81201Y211676D01*
X81165Y211690D01*
X81110Y211721D01*
X79910Y212121D01*
X79885Y212123D01*
X79853Y212135D01*
X79253Y212235D01*
X79226Y212233D01*
X79190Y212240D01*
X78590Y212240D01*
X78578Y212237D01*
X78563Y212239D01*
X77163Y212139D01*
X77133Y212130D01*
X77090Y212127D01*
X75990Y211827D01*
X75958Y211810D01*
X75905Y211792D01*
X75005Y211292D01*
X74977Y211266D01*
X74921Y211229D01*
X74221Y210529D01*
X74203Y210499D01*
X74168Y210462D01*
X73668Y209662D01*
X73655Y209625D01*
X73626Y209569D01*
X73326Y208569D01*
X73325Y208550D01*
X73316Y208528D01*
X73116Y207428D01*
X73117Y207411D01*
X73111Y207389D01*
X73011Y206089D01*
X73013Y206076D01*
X73010Y206060D01*
X73010Y197360D01*
X73021Y197310D01*
X73023Y197259D01*
X73041Y197227D01*
X73049Y197191D01*
X73082Y197152D01*
X73106Y197107D01*
X73136Y197086D01*
X73159Y197058D01*
X73206Y197037D01*
X73248Y197007D01*
X73290Y196999D01*
X73318Y196987D01*
X73348Y196988D01*
X73390Y196980D01*
X77290Y196980D01*
X77340Y196991D01*
G37*
G36*
X98317Y196681D02*
X98317Y196681D01*
X98354Y196692D01*
X98420Y196703D01*
X99520Y197103D01*
X99542Y197117D01*
X99575Y197128D01*
X100475Y197628D01*
X100498Y197649D01*
X100537Y197671D01*
X101237Y198271D01*
X101254Y198294D01*
X101322Y198375D01*
X101822Y199275D01*
X101832Y199308D01*
X101854Y199351D01*
X102154Y200351D01*
X102155Y200370D01*
X102164Y200392D01*
X102364Y201492D01*
X102363Y201521D01*
X102370Y201560D01*
X102370Y211560D01*
X102359Y211610D01*
X102357Y211661D01*
X102339Y211693D01*
X102331Y211729D01*
X102298Y211768D01*
X102274Y211813D01*
X102244Y211834D01*
X102221Y211862D01*
X102174Y211883D01*
X102132Y211913D01*
X102090Y211921D01*
X102062Y211933D01*
X102032Y211932D01*
X101990Y211940D01*
X98190Y211940D01*
X98140Y211929D01*
X98089Y211927D01*
X98057Y211909D01*
X98021Y211901D01*
X97982Y211868D01*
X97937Y211844D01*
X97916Y211814D01*
X97888Y211791D01*
X97867Y211744D01*
X97837Y211702D01*
X97829Y211660D01*
X97817Y211632D01*
X97818Y211602D01*
X97810Y211560D01*
X97810Y203584D01*
X97614Y202015D01*
X97530Y201514D01*
X97031Y200848D01*
X96651Y200620D01*
X96221Y200534D01*
X95682Y200444D01*
X94945Y200536D01*
X94424Y200623D01*
X94026Y200862D01*
X93703Y201185D01*
X93435Y201720D01*
X93161Y202360D01*
X93070Y203084D01*
X93070Y211560D01*
X93059Y211610D01*
X93057Y211661D01*
X93039Y211693D01*
X93031Y211729D01*
X92998Y211768D01*
X92974Y211813D01*
X92944Y211834D01*
X92921Y211862D01*
X92874Y211883D01*
X92832Y211913D01*
X92790Y211921D01*
X92762Y211933D01*
X92732Y211932D01*
X92690Y211940D01*
X88790Y211940D01*
X88740Y211929D01*
X88689Y211927D01*
X88657Y211909D01*
X88621Y211901D01*
X88582Y211868D01*
X88537Y211844D01*
X88516Y211814D01*
X88488Y211791D01*
X88467Y211744D01*
X88437Y211702D01*
X88429Y211660D01*
X88417Y211632D01*
X88418Y211602D01*
X88410Y211560D01*
X88410Y197360D01*
X88421Y197310D01*
X88423Y197259D01*
X88441Y197227D01*
X88449Y197191D01*
X88482Y197152D01*
X88506Y197107D01*
X88536Y197086D01*
X88559Y197058D01*
X88606Y197037D01*
X88648Y197007D01*
X88690Y196999D01*
X88718Y196987D01*
X88748Y196988D01*
X88790Y196980D01*
X92490Y196980D01*
X92540Y196991D01*
X92591Y196993D01*
X92623Y197011D01*
X92659Y197019D01*
X92698Y197052D01*
X92743Y197076D01*
X92764Y197106D01*
X92792Y197129D01*
X92813Y197176D01*
X92843Y197218D01*
X92851Y197260D01*
X92863Y197288D01*
X92862Y197318D01*
X92870Y197360D01*
X92870Y198301D01*
X93093Y198022D01*
X93120Y198001D01*
X93152Y197963D01*
X93652Y197563D01*
X93682Y197549D01*
X93720Y197520D01*
X94320Y197220D01*
X94334Y197217D01*
X94349Y197207D01*
X94849Y197007D01*
X94859Y197005D01*
X94870Y196999D01*
X95470Y196799D01*
X95499Y196797D01*
X95536Y196784D01*
X96233Y196684D01*
X96828Y196585D01*
X96863Y196587D01*
X96917Y196581D01*
X98317Y196681D01*
G37*
G36*
X176922Y196681D02*
X176922Y196681D01*
X176935Y196685D01*
X176953Y196685D01*
X178153Y196885D01*
X178168Y196892D01*
X178190Y196893D01*
X179290Y197193D01*
X179318Y197208D01*
X179360Y197220D01*
X179680Y197380D01*
X180360Y197720D01*
X180389Y197744D01*
X180440Y197774D01*
X181240Y198474D01*
X181258Y198499D01*
X181290Y198527D01*
X181990Y199427D01*
X182006Y199462D01*
X182043Y199519D01*
X182443Y200519D01*
X182448Y200553D01*
X182466Y200602D01*
X182666Y201902D01*
X182660Y201982D01*
X182657Y202061D01*
X182653Y202067D01*
X182652Y202075D01*
X182612Y202143D01*
X182574Y202213D01*
X182568Y202217D01*
X182564Y202224D01*
X182497Y202267D01*
X182432Y202313D01*
X182424Y202314D01*
X182418Y202318D01*
X182385Y202322D01*
X182290Y202340D01*
X178590Y202340D01*
X178540Y202329D01*
X178489Y202327D01*
X178457Y202309D01*
X178421Y202301D01*
X178382Y202268D01*
X178337Y202244D01*
X178316Y202214D01*
X178288Y202191D01*
X178267Y202144D01*
X178237Y202102D01*
X178229Y202060D01*
X178217Y202032D01*
X178218Y202002D01*
X178210Y201960D01*
X178210Y201433D01*
X178056Y201048D01*
X177818Y200732D01*
X177136Y200220D01*
X176628Y200135D01*
X176622Y200133D01*
X176615Y200133D01*
X176121Y200034D01*
X175606Y199948D01*
X175282Y200029D01*
X175246Y200029D01*
X175190Y200040D01*
X174837Y200040D01*
X174523Y200119D01*
X174191Y200285D01*
X173840Y200548D01*
X173633Y200754D01*
X173482Y201360D01*
X173549Y201627D01*
X173690Y201910D01*
X174002Y202144D01*
X174450Y202412D01*
X174996Y202595D01*
X176573Y202989D01*
X177565Y203187D01*
X177568Y203189D01*
X177573Y203189D01*
X178473Y203389D01*
X178493Y203399D01*
X178524Y203404D01*
X179324Y203704D01*
X179330Y203708D01*
X179340Y203711D01*
X180040Y204011D01*
X180055Y204022D01*
X180079Y204030D01*
X180779Y204430D01*
X180787Y204438D01*
X180801Y204444D01*
X181401Y204844D01*
X181402Y204845D01*
X181405Y204846D01*
X181506Y204949D01*
X181906Y205549D01*
X181917Y205577D01*
X181940Y205610D01*
X182240Y206310D01*
X182246Y206349D01*
X182252Y206368D01*
X182264Y206394D01*
X182264Y206404D01*
X182268Y206418D01*
X182368Y207318D01*
X182364Y207349D01*
X182369Y207392D01*
X182269Y208592D01*
X182257Y208629D01*
X182243Y208701D01*
X181843Y209701D01*
X181823Y209730D01*
X181776Y209810D01*
X181076Y210610D01*
X181057Y210624D01*
X181037Y210649D01*
X180337Y211249D01*
X180305Y211266D01*
X180260Y211300D01*
X179260Y211800D01*
X179223Y211809D01*
X179165Y211833D01*
X178165Y212033D01*
X178162Y212033D01*
X178158Y212034D01*
X177058Y212234D01*
X177029Y212233D01*
X176990Y212240D01*
X174690Y212240D01*
X174662Y212234D01*
X174622Y212234D01*
X173522Y212034D01*
X173505Y212027D01*
X173481Y212024D01*
X172481Y211724D01*
X172462Y211714D01*
X172436Y211707D01*
X171536Y211307D01*
X171508Y211287D01*
X171462Y211264D01*
X170662Y210664D01*
X170637Y210634D01*
X170586Y210588D01*
X169986Y209788D01*
X169974Y209762D01*
X169950Y209730D01*
X169450Y208730D01*
X169441Y208692D01*
X169415Y208623D01*
X169215Y207423D01*
X169220Y207341D01*
X169223Y207259D01*
X169226Y207255D01*
X169226Y207250D01*
X169267Y207179D01*
X169306Y207107D01*
X169310Y207104D01*
X169313Y207100D01*
X169381Y207054D01*
X169448Y207007D01*
X169453Y207006D01*
X169457Y207004D01*
X169485Y207000D01*
X169590Y206980D01*
X173290Y206980D01*
X173303Y206983D01*
X173317Y206981D01*
X173387Y207002D01*
X173459Y207019D01*
X173469Y207028D01*
X173482Y207032D01*
X173536Y207083D01*
X173592Y207129D01*
X173598Y207142D01*
X173608Y207151D01*
X173663Y207285D01*
X173756Y207751D01*
X173928Y208182D01*
X174064Y208386D01*
X174281Y208531D01*
X174646Y208713D01*
X175063Y208880D01*
X176628Y208880D01*
X176870Y208799D01*
X176883Y208798D01*
X176898Y208791D01*
X177284Y208695D01*
X177446Y208641D01*
X177710Y208245D01*
X177710Y208007D01*
X177640Y207727D01*
X177418Y207432D01*
X177089Y207185D01*
X176544Y206912D01*
X176005Y206733D01*
X175243Y206637D01*
X175224Y206630D01*
X175198Y206629D01*
X172802Y206030D01*
X171908Y205831D01*
X171872Y205814D01*
X171801Y205790D01*
X170401Y204990D01*
X170381Y204971D01*
X170347Y204952D01*
X169747Y204452D01*
X169723Y204421D01*
X169718Y204416D01*
X169717Y204415D01*
X169674Y204371D01*
X169274Y203771D01*
X169263Y203743D01*
X169241Y203710D01*
X168941Y203010D01*
X168934Y202971D01*
X168912Y202902D01*
X168812Y202002D01*
X168817Y201964D01*
X168814Y201902D01*
X169014Y200602D01*
X169026Y200573D01*
X169033Y200530D01*
X169433Y199430D01*
X169454Y199397D01*
X169486Y199332D01*
X170086Y198532D01*
X170111Y198511D01*
X170140Y198474D01*
X170940Y197774D01*
X170973Y197756D01*
X171020Y197720D01*
X172020Y197220D01*
X172050Y197213D01*
X172090Y197193D01*
X173190Y196893D01*
X173207Y196893D01*
X173228Y196885D01*
X174428Y196685D01*
X174442Y196686D01*
X174458Y196681D01*
X175658Y196581D01*
X175685Y196585D01*
X175722Y196581D01*
X176922Y196681D01*
G37*
G36*
X109740Y196991D02*
X109740Y196991D01*
X109791Y196993D01*
X109823Y197011D01*
X109859Y197019D01*
X109898Y197052D01*
X109943Y197076D01*
X109964Y197106D01*
X109992Y197129D01*
X110013Y197176D01*
X110043Y197218D01*
X110051Y197260D01*
X110063Y197288D01*
X110062Y197318D01*
X110070Y197360D01*
X110070Y208580D01*
X113590Y208580D01*
X113641Y208592D01*
X113694Y208594D01*
X113724Y208611D01*
X113759Y208619D01*
X113799Y208653D01*
X113845Y208678D01*
X113865Y208707D01*
X113892Y208729D01*
X113914Y208777D01*
X113944Y208821D01*
X113949Y208855D01*
X113963Y208888D01*
X113961Y208940D01*
X113969Y208992D01*
X113958Y209025D01*
X113957Y209061D01*
X113932Y209107D01*
X113915Y209157D01*
X113888Y209187D01*
X113874Y209213D01*
X113848Y209231D01*
X113818Y209264D01*
X113440Y209548D01*
X111859Y211129D01*
X111839Y211141D01*
X111818Y211164D01*
X111462Y211432D01*
X111194Y211788D01*
X111182Y211799D01*
X111174Y211813D01*
X111116Y211854D01*
X111061Y211899D01*
X111046Y211903D01*
X111032Y211913D01*
X110905Y211937D01*
X110893Y211940D01*
X110892Y211940D01*
X110890Y211940D01*
X110070Y211940D01*
X110070Y213560D01*
X110064Y213586D01*
X110046Y213694D01*
X109746Y214494D01*
X109742Y214500D01*
X109740Y214510D01*
X109440Y215210D01*
X109416Y215241D01*
X109382Y215303D01*
X108882Y215903D01*
X108852Y215926D01*
X108811Y215969D01*
X108111Y216469D01*
X108087Y216479D01*
X108060Y216500D01*
X107260Y216900D01*
X107233Y216907D01*
X107199Y216924D01*
X106199Y217224D01*
X106160Y217227D01*
X106090Y217240D01*
X103190Y217240D01*
X103175Y217237D01*
X103160Y217239D01*
X103028Y217202D01*
X103021Y217201D01*
X103021Y217200D01*
X103020Y217200D01*
X102820Y217100D01*
X102781Y217068D01*
X102737Y217044D01*
X102716Y217013D01*
X102687Y216989D01*
X102666Y216943D01*
X102637Y216902D01*
X102629Y216859D01*
X102616Y216831D01*
X102617Y216815D01*
X102618Y216801D01*
X102610Y216760D01*
X102610Y213960D01*
X102621Y213910D01*
X102623Y213859D01*
X102641Y213827D01*
X102649Y213791D01*
X102682Y213752D01*
X102706Y213707D01*
X102736Y213686D01*
X102759Y213658D01*
X102806Y213637D01*
X102848Y213607D01*
X102890Y213599D01*
X102918Y213587D01*
X102948Y213588D01*
X102990Y213580D01*
X104643Y213580D01*
X104957Y213501D01*
X105230Y213365D01*
X105361Y213169D01*
X105410Y213070D01*
X105410Y212760D01*
X105418Y212724D01*
X105421Y212668D01*
X105510Y212313D01*
X105510Y211940D01*
X103190Y211940D01*
X103140Y211929D01*
X103089Y211927D01*
X103057Y211909D01*
X103021Y211901D01*
X102982Y211868D01*
X102937Y211844D01*
X102916Y211814D01*
X102888Y211791D01*
X102867Y211744D01*
X102837Y211702D01*
X102829Y211660D01*
X102817Y211632D01*
X102818Y211602D01*
X102810Y211560D01*
X102810Y208960D01*
X102821Y208910D01*
X102823Y208859D01*
X102841Y208827D01*
X102849Y208791D01*
X102882Y208752D01*
X102906Y208707D01*
X102936Y208686D01*
X102959Y208658D01*
X103006Y208637D01*
X103048Y208607D01*
X103090Y208599D01*
X103118Y208587D01*
X103148Y208588D01*
X103190Y208580D01*
X105510Y208580D01*
X105510Y197360D01*
X105521Y197310D01*
X105523Y197259D01*
X105541Y197227D01*
X105549Y197191D01*
X105582Y197152D01*
X105606Y197107D01*
X105636Y197086D01*
X105659Y197058D01*
X105706Y197037D01*
X105748Y197007D01*
X105790Y196999D01*
X105818Y196987D01*
X105848Y196988D01*
X105890Y196980D01*
X109690Y196980D01*
X109740Y196991D01*
G37*
G36*
X136740Y196991D02*
X136740Y196991D01*
X136791Y196993D01*
X136823Y197011D01*
X136859Y197019D01*
X136898Y197052D01*
X136943Y197076D01*
X136964Y197106D01*
X136992Y197129D01*
X137013Y197176D01*
X137043Y197218D01*
X137051Y197260D01*
X137063Y197288D01*
X137062Y197318D01*
X137070Y197360D01*
X137070Y210860D01*
X137067Y210873D01*
X137069Y210887D01*
X137048Y210957D01*
X137031Y211029D01*
X137022Y211039D01*
X137018Y211052D01*
X136967Y211106D01*
X136921Y211162D01*
X136908Y211168D01*
X136899Y211178D01*
X136765Y211233D01*
X136273Y211331D01*
X135882Y211429D01*
X135846Y211429D01*
X135790Y211440D01*
X135328Y211440D01*
X134873Y211531D01*
X134482Y211629D01*
X134474Y211629D01*
X134465Y211633D01*
X133473Y211831D01*
X133082Y211929D01*
X133072Y211929D01*
X133062Y211933D01*
X132986Y211930D01*
X132909Y211932D01*
X132900Y211927D01*
X132889Y211927D01*
X132822Y211890D01*
X132753Y211857D01*
X132746Y211849D01*
X132737Y211844D01*
X132693Y211781D01*
X132645Y211721D01*
X132643Y211711D01*
X132637Y211702D01*
X132610Y211560D01*
X132610Y210144D01*
X132487Y210298D01*
X132484Y210300D01*
X132482Y210303D01*
X131982Y210903D01*
X131967Y210915D01*
X131963Y210922D01*
X131949Y210931D01*
X131928Y210957D01*
X131428Y211357D01*
X131404Y211368D01*
X131379Y211390D01*
X130679Y211790D01*
X130649Y211799D01*
X130610Y211821D01*
X130010Y212021D01*
X130003Y212021D01*
X129994Y212026D01*
X129294Y212226D01*
X129256Y212228D01*
X129190Y212240D01*
X127790Y212240D01*
X127716Y212223D01*
X127641Y212210D01*
X127631Y212203D01*
X127621Y212201D01*
X127592Y212177D01*
X127521Y212129D01*
X127520Y212128D01*
X127489Y212127D01*
X127457Y212109D01*
X127421Y212101D01*
X127382Y212068D01*
X127337Y212044D01*
X127316Y212014D01*
X127288Y211991D01*
X127267Y211944D01*
X127237Y211902D01*
X127229Y211860D01*
X127217Y211832D01*
X127218Y211802D01*
X127210Y211760D01*
X127210Y208160D01*
X127221Y208110D01*
X127223Y208059D01*
X127241Y208027D01*
X127249Y207991D01*
X127282Y207952D01*
X127306Y207907D01*
X127336Y207886D01*
X127359Y207858D01*
X127406Y207837D01*
X127448Y207807D01*
X127490Y207799D01*
X127518Y207787D01*
X127548Y207788D01*
X127590Y207780D01*
X127690Y207780D01*
X127705Y207783D01*
X127720Y207781D01*
X127852Y207818D01*
X127859Y207819D01*
X127859Y207820D01*
X127860Y207820D01*
X127980Y207880D01*
X128971Y207880D01*
X129925Y207784D01*
X130647Y207604D01*
X131242Y207264D01*
X131676Y206742D01*
X132037Y206111D01*
X132221Y205466D01*
X132410Y204618D01*
X132410Y197360D01*
X132421Y197310D01*
X132423Y197259D01*
X132441Y197227D01*
X132449Y197191D01*
X132482Y197152D01*
X132506Y197107D01*
X132536Y197086D01*
X132559Y197058D01*
X132606Y197037D01*
X132648Y197007D01*
X132690Y196999D01*
X132718Y196987D01*
X132748Y196988D01*
X132790Y196980D01*
X136690Y196980D01*
X136740Y196991D01*
G37*
%LPC*%
G36*
X95248Y154099D02*
X95248Y154099D01*
X94663Y154587D01*
X93765Y155485D01*
X93761Y155485D01*
X93761Y155488D01*
X93261Y155888D01*
X93242Y155889D01*
X93242Y155890D01*
X93221Y155890D01*
X93220Y155890D01*
X93201Y155890D01*
X93201Y155884D01*
X93195Y155885D01*
X91701Y154391D01*
X91123Y154102D01*
X90652Y154196D01*
X90072Y154679D01*
X89882Y155248D01*
X90072Y155723D01*
X91566Y157316D01*
X91567Y157327D01*
X91574Y157328D01*
X91674Y157528D01*
X91664Y157581D01*
X91665Y157585D01*
X90268Y158981D01*
X89882Y159560D01*
X89976Y160030D01*
X90464Y160713D01*
X90936Y160996D01*
X91503Y160807D01*
X91994Y160316D01*
X92893Y159317D01*
X92915Y159313D01*
X92920Y159302D01*
X93420Y159202D01*
X93452Y159217D01*
X93465Y159215D01*
X94959Y160709D01*
X95532Y160996D01*
X96002Y160808D01*
X96585Y160226D01*
X96682Y159740D01*
X96724Y159703D01*
X96725Y159701D01*
X98725Y159501D01*
X98776Y159532D01*
X98769Y159543D01*
X98779Y159550D01*
X98779Y160143D01*
X98784Y160161D01*
X98785Y160161D01*
X98784Y160161D01*
X98827Y160309D01*
X98841Y160358D01*
X98883Y160506D01*
X98925Y160654D01*
X98939Y160703D01*
X98977Y160835D01*
X99177Y161434D01*
X99176Y161436D01*
X99177Y161436D01*
X99193Y161491D01*
X99235Y161639D01*
X99249Y161688D01*
X99291Y161836D01*
X99292Y161836D01*
X99291Y161836D01*
X99334Y161984D01*
X99348Y162033D01*
X99375Y162127D01*
X99768Y162619D01*
X100164Y163113D01*
X100752Y163505D01*
X101341Y163702D01*
X102033Y163801D01*
X102727Y163801D01*
X103413Y163703D01*
X103905Y163408D01*
X103962Y163414D01*
X103963Y163414D01*
X103988Y163436D01*
X103987Y163427D01*
X103998Y163425D01*
X103997Y163413D01*
X104892Y162618D01*
X105186Y162128D01*
X105484Y161432D01*
X105682Y160839D01*
X105881Y159447D01*
X105881Y158753D01*
X105781Y158057D01*
X105784Y158052D01*
X105781Y158050D01*
X105781Y157358D01*
X105583Y156766D01*
X105584Y156764D01*
X105583Y156764D01*
X105562Y156691D01*
X105520Y156544D01*
X105506Y156494D01*
X105464Y156347D01*
X105421Y156199D01*
X105407Y156150D01*
X105384Y156068D01*
X105088Y155477D01*
X104695Y154985D01*
X104203Y154592D01*
X103612Y154296D01*
X102923Y154099D01*
X101538Y154099D01*
X100949Y154296D01*
X100359Y154591D01*
X99869Y155081D01*
X99273Y156073D01*
X98978Y156665D01*
X98879Y157357D01*
X98779Y158057D01*
X98680Y158750D01*
X98779Y159443D01*
X98750Y159495D01*
X98741Y159490D01*
X98735Y159499D01*
X96735Y159699D01*
X96698Y159676D01*
X96688Y159675D01*
X96390Y159180D01*
X94994Y157684D01*
X94990Y157641D01*
X94984Y157632D01*
X95184Y157132D01*
X95195Y157125D01*
X95193Y157117D01*
X96093Y156117D01*
X96095Y156117D01*
X96095Y156115D01*
X96584Y155626D01*
X96678Y155060D01*
X96393Y154584D01*
X95714Y154099D01*
X95248Y154099D01*
G37*
%LPD*%
%LPC*%
G36*
X199504Y29529D02*
X199504Y29529D01*
X198924Y29626D01*
X198549Y30000D01*
X198549Y30872D01*
X198740Y31443D01*
X199209Y31631D01*
X203800Y31631D01*
X203813Y31641D01*
X203829Y31641D01*
X203830Y31653D01*
X203847Y31667D01*
X203830Y31690D01*
X203830Y31719D01*
X199033Y35417D01*
X198549Y35900D01*
X198549Y36677D01*
X198645Y37350D01*
X199117Y37633D01*
X199704Y37731D01*
X206497Y37731D01*
X207193Y37631D01*
X207245Y37660D01*
X207238Y37673D01*
X207249Y37683D01*
X207149Y39483D01*
X207111Y39528D01*
X207109Y39527D01*
X207108Y39529D01*
X206527Y39626D01*
X206149Y40097D01*
X206149Y42780D01*
X206113Y42827D01*
X206110Y42825D01*
X206108Y42829D01*
X205508Y42929D01*
X205503Y42926D01*
X205500Y42929D01*
X199404Y42929D01*
X198833Y43024D01*
X198549Y43592D01*
X198549Y44272D01*
X198740Y44845D01*
X199312Y45131D01*
X206100Y45131D01*
X206147Y45167D01*
X206142Y45174D01*
X206149Y45180D01*
X206149Y47868D01*
X206433Y48435D01*
X207099Y48530D01*
X207667Y48436D01*
X207951Y47868D01*
X207951Y40188D01*
X207763Y39624D01*
X207192Y39529D01*
X207151Y39485D01*
X207155Y39481D01*
X207151Y39477D01*
X207251Y37677D01*
X207279Y37644D01*
X207282Y37634D01*
X207761Y37443D01*
X207951Y36872D01*
X207951Y36198D01*
X207377Y35529D01*
X202500Y35529D01*
X202489Y35521D01*
X202476Y35523D01*
X202474Y35510D01*
X202453Y35493D01*
X202469Y35472D01*
X202465Y35445D01*
X202665Y35245D01*
X202670Y35244D01*
X202670Y35241D01*
X203070Y34941D01*
X207170Y31841D01*
X207173Y31841D01*
X207173Y31839D01*
X207758Y31449D01*
X207951Y30773D01*
X207951Y30097D01*
X207573Y29626D01*
X206996Y29529D01*
X199504Y29529D01*
G37*
%LPD*%
%LPC*%
G36*
X151808Y44229D02*
X151808Y44229D01*
X151211Y44328D01*
X150520Y44526D01*
X150026Y44822D01*
X149431Y45218D01*
X148938Y45711D01*
X148541Y46307D01*
X148538Y46308D01*
X148538Y46311D01*
X148145Y46803D01*
X147947Y47494D01*
X147946Y47495D01*
X147947Y47496D01*
X147749Y48088D01*
X147749Y49476D01*
X147848Y50069D01*
X147850Y50076D01*
X147864Y50126D01*
X147906Y50273D01*
X147907Y50273D01*
X147906Y50273D01*
X147949Y50421D01*
X147963Y50470D01*
X148005Y50618D01*
X148045Y50757D01*
X148438Y51249D01*
X148439Y51253D01*
X148441Y51253D01*
X148838Y51849D01*
X149333Y52343D01*
X149827Y52738D01*
X150419Y53034D01*
X151015Y53233D01*
X151710Y53432D01*
X152400Y53530D01*
X153093Y53431D01*
X153789Y53332D01*
X154384Y53133D01*
X154976Y52936D01*
X155467Y52543D01*
X156462Y51549D01*
X156855Y50958D01*
X157053Y50364D01*
X157252Y49769D01*
X157351Y49077D01*
X157351Y48683D01*
X157251Y47988D01*
X157153Y47395D01*
X156557Y46205D01*
X156163Y45614D01*
X155671Y45220D01*
X155075Y44823D01*
X154481Y44526D01*
X153889Y44328D01*
X153193Y44229D01*
X152500Y44130D01*
X151808Y44229D01*
G37*
%LPD*%
%LPC*%
G36*
X126503Y170609D02*
X126503Y170609D01*
X125811Y170708D01*
X125219Y170906D01*
X124625Y171203D01*
X124031Y171598D01*
X123538Y172091D01*
X123142Y172686D01*
X122842Y173185D01*
X122798Y173203D01*
X122823Y173216D01*
X122848Y173270D01*
X122840Y173274D01*
X122844Y173282D01*
X122547Y173875D01*
X122449Y174468D01*
X122349Y175163D01*
X122349Y175857D01*
X122448Y176549D01*
X122646Y177141D01*
X122942Y177733D01*
X123337Y178227D01*
X123833Y178723D01*
X124429Y179220D01*
X124923Y179517D01*
X125515Y179812D01*
X126207Y179911D01*
X126903Y180011D01*
X128898Y180011D01*
X130082Y179912D01*
X130455Y179632D01*
X130551Y179056D01*
X130551Y171560D01*
X130584Y171516D01*
X130496Y171509D01*
X130452Y171469D01*
X130451Y171468D01*
X130355Y170888D01*
X129984Y170609D01*
X126503Y170609D01*
G37*
%LPD*%
%LPC*%
G36*
X201054Y131239D02*
X201054Y131239D01*
X200461Y131338D01*
X199768Y131536D01*
X199173Y131833D01*
X198681Y132129D01*
X197691Y133119D01*
X197096Y134309D01*
X196898Y134901D01*
X196799Y135593D01*
X196799Y136287D01*
X196898Y136980D01*
X196906Y137006D01*
X196920Y137055D01*
X196962Y137203D01*
X197004Y137351D01*
X197018Y137400D01*
X197061Y137548D01*
X197096Y137670D01*
X197392Y138165D01*
X197392Y138168D01*
X197394Y138168D01*
X197691Y138761D01*
X198679Y139749D01*
X199869Y140344D01*
X200461Y140542D01*
X201153Y140641D01*
X204336Y140641D01*
X204810Y140356D01*
X205004Y139872D01*
X205039Y139851D01*
X205045Y139841D01*
X205074Y139838D01*
X205052Y139839D01*
X205003Y139806D01*
X205009Y139797D01*
X205001Y139790D01*
X205001Y132293D01*
X204904Y131617D01*
X204531Y131337D01*
X203847Y131239D01*
X201054Y131239D01*
G37*
%LPD*%
%LPC*%
G36*
X47203Y45929D02*
X47203Y45929D01*
X46527Y46026D01*
X46247Y46400D01*
X46149Y47083D01*
X46149Y49876D01*
X46248Y50469D01*
X46248Y50470D01*
X46249Y50470D01*
X46248Y50470D01*
X46291Y50618D01*
X46305Y50667D01*
X46347Y50815D01*
X46389Y50963D01*
X46403Y51012D01*
X46445Y51160D01*
X46446Y51160D01*
X46445Y51160D01*
X46446Y51162D01*
X46742Y51753D01*
X47138Y52249D01*
X47535Y52745D01*
X48129Y53240D01*
X48623Y53537D01*
X49218Y53834D01*
X49911Y54032D01*
X50504Y54131D01*
X51197Y54131D01*
X51890Y54032D01*
X52582Y53834D01*
X53173Y53538D01*
X53669Y53142D01*
X54165Y52745D01*
X54660Y52151D01*
X54957Y51657D01*
X55254Y51062D01*
X55452Y50369D01*
X55551Y49776D01*
X55551Y46496D01*
X55270Y46122D01*
X54692Y45929D01*
X47203Y45929D01*
G37*
%LPD*%
%LPC*%
G36*
X98348Y66090D02*
X98348Y66090D01*
X98303Y66129D01*
X98302Y66127D01*
X98300Y66129D01*
X97609Y66129D01*
X97140Y66317D01*
X96949Y66888D01*
X96949Y70372D01*
X97346Y71561D01*
X97641Y72151D01*
X98633Y73143D01*
X99127Y73538D01*
X99722Y73836D01*
X99732Y73856D01*
X99742Y73864D01*
X99739Y73869D01*
X99748Y73889D01*
X99739Y73894D01*
X99743Y73904D01*
X99725Y73936D01*
X100311Y74132D01*
X101007Y74231D01*
X101700Y74330D01*
X102392Y74231D01*
X102986Y74132D01*
X103678Y73836D01*
X104174Y73538D01*
X104769Y73142D01*
X105263Y72647D01*
X105658Y72153D01*
X105954Y71561D01*
X106153Y70965D01*
X106351Y70273D01*
X106351Y67083D01*
X106255Y66410D01*
X105786Y66129D01*
X98400Y66129D01*
X98353Y66093D01*
X98361Y66082D01*
X98352Y66072D01*
X98348Y66090D01*
G37*
%LPD*%
%LPC*%
G36*
X148604Y75929D02*
X148604Y75929D01*
X148031Y76025D01*
X147749Y76494D01*
X147749Y79977D01*
X147848Y80665D01*
X148144Y81258D01*
X148442Y81853D01*
X148837Y82347D01*
X149333Y82843D01*
X149827Y83238D01*
X150422Y83536D01*
X150431Y83555D01*
X150447Y83566D01*
X150441Y83574D01*
X150448Y83589D01*
X150439Y83594D01*
X150443Y83604D01*
X150425Y83636D01*
X151011Y83832D01*
X151707Y83931D01*
X151708Y83932D01*
X151708Y83931D01*
X152304Y84031D01*
X153096Y84031D01*
X153688Y83932D01*
X154278Y83735D01*
X154873Y83339D01*
X154877Y83339D01*
X154878Y83336D01*
X155471Y83039D01*
X155962Y82549D01*
X156357Y81955D01*
X156953Y80765D01*
X157051Y80172D01*
X157151Y79477D01*
X157151Y77482D01*
X157052Y76302D01*
X156676Y75926D01*
X156096Y75829D01*
X148604Y75929D01*
G37*
%LPD*%
%LPC*%
G36*
X149148Y34090D02*
X149148Y34090D01*
X149104Y34129D01*
X149102Y34127D01*
X149100Y34129D01*
X148409Y34129D01*
X147940Y34317D01*
X147749Y34888D01*
X147749Y38273D01*
X147787Y38404D01*
X147801Y38453D01*
X147843Y38601D01*
X147885Y38749D01*
X147899Y38798D01*
X147941Y38946D01*
X147942Y38946D01*
X147941Y38946D01*
X147947Y38965D01*
X148146Y39561D01*
X148441Y40151D01*
X149433Y41143D01*
X149927Y41538D01*
X150519Y41834D01*
X151115Y42033D01*
X151807Y42231D01*
X153192Y42231D01*
X153784Y42033D01*
X153786Y42034D01*
X153786Y42033D01*
X154480Y41834D01*
X154974Y41538D01*
X155569Y41142D01*
X156062Y40649D01*
X156457Y40055D01*
X156754Y39461D01*
X157151Y38272D01*
X157151Y35083D01*
X157055Y34410D01*
X156586Y34129D01*
X149200Y34129D01*
X149153Y34093D01*
X149161Y34082D01*
X149152Y34073D01*
X149148Y34090D01*
G37*
%LPD*%
%LPC*%
G36*
X97325Y34129D02*
X97325Y34129D01*
X97047Y34499D01*
X96949Y35283D01*
X96949Y37977D01*
X97048Y38669D01*
X97246Y39261D01*
X97543Y39855D01*
X97940Y40451D01*
X98334Y40943D01*
X98927Y41339D01*
X98928Y41342D01*
X98931Y41342D01*
X99424Y41736D01*
X100015Y41933D01*
X100711Y42132D01*
X101304Y42231D01*
X102096Y42231D01*
X102689Y42132D01*
X103385Y41933D01*
X103973Y41737D01*
X103956Y41701D01*
X103967Y41643D01*
X103974Y41644D01*
X103975Y41638D01*
X104470Y41341D01*
X105462Y40349D01*
X105855Y39758D01*
X106053Y39164D01*
X106252Y38569D01*
X106351Y37877D01*
X106351Y34694D01*
X106070Y34225D01*
X105496Y34129D01*
X97325Y34129D01*
G37*
%LPD*%
%LPC*%
G36*
X210593Y65069D02*
X210593Y65069D01*
X209901Y65168D01*
X209312Y65365D01*
X208724Y65757D01*
X208330Y66249D01*
X207935Y66842D01*
X207739Y67428D01*
X207739Y68808D01*
X208334Y69998D01*
X208331Y70017D01*
X208334Y70020D01*
X208331Y70024D01*
X208338Y70032D01*
X208238Y70432D01*
X208236Y70434D01*
X208237Y70436D01*
X208038Y71031D01*
X207940Y71720D01*
X208038Y72409D01*
X208235Y72998D01*
X208628Y73589D01*
X209119Y74079D01*
X209705Y74373D01*
X210298Y74471D01*
X210993Y74571D01*
X213687Y74571D01*
X214571Y74473D01*
X214949Y74189D01*
X215141Y73711D01*
X215141Y66223D01*
X215043Y65540D01*
X214763Y65166D01*
X213987Y65069D01*
X210593Y65069D01*
G37*
%LPD*%
%LPC*%
G36*
X172220Y44329D02*
X172220Y44329D01*
X171847Y44703D01*
X171749Y45483D01*
X171749Y48877D01*
X171848Y49569D01*
X172044Y50156D01*
X172437Y50647D01*
X172929Y51139D01*
X173519Y51434D01*
X174111Y51632D01*
X174800Y51730D01*
X175489Y51632D01*
X176078Y51435D01*
X176673Y51039D01*
X176701Y51041D01*
X176712Y51032D01*
X177112Y51132D01*
X177116Y51137D01*
X177119Y51135D01*
X177810Y51431D01*
X179088Y51431D01*
X179675Y51137D01*
X180269Y50742D01*
X180761Y50250D01*
X181053Y49763D01*
X181251Y48377D01*
X181251Y45683D01*
X181152Y44896D01*
X180869Y44424D01*
X180395Y44329D01*
X172220Y44329D01*
G37*
%LPD*%
%LPC*%
G36*
X118423Y170707D02*
X118423Y170707D01*
X118049Y171080D01*
X118049Y173060D01*
X118017Y173103D01*
X118016Y173107D01*
X117416Y173307D01*
X117405Y173303D01*
X117400Y173309D01*
X116100Y173309D01*
X116071Y173287D01*
X116058Y173286D01*
X115558Y172486D01*
X115559Y172481D01*
X115555Y172480D01*
X114861Y170894D01*
X114390Y170611D01*
X113716Y170707D01*
X113039Y171094D01*
X112852Y171563D01*
X112862Y171599D01*
X112904Y171746D01*
X112905Y171746D01*
X112904Y171746D01*
X112947Y171894D01*
X112961Y171943D01*
X113003Y172091D01*
X113045Y172239D01*
X113047Y172244D01*
X113245Y172740D01*
X113844Y173938D01*
X113840Y173960D01*
X113844Y173963D01*
X113843Y173964D01*
X113848Y173970D01*
X113748Y174470D01*
X113736Y174481D01*
X113738Y174491D01*
X113342Y174987D01*
X113048Y175575D01*
X112949Y176263D01*
X112949Y176957D01*
X113048Y177645D01*
X113344Y178238D01*
X113639Y178828D01*
X114129Y179220D01*
X114725Y179617D01*
X115318Y179914D01*
X116007Y180111D01*
X119392Y180111D01*
X119965Y179920D01*
X120251Y179348D01*
X120251Y171963D01*
X120152Y171273D01*
X119963Y170801D01*
X119296Y170610D01*
X118423Y170707D01*
G37*
%LPD*%
%LPC*%
G36*
X178978Y154099D02*
X178978Y154099D01*
X178392Y154295D01*
X177799Y154690D01*
X177305Y155085D01*
X176913Y155575D01*
X176716Y156068D01*
X176713Y156070D01*
X176714Y156072D01*
X176418Y156665D01*
X176319Y157357D01*
X176219Y158053D01*
X176219Y159547D01*
X176319Y160242D01*
X176418Y160839D01*
X176421Y160851D01*
X176422Y160851D01*
X176421Y160851D01*
X176464Y160999D01*
X176478Y161048D01*
X176520Y161196D01*
X176562Y161343D01*
X176576Y161393D01*
X176616Y161532D01*
X176914Y162128D01*
X177209Y162718D01*
X177699Y163110D01*
X178292Y163505D01*
X178881Y163702D01*
X179573Y163801D01*
X180266Y163801D01*
X180855Y163703D01*
X181442Y163409D01*
X182332Y162618D01*
X182626Y162128D01*
X182924Y161433D01*
X183122Y160739D01*
X183221Y160142D01*
X183321Y159447D01*
X183321Y157954D01*
X183222Y157361D01*
X183214Y157332D01*
X183171Y157184D01*
X183157Y157135D01*
X183115Y156987D01*
X183073Y156839D01*
X183059Y156790D01*
X183023Y156665D01*
X182824Y156069D01*
X182528Y155477D01*
X182135Y154985D01*
X181643Y154592D01*
X181052Y154296D01*
X180363Y154099D01*
X178978Y154099D01*
G37*
%LPD*%
%LPC*%
G36*
X149043Y86104D02*
X149043Y86104D01*
X149014Y86117D01*
X149008Y86129D01*
X148413Y86228D01*
X147942Y86416D01*
X147750Y87183D01*
X147847Y87957D01*
X148220Y88331D01*
X150200Y88331D01*
X150243Y88363D01*
X150247Y88364D01*
X150447Y88964D01*
X150443Y88975D01*
X150449Y88980D01*
X150449Y90280D01*
X150427Y90309D01*
X150426Y90322D01*
X149626Y90822D01*
X149621Y90821D01*
X149620Y90825D01*
X148034Y91519D01*
X147751Y91990D01*
X147847Y92664D01*
X148234Y93341D01*
X148703Y93528D01*
X149384Y93333D01*
X149880Y93135D01*
X151078Y92536D01*
X151100Y92540D01*
X151110Y92532D01*
X151610Y92632D01*
X151621Y92644D01*
X151631Y92642D01*
X152127Y93038D01*
X152715Y93332D01*
X153403Y93431D01*
X154097Y93431D01*
X154785Y93332D01*
X155375Y93037D01*
X155969Y92642D01*
X156362Y92249D01*
X156756Y91657D01*
X157054Y90962D01*
X157251Y90372D01*
X157251Y86988D01*
X157060Y86415D01*
X156488Y86129D01*
X149100Y86129D01*
X149095Y86125D01*
X149089Y86128D01*
X149084Y86117D01*
X149053Y86093D01*
X149066Y86076D01*
X149062Y86069D01*
X149043Y86104D01*
G37*
%LPD*%
%LPC*%
G36*
X47104Y35529D02*
X47104Y35529D01*
X46524Y35626D01*
X46149Y36000D01*
X46149Y36873D01*
X46150Y36877D01*
X46151Y36877D01*
X46150Y36877D01*
X46193Y37025D01*
X46207Y37074D01*
X46249Y37222D01*
X46291Y37370D01*
X46305Y37419D01*
X46341Y37543D01*
X46809Y37731D01*
X51500Y37731D01*
X51513Y37741D01*
X51530Y37741D01*
X51530Y37753D01*
X51547Y37767D01*
X51530Y37790D01*
X51530Y37819D01*
X46732Y41417D01*
X46149Y42000D01*
X46149Y42677D01*
X46246Y43357D01*
X46624Y43734D01*
X47208Y43831D01*
X47241Y43866D01*
X47247Y43871D01*
X47247Y43872D01*
X47249Y43875D01*
X47246Y43878D01*
X47249Y43880D01*
X47249Y43909D01*
X47251Y43878D01*
X47289Y43832D01*
X47295Y43837D01*
X47300Y43831D01*
X54786Y43831D01*
X55264Y43544D01*
X55551Y43066D01*
X55551Y42300D01*
X54880Y41629D01*
X50100Y41629D01*
X50089Y41621D01*
X50076Y41623D01*
X50074Y41610D01*
X50053Y41593D01*
X50069Y41572D01*
X50065Y41545D01*
X50265Y41345D01*
X50270Y41344D01*
X50270Y41341D01*
X51070Y40741D01*
X54769Y37941D01*
X55358Y37451D01*
X55551Y36872D01*
X55551Y36197D01*
X55171Y35722D01*
X54592Y35529D01*
X47104Y35529D01*
G37*
%LPD*%
%LPC*%
G36*
X207759Y131239D02*
X207759Y131239D01*
X207291Y131427D01*
X207100Y132094D01*
X207198Y132874D01*
X207480Y133345D01*
X208153Y133441D01*
X212150Y133441D01*
X212197Y133477D01*
X212192Y133484D01*
X212199Y133490D01*
X212199Y134190D01*
X212195Y134196D01*
X212198Y134200D01*
X212098Y134700D01*
X212054Y134739D01*
X212052Y134737D01*
X212050Y134739D01*
X210053Y134739D01*
X209361Y134838D01*
X208783Y135031D01*
X208501Y135501D01*
X208598Y136374D01*
X208884Y136850D01*
X209359Y137041D01*
X212150Y137041D01*
X212197Y137077D01*
X212192Y137084D01*
X212199Y137090D01*
X212199Y138290D01*
X212163Y138337D01*
X212160Y138335D01*
X212158Y138339D01*
X211558Y138439D01*
X211553Y138436D01*
X211550Y138439D01*
X208154Y138439D01*
X207574Y138536D01*
X207197Y138913D01*
X207100Y139686D01*
X207108Y139715D01*
X207122Y139764D01*
X207165Y139912D01*
X207207Y140059D01*
X207221Y140109D01*
X207263Y140256D01*
X207292Y140358D01*
X207764Y140641D01*
X213836Y140641D01*
X214305Y140360D01*
X214401Y139687D01*
X214401Y131614D01*
X213933Y131239D01*
X207759Y131239D01*
G37*
%LPD*%
%LPC*%
G36*
X50408Y24929D02*
X50408Y24929D01*
X49816Y25127D01*
X49814Y25126D01*
X49814Y25127D01*
X49118Y25326D01*
X48523Y25623D01*
X48031Y25919D01*
X47038Y26911D01*
X46643Y27505D01*
X46347Y28095D01*
X46249Y28688D01*
X46149Y29383D01*
X46149Y30077D01*
X46249Y30873D01*
X46347Y31465D01*
X46643Y32057D01*
X46939Y32550D01*
X47427Y33037D01*
X48008Y33231D01*
X50697Y33231D01*
X51381Y33133D01*
X51757Y32851D01*
X51951Y32173D01*
X51951Y29988D01*
X51761Y29419D01*
X51192Y29229D01*
X50520Y29229D01*
X50148Y29602D01*
X50049Y30984D01*
X50010Y31028D01*
X50004Y31023D01*
X50000Y31029D01*
X48700Y31029D01*
X48667Y31004D01*
X48656Y31002D01*
X48356Y30402D01*
X48359Y30386D01*
X48351Y30380D01*
X48351Y29680D01*
X48354Y29675D01*
X48351Y29672D01*
X48451Y29072D01*
X48456Y29068D01*
X48453Y29064D01*
X48653Y28464D01*
X48664Y28457D01*
X48662Y28448D01*
X49162Y27848D01*
X49169Y27847D01*
X49169Y27842D01*
X49669Y27442D01*
X49682Y27441D01*
X49684Y27433D01*
X50284Y27233D01*
X50291Y27235D01*
X50293Y27231D01*
X50993Y27131D01*
X51002Y27136D01*
X51007Y27131D01*
X51707Y27231D01*
X51711Y27235D01*
X51714Y27233D01*
X52414Y27433D01*
X52422Y27444D01*
X52431Y27442D01*
X52931Y27842D01*
X52933Y27852D01*
X52941Y27853D01*
X53341Y28453D01*
X53340Y28462D01*
X53347Y28464D01*
X53547Y29064D01*
X53545Y29071D01*
X53549Y29073D01*
X53649Y29773D01*
X53644Y29782D01*
X53649Y29787D01*
X53549Y30487D01*
X53541Y30495D01*
X53544Y30502D01*
X52952Y31687D01*
X53045Y32156D01*
X53627Y32737D01*
X54200Y32928D01*
X54768Y32739D01*
X55157Y32155D01*
X55454Y31561D01*
X55652Y30969D01*
X55751Y30273D01*
X55752Y30272D01*
X55751Y30272D01*
X55850Y29679D01*
X55751Y28987D01*
X55652Y28295D01*
X55356Y27702D01*
X55058Y27107D01*
X54663Y26613D01*
X54167Y26117D01*
X53671Y25720D01*
X53078Y25325D01*
X52489Y25128D01*
X51097Y24929D01*
X50408Y24929D01*
G37*
%LPD*%
%LPC*%
G36*
X127708Y119809D02*
X127708Y119809D01*
X127139Y119999D01*
X126950Y120565D01*
X127048Y121344D01*
X127333Y121819D01*
X127908Y122011D01*
X130300Y122011D01*
X130314Y122022D01*
X130332Y122023D01*
X130331Y122035D01*
X130347Y122047D01*
X130329Y122071D01*
X130327Y122101D01*
X130027Y122301D01*
X130026Y122301D01*
X130025Y122302D01*
X129526Y122602D01*
X128930Y122999D01*
X128335Y123495D01*
X127942Y123987D01*
X127646Y124579D01*
X127448Y125171D01*
X127350Y125860D01*
X127448Y126549D01*
X127646Y127141D01*
X127943Y127735D01*
X128337Y128326D01*
X128829Y128720D01*
X129422Y129115D01*
X130008Y129311D01*
X131393Y129311D01*
X132085Y129113D01*
X132676Y128916D01*
X133163Y128526D01*
X133559Y127933D01*
X133955Y127338D01*
X134152Y126748D01*
X134251Y126156D01*
X134251Y125372D01*
X134066Y125001D01*
X133393Y124809D01*
X132520Y124809D01*
X132146Y125183D01*
X132049Y125867D01*
X132048Y125868D01*
X132049Y125868D01*
X131949Y126468D01*
X131933Y126483D01*
X131935Y126495D01*
X131435Y126995D01*
X131413Y126998D01*
X131407Y127009D01*
X130707Y127109D01*
X130693Y127101D01*
X130684Y127107D01*
X130084Y126907D01*
X130073Y126890D01*
X130062Y126891D01*
X129662Y126391D01*
X129661Y126368D01*
X129651Y126360D01*
X129651Y125760D01*
X129660Y125747D01*
X129656Y125738D01*
X129956Y125138D01*
X129963Y125135D01*
X129962Y125129D01*
X130362Y124629D01*
X130369Y124627D01*
X130368Y124622D01*
X130968Y124122D01*
X130974Y124122D01*
X130975Y124118D01*
X131475Y123818D01*
X131475Y123817D01*
X132674Y123118D01*
X133266Y122723D01*
X133660Y122231D01*
X134055Y121638D01*
X134249Y121056D01*
X134153Y120478D01*
X133771Y119906D01*
X133097Y119809D01*
X127708Y119809D01*
G37*
%LPD*%
%LPC*%
G36*
X141240Y170589D02*
X141240Y170589D01*
X141215Y170596D01*
X141210Y170608D01*
X140724Y170705D01*
X140341Y171089D01*
X139745Y172381D01*
X139727Y172390D01*
X139725Y172402D01*
X139225Y172702D01*
X139207Y172700D01*
X139200Y172709D01*
X136500Y172709D01*
X136495Y172706D01*
X136492Y172709D01*
X135892Y172609D01*
X135869Y172585D01*
X135856Y172582D01*
X135256Y171382D01*
X134965Y170800D01*
X134395Y170610D01*
X133721Y170707D01*
X133141Y171190D01*
X132953Y171659D01*
X133245Y172340D01*
X136444Y179038D01*
X136741Y179631D01*
X137220Y180111D01*
X137888Y180111D01*
X138465Y179822D01*
X138757Y179337D01*
X142055Y172640D01*
X142351Y171950D01*
X142351Y171380D01*
X141970Y171000D01*
X141276Y170603D01*
X141259Y170563D01*
X141240Y170589D01*
G37*
%LPD*%
%LPC*%
G36*
X148520Y64029D02*
X148520Y64029D01*
X148042Y64508D01*
X147751Y65186D01*
X147846Y65753D01*
X148326Y66138D01*
X149621Y66735D01*
X149633Y66758D01*
X149646Y66762D01*
X149846Y67262D01*
X149845Y67264D01*
X149847Y67265D01*
X149844Y67268D01*
X149842Y67275D01*
X149849Y67280D01*
X149849Y69980D01*
X149846Y69985D01*
X149849Y69988D01*
X149749Y70588D01*
X149723Y70612D01*
X149721Y70625D01*
X148423Y71224D01*
X147941Y71513D01*
X147752Y72081D01*
X147768Y72140D01*
X147769Y72140D01*
X147768Y72140D01*
X147811Y72288D01*
X147825Y72337D01*
X147867Y72485D01*
X147909Y72633D01*
X147923Y72682D01*
X147944Y72756D01*
X148427Y73335D01*
X148895Y73429D01*
X149580Y73135D01*
X156278Y69836D01*
X156868Y69541D01*
X157251Y69063D01*
X157251Y68395D01*
X156865Y67817D01*
X156377Y67523D01*
X149680Y64325D01*
X148990Y64029D01*
X148520Y64029D01*
G37*
%LPD*%
%LPC*%
G36*
X97438Y76413D02*
X97438Y76413D01*
X97047Y77097D01*
X96952Y77666D01*
X97331Y78140D01*
X98621Y78735D01*
X98627Y78746D01*
X98635Y78745D01*
X99035Y79145D01*
X99039Y79172D01*
X99049Y79180D01*
X99049Y82580D01*
X99027Y82610D01*
X99025Y82622D01*
X98525Y82922D01*
X98521Y82922D01*
X98521Y82925D01*
X97234Y83518D01*
X96952Y83990D01*
X97047Y84563D01*
X97436Y85244D01*
X97906Y85526D01*
X98481Y85334D01*
X105871Y81839D01*
X106354Y81356D01*
X106450Y80783D01*
X106422Y80687D01*
X106408Y80638D01*
X106366Y80490D01*
X106324Y80343D01*
X106310Y80293D01*
X106268Y80146D01*
X106257Y80109D01*
X105774Y79722D01*
X99080Y76525D01*
X98386Y76228D01*
X97813Y76132D01*
X97438Y76413D01*
G37*
%LPD*%
%LPC*%
G36*
X152473Y154099D02*
X152473Y154099D01*
X151781Y154198D01*
X151192Y154395D01*
X150599Y154790D01*
X150109Y155182D01*
X149519Y156362D01*
X149519Y157146D01*
X149618Y157738D01*
X149814Y158326D01*
X150305Y158915D01*
X150797Y159308D01*
X151385Y159602D01*
X152077Y159701D01*
X152765Y159800D01*
X153354Y159603D01*
X153356Y159604D01*
X153357Y159603D01*
X153360Y159605D01*
X153411Y159622D01*
X153405Y159639D01*
X153419Y159650D01*
X153419Y160050D01*
X153405Y160068D01*
X153408Y160081D01*
X153008Y160581D01*
X153001Y160583D01*
X153001Y160588D01*
X152501Y160988D01*
X152491Y160989D01*
X152489Y160995D01*
X151789Y161295D01*
X151780Y161293D01*
X151777Y161299D01*
X150387Y161497D01*
X149911Y161783D01*
X149720Y162355D01*
X149817Y163030D01*
X150197Y163505D01*
X150774Y163601D01*
X151567Y163601D01*
X152259Y163502D01*
X152851Y163304D01*
X153443Y163008D01*
X153939Y162612D01*
X154435Y162215D01*
X154832Y161719D01*
X155228Y161223D01*
X155524Y160631D01*
X155723Y160035D01*
X155922Y159340D01*
X156021Y158647D01*
X156021Y157157D01*
X156000Y157085D01*
X155986Y157036D01*
X155944Y156888D01*
X155902Y156741D01*
X155888Y156691D01*
X155846Y156544D01*
X155823Y156465D01*
X155625Y155871D01*
X155330Y155378D01*
X154935Y154885D01*
X154443Y154492D01*
X153855Y154198D01*
X153167Y154099D01*
X152473Y154099D01*
G37*
%LPD*%
%LPC*%
G36*
X123205Y44329D02*
X123205Y44329D01*
X122733Y44424D01*
X122449Y44992D01*
X122449Y45866D01*
X122733Y46339D01*
X123308Y46531D01*
X126000Y46531D01*
X126011Y46539D01*
X126024Y46537D01*
X126026Y46550D01*
X126047Y46567D01*
X126031Y46588D01*
X126035Y46615D01*
X125635Y47015D01*
X125632Y47015D01*
X125632Y47018D01*
X123035Y49215D01*
X122543Y49806D01*
X122352Y50282D01*
X122543Y50853D01*
X123124Y51435D01*
X123593Y51528D01*
X124171Y51239D01*
X127065Y48345D01*
X127118Y48338D01*
X127122Y48336D01*
X127522Y48536D01*
X127528Y48549D01*
X127538Y48548D01*
X128038Y49148D01*
X128536Y49746D01*
X129533Y50643D01*
X129533Y50645D01*
X129535Y50645D01*
X129931Y51042D01*
X130519Y51434D01*
X130987Y51527D01*
X131464Y51146D01*
X131951Y50464D01*
X131951Y49997D01*
X131564Y49514D01*
X130168Y48317D01*
X130168Y48316D01*
X130166Y48316D01*
X128566Y46816D01*
X128564Y46804D01*
X128563Y46803D01*
X128564Y46802D01*
X128557Y46760D01*
X128556Y46758D01*
X128656Y46558D01*
X128693Y46540D01*
X128700Y46531D01*
X130697Y46531D01*
X131381Y46433D01*
X131754Y46153D01*
X131850Y45380D01*
X131754Y44607D01*
X131384Y44329D01*
X123205Y44329D01*
G37*
%LPD*%
%LPC*%
G36*
X74007Y46029D02*
X74007Y46029D01*
X73321Y46225D01*
X72734Y46617D01*
X72338Y47111D01*
X71944Y47604D01*
X71747Y48195D01*
X71549Y48887D01*
X71549Y50273D01*
X71577Y50372D01*
X71578Y50372D01*
X71577Y50372D01*
X71620Y50520D01*
X71634Y50569D01*
X71676Y50717D01*
X71718Y50864D01*
X71732Y50914D01*
X71747Y50965D01*
X71944Y51556D01*
X72337Y52047D01*
X72833Y52543D01*
X73323Y52935D01*
X74007Y53131D01*
X74696Y53131D01*
X75285Y53033D01*
X75871Y52739D01*
X76365Y52245D01*
X76384Y52243D01*
X76388Y52232D01*
X76788Y52132D01*
X76828Y52149D01*
X76838Y52149D01*
X77232Y52641D01*
X77812Y52931D01*
X78497Y52931D01*
X79185Y52832D01*
X79773Y52538D01*
X80267Y52143D01*
X81251Y51160D01*
X81251Y49283D01*
X81152Y48595D01*
X80856Y48002D01*
X80559Y47409D01*
X80069Y46918D01*
X79482Y46527D01*
X78904Y46431D01*
X78332Y46621D01*
X77947Y47198D01*
X77852Y47770D01*
X78138Y48247D01*
X78631Y48642D01*
X78633Y48652D01*
X78641Y48653D01*
X79041Y49253D01*
X79040Y49273D01*
X79049Y49280D01*
X79049Y49980D01*
X79040Y49993D01*
X79044Y50002D01*
X78744Y50602D01*
X78714Y50617D01*
X78708Y50629D01*
X78108Y50729D01*
X78065Y50706D01*
X78058Y50705D01*
X77758Y50205D01*
X77758Y50202D01*
X77758Y50201D01*
X77759Y50190D01*
X77751Y50185D01*
X77651Y49288D01*
X77557Y48818D01*
X76992Y48629D01*
X76114Y48629D01*
X75645Y48911D01*
X75549Y49488D01*
X75449Y50187D01*
X75438Y50198D01*
X75441Y50207D01*
X75041Y50807D01*
X75014Y50817D01*
X75008Y50829D01*
X74408Y50929D01*
X74405Y50927D01*
X74397Y50927D01*
X74382Y50915D01*
X74369Y50918D01*
X73869Y50518D01*
X73865Y50503D01*
X73857Y50497D01*
X73853Y50496D01*
X73653Y49896D01*
X73657Y49885D01*
X73651Y49880D01*
X73651Y49080D01*
X73663Y49064D01*
X73659Y49053D01*
X74059Y48453D01*
X74076Y48447D01*
X74078Y48436D01*
X74671Y48139D01*
X75054Y47757D01*
X75150Y47083D01*
X74956Y46309D01*
X74584Y46029D01*
X74007Y46029D01*
G37*
%LPD*%
%LPC*%
G36*
X73714Y25028D02*
X73714Y25028D01*
X73028Y25322D01*
X72141Y26209D01*
X71846Y26799D01*
X71648Y27391D01*
X71549Y28083D01*
X71549Y28877D01*
X71648Y29569D01*
X71846Y30161D01*
X72142Y30753D01*
X72535Y31245D01*
X73027Y31638D01*
X73615Y31932D01*
X74303Y32031D01*
X74992Y32031D01*
X75576Y31836D01*
X76067Y31443D01*
X76565Y30945D01*
X76592Y30942D01*
X76599Y30932D01*
X76601Y30932D01*
X76611Y30939D01*
X76624Y30937D01*
X76625Y30946D01*
X76635Y30945D01*
X77033Y31343D01*
X77523Y31735D01*
X78203Y31930D01*
X78788Y31832D01*
X79378Y31635D01*
X79971Y31240D01*
X80467Y30843D01*
X80963Y30348D01*
X81251Y29964D01*
X81251Y28583D01*
X81151Y27888D01*
X81052Y27294D01*
X80757Y26606D01*
X80365Y26115D01*
X79776Y25624D01*
X79192Y25429D01*
X78617Y25429D01*
X78139Y25812D01*
X77849Y26392D01*
X77849Y26957D01*
X78431Y27442D01*
X78931Y27842D01*
X78935Y27857D01*
X78945Y27865D01*
X78942Y27869D01*
X78949Y27873D01*
X79049Y28573D01*
X79043Y28583D01*
X79049Y28588D01*
X78949Y29188D01*
X78930Y29205D01*
X78931Y29218D01*
X78431Y29618D01*
X78401Y29619D01*
X78390Y29628D01*
X77890Y29528D01*
X77855Y29488D01*
X77851Y29486D01*
X77751Y28686D01*
X77653Y28000D01*
X77373Y27627D01*
X76501Y27530D01*
X75830Y27625D01*
X75549Y28094D01*
X75549Y28780D01*
X75542Y28789D01*
X75547Y28796D01*
X75347Y29396D01*
X75328Y29408D01*
X75327Y29421D01*
X74727Y29821D01*
X74702Y29819D01*
X74692Y29829D01*
X74092Y29729D01*
X74071Y29707D01*
X74058Y29705D01*
X73758Y29205D01*
X73759Y29191D01*
X73751Y29186D01*
X73651Y28386D01*
X73658Y28374D01*
X73653Y28366D01*
X73853Y27666D01*
X73867Y27656D01*
X73865Y27645D01*
X74265Y27245D01*
X74277Y27244D01*
X74278Y27236D01*
X74865Y26942D01*
X75149Y26469D01*
X75052Y25592D01*
X74863Y25120D01*
X74296Y24931D01*
X73714Y25028D01*
G37*
%LPD*%
%LPC*%
G36*
X220397Y65069D02*
X220397Y65069D01*
X219705Y65267D01*
X219112Y65465D01*
X218519Y65860D01*
X218029Y66252D01*
X217736Y66839D01*
X217538Y67431D01*
X217440Y68120D01*
X217538Y68909D01*
X217734Y69496D01*
X218125Y69985D01*
X218617Y70378D01*
X219208Y70674D01*
X219902Y70872D01*
X221201Y71172D01*
X221209Y71182D01*
X221217Y71179D01*
X221817Y71579D01*
X221829Y71612D01*
X221839Y71620D01*
X221839Y72220D01*
X221823Y72241D01*
X221825Y72255D01*
X221425Y72655D01*
X221403Y72658D01*
X221397Y72669D01*
X220697Y72769D01*
X220679Y72759D01*
X220668Y72764D01*
X219475Y72167D01*
X218904Y72072D01*
X218428Y72453D01*
X218042Y73128D01*
X218135Y73596D01*
X218623Y74083D01*
X219113Y74475D01*
X219800Y74672D01*
X220493Y74771D01*
X221187Y74771D01*
X221879Y74672D01*
X222471Y74474D01*
X223061Y74179D01*
X223551Y73690D01*
X223844Y73200D01*
X224042Y72509D01*
X224140Y71919D01*
X224042Y71231D01*
X223846Y70644D01*
X223355Y70055D01*
X222863Y69662D01*
X222272Y69366D01*
X221578Y69168D01*
X220279Y68868D01*
X220269Y68856D01*
X220259Y68858D01*
X219759Y68458D01*
X219752Y68428D01*
X219741Y68420D01*
X219741Y67820D01*
X219752Y67805D01*
X219748Y67795D01*
X220048Y67295D01*
X220077Y67283D01*
X220084Y67271D01*
X220884Y67171D01*
X220893Y67177D01*
X220901Y67177D01*
X220906Y67173D01*
X221506Y67373D01*
X221511Y67381D01*
X221517Y67379D01*
X222117Y67779D01*
X222119Y67783D01*
X222122Y67782D01*
X222712Y68274D01*
X223183Y68368D01*
X223759Y68081D01*
X224241Y67502D01*
X224241Y66936D01*
X223951Y66550D01*
X223556Y66057D01*
X222965Y65663D01*
X222372Y65366D01*
X221679Y65168D01*
X221086Y65069D01*
X220397Y65069D01*
G37*
%LPD*%
%LPC*%
G36*
X149424Y25026D02*
X149424Y25026D01*
X148637Y25813D01*
X148144Y26404D01*
X147947Y26995D01*
X147749Y27687D01*
X147749Y28973D01*
X147756Y28997D01*
X147770Y29047D01*
X147812Y29194D01*
X147813Y29194D01*
X147812Y29194D01*
X147855Y29342D01*
X147869Y29391D01*
X147911Y29539D01*
X147946Y29662D01*
X148244Y30258D01*
X148539Y30848D01*
X149027Y31238D01*
X149618Y31534D01*
X150307Y31731D01*
X150997Y31731D01*
X151689Y31632D01*
X152273Y31437D01*
X152761Y30950D01*
X153056Y30458D01*
X153354Y29763D01*
X153552Y29069D01*
X153651Y28472D01*
X153656Y28468D01*
X153653Y28464D01*
X153853Y27864D01*
X153867Y27855D01*
X153865Y27845D01*
X154365Y27345D01*
X154390Y27342D01*
X154395Y27336D01*
X154403Y27336D01*
X154408Y27331D01*
X155008Y27431D01*
X155029Y27453D01*
X155042Y27455D01*
X155342Y27955D01*
X155342Y27960D01*
X155345Y27963D01*
X155341Y27969D01*
X155340Y27973D01*
X155349Y27980D01*
X155349Y28680D01*
X155340Y28693D01*
X155344Y28702D01*
X154749Y29892D01*
X154749Y30457D01*
X155327Y30939D01*
X155902Y31226D01*
X156370Y31039D01*
X156860Y30451D01*
X157154Y29960D01*
X157352Y29270D01*
X157451Y28577D01*
X157451Y27787D01*
X157424Y27694D01*
X157410Y27645D01*
X157368Y27497D01*
X157326Y27350D01*
X157312Y27300D01*
X157270Y27153D01*
X157253Y27095D01*
X157055Y26501D01*
X156758Y26005D01*
X156758Y26004D01*
X156724Y26023D01*
X156677Y26016D01*
X156669Y26018D01*
X155680Y25227D01*
X154997Y25129D01*
X154304Y25129D01*
X153715Y25227D01*
X153125Y25523D01*
X152538Y25914D01*
X152244Y26502D01*
X151946Y27098D01*
X151748Y27791D01*
X151649Y28388D01*
X151645Y28391D01*
X151647Y28394D01*
X151447Y29094D01*
X151430Y29106D01*
X151431Y29118D01*
X150931Y29518D01*
X150902Y29519D01*
X150892Y29529D01*
X150292Y29429D01*
X150275Y29410D01*
X150262Y29411D01*
X149862Y28911D01*
X149861Y28892D01*
X149851Y28887D01*
X149751Y28187D01*
X149760Y28171D01*
X149755Y28161D01*
X150055Y27461D01*
X150066Y27454D01*
X150065Y27445D01*
X150562Y26949D01*
X150951Y26365D01*
X150951Y25896D01*
X150466Y25217D01*
X149990Y24932D01*
X149424Y25026D01*
G37*
%LPD*%
%LPC*%
G36*
X173616Y35229D02*
X173616Y35229D01*
X173230Y35519D01*
X172737Y35914D01*
X172343Y36505D01*
X172046Y37099D01*
X171848Y37691D01*
X171749Y38383D01*
X171749Y39073D01*
X171769Y39143D01*
X171783Y39192D01*
X171825Y39340D01*
X171826Y39340D01*
X171825Y39340D01*
X171868Y39488D01*
X171882Y39537D01*
X171924Y39685D01*
X171947Y39765D01*
X172145Y40358D01*
X172538Y40949D01*
X172931Y41342D01*
X173521Y41735D01*
X174207Y41931D01*
X175592Y41931D01*
X176176Y41736D01*
X176663Y41346D01*
X177057Y40755D01*
X177354Y40162D01*
X177552Y39468D01*
X177852Y38169D01*
X177864Y38159D01*
X177862Y38149D01*
X178262Y37649D01*
X178286Y37643D01*
X178292Y37631D01*
X178892Y37531D01*
X178896Y37534D01*
X178899Y37531D01*
X178900Y37531D01*
X178921Y37547D01*
X178922Y37547D01*
X178935Y37545D01*
X179435Y38045D01*
X179436Y38057D01*
X179440Y38059D01*
X179437Y38063D01*
X179439Y38072D01*
X179449Y38080D01*
X179449Y38780D01*
X179440Y38793D01*
X179444Y38802D01*
X179144Y39402D01*
X179140Y39404D01*
X179141Y39407D01*
X178749Y39995D01*
X178749Y40560D01*
X179231Y41042D01*
X179810Y41428D01*
X180273Y41335D01*
X180762Y40748D01*
X180766Y40748D01*
X180765Y40745D01*
X181156Y40355D01*
X181352Y39570D01*
X181451Y38976D01*
X181451Y38283D01*
X181352Y37491D01*
X181155Y36901D01*
X180861Y36411D01*
X180369Y35918D01*
X179778Y35525D01*
X179192Y35329D01*
X178504Y35329D01*
X177911Y35428D01*
X177223Y35625D01*
X176737Y36014D01*
X176343Y36605D01*
X176046Y37199D01*
X175848Y37793D01*
X175548Y39190D01*
X175536Y39201D01*
X175538Y39211D01*
X175138Y39711D01*
X175108Y39718D01*
X175100Y39729D01*
X174500Y39729D01*
X174482Y39715D01*
X174469Y39718D01*
X173969Y39318D01*
X173963Y39293D01*
X173951Y39287D01*
X173851Y38587D01*
X173858Y38574D01*
X173853Y38566D01*
X174053Y37866D01*
X174064Y37858D01*
X174062Y37849D01*
X174462Y37349D01*
X174462Y37348D01*
X174954Y36759D01*
X175048Y36191D01*
X174663Y35614D01*
X174183Y35229D01*
X173616Y35229D01*
G37*
%LPD*%
%LPC*%
G36*
X124215Y25029D02*
X124215Y25029D01*
X123336Y25616D01*
X122941Y26207D01*
X122545Y26801D01*
X122349Y27487D01*
X122349Y28777D01*
X122448Y29469D01*
X122645Y30058D01*
X123040Y30651D01*
X123432Y31141D01*
X124019Y31434D01*
X124611Y31632D01*
X125303Y31731D01*
X126092Y31731D01*
X126678Y31535D01*
X127263Y31145D01*
X127557Y30657D01*
X127854Y30062D01*
X128052Y29368D01*
X128352Y28069D01*
X128362Y28061D01*
X128359Y28053D01*
X128759Y27453D01*
X128786Y27443D01*
X128792Y27431D01*
X129392Y27331D01*
X129401Y27336D01*
X129407Y27336D01*
X129418Y27345D01*
X129431Y27342D01*
X129931Y27742D01*
X129935Y27757D01*
X129947Y27766D01*
X129944Y27770D01*
X129949Y27773D01*
X130049Y28473D01*
X130039Y28491D01*
X130044Y28502D01*
X129744Y29102D01*
X129740Y29104D01*
X129741Y29107D01*
X129349Y29695D01*
X129349Y30263D01*
X129734Y30743D01*
X130315Y31131D01*
X130880Y31131D01*
X131361Y30650D01*
X131654Y30160D01*
X131853Y29466D01*
X132051Y28773D01*
X132051Y28083D01*
X131952Y27390D01*
X131926Y27300D01*
X131884Y27153D01*
X131870Y27103D01*
X131828Y26956D01*
X131785Y26808D01*
X131771Y26759D01*
X131754Y26700D01*
X131461Y26211D01*
X130967Y25717D01*
X130477Y25325D01*
X129790Y25128D01*
X129101Y25030D01*
X128514Y25128D01*
X127826Y25423D01*
X127335Y25815D01*
X126942Y26307D01*
X126646Y26898D01*
X126448Y27592D01*
X126148Y28891D01*
X126136Y28901D01*
X126138Y28911D01*
X125738Y29411D01*
X125713Y29417D01*
X125707Y29429D01*
X125007Y29529D01*
X124979Y29513D01*
X124965Y29515D01*
X124565Y29115D01*
X124563Y29097D01*
X124553Y29094D01*
X124533Y29024D01*
X124519Y28975D01*
X124477Y28827D01*
X124434Y28679D01*
X124420Y28630D01*
X124378Y28482D01*
X124353Y28394D01*
X124356Y28384D01*
X124355Y28384D01*
X124358Y28381D01*
X124360Y28376D01*
X124353Y28366D01*
X124553Y27666D01*
X124564Y27658D01*
X124562Y27649D01*
X124962Y27149D01*
X124962Y27148D01*
X125454Y26559D01*
X125549Y25988D01*
X125262Y25414D01*
X124685Y25029D01*
X124215Y25029D01*
G37*
%LPD*%
%LPC*%
G36*
X124121Y62026D02*
X124121Y62026D01*
X123730Y62319D01*
X123237Y62714D01*
X122843Y63305D01*
X122546Y63898D01*
X122349Y64587D01*
X122349Y65877D01*
X122448Y66565D01*
X122743Y67155D01*
X123138Y67749D01*
X123531Y68142D01*
X124121Y68535D01*
X124807Y68731D01*
X125497Y68731D01*
X126189Y68632D01*
X126778Y68435D01*
X127362Y68046D01*
X127654Y67461D01*
X127853Y66865D01*
X128053Y66166D01*
X128054Y66165D01*
X128053Y66164D01*
X128253Y65565D01*
X128453Y64866D01*
X128464Y64858D01*
X128462Y64849D01*
X128862Y64349D01*
X128892Y64342D01*
X128900Y64331D01*
X129600Y64331D01*
X129630Y64353D01*
X129642Y64355D01*
X129942Y64855D01*
X129940Y64873D01*
X129949Y64880D01*
X129949Y65580D01*
X129940Y65593D01*
X129944Y65602D01*
X129349Y66792D01*
X129349Y67360D01*
X129828Y67838D01*
X130505Y68129D01*
X130973Y68035D01*
X131457Y67454D01*
X131654Y66962D01*
X131655Y66961D01*
X131952Y66266D01*
X132051Y65676D01*
X132051Y64883D01*
X131952Y64195D01*
X131657Y63603D01*
X131361Y63111D01*
X130871Y62621D01*
X130278Y62324D01*
X130252Y62271D01*
X130257Y62268D01*
X130254Y62263D01*
X130268Y62225D01*
X129692Y62129D01*
X129003Y62030D01*
X128315Y62227D01*
X127727Y62423D01*
X127237Y62913D01*
X126844Y63404D01*
X126647Y63996D01*
X126644Y63997D01*
X126645Y63999D01*
X126348Y64694D01*
X126249Y65288D01*
X126245Y65291D01*
X126247Y65294D01*
X126047Y65994D01*
X126036Y66002D01*
X126038Y66011D01*
X125638Y66511D01*
X125602Y66520D01*
X125593Y66529D01*
X124893Y66429D01*
X124878Y66413D01*
X124865Y66415D01*
X124465Y66015D01*
X124462Y65992D01*
X124451Y65986D01*
X124351Y65186D01*
X124361Y65169D01*
X124356Y65158D01*
X124656Y64558D01*
X124660Y64556D01*
X124659Y64553D01*
X125059Y63953D01*
X125063Y63951D01*
X125062Y63948D01*
X125551Y63362D01*
X125551Y62895D01*
X125165Y62316D01*
X124590Y61932D01*
X124121Y62026D01*
G37*
%LPD*%
%LPC*%
G36*
X98620Y57127D02*
X98620Y57127D01*
X98235Y57416D01*
X97838Y57911D01*
X97838Y57912D01*
X97342Y58507D01*
X97047Y59095D01*
X96949Y59684D01*
X96949Y61072D01*
X97146Y61662D01*
X97444Y62358D01*
X97739Y62850D01*
X98229Y63339D01*
X98815Y63632D01*
X99507Y63731D01*
X100197Y63830D01*
X100885Y63633D01*
X101473Y63437D01*
X101961Y62950D01*
X102257Y62457D01*
X102554Y61862D01*
X102752Y61170D01*
X102851Y60473D01*
X102856Y60468D01*
X102853Y60464D01*
X103053Y59864D01*
X103067Y59855D01*
X103065Y59845D01*
X103565Y59345D01*
X103598Y59341D01*
X103608Y59331D01*
X104208Y59431D01*
X104227Y59452D01*
X104241Y59453D01*
X104641Y60053D01*
X104640Y60069D01*
X104646Y60074D01*
X104642Y60080D01*
X104649Y60087D01*
X104549Y60787D01*
X104536Y60800D01*
X104538Y60811D01*
X104144Y61304D01*
X103951Y61884D01*
X104046Y62456D01*
X104529Y62939D01*
X105102Y63226D01*
X105570Y63039D01*
X106060Y62451D01*
X106354Y61960D01*
X106552Y61270D01*
X106651Y60577D01*
X106651Y59887D01*
X106642Y59855D01*
X106599Y59707D01*
X106585Y59658D01*
X106543Y59510D01*
X106501Y59362D01*
X106487Y59313D01*
X106453Y59195D01*
X106256Y58604D01*
X105863Y58113D01*
X105370Y57619D01*
X104875Y57322D01*
X104868Y57305D01*
X104853Y57294D01*
X104860Y57285D01*
X104856Y57276D01*
X104845Y57301D01*
X104792Y57329D01*
X104789Y57323D01*
X104784Y57327D01*
X104192Y57129D01*
X103504Y57129D01*
X102914Y57228D01*
X102228Y57522D01*
X101739Y58011D01*
X101443Y58503D01*
X101146Y59098D01*
X100948Y59790D01*
X100849Y60487D01*
X100844Y60492D01*
X100847Y60496D01*
X100647Y61096D01*
X100630Y61107D01*
X100631Y61118D01*
X100131Y61518D01*
X100102Y61519D01*
X100092Y61529D01*
X99492Y61429D01*
X99477Y61413D01*
X99465Y61415D01*
X99065Y61015D01*
X99063Y60995D01*
X99052Y60987D01*
X99051Y60986D01*
X98951Y60186D01*
X98961Y60169D01*
X98956Y60158D01*
X99256Y59558D01*
X99264Y59554D01*
X99262Y59548D01*
X99761Y58950D01*
X100151Y58365D01*
X100151Y57898D01*
X99667Y57318D01*
X99190Y57032D01*
X98620Y57127D01*
G37*
%LPD*%
%LPC*%
G36*
X98033Y25617D02*
X98033Y25617D01*
X97541Y26109D01*
X97246Y26698D01*
X97048Y27391D01*
X96949Y27984D01*
X96949Y28677D01*
X97048Y29369D01*
X97246Y29961D01*
X97541Y30551D01*
X98031Y31042D01*
X98622Y31435D01*
X99212Y31632D01*
X99804Y31731D01*
X100592Y31731D01*
X101178Y31535D01*
X101766Y31143D01*
X102158Y30653D01*
X102454Y30061D01*
X102652Y29467D01*
X102952Y28070D01*
X102961Y28062D01*
X102958Y28055D01*
X103258Y27555D01*
X103280Y27546D01*
X103284Y27533D01*
X103884Y27333D01*
X103893Y27336D01*
X103909Y27336D01*
X103916Y27342D01*
X103925Y27338D01*
X104425Y27638D01*
X104433Y27656D01*
X104445Y27666D01*
X104447Y27666D01*
X104448Y27668D01*
X104462Y27717D01*
X104504Y27865D01*
X104546Y28012D01*
X104560Y28062D01*
X104602Y28209D01*
X104603Y28209D01*
X104602Y28209D01*
X104645Y28357D01*
X104647Y28366D01*
X104640Y28386D01*
X104647Y28396D01*
X104447Y28996D01*
X104439Y29001D01*
X104441Y29007D01*
X104045Y29602D01*
X103855Y30170D01*
X104234Y30644D01*
X104916Y31131D01*
X105380Y31131D01*
X105863Y30648D01*
X106157Y30255D01*
X106452Y29567D01*
X106551Y28873D01*
X106650Y28180D01*
X106552Y27490D01*
X106512Y27350D01*
X106469Y27202D01*
X106455Y27153D01*
X106413Y27005D01*
X106371Y26857D01*
X106357Y26808D01*
X106354Y26800D01*
X106058Y26305D01*
X106064Y26246D01*
X106071Y26247D01*
X106071Y26240D01*
X106099Y26219D01*
X106069Y26218D01*
X106069Y26214D01*
X106065Y26215D01*
X105669Y25818D01*
X105075Y25423D01*
X104485Y25127D01*
X103899Y25030D01*
X103210Y25128D01*
X102523Y25325D01*
X102033Y25717D01*
X101543Y26207D01*
X101347Y26796D01*
X101344Y26797D01*
X101345Y26799D01*
X101046Y27498D01*
X100848Y28091D01*
X100749Y28787D01*
X100741Y28795D01*
X100744Y28802D01*
X100444Y29402D01*
X100413Y29417D01*
X100407Y29429D01*
X99707Y29529D01*
X99683Y29516D01*
X99670Y29519D01*
X99270Y29219D01*
X99266Y29202D01*
X99255Y29199D01*
X98955Y28499D01*
X98958Y28485D01*
X98954Y28482D01*
X98957Y28478D01*
X98951Y28472D01*
X99051Y27872D01*
X99062Y27862D01*
X99059Y27853D01*
X99459Y27253D01*
X99466Y27250D01*
X99465Y27245D01*
X100055Y26656D01*
X100149Y26182D01*
X100145Y26168D01*
X100103Y26020D01*
X100061Y25872D01*
X100047Y25823D01*
X100005Y25675D01*
X99962Y25527D01*
X99957Y25508D01*
X99378Y25026D01*
X98912Y24933D01*
X98033Y25617D01*
G37*
%LPD*%
%LPC*%
G36*
X159760Y200434D02*
X159760Y200434D01*
X159067Y200608D01*
X158563Y201028D01*
X158219Y201457D01*
X157943Y202102D01*
X157662Y202852D01*
X157570Y203584D01*
X157570Y205236D01*
X157662Y205968D01*
X157943Y206718D01*
X158218Y207359D01*
X158647Y207874D01*
X159172Y208224D01*
X159788Y208488D01*
X160587Y208577D01*
X161298Y208488D01*
X162000Y208225D01*
X162422Y207887D01*
X162862Y207359D01*
X163137Y206718D01*
X163418Y205968D01*
X163510Y205236D01*
X163510Y203607D01*
X163128Y202082D01*
X162869Y201477D01*
X162433Y201041D01*
X161908Y200604D01*
X161316Y200434D01*
X160493Y200343D01*
X159760Y200434D01*
G37*
%LPD*%
%LPC*%
G36*
X158984Y154099D02*
X158984Y154099D01*
X158511Y154383D01*
X158319Y154958D01*
X158319Y162446D01*
X158416Y163023D01*
X158890Y163403D01*
X159570Y163500D01*
X160240Y163405D01*
X160521Y162936D01*
X160521Y158950D01*
X160557Y158903D01*
X160560Y158905D01*
X160562Y158901D01*
X161162Y158801D01*
X161167Y158804D01*
X161170Y158801D01*
X162570Y158801D01*
X162617Y158837D01*
X162609Y158848D01*
X162619Y158858D01*
X162519Y159458D01*
X162517Y159460D01*
X162518Y159461D01*
X161918Y162059D01*
X161821Y162740D01*
X162104Y163211D01*
X162784Y163502D01*
X163456Y163598D01*
X163927Y163221D01*
X164122Y162538D01*
X165121Y158644D01*
X165121Y157275D01*
X164748Y156995D01*
X164063Y156799D01*
X160670Y156799D01*
X160623Y156763D01*
X160624Y156761D01*
X160622Y156760D01*
X160522Y156260D01*
X160525Y156253D01*
X160521Y156250D01*
X160521Y154862D01*
X160235Y154290D01*
X159662Y154099D01*
X158984Y154099D01*
G37*
%LPD*%
%LPC*%
G36*
X176403Y24929D02*
X176403Y24929D01*
X175710Y25028D01*
X175015Y25227D01*
X174422Y25425D01*
X173829Y25820D01*
X173333Y26217D01*
X172839Y26711D01*
X172542Y27205D01*
X172541Y27206D01*
X172541Y27207D01*
X172145Y27801D01*
X171948Y28491D01*
X171849Y29088D01*
X171749Y29783D01*
X171749Y30373D01*
X171750Y30376D01*
X171764Y30426D01*
X171806Y30573D01*
X171807Y30573D01*
X171806Y30573D01*
X171849Y30721D01*
X171863Y30770D01*
X171905Y30918D01*
X171947Y31064D01*
X172245Y31859D01*
X172540Y32352D01*
X172927Y32835D01*
X173494Y32929D01*
X174172Y32638D01*
X174651Y32160D01*
X174651Y31693D01*
X174057Y30604D01*
X174057Y30601D01*
X174056Y30600D01*
X174058Y30598D01*
X174059Y30591D01*
X174051Y30587D01*
X173951Y29887D01*
X173957Y29877D01*
X173951Y29872D01*
X174051Y29272D01*
X174055Y29269D01*
X174053Y29266D01*
X174253Y28566D01*
X174262Y28560D01*
X174259Y28553D01*
X174659Y27953D01*
X174666Y27950D01*
X174665Y27945D01*
X175065Y27545D01*
X175077Y27544D01*
X175078Y27536D01*
X175678Y27236D01*
X175688Y27238D01*
X175689Y27238D01*
X175693Y27231D01*
X176393Y27131D01*
X176402Y27136D01*
X176407Y27131D01*
X177807Y27331D01*
X177820Y27344D01*
X177831Y27342D01*
X178331Y27742D01*
X178333Y27752D01*
X178341Y27753D01*
X178741Y28353D01*
X178741Y28357D01*
X178744Y28358D01*
X179044Y28958D01*
X179043Y28963D01*
X179047Y28964D01*
X179247Y29564D01*
X179242Y29579D01*
X179249Y29586D01*
X179149Y30386D01*
X179144Y30391D01*
X179147Y30396D01*
X178947Y30996D01*
X178939Y31001D01*
X178941Y31007D01*
X178546Y31599D01*
X178453Y32067D01*
X178833Y32542D01*
X179513Y32931D01*
X180083Y32931D01*
X180563Y32546D01*
X180955Y31958D01*
X181153Y31365D01*
X181352Y30670D01*
X181450Y29981D01*
X181351Y29388D01*
X181352Y29387D01*
X181351Y29387D01*
X181252Y28691D01*
X181053Y28096D01*
X181054Y28094D01*
X181053Y28094D01*
X181023Y27990D01*
X180981Y27842D01*
X180967Y27793D01*
X180925Y27645D01*
X180882Y27497D01*
X180868Y27448D01*
X180855Y27401D01*
X180460Y26809D01*
X180065Y26315D01*
X179571Y25920D01*
X178975Y25523D01*
X178381Y25226D01*
X177789Y25028D01*
X177097Y24929D01*
X176403Y24929D01*
G37*
%LPD*%
%LPC*%
G36*
X81638Y154099D02*
X81638Y154099D01*
X81069Y154289D01*
X80879Y154858D01*
X80879Y162250D01*
X80843Y162297D01*
X80838Y162293D01*
X80835Y162299D01*
X80804Y162302D01*
X80828Y162301D01*
X80877Y162334D01*
X80871Y162343D01*
X80879Y162350D01*
X80879Y162930D01*
X81354Y163404D01*
X81931Y163500D01*
X82607Y163404D01*
X82984Y163026D01*
X83081Y162446D01*
X83081Y159050D01*
X83110Y159012D01*
X83112Y159004D01*
X83612Y158804D01*
X83625Y158808D01*
X83630Y158801D01*
X84930Y158801D01*
X84968Y158830D01*
X84976Y158832D01*
X85176Y159332D01*
X85170Y159352D01*
X85178Y159362D01*
X84382Y162646D01*
X84569Y163114D01*
X85148Y163404D01*
X85825Y163597D01*
X86390Y163315D01*
X86583Y162736D01*
X87582Y158740D01*
X87681Y158146D01*
X87681Y157366D01*
X87401Y156993D01*
X86723Y156799D01*
X83330Y156799D01*
X83297Y156774D01*
X83286Y156772D01*
X83086Y156372D01*
X83089Y156356D01*
X83081Y156350D01*
X83081Y154958D01*
X82890Y154385D01*
X82318Y154099D01*
X81638Y154099D01*
G37*
%LPD*%
%LPC*%
G36*
X228998Y65069D02*
X228998Y65069D01*
X228407Y65266D01*
X227607Y65566D01*
X227118Y65762D01*
X226632Y66248D01*
X226436Y66738D01*
X226401Y66759D01*
X226395Y66769D01*
X226364Y66772D01*
X226388Y66771D01*
X226418Y66792D01*
X226431Y66793D01*
X226829Y67390D01*
X227313Y67971D01*
X227677Y67971D01*
X228766Y67377D01*
X228779Y67379D01*
X228783Y67371D01*
X229483Y67271D01*
X229490Y67275D01*
X229493Y67275D01*
X229497Y67271D01*
X230197Y67371D01*
X230202Y67376D01*
X230206Y67373D01*
X230806Y67573D01*
X230809Y67578D01*
X230812Y67576D01*
X231412Y67876D01*
X231417Y67886D01*
X231425Y67885D01*
X231925Y68385D01*
X231927Y68401D01*
X231937Y68404D01*
X232137Y69004D01*
X232135Y69011D01*
X232139Y69013D01*
X232239Y69713D01*
X232236Y69718D01*
X232239Y69720D01*
X232239Y70420D01*
X232232Y70429D01*
X232237Y70436D01*
X232037Y71036D01*
X232029Y71041D01*
X232031Y71047D01*
X231631Y71647D01*
X231621Y71651D01*
X231621Y71658D01*
X231121Y72058D01*
X231113Y72059D01*
X231112Y72064D01*
X230512Y72364D01*
X230502Y72362D01*
X230498Y72369D01*
X229898Y72469D01*
X229893Y72466D01*
X229890Y72469D01*
X229090Y72469D01*
X229081Y72462D01*
X229074Y72467D01*
X228474Y72267D01*
X228469Y72259D01*
X228463Y72261D01*
X227871Y71866D01*
X227403Y71773D01*
X226926Y72154D01*
X226439Y72836D01*
X226439Y73400D01*
X226923Y73883D01*
X227414Y74276D01*
X228004Y74473D01*
X228800Y74672D01*
X229391Y74770D01*
X230082Y74671D01*
X230679Y74572D01*
X231375Y74373D01*
X231968Y74175D01*
X232561Y73780D01*
X233057Y73383D01*
X233549Y72891D01*
X234144Y71701D01*
X234342Y71109D01*
X234441Y70417D01*
X234441Y69028D01*
X234243Y68436D01*
X234244Y68434D01*
X234243Y68434D01*
X234225Y68372D01*
X234183Y68224D01*
X234169Y68175D01*
X234127Y68027D01*
X234084Y67879D01*
X234070Y67830D01*
X234045Y67741D01*
X233650Y67149D01*
X233255Y66655D01*
X232759Y66258D01*
X232264Y65863D01*
X231571Y65565D01*
X231569Y65563D01*
X231568Y65564D01*
X230975Y65267D01*
X230382Y65169D01*
X229687Y65069D01*
X228998Y65069D01*
G37*
%LPD*%
%LPC*%
G36*
X126508Y70929D02*
X126508Y70929D01*
X126455Y70901D01*
X126460Y70893D01*
X126454Y70888D01*
X126451Y70887D01*
X126448Y70862D01*
X126449Y70876D01*
X126418Y70926D01*
X126411Y70922D01*
X126408Y70929D01*
X125815Y71027D01*
X125222Y71324D01*
X125220Y71324D01*
X125219Y71325D01*
X124526Y71623D01*
X124033Y72017D01*
X123537Y72513D01*
X123142Y73007D01*
X122844Y73602D01*
X122548Y74195D01*
X122449Y74887D01*
X122448Y74888D01*
X122449Y74888D01*
X122349Y75484D01*
X122349Y76176D01*
X122448Y76770D01*
X122646Y77561D01*
X122942Y78054D01*
X123334Y78642D01*
X123900Y78925D01*
X124473Y78639D01*
X125061Y78149D01*
X125246Y77778D01*
X124956Y77103D01*
X124759Y76807D01*
X124759Y76800D01*
X124755Y76797D01*
X124756Y76795D01*
X124753Y76794D01*
X124711Y76649D01*
X124697Y76600D01*
X124655Y76452D01*
X124613Y76304D01*
X124599Y76255D01*
X124557Y76107D01*
X124553Y76094D01*
X124556Y76084D01*
X124551Y76080D01*
X124551Y75380D01*
X124554Y75375D01*
X124551Y75372D01*
X124651Y74772D01*
X124662Y74762D01*
X124659Y74753D01*
X125059Y74153D01*
X125062Y74152D01*
X125062Y74149D01*
X125462Y73649D01*
X125472Y73647D01*
X125473Y73639D01*
X126073Y73239D01*
X126087Y73240D01*
X126092Y73231D01*
X126692Y73131D01*
X126697Y73134D01*
X126700Y73131D01*
X127500Y73131D01*
X127505Y73134D01*
X127508Y73131D01*
X128108Y73231D01*
X128115Y73239D01*
X128116Y73239D01*
X128122Y73236D01*
X128722Y73536D01*
X128727Y73546D01*
X128735Y73545D01*
X129235Y74045D01*
X129236Y74057D01*
X129244Y74058D01*
X129544Y74658D01*
X129543Y74665D01*
X129547Y74666D01*
X129585Y74800D01*
X129586Y74800D01*
X129585Y74800D01*
X129628Y74948D01*
X129642Y74997D01*
X129684Y75145D01*
X129726Y75292D01*
X129740Y75342D01*
X129747Y75366D01*
X129744Y75376D01*
X129749Y75380D01*
X129749Y75980D01*
X129743Y75988D01*
X129747Y75994D01*
X129547Y76694D01*
X129542Y76698D01*
X129544Y76702D01*
X129246Y77299D01*
X129053Y77876D01*
X129240Y78249D01*
X129922Y78834D01*
X130490Y78928D01*
X130965Y78643D01*
X131357Y78055D01*
X131654Y77462D01*
X131852Y76770D01*
X131951Y76077D01*
X131951Y75483D01*
X131851Y74788D01*
X131752Y74194D01*
X131455Y73501D01*
X131159Y72909D01*
X130665Y72415D01*
X130665Y72411D01*
X130662Y72411D01*
X130265Y71915D01*
X129774Y71523D01*
X129082Y71226D01*
X128489Y71028D01*
X127793Y70929D01*
X127101Y70830D01*
X126508Y70929D01*
G37*
%LPD*%
%LPC*%
G36*
X119403Y119809D02*
X119403Y119809D01*
X118714Y119908D01*
X118022Y120204D01*
X117528Y120500D01*
X117042Y120889D01*
X116853Y121458D01*
X117142Y122132D01*
X117624Y122615D01*
X118090Y122708D01*
X118673Y122319D01*
X118680Y122320D01*
X118682Y122314D01*
X119182Y122114D01*
X119189Y122116D01*
X119192Y122111D01*
X119792Y122011D01*
X119797Y122014D01*
X119800Y122011D01*
X120500Y122011D01*
X120509Y122018D01*
X120516Y122013D01*
X121116Y122213D01*
X121121Y122221D01*
X121127Y122219D01*
X121727Y122619D01*
X121730Y122626D01*
X121735Y122625D01*
X122235Y123125D01*
X122236Y123137D01*
X122244Y123138D01*
X122544Y123738D01*
X122542Y123749D01*
X122549Y123752D01*
X122649Y124352D01*
X122646Y124357D01*
X122649Y124360D01*
X122649Y125160D01*
X122642Y125169D01*
X122647Y125176D01*
X122447Y125776D01*
X122439Y125781D01*
X122441Y125787D01*
X122041Y126387D01*
X122031Y126391D01*
X122031Y126398D01*
X121531Y126798D01*
X121521Y126799D01*
X121519Y126805D01*
X120819Y127105D01*
X120811Y127103D01*
X120808Y127109D01*
X120208Y127209D01*
X120203Y127206D01*
X120200Y127209D01*
X119500Y127209D01*
X119491Y127202D01*
X119484Y127207D01*
X118884Y127007D01*
X118880Y127001D01*
X118876Y127003D01*
X118182Y126606D01*
X117809Y126513D01*
X117236Y126896D01*
X116849Y127475D01*
X116849Y128043D01*
X117234Y128523D01*
X117822Y128915D01*
X118415Y129113D01*
X119110Y129312D01*
X119803Y129411D01*
X120397Y129411D01*
X121089Y129312D01*
X121682Y129114D01*
X122379Y128815D01*
X122971Y128519D01*
X123862Y127629D01*
X124257Y127035D01*
X124554Y126442D01*
X124752Y125749D01*
X124851Y125156D01*
X124851Y124463D01*
X124751Y123767D01*
X124652Y123075D01*
X124356Y122482D01*
X124058Y121887D01*
X123663Y121393D01*
X123169Y120898D01*
X122575Y120503D01*
X121981Y120206D01*
X121385Y120007D01*
X120693Y119809D01*
X119403Y119809D01*
G37*
%LPD*%
%LPC*%
G36*
X126603Y33929D02*
X126603Y33929D01*
X125911Y34028D01*
X125319Y34226D01*
X124725Y34523D01*
X124131Y34918D01*
X123637Y35413D01*
X123242Y35907D01*
X122646Y37099D01*
X122448Y37691D01*
X122349Y38383D01*
X122349Y39076D01*
X122448Y39670D01*
X122647Y40465D01*
X122844Y40957D01*
X123237Y41546D01*
X123710Y41925D01*
X124280Y41735D01*
X124964Y41344D01*
X125246Y40874D01*
X125056Y40303D01*
X124761Y39910D01*
X124761Y39897D01*
X124753Y39894D01*
X124743Y39859D01*
X124729Y39810D01*
X124687Y39662D01*
X124644Y39514D01*
X124630Y39465D01*
X124588Y39317D01*
X124553Y39194D01*
X124556Y39184D01*
X124551Y39180D01*
X124551Y38580D01*
X124554Y38576D01*
X124551Y38573D01*
X124651Y37873D01*
X124659Y37865D01*
X124656Y37858D01*
X124956Y37258D01*
X124963Y37255D01*
X124962Y37249D01*
X125362Y36749D01*
X125372Y36747D01*
X125373Y36739D01*
X125973Y36339D01*
X125982Y36340D01*
X125984Y36333D01*
X126584Y36133D01*
X126595Y36137D01*
X126600Y36131D01*
X127300Y36131D01*
X127304Y36134D01*
X127307Y36131D01*
X128007Y36231D01*
X128015Y36239D01*
X128022Y36236D01*
X128622Y36536D01*
X128625Y36543D01*
X128631Y36542D01*
X129131Y36942D01*
X129133Y36952D01*
X129141Y36953D01*
X129541Y37553D01*
X129540Y37562D01*
X129542Y37563D01*
X129547Y37564D01*
X129747Y38164D01*
X129743Y38175D01*
X129749Y38180D01*
X129749Y38880D01*
X129746Y38884D01*
X129749Y38887D01*
X129649Y39587D01*
X129641Y39595D01*
X129644Y39602D01*
X129052Y40787D01*
X129145Y41253D01*
X129724Y41736D01*
X130316Y41933D01*
X130338Y41966D01*
X130349Y41972D01*
X130351Y41988D01*
X130351Y41986D01*
X130381Y41935D01*
X130382Y41934D01*
X130868Y41740D01*
X131258Y41154D01*
X131556Y40658D01*
X131852Y39967D01*
X131951Y39277D01*
X131951Y38584D01*
X131851Y37988D01*
X131852Y37987D01*
X131851Y37987D01*
X131752Y37291D01*
X131555Y36702D01*
X131159Y36107D01*
X130760Y35509D01*
X130365Y35015D01*
X129873Y34622D01*
X129282Y34326D01*
X128586Y34127D01*
X128585Y34126D01*
X128584Y34127D01*
X127992Y33929D01*
X126603Y33929D01*
G37*
%LPD*%
%LPC*%
G36*
X79730Y34119D02*
X79730Y34119D01*
X79723Y34117D01*
X79722Y34124D01*
X79122Y34424D01*
X72422Y37724D01*
X71837Y38017D01*
X71549Y38592D01*
X71549Y39268D01*
X71837Y39843D01*
X72422Y40136D01*
X79120Y43435D01*
X79805Y43729D01*
X80276Y43635D01*
X80758Y43152D01*
X80951Y42671D01*
X80951Y42100D01*
X80571Y41721D01*
X79979Y41424D01*
X74979Y39125D01*
X74977Y39120D01*
X74973Y39121D01*
X74673Y38921D01*
X74670Y38914D01*
X74664Y38913D01*
X74666Y38901D01*
X74653Y38865D01*
X74674Y38858D01*
X74678Y38836D01*
X75278Y38536D01*
X75279Y38536D01*
X75280Y38535D01*
X79880Y36435D01*
X79884Y36436D01*
X79884Y36433D01*
X80473Y36237D01*
X80857Y35853D01*
X81047Y35282D01*
X80758Y34608D01*
X80280Y34129D01*
X79800Y34129D01*
X79765Y34103D01*
X79755Y34100D01*
X79743Y34073D01*
X79730Y34119D01*
G37*
%LPD*%
%LPC*%
G36*
X206606Y75869D02*
X206606Y75869D01*
X206239Y76145D01*
X206239Y76804D01*
X206515Y77171D01*
X234841Y77171D01*
X234841Y76056D01*
X234282Y75869D01*
X206606Y75869D01*
G37*
%LPD*%
%LPC*%
G36*
X182549Y25736D02*
X182549Y25736D01*
X182549Y52864D01*
X182825Y53231D01*
X183484Y53231D01*
X183851Y52955D01*
X183851Y25038D01*
X182549Y25736D01*
G37*
%LPD*%
%LPC*%
G36*
X75842Y154099D02*
X75842Y154099D01*
X75274Y154383D01*
X75179Y154958D01*
X75178Y154959D01*
X75178Y154960D01*
X75079Y155458D01*
X74979Y156058D01*
X74971Y156065D01*
X74974Y156072D01*
X74675Y156671D01*
X74375Y157369D01*
X74371Y157372D01*
X74372Y157376D01*
X73572Y158676D01*
X73571Y158676D01*
X73572Y158676D01*
X72873Y159774D01*
X72574Y160372D01*
X72275Y160970D01*
X71977Y161764D01*
X71880Y162251D01*
X71977Y162933D01*
X72260Y163404D01*
X73033Y163501D01*
X77427Y163501D01*
X78113Y163403D01*
X78585Y163120D01*
X78681Y162447D01*
X78681Y161770D01*
X78307Y161396D01*
X77627Y161299D01*
X74830Y161299D01*
X74787Y161267D01*
X74783Y161266D01*
X74683Y160966D01*
X74693Y160935D01*
X74689Y160923D01*
X75489Y159723D01*
X75492Y159722D01*
X75492Y159719D01*
X75888Y159223D01*
X76186Y158628D01*
X76190Y158626D01*
X76189Y158623D01*
X76585Y158028D01*
X76783Y157434D01*
X76786Y157433D01*
X76785Y157431D01*
X77084Y156733D01*
X77282Y156039D01*
X77381Y155446D01*
X77381Y154758D01*
X77193Y154194D01*
X76527Y154099D01*
X75842Y154099D01*
G37*
%LPD*%
%LPC*%
G36*
X172692Y154196D02*
X172692Y154196D01*
X172102Y154688D01*
X171103Y155587D01*
X171091Y155588D01*
X171088Y155596D01*
X170588Y155796D01*
X170573Y155792D01*
X170562Y155792D01*
X170555Y155787D01*
X170547Y155784D01*
X170536Y155786D01*
X169040Y154390D01*
X168566Y154105D01*
X168096Y154293D01*
X167512Y154779D01*
X167324Y155344D01*
X167610Y155820D01*
X169006Y157316D01*
X169007Y157327D01*
X169014Y157328D01*
X169114Y157528D01*
X169105Y157577D01*
X169106Y157584D01*
X167709Y159081D01*
X167322Y159660D01*
X167415Y160126D01*
X168001Y160711D01*
X168474Y160995D01*
X168944Y160807D01*
X169536Y160314D01*
X170433Y159317D01*
X170462Y159312D01*
X170470Y159301D01*
X170970Y159301D01*
X170991Y159317D01*
X171005Y159315D01*
X172498Y160808D01*
X172968Y160996D01*
X173539Y160711D01*
X174024Y160128D01*
X174118Y159657D01*
X173830Y159080D01*
X172336Y157686D01*
X172326Y157627D01*
X172333Y157626D01*
X172332Y157619D01*
X172732Y157119D01*
X172734Y157119D01*
X172733Y157117D01*
X173632Y156118D01*
X174121Y155532D01*
X174121Y155065D01*
X173735Y154486D01*
X173160Y154102D01*
X172692Y154196D01*
G37*
%LPD*%
%LPC*%
G36*
X122914Y81329D02*
X122914Y81329D01*
X122445Y81610D01*
X122349Y82283D01*
X122349Y87076D01*
X122445Y87650D01*
X122914Y87931D01*
X123586Y87931D01*
X124055Y87650D01*
X124151Y86977D01*
X124151Y83580D01*
X124187Y83533D01*
X124194Y83538D01*
X124200Y83531D01*
X130796Y83531D01*
X131370Y83435D01*
X131652Y82964D01*
X131750Y82085D01*
X131561Y81517D01*
X131091Y81329D01*
X122914Y81329D01*
G37*
%LPD*%
%LPC*%
G36*
X217454Y131239D02*
X217454Y131239D01*
X216881Y131335D01*
X216599Y131804D01*
X216599Y132570D01*
X216973Y132944D01*
X217653Y133041D01*
X220350Y133041D01*
X220369Y133055D01*
X220382Y133052D01*
X220982Y133552D01*
X220988Y133581D01*
X220999Y133589D01*
X221099Y139685D01*
X221196Y140263D01*
X221667Y140641D01*
X222541Y140641D01*
X223011Y140453D01*
X223201Y139882D01*
X223201Y131706D01*
X222923Y131336D01*
X222247Y131239D01*
X217454Y131239D01*
G37*
%LPD*%
%LPC*%
G36*
X148136Y55719D02*
X148136Y55719D01*
X147749Y56492D01*
X147749Y57060D01*
X148128Y57438D01*
X148618Y57634D01*
X148620Y57636D01*
X148621Y57636D01*
X156620Y61435D01*
X157315Y61733D01*
X157784Y61827D01*
X158258Y61352D01*
X158547Y60678D01*
X158359Y60112D01*
X157776Y59723D01*
X149279Y55624D01*
X149255Y55579D01*
X149244Y55601D01*
X149193Y55628D01*
X149192Y55629D01*
X148605Y55531D01*
X148136Y55719D01*
G37*
%LPD*%
%LPC*%
G36*
X97524Y48429D02*
X97524Y48429D01*
X97145Y48903D01*
X96952Y49579D01*
X97142Y50150D01*
X97525Y50438D01*
X106120Y54435D01*
X106798Y54726D01*
X107167Y54541D01*
X107651Y53864D01*
X107651Y53196D01*
X107369Y52820D01*
X106681Y52525D01*
X106680Y52524D01*
X106679Y52524D01*
X98780Y48725D01*
X98090Y48429D01*
X97524Y48429D01*
G37*
%LPD*%
%LPC*%
G36*
X122643Y53806D02*
X122643Y53806D01*
X122351Y54486D01*
X122444Y55047D01*
X123422Y55536D01*
X131420Y59335D01*
X132104Y59628D01*
X132472Y59536D01*
X132956Y58956D01*
X133147Y58287D01*
X132866Y57819D01*
X132181Y57525D01*
X132180Y57523D01*
X132178Y57524D01*
X124282Y53626D01*
X123589Y53428D01*
X123020Y53333D01*
X122643Y53806D01*
G37*
%LPD*%
%LPC*%
G36*
X199603Y25129D02*
X199603Y25129D01*
X198923Y25226D01*
X198647Y25503D01*
X198550Y26379D01*
X198645Y27050D01*
X199114Y27331D01*
X207291Y27331D01*
X207759Y27143D01*
X207950Y26476D01*
X207851Y25686D01*
X207876Y25643D01*
X207877Y25636D01*
X207906Y25621D01*
X207863Y25612D01*
X207864Y25610D01*
X207861Y25610D01*
X207572Y25225D01*
X206996Y25129D01*
X199603Y25129D01*
G37*
%LPD*%
%LPC*%
G36*
X105241Y44375D02*
X105241Y44375D01*
X105232Y44417D01*
X105212Y44413D01*
X105200Y44429D01*
X97705Y44429D01*
X97231Y44524D01*
X96949Y44994D01*
X96949Y45872D01*
X97137Y46436D01*
X97708Y46531D01*
X98403Y46631D01*
X105196Y46631D01*
X105783Y46533D01*
X106254Y46250D01*
X106350Y45480D01*
X106254Y44707D01*
X105884Y44429D01*
X105300Y44429D01*
X105266Y44403D01*
X105256Y44401D01*
X105242Y44374D01*
X105241Y44375D01*
G37*
%LPD*%
%LPC*%
G36*
X136716Y119809D02*
X136716Y119809D01*
X136342Y120090D01*
X136147Y120676D01*
X136116Y120697D01*
X136111Y120708D01*
X136093Y120712D01*
X136096Y120714D01*
X136100Y120714D01*
X136109Y120721D01*
X136145Y120739D01*
X136142Y120745D01*
X136147Y120749D01*
X136143Y120755D01*
X136149Y120760D01*
X136149Y128157D01*
X136245Y128830D01*
X136716Y129112D01*
X137496Y129210D01*
X138163Y129019D01*
X138351Y128551D01*
X138351Y120469D01*
X138163Y120000D01*
X137592Y119809D01*
X136716Y119809D01*
G37*
%LPD*%
G36*
X153109Y46438D02*
X153109Y46438D01*
X153116Y46433D01*
X153716Y46633D01*
X153721Y46641D01*
X153727Y46639D01*
X154327Y47039D01*
X154331Y47049D01*
X154338Y47049D01*
X154738Y47549D01*
X154739Y47557D01*
X154744Y47558D01*
X155044Y48158D01*
X155042Y48169D01*
X155049Y48173D01*
X155149Y48873D01*
X155145Y48880D01*
X155144Y48881D01*
X155143Y48883D01*
X155149Y48888D01*
X155049Y49488D01*
X155041Y49495D01*
X155044Y49502D01*
X154744Y50102D01*
X154737Y50105D01*
X154738Y50111D01*
X154338Y50611D01*
X154328Y50613D01*
X154327Y50621D01*
X153727Y51021D01*
X153718Y51020D01*
X153716Y51027D01*
X153116Y51227D01*
X153109Y51225D01*
X153107Y51229D01*
X152407Y51329D01*
X152394Y51322D01*
X152386Y51327D01*
X151686Y51127D01*
X151685Y51126D01*
X151684Y51127D01*
X151084Y50927D01*
X151075Y50913D01*
X151065Y50915D01*
X150565Y50415D01*
X150565Y50411D01*
X150562Y50411D01*
X150162Y49911D01*
X150161Y49898D01*
X150157Y49895D01*
X150153Y49894D01*
X150138Y49842D01*
X150096Y49695D01*
X150082Y49645D01*
X150040Y49498D01*
X149997Y49350D01*
X149983Y49301D01*
X149953Y49194D01*
X149956Y49184D01*
X149951Y49180D01*
X149951Y48580D01*
X149958Y48571D01*
X149953Y48564D01*
X150153Y47964D01*
X150158Y47961D01*
X150156Y47958D01*
X150456Y47358D01*
X150466Y47353D01*
X150465Y47345D01*
X150965Y46845D01*
X150975Y46844D01*
X150976Y46837D01*
X151676Y46437D01*
X151693Y46440D01*
X151700Y46431D01*
X153100Y46431D01*
X153109Y46438D01*
G37*
G36*
X128347Y172847D02*
X128347Y172847D01*
X128342Y172854D01*
X128349Y172860D01*
X128349Y177560D01*
X128320Y177598D01*
X128318Y177606D01*
X127818Y177806D01*
X127805Y177802D01*
X127800Y177809D01*
X127100Y177809D01*
X127096Y177806D01*
X127093Y177809D01*
X126393Y177709D01*
X126388Y177704D01*
X126384Y177707D01*
X125784Y177507D01*
X125775Y177493D01*
X125765Y177495D01*
X125265Y176995D01*
X125265Y176991D01*
X125262Y176991D01*
X124862Y176491D01*
X124861Y176483D01*
X124856Y176482D01*
X124556Y175882D01*
X124557Y175879D01*
X124555Y175878D01*
X124557Y175874D01*
X124559Y175866D01*
X124551Y175860D01*
X124551Y175160D01*
X124554Y175156D01*
X124551Y175153D01*
X124651Y174453D01*
X124659Y174445D01*
X124656Y174438D01*
X124956Y173838D01*
X124966Y173833D01*
X124965Y173825D01*
X125465Y173325D01*
X125469Y173325D01*
X125469Y173322D01*
X125969Y172922D01*
X125977Y172921D01*
X125978Y172916D01*
X126178Y172816D01*
X126194Y172819D01*
X126200Y172811D01*
X128300Y172811D01*
X128347Y172847D01*
G37*
G36*
X202588Y133470D02*
X202588Y133470D01*
X202596Y133472D01*
X202796Y133972D01*
X202792Y133985D01*
X202799Y133990D01*
X202799Y138090D01*
X202780Y138116D01*
X202780Y138129D01*
X202380Y138429D01*
X202358Y138429D01*
X202350Y138439D01*
X201050Y138439D01*
X201042Y138433D01*
X201036Y138437D01*
X200336Y138237D01*
X200328Y138226D01*
X200319Y138228D01*
X199819Y137828D01*
X199817Y137821D01*
X199812Y137822D01*
X199312Y137222D01*
X199312Y137208D01*
X199303Y137206D01*
X199103Y136606D01*
X199105Y136599D01*
X199101Y136597D01*
X199001Y135897D01*
X199007Y135887D01*
X199001Y135882D01*
X199101Y135282D01*
X199106Y135278D01*
X199103Y135274D01*
X199303Y134674D01*
X199314Y134667D01*
X199312Y134658D01*
X199812Y134058D01*
X199819Y134057D01*
X199819Y134052D01*
X200319Y133652D01*
X200335Y133651D01*
X200339Y133642D01*
X201239Y133442D01*
X201247Y133445D01*
X201250Y133441D01*
X202550Y133441D01*
X202588Y133470D01*
G37*
G36*
X53026Y48150D02*
X53026Y48150D01*
X53039Y48150D01*
X53339Y48550D01*
X53339Y48558D01*
X53343Y48561D01*
X53339Y48565D01*
X53339Y48572D01*
X53349Y48580D01*
X53349Y49980D01*
X53340Y49993D01*
X53344Y50002D01*
X53044Y50602D01*
X53037Y50605D01*
X53038Y50611D01*
X52638Y51111D01*
X52631Y51113D01*
X52631Y51118D01*
X52131Y51518D01*
X52123Y51519D01*
X52122Y51524D01*
X51522Y51824D01*
X51511Y51822D01*
X51510Y51825D01*
X51509Y51825D01*
X51507Y51829D01*
X50807Y51929D01*
X50798Y51924D01*
X50793Y51929D01*
X50093Y51829D01*
X50085Y51821D01*
X50078Y51824D01*
X49478Y51524D01*
X49475Y51517D01*
X49469Y51518D01*
X48969Y51118D01*
X48968Y51114D01*
X48965Y51115D01*
X48465Y50615D01*
X48463Y50599D01*
X48453Y50596D01*
X48353Y50296D01*
X48357Y50285D01*
X48351Y50280D01*
X48351Y48280D01*
X48387Y48233D01*
X48390Y48235D01*
X48392Y48231D01*
X48992Y48131D01*
X48997Y48134D01*
X49000Y48131D01*
X53000Y48131D01*
X53026Y48150D01*
G37*
G36*
X104147Y68367D02*
X104147Y68367D01*
X104142Y68374D01*
X104149Y68380D01*
X104149Y69780D01*
X104146Y69784D01*
X104149Y69787D01*
X104049Y70487D01*
X104039Y70497D01*
X104042Y70505D01*
X103742Y71005D01*
X103734Y71009D01*
X103735Y71015D01*
X103235Y71515D01*
X103228Y71516D01*
X103227Y71521D01*
X102627Y71921D01*
X102613Y71920D01*
X102608Y71929D01*
X102008Y72029D01*
X102003Y72026D01*
X102000Y72029D01*
X101300Y72029D01*
X101294Y72025D01*
X101290Y72025D01*
X101286Y72027D01*
X100586Y71827D01*
X100581Y71820D01*
X100575Y71822D01*
X100075Y71522D01*
X100071Y71514D01*
X100065Y71515D01*
X99565Y71015D01*
X99564Y71004D01*
X99563Y71004D01*
X99563Y71003D01*
X99556Y71002D01*
X99156Y70202D01*
X99159Y70186D01*
X99151Y70180D01*
X99151Y68780D01*
X99160Y68767D01*
X99156Y68758D01*
X99356Y68358D01*
X99393Y68340D01*
X99400Y68331D01*
X104100Y68331D01*
X104147Y68367D01*
G37*
G36*
X154847Y78167D02*
X154847Y78167D01*
X154846Y78169D01*
X154848Y78170D01*
X154948Y78670D01*
X154945Y78677D01*
X154949Y78680D01*
X154949Y79380D01*
X154946Y79384D01*
X154949Y79387D01*
X154849Y80087D01*
X154841Y80095D01*
X154844Y80102D01*
X154544Y80702D01*
X154537Y80705D01*
X154538Y80711D01*
X154138Y81211D01*
X154128Y81213D01*
X154127Y81221D01*
X153527Y81621D01*
X153518Y81620D01*
X153516Y81627D01*
X152916Y81827D01*
X152909Y81825D01*
X152904Y81825D01*
X152900Y81829D01*
X152200Y81829D01*
X152196Y81826D01*
X152193Y81829D01*
X151493Y81729D01*
X151480Y81716D01*
X151469Y81718D01*
X150469Y80918D01*
X150468Y80914D01*
X150465Y80915D01*
X149965Y80415D01*
X149962Y80388D01*
X149951Y80380D01*
X149951Y78680D01*
X149955Y78674D01*
X149952Y78670D01*
X150052Y78170D01*
X150096Y78131D01*
X150098Y78133D01*
X150100Y78131D01*
X154800Y78131D01*
X154847Y78167D01*
G37*
G36*
X154947Y36367D02*
X154947Y36367D01*
X154942Y36374D01*
X154949Y36380D01*
X154949Y37780D01*
X154946Y37785D01*
X154949Y37788D01*
X154849Y38388D01*
X154841Y38395D01*
X154844Y38402D01*
X154544Y39002D01*
X154534Y39007D01*
X154535Y39015D01*
X154035Y39515D01*
X154023Y39516D01*
X154022Y39524D01*
X153422Y39824D01*
X153417Y39823D01*
X153416Y39827D01*
X152816Y40027D01*
X152809Y40025D01*
X152804Y40025D01*
X152800Y40029D01*
X152100Y40029D01*
X152094Y40025D01*
X152090Y40025D01*
X152086Y40027D01*
X151386Y39827D01*
X151381Y39820D01*
X151375Y39822D01*
X150875Y39522D01*
X150871Y39514D01*
X150865Y39515D01*
X150365Y39015D01*
X150364Y39004D01*
X150363Y39004D01*
X150363Y39003D01*
X150356Y39002D01*
X149956Y38202D01*
X149959Y38186D01*
X149951Y38180D01*
X149951Y36780D01*
X149960Y36767D01*
X149956Y36758D01*
X150156Y36358D01*
X150193Y36340D01*
X150200Y36331D01*
X154900Y36331D01*
X154947Y36367D01*
G37*
G36*
X103821Y36347D02*
X103821Y36347D01*
X103835Y36345D01*
X104135Y36645D01*
X104137Y36657D01*
X104143Y36662D01*
X104138Y36669D01*
X104139Y36672D01*
X104149Y36680D01*
X104149Y38080D01*
X104140Y38093D01*
X104144Y38102D01*
X103844Y38702D01*
X103840Y38704D01*
X103841Y38707D01*
X103441Y39307D01*
X103431Y39311D01*
X103431Y39318D01*
X102931Y39718D01*
X102918Y39719D01*
X102916Y39727D01*
X102316Y39927D01*
X102311Y39925D01*
X102310Y39926D01*
X102309Y39926D01*
X102307Y39929D01*
X101607Y40029D01*
X101599Y40025D01*
X101597Y40025D01*
X101593Y40029D01*
X100893Y39929D01*
X100885Y39921D01*
X100878Y39924D01*
X100278Y39624D01*
X100275Y39617D01*
X100269Y39618D01*
X99769Y39218D01*
X99768Y39214D01*
X99765Y39215D01*
X99265Y38715D01*
X99264Y38703D01*
X99256Y38702D01*
X99156Y38502D01*
X99159Y38486D01*
X99151Y38480D01*
X99151Y36380D01*
X99187Y36333D01*
X99194Y36338D01*
X99200Y36331D01*
X103800Y36331D01*
X103821Y36347D01*
G37*
%LPC*%
G36*
X145928Y199940D02*
X145928Y199940D01*
X145465Y200033D01*
X145433Y200032D01*
X145390Y200040D01*
X144980Y200040D01*
X144660Y200200D01*
X144627Y200208D01*
X144582Y200229D01*
X144246Y200313D01*
X144032Y200456D01*
X143886Y200602D01*
X143706Y200871D01*
X143684Y200892D01*
X143659Y200929D01*
X143522Y201065D01*
X143351Y201580D01*
X143338Y201600D01*
X143330Y201630D01*
X143242Y201806D01*
X143170Y202022D01*
X143170Y203645D01*
X143420Y203520D01*
X143435Y203516D01*
X143448Y203507D01*
X143582Y203481D01*
X143589Y203480D01*
X143590Y203480D01*
X143700Y203480D01*
X143820Y203420D01*
X143835Y203416D01*
X143848Y203407D01*
X143982Y203381D01*
X143989Y203380D01*
X143990Y203380D01*
X144300Y203380D01*
X144420Y203320D01*
X144435Y203316D01*
X144448Y203307D01*
X144582Y203281D01*
X144589Y203280D01*
X144590Y203280D01*
X144728Y203280D01*
X144970Y203199D01*
X145007Y203196D01*
X145090Y203180D01*
X145428Y203180D01*
X145670Y203099D01*
X145707Y203096D01*
X145790Y203080D01*
X146100Y203080D01*
X146220Y203020D01*
X146235Y203016D01*
X146248Y203007D01*
X146382Y202981D01*
X146389Y202980D01*
X146390Y202980D01*
X146528Y202980D01*
X146744Y202908D01*
X146865Y202848D01*
X146921Y202791D01*
X146953Y202771D01*
X147020Y202720D01*
X147365Y202548D01*
X147421Y202491D01*
X147453Y202471D01*
X147520Y202420D01*
X147607Y202377D01*
X147810Y201970D01*
X147810Y201860D01*
X147813Y201845D01*
X147811Y201830D01*
X147848Y201698D01*
X147849Y201691D01*
X147850Y201691D01*
X147850Y201690D01*
X147910Y201570D01*
X147910Y201222D01*
X147829Y200980D01*
X147826Y200943D01*
X147810Y200860D01*
X147810Y200750D01*
X147778Y200685D01*
X147721Y200629D01*
X147713Y200615D01*
X147710Y200613D01*
X147707Y200605D01*
X147701Y200597D01*
X147650Y200530D01*
X147607Y200443D01*
X147520Y200400D01*
X147491Y200376D01*
X147421Y200329D01*
X147365Y200273D01*
X147100Y200140D01*
X146990Y200140D01*
X146975Y200137D01*
X146960Y200139D01*
X146828Y200102D01*
X146821Y200101D01*
X146821Y200100D01*
X146820Y200100D01*
X146700Y200040D01*
X146590Y200040D01*
X146575Y200037D01*
X146560Y200039D01*
X146428Y200002D01*
X146421Y200001D01*
X146421Y200000D01*
X146420Y200000D01*
X146345Y199963D01*
X146300Y199940D01*
X145928Y199940D01*
G37*
%LPD*%
G36*
X179981Y156309D02*
X179981Y156309D01*
X179988Y156304D01*
X180488Y156504D01*
X180498Y156520D01*
X180509Y156520D01*
X180809Y156920D01*
X180809Y156927D01*
X180811Y156928D01*
X180809Y156929D01*
X180809Y156933D01*
X180817Y156936D01*
X180843Y157026D01*
X180885Y157174D01*
X180899Y157223D01*
X180941Y157371D01*
X180942Y157371D01*
X180941Y157371D01*
X180984Y157519D01*
X180998Y157568D01*
X181017Y157636D01*
X181015Y157642D01*
X181019Y157645D01*
X181119Y158545D01*
X181117Y158548D01*
X181119Y158550D01*
X181119Y159550D01*
X181117Y159553D01*
X181119Y159555D01*
X181019Y160455D01*
X181010Y160465D01*
X181014Y160472D01*
X180714Y161072D01*
X180708Y161075D01*
X180709Y161080D01*
X180409Y161480D01*
X180385Y161486D01*
X180380Y161498D01*
X179880Y161598D01*
X179873Y161595D01*
X179870Y161599D01*
X179370Y161599D01*
X179352Y161586D01*
X179340Y161589D01*
X178940Y161289D01*
X178937Y161276D01*
X178928Y161275D01*
X178628Y160775D01*
X178629Y160766D01*
X178623Y160764D01*
X178618Y160747D01*
X178604Y160697D01*
X178562Y160550D01*
X178519Y160402D01*
X178505Y160353D01*
X178463Y160205D01*
X178423Y160064D01*
X178425Y160059D01*
X178423Y160057D01*
X178425Y160053D01*
X178421Y160050D01*
X178421Y158150D01*
X178424Y158146D01*
X178421Y158144D01*
X178521Y157344D01*
X178530Y157335D01*
X178526Y157328D01*
X178826Y156728D01*
X178840Y156721D01*
X178840Y156711D01*
X179240Y156411D01*
X179256Y156411D01*
X179260Y156402D01*
X179760Y156302D01*
X179767Y156305D01*
X179770Y156301D01*
X179970Y156301D01*
X179981Y156309D01*
G37*
G36*
X102543Y156310D02*
X102543Y156310D01*
X102552Y156306D01*
X102952Y156506D01*
X102957Y156516D01*
X102965Y156515D01*
X103365Y156915D01*
X103366Y156926D01*
X103368Y156928D01*
X103367Y156930D01*
X103367Y156933D01*
X103377Y156936D01*
X103403Y157026D01*
X103445Y157174D01*
X103459Y157223D01*
X103501Y157371D01*
X103502Y157371D01*
X103501Y157371D01*
X103544Y157519D01*
X103558Y157568D01*
X103577Y157636D01*
X103575Y157642D01*
X103579Y157645D01*
X103679Y158545D01*
X103677Y158548D01*
X103679Y158550D01*
X103679Y159550D01*
X103674Y159557D01*
X103678Y159562D01*
X103478Y160362D01*
X103477Y160363D01*
X103477Y160364D01*
X103277Y161064D01*
X103267Y161071D01*
X103269Y161080D01*
X102969Y161480D01*
X102945Y161486D01*
X102940Y161498D01*
X102440Y161598D01*
X102433Y161595D01*
X102430Y161599D01*
X101930Y161599D01*
X101912Y161586D01*
X101900Y161589D01*
X101500Y161289D01*
X101497Y161276D01*
X101488Y161275D01*
X101188Y160775D01*
X101189Y160766D01*
X101183Y160764D01*
X101178Y160747D01*
X101164Y160697D01*
X101122Y160550D01*
X101079Y160402D01*
X101065Y160353D01*
X101023Y160205D01*
X100983Y160064D01*
X100984Y160059D01*
X100982Y160057D01*
X100983Y160056D01*
X100981Y160055D01*
X100881Y159055D01*
X100885Y159048D01*
X100881Y159045D01*
X100981Y158145D01*
X100981Y158144D01*
X101081Y157344D01*
X101090Y157335D01*
X101086Y157328D01*
X101386Y156728D01*
X101400Y156721D01*
X101400Y156711D01*
X101800Y156411D01*
X101816Y156411D01*
X101820Y156402D01*
X102320Y156302D01*
X102327Y156305D01*
X102330Y156301D01*
X102530Y156301D01*
X102543Y156310D01*
G37*
G36*
X212295Y67274D02*
X212295Y67274D01*
X212298Y67271D01*
X212898Y67371D01*
X212939Y67415D01*
X212936Y67418D01*
X212939Y67420D01*
X212939Y72220D01*
X212903Y72267D01*
X212900Y72265D01*
X212898Y72269D01*
X212298Y72369D01*
X212290Y72365D01*
X212287Y72369D01*
X210887Y72269D01*
X210880Y72263D01*
X210874Y72267D01*
X210274Y72067D01*
X210251Y72032D01*
X210241Y72027D01*
X210141Y71327D01*
X210157Y71299D01*
X210155Y71285D01*
X210555Y70885D01*
X210582Y70882D01*
X210590Y70871D01*
X211374Y70871D01*
X211744Y70593D01*
X211840Y69825D01*
X211653Y69264D01*
X211083Y69169D01*
X210284Y69069D01*
X210261Y69047D01*
X210248Y69045D01*
X209948Y68545D01*
X209950Y68527D01*
X209941Y68520D01*
X209941Y68020D01*
X209950Y68007D01*
X209946Y67998D01*
X210246Y67398D01*
X210277Y67383D01*
X210283Y67371D01*
X210983Y67271D01*
X210988Y67274D01*
X210990Y67271D01*
X212290Y67271D01*
X212295Y67274D01*
G37*
G36*
X178947Y46567D02*
X178947Y46567D01*
X178945Y46570D01*
X178949Y46572D01*
X179049Y47172D01*
X179045Y47180D01*
X179049Y47184D01*
X178949Y48584D01*
X178942Y48592D01*
X178946Y48598D01*
X178746Y49098D01*
X178713Y49118D01*
X178707Y49129D01*
X178007Y49229D01*
X177983Y49216D01*
X177970Y49219D01*
X177570Y48919D01*
X177562Y48888D01*
X177551Y48880D01*
X177551Y48094D01*
X177270Y47626D01*
X176509Y47531D01*
X175944Y47813D01*
X175849Y48388D01*
X175749Y49087D01*
X175730Y49105D01*
X175731Y49118D01*
X175231Y49518D01*
X175208Y49519D01*
X175200Y49529D01*
X174600Y49529D01*
X174585Y49518D01*
X174575Y49522D01*
X174075Y49222D01*
X174063Y49194D01*
X174051Y49187D01*
X173951Y48487D01*
X173954Y48482D01*
X173951Y48480D01*
X173951Y47080D01*
X173955Y47074D01*
X173952Y47070D01*
X174052Y46570D01*
X174096Y46531D01*
X174098Y46533D01*
X174100Y46531D01*
X178900Y46531D01*
X178947Y46567D01*
G37*
G36*
X154947Y88367D02*
X154947Y88367D01*
X154944Y88371D01*
X154949Y88373D01*
X155049Y89073D01*
X155046Y89078D01*
X155049Y89080D01*
X155049Y89680D01*
X155046Y89684D01*
X155049Y89687D01*
X154949Y90387D01*
X154941Y90395D01*
X154944Y90402D01*
X154644Y91002D01*
X154620Y91014D01*
X154616Y91027D01*
X154016Y91227D01*
X154001Y91222D01*
X153994Y91229D01*
X153194Y91129D01*
X153175Y91110D01*
X153162Y91111D01*
X152762Y90611D01*
X152761Y90593D01*
X152751Y90588D01*
X152651Y89988D01*
X152654Y89983D01*
X152651Y89980D01*
X152651Y88580D01*
X152667Y88559D01*
X152665Y88545D01*
X152865Y88345D01*
X152892Y88342D01*
X152900Y88331D01*
X154900Y88331D01*
X154947Y88367D01*
G37*
G36*
X117709Y175518D02*
X117709Y175518D01*
X117716Y175513D01*
X118016Y175613D01*
X118032Y175637D01*
X118043Y175645D01*
X118040Y175649D01*
X118046Y175657D01*
X118049Y175660D01*
X118049Y177760D01*
X118013Y177807D01*
X118010Y177805D01*
X118008Y177809D01*
X117408Y177909D01*
X117403Y177906D01*
X117400Y177909D01*
X116700Y177909D01*
X116696Y177906D01*
X116693Y177909D01*
X115993Y177809D01*
X115983Y177799D01*
X115975Y177802D01*
X115475Y177502D01*
X115467Y177484D01*
X115456Y177482D01*
X115156Y176882D01*
X115160Y176862D01*
X115151Y176853D01*
X115251Y176153D01*
X115264Y176140D01*
X115262Y176129D01*
X115662Y175629D01*
X115687Y175623D01*
X115693Y175611D01*
X116393Y175511D01*
X116398Y175514D01*
X116400Y175511D01*
X117700Y175511D01*
X117709Y175518D01*
G37*
G36*
X153400Y156223D02*
X153400Y156223D01*
X153412Y156225D01*
X153712Y156725D01*
X153712Y156728D01*
X153713Y156729D01*
X153712Y156731D01*
X153710Y156743D01*
X153719Y156750D01*
X153719Y157350D01*
X153698Y157378D01*
X153697Y157391D01*
X153097Y157791D01*
X153077Y157790D01*
X153070Y157799D01*
X152370Y157799D01*
X152352Y157785D01*
X152339Y157788D01*
X151839Y157388D01*
X151833Y157364D01*
X151821Y157358D01*
X151721Y156758D01*
X151733Y156737D01*
X151728Y156725D01*
X152028Y156225D01*
X152062Y156211D01*
X152070Y156201D01*
X153370Y156201D01*
X153400Y156223D01*
G37*
G36*
X100902Y79944D02*
X100902Y79944D01*
X100918Y79934D01*
X102218Y80434D01*
X102228Y80450D01*
X102239Y80450D01*
X102539Y80850D01*
X102539Y80910D01*
X102524Y80910D01*
X102521Y80925D01*
X101221Y81525D01*
X101185Y81517D01*
X101173Y81521D01*
X100873Y81321D01*
X100861Y81288D01*
X100851Y81280D01*
X100851Y79980D01*
X100852Y79978D01*
X100851Y79975D01*
X100857Y79972D01*
X100887Y79933D01*
X100902Y79944D01*
G37*
G36*
X151913Y67839D02*
X151913Y67839D01*
X151921Y67835D01*
X153221Y68435D01*
X153249Y68488D01*
X153239Y68493D01*
X153244Y68502D01*
X153044Y68902D01*
X153024Y68912D01*
X153022Y68924D01*
X151822Y69524D01*
X151764Y69513D01*
X151767Y69497D01*
X151752Y69490D01*
X151652Y68990D01*
X151655Y68983D01*
X151651Y68980D01*
X151651Y68280D01*
X151660Y68267D01*
X151656Y68258D01*
X151856Y67858D01*
X151909Y67832D01*
X151913Y67839D01*
G37*
G36*
X138006Y174515D02*
X138006Y174515D01*
X138010Y174512D01*
X138510Y174612D01*
X138538Y174644D01*
X138540Y174645D01*
X138540Y174646D01*
X138549Y174656D01*
X138539Y174666D01*
X138546Y174678D01*
X138046Y175978D01*
X138004Y176003D01*
X138000Y176009D01*
X137500Y176009D01*
X137463Y175981D01*
X137455Y175979D01*
X136955Y174779D01*
X136969Y174721D01*
X136973Y174722D01*
X136973Y174719D01*
X137273Y174519D01*
X137293Y174520D01*
X137300Y174511D01*
X138000Y174511D01*
X138006Y174515D01*
G37*
%LPC*%
G36*
X182733Y24629D02*
X182733Y24629D01*
X182549Y25089D01*
X182549Y25625D01*
X183851Y24926D01*
X183851Y24629D01*
X182733Y24629D01*
G37*
%LPD*%
%LPC*%
G36*
X130595Y171519D02*
X130595Y171519D01*
X130597Y171517D01*
X130593Y171517D01*
X130595Y171519D01*
G37*
%LPD*%
D10*
X114300Y148590D02*
X139700Y148590D01*
X114300Y168910D02*
X114167Y168908D01*
X114034Y168902D01*
X113902Y168893D01*
X113769Y168879D01*
X113637Y168862D01*
X113506Y168841D01*
X113375Y168816D01*
X113246Y168787D01*
X113117Y168754D01*
X112989Y168718D01*
X112862Y168678D01*
X112736Y168634D01*
X112612Y168587D01*
X112489Y168536D01*
X112368Y168482D01*
X112248Y168424D01*
X112130Y168362D01*
X112014Y168297D01*
X111900Y168229D01*
X111788Y168158D01*
X111678Y168083D01*
X111570Y168005D01*
X111464Y167924D01*
X111361Y167840D01*
X111261Y167753D01*
X111163Y167664D01*
X111067Y167571D01*
X110974Y167475D01*
X110885Y167377D01*
X110798Y167277D01*
X110714Y167174D01*
X110633Y167068D01*
X110555Y166960D01*
X110480Y166850D01*
X110409Y166738D01*
X110341Y166624D01*
X110276Y166508D01*
X110214Y166390D01*
X110156Y166270D01*
X110102Y166149D01*
X110051Y166026D01*
X110004Y165902D01*
X109960Y165776D01*
X109920Y165649D01*
X109884Y165521D01*
X109851Y165392D01*
X109822Y165263D01*
X109797Y165132D01*
X109776Y165001D01*
X109759Y164869D01*
X109745Y164736D01*
X109736Y164604D01*
X109730Y164471D01*
X109728Y164338D01*
X139700Y168910D02*
X139833Y168908D01*
X139966Y168902D01*
X140098Y168893D01*
X140231Y168879D01*
X140363Y168862D01*
X140494Y168841D01*
X140625Y168816D01*
X140754Y168787D01*
X140883Y168754D01*
X141011Y168718D01*
X141138Y168678D01*
X141264Y168634D01*
X141388Y168587D01*
X141511Y168536D01*
X141632Y168482D01*
X141752Y168424D01*
X141870Y168362D01*
X141986Y168297D01*
X142100Y168229D01*
X142212Y168158D01*
X142322Y168083D01*
X142430Y168005D01*
X142536Y167924D01*
X142639Y167840D01*
X142739Y167753D01*
X142837Y167664D01*
X142933Y167571D01*
X143026Y167475D01*
X143115Y167377D01*
X143202Y167277D01*
X143286Y167174D01*
X143367Y167068D01*
X143445Y166960D01*
X143520Y166850D01*
X143591Y166738D01*
X143659Y166624D01*
X143724Y166508D01*
X143786Y166390D01*
X143844Y166270D01*
X143898Y166149D01*
X143949Y166026D01*
X143996Y165902D01*
X144040Y165776D01*
X144080Y165649D01*
X144116Y165521D01*
X144149Y165392D01*
X144178Y165263D01*
X144203Y165132D01*
X144224Y165001D01*
X144241Y164869D01*
X144255Y164736D01*
X144264Y164604D01*
X144270Y164471D01*
X144272Y164338D01*
X144272Y153162D02*
X144270Y153029D01*
X144264Y152896D01*
X144255Y152764D01*
X144241Y152631D01*
X144224Y152499D01*
X144203Y152368D01*
X144178Y152237D01*
X144149Y152108D01*
X144116Y151979D01*
X144080Y151851D01*
X144040Y151724D01*
X143996Y151598D01*
X143949Y151474D01*
X143898Y151351D01*
X143844Y151230D01*
X143786Y151110D01*
X143724Y150992D01*
X143659Y150876D01*
X143591Y150762D01*
X143520Y150650D01*
X143445Y150540D01*
X143367Y150432D01*
X143286Y150326D01*
X143202Y150223D01*
X143115Y150123D01*
X143026Y150025D01*
X142933Y149929D01*
X142837Y149836D01*
X142739Y149747D01*
X142639Y149660D01*
X142536Y149576D01*
X142430Y149495D01*
X142322Y149417D01*
X142212Y149342D01*
X142100Y149271D01*
X141986Y149203D01*
X141870Y149138D01*
X141752Y149076D01*
X141632Y149018D01*
X141511Y148964D01*
X141388Y148913D01*
X141264Y148866D01*
X141138Y148822D01*
X141011Y148782D01*
X140883Y148746D01*
X140754Y148713D01*
X140625Y148684D01*
X140494Y148659D01*
X140363Y148638D01*
X140231Y148621D01*
X140098Y148607D01*
X139966Y148598D01*
X139833Y148592D01*
X139700Y148590D01*
X114300Y148590D02*
X114167Y148592D01*
X114034Y148598D01*
X113902Y148607D01*
X113769Y148621D01*
X113637Y148638D01*
X113506Y148659D01*
X113375Y148684D01*
X113246Y148713D01*
X113117Y148746D01*
X112989Y148782D01*
X112862Y148822D01*
X112736Y148866D01*
X112612Y148913D01*
X112489Y148964D01*
X112368Y149018D01*
X112248Y149076D01*
X112130Y149138D01*
X112014Y149203D01*
X111900Y149271D01*
X111788Y149342D01*
X111678Y149417D01*
X111570Y149495D01*
X111464Y149576D01*
X111361Y149660D01*
X111261Y149747D01*
X111163Y149836D01*
X111067Y149929D01*
X110974Y150025D01*
X110885Y150123D01*
X110798Y150223D01*
X110714Y150326D01*
X110633Y150432D01*
X110555Y150540D01*
X110480Y150650D01*
X110409Y150762D01*
X110341Y150876D01*
X110276Y150992D01*
X110214Y151110D01*
X110156Y151230D01*
X110102Y151351D01*
X110051Y151474D01*
X110004Y151598D01*
X109960Y151724D01*
X109920Y151851D01*
X109884Y151979D01*
X109851Y152108D01*
X109822Y152237D01*
X109797Y152368D01*
X109776Y152499D01*
X109759Y152631D01*
X109745Y152764D01*
X109736Y152896D01*
X109730Y153029D01*
X109728Y153162D01*
X109728Y164338D01*
X144272Y164338D02*
X144272Y153162D01*
X139700Y168910D02*
X114300Y168910D01*
D11*
X114300Y97790D02*
X139700Y97790D01*
X114300Y118110D02*
X114167Y118108D01*
X114034Y118102D01*
X113902Y118093D01*
X113769Y118079D01*
X113637Y118062D01*
X113506Y118041D01*
X113375Y118016D01*
X113246Y117987D01*
X113117Y117954D01*
X112989Y117918D01*
X112862Y117878D01*
X112736Y117834D01*
X112612Y117787D01*
X112489Y117736D01*
X112368Y117682D01*
X112248Y117624D01*
X112130Y117562D01*
X112014Y117497D01*
X111900Y117429D01*
X111788Y117358D01*
X111678Y117283D01*
X111570Y117205D01*
X111464Y117124D01*
X111361Y117040D01*
X111261Y116953D01*
X111163Y116864D01*
X111067Y116771D01*
X110974Y116675D01*
X110885Y116577D01*
X110798Y116477D01*
X110714Y116374D01*
X110633Y116268D01*
X110555Y116160D01*
X110480Y116050D01*
X110409Y115938D01*
X110341Y115824D01*
X110276Y115708D01*
X110214Y115590D01*
X110156Y115470D01*
X110102Y115349D01*
X110051Y115226D01*
X110004Y115102D01*
X109960Y114976D01*
X109920Y114849D01*
X109884Y114721D01*
X109851Y114592D01*
X109822Y114463D01*
X109797Y114332D01*
X109776Y114201D01*
X109759Y114069D01*
X109745Y113936D01*
X109736Y113804D01*
X109730Y113671D01*
X109728Y113538D01*
X139700Y118110D02*
X139833Y118108D01*
X139966Y118102D01*
X140098Y118093D01*
X140231Y118079D01*
X140363Y118062D01*
X140494Y118041D01*
X140625Y118016D01*
X140754Y117987D01*
X140883Y117954D01*
X141011Y117918D01*
X141138Y117878D01*
X141264Y117834D01*
X141388Y117787D01*
X141511Y117736D01*
X141632Y117682D01*
X141752Y117624D01*
X141870Y117562D01*
X141986Y117497D01*
X142100Y117429D01*
X142212Y117358D01*
X142322Y117283D01*
X142430Y117205D01*
X142536Y117124D01*
X142639Y117040D01*
X142739Y116953D01*
X142837Y116864D01*
X142933Y116771D01*
X143026Y116675D01*
X143115Y116577D01*
X143202Y116477D01*
X143286Y116374D01*
X143367Y116268D01*
X143445Y116160D01*
X143520Y116050D01*
X143591Y115938D01*
X143659Y115824D01*
X143724Y115708D01*
X143786Y115590D01*
X143844Y115470D01*
X143898Y115349D01*
X143949Y115226D01*
X143996Y115102D01*
X144040Y114976D01*
X144080Y114849D01*
X144116Y114721D01*
X144149Y114592D01*
X144178Y114463D01*
X144203Y114332D01*
X144224Y114201D01*
X144241Y114069D01*
X144255Y113936D01*
X144264Y113804D01*
X144270Y113671D01*
X144272Y113538D01*
X144272Y102362D02*
X144270Y102229D01*
X144264Y102096D01*
X144255Y101964D01*
X144241Y101831D01*
X144224Y101699D01*
X144203Y101568D01*
X144178Y101437D01*
X144149Y101308D01*
X144116Y101179D01*
X144080Y101051D01*
X144040Y100924D01*
X143996Y100798D01*
X143949Y100674D01*
X143898Y100551D01*
X143844Y100430D01*
X143786Y100310D01*
X143724Y100192D01*
X143659Y100076D01*
X143591Y99962D01*
X143520Y99850D01*
X143445Y99740D01*
X143367Y99632D01*
X143286Y99526D01*
X143202Y99423D01*
X143115Y99323D01*
X143026Y99225D01*
X142933Y99129D01*
X142837Y99036D01*
X142739Y98947D01*
X142639Y98860D01*
X142536Y98776D01*
X142430Y98695D01*
X142322Y98617D01*
X142212Y98542D01*
X142100Y98471D01*
X141986Y98403D01*
X141870Y98338D01*
X141752Y98276D01*
X141632Y98218D01*
X141511Y98164D01*
X141388Y98113D01*
X141264Y98066D01*
X141138Y98022D01*
X141011Y97982D01*
X140883Y97946D01*
X140754Y97913D01*
X140625Y97884D01*
X140494Y97859D01*
X140363Y97838D01*
X140231Y97821D01*
X140098Y97807D01*
X139966Y97798D01*
X139833Y97792D01*
X139700Y97790D01*
X114300Y97790D02*
X114167Y97792D01*
X114034Y97798D01*
X113902Y97807D01*
X113769Y97821D01*
X113637Y97838D01*
X113506Y97859D01*
X113375Y97884D01*
X113246Y97913D01*
X113117Y97946D01*
X112989Y97982D01*
X112862Y98022D01*
X112736Y98066D01*
X112612Y98113D01*
X112489Y98164D01*
X112368Y98218D01*
X112248Y98276D01*
X112130Y98338D01*
X112014Y98403D01*
X111900Y98471D01*
X111788Y98542D01*
X111678Y98617D01*
X111570Y98695D01*
X111464Y98776D01*
X111361Y98860D01*
X111261Y98947D01*
X111163Y99036D01*
X111067Y99129D01*
X110974Y99225D01*
X110885Y99323D01*
X110798Y99423D01*
X110714Y99526D01*
X110633Y99632D01*
X110555Y99740D01*
X110480Y99850D01*
X110409Y99962D01*
X110341Y100076D01*
X110276Y100192D01*
X110214Y100310D01*
X110156Y100430D01*
X110102Y100551D01*
X110051Y100674D01*
X110004Y100798D01*
X109960Y100924D01*
X109920Y101051D01*
X109884Y101179D01*
X109851Y101308D01*
X109822Y101437D01*
X109797Y101568D01*
X109776Y101699D01*
X109759Y101831D01*
X109745Y101964D01*
X109736Y102096D01*
X109730Y102229D01*
X109728Y102362D01*
X109728Y113538D01*
X144272Y113538D02*
X144272Y102362D01*
X139700Y118110D02*
X114300Y118110D01*
X201930Y162560D02*
X217170Y162560D01*
X221742Y146812D02*
X221740Y146679D01*
X221734Y146546D01*
X221725Y146414D01*
X221711Y146281D01*
X221694Y146149D01*
X221673Y146018D01*
X221648Y145887D01*
X221619Y145758D01*
X221586Y145629D01*
X221550Y145501D01*
X221510Y145374D01*
X221466Y145248D01*
X221419Y145124D01*
X221368Y145001D01*
X221314Y144880D01*
X221256Y144760D01*
X221194Y144642D01*
X221129Y144526D01*
X221061Y144412D01*
X220990Y144300D01*
X220915Y144190D01*
X220837Y144082D01*
X220756Y143976D01*
X220672Y143873D01*
X220585Y143773D01*
X220496Y143675D01*
X220403Y143579D01*
X220307Y143486D01*
X220209Y143397D01*
X220109Y143310D01*
X220006Y143226D01*
X219900Y143145D01*
X219792Y143067D01*
X219682Y142992D01*
X219570Y142921D01*
X219456Y142853D01*
X219340Y142788D01*
X219222Y142726D01*
X219102Y142668D01*
X218981Y142614D01*
X218858Y142563D01*
X218734Y142516D01*
X218608Y142472D01*
X218481Y142432D01*
X218353Y142396D01*
X218224Y142363D01*
X218095Y142334D01*
X217964Y142309D01*
X217833Y142288D01*
X217701Y142271D01*
X217568Y142257D01*
X217436Y142248D01*
X217303Y142242D01*
X217170Y142240D01*
X201930Y142240D02*
X201797Y142242D01*
X201664Y142248D01*
X201532Y142257D01*
X201399Y142271D01*
X201267Y142288D01*
X201136Y142309D01*
X201005Y142334D01*
X200876Y142363D01*
X200747Y142396D01*
X200619Y142432D01*
X200492Y142472D01*
X200366Y142516D01*
X200242Y142563D01*
X200119Y142614D01*
X199998Y142668D01*
X199878Y142726D01*
X199760Y142788D01*
X199644Y142853D01*
X199530Y142921D01*
X199418Y142992D01*
X199308Y143067D01*
X199200Y143145D01*
X199094Y143226D01*
X198991Y143310D01*
X198891Y143397D01*
X198793Y143486D01*
X198697Y143579D01*
X198604Y143675D01*
X198515Y143773D01*
X198428Y143873D01*
X198344Y143976D01*
X198263Y144082D01*
X198185Y144190D01*
X198110Y144300D01*
X198039Y144412D01*
X197971Y144526D01*
X197906Y144642D01*
X197844Y144760D01*
X197786Y144880D01*
X197732Y145001D01*
X197681Y145124D01*
X197634Y145248D01*
X197590Y145374D01*
X197550Y145501D01*
X197514Y145629D01*
X197481Y145758D01*
X197452Y145887D01*
X197427Y146018D01*
X197406Y146149D01*
X197389Y146281D01*
X197375Y146414D01*
X197366Y146546D01*
X197360Y146679D01*
X197358Y146812D01*
X197358Y157988D02*
X197360Y158121D01*
X197366Y158254D01*
X197375Y158386D01*
X197389Y158519D01*
X197406Y158651D01*
X197427Y158782D01*
X197452Y158913D01*
X197481Y159042D01*
X197514Y159171D01*
X197550Y159299D01*
X197590Y159426D01*
X197634Y159552D01*
X197681Y159676D01*
X197732Y159799D01*
X197786Y159920D01*
X197844Y160040D01*
X197906Y160158D01*
X197971Y160274D01*
X198039Y160388D01*
X198110Y160500D01*
X198185Y160610D01*
X198263Y160718D01*
X198344Y160824D01*
X198428Y160927D01*
X198515Y161027D01*
X198604Y161125D01*
X198697Y161221D01*
X198793Y161314D01*
X198891Y161403D01*
X198991Y161490D01*
X199094Y161574D01*
X199200Y161655D01*
X199308Y161733D01*
X199418Y161808D01*
X199530Y161879D01*
X199644Y161947D01*
X199760Y162012D01*
X199878Y162074D01*
X199998Y162132D01*
X200119Y162186D01*
X200242Y162237D01*
X200366Y162284D01*
X200492Y162328D01*
X200619Y162368D01*
X200747Y162404D01*
X200876Y162437D01*
X201005Y162466D01*
X201136Y162491D01*
X201267Y162512D01*
X201399Y162529D01*
X201532Y162543D01*
X201664Y162552D01*
X201797Y162558D01*
X201930Y162560D01*
X217170Y162560D02*
X217303Y162558D01*
X217436Y162552D01*
X217568Y162543D01*
X217701Y162529D01*
X217833Y162512D01*
X217964Y162491D01*
X218095Y162466D01*
X218224Y162437D01*
X218353Y162404D01*
X218481Y162368D01*
X218608Y162328D01*
X218734Y162284D01*
X218858Y162237D01*
X218981Y162186D01*
X219102Y162132D01*
X219222Y162074D01*
X219340Y162012D01*
X219456Y161947D01*
X219570Y161879D01*
X219682Y161808D01*
X219792Y161733D01*
X219900Y161655D01*
X220006Y161574D01*
X220109Y161490D01*
X220209Y161403D01*
X220307Y161314D01*
X220403Y161221D01*
X220496Y161125D01*
X220585Y161027D01*
X220672Y160927D01*
X220756Y160824D01*
X220837Y160718D01*
X220915Y160610D01*
X220990Y160500D01*
X221061Y160388D01*
X221129Y160274D01*
X221194Y160158D01*
X221256Y160040D01*
X221314Y159920D01*
X221368Y159799D01*
X221419Y159676D01*
X221466Y159552D01*
X221510Y159426D01*
X221550Y159299D01*
X221586Y159171D01*
X221619Y159042D01*
X221648Y158913D01*
X221673Y158782D01*
X221694Y158651D01*
X221711Y158519D01*
X221725Y158386D01*
X221734Y158254D01*
X221740Y158121D01*
X221742Y157988D01*
X221742Y146812D01*
X197358Y146812D02*
X197358Y157988D01*
X201930Y142240D02*
X217170Y142240D01*
X198120Y81280D02*
X182880Y81280D01*
X202692Y65532D02*
X202690Y65399D01*
X202684Y65266D01*
X202675Y65134D01*
X202661Y65001D01*
X202644Y64869D01*
X202623Y64738D01*
X202598Y64607D01*
X202569Y64478D01*
X202536Y64349D01*
X202500Y64221D01*
X202460Y64094D01*
X202416Y63968D01*
X202369Y63844D01*
X202318Y63721D01*
X202264Y63600D01*
X202206Y63480D01*
X202144Y63362D01*
X202079Y63246D01*
X202011Y63132D01*
X201940Y63020D01*
X201865Y62910D01*
X201787Y62802D01*
X201706Y62696D01*
X201622Y62593D01*
X201535Y62493D01*
X201446Y62395D01*
X201353Y62299D01*
X201257Y62206D01*
X201159Y62117D01*
X201059Y62030D01*
X200956Y61946D01*
X200850Y61865D01*
X200742Y61787D01*
X200632Y61712D01*
X200520Y61641D01*
X200406Y61573D01*
X200290Y61508D01*
X200172Y61446D01*
X200052Y61388D01*
X199931Y61334D01*
X199808Y61283D01*
X199684Y61236D01*
X199558Y61192D01*
X199431Y61152D01*
X199303Y61116D01*
X199174Y61083D01*
X199045Y61054D01*
X198914Y61029D01*
X198783Y61008D01*
X198651Y60991D01*
X198518Y60977D01*
X198386Y60968D01*
X198253Y60962D01*
X198120Y60960D01*
X182880Y60960D02*
X182747Y60962D01*
X182614Y60968D01*
X182482Y60977D01*
X182349Y60991D01*
X182217Y61008D01*
X182086Y61029D01*
X181955Y61054D01*
X181826Y61083D01*
X181697Y61116D01*
X181569Y61152D01*
X181442Y61192D01*
X181316Y61236D01*
X181192Y61283D01*
X181069Y61334D01*
X180948Y61388D01*
X180828Y61446D01*
X180710Y61508D01*
X180594Y61573D01*
X180480Y61641D01*
X180368Y61712D01*
X180258Y61787D01*
X180150Y61865D01*
X180044Y61946D01*
X179941Y62030D01*
X179841Y62117D01*
X179743Y62206D01*
X179647Y62299D01*
X179554Y62395D01*
X179465Y62493D01*
X179378Y62593D01*
X179294Y62696D01*
X179213Y62802D01*
X179135Y62910D01*
X179060Y63020D01*
X178989Y63132D01*
X178921Y63246D01*
X178856Y63362D01*
X178794Y63480D01*
X178736Y63600D01*
X178682Y63721D01*
X178631Y63844D01*
X178584Y63968D01*
X178540Y64094D01*
X178500Y64221D01*
X178464Y64349D01*
X178431Y64478D01*
X178402Y64607D01*
X178377Y64738D01*
X178356Y64869D01*
X178339Y65001D01*
X178325Y65134D01*
X178316Y65266D01*
X178310Y65399D01*
X178308Y65532D01*
X178308Y76708D02*
X178310Y76841D01*
X178316Y76974D01*
X178325Y77106D01*
X178339Y77239D01*
X178356Y77371D01*
X178377Y77502D01*
X178402Y77633D01*
X178431Y77762D01*
X178464Y77891D01*
X178500Y78019D01*
X178540Y78146D01*
X178584Y78272D01*
X178631Y78396D01*
X178682Y78519D01*
X178736Y78640D01*
X178794Y78760D01*
X178856Y78878D01*
X178921Y78994D01*
X178989Y79108D01*
X179060Y79220D01*
X179135Y79330D01*
X179213Y79438D01*
X179294Y79544D01*
X179378Y79647D01*
X179465Y79747D01*
X179554Y79845D01*
X179647Y79941D01*
X179743Y80034D01*
X179841Y80123D01*
X179941Y80210D01*
X180044Y80294D01*
X180150Y80375D01*
X180258Y80453D01*
X180368Y80528D01*
X180480Y80599D01*
X180594Y80667D01*
X180710Y80732D01*
X180828Y80794D01*
X180948Y80852D01*
X181069Y80906D01*
X181192Y80957D01*
X181316Y81004D01*
X181442Y81048D01*
X181569Y81088D01*
X181697Y81124D01*
X181826Y81157D01*
X181955Y81186D01*
X182086Y81211D01*
X182217Y81232D01*
X182349Y81249D01*
X182482Y81263D01*
X182614Y81272D01*
X182747Y81278D01*
X182880Y81280D01*
X198120Y81280D02*
X198253Y81278D01*
X198386Y81272D01*
X198518Y81263D01*
X198651Y81249D01*
X198783Y81232D01*
X198914Y81211D01*
X199045Y81186D01*
X199174Y81157D01*
X199303Y81124D01*
X199431Y81088D01*
X199558Y81048D01*
X199684Y81004D01*
X199808Y80957D01*
X199931Y80906D01*
X200052Y80852D01*
X200172Y80794D01*
X200290Y80732D01*
X200406Y80667D01*
X200520Y80599D01*
X200632Y80528D01*
X200742Y80453D01*
X200850Y80375D01*
X200956Y80294D01*
X201059Y80210D01*
X201159Y80123D01*
X201257Y80034D01*
X201353Y79941D01*
X201446Y79845D01*
X201535Y79747D01*
X201622Y79647D01*
X201706Y79544D01*
X201787Y79438D01*
X201865Y79330D01*
X201940Y79220D01*
X202011Y79108D01*
X202079Y78994D01*
X202144Y78878D01*
X202206Y78760D01*
X202264Y78640D01*
X202318Y78519D01*
X202369Y78396D01*
X202416Y78272D01*
X202460Y78146D01*
X202500Y78019D01*
X202536Y77891D01*
X202569Y77762D01*
X202598Y77633D01*
X202623Y77502D01*
X202644Y77371D01*
X202661Y77239D01*
X202675Y77106D01*
X202684Y76974D01*
X202690Y76841D01*
X202692Y76708D01*
X202692Y65532D01*
X178308Y65532D02*
X178308Y76708D01*
X182880Y60960D02*
X198120Y60960D01*
M02*
