G04 EAGLE Gerber RS-274X export*
G75*
%MOMM*%
%FSLAX34Y34*%
%LPD*%
%INSoldermask Bottom*%
%IPPOS*%
%AMOC8*
5,1,8,0,0,1.08239X$1,22.5*%
G01*
%ADD10C,1.152400*%
%ADD11C,3.454400*%
%ADD12C,2.032000*%
%ADD13C,0.251966*%

G36*
X134050Y106057D02*
X134050Y106057D01*
X134116Y106059D01*
X134159Y106077D01*
X134206Y106085D01*
X134263Y106119D01*
X134323Y106144D01*
X134358Y106175D01*
X134399Y106200D01*
X134441Y106251D01*
X134489Y106295D01*
X134511Y106337D01*
X134540Y106374D01*
X134561Y106436D01*
X134592Y106495D01*
X134600Y106549D01*
X134612Y106586D01*
X134611Y106626D01*
X134619Y106680D01*
X134619Y109220D01*
X134608Y109285D01*
X134606Y109351D01*
X134588Y109394D01*
X134580Y109441D01*
X134546Y109498D01*
X134521Y109558D01*
X134490Y109593D01*
X134465Y109634D01*
X134414Y109676D01*
X134370Y109724D01*
X134328Y109746D01*
X134291Y109775D01*
X134229Y109796D01*
X134170Y109827D01*
X134116Y109835D01*
X134079Y109847D01*
X134039Y109846D01*
X133985Y109854D01*
X130175Y109854D01*
X130110Y109843D01*
X130044Y109841D01*
X130001Y109823D01*
X129954Y109815D01*
X129897Y109781D01*
X129837Y109756D01*
X129802Y109725D01*
X129761Y109700D01*
X129720Y109649D01*
X129671Y109605D01*
X129649Y109563D01*
X129620Y109526D01*
X129599Y109464D01*
X129568Y109405D01*
X129560Y109351D01*
X129548Y109314D01*
X129548Y109311D01*
X129549Y109274D01*
X129541Y109220D01*
X129541Y106680D01*
X129552Y106615D01*
X129554Y106549D01*
X129572Y106506D01*
X129580Y106459D01*
X129614Y106402D01*
X129639Y106342D01*
X129670Y106307D01*
X129695Y106266D01*
X129746Y106225D01*
X129790Y106176D01*
X129832Y106154D01*
X129869Y106125D01*
X129931Y106104D01*
X129990Y106073D01*
X130044Y106065D01*
X130081Y106053D01*
X130121Y106054D01*
X130175Y106046D01*
X133985Y106046D01*
X134050Y106057D01*
G37*
G36*
X123890Y106057D02*
X123890Y106057D01*
X123956Y106059D01*
X123999Y106077D01*
X124046Y106085D01*
X124103Y106119D01*
X124163Y106144D01*
X124198Y106175D01*
X124239Y106200D01*
X124281Y106251D01*
X124329Y106295D01*
X124351Y106337D01*
X124380Y106374D01*
X124401Y106436D01*
X124432Y106495D01*
X124440Y106549D01*
X124452Y106586D01*
X124451Y106626D01*
X124459Y106680D01*
X124459Y109220D01*
X124448Y109285D01*
X124446Y109351D01*
X124428Y109394D01*
X124420Y109441D01*
X124386Y109498D01*
X124361Y109558D01*
X124330Y109593D01*
X124305Y109634D01*
X124254Y109676D01*
X124210Y109724D01*
X124168Y109746D01*
X124131Y109775D01*
X124069Y109796D01*
X124010Y109827D01*
X123956Y109835D01*
X123919Y109847D01*
X123879Y109846D01*
X123825Y109854D01*
X120015Y109854D01*
X119950Y109843D01*
X119884Y109841D01*
X119841Y109823D01*
X119794Y109815D01*
X119737Y109781D01*
X119677Y109756D01*
X119642Y109725D01*
X119601Y109700D01*
X119560Y109649D01*
X119511Y109605D01*
X119489Y109563D01*
X119460Y109526D01*
X119439Y109464D01*
X119408Y109405D01*
X119400Y109351D01*
X119388Y109314D01*
X119388Y109311D01*
X119389Y109274D01*
X119381Y109220D01*
X119381Y106680D01*
X119392Y106615D01*
X119394Y106549D01*
X119412Y106506D01*
X119420Y106459D01*
X119454Y106402D01*
X119479Y106342D01*
X119510Y106307D01*
X119535Y106266D01*
X119586Y106225D01*
X119630Y106176D01*
X119672Y106154D01*
X119709Y106125D01*
X119771Y106104D01*
X119830Y106073D01*
X119884Y106065D01*
X119921Y106053D01*
X119961Y106054D01*
X120015Y106046D01*
X123825Y106046D01*
X123890Y106057D01*
G37*
G36*
X123890Y156857D02*
X123890Y156857D01*
X123956Y156859D01*
X123999Y156877D01*
X124046Y156885D01*
X124103Y156919D01*
X124163Y156944D01*
X124198Y156975D01*
X124239Y157000D01*
X124281Y157051D01*
X124329Y157095D01*
X124351Y157137D01*
X124380Y157174D01*
X124401Y157236D01*
X124432Y157295D01*
X124440Y157349D01*
X124452Y157386D01*
X124451Y157426D01*
X124459Y157480D01*
X124459Y160020D01*
X124448Y160085D01*
X124446Y160151D01*
X124428Y160194D01*
X124420Y160241D01*
X124386Y160298D01*
X124361Y160358D01*
X124330Y160393D01*
X124305Y160434D01*
X124254Y160476D01*
X124210Y160524D01*
X124168Y160546D01*
X124131Y160575D01*
X124069Y160596D01*
X124010Y160627D01*
X123956Y160635D01*
X123919Y160647D01*
X123879Y160646D01*
X123825Y160654D01*
X120015Y160654D01*
X119950Y160643D01*
X119884Y160641D01*
X119841Y160623D01*
X119794Y160615D01*
X119737Y160581D01*
X119677Y160556D01*
X119642Y160525D01*
X119601Y160500D01*
X119560Y160449D01*
X119511Y160405D01*
X119489Y160363D01*
X119460Y160326D01*
X119439Y160264D01*
X119408Y160205D01*
X119400Y160151D01*
X119388Y160114D01*
X119388Y160111D01*
X119389Y160074D01*
X119381Y160020D01*
X119381Y157480D01*
X119392Y157415D01*
X119394Y157349D01*
X119412Y157306D01*
X119420Y157259D01*
X119454Y157202D01*
X119479Y157142D01*
X119510Y157107D01*
X119535Y157066D01*
X119586Y157025D01*
X119630Y156976D01*
X119672Y156954D01*
X119709Y156925D01*
X119771Y156904D01*
X119830Y156873D01*
X119884Y156865D01*
X119921Y156853D01*
X119961Y156854D01*
X120015Y156846D01*
X123825Y156846D01*
X123890Y156857D01*
G37*
G36*
X211520Y150507D02*
X211520Y150507D01*
X211586Y150509D01*
X211629Y150527D01*
X211676Y150535D01*
X211733Y150569D01*
X211793Y150594D01*
X211828Y150625D01*
X211869Y150650D01*
X211911Y150701D01*
X211959Y150745D01*
X211981Y150787D01*
X212010Y150824D01*
X212031Y150886D01*
X212062Y150945D01*
X212070Y150999D01*
X212082Y151036D01*
X212081Y151076D01*
X212089Y151130D01*
X212089Y153670D01*
X212078Y153735D01*
X212076Y153801D01*
X212058Y153844D01*
X212050Y153891D01*
X212016Y153948D01*
X211991Y154008D01*
X211960Y154043D01*
X211935Y154084D01*
X211884Y154126D01*
X211840Y154174D01*
X211798Y154196D01*
X211761Y154225D01*
X211699Y154246D01*
X211640Y154277D01*
X211586Y154285D01*
X211549Y154297D01*
X211509Y154296D01*
X211455Y154304D01*
X207645Y154304D01*
X207580Y154293D01*
X207514Y154291D01*
X207471Y154273D01*
X207424Y154265D01*
X207367Y154231D01*
X207307Y154206D01*
X207272Y154175D01*
X207231Y154150D01*
X207190Y154099D01*
X207141Y154055D01*
X207119Y154013D01*
X207090Y153976D01*
X207069Y153914D01*
X207038Y153855D01*
X207030Y153801D01*
X207018Y153764D01*
X207018Y153761D01*
X207019Y153724D01*
X207011Y153670D01*
X207011Y151130D01*
X207022Y151065D01*
X207024Y150999D01*
X207042Y150956D01*
X207050Y150909D01*
X207084Y150852D01*
X207109Y150792D01*
X207140Y150757D01*
X207165Y150716D01*
X207216Y150675D01*
X207260Y150626D01*
X207302Y150604D01*
X207339Y150575D01*
X207401Y150554D01*
X207460Y150523D01*
X207514Y150515D01*
X207551Y150503D01*
X207591Y150504D01*
X207645Y150496D01*
X211455Y150496D01*
X211520Y150507D01*
G37*
G36*
X192470Y69227D02*
X192470Y69227D01*
X192536Y69229D01*
X192579Y69247D01*
X192626Y69255D01*
X192683Y69289D01*
X192743Y69314D01*
X192778Y69345D01*
X192819Y69370D01*
X192861Y69421D01*
X192909Y69465D01*
X192931Y69507D01*
X192960Y69544D01*
X192981Y69606D01*
X193012Y69665D01*
X193020Y69719D01*
X193032Y69756D01*
X193031Y69796D01*
X193039Y69850D01*
X193039Y72390D01*
X193028Y72455D01*
X193026Y72521D01*
X193008Y72564D01*
X193000Y72611D01*
X192966Y72668D01*
X192941Y72728D01*
X192910Y72763D01*
X192885Y72804D01*
X192834Y72846D01*
X192790Y72894D01*
X192748Y72916D01*
X192711Y72945D01*
X192649Y72966D01*
X192590Y72997D01*
X192536Y73005D01*
X192499Y73017D01*
X192459Y73016D01*
X192405Y73024D01*
X188595Y73024D01*
X188530Y73013D01*
X188464Y73011D01*
X188421Y72993D01*
X188374Y72985D01*
X188317Y72951D01*
X188257Y72926D01*
X188222Y72895D01*
X188181Y72870D01*
X188140Y72819D01*
X188091Y72775D01*
X188069Y72733D01*
X188040Y72696D01*
X188019Y72634D01*
X187988Y72575D01*
X187980Y72521D01*
X187968Y72484D01*
X187968Y72481D01*
X187969Y72444D01*
X187961Y72390D01*
X187961Y69850D01*
X187972Y69785D01*
X187974Y69719D01*
X187992Y69676D01*
X188000Y69629D01*
X188034Y69572D01*
X188059Y69512D01*
X188090Y69477D01*
X188115Y69436D01*
X188166Y69395D01*
X188210Y69346D01*
X188252Y69324D01*
X188289Y69295D01*
X188351Y69274D01*
X188410Y69243D01*
X188464Y69235D01*
X188501Y69223D01*
X188541Y69224D01*
X188595Y69216D01*
X192405Y69216D01*
X192470Y69227D01*
G37*
D10*
X203200Y215900D03*
X12700Y12700D03*
D11*
X25400Y228600D03*
X228600Y228600D03*
D12*
X50800Y12700D03*
X76200Y12700D03*
X101600Y12700D03*
X127000Y12700D03*
X152400Y12700D03*
X177800Y12700D03*
X203200Y12700D03*
D13*
X140218Y164602D02*
X134610Y164602D01*
X140218Y164602D02*
X140218Y152898D01*
X134610Y152898D01*
X134610Y164602D01*
X134610Y155292D02*
X140218Y155292D01*
X140218Y157686D02*
X134610Y157686D01*
X134610Y160080D02*
X140218Y160080D01*
X140218Y162474D02*
X134610Y162474D01*
X129804Y164602D02*
X124196Y164602D01*
X129804Y164602D02*
X129804Y152898D01*
X124196Y152898D01*
X124196Y164602D01*
X124196Y155292D02*
X129804Y155292D01*
X129804Y157686D02*
X124196Y157686D01*
X124196Y160080D02*
X129804Y160080D01*
X129804Y162474D02*
X124196Y162474D01*
X119390Y164602D02*
X113782Y164602D01*
X119390Y164602D02*
X119390Y152898D01*
X113782Y152898D01*
X113782Y164602D01*
X113782Y155292D02*
X119390Y155292D01*
X119390Y157686D02*
X113782Y157686D01*
X113782Y160080D02*
X119390Y160080D01*
X119390Y162474D02*
X113782Y162474D01*
X134610Y113802D02*
X140218Y113802D01*
X140218Y102098D01*
X134610Y102098D01*
X134610Y113802D01*
X134610Y104492D02*
X140218Y104492D01*
X140218Y106886D02*
X134610Y106886D01*
X134610Y109280D02*
X140218Y109280D01*
X140218Y111674D02*
X134610Y111674D01*
X129804Y113802D02*
X124196Y113802D01*
X129804Y113802D02*
X129804Y102098D01*
X124196Y102098D01*
X124196Y113802D01*
X124196Y104492D02*
X129804Y104492D01*
X129804Y106886D02*
X124196Y106886D01*
X124196Y109280D02*
X129804Y109280D01*
X129804Y111674D02*
X124196Y111674D01*
X119390Y113802D02*
X113782Y113802D01*
X119390Y113802D02*
X119390Y102098D01*
X113782Y102098D01*
X113782Y113802D01*
X113782Y104492D02*
X119390Y104492D01*
X119390Y106886D02*
X113782Y106886D01*
X113782Y109280D02*
X119390Y109280D01*
X119390Y111674D02*
X113782Y111674D01*
X201539Y146548D02*
X207147Y146548D01*
X201539Y146548D02*
X201539Y158252D01*
X207147Y158252D01*
X207147Y146548D01*
X207147Y148942D02*
X201539Y148942D01*
X201539Y151336D02*
X207147Y151336D01*
X207147Y153730D02*
X201539Y153730D01*
X201539Y156124D02*
X207147Y156124D01*
X211953Y146548D02*
X217561Y146548D01*
X211953Y146548D02*
X211953Y158252D01*
X217561Y158252D01*
X217561Y146548D01*
X217561Y148942D02*
X211953Y148942D01*
X211953Y151336D02*
X217561Y151336D01*
X217561Y153730D02*
X211953Y153730D01*
X211953Y156124D02*
X217561Y156124D01*
X188097Y65268D02*
X182489Y65268D01*
X182489Y76972D01*
X188097Y76972D01*
X188097Y65268D01*
X188097Y67662D02*
X182489Y67662D01*
X182489Y70056D02*
X188097Y70056D01*
X188097Y72450D02*
X182489Y72450D01*
X182489Y74844D02*
X188097Y74844D01*
X192903Y65268D02*
X198511Y65268D01*
X192903Y65268D02*
X192903Y76972D01*
X198511Y76972D01*
X198511Y65268D01*
X198511Y67662D02*
X192903Y67662D01*
X192903Y70056D02*
X198511Y70056D01*
X198511Y72450D02*
X192903Y72450D01*
X192903Y74844D02*
X198511Y74844D01*
M02*
