G04 EAGLE Gerber RS-274X export*
G75*
%MOMM*%
%FSLAX34Y34*%
%LPD*%
%INBottom Copper*%
%IPPOS*%
%AMOC8*
5,1,8,0,0,1.08239X$1,22.5*%
G01*
%ADD10C,0.279400*%
%ADD11C,1.000000*%
%ADD12C,1.879600*%
%ADD13C,0.099059*%
%ADD14C,0.254000*%
%ADD15C,0.660400*%
%ADD16C,0.177800*%
%ADD17C,0.705600*%

G36*
X40896Y2812D02*
X40896Y2812D01*
X41034Y2825D01*
X41053Y2832D01*
X41073Y2835D01*
X41202Y2886D01*
X41333Y2933D01*
X41350Y2944D01*
X41368Y2952D01*
X41481Y3033D01*
X41596Y3112D01*
X41610Y3127D01*
X41626Y3138D01*
X41715Y3246D01*
X41807Y3350D01*
X41816Y3368D01*
X41829Y3383D01*
X41888Y3509D01*
X41951Y3634D01*
X41956Y3653D01*
X41964Y3671D01*
X41990Y3808D01*
X42021Y3944D01*
X42020Y3964D01*
X42024Y3983D01*
X42015Y4122D01*
X42011Y4262D01*
X42005Y4281D01*
X42004Y4301D01*
X41961Y4433D01*
X41922Y4567D01*
X41912Y4584D01*
X41906Y4603D01*
X41831Y4721D01*
X41761Y4841D01*
X41742Y4862D01*
X41736Y4872D01*
X41721Y4886D01*
X41716Y4892D01*
X40589Y6443D01*
X39736Y8117D01*
X39155Y9904D01*
X39115Y10161D01*
X49530Y10161D01*
X49648Y10176D01*
X49767Y10183D01*
X49805Y10196D01*
X49845Y10201D01*
X49956Y10244D01*
X50069Y10281D01*
X50103Y10303D01*
X50141Y10318D01*
X50237Y10388D01*
X50338Y10451D01*
X50366Y10481D01*
X50398Y10504D01*
X50474Y10596D01*
X50556Y10683D01*
X50575Y10718D01*
X50601Y10749D01*
X50652Y10857D01*
X50709Y10961D01*
X50720Y11001D01*
X50737Y11037D01*
X50759Y11154D01*
X50789Y11269D01*
X50793Y11330D01*
X50797Y11350D01*
X50795Y11370D01*
X50799Y11430D01*
X50799Y12701D01*
X52070Y12701D01*
X52188Y12716D01*
X52307Y12723D01*
X52345Y12736D01*
X52385Y12741D01*
X52496Y12785D01*
X52609Y12821D01*
X52644Y12843D01*
X52681Y12858D01*
X52777Y12928D01*
X52878Y12991D01*
X52906Y13021D01*
X52939Y13045D01*
X53014Y13136D01*
X53096Y13223D01*
X53116Y13258D01*
X53141Y13290D01*
X53192Y13397D01*
X53250Y13502D01*
X53260Y13541D01*
X53277Y13577D01*
X53299Y13694D01*
X53329Y13809D01*
X53333Y13870D01*
X53337Y13890D01*
X53335Y13910D01*
X53339Y13970D01*
X53339Y24385D01*
X53596Y24345D01*
X55383Y23764D01*
X57057Y22911D01*
X58578Y21806D01*
X59906Y20478D01*
X61011Y18957D01*
X61864Y17283D01*
X62445Y15496D01*
X62520Y15023D01*
X62555Y14900D01*
X62586Y14774D01*
X62600Y14747D01*
X62608Y14718D01*
X62674Y14607D01*
X62734Y14493D01*
X62755Y14470D01*
X62770Y14444D01*
X62861Y14353D01*
X62948Y14257D01*
X62974Y14241D01*
X62995Y14219D01*
X63106Y14154D01*
X63214Y14082D01*
X63243Y14073D01*
X63269Y14057D01*
X63393Y14021D01*
X63515Y13979D01*
X63545Y13977D01*
X63574Y13968D01*
X63703Y13964D01*
X63832Y13954D01*
X63862Y13959D01*
X63892Y13958D01*
X64018Y13986D01*
X64145Y14008D01*
X64173Y14021D01*
X64202Y14027D01*
X64318Y14086D01*
X64435Y14139D01*
X64459Y14158D01*
X64486Y14172D01*
X64583Y14257D01*
X64684Y14338D01*
X64702Y14362D01*
X64724Y14382D01*
X64797Y14489D01*
X64875Y14592D01*
X64894Y14630D01*
X64903Y14644D01*
X64911Y14665D01*
X64946Y14736D01*
X66725Y19031D01*
X69869Y22175D01*
X73977Y23877D01*
X78423Y23877D01*
X82531Y22175D01*
X85675Y19031D01*
X87377Y14923D01*
X87377Y10477D01*
X85675Y6369D01*
X84268Y4961D01*
X84182Y4852D01*
X84094Y4745D01*
X84085Y4726D01*
X84073Y4710D01*
X84017Y4582D01*
X83958Y4457D01*
X83955Y4437D01*
X83946Y4418D01*
X83925Y4280D01*
X83899Y4144D01*
X83900Y4124D01*
X83897Y4104D01*
X83910Y3965D01*
X83918Y3827D01*
X83925Y3808D01*
X83926Y3788D01*
X83974Y3656D01*
X84016Y3525D01*
X84027Y3507D01*
X84034Y3488D01*
X84112Y3373D01*
X84186Y3256D01*
X84201Y3242D01*
X84213Y3225D01*
X84317Y3133D01*
X84418Y3038D01*
X84436Y3028D01*
X84451Y3015D01*
X84575Y2951D01*
X84697Y2884D01*
X84716Y2879D01*
X84734Y2870D01*
X84870Y2840D01*
X85005Y2805D01*
X85033Y2803D01*
X85045Y2800D01*
X85065Y2801D01*
X85165Y2795D01*
X92635Y2795D01*
X92773Y2812D01*
X92911Y2825D01*
X92930Y2832D01*
X92950Y2835D01*
X93080Y2886D01*
X93210Y2933D01*
X93227Y2944D01*
X93246Y2952D01*
X93358Y3033D01*
X93474Y3111D01*
X93487Y3127D01*
X93503Y3138D01*
X93592Y3246D01*
X93684Y3350D01*
X93693Y3368D01*
X93706Y3383D01*
X93765Y3509D01*
X93829Y3633D01*
X93833Y3653D01*
X93842Y3671D01*
X93868Y3808D01*
X93898Y3943D01*
X93898Y3964D01*
X93901Y3983D01*
X93893Y4122D01*
X93889Y4261D01*
X93883Y4281D01*
X93882Y4301D01*
X93839Y4433D01*
X93800Y4567D01*
X93790Y4584D01*
X93784Y4603D01*
X93709Y4721D01*
X93639Y4841D01*
X93620Y4862D01*
X93614Y4872D01*
X93599Y4886D01*
X93532Y4961D01*
X92125Y6369D01*
X90423Y10477D01*
X90423Y14923D01*
X92125Y19031D01*
X95269Y22175D01*
X99377Y23877D01*
X103823Y23877D01*
X107931Y22175D01*
X111075Y19031D01*
X112777Y14923D01*
X112777Y10477D01*
X111075Y6369D01*
X109668Y4961D01*
X109582Y4852D01*
X109494Y4745D01*
X109485Y4726D01*
X109473Y4710D01*
X109417Y4582D01*
X109358Y4457D01*
X109355Y4437D01*
X109346Y4418D01*
X109325Y4280D01*
X109299Y4144D01*
X109300Y4124D01*
X109297Y4104D01*
X109310Y3965D01*
X109318Y3827D01*
X109325Y3808D01*
X109326Y3788D01*
X109374Y3656D01*
X109416Y3525D01*
X109427Y3507D01*
X109434Y3488D01*
X109512Y3373D01*
X109586Y3256D01*
X109601Y3242D01*
X109613Y3225D01*
X109717Y3133D01*
X109818Y3038D01*
X109836Y3028D01*
X109851Y3015D01*
X109975Y2951D01*
X110097Y2884D01*
X110116Y2879D01*
X110134Y2870D01*
X110270Y2840D01*
X110405Y2805D01*
X110433Y2803D01*
X110445Y2800D01*
X110465Y2801D01*
X110565Y2795D01*
X118035Y2795D01*
X118173Y2812D01*
X118311Y2825D01*
X118330Y2832D01*
X118350Y2835D01*
X118480Y2886D01*
X118610Y2933D01*
X118627Y2944D01*
X118646Y2952D01*
X118758Y3033D01*
X118874Y3111D01*
X118887Y3127D01*
X118903Y3138D01*
X118992Y3246D01*
X119084Y3350D01*
X119093Y3368D01*
X119106Y3383D01*
X119165Y3509D01*
X119229Y3633D01*
X119233Y3653D01*
X119242Y3671D01*
X119268Y3808D01*
X119298Y3943D01*
X119298Y3964D01*
X119301Y3983D01*
X119293Y4122D01*
X119289Y4261D01*
X119283Y4281D01*
X119282Y4301D01*
X119239Y4433D01*
X119200Y4567D01*
X119190Y4584D01*
X119184Y4603D01*
X119109Y4721D01*
X119039Y4841D01*
X119020Y4862D01*
X119014Y4872D01*
X118999Y4886D01*
X118932Y4961D01*
X117525Y6369D01*
X115823Y10477D01*
X115823Y14923D01*
X117525Y19031D01*
X120669Y22175D01*
X124777Y23877D01*
X129223Y23877D01*
X133331Y22175D01*
X136475Y19031D01*
X138177Y14923D01*
X138177Y10477D01*
X136475Y6369D01*
X135068Y4961D01*
X134982Y4852D01*
X134894Y4745D01*
X134885Y4726D01*
X134873Y4710D01*
X134817Y4582D01*
X134758Y4457D01*
X134755Y4437D01*
X134746Y4418D01*
X134725Y4280D01*
X134699Y4144D01*
X134700Y4124D01*
X134697Y4104D01*
X134710Y3965D01*
X134718Y3827D01*
X134725Y3808D01*
X134726Y3788D01*
X134774Y3656D01*
X134816Y3525D01*
X134827Y3507D01*
X134834Y3488D01*
X134912Y3373D01*
X134986Y3256D01*
X135001Y3242D01*
X135013Y3225D01*
X135117Y3133D01*
X135218Y3038D01*
X135236Y3028D01*
X135251Y3015D01*
X135375Y2951D01*
X135497Y2884D01*
X135516Y2879D01*
X135534Y2870D01*
X135670Y2840D01*
X135805Y2805D01*
X135833Y2803D01*
X135845Y2800D01*
X135865Y2801D01*
X135965Y2795D01*
X143435Y2795D01*
X143573Y2812D01*
X143711Y2825D01*
X143730Y2832D01*
X143750Y2835D01*
X143880Y2886D01*
X144010Y2933D01*
X144027Y2944D01*
X144046Y2952D01*
X144158Y3033D01*
X144274Y3111D01*
X144287Y3127D01*
X144303Y3138D01*
X144392Y3246D01*
X144484Y3350D01*
X144493Y3368D01*
X144506Y3383D01*
X144565Y3509D01*
X144629Y3633D01*
X144633Y3653D01*
X144642Y3671D01*
X144668Y3808D01*
X144698Y3943D01*
X144698Y3964D01*
X144701Y3983D01*
X144693Y4122D01*
X144689Y4261D01*
X144683Y4281D01*
X144682Y4301D01*
X144639Y4433D01*
X144600Y4567D01*
X144590Y4584D01*
X144584Y4603D01*
X144509Y4721D01*
X144439Y4841D01*
X144420Y4862D01*
X144414Y4872D01*
X144399Y4886D01*
X144332Y4961D01*
X142925Y6369D01*
X141223Y10477D01*
X141223Y14923D01*
X142925Y19031D01*
X146069Y22175D01*
X150177Y23877D01*
X154623Y23877D01*
X158731Y22175D01*
X161875Y19031D01*
X163577Y14923D01*
X163577Y10477D01*
X161875Y6369D01*
X160468Y4961D01*
X160382Y4852D01*
X160294Y4745D01*
X160285Y4726D01*
X160273Y4710D01*
X160217Y4582D01*
X160158Y4457D01*
X160155Y4437D01*
X160146Y4418D01*
X160125Y4280D01*
X160099Y4144D01*
X160100Y4124D01*
X160097Y4104D01*
X160110Y3965D01*
X160118Y3827D01*
X160125Y3808D01*
X160126Y3788D01*
X160174Y3656D01*
X160216Y3525D01*
X160227Y3507D01*
X160234Y3488D01*
X160312Y3373D01*
X160386Y3256D01*
X160401Y3242D01*
X160413Y3225D01*
X160517Y3133D01*
X160618Y3038D01*
X160636Y3028D01*
X160651Y3015D01*
X160775Y2951D01*
X160897Y2884D01*
X160916Y2879D01*
X160934Y2870D01*
X161070Y2840D01*
X161205Y2805D01*
X161233Y2803D01*
X161245Y2800D01*
X161265Y2801D01*
X161365Y2795D01*
X168835Y2795D01*
X168973Y2812D01*
X169111Y2825D01*
X169130Y2832D01*
X169150Y2835D01*
X169280Y2886D01*
X169410Y2933D01*
X169427Y2944D01*
X169446Y2952D01*
X169558Y3033D01*
X169674Y3111D01*
X169687Y3127D01*
X169703Y3138D01*
X169792Y3246D01*
X169884Y3350D01*
X169893Y3368D01*
X169906Y3383D01*
X169965Y3509D01*
X170029Y3633D01*
X170033Y3653D01*
X170042Y3671D01*
X170068Y3808D01*
X170098Y3943D01*
X170098Y3964D01*
X170101Y3983D01*
X170093Y4122D01*
X170089Y4261D01*
X170083Y4281D01*
X170082Y4301D01*
X170039Y4433D01*
X170000Y4567D01*
X169990Y4584D01*
X169984Y4603D01*
X169909Y4721D01*
X169839Y4841D01*
X169820Y4862D01*
X169814Y4872D01*
X169799Y4886D01*
X169732Y4961D01*
X168325Y6369D01*
X166623Y10477D01*
X166623Y14923D01*
X168325Y19031D01*
X171469Y22175D01*
X175577Y23877D01*
X180023Y23877D01*
X184131Y22175D01*
X187275Y19031D01*
X188977Y14923D01*
X188977Y10477D01*
X187275Y6369D01*
X185868Y4961D01*
X185782Y4852D01*
X185694Y4745D01*
X185685Y4726D01*
X185673Y4710D01*
X185617Y4582D01*
X185558Y4457D01*
X185555Y4437D01*
X185546Y4418D01*
X185525Y4280D01*
X185499Y4144D01*
X185500Y4124D01*
X185497Y4104D01*
X185510Y3965D01*
X185518Y3827D01*
X185525Y3808D01*
X185526Y3788D01*
X185574Y3656D01*
X185616Y3525D01*
X185627Y3507D01*
X185634Y3488D01*
X185712Y3373D01*
X185786Y3256D01*
X185801Y3242D01*
X185813Y3225D01*
X185917Y3133D01*
X186018Y3038D01*
X186036Y3028D01*
X186051Y3015D01*
X186175Y2951D01*
X186297Y2884D01*
X186316Y2879D01*
X186334Y2870D01*
X186470Y2840D01*
X186605Y2805D01*
X186633Y2803D01*
X186645Y2800D01*
X186665Y2801D01*
X186765Y2795D01*
X194235Y2795D01*
X194373Y2812D01*
X194511Y2825D01*
X194530Y2832D01*
X194550Y2835D01*
X194680Y2886D01*
X194810Y2933D01*
X194827Y2944D01*
X194846Y2952D01*
X194958Y3033D01*
X195074Y3111D01*
X195087Y3127D01*
X195103Y3138D01*
X195192Y3246D01*
X195284Y3350D01*
X195293Y3368D01*
X195306Y3383D01*
X195365Y3509D01*
X195429Y3633D01*
X195433Y3653D01*
X195442Y3671D01*
X195468Y3808D01*
X195498Y3943D01*
X195498Y3964D01*
X195501Y3983D01*
X195493Y4122D01*
X195489Y4261D01*
X195483Y4281D01*
X195482Y4301D01*
X195439Y4433D01*
X195400Y4567D01*
X195390Y4584D01*
X195384Y4603D01*
X195309Y4721D01*
X195239Y4841D01*
X195220Y4862D01*
X195214Y4872D01*
X195199Y4886D01*
X195132Y4961D01*
X193725Y6369D01*
X192023Y10477D01*
X192023Y14923D01*
X193725Y19031D01*
X196869Y22175D01*
X200977Y23877D01*
X205423Y23877D01*
X209531Y22175D01*
X212675Y19031D01*
X214377Y14923D01*
X214377Y10477D01*
X212675Y6369D01*
X211268Y4961D01*
X211182Y4852D01*
X211094Y4745D01*
X211085Y4726D01*
X211073Y4710D01*
X211017Y4582D01*
X210958Y4457D01*
X210955Y4437D01*
X210946Y4418D01*
X210925Y4280D01*
X210899Y4144D01*
X210900Y4124D01*
X210897Y4104D01*
X210910Y3965D01*
X210918Y3827D01*
X210925Y3808D01*
X210926Y3788D01*
X210974Y3656D01*
X211016Y3525D01*
X211027Y3507D01*
X211034Y3488D01*
X211112Y3373D01*
X211186Y3256D01*
X211201Y3242D01*
X211213Y3225D01*
X211317Y3133D01*
X211418Y3038D01*
X211436Y3028D01*
X211451Y3015D01*
X211575Y2951D01*
X211697Y2884D01*
X211716Y2879D01*
X211734Y2870D01*
X211870Y2840D01*
X212005Y2805D01*
X212033Y2803D01*
X212045Y2800D01*
X212065Y2801D01*
X212165Y2795D01*
X249936Y2795D01*
X250054Y2810D01*
X250173Y2817D01*
X250211Y2830D01*
X250252Y2835D01*
X250362Y2878D01*
X250475Y2915D01*
X250510Y2937D01*
X250547Y2952D01*
X250643Y3021D01*
X250744Y3085D01*
X250772Y3115D01*
X250805Y3138D01*
X250881Y3230D01*
X250962Y3317D01*
X250982Y3352D01*
X251007Y3383D01*
X251058Y3491D01*
X251116Y3595D01*
X251126Y3635D01*
X251143Y3671D01*
X251165Y3788D01*
X251195Y3903D01*
X251199Y3963D01*
X251203Y3983D01*
X251201Y4004D01*
X251205Y4064D01*
X251205Y29859D01*
X251204Y29869D01*
X251205Y29879D01*
X251184Y30026D01*
X251165Y30175D01*
X251162Y30184D01*
X251160Y30194D01*
X251103Y30331D01*
X251048Y30470D01*
X251043Y30479D01*
X251039Y30488D01*
X250949Y30607D01*
X250862Y30728D01*
X250854Y30734D01*
X250848Y30742D01*
X250732Y30835D01*
X250617Y30931D01*
X250607Y30935D01*
X250600Y30941D01*
X250464Y31003D01*
X250329Y31066D01*
X250319Y31068D01*
X250310Y31072D01*
X250162Y31098D01*
X250017Y31126D01*
X250007Y31125D01*
X249997Y31127D01*
X249847Y31115D01*
X249699Y31106D01*
X249690Y31103D01*
X249680Y31102D01*
X249524Y31060D01*
X248001Y30537D01*
X247997Y30536D01*
X247856Y30478D01*
X246514Y29823D01*
X243068Y29028D01*
X239532Y29028D01*
X236086Y29823D01*
X235926Y29901D01*
X235796Y29946D01*
X235669Y29994D01*
X235638Y29999D01*
X235625Y30004D01*
X235604Y30005D01*
X235510Y30022D01*
X235472Y30026D01*
X235391Y30095D01*
X235306Y30178D01*
X235271Y30198D01*
X235239Y30225D01*
X235100Y30304D01*
X234748Y30476D01*
X234747Y30476D01*
X234743Y30478D01*
X234739Y30479D01*
X234599Y30538D01*
X232962Y31099D01*
X230631Y34362D01*
X230631Y38372D01*
X232962Y41634D01*
X234599Y42196D01*
X234603Y42198D01*
X234743Y42255D01*
X236086Y42910D01*
X239532Y43705D01*
X243068Y43705D01*
X245729Y43091D01*
X245852Y43079D01*
X245974Y43059D01*
X246009Y43063D01*
X246045Y43059D01*
X246167Y43078D01*
X246290Y43089D01*
X246324Y43101D01*
X246359Y43107D01*
X246473Y43155D01*
X246590Y43197D01*
X246619Y43217D01*
X246652Y43231D01*
X246751Y43306D01*
X246853Y43375D01*
X246877Y43402D01*
X246905Y43424D01*
X246982Y43521D01*
X247063Y43614D01*
X247080Y43646D01*
X247102Y43674D01*
X247152Y43787D01*
X247208Y43897D01*
X247216Y43932D01*
X247230Y43965D01*
X247250Y44087D01*
X247278Y44207D01*
X247276Y44243D01*
X247282Y44278D01*
X247272Y44401D01*
X247268Y44525D01*
X247258Y44560D01*
X247255Y44595D01*
X247214Y44712D01*
X247179Y44831D01*
X247161Y44861D01*
X247149Y44895D01*
X247081Y44998D01*
X247018Y45105D01*
X246983Y45144D01*
X246973Y45160D01*
X246957Y45174D01*
X246912Y45225D01*
X245617Y46520D01*
X245617Y47553D01*
X245602Y47671D01*
X245595Y47790D01*
X245582Y47828D01*
X245577Y47868D01*
X245534Y47979D01*
X245497Y48092D01*
X245475Y48126D01*
X245460Y48164D01*
X245391Y48260D01*
X245327Y48361D01*
X245297Y48389D01*
X245274Y48421D01*
X245182Y48497D01*
X245095Y48579D01*
X245060Y48598D01*
X245029Y48624D01*
X244921Y48675D01*
X244817Y48732D01*
X244777Y48743D01*
X244741Y48760D01*
X244624Y48782D01*
X244509Y48812D01*
X244449Y48816D01*
X244429Y48820D01*
X244408Y48818D01*
X244348Y48822D01*
X234053Y48822D01*
X234039Y48820D01*
X233913Y48814D01*
X232801Y48691D01*
X232770Y48710D01*
X232742Y48718D01*
X232716Y48732D01*
X232590Y48765D01*
X232530Y48783D01*
X231736Y49578D01*
X231724Y49587D01*
X231631Y49672D01*
X230757Y50371D01*
X230748Y50407D01*
X230735Y50432D01*
X230727Y50460D01*
X230661Y50572D01*
X230631Y50628D01*
X230631Y51752D01*
X230629Y51766D01*
X230624Y51892D01*
X230500Y53004D01*
X230519Y53035D01*
X230528Y53063D01*
X230542Y53088D01*
X230556Y53145D01*
X230569Y53172D01*
X230582Y53240D01*
X230593Y53275D01*
X231387Y54069D01*
X231396Y54080D01*
X231481Y54174D01*
X235610Y59335D01*
X235631Y59346D01*
X235700Y59409D01*
X235776Y59465D01*
X235817Y59516D01*
X235866Y59560D01*
X235917Y59639D01*
X235977Y59711D01*
X236005Y59771D01*
X236041Y59826D01*
X236071Y59915D01*
X236110Y60000D01*
X236122Y60065D01*
X236144Y60127D01*
X236151Y60221D01*
X236168Y60313D01*
X236163Y60378D01*
X236169Y60444D01*
X236152Y60536D01*
X236146Y60630D01*
X236117Y60740D01*
X236114Y60757D01*
X236110Y60766D01*
X236105Y60786D01*
X235374Y62979D01*
X236633Y65498D01*
X236643Y65526D01*
X236658Y65552D01*
X236696Y65676D01*
X236739Y65798D01*
X236741Y65828D01*
X236750Y65857D01*
X236755Y65986D01*
X236766Y66115D01*
X236761Y66144D01*
X236762Y66174D01*
X236735Y66301D01*
X236714Y66429D01*
X236702Y66456D01*
X236696Y66485D01*
X236633Y66634D01*
X235374Y69152D01*
X236206Y71648D01*
X238559Y72825D01*
X248392Y69547D01*
X248401Y69545D01*
X248409Y69542D01*
X248556Y69514D01*
X248704Y69485D01*
X248713Y69486D01*
X248722Y69484D01*
X248871Y69494D01*
X249021Y69503D01*
X249368Y69329D01*
X249458Y69297D01*
X249543Y69257D01*
X249607Y69245D01*
X249668Y69223D01*
X249763Y69215D01*
X249856Y69197D01*
X249920Y69201D01*
X249985Y69196D01*
X250078Y69211D01*
X250173Y69217D01*
X250235Y69237D01*
X250299Y69248D01*
X250385Y69286D01*
X250475Y69315D01*
X250530Y69350D01*
X250590Y69376D01*
X250664Y69435D01*
X250744Y69485D01*
X250789Y69533D01*
X250840Y69573D01*
X250897Y69648D01*
X250962Y69717D01*
X250993Y69774D01*
X251033Y69825D01*
X251070Y69913D01*
X251116Y69995D01*
X251132Y70058D01*
X251157Y70118D01*
X251171Y70212D01*
X251195Y70303D01*
X251202Y70414D01*
X251205Y70433D01*
X251204Y70442D01*
X251205Y70464D01*
X251205Y249936D01*
X251190Y250054D01*
X251183Y250173D01*
X251170Y250211D01*
X251165Y250252D01*
X251122Y250362D01*
X251085Y250475D01*
X251063Y250510D01*
X251048Y250547D01*
X250979Y250643D01*
X250915Y250744D01*
X250885Y250772D01*
X250862Y250805D01*
X250770Y250881D01*
X250683Y250962D01*
X250648Y250982D01*
X250617Y251007D01*
X250509Y251058D01*
X250405Y251116D01*
X250365Y251126D01*
X250329Y251143D01*
X250212Y251165D01*
X250097Y251195D01*
X250037Y251199D01*
X250017Y251203D01*
X249996Y251201D01*
X249936Y251205D01*
X4064Y251205D01*
X3946Y251190D01*
X3827Y251183D01*
X3789Y251170D01*
X3748Y251165D01*
X3638Y251122D01*
X3525Y251085D01*
X3490Y251063D01*
X3453Y251048D01*
X3357Y250979D01*
X3256Y250915D01*
X3228Y250885D01*
X3195Y250862D01*
X3119Y250770D01*
X3038Y250683D01*
X3018Y250648D01*
X2993Y250617D01*
X2942Y250509D01*
X2884Y250405D01*
X2874Y250365D01*
X2857Y250329D01*
X2835Y250212D01*
X2805Y250097D01*
X2801Y250037D01*
X2797Y250017D01*
X2799Y249996D01*
X2795Y249936D01*
X2795Y4064D01*
X2810Y3946D01*
X2817Y3827D01*
X2830Y3789D01*
X2835Y3748D01*
X2878Y3638D01*
X2915Y3525D01*
X2937Y3490D01*
X2952Y3453D01*
X3021Y3357D01*
X3085Y3256D01*
X3115Y3228D01*
X3138Y3195D01*
X3230Y3119D01*
X3317Y3038D01*
X3352Y3018D01*
X3383Y2993D01*
X3491Y2942D01*
X3595Y2884D01*
X3635Y2874D01*
X3671Y2857D01*
X3788Y2835D01*
X3903Y2805D01*
X3963Y2801D01*
X3983Y2797D01*
X4004Y2799D01*
X4064Y2795D01*
X40757Y2795D01*
X40896Y2812D01*
G37*
%LPC*%
G36*
X138689Y49529D02*
X138689Y49529D01*
X136822Y50303D01*
X135935Y51190D01*
X135857Y51250D01*
X135785Y51318D01*
X135732Y51347D01*
X135684Y51384D01*
X135593Y51424D01*
X135506Y51472D01*
X135448Y51487D01*
X135392Y51511D01*
X135294Y51526D01*
X135198Y51551D01*
X135098Y51557D01*
X135078Y51561D01*
X135066Y51559D01*
X135038Y51561D01*
X114307Y51561D01*
X60451Y105417D01*
X60451Y107338D01*
X60439Y107436D01*
X60436Y107535D01*
X60419Y107593D01*
X60411Y107653D01*
X60375Y107745D01*
X60347Y107840D01*
X60317Y107893D01*
X60294Y107949D01*
X60236Y108029D01*
X60186Y108114D01*
X60120Y108190D01*
X60108Y108206D01*
X60098Y108214D01*
X60080Y108235D01*
X59193Y109122D01*
X58419Y110989D01*
X58419Y113011D01*
X59193Y114878D01*
X60622Y116307D01*
X62489Y117081D01*
X64511Y117081D01*
X66378Y116307D01*
X67807Y114878D01*
X68581Y113011D01*
X68581Y110989D01*
X67807Y109122D01*
X67486Y108801D01*
X67413Y108707D01*
X67334Y108617D01*
X67316Y108581D01*
X67291Y108549D01*
X67244Y108440D01*
X67190Y108334D01*
X67181Y108295D01*
X67165Y108258D01*
X67146Y108140D01*
X67120Y108024D01*
X67121Y107983D01*
X67115Y107943D01*
X67126Y107825D01*
X67130Y107706D01*
X67141Y107667D01*
X67145Y107627D01*
X67185Y107515D01*
X67218Y107400D01*
X67238Y107366D01*
X67252Y107328D01*
X67319Y107229D01*
X67379Y107126D01*
X67419Y107081D01*
X67431Y107064D01*
X67446Y107051D01*
X67486Y107006D01*
X116461Y58030D01*
X116539Y57970D01*
X116611Y57902D01*
X116664Y57873D01*
X116712Y57836D01*
X116803Y57796D01*
X116890Y57748D01*
X116949Y57733D01*
X117004Y57709D01*
X117102Y57694D01*
X117198Y57669D01*
X117298Y57663D01*
X117318Y57659D01*
X117331Y57661D01*
X117359Y57659D01*
X135038Y57659D01*
X135136Y57671D01*
X135235Y57674D01*
X135293Y57691D01*
X135353Y57699D01*
X135445Y57735D01*
X135540Y57763D01*
X135593Y57793D01*
X135649Y57816D01*
X135729Y57874D01*
X135814Y57924D01*
X135890Y57990D01*
X135906Y58002D01*
X135914Y58012D01*
X135935Y58030D01*
X136822Y58917D01*
X138689Y59691D01*
X140711Y59691D01*
X142578Y58917D01*
X142779Y58716D01*
X142873Y58643D01*
X142963Y58564D01*
X142999Y58546D01*
X143031Y58521D01*
X143140Y58474D01*
X143246Y58420D01*
X143285Y58411D01*
X143322Y58395D01*
X143440Y58376D01*
X143556Y58350D01*
X143597Y58351D01*
X143637Y58345D01*
X143755Y58356D01*
X143874Y58360D01*
X143913Y58371D01*
X143953Y58375D01*
X144065Y58415D01*
X144180Y58448D01*
X144214Y58468D01*
X144252Y58482D01*
X144351Y58549D01*
X144454Y58609D01*
X144499Y58649D01*
X144516Y58661D01*
X144529Y58676D01*
X144574Y58716D01*
X187080Y101221D01*
X187140Y101299D01*
X187208Y101371D01*
X187237Y101424D01*
X187274Y101472D01*
X187314Y101563D01*
X187362Y101650D01*
X187377Y101709D01*
X187401Y101764D01*
X187416Y101862D01*
X187441Y101958D01*
X187447Y102058D01*
X187451Y102078D01*
X187449Y102091D01*
X187451Y102119D01*
X187451Y137338D01*
X187439Y137436D01*
X187436Y137535D01*
X187430Y137555D01*
X187429Y137572D01*
X187417Y137609D01*
X187411Y137653D01*
X187375Y137745D01*
X187347Y137840D01*
X187335Y137861D01*
X187331Y137875D01*
X187312Y137905D01*
X187294Y137949D01*
X187236Y138029D01*
X187186Y138114D01*
X187162Y138142D01*
X187161Y138143D01*
X187159Y138145D01*
X187120Y138190D01*
X187108Y138206D01*
X187098Y138214D01*
X187080Y138235D01*
X186193Y139122D01*
X185419Y140989D01*
X185419Y143011D01*
X186193Y144878D01*
X187622Y146307D01*
X189489Y147081D01*
X191511Y147081D01*
X193378Y146307D01*
X194807Y144878D01*
X195581Y143011D01*
X195581Y140989D01*
X194807Y139122D01*
X193920Y138235D01*
X193860Y138157D01*
X193792Y138085D01*
X193768Y138042D01*
X193747Y138016D01*
X193741Y138004D01*
X193726Y137984D01*
X193686Y137893D01*
X193638Y137806D01*
X193627Y137762D01*
X193611Y137728D01*
X193608Y137713D01*
X193599Y137692D01*
X193584Y137594D01*
X193559Y137498D01*
X193555Y137434D01*
X193551Y137416D01*
X193552Y137397D01*
X193549Y137378D01*
X193551Y137366D01*
X193549Y137338D01*
X193549Y99067D01*
X146043Y51561D01*
X144362Y51561D01*
X144264Y51549D01*
X144165Y51546D01*
X144107Y51529D01*
X144047Y51521D01*
X143955Y51485D01*
X143860Y51457D01*
X143807Y51427D01*
X143751Y51404D01*
X143671Y51346D01*
X143586Y51296D01*
X143510Y51230D01*
X143494Y51218D01*
X143486Y51208D01*
X143465Y51190D01*
X142578Y50303D01*
X140711Y49529D01*
X138689Y49529D01*
G37*
%LPD*%
%LPC*%
G36*
X224709Y209041D02*
X224709Y209041D01*
X217521Y212019D01*
X212145Y217394D01*
X212036Y217480D01*
X211929Y217568D01*
X211910Y217577D01*
X211894Y217589D01*
X211766Y217645D01*
X211641Y217704D01*
X211621Y217708D01*
X211602Y217716D01*
X211464Y217738D01*
X211328Y217764D01*
X211308Y217762D01*
X211288Y217765D01*
X211149Y217752D01*
X211011Y217744D01*
X210992Y217738D01*
X210972Y217736D01*
X210840Y217688D01*
X210709Y217646D01*
X210691Y217635D01*
X210672Y217628D01*
X210557Y217550D01*
X210440Y217476D01*
X210426Y217461D01*
X210409Y217449D01*
X210317Y217345D01*
X210222Y217244D01*
X210212Y217226D01*
X210199Y217211D01*
X210135Y217087D01*
X210068Y216965D01*
X210063Y216946D01*
X210054Y216928D01*
X210024Y216792D01*
X209989Y216658D01*
X209987Y216629D01*
X209984Y216617D01*
X209985Y216597D01*
X209979Y216497D01*
X209979Y214552D01*
X208947Y212060D01*
X207040Y210153D01*
X204548Y209121D01*
X201852Y209121D01*
X199360Y210153D01*
X197453Y212060D01*
X196421Y214552D01*
X196421Y217248D01*
X197453Y219740D01*
X199360Y221647D01*
X201852Y222679D01*
X204548Y222679D01*
X207040Y221647D01*
X208110Y220576D01*
X208165Y220534D01*
X208214Y220483D01*
X208291Y220436D01*
X208361Y220381D01*
X208425Y220354D01*
X208485Y220317D01*
X208571Y220291D01*
X208653Y220255D01*
X208722Y220244D01*
X208789Y220224D01*
X208878Y220219D01*
X208967Y220205D01*
X209037Y220212D01*
X209107Y220208D01*
X209194Y220227D01*
X209284Y220235D01*
X209350Y220259D01*
X209418Y220273D01*
X209499Y220312D01*
X209583Y220343D01*
X209641Y220382D01*
X209704Y220412D01*
X209772Y220471D01*
X209846Y220521D01*
X209893Y220574D01*
X209946Y220619D01*
X209998Y220692D01*
X210057Y220760D01*
X210089Y220822D01*
X210129Y220879D01*
X210161Y220963D01*
X210202Y221043D01*
X210217Y221111D01*
X210242Y221176D01*
X210252Y221266D01*
X210271Y221353D01*
X210269Y221423D01*
X210277Y221492D01*
X210264Y221581D01*
X210262Y221671D01*
X210242Y221738D01*
X210232Y221807D01*
X210180Y221960D01*
X209041Y224709D01*
X209041Y232491D01*
X212019Y239679D01*
X217521Y245181D01*
X224709Y248159D01*
X232491Y248159D01*
X239679Y245181D01*
X245181Y239679D01*
X248159Y232491D01*
X248159Y224709D01*
X245181Y217521D01*
X239679Y212019D01*
X232491Y209041D01*
X224709Y209041D01*
G37*
%LPD*%
%LPC*%
G36*
X151389Y97789D02*
X151389Y97789D01*
X149522Y98563D01*
X148093Y99992D01*
X147319Y101859D01*
X147319Y103881D01*
X148093Y105748D01*
X148980Y106635D01*
X149040Y106713D01*
X149108Y106785D01*
X149137Y106838D01*
X149174Y106886D01*
X149214Y106977D01*
X149262Y107064D01*
X149277Y107122D01*
X149301Y107178D01*
X149316Y107276D01*
X149341Y107372D01*
X149347Y107472D01*
X149351Y107492D01*
X149349Y107504D01*
X149351Y107532D01*
X149351Y127842D01*
X149339Y127940D01*
X149336Y128039D01*
X149319Y128097D01*
X149311Y128157D01*
X149275Y128249D01*
X149247Y128344D01*
X149217Y128397D01*
X149194Y128453D01*
X149136Y128533D01*
X149086Y128618D01*
X149020Y128694D01*
X149008Y128710D01*
X148998Y128718D01*
X148980Y128739D01*
X127469Y150250D01*
X127391Y150310D01*
X127319Y150378D01*
X127266Y150407D01*
X127218Y150444D01*
X127127Y150484D01*
X127040Y150532D01*
X126982Y150547D01*
X126926Y150571D01*
X126828Y150586D01*
X126732Y150611D01*
X126632Y150617D01*
X126612Y150621D01*
X126600Y150619D01*
X126572Y150621D01*
X123251Y150621D01*
X122691Y151182D01*
X122597Y151255D01*
X122507Y151334D01*
X122471Y151352D01*
X122439Y151377D01*
X122330Y151424D01*
X122224Y151478D01*
X122185Y151487D01*
X122147Y151503D01*
X122030Y151522D01*
X121914Y151548D01*
X121873Y151547D01*
X121833Y151553D01*
X121715Y151542D01*
X121596Y151538D01*
X121557Y151527D01*
X121517Y151523D01*
X121404Y151483D01*
X121290Y151450D01*
X121256Y151430D01*
X121217Y151416D01*
X121119Y151349D01*
X121016Y151289D01*
X120971Y151249D01*
X120954Y151237D01*
X120941Y151222D01*
X120896Y151182D01*
X120335Y150621D01*
X112837Y150621D01*
X111505Y151953D01*
X111505Y154432D01*
X111490Y154550D01*
X111483Y154669D01*
X111470Y154707D01*
X111465Y154748D01*
X111422Y154858D01*
X111385Y154971D01*
X111363Y155006D01*
X111348Y155043D01*
X111279Y155139D01*
X111215Y155240D01*
X111185Y155268D01*
X111162Y155301D01*
X111070Y155377D01*
X110983Y155458D01*
X110948Y155478D01*
X110917Y155503D01*
X110809Y155554D01*
X110705Y155612D01*
X110665Y155622D01*
X110629Y155639D01*
X110543Y155655D01*
X100054Y166145D01*
X99976Y166205D01*
X99903Y166273D01*
X99850Y166302D01*
X99803Y166340D01*
X99712Y166379D01*
X99625Y166427D01*
X99566Y166442D01*
X99511Y166466D01*
X99413Y166481D01*
X99317Y166506D01*
X99217Y166513D01*
X99197Y166516D01*
X99184Y166515D01*
X99156Y166516D01*
X97902Y166516D01*
X96035Y167290D01*
X94606Y168719D01*
X93832Y170586D01*
X93832Y172608D01*
X94606Y174475D01*
X96035Y175904D01*
X97902Y176678D01*
X99924Y176678D01*
X101791Y175904D01*
X103220Y174475D01*
X103994Y172608D01*
X103994Y171354D01*
X104006Y171255D01*
X104009Y171156D01*
X104026Y171098D01*
X104033Y171038D01*
X104070Y170946D01*
X104097Y170851D01*
X104128Y170799D01*
X104151Y170742D01*
X104209Y170662D01*
X104259Y170577D01*
X104325Y170502D01*
X104337Y170485D01*
X104347Y170477D01*
X104365Y170456D01*
X109493Y165329D01*
X109587Y165256D01*
X109676Y165177D01*
X109712Y165159D01*
X109744Y165134D01*
X109853Y165087D01*
X109959Y165033D01*
X109999Y165024D01*
X110036Y165008D01*
X110153Y164989D01*
X110269Y164963D01*
X110310Y164964D01*
X110350Y164958D01*
X110468Y164969D01*
X110587Y164973D01*
X110626Y164984D01*
X110666Y164988D01*
X110779Y165028D01*
X110893Y165061D01*
X110928Y165082D01*
X110966Y165095D01*
X111064Y165162D01*
X111167Y165223D01*
X111212Y165262D01*
X111229Y165274D01*
X111242Y165289D01*
X111288Y165329D01*
X112837Y166879D01*
X120335Y166879D01*
X120896Y166318D01*
X120990Y166245D01*
X121079Y166166D01*
X121115Y166148D01*
X121147Y166123D01*
X121256Y166076D01*
X121362Y166022D01*
X121401Y166013D01*
X121439Y165997D01*
X121556Y165978D01*
X121672Y165952D01*
X121713Y165953D01*
X121753Y165947D01*
X121871Y165958D01*
X121990Y165962D01*
X122029Y165973D01*
X122069Y165977D01*
X122181Y166017D01*
X122296Y166050D01*
X122331Y166070D01*
X122369Y166084D01*
X122467Y166151D01*
X122570Y166211D01*
X122615Y166251D01*
X122632Y166263D01*
X122645Y166278D01*
X122691Y166318D01*
X123251Y166879D01*
X130749Y166879D01*
X131310Y166318D01*
X131404Y166245D01*
X131493Y166166D01*
X131529Y166148D01*
X131561Y166123D01*
X131670Y166076D01*
X131776Y166022D01*
X131815Y166013D01*
X131853Y165997D01*
X131970Y165978D01*
X132086Y165952D01*
X132127Y165953D01*
X132167Y165947D01*
X132285Y165958D01*
X132404Y165962D01*
X132443Y165973D01*
X132483Y165977D01*
X132595Y166017D01*
X132710Y166050D01*
X132745Y166070D01*
X132783Y166084D01*
X132881Y166151D01*
X132984Y166211D01*
X133029Y166251D01*
X133046Y166263D01*
X133059Y166278D01*
X133105Y166318D01*
X133665Y166879D01*
X141163Y166879D01*
X142712Y165329D01*
X142807Y165256D01*
X142896Y165177D01*
X142932Y165159D01*
X142964Y165134D01*
X143073Y165087D01*
X143179Y165033D01*
X143218Y165024D01*
X143256Y165008D01*
X143373Y164989D01*
X143489Y164963D01*
X143530Y164964D01*
X143570Y164958D01*
X143688Y164969D01*
X143807Y164973D01*
X143846Y164984D01*
X143886Y164988D01*
X143998Y165028D01*
X144113Y165061D01*
X144147Y165082D01*
X144186Y165095D01*
X144284Y165162D01*
X144387Y165223D01*
X144432Y165262D01*
X144449Y165274D01*
X144462Y165289D01*
X144507Y165329D01*
X149635Y170456D01*
X149695Y170534D01*
X149763Y170607D01*
X149792Y170660D01*
X149830Y170707D01*
X149869Y170798D01*
X149917Y170885D01*
X149932Y170944D01*
X149956Y170999D01*
X149971Y171097D01*
X149996Y171193D01*
X150003Y171293D01*
X150006Y171313D01*
X150005Y171326D01*
X150006Y171354D01*
X150006Y172608D01*
X150780Y174475D01*
X152209Y175904D01*
X154076Y176678D01*
X156098Y176678D01*
X157965Y175904D01*
X159394Y174475D01*
X160168Y172608D01*
X160168Y170586D01*
X159394Y168719D01*
X157965Y167290D01*
X156098Y166516D01*
X154844Y166516D01*
X154745Y166504D01*
X154646Y166501D01*
X154588Y166484D01*
X154528Y166477D01*
X154436Y166440D01*
X154341Y166413D01*
X154289Y166382D01*
X154232Y166359D01*
X154152Y166301D01*
X154067Y166251D01*
X153992Y166185D01*
X153975Y166173D01*
X153967Y166163D01*
X153946Y166145D01*
X143465Y155664D01*
X143448Y155661D01*
X143338Y155618D01*
X143225Y155581D01*
X143190Y155559D01*
X143153Y155544D01*
X143057Y155475D01*
X142956Y155411D01*
X142928Y155381D01*
X142895Y155358D01*
X142819Y155266D01*
X142738Y155179D01*
X142718Y155144D01*
X142693Y155113D01*
X142642Y155005D01*
X142584Y154901D01*
X142574Y154861D01*
X142557Y154825D01*
X142535Y154708D01*
X142505Y154593D01*
X142501Y154533D01*
X142497Y154513D01*
X142499Y154492D01*
X142495Y154432D01*
X142495Y151953D01*
X141163Y150621D01*
X138785Y150621D01*
X138647Y150604D01*
X138508Y150591D01*
X138489Y150584D01*
X138469Y150581D01*
X138340Y150530D01*
X138209Y150483D01*
X138192Y150472D01*
X138174Y150464D01*
X138062Y150383D01*
X137946Y150305D01*
X137933Y150289D01*
X137916Y150278D01*
X137828Y150170D01*
X137736Y150066D01*
X137726Y150048D01*
X137713Y150033D01*
X137654Y149907D01*
X137591Y149783D01*
X137587Y149763D01*
X137578Y149745D01*
X137552Y149609D01*
X137521Y149473D01*
X137522Y149452D01*
X137518Y149433D01*
X137527Y149294D01*
X137531Y149155D01*
X137537Y149135D01*
X137538Y149115D01*
X137581Y148983D01*
X137619Y148849D01*
X137630Y148832D01*
X137636Y148813D01*
X137710Y148695D01*
X137781Y148575D01*
X137800Y148554D01*
X137806Y148544D01*
X137821Y148530D01*
X137887Y148455D01*
X155449Y130893D01*
X155449Y107532D01*
X155461Y107434D01*
X155464Y107335D01*
X155481Y107277D01*
X155489Y107217D01*
X155525Y107125D01*
X155553Y107030D01*
X155583Y106977D01*
X155606Y106921D01*
X155664Y106841D01*
X155714Y106756D01*
X155780Y106680D01*
X155792Y106664D01*
X155802Y106656D01*
X155820Y106635D01*
X156707Y105748D01*
X157481Y103881D01*
X157481Y101859D01*
X156707Y99992D01*
X155278Y98563D01*
X153411Y97789D01*
X151389Y97789D01*
G37*
%LPD*%
%LPC*%
G36*
X21509Y209041D02*
X21509Y209041D01*
X14321Y212019D01*
X8819Y217521D01*
X5841Y224709D01*
X5841Y232491D01*
X8819Y239679D01*
X14321Y245181D01*
X21509Y248159D01*
X29291Y248159D01*
X36479Y245181D01*
X41981Y239679D01*
X44959Y232491D01*
X44959Y224709D01*
X41981Y217521D01*
X36479Y212019D01*
X29291Y209041D01*
X21509Y209041D01*
G37*
%LPD*%
%LPC*%
G36*
X123449Y77469D02*
X123449Y77469D01*
X121582Y78243D01*
X120695Y79130D01*
X120617Y79190D01*
X120545Y79258D01*
X120492Y79287D01*
X120444Y79324D01*
X120353Y79364D01*
X120266Y79412D01*
X120208Y79427D01*
X120152Y79451D01*
X120054Y79466D01*
X119958Y79491D01*
X119858Y79497D01*
X119838Y79501D01*
X119826Y79499D01*
X119798Y79501D01*
X106597Y79501D01*
X73081Y113017D01*
X73081Y117408D01*
X73069Y117506D01*
X73066Y117605D01*
X73049Y117663D01*
X73041Y117723D01*
X73005Y117816D01*
X72977Y117911D01*
X72947Y117963D01*
X72924Y118019D01*
X72866Y118099D01*
X72816Y118185D01*
X72749Y118260D01*
X72737Y118276D01*
X72728Y118284D01*
X72709Y118305D01*
X71823Y119192D01*
X71049Y121059D01*
X71049Y123081D01*
X71823Y124948D01*
X73252Y126377D01*
X75119Y127151D01*
X77141Y127151D01*
X79008Y126377D01*
X80437Y124948D01*
X81211Y123081D01*
X81211Y121059D01*
X80437Y119192D01*
X79550Y118305D01*
X79490Y118227D01*
X79422Y118155D01*
X79393Y118102D01*
X79355Y118054D01*
X79316Y117963D01*
X79268Y117877D01*
X79253Y117818D01*
X79229Y117762D01*
X79214Y117664D01*
X79189Y117569D01*
X79182Y117469D01*
X79179Y117448D01*
X79180Y117436D01*
X79179Y117408D01*
X79179Y116068D01*
X79191Y115970D01*
X79194Y115871D01*
X79211Y115813D01*
X79218Y115753D01*
X79255Y115661D01*
X79282Y115566D01*
X79313Y115514D01*
X79335Y115457D01*
X79394Y115377D01*
X79444Y115292D01*
X79510Y115216D01*
X79522Y115200D01*
X79532Y115192D01*
X79550Y115171D01*
X108751Y85970D01*
X108829Y85910D01*
X108901Y85842D01*
X108954Y85813D01*
X109002Y85776D01*
X109093Y85736D01*
X109180Y85688D01*
X109238Y85673D01*
X109294Y85649D01*
X109392Y85634D01*
X109488Y85609D01*
X109588Y85603D01*
X109608Y85599D01*
X109620Y85601D01*
X109648Y85599D01*
X119798Y85599D01*
X119896Y85611D01*
X119995Y85614D01*
X120053Y85631D01*
X120113Y85639D01*
X120205Y85675D01*
X120300Y85703D01*
X120353Y85733D01*
X120409Y85756D01*
X120489Y85814D01*
X120574Y85864D01*
X120650Y85930D01*
X120666Y85942D01*
X120674Y85952D01*
X120695Y85970D01*
X121582Y86857D01*
X123449Y87631D01*
X125471Y87631D01*
X127338Y86857D01*
X128225Y85970D01*
X128303Y85910D01*
X128375Y85842D01*
X128428Y85813D01*
X128476Y85776D01*
X128567Y85736D01*
X128654Y85688D01*
X128712Y85673D01*
X128768Y85649D01*
X128866Y85634D01*
X128962Y85609D01*
X129062Y85603D01*
X129082Y85599D01*
X129094Y85601D01*
X129122Y85599D01*
X150702Y85599D01*
X150800Y85611D01*
X150899Y85614D01*
X150957Y85631D01*
X151017Y85639D01*
X151109Y85675D01*
X151204Y85703D01*
X151257Y85733D01*
X151313Y85756D01*
X151393Y85814D01*
X151478Y85864D01*
X151554Y85930D01*
X151570Y85942D01*
X151578Y85952D01*
X151599Y85970D01*
X174380Y108751D01*
X174440Y108829D01*
X174508Y108901D01*
X174537Y108954D01*
X174574Y109002D01*
X174614Y109093D01*
X174662Y109180D01*
X174677Y109238D01*
X174701Y109294D01*
X174716Y109392D01*
X174741Y109488D01*
X174747Y109588D01*
X174751Y109608D01*
X174749Y109620D01*
X174751Y109648D01*
X174751Y127338D01*
X174739Y127436D01*
X174736Y127535D01*
X174719Y127593D01*
X174711Y127653D01*
X174675Y127745D01*
X174647Y127840D01*
X174617Y127893D01*
X174594Y127949D01*
X174536Y128029D01*
X174486Y128114D01*
X174420Y128190D01*
X174408Y128206D01*
X174398Y128214D01*
X174380Y128235D01*
X173493Y129122D01*
X172719Y130989D01*
X172719Y133011D01*
X173493Y134878D01*
X174922Y136307D01*
X176789Y137081D01*
X178811Y137081D01*
X180678Y136307D01*
X182107Y134878D01*
X182881Y133011D01*
X182881Y130989D01*
X182107Y129122D01*
X181220Y128235D01*
X181160Y128157D01*
X181092Y128085D01*
X181063Y128032D01*
X181026Y127984D01*
X180986Y127893D01*
X180938Y127806D01*
X180923Y127748D01*
X180899Y127692D01*
X180884Y127594D01*
X180859Y127498D01*
X180853Y127398D01*
X180849Y127378D01*
X180851Y127366D01*
X180849Y127338D01*
X180849Y106597D01*
X153753Y79501D01*
X129122Y79501D01*
X129024Y79489D01*
X128925Y79486D01*
X128867Y79469D01*
X128807Y79461D01*
X128715Y79425D01*
X128620Y79397D01*
X128567Y79367D01*
X128511Y79344D01*
X128431Y79286D01*
X128346Y79236D01*
X128270Y79170D01*
X128254Y79158D01*
X128246Y79148D01*
X128225Y79130D01*
X127338Y78243D01*
X125471Y77469D01*
X123449Y77469D01*
G37*
%LPD*%
%LPC*%
G36*
X113289Y90169D02*
X113289Y90169D01*
X111422Y90943D01*
X109993Y92372D01*
X109219Y94239D01*
X109219Y96261D01*
X109993Y98128D01*
X111364Y99499D01*
X111437Y99594D01*
X111516Y99683D01*
X111534Y99719D01*
X111559Y99751D01*
X111606Y99860D01*
X111661Y99966D01*
X111669Y100005D01*
X111685Y100043D01*
X111704Y100160D01*
X111730Y100276D01*
X111729Y100317D01*
X111735Y100357D01*
X111724Y100475D01*
X111721Y100594D01*
X111709Y100633D01*
X111706Y100673D01*
X111665Y100785D01*
X111632Y100900D01*
X111612Y100934D01*
X111598Y100973D01*
X111531Y101071D01*
X111505Y101115D01*
X111505Y114747D01*
X112837Y116079D01*
X116575Y116079D01*
X116713Y116096D01*
X116852Y116109D01*
X116871Y116116D01*
X116891Y116119D01*
X117020Y116170D01*
X117151Y116217D01*
X117168Y116228D01*
X117187Y116236D01*
X117299Y116317D01*
X117414Y116395D01*
X117428Y116411D01*
X117444Y116422D01*
X117533Y116530D01*
X117625Y116634D01*
X117634Y116652D01*
X117647Y116667D01*
X117706Y116793D01*
X117769Y116917D01*
X117774Y116937D01*
X117782Y116955D01*
X117808Y117091D01*
X117839Y117227D01*
X117838Y117248D01*
X117842Y117267D01*
X117834Y117406D01*
X117829Y117545D01*
X117824Y117565D01*
X117822Y117585D01*
X117780Y117717D01*
X117741Y117851D01*
X117731Y117868D01*
X117724Y117887D01*
X117650Y118005D01*
X117579Y118125D01*
X117561Y118146D01*
X117554Y118156D01*
X117539Y118170D01*
X117473Y118245D01*
X104846Y130873D01*
X103607Y132111D01*
X103600Y132117D01*
X103594Y132124D01*
X103474Y132215D01*
X103356Y132306D01*
X103347Y132310D01*
X103340Y132316D01*
X103195Y132387D01*
X102859Y132526D01*
X101430Y133955D01*
X100656Y135822D01*
X100656Y137844D01*
X101430Y139711D01*
X102859Y141140D01*
X104726Y141914D01*
X106748Y141914D01*
X108615Y141140D01*
X110044Y139711D01*
X110818Y137844D01*
X110818Y135823D01*
X110469Y134981D01*
X110461Y134952D01*
X110448Y134926D01*
X110419Y134799D01*
X110385Y134674D01*
X110384Y134644D01*
X110378Y134616D01*
X110382Y134486D01*
X110380Y134356D01*
X110387Y134327D01*
X110388Y134298D01*
X110424Y134173D01*
X110454Y134047D01*
X110468Y134021D01*
X110476Y133992D01*
X110542Y133881D01*
X110603Y133766D01*
X110623Y133744D01*
X110638Y133718D01*
X110744Y133598D01*
X127891Y116450D01*
X127969Y116390D01*
X128041Y116322D01*
X128094Y116293D01*
X128142Y116256D01*
X128233Y116216D01*
X128320Y116168D01*
X128379Y116153D01*
X128434Y116129D01*
X128532Y116114D01*
X128628Y116089D01*
X128728Y116083D01*
X128748Y116079D01*
X128761Y116081D01*
X128789Y116079D01*
X130749Y116079D01*
X131310Y115518D01*
X131404Y115445D01*
X131493Y115366D01*
X131529Y115348D01*
X131561Y115323D01*
X131670Y115276D01*
X131776Y115222D01*
X131815Y115213D01*
X131853Y115197D01*
X131970Y115178D01*
X132086Y115152D01*
X132127Y115153D01*
X132167Y115147D01*
X132285Y115158D01*
X132404Y115162D01*
X132443Y115173D01*
X132483Y115177D01*
X132595Y115217D01*
X132710Y115250D01*
X132745Y115270D01*
X132783Y115284D01*
X132881Y115351D01*
X132984Y115411D01*
X133029Y115451D01*
X133046Y115463D01*
X133059Y115478D01*
X133105Y115518D01*
X133665Y116079D01*
X141163Y116079D01*
X142495Y114747D01*
X142495Y101123D01*
X142484Y101111D01*
X142466Y101075D01*
X142441Y101043D01*
X142393Y100934D01*
X142339Y100828D01*
X142331Y100788D01*
X142315Y100751D01*
X142296Y100633D01*
X142270Y100518D01*
X142271Y100477D01*
X142265Y100437D01*
X142276Y100319D01*
X142279Y100200D01*
X142291Y100161D01*
X142294Y100121D01*
X142335Y100009D01*
X142368Y99894D01*
X142388Y99859D01*
X142402Y99821D01*
X142469Y99723D01*
X142529Y99620D01*
X142569Y99575D01*
X142581Y99558D01*
X142596Y99545D01*
X142636Y99499D01*
X144007Y98128D01*
X144781Y96261D01*
X144781Y94239D01*
X144007Y92372D01*
X142578Y90943D01*
X140711Y90169D01*
X138689Y90169D01*
X136822Y90943D01*
X135393Y92372D01*
X134619Y94239D01*
X134619Y95493D01*
X134607Y95592D01*
X134604Y95691D01*
X134587Y95749D01*
X134579Y95809D01*
X134543Y95901D01*
X134515Y95996D01*
X134485Y96048D01*
X134462Y96105D01*
X134404Y96185D01*
X134365Y96251D01*
X134365Y98596D01*
X134353Y98694D01*
X134350Y98793D01*
X134333Y98851D01*
X134325Y98911D01*
X134289Y99003D01*
X134261Y99098D01*
X134231Y99151D01*
X134208Y99207D01*
X134150Y99287D01*
X134100Y99372D01*
X134034Y99447D01*
X134022Y99464D01*
X134012Y99472D01*
X133994Y99493D01*
X133105Y100382D01*
X133011Y100455D01*
X132921Y100534D01*
X132885Y100552D01*
X132853Y100577D01*
X132744Y100624D01*
X132638Y100678D01*
X132599Y100687D01*
X132561Y100703D01*
X132444Y100722D01*
X132328Y100748D01*
X132287Y100747D01*
X132247Y100753D01*
X132129Y100742D01*
X132010Y100738D01*
X131971Y100727D01*
X131931Y100723D01*
X131819Y100683D01*
X131704Y100650D01*
X131669Y100630D01*
X131631Y100616D01*
X131533Y100549D01*
X131430Y100489D01*
X131385Y100449D01*
X131368Y100437D01*
X131355Y100422D01*
X131310Y100382D01*
X130749Y99821D01*
X123251Y99821D01*
X122691Y100382D01*
X122597Y100455D01*
X122507Y100534D01*
X122471Y100552D01*
X122439Y100577D01*
X122330Y100624D01*
X122224Y100678D01*
X122185Y100687D01*
X122147Y100703D01*
X122030Y100722D01*
X121914Y100748D01*
X121873Y100747D01*
X121833Y100753D01*
X121715Y100742D01*
X121596Y100738D01*
X121557Y100727D01*
X121517Y100723D01*
X121404Y100683D01*
X121290Y100650D01*
X121256Y100630D01*
X121217Y100616D01*
X121119Y100549D01*
X121016Y100489D01*
X120971Y100449D01*
X120954Y100437D01*
X120941Y100422D01*
X120896Y100382D01*
X120006Y99493D01*
X119946Y99415D01*
X119878Y99343D01*
X119849Y99290D01*
X119812Y99242D01*
X119772Y99151D01*
X119724Y99064D01*
X119709Y99006D01*
X119685Y98950D01*
X119670Y98852D01*
X119645Y98756D01*
X119639Y98656D01*
X119635Y98636D01*
X119637Y98624D01*
X119635Y98596D01*
X119635Y96252D01*
X119624Y96241D01*
X119595Y96188D01*
X119558Y96140D01*
X119518Y96049D01*
X119470Y95962D01*
X119455Y95903D01*
X119431Y95848D01*
X119416Y95750D01*
X119391Y95654D01*
X119385Y95554D01*
X119381Y95534D01*
X119383Y95521D01*
X119381Y95493D01*
X119381Y94239D01*
X118607Y92372D01*
X117178Y90943D01*
X115311Y90169D01*
X113289Y90169D01*
G37*
%LPD*%
%LPC*%
G36*
X214889Y116839D02*
X214889Y116839D01*
X213022Y117613D01*
X211593Y119042D01*
X210819Y120909D01*
X210819Y122931D01*
X211593Y124798D01*
X212480Y125685D01*
X212540Y125763D01*
X212608Y125835D01*
X212637Y125888D01*
X212674Y125936D01*
X212714Y126027D01*
X212762Y126114D01*
X212777Y126172D01*
X212801Y126228D01*
X212816Y126326D01*
X212841Y126422D01*
X212847Y126522D01*
X212851Y126542D01*
X212849Y126554D01*
X212851Y126582D01*
X212851Y143002D01*
X212836Y143120D01*
X212829Y143239D01*
X212816Y143277D01*
X212811Y143318D01*
X212768Y143428D01*
X212731Y143541D01*
X212709Y143576D01*
X212694Y143613D01*
X212625Y143709D01*
X212561Y143810D01*
X212531Y143838D01*
X212508Y143871D01*
X212416Y143947D01*
X212329Y144028D01*
X212294Y144048D01*
X212263Y144073D01*
X212155Y144124D01*
X212051Y144182D01*
X212011Y144192D01*
X211975Y144209D01*
X211858Y144231D01*
X211743Y144261D01*
X211683Y144265D01*
X211663Y144269D01*
X211642Y144267D01*
X211582Y144271D01*
X211008Y144271D01*
X210447Y144832D01*
X210353Y144905D01*
X210264Y144984D01*
X210228Y145002D01*
X210196Y145027D01*
X210087Y145074D01*
X209981Y145128D01*
X209942Y145137D01*
X209904Y145153D01*
X209787Y145172D01*
X209671Y145198D01*
X209630Y145197D01*
X209590Y145203D01*
X209472Y145192D01*
X209353Y145188D01*
X209314Y145177D01*
X209274Y145173D01*
X209162Y145133D01*
X209047Y145100D01*
X209012Y145080D01*
X208974Y145066D01*
X208876Y144999D01*
X208773Y144939D01*
X208728Y144899D01*
X208711Y144887D01*
X208698Y144872D01*
X208652Y144832D01*
X208092Y144271D01*
X200594Y144271D01*
X199262Y145603D01*
X199262Y159197D01*
X200743Y160678D01*
X200763Y160686D01*
X200859Y160755D01*
X200960Y160819D01*
X200988Y160849D01*
X201021Y160872D01*
X201097Y160964D01*
X201178Y161051D01*
X201198Y161086D01*
X201223Y161117D01*
X201274Y161225D01*
X201332Y161329D01*
X201342Y161369D01*
X201359Y161405D01*
X201381Y161522D01*
X201411Y161637D01*
X201415Y161697D01*
X201419Y161717D01*
X201417Y161738D01*
X201421Y161798D01*
X201421Y185838D01*
X201409Y185936D01*
X201406Y186035D01*
X201389Y186093D01*
X201381Y186153D01*
X201345Y186245D01*
X201317Y186340D01*
X201287Y186393D01*
X201264Y186449D01*
X201206Y186529D01*
X201156Y186614D01*
X201090Y186690D01*
X201078Y186706D01*
X201068Y186714D01*
X201050Y186735D01*
X200163Y187622D01*
X199389Y189489D01*
X199389Y191511D01*
X200163Y193378D01*
X201592Y194807D01*
X203459Y195581D01*
X205481Y195581D01*
X207348Y194807D01*
X208777Y193378D01*
X209551Y191511D01*
X209551Y189489D01*
X208777Y187622D01*
X207890Y186735D01*
X207830Y186657D01*
X207762Y186585D01*
X207733Y186532D01*
X207696Y186484D01*
X207656Y186393D01*
X207608Y186306D01*
X207593Y186248D01*
X207569Y186192D01*
X207554Y186094D01*
X207529Y185998D01*
X207523Y185898D01*
X207519Y185878D01*
X207521Y185866D01*
X207519Y185838D01*
X207519Y161627D01*
X207531Y161529D01*
X207534Y161430D01*
X207551Y161372D01*
X207559Y161312D01*
X207595Y161220D01*
X207623Y161125D01*
X207653Y161072D01*
X207676Y161016D01*
X207734Y160936D01*
X207784Y160851D01*
X207850Y160776D01*
X207862Y160759D01*
X207872Y160751D01*
X207890Y160730D01*
X208652Y159968D01*
X208746Y159895D01*
X208836Y159816D01*
X208872Y159798D01*
X208904Y159773D01*
X209013Y159726D01*
X209119Y159672D01*
X209158Y159663D01*
X209196Y159647D01*
X209313Y159628D01*
X209429Y159602D01*
X209470Y159603D01*
X209510Y159597D01*
X209628Y159608D01*
X209747Y159612D01*
X209786Y159623D01*
X209826Y159627D01*
X209938Y159667D01*
X210053Y159700D01*
X210088Y159720D01*
X210126Y159734D01*
X210224Y159801D01*
X210327Y159861D01*
X210372Y159901D01*
X210389Y159913D01*
X210402Y159928D01*
X210447Y159968D01*
X211008Y160529D01*
X218506Y160529D01*
X219838Y159197D01*
X219838Y145603D01*
X219320Y145086D01*
X219260Y145008D01*
X219192Y144936D01*
X219163Y144883D01*
X219126Y144835D01*
X219086Y144744D01*
X219038Y144657D01*
X219023Y144599D01*
X218999Y144543D01*
X218984Y144445D01*
X218959Y144349D01*
X218953Y144249D01*
X218949Y144229D01*
X218951Y144217D01*
X218949Y144189D01*
X218949Y126582D01*
X218961Y126484D01*
X218964Y126385D01*
X218981Y126327D01*
X218989Y126267D01*
X219025Y126175D01*
X219053Y126080D01*
X219083Y126027D01*
X219106Y125971D01*
X219164Y125891D01*
X219214Y125806D01*
X219280Y125730D01*
X219292Y125714D01*
X219302Y125706D01*
X219320Y125685D01*
X220207Y124798D01*
X220981Y122931D01*
X220981Y120909D01*
X220207Y119042D01*
X218778Y117613D01*
X216911Y116839D01*
X214889Y116839D01*
G37*
%LPD*%
%LPC*%
G36*
X181544Y62991D02*
X181544Y62991D01*
X179947Y64588D01*
X179933Y64605D01*
X179869Y64694D01*
X179830Y64726D01*
X179798Y64763D01*
X179708Y64827D01*
X179624Y64897D01*
X179579Y64918D01*
X179538Y64946D01*
X179435Y64985D01*
X179336Y65032D01*
X179287Y65042D01*
X179241Y65059D01*
X179131Y65071D01*
X179024Y65092D01*
X178974Y65089D01*
X178925Y65094D01*
X178816Y65079D01*
X178706Y65072D01*
X178659Y65057D01*
X178610Y65050D01*
X178457Y64998D01*
X177360Y64543D01*
X175248Y64543D01*
X173298Y65351D01*
X171805Y66844D01*
X170997Y68794D01*
X170997Y70906D01*
X171805Y72856D01*
X173298Y74349D01*
X175248Y75157D01*
X177360Y75157D01*
X178457Y74702D01*
X178505Y74689D01*
X178550Y74668D01*
X178658Y74647D01*
X178764Y74618D01*
X178814Y74617D01*
X178863Y74608D01*
X178972Y74615D01*
X179082Y74613D01*
X179130Y74625D01*
X179180Y74628D01*
X179284Y74662D01*
X179391Y74687D01*
X179435Y74710D01*
X179482Y74726D01*
X179575Y74785D01*
X179672Y74836D01*
X179709Y74869D01*
X179751Y74896D01*
X179826Y74976D01*
X179908Y75050D01*
X179935Y75091D01*
X179969Y75128D01*
X180022Y75224D01*
X180082Y75316D01*
X180099Y75363D01*
X180123Y75406D01*
X180150Y75512D01*
X180186Y75616D01*
X180190Y75666D01*
X180202Y75714D01*
X180212Y75875D01*
X180212Y77917D01*
X181544Y79249D01*
X189042Y79249D01*
X189602Y78688D01*
X189696Y78615D01*
X189786Y78536D01*
X189822Y78518D01*
X189854Y78493D01*
X189963Y78446D01*
X190069Y78392D01*
X190108Y78383D01*
X190146Y78367D01*
X190263Y78348D01*
X190379Y78322D01*
X190420Y78323D01*
X190460Y78317D01*
X190578Y78328D01*
X190697Y78332D01*
X190736Y78343D01*
X190776Y78347D01*
X190889Y78387D01*
X191003Y78420D01*
X191037Y78440D01*
X191076Y78454D01*
X191174Y78521D01*
X191277Y78581D01*
X191322Y78621D01*
X191339Y78633D01*
X191352Y78648D01*
X191397Y78688D01*
X191958Y79249D01*
X199456Y79249D01*
X200788Y77917D01*
X200788Y77238D01*
X200794Y77189D01*
X200792Y77139D01*
X200814Y77032D01*
X200828Y76923D01*
X200846Y76876D01*
X200856Y76828D01*
X200904Y76729D01*
X200945Y76627D01*
X200974Y76587D01*
X200996Y76542D01*
X201067Y76459D01*
X201131Y76370D01*
X201170Y76338D01*
X201202Y76300D01*
X201292Y76237D01*
X201376Y76167D01*
X201421Y76146D01*
X201462Y76117D01*
X201565Y76078D01*
X201664Y76031D01*
X201713Y76022D01*
X201759Y76004D01*
X201869Y75992D01*
X201976Y75972D01*
X202026Y75975D01*
X202075Y75969D01*
X202184Y75985D01*
X202294Y75991D01*
X202341Y76007D01*
X202390Y76014D01*
X202543Y76066D01*
X203414Y76427D01*
X205526Y76427D01*
X207476Y75619D01*
X208969Y74126D01*
X209777Y72176D01*
X209777Y70064D01*
X208969Y68114D01*
X207476Y66621D01*
X205526Y65813D01*
X203414Y65813D01*
X202543Y66174D01*
X202495Y66188D01*
X202450Y66209D01*
X202342Y66229D01*
X202236Y66258D01*
X202186Y66259D01*
X202137Y66268D01*
X202028Y66262D01*
X201918Y66263D01*
X201870Y66252D01*
X201820Y66249D01*
X201716Y66215D01*
X201609Y66189D01*
X201565Y66166D01*
X201518Y66151D01*
X201425Y66092D01*
X201328Y66040D01*
X201291Y66007D01*
X201249Y65980D01*
X201174Y65900D01*
X201092Y65827D01*
X201065Y65785D01*
X201031Y65749D01*
X200989Y65672D01*
X200986Y65669D01*
X200979Y65655D01*
X200978Y65653D01*
X200918Y65561D01*
X200901Y65514D01*
X200877Y65470D01*
X200859Y65401D01*
X200850Y65381D01*
X200843Y65344D01*
X200814Y65260D01*
X200810Y65210D01*
X200798Y65162D01*
X200793Y65082D01*
X200790Y65068D01*
X200791Y65055D01*
X200788Y65002D01*
X200788Y64323D01*
X199456Y62991D01*
X191958Y62991D01*
X191397Y63552D01*
X191303Y63625D01*
X191214Y63704D01*
X191178Y63722D01*
X191146Y63747D01*
X191037Y63794D01*
X190931Y63848D01*
X190892Y63857D01*
X190854Y63873D01*
X190737Y63892D01*
X190621Y63918D01*
X190580Y63917D01*
X190540Y63923D01*
X190422Y63912D01*
X190303Y63908D01*
X190264Y63897D01*
X190224Y63893D01*
X190112Y63853D01*
X189997Y63820D01*
X189962Y63800D01*
X189924Y63786D01*
X189826Y63719D01*
X189723Y63659D01*
X189678Y63619D01*
X189661Y63607D01*
X189648Y63592D01*
X189602Y63552D01*
X189042Y62991D01*
X181544Y62991D01*
G37*
%LPD*%
%LPC*%
G36*
X11352Y5921D02*
X11352Y5921D01*
X8860Y6953D01*
X6953Y8860D01*
X5921Y11352D01*
X5921Y14048D01*
X6953Y16540D01*
X8860Y18447D01*
X11352Y19479D01*
X14048Y19479D01*
X16540Y18447D01*
X18447Y16540D01*
X19479Y14048D01*
X19479Y11352D01*
X18447Y8860D01*
X16540Y6953D01*
X14048Y5921D01*
X11352Y5921D01*
G37*
%LPD*%
G36*
X139338Y106629D02*
X139338Y106629D01*
X139360Y106633D01*
X139367Y106648D01*
X139376Y106654D01*
X139375Y106664D01*
X139382Y106680D01*
X139382Y109220D01*
X139370Y109239D01*
X139366Y109261D01*
X139351Y109268D01*
X139345Y109277D01*
X139335Y109276D01*
X139319Y109283D01*
X114681Y109283D01*
X114662Y109271D01*
X114640Y109267D01*
X114633Y109252D01*
X114624Y109246D01*
X114625Y109236D01*
X114618Y109220D01*
X114618Y106680D01*
X114630Y106661D01*
X114634Y106639D01*
X114649Y106632D01*
X114655Y106623D01*
X114665Y106624D01*
X114681Y106617D01*
X139319Y106617D01*
X139338Y106629D01*
G37*
%LPC*%
G36*
X39115Y15239D02*
X39115Y15239D01*
X39155Y15496D01*
X39736Y17283D01*
X40589Y18957D01*
X41694Y20478D01*
X43022Y21806D01*
X44543Y22911D01*
X46217Y23764D01*
X48004Y24345D01*
X48261Y24385D01*
X48261Y15239D01*
X39115Y15239D01*
G37*
%LPD*%
G36*
X128924Y157429D02*
X128924Y157429D01*
X128946Y157433D01*
X128953Y157448D01*
X128962Y157454D01*
X128961Y157464D01*
X128968Y157480D01*
X128968Y160020D01*
X128956Y160039D01*
X128952Y160061D01*
X128937Y160068D01*
X128931Y160077D01*
X128921Y160076D01*
X128905Y160083D01*
X114681Y160083D01*
X114662Y160071D01*
X114640Y160067D01*
X114633Y160052D01*
X114624Y160046D01*
X114625Y160036D01*
X114618Y160020D01*
X114618Y157480D01*
X114630Y157461D01*
X114634Y157439D01*
X114649Y157432D01*
X114655Y157423D01*
X114665Y157424D01*
X114681Y157417D01*
X128905Y157417D01*
X128924Y157429D01*
G37*
G36*
X216554Y151079D02*
X216554Y151079D01*
X216576Y151083D01*
X216583Y151098D01*
X216592Y151104D01*
X216591Y151114D01*
X216598Y151130D01*
X216598Y153670D01*
X216586Y153689D01*
X216582Y153711D01*
X216567Y153718D01*
X216561Y153727D01*
X216551Y153726D01*
X216535Y153733D01*
X202565Y153733D01*
X202546Y153721D01*
X202524Y153717D01*
X202517Y153702D01*
X202508Y153696D01*
X202509Y153686D01*
X202502Y153670D01*
X202502Y151130D01*
X202514Y151111D01*
X202518Y151089D01*
X202533Y151082D01*
X202539Y151073D01*
X202549Y151074D01*
X202565Y151067D01*
X216535Y151067D01*
X216554Y151079D01*
G37*
G36*
X197504Y69799D02*
X197504Y69799D01*
X197526Y69803D01*
X197533Y69818D01*
X197542Y69824D01*
X197541Y69834D01*
X197548Y69850D01*
X197548Y72390D01*
X197536Y72409D01*
X197532Y72431D01*
X197517Y72438D01*
X197511Y72447D01*
X197501Y72446D01*
X197485Y72453D01*
X183515Y72453D01*
X183496Y72441D01*
X183474Y72437D01*
X183467Y72422D01*
X183458Y72416D01*
X183459Y72406D01*
X183452Y72390D01*
X183452Y69850D01*
X183464Y69831D01*
X183468Y69809D01*
X183483Y69802D01*
X183489Y69793D01*
X183499Y69794D01*
X183515Y69787D01*
X197485Y69787D01*
X197504Y69799D01*
G37*
D10*
X238802Y69396D02*
X248793Y66066D01*
X238802Y62736D01*
X237137Y56161D02*
X233807Y51998D01*
X248793Y51998D01*
X248793Y56161D02*
X248793Y47835D01*
X241300Y40530D02*
X241005Y40526D01*
X240711Y40516D01*
X240416Y40498D01*
X240122Y40474D01*
X239829Y40442D01*
X239537Y40404D01*
X239246Y40358D01*
X238956Y40305D01*
X238667Y40246D01*
X238380Y40180D01*
X238094Y40107D01*
X237810Y40027D01*
X237528Y39940D01*
X237249Y39847D01*
X236971Y39747D01*
X236697Y39640D01*
X236424Y39527D01*
X236155Y39407D01*
X235888Y39281D01*
X235785Y39243D01*
X235684Y39202D01*
X235585Y39158D01*
X235486Y39110D01*
X235390Y39059D01*
X235296Y39004D01*
X235203Y38946D01*
X235113Y38885D01*
X235025Y38820D01*
X234939Y38753D01*
X234856Y38682D01*
X234775Y38609D01*
X234697Y38533D01*
X234621Y38454D01*
X234549Y38372D01*
X234479Y38288D01*
X234413Y38201D01*
X234349Y38113D01*
X234289Y38022D01*
X234232Y37928D01*
X234178Y37833D01*
X234128Y37736D01*
X234081Y37638D01*
X234038Y37538D01*
X233998Y37436D01*
X233962Y37333D01*
X233930Y37229D01*
X233901Y37123D01*
X233876Y37017D01*
X233855Y36910D01*
X233838Y36802D01*
X233824Y36694D01*
X233815Y36585D01*
X233809Y36476D01*
X233807Y36367D01*
X233809Y36258D01*
X233815Y36149D01*
X233824Y36040D01*
X233838Y35932D01*
X233855Y35824D01*
X233876Y35717D01*
X233901Y35610D01*
X233930Y35505D01*
X233962Y35401D01*
X233998Y35298D01*
X234038Y35196D01*
X234081Y35096D01*
X234128Y34997D01*
X234179Y34900D01*
X234232Y34805D01*
X234289Y34712D01*
X234350Y34621D01*
X234413Y34532D01*
X234480Y34446D01*
X234549Y34361D01*
X234622Y34280D01*
X234697Y34201D01*
X234775Y34124D01*
X234856Y34051D01*
X234939Y33980D01*
X235025Y33913D01*
X235113Y33848D01*
X235204Y33787D01*
X235296Y33729D01*
X235391Y33674D01*
X235487Y33623D01*
X235585Y33575D01*
X235685Y33531D01*
X235786Y33490D01*
X235889Y33453D01*
X235888Y33453D02*
X236155Y33327D01*
X236424Y33207D01*
X236697Y33094D01*
X236971Y32987D01*
X237249Y32887D01*
X237528Y32794D01*
X237810Y32707D01*
X238094Y32627D01*
X238380Y32554D01*
X238667Y32488D01*
X238956Y32429D01*
X239246Y32376D01*
X239537Y32330D01*
X239829Y32292D01*
X240122Y32260D01*
X240416Y32236D01*
X240711Y32218D01*
X241005Y32208D01*
X241300Y32204D01*
X241300Y40530D02*
X241595Y40526D01*
X241889Y40516D01*
X242184Y40498D01*
X242478Y40474D01*
X242771Y40442D01*
X243063Y40404D01*
X243354Y40358D01*
X243644Y40305D01*
X243933Y40246D01*
X244220Y40180D01*
X244506Y40107D01*
X244790Y40027D01*
X245072Y39940D01*
X245351Y39847D01*
X245629Y39747D01*
X245903Y39640D01*
X246176Y39527D01*
X246445Y39407D01*
X246712Y39281D01*
X246815Y39243D01*
X246916Y39202D01*
X247015Y39158D01*
X247114Y39110D01*
X247210Y39059D01*
X247304Y39004D01*
X247397Y38946D01*
X247487Y38885D01*
X247575Y38820D01*
X247661Y38753D01*
X247744Y38682D01*
X247825Y38609D01*
X247903Y38533D01*
X247979Y38454D01*
X248051Y38372D01*
X248121Y38288D01*
X248187Y38201D01*
X248251Y38113D01*
X248311Y38022D01*
X248368Y37928D01*
X248422Y37833D01*
X248472Y37736D01*
X248519Y37638D01*
X248562Y37538D01*
X248602Y37436D01*
X248638Y37333D01*
X248670Y37229D01*
X248699Y37123D01*
X248724Y37017D01*
X248745Y36910D01*
X248762Y36802D01*
X248776Y36694D01*
X248785Y36585D01*
X248791Y36476D01*
X248793Y36367D01*
X246712Y33453D02*
X246445Y33327D01*
X246176Y33207D01*
X245903Y33094D01*
X245629Y32987D01*
X245351Y32887D01*
X245072Y32794D01*
X244790Y32707D01*
X244506Y32627D01*
X244220Y32554D01*
X243933Y32488D01*
X243644Y32429D01*
X243354Y32376D01*
X243063Y32330D01*
X242771Y32292D01*
X242478Y32260D01*
X242184Y32236D01*
X241889Y32218D01*
X241595Y32208D01*
X241300Y32204D01*
X246711Y33453D02*
X246814Y33490D01*
X246915Y33531D01*
X247015Y33575D01*
X247113Y33623D01*
X247209Y33674D01*
X247304Y33729D01*
X247396Y33787D01*
X247487Y33848D01*
X247575Y33913D01*
X247661Y33981D01*
X247744Y34051D01*
X247825Y34125D01*
X247903Y34201D01*
X247978Y34280D01*
X248051Y34361D01*
X248120Y34446D01*
X248187Y34532D01*
X248250Y34621D01*
X248311Y34712D01*
X248368Y34805D01*
X248421Y34900D01*
X248472Y34997D01*
X248519Y35096D01*
X248562Y35196D01*
X248602Y35298D01*
X248638Y35401D01*
X248670Y35505D01*
X248699Y35610D01*
X248724Y35717D01*
X248745Y35824D01*
X248762Y35932D01*
X248776Y36040D01*
X248785Y36149D01*
X248791Y36258D01*
X248793Y36367D01*
X245463Y39697D02*
X237137Y33036D01*
D11*
X203200Y215900D03*
X12700Y12700D03*
D12*
X50800Y12700D03*
X76200Y12700D03*
X101600Y12700D03*
X127000Y12700D03*
X152400Y12700D03*
X177800Y12700D03*
X203200Y12700D03*
D13*
X140221Y164605D02*
X134607Y164605D01*
X140221Y164605D02*
X140221Y152895D01*
X134607Y152895D01*
X134607Y164605D01*
X134607Y153836D02*
X140221Y153836D01*
X140221Y154777D02*
X134607Y154777D01*
X134607Y155718D02*
X140221Y155718D01*
X140221Y156659D02*
X134607Y156659D01*
X134607Y157600D02*
X140221Y157600D01*
X140221Y158541D02*
X134607Y158541D01*
X134607Y159482D02*
X140221Y159482D01*
X140221Y160423D02*
X134607Y160423D01*
X134607Y161364D02*
X140221Y161364D01*
X140221Y162305D02*
X134607Y162305D01*
X134607Y163246D02*
X140221Y163246D01*
X140221Y164187D02*
X134607Y164187D01*
X129807Y164605D02*
X124193Y164605D01*
X129807Y164605D02*
X129807Y152895D01*
X124193Y152895D01*
X124193Y164605D01*
X124193Y153836D02*
X129807Y153836D01*
X129807Y154777D02*
X124193Y154777D01*
X124193Y155718D02*
X129807Y155718D01*
X129807Y156659D02*
X124193Y156659D01*
X124193Y157600D02*
X129807Y157600D01*
X129807Y158541D02*
X124193Y158541D01*
X124193Y159482D02*
X129807Y159482D01*
X129807Y160423D02*
X124193Y160423D01*
X124193Y161364D02*
X129807Y161364D01*
X129807Y162305D02*
X124193Y162305D01*
X124193Y163246D02*
X129807Y163246D01*
X129807Y164187D02*
X124193Y164187D01*
X119393Y164605D02*
X113779Y164605D01*
X119393Y164605D02*
X119393Y152895D01*
X113779Y152895D01*
X113779Y164605D01*
X113779Y153836D02*
X119393Y153836D01*
X119393Y154777D02*
X113779Y154777D01*
X113779Y155718D02*
X119393Y155718D01*
X119393Y156659D02*
X113779Y156659D01*
X113779Y157600D02*
X119393Y157600D01*
X119393Y158541D02*
X113779Y158541D01*
X113779Y159482D02*
X119393Y159482D01*
X119393Y160423D02*
X113779Y160423D01*
X113779Y161364D02*
X119393Y161364D01*
X119393Y162305D02*
X113779Y162305D01*
X113779Y163246D02*
X119393Y163246D01*
X119393Y164187D02*
X113779Y164187D01*
X134607Y113805D02*
X140221Y113805D01*
X140221Y102095D01*
X134607Y102095D01*
X134607Y113805D01*
X134607Y103036D02*
X140221Y103036D01*
X140221Y103977D02*
X134607Y103977D01*
X134607Y104918D02*
X140221Y104918D01*
X140221Y105859D02*
X134607Y105859D01*
X134607Y106800D02*
X140221Y106800D01*
X140221Y107741D02*
X134607Y107741D01*
X134607Y108682D02*
X140221Y108682D01*
X140221Y109623D02*
X134607Y109623D01*
X134607Y110564D02*
X140221Y110564D01*
X140221Y111505D02*
X134607Y111505D01*
X134607Y112446D02*
X140221Y112446D01*
X140221Y113387D02*
X134607Y113387D01*
X129807Y113805D02*
X124193Y113805D01*
X129807Y113805D02*
X129807Y102095D01*
X124193Y102095D01*
X124193Y113805D01*
X124193Y103036D02*
X129807Y103036D01*
X129807Y103977D02*
X124193Y103977D01*
X124193Y104918D02*
X129807Y104918D01*
X129807Y105859D02*
X124193Y105859D01*
X124193Y106800D02*
X129807Y106800D01*
X129807Y107741D02*
X124193Y107741D01*
X124193Y108682D02*
X129807Y108682D01*
X129807Y109623D02*
X124193Y109623D01*
X124193Y110564D02*
X129807Y110564D01*
X129807Y111505D02*
X124193Y111505D01*
X124193Y112446D02*
X129807Y112446D01*
X129807Y113387D02*
X124193Y113387D01*
X119393Y113805D02*
X113779Y113805D01*
X119393Y113805D02*
X119393Y102095D01*
X113779Y102095D01*
X113779Y113805D01*
X113779Y103036D02*
X119393Y103036D01*
X119393Y103977D02*
X113779Y103977D01*
X113779Y104918D02*
X119393Y104918D01*
X119393Y105859D02*
X113779Y105859D01*
X113779Y106800D02*
X119393Y106800D01*
X119393Y107741D02*
X113779Y107741D01*
X113779Y108682D02*
X119393Y108682D01*
X119393Y109623D02*
X113779Y109623D01*
X113779Y110564D02*
X119393Y110564D01*
X119393Y111505D02*
X113779Y111505D01*
X113779Y112446D02*
X119393Y112446D01*
X119393Y113387D02*
X113779Y113387D01*
X201536Y146545D02*
X207150Y146545D01*
X201536Y146545D02*
X201536Y158255D01*
X207150Y158255D01*
X207150Y146545D01*
X207150Y147486D02*
X201536Y147486D01*
X201536Y148427D02*
X207150Y148427D01*
X207150Y149368D02*
X201536Y149368D01*
X201536Y150309D02*
X207150Y150309D01*
X207150Y151250D02*
X201536Y151250D01*
X201536Y152191D02*
X207150Y152191D01*
X207150Y153132D02*
X201536Y153132D01*
X201536Y154073D02*
X207150Y154073D01*
X207150Y155014D02*
X201536Y155014D01*
X201536Y155955D02*
X207150Y155955D01*
X207150Y156896D02*
X201536Y156896D01*
X201536Y157837D02*
X207150Y157837D01*
X211950Y146545D02*
X217564Y146545D01*
X211950Y146545D02*
X211950Y158255D01*
X217564Y158255D01*
X217564Y146545D01*
X217564Y147486D02*
X211950Y147486D01*
X211950Y148427D02*
X217564Y148427D01*
X217564Y149368D02*
X211950Y149368D01*
X211950Y150309D02*
X217564Y150309D01*
X217564Y151250D02*
X211950Y151250D01*
X211950Y152191D02*
X217564Y152191D01*
X217564Y153132D02*
X211950Y153132D01*
X211950Y154073D02*
X217564Y154073D01*
X217564Y155014D02*
X211950Y155014D01*
X211950Y155955D02*
X217564Y155955D01*
X217564Y156896D02*
X211950Y156896D01*
X211950Y157837D02*
X217564Y157837D01*
X188100Y65265D02*
X182486Y65265D01*
X182486Y76975D01*
X188100Y76975D01*
X188100Y65265D01*
X188100Y66206D02*
X182486Y66206D01*
X182486Y67147D02*
X188100Y67147D01*
X188100Y68088D02*
X182486Y68088D01*
X182486Y69029D02*
X188100Y69029D01*
X188100Y69970D02*
X182486Y69970D01*
X182486Y70911D02*
X188100Y70911D01*
X188100Y71852D02*
X182486Y71852D01*
X182486Y72793D02*
X188100Y72793D01*
X188100Y73734D02*
X182486Y73734D01*
X182486Y74675D02*
X188100Y74675D01*
X188100Y75616D02*
X182486Y75616D01*
X182486Y76557D02*
X188100Y76557D01*
X192900Y65265D02*
X198514Y65265D01*
X192900Y65265D02*
X192900Y76975D01*
X198514Y76975D01*
X198514Y65265D01*
X198514Y66206D02*
X192900Y66206D01*
X192900Y67147D02*
X198514Y67147D01*
X198514Y68088D02*
X192900Y68088D01*
X192900Y69029D02*
X198514Y69029D01*
X198514Y69970D02*
X192900Y69970D01*
X192900Y70911D02*
X198514Y70911D01*
X198514Y71852D02*
X192900Y71852D01*
X192900Y72793D02*
X198514Y72793D01*
X198514Y73734D02*
X192900Y73734D01*
X192900Y74675D02*
X198514Y74675D01*
X198514Y75616D02*
X192900Y75616D01*
X192900Y76557D02*
X198514Y76557D01*
D14*
X215900Y151257D02*
X214757Y152400D01*
X215900Y151257D02*
X215900Y121920D01*
D15*
X215900Y121920D03*
D14*
X127000Y113030D02*
X127000Y107950D01*
X127000Y113030D02*
X105737Y134293D01*
X105737Y136833D01*
D15*
X105737Y136833D03*
X129540Y142240D03*
X114300Y25400D03*
X139700Y25400D03*
X165100Y25400D03*
X241300Y12700D03*
X190500Y241300D03*
X63500Y241300D03*
X127000Y191770D03*
X106680Y104140D03*
X88900Y25400D03*
X57150Y102870D03*
X63500Y142240D03*
X215900Y113030D03*
X160020Y123190D03*
X101600Y78740D03*
X167640Y87630D03*
X184150Y113030D03*
X163830Y171450D03*
X105410Y148590D03*
X130810Y96520D03*
X85090Y121920D03*
X181610Y140970D03*
X74930Y105410D03*
X127000Y66040D03*
X195580Y184150D03*
X90170Y171450D03*
X152400Y76200D03*
X149860Y92710D03*
X228600Y113030D03*
X190500Y57150D03*
X124460Y82550D03*
X177800Y132000D03*
D14*
X152490Y82550D02*
X124460Y82550D01*
X152490Y82550D02*
X177800Y107860D01*
X177800Y132000D01*
D15*
X76130Y122070D03*
D14*
X107860Y82550D02*
X124460Y82550D01*
X107860Y82550D02*
X76130Y114280D01*
X76130Y122070D01*
X63500Y106680D02*
X115570Y54610D01*
X63500Y106680D02*
X63500Y112000D01*
D15*
X63500Y112000D03*
D14*
X144780Y54610D02*
X190500Y100330D01*
X190500Y142000D01*
D15*
X190500Y142000D03*
X139700Y54610D03*
D14*
X115570Y54610D01*
X139700Y54610D02*
X144780Y54610D01*
D15*
X152400Y102870D03*
D14*
X152400Y129630D01*
X127000Y155030D02*
X127000Y158750D01*
X127000Y155030D02*
X152400Y129630D01*
D16*
X185293Y71120D02*
X184023Y69850D01*
X176304Y69850D01*
D17*
X176304Y69850D03*
D15*
X98913Y171597D03*
D14*
X111760Y158750D01*
X116586Y158750D01*
D15*
X155087Y171597D03*
D14*
X142240Y158750D01*
X137414Y158750D01*
D15*
X139700Y95250D03*
D14*
X137414Y97536D01*
X137414Y107950D01*
D15*
X114300Y95250D03*
D14*
X116586Y97536D01*
X116586Y107950D01*
D15*
X204470Y190500D03*
D14*
X204470Y152527D01*
X204343Y152400D01*
D16*
X204470Y71120D02*
X195707Y71120D01*
D17*
X204470Y71120D03*
M02*
