G04 EAGLE Gerber RS-274X export*
G75*
%MOMM*%
%FSLAX34Y34*%
%LPD*%
%INSilkscreen Top*%
%IPPOS*%
%AMOC8*
5,1,8,0,0,1.08239X$1,22.5*%
G01*
%ADD10C,0.203200*%
%ADD11C,0.127000*%
%ADD12C,0.175000*%

G36*
X159038Y21160D02*
X159038Y21160D01*
X159046Y21162D01*
X159246Y21662D01*
X159242Y21675D01*
X159249Y21680D01*
X159249Y95480D01*
X159246Y95485D01*
X159249Y95488D01*
X159149Y96088D01*
X159049Y96787D01*
X159041Y96795D01*
X159044Y96802D01*
X158746Y97398D01*
X158547Y98094D01*
X158542Y98098D01*
X158544Y98102D01*
X158244Y98702D01*
X158237Y98705D01*
X158238Y98711D01*
X157838Y99211D01*
X157834Y99212D01*
X157835Y99215D01*
X156835Y100215D01*
X156831Y100215D01*
X156831Y100218D01*
X156331Y100618D01*
X156327Y100619D01*
X156327Y100621D01*
X155727Y101021D01*
X155723Y101021D01*
X155722Y101024D01*
X155122Y101324D01*
X155117Y101323D01*
X155116Y101327D01*
X154516Y101527D01*
X154514Y101526D01*
X154514Y101527D01*
X153814Y101727D01*
X153810Y101726D01*
X153808Y101729D01*
X153208Y101829D01*
X153207Y101828D01*
X153207Y101829D01*
X152507Y101929D01*
X152498Y101924D01*
X152493Y101929D01*
X151793Y101829D01*
X151792Y101828D01*
X151792Y101829D01*
X151192Y101729D01*
X150493Y101629D01*
X150488Y101624D01*
X150484Y101627D01*
X149884Y101427D01*
X149883Y101424D01*
X149881Y101425D01*
X149181Y101125D01*
X149176Y101117D01*
X149169Y101118D01*
X148671Y100720D01*
X148073Y100321D01*
X148072Y100318D01*
X148069Y100318D01*
X147569Y99918D01*
X147567Y99911D01*
X147562Y99911D01*
X147162Y99411D01*
X147161Y99407D01*
X147159Y99407D01*
X146760Y98809D01*
X146362Y98311D01*
X146361Y98301D01*
X146355Y98299D01*
X146055Y97599D01*
X146056Y97596D01*
X146053Y97596D01*
X145853Y96996D01*
X145854Y96994D01*
X145853Y96994D01*
X145653Y96294D01*
X145656Y96284D01*
X145651Y96280D01*
X145651Y95683D01*
X145551Y94987D01*
X145554Y94982D01*
X145551Y94980D01*
X145551Y21380D01*
X145580Y21342D01*
X145582Y21334D01*
X146082Y21134D01*
X146095Y21138D01*
X146100Y21131D01*
X159000Y21131D01*
X159038Y21160D01*
G37*
G36*
X133847Y21167D02*
X133847Y21167D01*
X133842Y21174D01*
X133849Y21180D01*
X133849Y92380D01*
X133842Y92389D01*
X133847Y92396D01*
X133647Y92996D01*
X133625Y93011D01*
X133622Y93024D01*
X127022Y96324D01*
X126990Y96318D01*
X126978Y96324D01*
X120278Y93024D01*
X120266Y93000D01*
X120263Y92993D01*
X120251Y92987D01*
X120151Y92287D01*
X120154Y92282D01*
X120151Y92280D01*
X120151Y21780D01*
X120154Y21775D01*
X120151Y21772D01*
X120251Y21172D01*
X120295Y21131D01*
X120298Y21134D01*
X120300Y21131D01*
X133800Y21131D01*
X133847Y21167D01*
G37*
G36*
X107805Y21134D02*
X107805Y21134D01*
X107808Y21131D01*
X108408Y21231D01*
X108449Y21275D01*
X108446Y21278D01*
X108449Y21280D01*
X108449Y87580D01*
X108446Y87584D01*
X108449Y87587D01*
X108249Y88987D01*
X108244Y88992D01*
X108247Y88996D01*
X107847Y90196D01*
X107839Y90201D01*
X107841Y90207D01*
X107443Y90805D01*
X107144Y91402D01*
X107137Y91405D01*
X107138Y91411D01*
X106738Y91911D01*
X106734Y91912D01*
X106735Y91915D01*
X105735Y92915D01*
X105723Y92916D01*
X105722Y92924D01*
X105125Y93223D01*
X104527Y93621D01*
X104518Y93620D01*
X104516Y93627D01*
X103916Y93827D01*
X103914Y93826D01*
X103914Y93827D01*
X103214Y94027D01*
X103210Y94026D01*
X103208Y94029D01*
X102608Y94129D01*
X102607Y94128D01*
X102607Y94129D01*
X101907Y94229D01*
X101902Y94226D01*
X101900Y94229D01*
X101200Y94229D01*
X101196Y94226D01*
X101193Y94229D01*
X100493Y94129D01*
X100492Y94128D01*
X100492Y94129D01*
X99892Y94029D01*
X99889Y94025D01*
X99886Y94027D01*
X99186Y93827D01*
X99182Y93822D01*
X99178Y93824D01*
X97978Y93224D01*
X97975Y93217D01*
X97969Y93218D01*
X97471Y92820D01*
X96873Y92421D01*
X96869Y92411D01*
X96862Y92411D01*
X96462Y91911D01*
X96461Y91907D01*
X96459Y91907D01*
X96060Y91309D01*
X95662Y90811D01*
X95661Y90803D01*
X95656Y90802D01*
X95356Y90202D01*
X95357Y90196D01*
X95355Y90194D01*
X95353Y90194D01*
X95153Y89495D01*
X94953Y88896D01*
X94955Y88889D01*
X94951Y88887D01*
X94751Y87487D01*
X94753Y87484D01*
X94754Y87482D01*
X94751Y87480D01*
X94751Y21780D01*
X94754Y21775D01*
X94751Y21772D01*
X94851Y21172D01*
X94895Y21131D01*
X94898Y21134D01*
X94900Y21131D01*
X107800Y21131D01*
X107805Y21134D01*
G37*
G36*
X33995Y164890D02*
X33995Y164890D01*
X34079Y164893D01*
X34080Y164893D01*
X34081Y164893D01*
X34159Y164936D01*
X34232Y164975D01*
X34232Y164976D01*
X34233Y164976D01*
X34237Y164982D01*
X34320Y165090D01*
X34393Y165235D01*
X34749Y165591D01*
X34756Y165602D01*
X34769Y165613D01*
X35369Y166313D01*
X35373Y166320D01*
X35380Y166327D01*
X36072Y167216D01*
X36963Y168206D01*
X36966Y168211D01*
X36972Y168217D01*
X37967Y169410D01*
X39060Y170603D01*
X40259Y171901D01*
X41559Y173301D01*
X41563Y173308D01*
X41570Y173314D01*
X42660Y174602D01*
X43742Y175684D01*
X44717Y176562D01*
X45669Y177228D01*
X46709Y177701D01*
X47731Y177980D01*
X51580Y177980D01*
X51600Y177985D01*
X51627Y177983D01*
X54027Y178283D01*
X54049Y178291D01*
X54080Y178293D01*
X56280Y178893D01*
X56303Y178905D01*
X56336Y178913D01*
X58336Y179813D01*
X58355Y179827D01*
X58383Y179839D01*
X60283Y181039D01*
X60294Y181049D01*
X60311Y181058D01*
X62011Y182358D01*
X62028Y182379D01*
X62057Y182400D01*
X63557Y184000D01*
X63565Y184014D01*
X63580Y184027D01*
X64980Y185827D01*
X64993Y185854D01*
X65018Y185886D01*
X66918Y189586D01*
X66926Y189617D01*
X66946Y189658D01*
X67946Y193258D01*
X67948Y193292D01*
X67960Y193338D01*
X68160Y196838D01*
X68154Y196870D01*
X68156Y196917D01*
X67656Y200217D01*
X67645Y200246D01*
X67638Y200288D01*
X66638Y203088D01*
X66624Y203109D01*
X66614Y203141D01*
X65314Y205541D01*
X65288Y205570D01*
X65249Y205629D01*
X63549Y207329D01*
X63519Y207347D01*
X63482Y207382D01*
X61882Y208382D01*
X61816Y208405D01*
X61752Y208433D01*
X61735Y208433D01*
X61718Y208438D01*
X61649Y208429D01*
X61579Y208427D01*
X61564Y208418D01*
X61546Y208416D01*
X61488Y208377D01*
X61427Y208344D01*
X61417Y208329D01*
X61402Y208319D01*
X61367Y208259D01*
X61327Y208202D01*
X61324Y208183D01*
X61316Y208169D01*
X61313Y208130D01*
X61300Y208060D01*
X61300Y207460D01*
X61307Y207430D01*
X61307Y207385D01*
X61393Y206954D01*
X61217Y205894D01*
X60978Y205496D01*
X60563Y205081D01*
X60002Y204840D01*
X59433Y204840D01*
X58118Y205216D01*
X57377Y205587D01*
X56015Y206560D01*
X55338Y207139D01*
X54879Y207598D01*
X54402Y208362D01*
X54399Y208365D01*
X54396Y208371D01*
X54029Y208922D01*
X53852Y209544D01*
X53765Y210060D01*
X53848Y210557D01*
X54027Y211004D01*
X54302Y211554D01*
X54656Y211996D01*
X55394Y212642D01*
X55772Y212831D01*
X56113Y213001D01*
X56847Y213185D01*
X57701Y213280D01*
X58933Y213280D01*
X59288Y213191D01*
X59324Y213191D01*
X59380Y213180D01*
X59480Y213180D01*
X59541Y213194D01*
X59604Y213200D01*
X59625Y213214D01*
X59649Y213219D01*
X59697Y213259D01*
X59750Y213293D01*
X59763Y213314D01*
X59782Y213329D01*
X59808Y213387D01*
X59841Y213440D01*
X59843Y213465D01*
X59853Y213488D01*
X59851Y213550D01*
X59857Y213613D01*
X59848Y213636D01*
X59847Y213661D01*
X59817Y213716D01*
X59794Y213775D01*
X59774Y213794D01*
X59764Y213813D01*
X59733Y213834D01*
X59691Y213876D01*
X59397Y214073D01*
X58701Y214569D01*
X58686Y214575D01*
X58672Y214588D01*
X57472Y215288D01*
X57448Y215296D01*
X57421Y215313D01*
X55921Y215913D01*
X55903Y215916D01*
X55882Y215926D01*
X54082Y216426D01*
X54048Y216428D01*
X53999Y216440D01*
X51999Y216540D01*
X51961Y216533D01*
X51896Y216531D01*
X49696Y216031D01*
X49662Y216014D01*
X49604Y215997D01*
X47304Y214797D01*
X47279Y214776D01*
X47238Y214754D01*
X45538Y213354D01*
X45515Y213323D01*
X45467Y213275D01*
X44367Y211675D01*
X44353Y211640D01*
X44321Y211587D01*
X43721Y209887D01*
X43718Y209852D01*
X43716Y209841D01*
X43707Y209822D01*
X43708Y209800D01*
X43700Y209760D01*
X43700Y208060D01*
X43709Y208022D01*
X43715Y207953D01*
X44215Y206253D01*
X44229Y206228D01*
X44240Y206190D01*
X45140Y204390D01*
X45159Y204367D01*
X45178Y204329D01*
X46478Y202629D01*
X46495Y202615D01*
X46511Y202591D01*
X48202Y200901D01*
X49458Y199451D01*
X50100Y198076D01*
X50100Y196817D01*
X49741Y195652D01*
X48929Y194750D01*
X47819Y194009D01*
X46527Y193640D01*
X45031Y193640D01*
X43991Y193924D01*
X43171Y194197D01*
X42538Y194739D01*
X41993Y195285D01*
X41736Y195798D01*
X41560Y196413D01*
X41560Y196998D01*
X41721Y197481D01*
X41968Y197810D01*
X42334Y198176D01*
X42813Y198559D01*
X43168Y198826D01*
X43621Y199007D01*
X43633Y199015D01*
X43650Y199020D01*
X43894Y199142D01*
X44250Y199320D01*
X44279Y199344D01*
X44349Y199391D01*
X44449Y199491D01*
X44462Y199513D01*
X44482Y199529D01*
X44508Y199586D01*
X44540Y199638D01*
X44543Y199664D01*
X44553Y199688D01*
X44551Y199749D01*
X44557Y199811D01*
X44548Y199835D01*
X44547Y199861D01*
X44517Y199915D01*
X44495Y199973D01*
X44476Y199990D01*
X44464Y200013D01*
X44414Y200048D01*
X44368Y200090D01*
X44343Y200098D01*
X44322Y200113D01*
X44238Y200129D01*
X44202Y200140D01*
X44192Y200138D01*
X44180Y200140D01*
X44142Y200140D01*
X43911Y200217D01*
X43421Y200413D01*
X43386Y200418D01*
X43334Y200436D01*
X42634Y200536D01*
X42610Y200534D01*
X42580Y200540D01*
X40780Y200540D01*
X40750Y200533D01*
X40705Y200533D01*
X39705Y200333D01*
X39695Y200328D01*
X39680Y200327D01*
X38580Y200027D01*
X38563Y200018D01*
X38539Y200013D01*
X37539Y199613D01*
X37512Y199594D01*
X37469Y199576D01*
X36569Y198976D01*
X36548Y198954D01*
X36511Y198929D01*
X35711Y198129D01*
X35700Y198111D01*
X35680Y198093D01*
X34980Y197193D01*
X34969Y197169D01*
X34946Y197142D01*
X34346Y196042D01*
X34337Y196009D01*
X34314Y195964D01*
X33914Y194564D01*
X33913Y194539D01*
X33903Y194507D01*
X33703Y192907D01*
X33704Y192895D01*
X33700Y192880D01*
X33600Y190980D01*
X33602Y190971D01*
X33600Y190960D01*
X33600Y165260D01*
X33620Y165175D01*
X33639Y165093D01*
X33639Y165092D01*
X33639Y165091D01*
X33696Y165023D01*
X33748Y164959D01*
X33749Y164958D01*
X33827Y164923D01*
X33906Y164887D01*
X33907Y164887D01*
X33908Y164887D01*
X33995Y164890D01*
G37*
G36*
X18672Y70413D02*
X18672Y70413D01*
X46169Y70413D01*
X46171Y70414D01*
X46173Y70413D01*
X46700Y70446D01*
X46701Y70446D01*
X46703Y70446D01*
X47755Y70552D01*
X47757Y70554D01*
X47761Y70553D01*
X48277Y70660D01*
X48279Y70662D01*
X48282Y70661D01*
X49293Y70975D01*
X49294Y70977D01*
X49298Y70977D01*
X49783Y71182D01*
X49785Y71184D01*
X49789Y71184D01*
X50718Y71689D01*
X50720Y71692D01*
X50724Y71692D01*
X51158Y71990D01*
X51159Y71993D01*
X51162Y71994D01*
X51978Y72667D01*
X51979Y72670D01*
X51983Y72672D01*
X52348Y73051D01*
X52349Y73053D01*
X52351Y73055D01*
X53024Y73870D01*
X53025Y73874D01*
X53029Y73877D01*
X53310Y74322D01*
X53310Y74324D01*
X53312Y74326D01*
X53817Y75255D01*
X53816Y75259D01*
X53820Y75263D01*
X54006Y75756D01*
X54005Y75758D01*
X54007Y75760D01*
X54321Y76770D01*
X54320Y76774D01*
X54323Y76778D01*
X54408Y77298D01*
X54407Y77299D01*
X54409Y77302D01*
X54515Y78354D01*
X54513Y78357D01*
X54515Y78361D01*
X54507Y78887D01*
X54505Y78889D01*
X54506Y78893D01*
X54400Y79945D01*
X54398Y79947D01*
X54399Y79951D01*
X54297Y80467D01*
X54295Y80469D01*
X54295Y80473D01*
X53982Y81483D01*
X53979Y81485D01*
X53980Y81489D01*
X53778Y81975D01*
X53776Y81977D01*
X53776Y81981D01*
X53271Y82910D01*
X53269Y82912D01*
X53268Y82916D01*
X52973Y83352D01*
X52971Y83353D01*
X52970Y83357D01*
X52297Y84172D01*
X52294Y84173D01*
X52292Y84177D01*
X51915Y84545D01*
X51913Y84546D01*
X51912Y84549D01*
X51096Y85222D01*
X51092Y85222D01*
X51090Y85226D01*
X50646Y85510D01*
X50644Y85510D01*
X50643Y85513D01*
X49713Y86017D01*
X49709Y86017D01*
X49706Y86021D01*
X49214Y86210D01*
X49212Y86210D01*
X49210Y86211D01*
X48200Y86525D01*
X48197Y86524D01*
X48192Y86527D01*
X47674Y86617D01*
X47672Y86616D01*
X47669Y86617D01*
X46617Y86723D01*
X46376Y86748D01*
X46373Y86746D01*
X46370Y86748D01*
X13054Y86748D01*
X12525Y86743D01*
X12523Y86741D01*
X12520Y86742D01*
X10941Y86583D01*
X10937Y86580D01*
X10929Y86581D01*
X9414Y86111D01*
X9410Y86106D01*
X9402Y86106D01*
X8009Y85349D01*
X8006Y85344D01*
X7999Y85342D01*
X6781Y84326D01*
X6779Y84321D01*
X6772Y84317D01*
X5774Y83086D01*
X5774Y83081D01*
X5768Y83076D01*
X5263Y82147D01*
X5264Y82146D01*
X5262Y82145D01*
X5027Y81673D01*
X5028Y81668D01*
X5023Y81663D01*
X4710Y80653D01*
X4710Y80652D01*
X4709Y80651D01*
X4570Y80143D01*
X4571Y80138D01*
X4568Y80132D01*
X4415Y78554D01*
X4418Y78549D01*
X4415Y78541D01*
X4575Y76963D01*
X4578Y76959D01*
X4577Y76951D01*
X5043Y75435D01*
X5047Y75431D01*
X5048Y75423D01*
X5799Y74027D01*
X5804Y74024D01*
X5806Y74017D01*
X5869Y73941D01*
X6076Y73690D01*
X6077Y73690D01*
X6284Y73439D01*
X6492Y73188D01*
X6700Y72937D01*
X6817Y72795D01*
X6823Y72793D01*
X6826Y72786D01*
X8056Y71785D01*
X8061Y71785D01*
X8066Y71779D01*
X9466Y71035D01*
X9471Y71036D01*
X9477Y71030D01*
X10995Y70573D01*
X11000Y70575D01*
X11007Y70571D01*
X12585Y70413D01*
X12588Y70414D01*
X12591Y70413D01*
X15088Y70413D01*
X15107Y70425D01*
X15130Y70429D01*
X15136Y70444D01*
X15145Y70449D01*
X15143Y70460D01*
X15150Y70476D01*
X15149Y70625D01*
X15149Y75008D01*
X15142Y75019D01*
X15144Y75032D01*
X15125Y75045D01*
X15112Y75065D01*
X15099Y75063D01*
X15088Y75071D01*
X15054Y75057D01*
X15045Y75055D01*
X15043Y75052D01*
X15040Y75051D01*
X14818Y74812D01*
X14437Y74458D01*
X14004Y74174D01*
X13532Y73961D01*
X13030Y73835D01*
X12514Y73778D01*
X11993Y73799D01*
X11474Y73848D01*
X10972Y73985D01*
X10481Y74155D01*
X10028Y74409D01*
X9611Y74717D01*
X9224Y75063D01*
X8916Y75482D01*
X8639Y75922D01*
X8424Y76397D01*
X8264Y76892D01*
X8139Y77399D01*
X8040Y78441D01*
X8105Y79485D01*
X8220Y79994D01*
X8353Y80499D01*
X8569Y80972D01*
X8823Y81427D01*
X9129Y81847D01*
X9501Y82208D01*
X9904Y82533D01*
X10358Y82786D01*
X10842Y82974D01*
X11339Y83125D01*
X12380Y83205D01*
X12897Y83156D01*
X13403Y83041D01*
X13885Y82851D01*
X14327Y82582D01*
X14728Y82249D01*
X15043Y81954D01*
X15054Y81952D01*
X15060Y81943D01*
X15085Y81947D01*
X15110Y81942D01*
X15116Y81951D01*
X15127Y81953D01*
X15146Y81994D01*
X15149Y81998D01*
X15148Y81999D01*
X15149Y82000D01*
X15149Y83055D01*
X15153Y83108D01*
X18098Y83108D01*
X18098Y70468D01*
X18110Y70449D01*
X18114Y70426D01*
X18129Y70420D01*
X18134Y70411D01*
X18145Y70413D01*
X18161Y70406D01*
X18672Y70413D01*
G37*
G36*
X57547Y21167D02*
X57547Y21167D01*
X57545Y21170D01*
X57549Y21172D01*
X57649Y21772D01*
X57646Y21777D01*
X57649Y21780D01*
X57649Y58980D01*
X57613Y59027D01*
X57606Y59022D01*
X57600Y59029D01*
X44100Y59029D01*
X44053Y58993D01*
X44055Y58990D01*
X44051Y58988D01*
X43951Y58388D01*
X43954Y58383D01*
X43951Y58380D01*
X43951Y21180D01*
X43987Y21133D01*
X43994Y21138D01*
X44000Y21131D01*
X57500Y21131D01*
X57547Y21167D01*
G37*
G36*
X184005Y21134D02*
X184005Y21134D01*
X184008Y21131D01*
X184608Y21231D01*
X184649Y21275D01*
X184646Y21278D01*
X184649Y21280D01*
X184649Y56480D01*
X184630Y56505D01*
X184631Y56518D01*
X184131Y56918D01*
X184123Y56919D01*
X184122Y56924D01*
X178022Y59924D01*
X178006Y59921D01*
X178000Y59929D01*
X177400Y59929D01*
X177387Y59920D01*
X177378Y59924D01*
X171378Y56924D01*
X171371Y56911D01*
X171362Y56911D01*
X170962Y56411D01*
X170961Y56388D01*
X170951Y56380D01*
X170951Y21680D01*
X170959Y21669D01*
X170954Y21662D01*
X171154Y21162D01*
X171195Y21137D01*
X171200Y21131D01*
X184000Y21131D01*
X184005Y21134D01*
G37*
G36*
X82838Y21160D02*
X82838Y21160D01*
X82846Y21162D01*
X83046Y21662D01*
X83042Y21675D01*
X83049Y21680D01*
X83049Y58180D01*
X83013Y58227D01*
X83010Y58225D01*
X83008Y58229D01*
X82408Y58329D01*
X82403Y58326D01*
X82400Y58329D01*
X69500Y58329D01*
X69453Y58293D01*
X69455Y58290D01*
X69451Y58288D01*
X69351Y57688D01*
X69354Y57683D01*
X69351Y57680D01*
X69351Y21380D01*
X69380Y21342D01*
X69382Y21334D01*
X69882Y21134D01*
X69895Y21138D01*
X69900Y21131D01*
X82800Y21131D01*
X82838Y21160D01*
G37*
G36*
X209511Y21139D02*
X209511Y21139D01*
X209518Y21134D01*
X210018Y21334D01*
X210033Y21358D01*
X210040Y21364D01*
X210038Y21367D01*
X210043Y21375D01*
X210049Y21380D01*
X210049Y56680D01*
X210037Y56696D01*
X210041Y56707D01*
X209841Y57007D01*
X209785Y57027D01*
X209783Y57022D01*
X209778Y57024D01*
X203681Y54026D01*
X203104Y53833D01*
X197022Y56924D01*
X197017Y56923D01*
X197016Y56927D01*
X196416Y57127D01*
X196414Y57126D01*
X196413Y57127D01*
X196410Y57125D01*
X196359Y57108D01*
X196365Y57091D01*
X196351Y57080D01*
X196351Y21580D01*
X196364Y21562D01*
X196361Y21550D01*
X196661Y21150D01*
X196692Y21142D01*
X196700Y21131D01*
X209500Y21131D01*
X209511Y21139D01*
G37*
G36*
X87905Y194854D02*
X87905Y194854D01*
X87908Y194851D01*
X89108Y195051D01*
X89114Y195057D01*
X89118Y195054D01*
X90118Y195454D01*
X90123Y195461D01*
X90128Y195460D01*
X91128Y196160D01*
X91131Y196169D01*
X91138Y196169D01*
X91938Y197169D01*
X91939Y197174D01*
X91942Y197175D01*
X92542Y198175D01*
X92541Y198182D01*
X92547Y198186D01*
X92547Y198187D01*
X92548Y198187D01*
X92848Y199287D01*
X92845Y199293D01*
X92849Y199296D01*
X92949Y200496D01*
X92944Y200504D01*
X92949Y200508D01*
X92749Y201708D01*
X92742Y201715D01*
X92745Y201720D01*
X92245Y202820D01*
X92241Y202822D01*
X92242Y202825D01*
X91656Y203802D01*
X91844Y204178D01*
X91843Y204183D01*
X91847Y204184D01*
X92247Y205384D01*
X92245Y205389D01*
X92248Y205391D01*
X92448Y206491D01*
X92444Y206500D01*
X92449Y206504D01*
X92349Y207704D01*
X92343Y207711D01*
X92346Y207717D01*
X91946Y208817D01*
X91940Y208821D01*
X91942Y208825D01*
X91342Y209825D01*
X91334Y209829D01*
X91335Y209835D01*
X90435Y210735D01*
X90423Y210736D01*
X90422Y210744D01*
X89422Y211244D01*
X89418Y211243D01*
X89417Y211246D01*
X88317Y211646D01*
X88312Y211645D01*
X88303Y211645D01*
X88300Y211649D01*
X82300Y211649D01*
X82298Y211648D01*
X82297Y211649D01*
X80797Y211549D01*
X80788Y211542D01*
X80786Y211540D01*
X80778Y211544D01*
X79978Y211144D01*
X79968Y211123D01*
X79959Y211117D01*
X79953Y211114D01*
X79653Y210114D01*
X79656Y210104D01*
X79651Y210100D01*
X79651Y196900D01*
X79653Y196897D01*
X79651Y196896D01*
X79751Y195696D01*
X79769Y195676D01*
X79768Y195663D01*
X80468Y195063D01*
X80487Y195061D01*
X80493Y195051D01*
X81893Y194851D01*
X81898Y194854D01*
X81900Y194851D01*
X87900Y194851D01*
X87905Y194854D01*
G37*
G36*
X113104Y194951D02*
X113104Y194951D01*
X113113Y194959D01*
X113120Y194955D01*
X114020Y195355D01*
X114035Y195383D01*
X114048Y195388D01*
X114348Y196588D01*
X114344Y196596D01*
X114349Y196600D01*
X114349Y209900D01*
X114345Y209906D01*
X114348Y209910D01*
X114148Y210910D01*
X114130Y210926D01*
X114130Y210939D01*
X113330Y211539D01*
X113310Y211539D01*
X113303Y211549D01*
X111803Y211649D01*
X111797Y211645D01*
X111789Y211645D01*
X111787Y211643D01*
X111782Y211646D01*
X110782Y211246D01*
X110773Y211231D01*
X110762Y211232D01*
X109762Y210032D01*
X109762Y210031D01*
X108562Y208531D01*
X108562Y208530D01*
X108561Y208530D01*
X105867Y205038D01*
X105014Y204564D01*
X100840Y210229D01*
X100140Y211228D01*
X100120Y211235D01*
X100117Y211246D01*
X99017Y211646D01*
X99012Y211645D01*
X99000Y211645D01*
X98997Y211649D01*
X97597Y211549D01*
X97592Y211545D01*
X97587Y211541D01*
X97580Y211545D01*
X96680Y211145D01*
X96667Y211122D01*
X96660Y211117D01*
X96660Y211116D01*
X96653Y211113D01*
X96353Y210013D01*
X96356Y210004D01*
X96351Y210000D01*
X96351Y196900D01*
X96353Y196897D01*
X96351Y196896D01*
X96451Y195796D01*
X96467Y195778D01*
X96465Y195765D01*
X97165Y195065D01*
X97187Y195062D01*
X97194Y195051D01*
X98694Y194851D01*
X98706Y194858D01*
X98713Y194853D01*
X99813Y195153D01*
X99830Y195174D01*
X99843Y195176D01*
X100343Y196076D01*
X100341Y196093D01*
X100349Y196100D01*
X100349Y204308D01*
X100565Y204164D01*
X101360Y203071D01*
X101361Y203071D01*
X101360Y203071D01*
X103660Y199971D01*
X103670Y199968D01*
X103670Y199961D01*
X104570Y199261D01*
X104590Y199261D01*
X104596Y199251D01*
X105796Y199151D01*
X105816Y199164D01*
X105828Y199160D01*
X106828Y199860D01*
X106831Y199868D01*
X106837Y199868D01*
X107437Y200568D01*
X107438Y200571D01*
X107440Y200571D01*
X109040Y202771D01*
X110251Y204448D01*
X110251Y196200D01*
X110261Y196186D01*
X110257Y196176D01*
X110757Y195276D01*
X110779Y195266D01*
X110783Y195254D01*
X111883Y194854D01*
X111898Y194858D01*
X111904Y194851D01*
X113104Y194951D01*
G37*
G36*
X155704Y194951D02*
X155704Y194951D01*
X155707Y194953D01*
X155709Y194952D01*
X156809Y195152D01*
X156815Y195158D01*
X156820Y195155D01*
X157920Y195655D01*
X157924Y195663D01*
X157930Y195661D01*
X158830Y196361D01*
X158831Y196366D01*
X158835Y196365D01*
X159735Y197265D01*
X159736Y197274D01*
X159742Y197275D01*
X160342Y198275D01*
X160342Y198281D01*
X160342Y198282D01*
X160346Y198283D01*
X160746Y199383D01*
X160743Y199392D01*
X160749Y199396D01*
X160849Y200596D01*
X160844Y200604D01*
X160849Y200608D01*
X160749Y201208D01*
X160744Y201213D01*
X160746Y201217D01*
X160346Y202317D01*
X160341Y202320D01*
X160343Y202325D01*
X159643Y203525D01*
X159634Y203528D01*
X159635Y203535D01*
X158966Y204204D01*
X159639Y205070D01*
X159639Y205076D01*
X159643Y205076D01*
X160243Y206176D01*
X160241Y206191D01*
X160249Y206196D01*
X160349Y207396D01*
X160344Y207404D01*
X160349Y207408D01*
X160149Y208608D01*
X160142Y208615D01*
X160145Y208620D01*
X159645Y209720D01*
X159637Y209724D01*
X159639Y209730D01*
X158939Y210630D01*
X158932Y210632D01*
X158933Y210637D01*
X158033Y211437D01*
X158023Y211438D01*
X158022Y211444D01*
X157022Y211944D01*
X157014Y211943D01*
X157012Y211948D01*
X155812Y212248D01*
X155806Y212245D01*
X155804Y212249D01*
X154604Y212349D01*
X154599Y212346D01*
X154596Y212349D01*
X153396Y212249D01*
X153389Y212243D01*
X153383Y212246D01*
X152283Y211846D01*
X152279Y211840D01*
X152275Y211842D01*
X151275Y211242D01*
X151272Y211236D01*
X151267Y211237D01*
X150367Y210437D01*
X150366Y210430D01*
X150361Y210430D01*
X149661Y209530D01*
X149661Y209519D01*
X149654Y209517D01*
X149254Y208417D01*
X149256Y208411D01*
X149252Y208408D01*
X149254Y208406D01*
X149251Y208404D01*
X149151Y207204D01*
X149154Y207199D01*
X149151Y207196D01*
X149251Y205996D01*
X149260Y205986D01*
X149256Y205978D01*
X149856Y204778D01*
X149864Y204774D01*
X149863Y204768D01*
X150433Y204103D01*
X149665Y203335D01*
X149664Y203325D01*
X149657Y203324D01*
X149057Y202224D01*
X149058Y202218D01*
X149054Y202217D01*
X148654Y201117D01*
X148657Y201105D01*
X148651Y201100D01*
X148651Y199900D01*
X148656Y199893D01*
X148652Y199888D01*
X148952Y198688D01*
X148958Y198683D01*
X148956Y198678D01*
X149456Y197678D01*
X149462Y197675D01*
X149461Y197670D01*
X150161Y196770D01*
X150168Y196768D01*
X150167Y196763D01*
X151067Y195963D01*
X151076Y195963D01*
X151076Y195957D01*
X152176Y195357D01*
X152185Y195358D01*
X152187Y195353D01*
X153287Y195053D01*
X153290Y195054D01*
X153291Y195052D01*
X154391Y194852D01*
X154400Y194856D01*
X154404Y194851D01*
X155704Y194951D01*
G37*
G36*
X73503Y233051D02*
X73503Y233051D01*
X73520Y233065D01*
X73532Y233063D01*
X74232Y233663D01*
X74235Y233676D01*
X74237Y233686D01*
X74249Y233692D01*
X74449Y234892D01*
X74446Y234897D01*
X74449Y234900D01*
X74449Y237266D01*
X75209Y237551D01*
X77500Y237551D01*
X77505Y237555D01*
X77509Y237552D01*
X78609Y237752D01*
X78613Y237756D01*
X78617Y237754D01*
X79717Y238154D01*
X79720Y238158D01*
X79724Y238157D01*
X80824Y238757D01*
X80827Y238764D01*
X80833Y238763D01*
X81733Y239563D01*
X81734Y239570D01*
X81739Y239570D01*
X82439Y240470D01*
X82439Y240478D01*
X82445Y240480D01*
X82945Y241580D01*
X82944Y241585D01*
X82948Y241587D01*
X83248Y242687D01*
X83247Y242688D01*
X83248Y242689D01*
X83246Y242691D01*
X83245Y242693D01*
X83249Y242696D01*
X83349Y243896D01*
X83347Y243899D01*
X83349Y243900D01*
X83349Y245100D01*
X83337Y245116D01*
X83341Y245127D01*
X83143Y245424D01*
X82645Y246520D01*
X82639Y246524D01*
X82640Y246528D01*
X81940Y247528D01*
X81932Y247531D01*
X81933Y247537D01*
X81033Y248337D01*
X81028Y248337D01*
X81028Y248340D01*
X80028Y249040D01*
X80019Y249040D01*
X80017Y249046D01*
X78917Y249446D01*
X78914Y249445D01*
X78913Y249448D01*
X77813Y249748D01*
X77807Y249745D01*
X77803Y249745D01*
X77800Y249749D01*
X71800Y249749D01*
X71794Y249745D01*
X71788Y249745D01*
X71787Y249744D01*
X71783Y249746D01*
X70683Y249346D01*
X70668Y249323D01*
X70655Y249320D01*
X70255Y248420D01*
X70258Y248406D01*
X70251Y248400D01*
X70251Y235400D01*
X70253Y235397D01*
X70251Y235396D01*
X70351Y234196D01*
X70360Y234186D01*
X70356Y234178D01*
X70756Y233378D01*
X70780Y233366D01*
X70784Y233353D01*
X71984Y232953D01*
X71997Y232958D01*
X72003Y232951D01*
X73503Y233051D01*
G37*
G36*
X121003Y194951D02*
X121003Y194951D01*
X121020Y194965D01*
X121032Y194963D01*
X121732Y195563D01*
X121735Y195576D01*
X121737Y195586D01*
X121749Y195592D01*
X121949Y196792D01*
X121946Y196797D01*
X121949Y196800D01*
X121949Y199166D01*
X122709Y199451D01*
X125100Y199451D01*
X125105Y199455D01*
X125109Y199452D01*
X126209Y199652D01*
X126214Y199657D01*
X126218Y199654D01*
X127218Y200054D01*
X127245Y200099D01*
X127256Y200077D01*
X127310Y200052D01*
X127315Y200062D01*
X127325Y200058D01*
X128325Y200658D01*
X128328Y200664D01*
X128333Y200663D01*
X129233Y201463D01*
X129234Y201468D01*
X129237Y201467D01*
X130037Y202367D01*
X130038Y202378D01*
X130045Y202380D01*
X130545Y203480D01*
X130543Y203488D01*
X130548Y203491D01*
X130748Y204591D01*
X130747Y204594D01*
X130749Y204596D01*
X130849Y205796D01*
X130847Y205799D01*
X130849Y205800D01*
X130849Y207000D01*
X130837Y207016D01*
X130841Y207027D01*
X130643Y207324D01*
X130145Y208420D01*
X130139Y208424D01*
X130140Y208428D01*
X129440Y209428D01*
X129434Y209430D01*
X129435Y209435D01*
X128635Y210235D01*
X128627Y210236D01*
X128626Y210242D01*
X127526Y210942D01*
X127519Y210941D01*
X127517Y210946D01*
X126417Y211346D01*
X126414Y211345D01*
X126413Y211348D01*
X125313Y211648D01*
X125307Y211645D01*
X125303Y211645D01*
X125300Y211649D01*
X119300Y211649D01*
X119294Y211645D01*
X119289Y211645D01*
X119287Y211643D01*
X119282Y211646D01*
X118282Y211246D01*
X118269Y211224D01*
X118267Y211223D01*
X118255Y211220D01*
X117855Y210320D01*
X117858Y210306D01*
X117851Y210300D01*
X117851Y196100D01*
X117860Y196087D01*
X117856Y196078D01*
X118256Y195278D01*
X118280Y195266D01*
X118284Y195253D01*
X119484Y194853D01*
X119497Y194858D01*
X119503Y194851D01*
X121003Y194951D01*
G37*
G36*
X139908Y194857D02*
X139908Y194857D01*
X139913Y194853D01*
X141013Y195153D01*
X141017Y195157D01*
X141020Y195155D01*
X142120Y195655D01*
X142124Y195663D01*
X142130Y195661D01*
X143030Y196361D01*
X143032Y196368D01*
X143037Y196367D01*
X143837Y197267D01*
X143837Y197276D01*
X143843Y197276D01*
X144443Y198376D01*
X144443Y198381D01*
X144445Y198383D01*
X144446Y198383D01*
X144846Y199483D01*
X144843Y199492D01*
X144849Y199496D01*
X144949Y200696D01*
X144946Y200701D01*
X144949Y200704D01*
X144849Y201904D01*
X144843Y201911D01*
X144846Y201917D01*
X144446Y203017D01*
X144440Y203021D01*
X144442Y203025D01*
X143842Y204025D01*
X143836Y204028D01*
X143837Y204033D01*
X143037Y204933D01*
X143028Y204934D01*
X143028Y204940D01*
X142028Y205640D01*
X142021Y205640D01*
X142020Y205645D01*
X140920Y206145D01*
X140911Y206143D01*
X140908Y206149D01*
X139708Y206349D01*
X139703Y206346D01*
X139700Y206349D01*
X138557Y206349D01*
X138744Y207661D01*
X139408Y207851D01*
X143101Y207951D01*
X143107Y207955D01*
X143109Y207957D01*
X143114Y207953D01*
X144114Y208253D01*
X144132Y208277D01*
X144145Y208280D01*
X144545Y209180D01*
X144542Y209194D01*
X144549Y209200D01*
X144549Y210800D01*
X144539Y210814D01*
X144543Y210824D01*
X144043Y211724D01*
X144019Y211735D01*
X144014Y211747D01*
X143014Y212047D01*
X143004Y212044D01*
X143000Y212049D01*
X137000Y212049D01*
X136991Y212042D01*
X136984Y212047D01*
X135784Y211647D01*
X135773Y211630D01*
X135761Y211630D01*
X135061Y210730D01*
X135061Y210724D01*
X135060Y210723D01*
X135061Y210721D01*
X135061Y210717D01*
X135053Y210714D01*
X134853Y210014D01*
X134855Y210008D01*
X134851Y210007D01*
X134251Y205507D01*
X134251Y205506D01*
X133951Y203206D01*
X133958Y203194D01*
X133953Y203186D01*
X134153Y202486D01*
X134171Y202473D01*
X134172Y202460D01*
X135172Y201760D01*
X135180Y201760D01*
X135181Y201755D01*
X136381Y201255D01*
X136391Y201257D01*
X136394Y201253D01*
X136408Y201253D01*
X136410Y201252D01*
X137410Y201452D01*
X137418Y201461D01*
X137425Y201458D01*
X138415Y202052D01*
X139685Y202149D01*
X140557Y201471D01*
X140847Y200407D01*
X140266Y199440D01*
X139292Y199050D01*
X137918Y199148D01*
X137030Y199839D01*
X137020Y199839D01*
X137018Y199846D01*
X136018Y200246D01*
X135996Y200240D01*
X135986Y200247D01*
X134986Y199947D01*
X134974Y199931D01*
X134962Y199931D01*
X134062Y198831D01*
X134061Y198818D01*
X134053Y198816D01*
X133753Y197916D01*
X133762Y197890D01*
X133756Y197878D01*
X134256Y196878D01*
X134268Y196872D01*
X134267Y196863D01*
X135167Y196063D01*
X135176Y196063D01*
X135176Y196057D01*
X136276Y195457D01*
X136282Y195458D01*
X136283Y195454D01*
X137383Y195054D01*
X137390Y195056D01*
X137392Y195051D01*
X138592Y194851D01*
X138597Y194854D01*
X138600Y194851D01*
X139900Y194851D01*
X139908Y194857D01*
G37*
G36*
X90108Y213907D02*
X90108Y213907D01*
X90113Y213903D01*
X91213Y214203D01*
X91215Y214205D01*
X91217Y214204D01*
X92317Y214604D01*
X92321Y214610D01*
X92325Y214608D01*
X93325Y215208D01*
X93329Y215216D01*
X93335Y215215D01*
X94135Y216015D01*
X94136Y216022D01*
X94140Y216022D01*
X94840Y217022D01*
X94840Y217031D01*
X94846Y217033D01*
X95246Y218133D01*
X95243Y218142D01*
X95249Y218146D01*
X95349Y219346D01*
X95346Y219351D01*
X95349Y219354D01*
X95249Y220554D01*
X95245Y220559D01*
X95248Y220563D01*
X94948Y221663D01*
X94938Y221670D01*
X94940Y221678D01*
X94240Y222678D01*
X94230Y222682D01*
X94230Y222689D01*
X93330Y223389D01*
X93323Y223389D01*
X93322Y223394D01*
X92322Y223894D01*
X92314Y223893D01*
X92312Y223898D01*
X91112Y224198D01*
X88819Y224796D01*
X87842Y225382D01*
X87554Y226437D01*
X88225Y227204D01*
X89395Y227399D01*
X90477Y227006D01*
X91472Y226310D01*
X91486Y226310D01*
X91490Y226302D01*
X92490Y226102D01*
X92517Y226115D01*
X92530Y226111D01*
X93430Y226811D01*
X93433Y226821D01*
X93440Y226821D01*
X94240Y227921D01*
X94239Y227943D01*
X94249Y227950D01*
X94249Y228850D01*
X94235Y228868D01*
X94238Y228881D01*
X93438Y229881D01*
X93428Y229883D01*
X93427Y229891D01*
X92527Y230491D01*
X92518Y230490D01*
X92516Y230497D01*
X91316Y230897D01*
X91311Y230895D01*
X91309Y230898D01*
X90209Y231098D01*
X90205Y231097D01*
X90204Y231099D01*
X88904Y231199D01*
X88899Y231196D01*
X88896Y231199D01*
X87596Y231099D01*
X87591Y231094D01*
X87587Y231098D01*
X86487Y230798D01*
X86481Y230790D01*
X86475Y230792D01*
X85475Y230192D01*
X85472Y230186D01*
X85468Y230187D01*
X84668Y229487D01*
X84666Y229478D01*
X84660Y229478D01*
X83960Y228478D01*
X83960Y228469D01*
X83954Y228467D01*
X83554Y227367D01*
X83555Y227362D01*
X83552Y227359D01*
X83352Y226259D01*
X83357Y226248D01*
X83351Y226243D01*
X83551Y224943D01*
X83554Y224940D01*
X83553Y224937D01*
X83853Y223837D01*
X83862Y223830D01*
X83860Y223822D01*
X84560Y222822D01*
X84568Y222819D01*
X84568Y222813D01*
X85368Y222113D01*
X85378Y222112D01*
X85380Y222105D01*
X86480Y221605D01*
X86483Y221606D01*
X86483Y221604D01*
X87583Y221204D01*
X87587Y221205D01*
X87588Y221202D01*
X88788Y220902D01*
X89883Y220604D01*
X90956Y220116D01*
X91148Y219059D01*
X90666Y218190D01*
X89595Y217801D01*
X88418Y217997D01*
X87329Y218690D01*
X86331Y219488D01*
X86321Y219489D01*
X86320Y219495D01*
X85420Y219895D01*
X85396Y219889D01*
X85386Y219897D01*
X84386Y219597D01*
X84376Y219583D01*
X84365Y219585D01*
X83365Y218585D01*
X83363Y218566D01*
X83352Y218561D01*
X83152Y217661D01*
X83162Y217638D01*
X83157Y217626D01*
X83757Y216526D01*
X83764Y216523D01*
X83763Y216518D01*
X84463Y215718D01*
X84472Y215716D01*
X84472Y215710D01*
X85472Y215010D01*
X85474Y215010D01*
X85475Y215008D01*
X86475Y214408D01*
X86483Y214409D01*
X86484Y214403D01*
X87684Y214003D01*
X87693Y214006D01*
X87696Y214001D01*
X88896Y213901D01*
X88899Y213903D01*
X88900Y213901D01*
X90100Y213901D01*
X90108Y213907D01*
G37*
G36*
X150308Y213907D02*
X150308Y213907D01*
X150313Y213903D01*
X151413Y214203D01*
X151417Y214207D01*
X151420Y214205D01*
X152520Y214705D01*
X152522Y214709D01*
X152525Y214708D01*
X153525Y215308D01*
X153529Y215318D01*
X153537Y215317D01*
X154337Y216217D01*
X154337Y216222D01*
X154340Y216222D01*
X155040Y217222D01*
X155040Y217227D01*
X155044Y217228D01*
X155544Y218228D01*
X155542Y218239D01*
X155549Y218242D01*
X155749Y219442D01*
X155746Y219447D01*
X155749Y219450D01*
X155749Y220750D01*
X155746Y220755D01*
X155749Y220758D01*
X155549Y221958D01*
X155546Y221961D01*
X155548Y221963D01*
X155248Y223063D01*
X155237Y223071D01*
X155239Y223080D01*
X154539Y223980D01*
X154536Y223981D01*
X154537Y223983D01*
X153737Y224883D01*
X153728Y224884D01*
X153728Y224890D01*
X152728Y225590D01*
X152723Y225590D01*
X152722Y225594D01*
X151722Y226094D01*
X151715Y226093D01*
X151713Y226098D01*
X150613Y226398D01*
X150604Y226394D01*
X150600Y226399D01*
X149300Y226399D01*
X149297Y226397D01*
X149296Y226399D01*
X148196Y226299D01*
X148189Y226293D01*
X148183Y226296D01*
X147083Y225896D01*
X147082Y225894D01*
X147080Y225895D01*
X145980Y225395D01*
X145975Y225385D01*
X145967Y225387D01*
X143267Y222987D01*
X143262Y222958D01*
X143251Y222950D01*
X143251Y220450D01*
X143253Y220448D01*
X143251Y220446D01*
X143351Y219146D01*
X143356Y219141D01*
X143353Y219137D01*
X143653Y218037D01*
X143657Y218033D01*
X143655Y218030D01*
X144155Y216930D01*
X144163Y216926D01*
X144161Y216920D01*
X144861Y216020D01*
X144868Y216018D01*
X144867Y216013D01*
X145767Y215213D01*
X145774Y215213D01*
X145775Y215208D01*
X146775Y214608D01*
X146779Y214608D01*
X146780Y214605D01*
X147880Y214105D01*
X147889Y214107D01*
X147892Y214101D01*
X149092Y213901D01*
X149097Y213904D01*
X149100Y213901D01*
X150300Y213901D01*
X150308Y213907D01*
G37*
G36*
X107303Y214001D02*
X107303Y214001D01*
X107308Y214005D01*
X107311Y214002D01*
X108611Y214302D01*
X108618Y214310D01*
X108624Y214307D01*
X109524Y214807D01*
X109529Y214819D01*
X109538Y214818D01*
X110038Y215418D01*
X110039Y215439D01*
X110049Y215445D01*
X110149Y216345D01*
X110138Y216363D01*
X110143Y216375D01*
X109443Y217575D01*
X109423Y217583D01*
X109420Y217595D01*
X108520Y217995D01*
X108497Y217990D01*
X108487Y217998D01*
X107389Y217698D01*
X106395Y217499D01*
X105106Y217499D01*
X103927Y217794D01*
X103186Y218627D01*
X104008Y218901D01*
X108800Y218901D01*
X108813Y218910D01*
X108822Y218906D01*
X109822Y219406D01*
X109826Y219414D01*
X109833Y219413D01*
X110733Y220213D01*
X110737Y220232D01*
X110747Y220241D01*
X110744Y220246D01*
X110749Y220250D01*
X110749Y221550D01*
X110747Y221553D01*
X110749Y221554D01*
X110649Y222754D01*
X110643Y222761D01*
X110646Y222767D01*
X110246Y223867D01*
X110237Y223873D01*
X110239Y223880D01*
X109539Y224780D01*
X109532Y224782D01*
X109533Y224787D01*
X108633Y225587D01*
X108623Y225588D01*
X108622Y225594D01*
X107622Y226094D01*
X107614Y226093D01*
X107612Y226098D01*
X106412Y226398D01*
X106404Y226394D01*
X106400Y226399D01*
X105100Y226399D01*
X105097Y226397D01*
X105096Y226399D01*
X103896Y226299D01*
X103891Y226295D01*
X103888Y226298D01*
X102688Y225998D01*
X102683Y225992D01*
X102678Y225994D01*
X101678Y225494D01*
X101675Y225488D01*
X101670Y225489D01*
X100770Y224789D01*
X100769Y224784D01*
X100765Y224785D01*
X99965Y223985D01*
X99964Y223976D01*
X99958Y223975D01*
X99358Y222975D01*
X99359Y222968D01*
X99354Y222967D01*
X98954Y221867D01*
X98957Y221858D01*
X98951Y221854D01*
X98851Y220654D01*
X98853Y220651D01*
X98851Y220650D01*
X98851Y219350D01*
X98855Y219345D01*
X98852Y219341D01*
X99052Y218241D01*
X99056Y218237D01*
X99054Y218233D01*
X99454Y217133D01*
X99462Y217128D01*
X99460Y217122D01*
X100160Y216122D01*
X100162Y216121D01*
X100161Y216120D01*
X100861Y215220D01*
X100875Y215216D01*
X100876Y215207D01*
X101976Y214607D01*
X101982Y214608D01*
X101983Y214604D01*
X103083Y214204D01*
X103089Y214206D01*
X103091Y214202D01*
X104191Y214002D01*
X104195Y214003D01*
X104197Y214001D01*
X105597Y213901D01*
X105601Y213904D01*
X105603Y213901D01*
X107303Y214001D01*
G37*
G36*
X107603Y233051D02*
X107603Y233051D01*
X107608Y233055D01*
X107611Y233052D01*
X108911Y233352D01*
X108918Y233360D01*
X108924Y233357D01*
X109824Y233857D01*
X109829Y233869D01*
X109838Y233868D01*
X110338Y234468D01*
X110339Y234489D01*
X110349Y234495D01*
X110449Y235395D01*
X110438Y235413D01*
X110443Y235425D01*
X109743Y236625D01*
X109723Y236633D01*
X109720Y236645D01*
X108820Y237045D01*
X108797Y237040D01*
X108787Y237048D01*
X107689Y236748D01*
X106695Y236549D01*
X105406Y236549D01*
X104227Y236844D01*
X103486Y237677D01*
X104308Y237951D01*
X109100Y237951D01*
X109113Y237960D01*
X109122Y237956D01*
X110122Y238456D01*
X110126Y238464D01*
X110133Y238463D01*
X111033Y239263D01*
X111037Y239282D01*
X111047Y239291D01*
X111044Y239296D01*
X111049Y239300D01*
X111049Y240600D01*
X111047Y240603D01*
X111049Y240604D01*
X110949Y241804D01*
X110943Y241811D01*
X110946Y241817D01*
X110546Y242917D01*
X110537Y242923D01*
X110539Y242930D01*
X109839Y243830D01*
X109832Y243832D01*
X109833Y243837D01*
X108933Y244637D01*
X108923Y244638D01*
X108922Y244644D01*
X107922Y245144D01*
X107914Y245143D01*
X107912Y245148D01*
X106712Y245448D01*
X106704Y245444D01*
X106700Y245449D01*
X105400Y245449D01*
X105397Y245447D01*
X105396Y245449D01*
X104196Y245349D01*
X104191Y245345D01*
X104188Y245348D01*
X102988Y245048D01*
X102983Y245042D01*
X102978Y245044D01*
X101978Y244544D01*
X101975Y244538D01*
X101970Y244539D01*
X101070Y243839D01*
X101069Y243834D01*
X101065Y243835D01*
X100265Y243035D01*
X100264Y243026D01*
X100258Y243025D01*
X99658Y242025D01*
X99659Y242018D01*
X99654Y242017D01*
X99254Y240917D01*
X99257Y240908D01*
X99251Y240904D01*
X99151Y239704D01*
X99153Y239701D01*
X99151Y239700D01*
X99151Y238400D01*
X99155Y238395D01*
X99152Y238391D01*
X99352Y237291D01*
X99356Y237287D01*
X99354Y237283D01*
X99754Y236183D01*
X99762Y236178D01*
X99760Y236172D01*
X100460Y235172D01*
X100462Y235171D01*
X100461Y235170D01*
X101161Y234270D01*
X101175Y234266D01*
X101176Y234257D01*
X102276Y233657D01*
X102282Y233658D01*
X102283Y233654D01*
X103383Y233254D01*
X103389Y233256D01*
X103391Y233252D01*
X104491Y233052D01*
X104495Y233053D01*
X104497Y233051D01*
X105897Y232951D01*
X105901Y232954D01*
X105903Y232951D01*
X107603Y233051D01*
G37*
G36*
X178303Y233051D02*
X178303Y233051D01*
X178308Y233055D01*
X178311Y233052D01*
X179611Y233352D01*
X179618Y233360D01*
X179624Y233357D01*
X180524Y233857D01*
X180529Y233869D01*
X180538Y233868D01*
X181038Y234468D01*
X181039Y234492D01*
X181049Y234500D01*
X181049Y235400D01*
X181040Y235413D01*
X181044Y235422D01*
X180444Y236622D01*
X180423Y236632D01*
X180420Y236645D01*
X179520Y237045D01*
X179498Y237040D01*
X179488Y237048D01*
X178289Y236748D01*
X177295Y236549D01*
X176007Y236549D01*
X174927Y236844D01*
X174185Y237679D01*
X174917Y237954D01*
X174948Y238003D01*
X174952Y237988D01*
X174999Y237951D01*
X174999Y237952D01*
X175000Y237951D01*
X179700Y237951D01*
X179712Y237960D01*
X179720Y237955D01*
X180820Y238455D01*
X180826Y238466D01*
X180835Y238465D01*
X181635Y239265D01*
X181637Y239283D01*
X181647Y239291D01*
X181644Y239296D01*
X181649Y239300D01*
X181649Y240600D01*
X181647Y240603D01*
X181649Y240604D01*
X181549Y241804D01*
X181543Y241811D01*
X181546Y241817D01*
X181146Y242917D01*
X181137Y242923D01*
X181139Y242930D01*
X180439Y243830D01*
X180434Y243831D01*
X180435Y243835D01*
X179635Y244635D01*
X179622Y244637D01*
X179620Y244645D01*
X178520Y245145D01*
X178515Y245144D01*
X178513Y245148D01*
X177413Y245448D01*
X177404Y245444D01*
X177400Y245449D01*
X176100Y245449D01*
X176098Y245447D01*
X176096Y245449D01*
X174796Y245349D01*
X174791Y245344D01*
X174787Y245348D01*
X173687Y245048D01*
X173683Y245042D01*
X173678Y245044D01*
X172678Y244544D01*
X172676Y244539D01*
X172672Y244540D01*
X171672Y243840D01*
X171670Y243834D01*
X171665Y243835D01*
X170865Y243035D01*
X170864Y243023D01*
X170856Y243022D01*
X170356Y242022D01*
X170357Y242018D01*
X170354Y242017D01*
X169954Y240917D01*
X169956Y240910D01*
X169951Y240908D01*
X169751Y239708D01*
X169754Y239703D01*
X169751Y239700D01*
X169751Y238400D01*
X169757Y238392D01*
X169753Y238387D01*
X170053Y237287D01*
X170055Y237285D01*
X170054Y237283D01*
X170454Y236183D01*
X170460Y236179D01*
X170458Y236175D01*
X171058Y235175D01*
X171064Y235172D01*
X171063Y235167D01*
X171863Y234267D01*
X171874Y234265D01*
X171875Y234258D01*
X172875Y233658D01*
X172882Y233659D01*
X172883Y233654D01*
X173983Y233254D01*
X173990Y233256D01*
X173992Y233251D01*
X175192Y233051D01*
X175195Y233053D01*
X175197Y233051D01*
X176597Y232951D01*
X176601Y232954D01*
X176603Y232951D01*
X178303Y233051D01*
G37*
G36*
X125603Y214001D02*
X125603Y214001D01*
X125618Y214014D01*
X125630Y214011D01*
X126430Y214611D01*
X126437Y214635D01*
X126448Y214641D01*
X126648Y215741D01*
X126645Y215747D01*
X126649Y215750D01*
X126649Y220550D01*
X126646Y220555D01*
X126649Y220558D01*
X126449Y221758D01*
X126444Y221763D01*
X126446Y221767D01*
X126046Y222867D01*
X126038Y222872D01*
X126040Y222878D01*
X125340Y223878D01*
X125336Y223880D01*
X125337Y223883D01*
X124537Y224783D01*
X124526Y224785D01*
X124525Y224792D01*
X123525Y225392D01*
X123518Y225391D01*
X123517Y225396D01*
X122417Y225796D01*
X122411Y225794D01*
X122409Y225798D01*
X121309Y225998D01*
X121298Y225993D01*
X121292Y225999D01*
X120092Y225799D01*
X120081Y225787D01*
X120072Y225790D01*
X119081Y225097D01*
X118521Y225004D01*
X117939Y225780D01*
X117914Y225787D01*
X117908Y225799D01*
X116608Y225999D01*
X116598Y225994D01*
X116593Y225999D01*
X115193Y225799D01*
X115174Y225780D01*
X115161Y225780D01*
X114561Y224980D01*
X114561Y224958D01*
X114551Y224950D01*
X114551Y215450D01*
X114557Y215442D01*
X114553Y215436D01*
X114853Y214436D01*
X114875Y214419D01*
X114878Y214406D01*
X115878Y213906D01*
X115896Y213909D01*
X115903Y213901D01*
X117503Y214001D01*
X117516Y214012D01*
X117526Y214008D01*
X118326Y214508D01*
X118336Y214534D01*
X118348Y214540D01*
X118548Y215540D01*
X118545Y215547D01*
X118549Y215550D01*
X118549Y219248D01*
X118648Y220436D01*
X119137Y221413D01*
X120110Y221900D01*
X121382Y221802D01*
X122158Y221220D01*
X122551Y220042D01*
X122551Y215250D01*
X122560Y215238D01*
X122555Y215230D01*
X122955Y214330D01*
X122979Y214317D01*
X122983Y214304D01*
X124083Y213904D01*
X124097Y213908D01*
X124103Y213901D01*
X125603Y214001D01*
G37*
G36*
X147306Y232958D02*
X147306Y232958D01*
X147313Y232953D01*
X148413Y233253D01*
X148419Y233260D01*
X148425Y233258D01*
X149422Y233856D01*
X149880Y234039D01*
X150358Y233274D01*
X150383Y233265D01*
X150388Y233252D01*
X151588Y232952D01*
X151600Y232957D01*
X151607Y232951D01*
X153107Y233151D01*
X153122Y233167D01*
X153135Y233165D01*
X153835Y233865D01*
X153838Y233889D01*
X153849Y233896D01*
X153949Y234996D01*
X153947Y234998D01*
X153949Y235000D01*
X153949Y243400D01*
X153943Y243408D01*
X153947Y243414D01*
X153647Y244414D01*
X153626Y244430D01*
X153624Y244443D01*
X152724Y244943D01*
X152707Y244941D01*
X152700Y244949D01*
X151200Y244949D01*
X151189Y244941D01*
X151182Y244946D01*
X150182Y244546D01*
X150166Y244519D01*
X150153Y244514D01*
X149853Y243514D01*
X149856Y243506D01*
X149853Y243504D01*
X149854Y243502D01*
X149851Y243500D01*
X149851Y238711D01*
X149362Y237636D01*
X148388Y237149D01*
X147115Y237149D01*
X146243Y237731D01*
X145949Y238807D01*
X145849Y242400D01*
X145849Y243700D01*
X145842Y243709D01*
X145847Y243716D01*
X145547Y244616D01*
X145520Y244634D01*
X145516Y244647D01*
X144316Y245047D01*
X144301Y245042D01*
X144294Y245049D01*
X142794Y244849D01*
X142779Y244835D01*
X142768Y244837D01*
X142068Y244237D01*
X142063Y244215D01*
X142052Y244210D01*
X141852Y243210D01*
X141855Y243203D01*
X141851Y243200D01*
X141851Y239500D01*
X141853Y239497D01*
X141851Y239496D01*
X141951Y238296D01*
X141953Y238294D01*
X141951Y238292D01*
X142151Y237092D01*
X142157Y237086D01*
X142154Y237082D01*
X142554Y236082D01*
X142559Y236079D01*
X142558Y236075D01*
X143158Y235075D01*
X143164Y235072D01*
X143163Y235067D01*
X143963Y234167D01*
X143972Y234166D01*
X143972Y234160D01*
X144972Y233460D01*
X144981Y233460D01*
X144983Y233454D01*
X146083Y233054D01*
X146092Y233057D01*
X146096Y233051D01*
X147296Y232951D01*
X147306Y232958D01*
G37*
G36*
X135904Y214001D02*
X135904Y214001D01*
X135907Y214003D01*
X135909Y214002D01*
X137009Y214202D01*
X137014Y214207D01*
X137018Y214204D01*
X138018Y214604D01*
X138024Y214613D01*
X138030Y214611D01*
X138930Y215311D01*
X138934Y215324D01*
X138942Y215325D01*
X139542Y216325D01*
X139541Y216337D01*
X139548Y216341D01*
X139748Y217441D01*
X139745Y217447D01*
X139749Y217450D01*
X139749Y218750D01*
X139743Y218758D01*
X139748Y218763D01*
X139448Y219863D01*
X139437Y219871D01*
X139439Y219880D01*
X138739Y220780D01*
X138725Y220784D01*
X138724Y220793D01*
X137624Y221393D01*
X137615Y221392D01*
X137613Y221398D01*
X136513Y221698D01*
X136510Y221696D01*
X136509Y221698D01*
X135411Y221898D01*
X134040Y222290D01*
X133860Y222921D01*
X134806Y223299D01*
X136089Y223102D01*
X137284Y222703D01*
X137295Y222707D01*
X137300Y222701D01*
X138200Y222701D01*
X138226Y222721D01*
X138240Y222721D01*
X139040Y223821D01*
X139040Y223830D01*
X139046Y223836D01*
X139047Y223836D01*
X139347Y224836D01*
X139332Y224877D01*
X139333Y224887D01*
X138433Y225687D01*
X138419Y225688D01*
X138417Y225696D01*
X137317Y226096D01*
X137314Y226095D01*
X137313Y226098D01*
X136213Y226398D01*
X136204Y226394D01*
X136200Y226399D01*
X135000Y226399D01*
X134998Y226398D01*
X134997Y226399D01*
X133497Y226299D01*
X133492Y226295D01*
X133489Y226298D01*
X132189Y225998D01*
X132182Y225990D01*
X132176Y225993D01*
X131276Y225493D01*
X131272Y225484D01*
X131265Y225485D01*
X130565Y224785D01*
X130563Y224771D01*
X130554Y224768D01*
X130154Y223768D01*
X130155Y223766D01*
X130153Y223764D01*
X130157Y223759D01*
X130157Y223758D01*
X130151Y223754D01*
X130051Y222654D01*
X130056Y222647D01*
X130051Y222642D01*
X130251Y221442D01*
X130259Y221435D01*
X130256Y221428D01*
X130756Y220428D01*
X130764Y220424D01*
X130763Y220417D01*
X131563Y219517D01*
X131574Y219515D01*
X131575Y219508D01*
X132575Y218908D01*
X132582Y218909D01*
X132583Y218904D01*
X133683Y218504D01*
X133688Y218505D01*
X133689Y218502D01*
X134987Y218202D01*
X135933Y217919D01*
X135666Y217297D01*
X134407Y217200D01*
X133321Y217595D01*
X132125Y218293D01*
X132107Y218290D01*
X132100Y218299D01*
X131000Y218299D01*
X130975Y218280D01*
X130962Y218281D01*
X130162Y217281D01*
X130161Y217270D01*
X130154Y217268D01*
X129754Y216268D01*
X129760Y216246D01*
X129753Y216236D01*
X130053Y215236D01*
X130074Y215220D01*
X130076Y215207D01*
X131176Y214607D01*
X131182Y214608D01*
X131183Y214604D01*
X132283Y214204D01*
X132290Y214206D01*
X132292Y214201D01*
X133492Y214001D01*
X133494Y214003D01*
X133496Y214001D01*
X134596Y213901D01*
X134601Y213904D01*
X134604Y213901D01*
X135904Y214001D01*
G37*
G36*
X134204Y233051D02*
X134204Y233051D01*
X134207Y233053D01*
X134209Y233052D01*
X135309Y233252D01*
X135314Y233257D01*
X135318Y233254D01*
X136318Y233654D01*
X136324Y233663D01*
X136330Y233661D01*
X137230Y234361D01*
X137234Y234374D01*
X137242Y234375D01*
X137842Y235375D01*
X137841Y235387D01*
X137848Y235391D01*
X138048Y236491D01*
X138045Y236497D01*
X138049Y236500D01*
X138049Y237800D01*
X138043Y237808D01*
X138048Y237813D01*
X137748Y238913D01*
X137735Y238923D01*
X137737Y238933D01*
X136937Y239833D01*
X136926Y239835D01*
X136925Y239842D01*
X135925Y240442D01*
X135916Y240441D01*
X135913Y240448D01*
X134813Y240748D01*
X134810Y240746D01*
X134809Y240748D01*
X133711Y240948D01*
X132336Y241341D01*
X132066Y241972D01*
X133105Y242349D01*
X134389Y242152D01*
X135584Y241753D01*
X135595Y241757D01*
X135600Y241751D01*
X136500Y241751D01*
X136526Y241771D01*
X136540Y241771D01*
X137340Y242871D01*
X137340Y242881D01*
X137347Y242886D01*
X137345Y242889D01*
X137348Y242890D01*
X137548Y243890D01*
X137533Y243922D01*
X137535Y243935D01*
X136735Y244735D01*
X136720Y244737D01*
X136717Y244746D01*
X135617Y245146D01*
X135613Y245145D01*
X135612Y245148D01*
X134412Y245448D01*
X134404Y245444D01*
X134400Y245449D01*
X133300Y245449D01*
X133298Y245448D01*
X133297Y245449D01*
X131697Y245349D01*
X131692Y245345D01*
X131688Y245348D01*
X130488Y245048D01*
X130482Y245040D01*
X130476Y245043D01*
X129576Y244543D01*
X129572Y244534D01*
X129565Y244535D01*
X128865Y243835D01*
X128863Y243821D01*
X128854Y243818D01*
X128454Y242818D01*
X128455Y242816D01*
X128453Y242814D01*
X128457Y242809D01*
X128457Y242808D01*
X128451Y242804D01*
X128351Y241704D01*
X128356Y241697D01*
X128351Y241692D01*
X128551Y240492D01*
X128559Y240485D01*
X128556Y240478D01*
X129056Y239478D01*
X129062Y239475D01*
X129061Y239470D01*
X129761Y238570D01*
X129775Y238566D01*
X129776Y238557D01*
X130876Y237957D01*
X130882Y237958D01*
X130883Y237954D01*
X131983Y237554D01*
X131988Y237555D01*
X131989Y237552D01*
X133287Y237252D01*
X134233Y236969D01*
X133967Y236347D01*
X132607Y236250D01*
X131521Y236645D01*
X130325Y237343D01*
X130307Y237340D01*
X130300Y237349D01*
X129300Y237349D01*
X129275Y237330D01*
X129262Y237331D01*
X128462Y236331D01*
X128461Y236320D01*
X128454Y236318D01*
X128054Y235318D01*
X128060Y235296D01*
X128053Y235286D01*
X128353Y234286D01*
X128374Y234270D01*
X128376Y234257D01*
X129476Y233657D01*
X129482Y233658D01*
X129483Y233654D01*
X130583Y233254D01*
X130589Y233256D01*
X130591Y233252D01*
X131691Y233052D01*
X131694Y233053D01*
X131696Y233051D01*
X132896Y232951D01*
X132901Y232954D01*
X132904Y232951D01*
X134204Y233051D01*
G37*
G36*
X120704Y233051D02*
X120704Y233051D01*
X120707Y233053D01*
X120709Y233052D01*
X121809Y233252D01*
X121814Y233257D01*
X121818Y233254D01*
X122818Y233654D01*
X122824Y233663D01*
X122830Y233661D01*
X123730Y234361D01*
X123734Y234374D01*
X123742Y234375D01*
X124342Y235375D01*
X124341Y235387D01*
X124348Y235391D01*
X124548Y236491D01*
X124545Y236497D01*
X124549Y236500D01*
X124549Y237800D01*
X124542Y237810D01*
X124546Y237817D01*
X124146Y238917D01*
X124137Y238923D01*
X124139Y238930D01*
X123439Y239830D01*
X123426Y239834D01*
X123425Y239842D01*
X122425Y240442D01*
X122416Y240441D01*
X122413Y240448D01*
X121313Y240748D01*
X121310Y240746D01*
X121309Y240748D01*
X120211Y240948D01*
X118836Y241341D01*
X118566Y241972D01*
X119605Y242349D01*
X120889Y242152D01*
X122084Y241753D01*
X122095Y241757D01*
X122100Y241751D01*
X122900Y241751D01*
X122925Y241769D01*
X122938Y241769D01*
X123838Y242869D01*
X123839Y242880D01*
X123847Y242886D01*
X123845Y242889D01*
X123848Y242890D01*
X124048Y243890D01*
X124033Y243922D01*
X124035Y243935D01*
X123235Y244735D01*
X123220Y244737D01*
X123217Y244746D01*
X122117Y245146D01*
X122113Y245145D01*
X122112Y245148D01*
X120912Y245448D01*
X120904Y245444D01*
X120900Y245449D01*
X119800Y245449D01*
X119798Y245448D01*
X119797Y245449D01*
X118197Y245349D01*
X118192Y245345D01*
X118188Y245348D01*
X116988Y245048D01*
X116982Y245040D01*
X116976Y245043D01*
X116076Y244543D01*
X116072Y244534D01*
X116065Y244535D01*
X115365Y243835D01*
X115363Y243821D01*
X115354Y243818D01*
X114954Y242818D01*
X114955Y242816D01*
X114953Y242814D01*
X114957Y242809D01*
X114957Y242808D01*
X114951Y242804D01*
X114851Y241704D01*
X114856Y241697D01*
X114851Y241692D01*
X115051Y240492D01*
X115059Y240485D01*
X115056Y240478D01*
X115556Y239478D01*
X115562Y239475D01*
X115561Y239470D01*
X116261Y238570D01*
X116275Y238566D01*
X116276Y238557D01*
X117376Y237957D01*
X117382Y237958D01*
X117383Y237954D01*
X118483Y237554D01*
X118487Y237555D01*
X118488Y237552D01*
X119688Y237252D01*
X120732Y236967D01*
X120467Y236347D01*
X119107Y236250D01*
X118021Y236645D01*
X116825Y237343D01*
X116807Y237340D01*
X116800Y237349D01*
X115800Y237349D01*
X115775Y237330D01*
X115762Y237331D01*
X114962Y236331D01*
X114961Y236320D01*
X114954Y236318D01*
X114554Y235318D01*
X114560Y235296D01*
X114553Y235286D01*
X114853Y234286D01*
X114874Y234270D01*
X114876Y234257D01*
X115976Y233657D01*
X115982Y233658D01*
X115983Y233654D01*
X117083Y233254D01*
X117089Y233256D01*
X117091Y233252D01*
X118191Y233052D01*
X118194Y233053D01*
X118196Y233051D01*
X119396Y232951D01*
X119401Y232954D01*
X119404Y232951D01*
X120704Y233051D01*
G37*
%LPC*%
G36*
X199404Y29529D02*
X199404Y29529D01*
X198827Y29626D01*
X198449Y30097D01*
X198449Y30773D01*
X198642Y31449D01*
X199227Y31839D01*
X199228Y31841D01*
X199230Y31841D01*
X203330Y34941D01*
X203730Y35241D01*
X203731Y35246D01*
X203735Y35245D01*
X203935Y35445D01*
X203937Y35459D01*
X203947Y35467D01*
X203939Y35477D01*
X203943Y35504D01*
X203916Y35508D01*
X203900Y35529D01*
X199023Y35529D01*
X198449Y36198D01*
X198449Y36872D01*
X198640Y37443D01*
X199118Y37634D01*
X199131Y37655D01*
X199144Y37665D01*
X199140Y37671D01*
X199141Y37672D01*
X199149Y37677D01*
X199249Y39477D01*
X199216Y39527D01*
X199211Y39523D01*
X199208Y39529D01*
X198637Y39624D01*
X198449Y40188D01*
X198449Y47868D01*
X198733Y48436D01*
X199301Y48530D01*
X199967Y48435D01*
X200251Y47868D01*
X200251Y45180D01*
X200287Y45133D01*
X200294Y45138D01*
X200300Y45131D01*
X207088Y45131D01*
X207660Y44845D01*
X207851Y44272D01*
X207851Y43592D01*
X207567Y43024D01*
X206996Y42929D01*
X200900Y42929D01*
X200895Y42926D01*
X200892Y42929D01*
X200292Y42829D01*
X200251Y42785D01*
X200254Y42783D01*
X200251Y42780D01*
X200251Y40097D01*
X199873Y39626D01*
X199292Y39529D01*
X199251Y39485D01*
X199253Y39484D01*
X199251Y39483D01*
X199151Y37683D01*
X199184Y37633D01*
X199196Y37642D01*
X199207Y37631D01*
X199903Y37731D01*
X206696Y37731D01*
X207283Y37633D01*
X207755Y37350D01*
X207851Y36677D01*
X207851Y35900D01*
X207367Y35417D01*
X202570Y31719D01*
X202566Y31703D01*
X202553Y31693D01*
X202560Y31683D01*
X202554Y31662D01*
X202582Y31654D01*
X202600Y31631D01*
X207191Y31631D01*
X207661Y31443D01*
X207851Y30872D01*
X207851Y30000D01*
X207476Y29626D01*
X206896Y29529D01*
X199404Y29529D01*
G37*
%LPD*%
%LPC*%
G36*
X24584Y73889D02*
X24584Y73889D01*
X22085Y73889D01*
X22071Y73943D01*
X22069Y73945D01*
X22069Y73948D01*
X18755Y83107D01*
X18854Y83108D01*
X21729Y83108D01*
X21782Y82909D01*
X21783Y82908D01*
X21783Y82907D01*
X23578Y76841D01*
X23588Y76834D01*
X23588Y76828D01*
X23594Y76825D01*
X23598Y76812D01*
X23616Y76809D01*
X23630Y76797D01*
X23647Y76805D01*
X23665Y76802D01*
X23681Y76821D01*
X23692Y76826D01*
X23693Y76835D01*
X23699Y76842D01*
X25464Y82937D01*
X25513Y83108D01*
X28359Y83097D01*
X30177Y76874D01*
X30189Y76863D01*
X30192Y76848D01*
X30213Y76843D01*
X30229Y76829D01*
X30243Y76836D01*
X30258Y76832D01*
X30280Y76853D01*
X30290Y76858D01*
X30291Y76864D01*
X30296Y76868D01*
X30394Y77113D01*
X30394Y77116D01*
X30396Y77119D01*
X32042Y82697D01*
X32166Y83108D01*
X34815Y83108D01*
X35004Y83111D01*
X35039Y83111D01*
X31716Y74047D01*
X31652Y73889D01*
X28715Y73889D01*
X28598Y74246D01*
X27040Y79299D01*
X27039Y79300D01*
X27039Y79303D01*
X26933Y79580D01*
X26920Y79589D01*
X26916Y79604D01*
X26895Y79608D01*
X26878Y79620D01*
X26865Y79612D01*
X26849Y79615D01*
X26829Y79593D01*
X26819Y79587D01*
X26819Y79581D01*
X26815Y79576D01*
X25048Y73889D01*
X24584Y73889D01*
G37*
%LPD*%
G36*
X171407Y195051D02*
X171407Y195051D01*
X171424Y195069D01*
X171437Y195068D01*
X172037Y195768D01*
X172039Y195792D01*
X172049Y195800D01*
X172049Y210000D01*
X172047Y210003D01*
X172049Y210004D01*
X171949Y211104D01*
X171923Y211133D01*
X171920Y211145D01*
X171020Y211545D01*
X171009Y211542D01*
X171006Y211547D01*
X171005Y211547D01*
X171004Y211549D01*
X169704Y211649D01*
X169697Y211645D01*
X169693Y211645D01*
X169684Y211638D01*
X169675Y211642D01*
X168675Y211042D01*
X168673Y211038D01*
X168670Y211039D01*
X167770Y210339D01*
X167769Y210335D01*
X167766Y210336D01*
X165266Y207936D01*
X164267Y207037D01*
X164263Y207015D01*
X164252Y207010D01*
X164052Y206010D01*
X164063Y205987D01*
X164058Y205975D01*
X164658Y204975D01*
X164668Y204971D01*
X164667Y204963D01*
X165667Y204063D01*
X165688Y204062D01*
X165689Y204061D01*
X165693Y204061D01*
X165700Y204051D01*
X166600Y204051D01*
X166613Y204061D01*
X166615Y204061D01*
X166624Y204057D01*
X167682Y204634D01*
X167951Y204186D01*
X167951Y197100D01*
X167953Y197097D01*
X167951Y197096D01*
X168051Y195996D01*
X168064Y195981D01*
X168061Y195970D01*
X168661Y195170D01*
X168684Y195164D01*
X168689Y195152D01*
X169989Y194852D01*
X170001Y194857D01*
X170007Y194851D01*
X171407Y195051D01*
G37*
%LPC*%
G36*
X151607Y44229D02*
X151607Y44229D01*
X150911Y44328D01*
X150319Y44526D01*
X149725Y44823D01*
X149129Y45220D01*
X148637Y45614D01*
X148243Y46205D01*
X147647Y47395D01*
X147549Y47988D01*
X147449Y48683D01*
X147449Y49077D01*
X147548Y49769D01*
X147747Y50364D01*
X147945Y50958D01*
X148338Y51549D01*
X149333Y52543D01*
X149824Y52936D01*
X150416Y53133D01*
X151011Y53332D01*
X151707Y53431D01*
X152400Y53530D01*
X153090Y53432D01*
X153785Y53233D01*
X154381Y53034D01*
X154973Y52738D01*
X155467Y52343D01*
X155962Y51849D01*
X156359Y51253D01*
X156362Y51252D01*
X156362Y51249D01*
X156755Y50757D01*
X156952Y50069D01*
X157051Y49476D01*
X157051Y48088D01*
X156853Y47496D01*
X156854Y47494D01*
X156853Y47494D01*
X156655Y46803D01*
X156262Y46311D01*
X156261Y46307D01*
X156259Y46307D01*
X155862Y45711D01*
X155369Y45218D01*
X154774Y44822D01*
X154280Y44526D01*
X153589Y44328D01*
X152992Y44229D01*
X152300Y44130D01*
X151607Y44229D01*
G37*
%LPD*%
G36*
X225807Y198551D02*
X225807Y198551D01*
X225827Y198572D01*
X225841Y198573D01*
X226241Y199173D01*
X226240Y199182D01*
X226247Y199184D01*
X227046Y201483D01*
X227797Y203454D01*
X229053Y199684D01*
X229253Y199084D01*
X229267Y199075D01*
X229265Y199065D01*
X229765Y198565D01*
X229786Y198562D01*
X229792Y198551D01*
X230392Y198451D01*
X230409Y198461D01*
X230419Y198455D01*
X231119Y198755D01*
X231130Y198773D01*
X231142Y198775D01*
X231442Y199275D01*
X231441Y199282D01*
X231446Y199284D01*
X233946Y206384D01*
X233946Y206386D01*
X233947Y206386D01*
X234147Y207086D01*
X234138Y207110D01*
X234144Y207122D01*
X233944Y207522D01*
X233926Y207531D01*
X233924Y207543D01*
X233224Y207943D01*
X233216Y207942D01*
X233214Y207947D01*
X232514Y208147D01*
X232486Y208137D01*
X232473Y208141D01*
X231873Y207741D01*
X231865Y207720D01*
X231853Y207716D01*
X230357Y203327D01*
X230222Y203191D01*
X228947Y207016D01*
X228942Y207019D01*
X228944Y207022D01*
X228644Y207622D01*
X228631Y207629D01*
X228631Y207638D01*
X228131Y208038D01*
X228103Y208039D01*
X228093Y208049D01*
X227393Y207949D01*
X227385Y207941D01*
X227378Y207944D01*
X226778Y207644D01*
X226767Y207623D01*
X226755Y207619D01*
X226455Y206919D01*
X226455Y206917D01*
X226453Y206916D01*
X225179Y203191D01*
X225043Y203326D01*
X223847Y207214D01*
X223842Y207218D01*
X223844Y207222D01*
X223544Y207822D01*
X223524Y207832D01*
X223522Y207844D01*
X222922Y208144D01*
X222897Y208139D01*
X222886Y208147D01*
X222186Y207947D01*
X222180Y207939D01*
X222173Y207941D01*
X221573Y207541D01*
X221564Y207516D01*
X221552Y207510D01*
X221452Y207010D01*
X221457Y206999D01*
X221451Y206993D01*
X221551Y206293D01*
X221556Y206288D01*
X221554Y206284D01*
X224054Y199184D01*
X224064Y199177D01*
X224062Y199169D01*
X224462Y198669D01*
X224481Y198664D01*
X224484Y198653D01*
X225084Y198453D01*
X225100Y198458D01*
X225107Y198451D01*
X225807Y198551D01*
G37*
%LPC*%
G36*
X46908Y45929D02*
X46908Y45929D01*
X46330Y46122D01*
X46049Y46496D01*
X46049Y49776D01*
X46148Y50369D01*
X46346Y51062D01*
X46643Y51657D01*
X46940Y52151D01*
X47435Y52745D01*
X47931Y53142D01*
X48427Y53538D01*
X49018Y53834D01*
X49710Y54032D01*
X50403Y54131D01*
X51096Y54131D01*
X51689Y54032D01*
X52382Y53834D01*
X52977Y53537D01*
X53471Y53240D01*
X54065Y52745D01*
X54462Y52249D01*
X54858Y51753D01*
X55154Y51162D01*
X55352Y50469D01*
X55451Y49876D01*
X55451Y47083D01*
X55353Y46400D01*
X55073Y46026D01*
X54397Y45929D01*
X46908Y45929D01*
G37*
%LPD*%
%LPC*%
G36*
X104821Y66125D02*
X104821Y66125D01*
X104808Y66118D01*
X104800Y66129D01*
X97414Y66129D01*
X96945Y66410D01*
X96849Y67083D01*
X96849Y70273D01*
X97047Y70965D01*
X97246Y71561D01*
X97542Y72153D01*
X97937Y72647D01*
X98431Y73142D01*
X99026Y73538D01*
X99522Y73836D01*
X100214Y74132D01*
X100808Y74231D01*
X101500Y74330D01*
X102193Y74231D01*
X102889Y74132D01*
X103475Y73936D01*
X103457Y73904D01*
X103459Y73892D01*
X103458Y73891D01*
X103459Y73889D01*
X103465Y73845D01*
X103476Y73847D01*
X103478Y73836D01*
X104073Y73538D01*
X104567Y73143D01*
X105559Y72151D01*
X105854Y71561D01*
X106251Y70372D01*
X106251Y66888D01*
X106061Y66317D01*
X105591Y66129D01*
X104900Y66129D01*
X104853Y66093D01*
X104854Y66091D01*
X104852Y66090D01*
X104848Y66073D01*
X104821Y66125D01*
G37*
%LPD*%
%LPC*%
G36*
X148124Y75926D02*
X148124Y75926D01*
X147748Y76302D01*
X147649Y77482D01*
X147649Y79477D01*
X147749Y80172D01*
X147847Y80765D01*
X148443Y81955D01*
X148838Y82549D01*
X149329Y83039D01*
X149922Y83336D01*
X149924Y83340D01*
X149927Y83339D01*
X150522Y83735D01*
X151112Y83932D01*
X151704Y84031D01*
X152496Y84031D01*
X153092Y83931D01*
X153093Y83932D01*
X153093Y83931D01*
X153789Y83832D01*
X154375Y83636D01*
X154357Y83604D01*
X154358Y83597D01*
X154353Y83593D01*
X154360Y83584D01*
X154365Y83545D01*
X154376Y83547D01*
X154378Y83536D01*
X154973Y83238D01*
X155467Y82843D01*
X155963Y82347D01*
X156358Y81853D01*
X156656Y81258D01*
X156952Y80665D01*
X157051Y79977D01*
X157051Y76494D01*
X156770Y76025D01*
X156196Y75929D01*
X148704Y75829D01*
X148124Y75926D01*
G37*
%LPD*%
%LPC*%
G36*
X155621Y34125D02*
X155621Y34125D01*
X155608Y34118D01*
X155600Y34129D01*
X148214Y34129D01*
X147745Y34410D01*
X147649Y35083D01*
X147649Y38272D01*
X148046Y39461D01*
X148343Y40055D01*
X148738Y40649D01*
X149231Y41142D01*
X149826Y41538D01*
X150320Y41834D01*
X151014Y42033D01*
X151015Y42034D01*
X151016Y42033D01*
X151608Y42231D01*
X152993Y42231D01*
X153685Y42033D01*
X154281Y41834D01*
X154873Y41538D01*
X155367Y41143D01*
X156359Y40151D01*
X156654Y39561D01*
X156853Y38965D01*
X157051Y38273D01*
X157051Y34888D01*
X156861Y34317D01*
X156391Y34129D01*
X155700Y34129D01*
X155653Y34093D01*
X155654Y34091D01*
X155652Y34090D01*
X155648Y34073D01*
X155621Y34125D01*
G37*
%LPD*%
%LPC*%
G36*
X97704Y34129D02*
X97704Y34129D01*
X97131Y34225D01*
X96849Y34694D01*
X96849Y37877D01*
X96948Y38569D01*
X97147Y39164D01*
X97345Y39758D01*
X97738Y40349D01*
X98731Y41341D01*
X99225Y41638D01*
X99248Y41693D01*
X99241Y41695D01*
X99244Y41701D01*
X99227Y41737D01*
X99815Y41933D01*
X100511Y42132D01*
X101104Y42231D01*
X101896Y42231D01*
X102489Y42132D01*
X103185Y41933D01*
X103776Y41736D01*
X104269Y41342D01*
X104273Y41341D01*
X104273Y41339D01*
X104866Y40943D01*
X105260Y40451D01*
X105657Y39855D01*
X105954Y39261D01*
X106152Y38669D01*
X106251Y37977D01*
X106251Y35283D01*
X106153Y34499D01*
X105875Y34129D01*
X97704Y34129D01*
G37*
%LPD*%
G36*
X89907Y233151D02*
X89907Y233151D01*
X89922Y233167D01*
X89935Y233165D01*
X90635Y233865D01*
X90638Y233889D01*
X90649Y233896D01*
X90749Y234996D01*
X90747Y234998D01*
X90749Y235000D01*
X90749Y239688D01*
X91238Y240665D01*
X92210Y241248D01*
X93390Y241052D01*
X94487Y240753D01*
X94514Y240764D01*
X94527Y240759D01*
X95427Y241359D01*
X95434Y241378D01*
X95445Y241381D01*
X95945Y242581D01*
X95944Y242588D01*
X95947Y242590D01*
X95943Y242596D01*
X95949Y242600D01*
X95949Y243800D01*
X95939Y243814D01*
X95943Y243824D01*
X95443Y244724D01*
X95417Y244735D01*
X95412Y244748D01*
X94212Y245048D01*
X94207Y245046D01*
X94204Y245049D01*
X93104Y245149D01*
X93092Y245141D01*
X93084Y245147D01*
X91884Y244747D01*
X91878Y244737D01*
X91870Y244739D01*
X91004Y244066D01*
X90635Y244435D01*
X90625Y244436D01*
X90624Y244443D01*
X89724Y244943D01*
X89707Y244941D01*
X89700Y244949D01*
X88200Y244949D01*
X88192Y244943D01*
X88186Y244947D01*
X87186Y244647D01*
X87168Y244623D01*
X87155Y244620D01*
X86755Y243720D01*
X86758Y243706D01*
X86751Y243700D01*
X86751Y234100D01*
X86763Y234084D01*
X86759Y234073D01*
X87359Y233173D01*
X87385Y233164D01*
X87391Y233152D01*
X88491Y232952D01*
X88501Y232957D01*
X88507Y232951D01*
X89907Y233151D01*
G37*
G36*
X160607Y233151D02*
X160607Y233151D01*
X160622Y233167D01*
X160635Y233165D01*
X161335Y233865D01*
X161338Y233889D01*
X161349Y233896D01*
X161449Y234996D01*
X161447Y234998D01*
X161449Y235000D01*
X161449Y239691D01*
X161840Y240666D01*
X162810Y241248D01*
X163990Y241052D01*
X165087Y240753D01*
X165114Y240764D01*
X165127Y240759D01*
X166027Y241359D01*
X166034Y241378D01*
X166045Y241381D01*
X166545Y242581D01*
X166544Y242587D01*
X166548Y242590D01*
X166545Y242594D01*
X166549Y242596D01*
X166649Y243796D01*
X166637Y243815D01*
X166641Y243827D01*
X166041Y244727D01*
X166018Y244735D01*
X166013Y244748D01*
X164913Y245048D01*
X164907Y245045D01*
X164904Y245049D01*
X163704Y245149D01*
X163692Y245141D01*
X163684Y245147D01*
X162484Y244747D01*
X162478Y244737D01*
X162470Y244739D01*
X161604Y244066D01*
X161235Y244435D01*
X161227Y244436D01*
X161226Y244442D01*
X160426Y244942D01*
X160407Y244940D01*
X160400Y244949D01*
X158800Y244949D01*
X158792Y244943D01*
X158786Y244947D01*
X157786Y244647D01*
X157766Y244620D01*
X157753Y244616D01*
X157453Y243716D01*
X157457Y243705D01*
X157451Y243700D01*
X157451Y234100D01*
X157461Y234086D01*
X157457Y234076D01*
X157957Y233176D01*
X157986Y233163D01*
X157992Y233151D01*
X159192Y232951D01*
X159202Y232957D01*
X159207Y232951D01*
X160607Y233151D01*
G37*
G36*
X162807Y214101D02*
X162807Y214101D01*
X162822Y214117D01*
X162835Y214115D01*
X163535Y214815D01*
X163538Y214839D01*
X163549Y214846D01*
X163649Y215946D01*
X163647Y215948D01*
X163649Y215950D01*
X163649Y220641D01*
X164040Y221616D01*
X165010Y222198D01*
X166190Y222002D01*
X167287Y221703D01*
X167314Y221714D01*
X167327Y221709D01*
X168227Y222309D01*
X168234Y222328D01*
X168245Y222331D01*
X168745Y223531D01*
X168744Y223538D01*
X168747Y223540D01*
X168743Y223546D01*
X168749Y223550D01*
X168749Y224750D01*
X168739Y224764D01*
X168743Y224774D01*
X168243Y225674D01*
X168217Y225685D01*
X168212Y225698D01*
X167012Y225998D01*
X167007Y225996D01*
X167004Y225999D01*
X165904Y226099D01*
X165892Y226091D01*
X165884Y226097D01*
X164684Y225697D01*
X164678Y225687D01*
X164670Y225689D01*
X163804Y225016D01*
X163435Y225385D01*
X163427Y225386D01*
X163426Y225392D01*
X162626Y225892D01*
X162607Y225890D01*
X162600Y225899D01*
X161000Y225899D01*
X160992Y225893D01*
X160986Y225897D01*
X159986Y225597D01*
X159966Y225570D01*
X159953Y225566D01*
X159653Y224666D01*
X159657Y224655D01*
X159651Y224650D01*
X159651Y215050D01*
X159661Y215036D01*
X159657Y215026D01*
X160157Y214126D01*
X160186Y214113D01*
X160192Y214101D01*
X161392Y213901D01*
X161402Y213907D01*
X161407Y213901D01*
X162807Y214101D01*
G37*
%LPC*%
G36*
X175205Y44329D02*
X175205Y44329D01*
X174731Y44424D01*
X174448Y44896D01*
X174349Y45683D01*
X174349Y48377D01*
X174547Y49763D01*
X174839Y50250D01*
X175331Y50742D01*
X175925Y51137D01*
X176512Y51431D01*
X177790Y51431D01*
X178481Y51135D01*
X178486Y51136D01*
X178488Y51132D01*
X178888Y51032D01*
X178914Y51044D01*
X178927Y51039D01*
X179522Y51435D01*
X180111Y51632D01*
X180800Y51730D01*
X181489Y51632D01*
X182081Y51434D01*
X182671Y51139D01*
X183163Y50647D01*
X183556Y50156D01*
X183752Y49569D01*
X183851Y48877D01*
X183851Y45483D01*
X183753Y44703D01*
X183380Y44329D01*
X175205Y44329D01*
G37*
%LPD*%
G36*
X238206Y198551D02*
X238206Y198551D01*
X238222Y198567D01*
X238235Y198565D01*
X238635Y198965D01*
X238636Y198977D01*
X238640Y198979D01*
X238637Y198983D01*
X238638Y198986D01*
X238649Y198992D01*
X238749Y199592D01*
X238746Y199597D01*
X238749Y199600D01*
X238749Y200967D01*
X239209Y201151D01*
X240573Y201151D01*
X241056Y200377D01*
X241755Y198780D01*
X241773Y198770D01*
X241775Y198758D01*
X242275Y198458D01*
X242299Y198460D01*
X242308Y198451D01*
X242908Y198551D01*
X242917Y198561D01*
X242924Y198557D01*
X243624Y198957D01*
X243631Y198973D01*
X243642Y198975D01*
X243942Y199475D01*
X243939Y199503D01*
X243947Y199514D01*
X243747Y200214D01*
X243739Y200220D01*
X243741Y200227D01*
X243544Y200523D01*
X243047Y201814D01*
X242953Y202287D01*
X243338Y202769D01*
X243339Y202777D01*
X243344Y202778D01*
X243644Y203378D01*
X243643Y203385D01*
X243647Y203386D01*
X243847Y204086D01*
X243844Y204096D01*
X243849Y204100D01*
X243849Y204800D01*
X243846Y204804D01*
X243849Y204807D01*
X243749Y205507D01*
X243744Y205512D01*
X243747Y205516D01*
X243547Y206116D01*
X243539Y206121D01*
X243541Y206127D01*
X243141Y206727D01*
X243134Y206730D01*
X243135Y206735D01*
X242735Y207135D01*
X242676Y207143D01*
X242675Y207134D01*
X242665Y207135D01*
X242181Y206650D01*
X242637Y207167D01*
X242641Y207227D01*
X242631Y207228D01*
X242631Y207238D01*
X242131Y207638D01*
X242121Y207639D01*
X242119Y207645D01*
X241419Y207945D01*
X241411Y207943D01*
X241408Y207949D01*
X240208Y208149D01*
X240203Y208146D01*
X240200Y208149D01*
X237400Y208149D01*
X237392Y208143D01*
X237386Y208147D01*
X236686Y207947D01*
X236671Y207927D01*
X236658Y207925D01*
X236358Y207425D01*
X236360Y207407D01*
X236351Y207400D01*
X236351Y199900D01*
X236354Y199896D01*
X236351Y199893D01*
X236451Y199193D01*
X236457Y199187D01*
X236454Y199182D01*
X236654Y198682D01*
X236682Y198665D01*
X236686Y198653D01*
X237386Y198453D01*
X237400Y198458D01*
X237406Y198451D01*
X238206Y198551D01*
G37*
%LPC*%
G36*
X155740Y86076D02*
X155740Y86076D01*
X155734Y86115D01*
X155713Y86112D01*
X155700Y86129D01*
X148312Y86129D01*
X147740Y86415D01*
X147549Y86988D01*
X147549Y90372D01*
X147746Y90962D01*
X148044Y91657D01*
X148438Y92249D01*
X148831Y92642D01*
X149425Y93037D01*
X150015Y93332D01*
X150703Y93431D01*
X151397Y93431D01*
X152085Y93332D01*
X152673Y93038D01*
X153169Y92642D01*
X153186Y92641D01*
X153190Y92632D01*
X153690Y92532D01*
X153711Y92542D01*
X153722Y92536D01*
X154920Y93135D01*
X155416Y93333D01*
X156097Y93528D01*
X156566Y93341D01*
X156953Y92664D01*
X157049Y91990D01*
X156766Y91519D01*
X155180Y90825D01*
X155178Y90820D01*
X155174Y90822D01*
X154374Y90322D01*
X154366Y90301D01*
X154353Y90291D01*
X154357Y90285D01*
X154351Y90280D01*
X154351Y88980D01*
X154358Y88971D01*
X154353Y88964D01*
X154553Y88364D01*
X154597Y88334D01*
X154600Y88331D01*
X156580Y88331D01*
X156953Y87957D01*
X157050Y87183D01*
X156858Y86416D01*
X156387Y86228D01*
X155792Y86129D01*
X155771Y86106D01*
X155757Y86104D01*
X155741Y86075D01*
X155740Y86076D01*
G37*
%LPD*%
%LPC*%
G36*
X47008Y35529D02*
X47008Y35529D01*
X46429Y35722D01*
X46049Y36197D01*
X46049Y36872D01*
X46242Y37451D01*
X46831Y37941D01*
X50530Y40741D01*
X51330Y41341D01*
X51331Y41346D01*
X51335Y41345D01*
X51535Y41545D01*
X51536Y41556D01*
X51537Y41556D01*
X51536Y41557D01*
X51537Y41559D01*
X51547Y41567D01*
X51539Y41577D01*
X51543Y41604D01*
X51516Y41608D01*
X51500Y41629D01*
X46720Y41629D01*
X46049Y42300D01*
X46049Y43066D01*
X46336Y43544D01*
X46814Y43831D01*
X54300Y43831D01*
X54347Y43867D01*
X54345Y43869D01*
X54348Y43871D01*
X54345Y43875D01*
X54349Y43878D01*
X54351Y43909D01*
X54351Y43880D01*
X54387Y43833D01*
X54390Y43835D01*
X54392Y43831D01*
X54976Y43734D01*
X55354Y43357D01*
X55451Y42677D01*
X55451Y42000D01*
X54868Y41417D01*
X50070Y37819D01*
X50066Y37803D01*
X50053Y37793D01*
X50060Y37783D01*
X50054Y37762D01*
X50082Y37754D01*
X50100Y37731D01*
X54791Y37731D01*
X55259Y37543D01*
X55451Y36873D01*
X55451Y36000D01*
X55076Y35626D01*
X54496Y35529D01*
X47008Y35529D01*
G37*
%LPD*%
G36*
X214221Y198467D02*
X214221Y198467D01*
X214235Y198465D01*
X214635Y198865D01*
X214636Y198877D01*
X214641Y198881D01*
X214638Y198886D01*
X214649Y198892D01*
X214749Y199492D01*
X214746Y199497D01*
X214749Y199500D01*
X214749Y200870D01*
X215112Y201051D01*
X216500Y201051D01*
X216505Y201054D01*
X216508Y201051D01*
X217108Y201151D01*
X217112Y201156D01*
X217116Y201153D01*
X217716Y201353D01*
X217721Y201361D01*
X217727Y201359D01*
X218927Y202159D01*
X218931Y202169D01*
X218938Y202169D01*
X219338Y202669D01*
X219339Y202679D01*
X219345Y202681D01*
X219645Y203381D01*
X219643Y203389D01*
X219649Y203392D01*
X219749Y203992D01*
X219748Y203993D01*
X219749Y203993D01*
X219849Y204693D01*
X219846Y204698D01*
X219849Y204700D01*
X219849Y205400D01*
X219840Y205413D01*
X219844Y205422D01*
X219444Y206222D01*
X219437Y206225D01*
X219438Y206231D01*
X219038Y206731D01*
X219034Y206732D01*
X219035Y206735D01*
X218535Y207235D01*
X218528Y207236D01*
X218527Y207241D01*
X217927Y207641D01*
X217923Y207641D01*
X217922Y207644D01*
X217322Y207944D01*
X217311Y207942D01*
X217307Y207949D01*
X216607Y208049D01*
X216602Y208046D01*
X216600Y208049D01*
X213200Y208049D01*
X213191Y208042D01*
X213184Y208047D01*
X212584Y207847D01*
X212567Y207822D01*
X212554Y207818D01*
X212354Y207318D01*
X212358Y207305D01*
X212351Y207300D01*
X212351Y199100D01*
X212360Y199087D01*
X212356Y199078D01*
X212556Y198678D01*
X212582Y198665D01*
X212586Y198653D01*
X213286Y198453D01*
X213296Y198456D01*
X213300Y198451D01*
X214200Y198451D01*
X214221Y198467D01*
G37*
%LPC*%
G36*
X50503Y24929D02*
X50503Y24929D01*
X49111Y25128D01*
X48522Y25325D01*
X47929Y25720D01*
X47433Y26117D01*
X46937Y26613D01*
X46542Y27107D01*
X46244Y27702D01*
X45948Y28295D01*
X45849Y28987D01*
X45750Y29679D01*
X45849Y30272D01*
X45848Y30273D01*
X45849Y30273D01*
X45948Y30969D01*
X46146Y31561D01*
X46443Y32155D01*
X46832Y32739D01*
X47400Y32928D01*
X47973Y32737D01*
X48555Y32156D01*
X48648Y31687D01*
X48056Y30502D01*
X48058Y30491D01*
X48051Y30487D01*
X47951Y29787D01*
X47956Y29778D01*
X47951Y29773D01*
X48051Y29073D01*
X48056Y29068D01*
X48053Y29064D01*
X48253Y28464D01*
X48261Y28459D01*
X48259Y28453D01*
X48659Y27853D01*
X48669Y27849D01*
X48669Y27842D01*
X49169Y27442D01*
X49183Y27441D01*
X49186Y27433D01*
X49886Y27233D01*
X49891Y27235D01*
X49893Y27231D01*
X50593Y27131D01*
X50602Y27136D01*
X50607Y27131D01*
X51307Y27231D01*
X51312Y27236D01*
X51316Y27233D01*
X51916Y27433D01*
X51923Y27444D01*
X51931Y27442D01*
X52431Y27842D01*
X52433Y27849D01*
X52438Y27848D01*
X52938Y28448D01*
X52938Y28456D01*
X52938Y28462D01*
X52947Y28464D01*
X53147Y29064D01*
X53145Y29070D01*
X53149Y29072D01*
X53249Y29672D01*
X53246Y29677D01*
X53249Y29680D01*
X53249Y30380D01*
X53240Y30393D01*
X53244Y30402D01*
X52944Y31002D01*
X52907Y31021D01*
X52900Y31029D01*
X51600Y31029D01*
X51553Y30993D01*
X51557Y30988D01*
X51551Y30984D01*
X51452Y29602D01*
X51080Y29229D01*
X50408Y29229D01*
X49839Y29419D01*
X49649Y29988D01*
X49649Y32173D01*
X49843Y32851D01*
X50220Y33133D01*
X50903Y33231D01*
X53592Y33231D01*
X54173Y33037D01*
X54661Y32550D01*
X54957Y32057D01*
X55253Y31465D01*
X55351Y30873D01*
X55451Y30077D01*
X55451Y29383D01*
X55351Y28688D01*
X55253Y28095D01*
X54957Y27505D01*
X54562Y26911D01*
X53570Y25919D01*
X53077Y25623D01*
X52482Y25326D01*
X51786Y25127D01*
X51785Y25126D01*
X51784Y25127D01*
X51192Y24929D01*
X50503Y24929D01*
G37*
%LPD*%
%LPC*%
G36*
X155810Y64029D02*
X155810Y64029D01*
X155120Y64325D01*
X148423Y67523D01*
X147935Y67817D01*
X147549Y68395D01*
X147549Y69063D01*
X147932Y69541D01*
X148522Y69836D01*
X155220Y73135D01*
X155905Y73429D01*
X156373Y73335D01*
X156856Y72756D01*
X157048Y72081D01*
X156859Y71513D01*
X156377Y71224D01*
X155079Y70625D01*
X155068Y70603D01*
X155052Y70591D01*
X155054Y70589D01*
X155051Y70588D01*
X154951Y69988D01*
X154954Y69983D01*
X154951Y69980D01*
X154951Y67280D01*
X154959Y67269D01*
X154954Y67262D01*
X155154Y66762D01*
X155177Y66748D01*
X155179Y66735D01*
X156474Y66138D01*
X156955Y65753D01*
X157049Y65186D01*
X156758Y64508D01*
X156280Y64029D01*
X155810Y64029D01*
G37*
%LPD*%
%LPC*%
G36*
X104814Y76228D02*
X104814Y76228D01*
X104120Y76525D01*
X97426Y79722D01*
X96943Y80109D01*
X96750Y80783D01*
X96846Y81356D01*
X97329Y81839D01*
X104719Y85334D01*
X105294Y85526D01*
X105764Y85244D01*
X106153Y84563D01*
X106248Y83990D01*
X105966Y83518D01*
X104679Y82925D01*
X104677Y82921D01*
X104675Y82922D01*
X104175Y82622D01*
X104161Y82588D01*
X104151Y82580D01*
X104151Y79180D01*
X104167Y79159D01*
X104165Y79145D01*
X104565Y78745D01*
X104578Y78743D01*
X104579Y78735D01*
X105869Y78140D01*
X106248Y77666D01*
X106153Y77097D01*
X105762Y76413D01*
X105387Y76132D01*
X104814Y76228D01*
G37*
%LPD*%
%LPC*%
G36*
X122616Y44329D02*
X122616Y44329D01*
X122246Y44607D01*
X122150Y45380D01*
X122246Y46153D01*
X122620Y46433D01*
X123303Y46531D01*
X125300Y46531D01*
X125333Y46556D01*
X125344Y46558D01*
X125444Y46758D01*
X125434Y46814D01*
X125434Y46816D01*
X123834Y48316D01*
X123832Y48316D01*
X123832Y48317D01*
X122436Y49514D01*
X122049Y49997D01*
X122049Y50464D01*
X122536Y51146D01*
X123013Y51527D01*
X123481Y51434D01*
X124069Y51042D01*
X124465Y50645D01*
X124467Y50645D01*
X124467Y50643D01*
X125464Y49746D01*
X125962Y49148D01*
X126462Y48548D01*
X126476Y48545D01*
X126478Y48536D01*
X126878Y48336D01*
X126931Y48346D01*
X126935Y48345D01*
X129829Y51239D01*
X130407Y51528D01*
X130876Y51435D01*
X131457Y50853D01*
X131648Y50282D01*
X131457Y49806D01*
X130965Y49215D01*
X128368Y47018D01*
X128368Y47015D01*
X128365Y47015D01*
X127965Y46615D01*
X127963Y46601D01*
X127953Y46593D01*
X127961Y46583D01*
X127957Y46556D01*
X127984Y46552D01*
X128000Y46531D01*
X130692Y46531D01*
X131267Y46339D01*
X131551Y45866D01*
X131551Y44992D01*
X131267Y44424D01*
X130795Y44329D01*
X122616Y44329D01*
G37*
%LPD*%
%LPC*%
G36*
X77816Y46029D02*
X77816Y46029D01*
X77444Y46309D01*
X77250Y47083D01*
X77346Y47757D01*
X77729Y48139D01*
X78322Y48436D01*
X78330Y48452D01*
X78341Y48453D01*
X78741Y49053D01*
X78740Y49073D01*
X78749Y49080D01*
X78749Y49880D01*
X78742Y49889D01*
X78747Y49896D01*
X78547Y50496D01*
X78530Y50507D01*
X78531Y50518D01*
X78031Y50918D01*
X78009Y50919D01*
X78003Y50927D01*
X77994Y50927D01*
X77992Y50929D01*
X77392Y50829D01*
X77373Y50808D01*
X77359Y50807D01*
X76959Y50207D01*
X76959Y50203D01*
X76958Y50202D01*
X76960Y50200D01*
X76960Y50192D01*
X76951Y50187D01*
X76851Y49488D01*
X76755Y48911D01*
X76286Y48629D01*
X75408Y48629D01*
X74843Y48818D01*
X74749Y49288D01*
X74649Y50185D01*
X74639Y50196D01*
X74642Y50205D01*
X74342Y50705D01*
X74298Y50723D01*
X74292Y50729D01*
X73692Y50629D01*
X73669Y50605D01*
X73656Y50602D01*
X73356Y50002D01*
X73359Y49986D01*
X73351Y49980D01*
X73351Y49280D01*
X73363Y49264D01*
X73359Y49253D01*
X73759Y48653D01*
X73769Y48649D01*
X73769Y48642D01*
X74262Y48247D01*
X74548Y47770D01*
X74453Y47198D01*
X74068Y46621D01*
X73496Y46431D01*
X72918Y46527D01*
X72331Y46918D01*
X71841Y47409D01*
X71544Y48002D01*
X71248Y48595D01*
X71149Y49283D01*
X71149Y51160D01*
X72133Y52143D01*
X72627Y52538D01*
X73215Y52832D01*
X73903Y52931D01*
X74588Y52931D01*
X75168Y52641D01*
X75562Y52149D01*
X75604Y52138D01*
X75612Y52132D01*
X76012Y52232D01*
X76024Y52247D01*
X76035Y52245D01*
X76529Y52739D01*
X77115Y53033D01*
X77704Y53131D01*
X78393Y53131D01*
X79077Y52935D01*
X79567Y52543D01*
X80063Y52047D01*
X80456Y51556D01*
X80653Y50965D01*
X80851Y50273D01*
X80851Y48887D01*
X80653Y48195D01*
X80456Y47604D01*
X80062Y47111D01*
X79666Y46617D01*
X79079Y46225D01*
X78393Y46029D01*
X77816Y46029D01*
G37*
%LPD*%
%LPC*%
G36*
X77537Y25120D02*
X77537Y25120D01*
X77348Y25592D01*
X77251Y26469D01*
X77535Y26942D01*
X78122Y27236D01*
X78127Y27246D01*
X78135Y27245D01*
X78535Y27645D01*
X78537Y27659D01*
X78545Y27665D01*
X78547Y27666D01*
X78747Y28366D01*
X78742Y28380D01*
X78749Y28386D01*
X78649Y29186D01*
X78639Y29197D01*
X78642Y29205D01*
X78342Y29705D01*
X78314Y29717D01*
X78308Y29729D01*
X77708Y29829D01*
X77685Y29817D01*
X77673Y29821D01*
X77073Y29421D01*
X77065Y29400D01*
X77053Y29396D01*
X76853Y28796D01*
X76857Y28785D01*
X76851Y28780D01*
X76851Y28094D01*
X76570Y27625D01*
X75899Y27530D01*
X75027Y27627D01*
X74747Y28000D01*
X74649Y28686D01*
X74549Y29486D01*
X74512Y29524D01*
X74510Y29528D01*
X74010Y29628D01*
X73982Y29615D01*
X73969Y29618D01*
X73469Y29218D01*
X73463Y29194D01*
X73451Y29188D01*
X73351Y28588D01*
X73355Y28581D01*
X73354Y28581D01*
X73356Y28578D01*
X73351Y28573D01*
X73451Y27873D01*
X73470Y27855D01*
X73469Y27842D01*
X73969Y27442D01*
X74551Y26957D01*
X74551Y26392D01*
X74261Y25812D01*
X73783Y25429D01*
X73208Y25429D01*
X72624Y25624D01*
X72035Y26115D01*
X71643Y26606D01*
X71348Y27294D01*
X71249Y27888D01*
X71149Y28583D01*
X71149Y29964D01*
X71437Y30348D01*
X71933Y30843D01*
X72429Y31240D01*
X73022Y31635D01*
X73612Y31832D01*
X74197Y31930D01*
X74877Y31735D01*
X75367Y31343D01*
X75765Y30945D01*
X75792Y30942D01*
X75799Y30932D01*
X75801Y30932D01*
X75811Y30939D01*
X75824Y30937D01*
X75825Y30946D01*
X75835Y30945D01*
X76333Y31443D01*
X76824Y31836D01*
X77408Y32031D01*
X78097Y32031D01*
X78785Y31932D01*
X79373Y31638D01*
X79865Y31245D01*
X80258Y30753D01*
X80554Y30161D01*
X80752Y29569D01*
X80851Y28877D01*
X80851Y28083D01*
X80752Y27391D01*
X80554Y26799D01*
X80259Y26209D01*
X79372Y25322D01*
X78686Y25028D01*
X78104Y24931D01*
X77537Y25120D01*
G37*
%LPD*%
%LPC*%
G36*
X154334Y25217D02*
X154334Y25217D01*
X153849Y25896D01*
X153849Y26365D01*
X154238Y26949D01*
X154735Y27445D01*
X154737Y27458D01*
X154745Y27461D01*
X155045Y28161D01*
X155041Y28179D01*
X155049Y28187D01*
X154949Y28887D01*
X154936Y28900D01*
X154938Y28911D01*
X154538Y29411D01*
X154514Y29417D01*
X154508Y29429D01*
X153908Y29529D01*
X153882Y29515D01*
X153869Y29518D01*
X153369Y29118D01*
X153364Y29098D01*
X153353Y29094D01*
X153153Y28394D01*
X153154Y28390D01*
X153151Y28388D01*
X153052Y27791D01*
X152854Y27098D01*
X152556Y26502D01*
X152262Y25914D01*
X151675Y25523D01*
X151085Y25227D01*
X150496Y25129D01*
X149803Y25129D01*
X149120Y25227D01*
X148131Y26018D01*
X148083Y26020D01*
X148076Y26023D01*
X148042Y26004D01*
X148042Y26005D01*
X147745Y26501D01*
X147547Y27095D01*
X147349Y27787D01*
X147349Y28577D01*
X147448Y29270D01*
X147646Y29960D01*
X147940Y30451D01*
X148430Y31039D01*
X148898Y31226D01*
X149473Y30939D01*
X150051Y30457D01*
X150051Y29892D01*
X149456Y28702D01*
X149459Y28686D01*
X149451Y28680D01*
X149451Y27980D01*
X149462Y27965D01*
X149458Y27955D01*
X149758Y27455D01*
X149786Y27444D01*
X149792Y27431D01*
X150392Y27331D01*
X150401Y27336D01*
X150406Y27336D01*
X150415Y27344D01*
X150422Y27347D01*
X150435Y27345D01*
X150935Y27845D01*
X150937Y27858D01*
X150944Y27863D01*
X150947Y27864D01*
X151147Y28464D01*
X151145Y28470D01*
X151149Y28472D01*
X151248Y29069D01*
X151446Y29763D01*
X151744Y30458D01*
X152039Y30950D01*
X152527Y31437D01*
X153111Y31632D01*
X153803Y31731D01*
X154493Y31731D01*
X155182Y31534D01*
X155773Y31238D01*
X156261Y30848D01*
X156556Y30258D01*
X156854Y29662D01*
X157051Y28973D01*
X157051Y27687D01*
X156853Y26995D01*
X156656Y26404D01*
X156163Y25813D01*
X155376Y25026D01*
X154810Y24932D01*
X154334Y25217D01*
G37*
%LPD*%
%LPC*%
G36*
X181417Y35229D02*
X181417Y35229D01*
X180937Y35614D01*
X180552Y36191D01*
X180646Y36759D01*
X181138Y37348D01*
X181138Y37349D01*
X181538Y37849D01*
X181539Y37858D01*
X181544Y37862D01*
X181542Y37865D01*
X181547Y37866D01*
X181747Y38566D01*
X181742Y38580D01*
X181749Y38587D01*
X181649Y39287D01*
X181630Y39305D01*
X181631Y39318D01*
X181131Y39718D01*
X181108Y39719D01*
X181100Y39729D01*
X180500Y39729D01*
X180475Y39710D01*
X180462Y39711D01*
X180062Y39211D01*
X180061Y39195D01*
X180052Y39190D01*
X179752Y37793D01*
X179554Y37199D01*
X179257Y36605D01*
X178863Y36014D01*
X178377Y35625D01*
X177689Y35428D01*
X177096Y35329D01*
X176408Y35329D01*
X175822Y35525D01*
X175231Y35918D01*
X174739Y36411D01*
X174445Y36901D01*
X174248Y37491D01*
X174149Y38283D01*
X174149Y38976D01*
X174248Y39570D01*
X174444Y40355D01*
X174835Y40745D01*
X174835Y40749D01*
X174838Y40748D01*
X175327Y41335D01*
X175790Y41428D01*
X176369Y41042D01*
X176851Y40560D01*
X176851Y39995D01*
X176459Y39407D01*
X176459Y39403D01*
X176456Y39402D01*
X176156Y38802D01*
X176159Y38786D01*
X176151Y38780D01*
X176151Y38080D01*
X176167Y38059D01*
X176165Y38045D01*
X176665Y37545D01*
X176692Y37542D01*
X176700Y37531D01*
X176702Y37531D01*
X176705Y37534D01*
X176708Y37531D01*
X177308Y37631D01*
X177325Y37650D01*
X177338Y37649D01*
X177738Y38149D01*
X177739Y38157D01*
X177740Y38158D01*
X177739Y38160D01*
X177739Y38165D01*
X177748Y38169D01*
X178048Y39468D01*
X178246Y40162D01*
X178543Y40755D01*
X178937Y41346D01*
X179424Y41736D01*
X180008Y41931D01*
X181393Y41931D01*
X182079Y41735D01*
X182669Y41342D01*
X183062Y40949D01*
X183455Y40358D01*
X183653Y39765D01*
X183851Y39073D01*
X183851Y38383D01*
X183752Y37691D01*
X183554Y37099D01*
X183257Y36505D01*
X182863Y35914D01*
X182370Y35519D01*
X181984Y35229D01*
X181417Y35229D01*
G37*
%LPD*%
%LPC*%
G36*
X129315Y25029D02*
X129315Y25029D01*
X128738Y25414D01*
X128451Y25988D01*
X128546Y26559D01*
X129038Y27148D01*
X129038Y27149D01*
X129438Y27649D01*
X129439Y27661D01*
X129445Y27665D01*
X129447Y27666D01*
X129647Y28366D01*
X129640Y28384D01*
X129647Y28394D01*
X129447Y29094D01*
X129433Y29104D01*
X129435Y29115D01*
X129035Y29515D01*
X129003Y29519D01*
X128993Y29529D01*
X128293Y29429D01*
X128275Y29410D01*
X128262Y29411D01*
X127862Y28911D01*
X127861Y28895D01*
X127852Y28891D01*
X127552Y27592D01*
X127354Y26898D01*
X127058Y26307D01*
X126665Y25815D01*
X126174Y25423D01*
X125486Y25128D01*
X124899Y25030D01*
X124210Y25128D01*
X123523Y25325D01*
X123033Y25717D01*
X122539Y26211D01*
X122246Y26700D01*
X122048Y27390D01*
X121949Y28083D01*
X121949Y28773D01*
X122147Y29466D01*
X122346Y30160D01*
X122639Y30650D01*
X123120Y31131D01*
X123685Y31131D01*
X124266Y30743D01*
X124651Y30263D01*
X124651Y29695D01*
X124259Y29107D01*
X124259Y29103D01*
X124256Y29102D01*
X123956Y28502D01*
X123959Y28486D01*
X123954Y28482D01*
X123957Y28479D01*
X123951Y28473D01*
X124051Y27773D01*
X124070Y27755D01*
X124069Y27742D01*
X124569Y27342D01*
X124590Y27341D01*
X124593Y27336D01*
X124603Y27336D01*
X124608Y27331D01*
X125208Y27431D01*
X125227Y27452D01*
X125241Y27453D01*
X125641Y28053D01*
X125641Y28059D01*
X125644Y28062D01*
X125641Y28066D01*
X125648Y28069D01*
X125948Y29368D01*
X126146Y30062D01*
X126443Y30657D01*
X126737Y31145D01*
X127322Y31535D01*
X127908Y31731D01*
X128697Y31731D01*
X129389Y31632D01*
X129981Y31434D01*
X130568Y31141D01*
X130960Y30651D01*
X131355Y30058D01*
X131552Y29469D01*
X131651Y28777D01*
X131651Y27487D01*
X131455Y26801D01*
X131059Y26207D01*
X130665Y25616D01*
X129785Y25029D01*
X129315Y25029D01*
G37*
%LPD*%
%LPC*%
G36*
X128836Y62316D02*
X128836Y62316D01*
X128449Y62895D01*
X128449Y63362D01*
X128938Y63948D01*
X128938Y63953D01*
X128941Y63953D01*
X129341Y64553D01*
X129341Y64557D01*
X129344Y64558D01*
X129644Y65158D01*
X129640Y65178D01*
X129649Y65186D01*
X129549Y65986D01*
X129533Y66002D01*
X129535Y66015D01*
X129135Y66415D01*
X129113Y66418D01*
X129107Y66429D01*
X128407Y66529D01*
X128374Y66510D01*
X128362Y66511D01*
X127962Y66011D01*
X127961Y65997D01*
X127953Y65994D01*
X127753Y65294D01*
X127754Y65290D01*
X127751Y65288D01*
X127652Y64694D01*
X127355Y63999D01*
X127356Y63996D01*
X127353Y63996D01*
X127156Y63404D01*
X126763Y62913D01*
X126273Y62423D01*
X125685Y62227D01*
X124997Y62030D01*
X124308Y62129D01*
X123732Y62225D01*
X123746Y62263D01*
X123729Y62320D01*
X123723Y62318D01*
X123722Y62324D01*
X123129Y62621D01*
X122639Y63111D01*
X122343Y63603D01*
X122048Y64195D01*
X121949Y64883D01*
X121949Y65676D01*
X122048Y66266D01*
X122345Y66961D01*
X122345Y66962D01*
X122346Y66962D01*
X122543Y67454D01*
X123027Y68035D01*
X123495Y68129D01*
X124172Y67838D01*
X124651Y67360D01*
X124651Y66792D01*
X124056Y65602D01*
X124059Y65586D01*
X124051Y65580D01*
X124051Y64880D01*
X124062Y64865D01*
X124058Y64855D01*
X124358Y64355D01*
X124392Y64341D01*
X124400Y64331D01*
X125100Y64331D01*
X125125Y64350D01*
X125138Y64349D01*
X125538Y64849D01*
X125539Y64863D01*
X125547Y64866D01*
X125747Y65565D01*
X125947Y66164D01*
X125946Y66166D01*
X125947Y66166D01*
X126147Y66865D01*
X126346Y67461D01*
X126638Y68046D01*
X127222Y68435D01*
X127811Y68632D01*
X128503Y68731D01*
X129193Y68731D01*
X129879Y68535D01*
X130469Y68142D01*
X130862Y67749D01*
X131257Y67155D01*
X131552Y66565D01*
X131651Y65877D01*
X131651Y64587D01*
X131454Y63898D01*
X131157Y63305D01*
X130763Y62714D01*
X130270Y62319D01*
X129879Y62026D01*
X129410Y61932D01*
X128836Y62316D01*
G37*
%LPD*%
%LPC*%
G36*
X103533Y57318D02*
X103533Y57318D01*
X103049Y57898D01*
X103049Y58365D01*
X103439Y58950D01*
X103938Y59548D01*
X103938Y59557D01*
X103944Y59558D01*
X104244Y60158D01*
X104242Y60169D01*
X104247Y60173D01*
X104242Y60179D01*
X104249Y60186D01*
X104149Y60986D01*
X104133Y61002D01*
X104135Y61015D01*
X103735Y61415D01*
X103714Y61418D01*
X103708Y61429D01*
X103108Y61529D01*
X103084Y61516D01*
X103083Y61516D01*
X103082Y61515D01*
X103069Y61518D01*
X102569Y61118D01*
X102564Y61099D01*
X102553Y61096D01*
X102353Y60496D01*
X102353Y60495D01*
X102354Y60494D01*
X102355Y60489D01*
X102351Y60487D01*
X102252Y59790D01*
X102054Y59098D01*
X101757Y58503D01*
X101461Y58011D01*
X100972Y57522D01*
X100286Y57228D01*
X99696Y57129D01*
X99008Y57129D01*
X98416Y57327D01*
X98359Y57308D01*
X98361Y57302D01*
X98355Y57301D01*
X98342Y57273D01*
X98331Y57318D01*
X98326Y57317D01*
X98325Y57322D01*
X97831Y57619D01*
X97337Y58113D01*
X96944Y58604D01*
X96747Y59195D01*
X96549Y59887D01*
X96549Y60577D01*
X96648Y61270D01*
X96846Y61960D01*
X97140Y62451D01*
X97630Y63039D01*
X98098Y63226D01*
X98671Y62939D01*
X99154Y62456D01*
X99249Y61884D01*
X99056Y61304D01*
X98662Y60811D01*
X98661Y60797D01*
X98652Y60790D01*
X98654Y60788D01*
X98651Y60787D01*
X98551Y60087D01*
X98563Y60065D01*
X98559Y60053D01*
X98959Y59453D01*
X98986Y59443D01*
X98992Y59431D01*
X99592Y59331D01*
X99622Y59347D01*
X99635Y59345D01*
X100135Y59845D01*
X100137Y59861D01*
X100147Y59864D01*
X100347Y60464D01*
X100346Y60467D01*
X100348Y60468D01*
X100345Y60471D01*
X100349Y60473D01*
X100448Y61170D01*
X100646Y61862D01*
X100943Y62457D01*
X101239Y62950D01*
X101727Y63437D01*
X102315Y63633D01*
X103003Y63830D01*
X103693Y63731D01*
X104385Y63632D01*
X104971Y63339D01*
X105461Y62850D01*
X105756Y62358D01*
X106054Y61662D01*
X106251Y61072D01*
X106251Y59684D01*
X106153Y59095D01*
X105859Y58507D01*
X105362Y57912D01*
X105362Y57911D01*
X104965Y57416D01*
X104580Y57127D01*
X104010Y57032D01*
X103533Y57318D01*
G37*
%LPD*%
%LPC*%
G36*
X103822Y25026D02*
X103822Y25026D01*
X103243Y25508D01*
X103051Y26182D01*
X103145Y26656D01*
X103735Y27245D01*
X103736Y27252D01*
X103741Y27253D01*
X104141Y27853D01*
X104141Y27860D01*
X104146Y27865D01*
X104143Y27869D01*
X104149Y27872D01*
X104249Y28472D01*
X104240Y28489D01*
X104245Y28499D01*
X103945Y29199D01*
X103930Y29208D01*
X103930Y29219D01*
X103530Y29519D01*
X103503Y29519D01*
X103493Y29529D01*
X102793Y29429D01*
X102769Y29404D01*
X102756Y29402D01*
X102456Y28802D01*
X102458Y28791D01*
X102451Y28787D01*
X102352Y28091D01*
X102154Y27498D01*
X101855Y26799D01*
X101856Y26796D01*
X101853Y26796D01*
X101657Y26207D01*
X101167Y25717D01*
X100677Y25325D01*
X99990Y25128D01*
X99301Y25030D01*
X98715Y25127D01*
X98125Y25423D01*
X97531Y25818D01*
X97135Y26215D01*
X97101Y26219D01*
X97129Y26240D01*
X97146Y26297D01*
X97140Y26299D01*
X97142Y26305D01*
X96846Y26800D01*
X96648Y27490D01*
X96550Y28180D01*
X96649Y28873D01*
X96748Y29567D01*
X97043Y30255D01*
X97337Y30648D01*
X97820Y31131D01*
X98284Y31131D01*
X98966Y30644D01*
X99345Y30170D01*
X99155Y29602D01*
X98759Y29007D01*
X98760Y28998D01*
X98753Y28996D01*
X98553Y28396D01*
X98557Y28385D01*
X98555Y28384D01*
X98559Y28379D01*
X98560Y28376D01*
X98553Y28366D01*
X98753Y27666D01*
X98773Y27651D01*
X98775Y27638D01*
X99275Y27338D01*
X99289Y27339D01*
X99291Y27336D01*
X99311Y27336D01*
X99316Y27333D01*
X99916Y27533D01*
X99929Y27553D01*
X99942Y27555D01*
X100242Y28055D01*
X100242Y28060D01*
X100244Y28062D01*
X100241Y28066D01*
X100248Y28070D01*
X100548Y29467D01*
X100746Y30061D01*
X101042Y30653D01*
X101434Y31143D01*
X102022Y31535D01*
X102608Y31731D01*
X103396Y31731D01*
X103988Y31632D01*
X104578Y31435D01*
X105169Y31042D01*
X105659Y30551D01*
X105954Y29961D01*
X106152Y29369D01*
X106251Y28677D01*
X106251Y27984D01*
X106152Y27391D01*
X105954Y26698D01*
X105659Y26109D01*
X105168Y25617D01*
X104288Y24933D01*
X103822Y25026D01*
G37*
%LPD*%
%LPC*%
G36*
X178503Y24929D02*
X178503Y24929D01*
X177811Y25028D01*
X177219Y25226D01*
X176625Y25523D01*
X176029Y25920D01*
X175535Y26315D01*
X175140Y26809D01*
X174745Y27401D01*
X174547Y28094D01*
X174546Y28095D01*
X174547Y28096D01*
X174348Y28691D01*
X174249Y29387D01*
X174248Y29388D01*
X174249Y29388D01*
X174150Y29981D01*
X174248Y30670D01*
X174447Y31365D01*
X174645Y31958D01*
X175037Y32546D01*
X175517Y32931D01*
X176087Y32931D01*
X176767Y32542D01*
X177147Y32067D01*
X177054Y31599D01*
X176659Y31007D01*
X176660Y30999D01*
X176657Y30997D01*
X176653Y30996D01*
X176453Y30396D01*
X176456Y30389D01*
X176451Y30386D01*
X176351Y29586D01*
X176359Y29573D01*
X176353Y29564D01*
X176553Y28964D01*
X176558Y28961D01*
X176556Y28958D01*
X176856Y28358D01*
X176860Y28356D01*
X176859Y28353D01*
X177259Y27753D01*
X177269Y27749D01*
X177269Y27742D01*
X177769Y27342D01*
X177788Y27341D01*
X177793Y27331D01*
X179193Y27131D01*
X179202Y27136D01*
X179207Y27131D01*
X179907Y27231D01*
X179913Y27238D01*
X179914Y27238D01*
X179916Y27239D01*
X179922Y27236D01*
X180522Y27536D01*
X180527Y27546D01*
X180535Y27545D01*
X180935Y27945D01*
X180936Y27952D01*
X180941Y27953D01*
X181341Y28553D01*
X181340Y28564D01*
X181347Y28566D01*
X181547Y29266D01*
X181546Y29270D01*
X181549Y29272D01*
X181649Y29872D01*
X181643Y29882D01*
X181649Y29887D01*
X181549Y30587D01*
X181540Y30596D01*
X181543Y30604D01*
X180949Y31693D01*
X180949Y32160D01*
X181428Y32638D01*
X182106Y32929D01*
X182673Y32835D01*
X183060Y32352D01*
X183355Y31859D01*
X183653Y31064D01*
X183851Y30373D01*
X183851Y29783D01*
X183751Y29088D01*
X183652Y28491D01*
X183455Y27801D01*
X183059Y27207D01*
X183059Y27206D01*
X183058Y27205D01*
X182761Y26711D01*
X182267Y26217D01*
X181771Y25820D01*
X181178Y25425D01*
X180585Y25227D01*
X179890Y25028D01*
X179197Y24929D01*
X178503Y24929D01*
G37*
%LPD*%
%LPC*%
G36*
X126207Y70929D02*
X126207Y70929D01*
X125511Y71028D01*
X124918Y71226D01*
X124226Y71523D01*
X123735Y71915D01*
X123338Y72411D01*
X123334Y72412D01*
X123335Y72415D01*
X122841Y72909D01*
X122545Y73501D01*
X122248Y74194D01*
X122149Y74788D01*
X122049Y75483D01*
X122049Y76077D01*
X122148Y76770D01*
X122346Y77462D01*
X122643Y78055D01*
X123035Y78643D01*
X123510Y78928D01*
X124078Y78834D01*
X124760Y78249D01*
X124947Y77876D01*
X124754Y77299D01*
X124456Y76702D01*
X124456Y76699D01*
X124455Y76698D01*
X124457Y76695D01*
X124453Y76694D01*
X124253Y75994D01*
X124256Y75984D01*
X124251Y75980D01*
X124251Y75380D01*
X124257Y75372D01*
X124253Y75366D01*
X124453Y74666D01*
X124458Y74662D01*
X124456Y74658D01*
X124756Y74058D01*
X124766Y74053D01*
X124765Y74045D01*
X125265Y73545D01*
X125277Y73544D01*
X125278Y73536D01*
X125878Y73236D01*
X125887Y73238D01*
X125887Y73237D01*
X125889Y73237D01*
X125892Y73231D01*
X126492Y73131D01*
X126497Y73134D01*
X126500Y73131D01*
X127300Y73131D01*
X127305Y73134D01*
X127308Y73131D01*
X127908Y73231D01*
X127918Y73242D01*
X127927Y73239D01*
X128527Y73639D01*
X128531Y73649D01*
X128538Y73649D01*
X128938Y74149D01*
X128939Y74153D01*
X128941Y74153D01*
X129341Y74753D01*
X129340Y74767D01*
X129349Y74772D01*
X129449Y75372D01*
X129446Y75377D01*
X129449Y75380D01*
X129449Y76080D01*
X129443Y76088D01*
X129447Y76094D01*
X129247Y76794D01*
X129239Y76800D01*
X129241Y76807D01*
X129044Y77103D01*
X128754Y77778D01*
X128939Y78149D01*
X129527Y78639D01*
X130100Y78925D01*
X130666Y78642D01*
X131058Y78054D01*
X131354Y77561D01*
X131552Y76770D01*
X131651Y76176D01*
X131651Y75484D01*
X131551Y74888D01*
X131552Y74887D01*
X131551Y74887D01*
X131452Y74195D01*
X131156Y73602D01*
X130858Y73007D01*
X130463Y72513D01*
X129967Y72017D01*
X129474Y71623D01*
X128781Y71325D01*
X128779Y71323D01*
X128778Y71324D01*
X128185Y71027D01*
X127592Y70929D01*
X127551Y70885D01*
X127556Y70880D01*
X127551Y70876D01*
X127552Y70862D01*
X127549Y70887D01*
X127507Y70929D01*
X127500Y70923D01*
X127498Y70923D01*
X127492Y70929D01*
X126899Y70830D01*
X126207Y70929D01*
G37*
%LPD*%
%LPC*%
G36*
X126008Y33929D02*
X126008Y33929D01*
X125416Y34127D01*
X125414Y34126D01*
X125414Y34127D01*
X124718Y34326D01*
X124127Y34622D01*
X123635Y35015D01*
X123240Y35509D01*
X122841Y36107D01*
X122445Y36702D01*
X122248Y37291D01*
X122149Y37987D01*
X122148Y37988D01*
X122149Y37988D01*
X122049Y38584D01*
X122049Y39277D01*
X122148Y39967D01*
X122444Y40658D01*
X122742Y41154D01*
X123133Y41740D01*
X123618Y41934D01*
X123649Y41985D01*
X123648Y41986D01*
X123649Y41986D01*
X123649Y41988D01*
X123651Y41972D01*
X123681Y41944D01*
X123684Y41933D01*
X124276Y41736D01*
X124855Y41253D01*
X124948Y40787D01*
X124356Y39602D01*
X124358Y39591D01*
X124351Y39587D01*
X124251Y38887D01*
X124254Y38882D01*
X124251Y38880D01*
X124251Y38180D01*
X124258Y38171D01*
X124253Y38164D01*
X124453Y37564D01*
X124461Y37559D01*
X124459Y37553D01*
X124859Y36953D01*
X124869Y36949D01*
X124869Y36942D01*
X125369Y36542D01*
X125377Y36541D01*
X125378Y36536D01*
X125978Y36236D01*
X125989Y36238D01*
X125993Y36231D01*
X126693Y36131D01*
X126698Y36134D01*
X126700Y36131D01*
X127400Y36131D01*
X127409Y36138D01*
X127416Y36133D01*
X128016Y36333D01*
X128021Y36341D01*
X128027Y36339D01*
X128627Y36739D01*
X128631Y36749D01*
X128638Y36749D01*
X129038Y37249D01*
X129039Y37257D01*
X129044Y37258D01*
X129344Y37858D01*
X129343Y37861D01*
X129345Y37862D01*
X129343Y37866D01*
X129342Y37869D01*
X129349Y37873D01*
X129449Y38573D01*
X129446Y38578D01*
X129449Y38580D01*
X129449Y39180D01*
X129443Y39188D01*
X129447Y39194D01*
X129247Y39894D01*
X129237Y39901D01*
X129239Y39910D01*
X128944Y40303D01*
X128754Y40874D01*
X129036Y41344D01*
X129720Y41735D01*
X130290Y41925D01*
X130763Y41546D01*
X131156Y40957D01*
X131353Y40465D01*
X131552Y39670D01*
X131651Y39076D01*
X131651Y38383D01*
X131552Y37691D01*
X131354Y37099D01*
X130758Y35907D01*
X130363Y35413D01*
X129869Y34918D01*
X129275Y34523D01*
X128681Y34226D01*
X128089Y34028D01*
X127397Y33929D01*
X126008Y33929D01*
G37*
%LPD*%
%LPC*%
G36*
X72645Y34100D02*
X72645Y34100D01*
X72606Y34121D01*
X72600Y34129D01*
X72120Y34129D01*
X71642Y34608D01*
X71353Y35282D01*
X71543Y35853D01*
X71927Y36237D01*
X72516Y36433D01*
X72518Y36437D01*
X72520Y36435D01*
X77120Y38535D01*
X77121Y38536D01*
X77122Y38536D01*
X77722Y38836D01*
X77725Y38842D01*
X77732Y38843D01*
X77731Y38855D01*
X77748Y38889D01*
X77729Y38899D01*
X77727Y38921D01*
X77427Y39121D01*
X77422Y39121D01*
X77421Y39125D01*
X72421Y41424D01*
X71829Y41721D01*
X71449Y42100D01*
X71449Y42671D01*
X71642Y43152D01*
X72124Y43635D01*
X72595Y43729D01*
X73280Y43435D01*
X79978Y40136D01*
X80563Y39843D01*
X80851Y39268D01*
X80851Y38592D01*
X80563Y38017D01*
X79978Y37724D01*
X73278Y34424D01*
X72678Y34124D01*
X72667Y34103D01*
X72660Y34097D01*
X72663Y34093D01*
X72655Y34078D01*
X72645Y34100D01*
G37*
%LPD*%
%LPC*%
G36*
X171749Y52955D02*
X171749Y52955D01*
X172116Y53231D01*
X172775Y53231D01*
X173051Y52864D01*
X173051Y25736D01*
X171749Y25038D01*
X171749Y52955D01*
G37*
%LPD*%
%LPC*%
G36*
X47208Y73846D02*
X47208Y73846D01*
X45657Y74113D01*
X45215Y74372D01*
X44328Y74934D01*
X43973Y75290D01*
X43400Y76169D01*
X43146Y76613D01*
X42872Y78159D01*
X42857Y78669D01*
X43129Y80218D01*
X43337Y80679D01*
X43993Y81661D01*
X43993Y81672D01*
X44218Y81963D01*
X45537Y82806D01*
X46029Y82938D01*
X47582Y83209D01*
X48121Y83189D01*
X48127Y82797D01*
X48127Y80777D01*
X47777Y80796D01*
X47771Y80793D01*
X47761Y80795D01*
X47243Y80698D01*
X47239Y80693D01*
X47230Y80694D01*
X46756Y80492D01*
X46752Y80486D01*
X46741Y80483D01*
X46326Y80157D01*
X46323Y80147D01*
X46309Y80137D01*
X46060Y79671D01*
X46060Y79666D01*
X46056Y79661D01*
X45888Y79168D01*
X45889Y79163D01*
X45885Y79157D01*
X45808Y78634D01*
X45810Y78629D01*
X45807Y78621D01*
X45839Y78098D01*
X45840Y78096D01*
X45840Y78092D01*
X45916Y77569D01*
X45922Y77563D01*
X45922Y77550D01*
X46160Y77080D01*
X46165Y77077D01*
X46167Y77070D01*
X46484Y76661D01*
X46490Y76658D01*
X46495Y76649D01*
X46912Y76325D01*
X46923Y76324D01*
X46937Y76313D01*
X47454Y76201D01*
X47458Y76202D01*
X47464Y76199D01*
X48129Y76166D01*
X48127Y75930D01*
X48127Y75929D01*
X48127Y73799D01*
X47725Y73789D01*
X47208Y73846D01*
G37*
%LPD*%
%LPC*%
G36*
X83941Y198949D02*
X83941Y198949D01*
X83749Y200005D01*
X83749Y207170D01*
X84512Y207551D01*
X86893Y207551D01*
X87962Y207259D01*
X88347Y206202D01*
X87967Y205347D01*
X86597Y205249D01*
X86589Y205243D01*
X86585Y205243D01*
X86585Y205242D01*
X86580Y205245D01*
X85680Y204845D01*
X85669Y204825D01*
X85652Y204813D01*
X85653Y204812D01*
X85652Y204811D01*
X85352Y203511D01*
X85359Y203495D01*
X85353Y203487D01*
X85653Y202387D01*
X85678Y202367D01*
X85682Y202354D01*
X86682Y201954D01*
X86692Y201957D01*
X86696Y201951D01*
X87980Y201852D01*
X88751Y201178D01*
X88751Y200506D01*
X88459Y199337D01*
X87391Y198949D01*
X83941Y198949D01*
G37*
%LPD*%
%LPC*%
G36*
X122909Y81329D02*
X122909Y81329D01*
X122440Y81517D01*
X122250Y82085D01*
X122348Y82964D01*
X122631Y83435D01*
X123204Y83531D01*
X129800Y83531D01*
X129847Y83567D01*
X129842Y83574D01*
X129849Y83580D01*
X129849Y86977D01*
X129945Y87650D01*
X130414Y87931D01*
X131086Y87931D01*
X131555Y87650D01*
X131651Y87076D01*
X131651Y82283D01*
X131555Y81610D01*
X131086Y81329D01*
X122909Y81329D01*
G37*
%LPD*%
%LPC*%
G36*
X35524Y73889D02*
X35524Y73889D01*
X35530Y74259D01*
X35530Y74260D01*
X35530Y83108D01*
X35546Y83108D01*
X35547Y83108D01*
X38462Y83108D01*
X38462Y73986D01*
X38463Y73984D01*
X38462Y73981D01*
X38469Y73889D01*
X35524Y73889D01*
G37*
%LPD*%
%LPC*%
G36*
X39203Y73889D02*
X39203Y73889D01*
X39209Y74310D01*
X39208Y74311D01*
X39209Y74311D01*
X39234Y83108D01*
X39276Y83108D01*
X42140Y83108D01*
X42140Y73939D01*
X42134Y73889D01*
X39203Y73889D01*
G37*
%LPD*%
%LPC*%
G36*
X155608Y55629D02*
X155608Y55629D01*
X155556Y55602D01*
X155556Y55601D01*
X155542Y55573D01*
X155531Y55618D01*
X155523Y55616D01*
X155521Y55624D01*
X147024Y59723D01*
X146441Y60112D01*
X146253Y60678D01*
X146542Y61352D01*
X147016Y61827D01*
X147485Y61733D01*
X148180Y61435D01*
X156179Y57636D01*
X156181Y57636D01*
X156182Y57634D01*
X156672Y57438D01*
X157051Y57060D01*
X157051Y56492D01*
X156664Y55719D01*
X156195Y55531D01*
X155608Y55629D01*
G37*
%LPD*%
%LPC*%
G36*
X105110Y48429D02*
X105110Y48429D01*
X104420Y48725D01*
X96521Y52524D01*
X96520Y52524D01*
X96519Y52525D01*
X95832Y52820D01*
X95549Y53196D01*
X95549Y53864D01*
X96033Y54541D01*
X96402Y54726D01*
X97080Y54435D01*
X105675Y50438D01*
X106058Y50150D01*
X106248Y49579D01*
X106055Y48903D01*
X105676Y48429D01*
X105110Y48429D01*
G37*
%LPD*%
%LPC*%
G36*
X130411Y53428D02*
X130411Y53428D01*
X129718Y53626D01*
X121822Y57524D01*
X121820Y57524D01*
X121819Y57525D01*
X121134Y57819D01*
X120853Y58287D01*
X121044Y58956D01*
X121528Y59536D01*
X121896Y59628D01*
X122580Y59335D01*
X130578Y55536D01*
X131556Y55047D01*
X131649Y54486D01*
X131357Y53806D01*
X130980Y53333D01*
X130411Y53428D01*
G37*
%LPD*%
%LPC*%
G36*
X199404Y25129D02*
X199404Y25129D01*
X198828Y25225D01*
X198539Y25610D01*
X198496Y25622D01*
X198523Y25636D01*
X198544Y25681D01*
X198549Y25686D01*
X198450Y26476D01*
X198641Y27143D01*
X199109Y27331D01*
X207286Y27331D01*
X207755Y27050D01*
X207850Y26379D01*
X207753Y25503D01*
X207477Y25226D01*
X206797Y25129D01*
X199404Y25129D01*
G37*
%LPD*%
%LPC*%
G36*
X97944Y44401D02*
X97944Y44401D01*
X97906Y44421D01*
X97900Y44429D01*
X97316Y44429D01*
X96946Y44707D01*
X96850Y45480D01*
X96946Y46250D01*
X97417Y46533D01*
X98004Y46631D01*
X104797Y46631D01*
X105492Y46531D01*
X106063Y46436D01*
X106251Y45872D01*
X106251Y44994D01*
X105969Y44524D01*
X105495Y44429D01*
X98000Y44429D01*
X97996Y44426D01*
X97992Y44429D01*
X97988Y44420D01*
X97953Y44393D01*
X97955Y44391D01*
X97954Y44390D01*
X97964Y44376D01*
X97960Y44369D01*
X97944Y44401D01*
G37*
%LPD*%
G36*
X153114Y46442D02*
X153114Y46442D01*
X153124Y46437D01*
X153824Y46837D01*
X153828Y46846D01*
X153835Y46845D01*
X154335Y47345D01*
X154336Y47357D01*
X154344Y47358D01*
X154644Y47958D01*
X154643Y47963D01*
X154647Y47964D01*
X154847Y48564D01*
X154843Y48575D01*
X154849Y48580D01*
X154849Y49180D01*
X154843Y49188D01*
X154847Y49194D01*
X154647Y49894D01*
X154636Y49902D01*
X154638Y49911D01*
X154238Y50411D01*
X154234Y50412D01*
X154235Y50415D01*
X153735Y50915D01*
X153719Y50917D01*
X153716Y50927D01*
X153116Y51127D01*
X153114Y51126D01*
X153114Y51127D01*
X152414Y51327D01*
X152400Y51322D01*
X152393Y51329D01*
X151693Y51229D01*
X151688Y51224D01*
X151684Y51227D01*
X151084Y51027D01*
X151079Y51019D01*
X151073Y51021D01*
X150473Y50621D01*
X150469Y50611D01*
X150462Y50611D01*
X150062Y50111D01*
X150061Y50103D01*
X150056Y50102D01*
X149756Y49502D01*
X149757Y49499D01*
X149755Y49498D01*
X149757Y49494D01*
X149758Y49492D01*
X149751Y49488D01*
X149651Y48888D01*
X149657Y48878D01*
X149651Y48873D01*
X149751Y48173D01*
X149759Y48165D01*
X149756Y48158D01*
X150056Y47558D01*
X150063Y47555D01*
X150062Y47549D01*
X150462Y47049D01*
X150472Y47047D01*
X150473Y47039D01*
X151073Y46639D01*
X151082Y46640D01*
X151084Y46633D01*
X151684Y46433D01*
X151695Y46437D01*
X151700Y46431D01*
X153100Y46431D01*
X153114Y46442D01*
G37*
%LPC*%
G36*
X125444Y203623D02*
X125444Y203623D01*
X125407Y203640D01*
X125400Y203649D01*
X121949Y203649D01*
X121949Y207075D01*
X122616Y207551D01*
X124889Y207551D01*
X125969Y207060D01*
X126651Y206183D01*
X126651Y205014D01*
X126063Y204035D01*
X125473Y203641D01*
X125457Y203596D01*
X125444Y203623D01*
G37*
%LPD*%
%LPC*%
G36*
X74449Y241749D02*
X74449Y241749D01*
X74449Y245177D01*
X75018Y245651D01*
X77389Y245651D01*
X78467Y245161D01*
X79052Y244283D01*
X79150Y243112D01*
X78564Y242136D01*
X77887Y241749D01*
X74449Y241749D01*
G37*
%LPD*%
G36*
X52605Y48134D02*
X52605Y48134D01*
X52608Y48131D01*
X53208Y48231D01*
X53249Y48275D01*
X53246Y48278D01*
X53249Y48280D01*
X53249Y50280D01*
X53242Y50289D01*
X53247Y50296D01*
X53147Y50596D01*
X53133Y50605D01*
X53135Y50615D01*
X52635Y51115D01*
X52631Y51115D01*
X52631Y51118D01*
X52131Y51518D01*
X52123Y51519D01*
X52122Y51524D01*
X51522Y51824D01*
X51511Y51822D01*
X51510Y51825D01*
X51509Y51825D01*
X51507Y51829D01*
X50807Y51929D01*
X50798Y51924D01*
X50793Y51929D01*
X50093Y51829D01*
X50085Y51821D01*
X50078Y51824D01*
X49478Y51524D01*
X49475Y51517D01*
X49469Y51518D01*
X48969Y51118D01*
X48967Y51111D01*
X48962Y51111D01*
X48562Y50611D01*
X48561Y50603D01*
X48556Y50602D01*
X48256Y50002D01*
X48259Y49986D01*
X48251Y49980D01*
X48251Y48580D01*
X48264Y48562D01*
X48261Y48550D01*
X48561Y48150D01*
X48592Y48142D01*
X48600Y48131D01*
X52600Y48131D01*
X52605Y48134D01*
G37*
G36*
X103833Y68356D02*
X103833Y68356D01*
X103844Y68358D01*
X104044Y68758D01*
X104044Y68760D01*
X104044Y68761D01*
X104043Y68762D01*
X104041Y68774D01*
X104049Y68780D01*
X104049Y70180D01*
X104040Y70193D01*
X104044Y70202D01*
X103644Y71002D01*
X103634Y71007D01*
X103635Y71015D01*
X103135Y71515D01*
X103126Y71516D01*
X103125Y71522D01*
X102625Y71822D01*
X102616Y71821D01*
X102614Y71827D01*
X101914Y72027D01*
X101906Y72025D01*
X101904Y72025D01*
X101900Y72029D01*
X101200Y72029D01*
X101195Y72026D01*
X101192Y72029D01*
X100592Y71929D01*
X100582Y71918D01*
X100573Y71921D01*
X99973Y71521D01*
X99970Y71514D01*
X99965Y71515D01*
X99465Y71015D01*
X99464Y71006D01*
X99458Y71005D01*
X99158Y70505D01*
X99159Y70491D01*
X99151Y70487D01*
X99051Y69787D01*
X99054Y69782D01*
X99051Y69780D01*
X99051Y68380D01*
X99087Y68333D01*
X99094Y68338D01*
X99100Y68331D01*
X103800Y68331D01*
X103833Y68356D01*
G37*
G36*
X154747Y78167D02*
X154747Y78167D01*
X154746Y78169D01*
X154748Y78170D01*
X154848Y78670D01*
X154845Y78677D01*
X154849Y78680D01*
X154849Y80380D01*
X154833Y80401D01*
X154835Y80415D01*
X154335Y80915D01*
X154331Y80915D01*
X154331Y80918D01*
X153331Y81718D01*
X153312Y81719D01*
X153307Y81729D01*
X152607Y81829D01*
X152602Y81826D01*
X152600Y81829D01*
X151900Y81829D01*
X151894Y81825D01*
X151888Y81825D01*
X151884Y81827D01*
X151284Y81627D01*
X151279Y81619D01*
X151273Y81621D01*
X150673Y81221D01*
X150669Y81211D01*
X150662Y81211D01*
X150262Y80711D01*
X150261Y80703D01*
X150256Y80702D01*
X149956Y80102D01*
X149958Y80091D01*
X149951Y80087D01*
X149851Y79387D01*
X149854Y79382D01*
X149851Y79380D01*
X149851Y78680D01*
X149855Y78674D01*
X149852Y78670D01*
X149952Y78170D01*
X149996Y78131D01*
X149998Y78133D01*
X150000Y78131D01*
X154700Y78131D01*
X154747Y78167D01*
G37*
G36*
X154633Y36356D02*
X154633Y36356D01*
X154644Y36358D01*
X154844Y36758D01*
X154844Y36760D01*
X154844Y36761D01*
X154843Y36762D01*
X154841Y36774D01*
X154849Y36780D01*
X154849Y38180D01*
X154840Y38193D01*
X154844Y38202D01*
X154444Y39002D01*
X154434Y39007D01*
X154435Y39015D01*
X153935Y39515D01*
X153926Y39516D01*
X153925Y39522D01*
X153425Y39822D01*
X153416Y39821D01*
X153414Y39827D01*
X152714Y40027D01*
X152706Y40025D01*
X152704Y40025D01*
X152700Y40029D01*
X152000Y40029D01*
X151994Y40025D01*
X151988Y40025D01*
X151984Y40027D01*
X151384Y39827D01*
X151381Y39822D01*
X151378Y39824D01*
X150778Y39524D01*
X150773Y39514D01*
X150765Y39515D01*
X150265Y39015D01*
X150264Y39004D01*
X150263Y39004D01*
X150263Y39003D01*
X150256Y39002D01*
X149956Y38402D01*
X149958Y38392D01*
X149951Y38388D01*
X149851Y37788D01*
X149854Y37783D01*
X149851Y37780D01*
X149851Y36380D01*
X149887Y36333D01*
X149894Y36338D01*
X149900Y36331D01*
X154600Y36331D01*
X154633Y36356D01*
G37*
G36*
X104047Y36367D02*
X104047Y36367D01*
X104042Y36374D01*
X104049Y36380D01*
X104049Y38480D01*
X104040Y38493D01*
X104044Y38502D01*
X103944Y38702D01*
X103934Y38707D01*
X103935Y38715D01*
X103435Y39215D01*
X103431Y39215D01*
X103431Y39218D01*
X102931Y39618D01*
X102923Y39619D01*
X102922Y39624D01*
X102322Y39924D01*
X102311Y39922D01*
X102307Y39929D01*
X101607Y40029D01*
X101599Y40025D01*
X101597Y40025D01*
X101593Y40029D01*
X100893Y39929D01*
X100890Y39926D01*
X100888Y39924D01*
X100884Y39927D01*
X100284Y39727D01*
X100277Y39716D01*
X100269Y39718D01*
X99769Y39318D01*
X99767Y39308D01*
X99759Y39307D01*
X99359Y38707D01*
X99359Y38703D01*
X99356Y38702D01*
X99056Y38102D01*
X99059Y38086D01*
X99051Y38080D01*
X99051Y36680D01*
X99067Y36659D01*
X99065Y36645D01*
X99365Y36345D01*
X99392Y36342D01*
X99400Y36331D01*
X104000Y36331D01*
X104047Y36367D01*
G37*
G36*
X13436Y76134D02*
X13436Y76134D01*
X13440Y76137D01*
X13447Y76136D01*
X13955Y76264D01*
X13962Y76271D01*
X13977Y76275D01*
X14399Y76593D01*
X14402Y76600D01*
X14410Y76604D01*
X14734Y77008D01*
X14734Y77013D01*
X14739Y77017D01*
X14996Y77479D01*
X14995Y77488D01*
X15003Y77500D01*
X15083Y78023D01*
X15082Y78024D01*
X15083Y78026D01*
X15133Y78549D01*
X15130Y78555D01*
X15133Y78564D01*
X15053Y79087D01*
X15051Y79090D01*
X15051Y79095D01*
X14907Y79595D01*
X14903Y79599D01*
X14902Y79608D01*
X14645Y80070D01*
X14637Y80074D01*
X14632Y80086D01*
X14247Y80436D01*
X14241Y80437D01*
X14236Y80444D01*
X13787Y80703D01*
X13779Y80703D01*
X13768Y80710D01*
X13251Y80817D01*
X13244Y80814D01*
X13233Y80818D01*
X12715Y80775D01*
X12711Y80772D01*
X12705Y80774D01*
X12197Y80645D01*
X12190Y80638D01*
X12175Y80634D01*
X11752Y80318D01*
X11749Y80311D01*
X11740Y80307D01*
X11416Y79904D01*
X11415Y79899D01*
X11410Y79895D01*
X11152Y79433D01*
X11153Y79424D01*
X11145Y79412D01*
X11065Y78890D01*
X11065Y78888D01*
X11064Y78886D01*
X11014Y78364D01*
X11017Y78358D01*
X11014Y78348D01*
X11095Y77826D01*
X11097Y77823D01*
X11097Y77818D01*
X11243Y77318D01*
X11248Y77314D01*
X11249Y77305D01*
X11506Y76843D01*
X11514Y76839D01*
X11519Y76827D01*
X11905Y76478D01*
X11911Y76477D01*
X11916Y76471D01*
X12365Y76211D01*
X12373Y76211D01*
X12383Y76203D01*
X12901Y76097D01*
X12908Y76100D01*
X12918Y76096D01*
X13436Y76134D01*
G37*
%LPC*%
G36*
X148735Y217984D02*
X148735Y217984D01*
X148733Y217984D01*
X148733Y217987D01*
X147841Y218779D01*
X147450Y219758D01*
X147548Y221033D01*
X148133Y221911D01*
X149209Y222400D01*
X150283Y222302D01*
X151259Y221619D01*
X151650Y220543D01*
X151552Y219370D01*
X150770Y218490D01*
X149788Y217999D01*
X148800Y217999D01*
X148770Y217977D01*
X148758Y217976D01*
X148740Y217946D01*
X148735Y217984D01*
G37*
%LPD*%
G36*
X181547Y46567D02*
X181547Y46567D01*
X181546Y46569D01*
X181548Y46570D01*
X181648Y47070D01*
X181645Y47077D01*
X181649Y47080D01*
X181649Y48480D01*
X181646Y48484D01*
X181649Y48487D01*
X181549Y49187D01*
X181527Y49209D01*
X181525Y49222D01*
X181025Y49522D01*
X181007Y49520D01*
X181000Y49529D01*
X180400Y49529D01*
X180382Y49515D01*
X180369Y49518D01*
X179869Y49118D01*
X179863Y49093D01*
X179851Y49087D01*
X179751Y48388D01*
X179656Y47813D01*
X179091Y47531D01*
X178330Y47626D01*
X178049Y48094D01*
X178049Y48880D01*
X178030Y48906D01*
X178030Y48919D01*
X177630Y49219D01*
X177603Y49219D01*
X177593Y49229D01*
X176893Y49129D01*
X176866Y49102D01*
X176854Y49098D01*
X176654Y48598D01*
X176657Y48588D01*
X176651Y48584D01*
X176551Y47184D01*
X176556Y47176D01*
X176551Y47172D01*
X176651Y46572D01*
X176695Y46531D01*
X176698Y46534D01*
X176700Y46531D01*
X181500Y46531D01*
X181547Y46567D01*
G37*
%LPC*%
G36*
X153822Y198849D02*
X153822Y198849D01*
X153044Y199724D01*
X152753Y200793D01*
X153342Y201775D01*
X153342Y201780D01*
X153344Y201781D01*
X153369Y201761D01*
X153408Y201761D01*
X153418Y201754D01*
X154408Y202150D01*
X155678Y202052D01*
X156454Y201276D01*
X156648Y200209D01*
X156066Y199240D01*
X155091Y198849D01*
X153822Y198849D01*
G37*
%LPD*%
G36*
X151921Y88347D02*
X151921Y88347D01*
X151935Y88345D01*
X152135Y88545D01*
X152137Y88558D01*
X152144Y88564D01*
X152138Y88572D01*
X152139Y88572D01*
X152149Y88580D01*
X152149Y89980D01*
X152146Y89985D01*
X152149Y89988D01*
X152049Y90588D01*
X152036Y90600D01*
X152038Y90611D01*
X151638Y91111D01*
X151613Y91117D01*
X151606Y91129D01*
X150806Y91229D01*
X150793Y91221D01*
X150784Y91227D01*
X150184Y91027D01*
X150169Y91005D01*
X150156Y91002D01*
X149856Y90402D01*
X149858Y90391D01*
X149851Y90387D01*
X149751Y89687D01*
X149754Y89682D01*
X149751Y89680D01*
X149751Y89080D01*
X149754Y89076D01*
X149751Y89073D01*
X149851Y88373D01*
X149894Y88331D01*
X149897Y88335D01*
X149900Y88331D01*
X151900Y88331D01*
X151921Y88347D01*
G37*
%LPC*%
G36*
X238749Y203549D02*
X238749Y203549D01*
X238749Y205475D01*
X239116Y205751D01*
X240488Y205751D01*
X241066Y205462D01*
X241451Y204885D01*
X241451Y204217D01*
X241071Y203743D01*
X240393Y203549D01*
X238749Y203549D01*
G37*
%LPD*%
%LPC*%
G36*
X214749Y203449D02*
X214749Y203449D01*
X214749Y205375D01*
X215116Y205651D01*
X216392Y205651D01*
X216968Y205459D01*
X217351Y204885D01*
X217351Y204214D01*
X217063Y203734D01*
X216684Y203449D01*
X214749Y203449D01*
G37*
%LPD*%
%LPC*%
G36*
X153830Y206243D02*
X153830Y206243D01*
X153257Y207104D01*
X153734Y208058D01*
X154897Y208348D01*
X155853Y207966D01*
X155949Y206527D01*
X154992Y205953D01*
X153830Y206243D01*
G37*
%LPD*%
%LPC*%
G36*
X174530Y240049D02*
X174530Y240049D01*
X174259Y240592D01*
X175127Y241556D01*
X176200Y241849D01*
X177262Y241559D01*
X177640Y240521D01*
X176886Y240049D01*
X174530Y240049D01*
G37*
%LPD*%
%LPC*%
G36*
X103630Y220999D02*
X103630Y220999D01*
X103359Y221542D01*
X104227Y222507D01*
X105201Y222799D01*
X106363Y222509D01*
X106740Y221471D01*
X105986Y220999D01*
X103630Y220999D01*
G37*
%LPD*%
%LPC*%
G36*
X103930Y240049D02*
X103930Y240049D01*
X103659Y240592D01*
X104527Y241557D01*
X105501Y241849D01*
X106663Y241559D01*
X107040Y240521D01*
X106286Y240049D01*
X103930Y240049D01*
G37*
%LPD*%
G36*
X102292Y79937D02*
X102292Y79937D01*
X102339Y79951D01*
X102334Y79969D01*
X102349Y79980D01*
X102349Y81280D01*
X102328Y81308D01*
X102327Y81321D01*
X102027Y81521D01*
X101991Y81519D01*
X101979Y81525D01*
X100679Y80925D01*
X100651Y80872D01*
X100665Y80865D01*
X100661Y80850D01*
X100961Y80450D01*
X100979Y80445D01*
X100982Y80434D01*
X102282Y79934D01*
X102285Y79935D01*
X102287Y79933D01*
X102292Y79937D01*
G37*
G36*
X152937Y67848D02*
X152937Y67848D01*
X152936Y67856D01*
X152944Y67858D01*
X153144Y68258D01*
X153144Y68260D01*
X153144Y68261D01*
X153143Y68262D01*
X153141Y68274D01*
X153149Y68280D01*
X153149Y68980D01*
X153145Y68986D01*
X153148Y68990D01*
X153048Y69489D01*
X153048Y69490D01*
X153004Y69529D01*
X152993Y69517D01*
X152978Y69524D01*
X151778Y68924D01*
X151768Y68904D01*
X151756Y68902D01*
X151556Y68502D01*
X151567Y68444D01*
X151577Y68445D01*
X151579Y68435D01*
X152879Y67835D01*
X152937Y67848D01*
G37*
%LPC*%
G36*
X171749Y24629D02*
X171749Y24629D01*
X171749Y24926D01*
X173051Y25625D01*
X173051Y25089D01*
X172867Y24629D01*
X171749Y24629D01*
G37*
%LPD*%
%LPC*%
G36*
X174945Y238006D02*
X174945Y238006D01*
X174947Y238008D01*
X174948Y238005D01*
X174945Y238006D01*
G37*
%LPD*%
%LPC*%
G36*
X127239Y200112D02*
X127239Y200112D01*
X127239Y200111D01*
X127239Y200112D01*
G37*
%LPD*%
D10*
X241935Y195263D02*
X241935Y185738D01*
X4800Y142000D02*
X4800Y112000D01*
X30800Y157000D02*
X47300Y157000D01*
X47300Y104500D02*
X47300Y97000D01*
X30800Y97000D01*
X47300Y149500D02*
X47300Y157000D01*
X52784Y152000D02*
X52786Y152063D01*
X52792Y152126D01*
X52802Y152189D01*
X52815Y152250D01*
X52833Y152311D01*
X52854Y152370D01*
X52879Y152429D01*
X52907Y152485D01*
X52939Y152540D01*
X52974Y152592D01*
X53013Y152642D01*
X53054Y152690D01*
X53099Y152735D01*
X53146Y152777D01*
X53195Y152816D01*
X53247Y152852D01*
X53301Y152885D01*
X53357Y152914D01*
X53415Y152940D01*
X53474Y152962D01*
X53534Y152981D01*
X53596Y152995D01*
X53658Y153006D01*
X53721Y153013D01*
X53784Y153016D01*
X53847Y153015D01*
X53910Y153010D01*
X53973Y153001D01*
X54035Y152988D01*
X54096Y152972D01*
X54156Y152952D01*
X54214Y152928D01*
X54271Y152900D01*
X54326Y152869D01*
X54379Y152835D01*
X54430Y152797D01*
X54478Y152756D01*
X54524Y152713D01*
X54567Y152666D01*
X54607Y152617D01*
X54644Y152566D01*
X54677Y152513D01*
X54707Y152457D01*
X54734Y152400D01*
X54757Y152341D01*
X54776Y152281D01*
X54792Y152219D01*
X54804Y152157D01*
X54812Y152095D01*
X54816Y152032D01*
X54816Y151968D01*
X54812Y151905D01*
X54804Y151843D01*
X54792Y151781D01*
X54776Y151719D01*
X54757Y151659D01*
X54734Y151600D01*
X54707Y151543D01*
X54677Y151487D01*
X54644Y151434D01*
X54607Y151383D01*
X54567Y151334D01*
X54524Y151287D01*
X54478Y151244D01*
X54430Y151203D01*
X54379Y151165D01*
X54326Y151131D01*
X54271Y151100D01*
X54214Y151072D01*
X54156Y151048D01*
X54096Y151028D01*
X54035Y151012D01*
X53973Y150999D01*
X53910Y150990D01*
X53847Y150985D01*
X53784Y150984D01*
X53721Y150987D01*
X53658Y150994D01*
X53596Y151005D01*
X53534Y151019D01*
X53474Y151038D01*
X53415Y151060D01*
X53357Y151086D01*
X53301Y151115D01*
X53247Y151148D01*
X53195Y151184D01*
X53146Y151223D01*
X53099Y151265D01*
X53054Y151310D01*
X53013Y151358D01*
X52974Y151408D01*
X52939Y151460D01*
X52907Y151515D01*
X52879Y151571D01*
X52854Y151630D01*
X52833Y151689D01*
X52815Y151750D01*
X52802Y151811D01*
X52792Y151874D01*
X52786Y151937D01*
X52784Y152000D01*
X249200Y142000D02*
X249200Y112000D01*
X223200Y97000D02*
X206700Y97000D01*
X206700Y149500D02*
X206700Y157000D01*
X223200Y157000D01*
X206700Y104500D02*
X206700Y97000D01*
X199184Y102000D02*
X199186Y102063D01*
X199192Y102126D01*
X199202Y102189D01*
X199215Y102250D01*
X199233Y102311D01*
X199254Y102370D01*
X199279Y102429D01*
X199307Y102485D01*
X199339Y102540D01*
X199374Y102592D01*
X199413Y102642D01*
X199454Y102690D01*
X199499Y102735D01*
X199546Y102777D01*
X199595Y102816D01*
X199647Y102852D01*
X199701Y102885D01*
X199757Y102914D01*
X199815Y102940D01*
X199874Y102962D01*
X199934Y102981D01*
X199996Y102995D01*
X200058Y103006D01*
X200121Y103013D01*
X200184Y103016D01*
X200247Y103015D01*
X200310Y103010D01*
X200373Y103001D01*
X200435Y102988D01*
X200496Y102972D01*
X200556Y102952D01*
X200614Y102928D01*
X200671Y102900D01*
X200726Y102869D01*
X200779Y102835D01*
X200830Y102797D01*
X200878Y102756D01*
X200924Y102713D01*
X200967Y102666D01*
X201007Y102617D01*
X201044Y102566D01*
X201077Y102513D01*
X201107Y102457D01*
X201134Y102400D01*
X201157Y102341D01*
X201176Y102281D01*
X201192Y102219D01*
X201204Y102157D01*
X201212Y102095D01*
X201216Y102032D01*
X201216Y101968D01*
X201212Y101905D01*
X201204Y101843D01*
X201192Y101781D01*
X201176Y101719D01*
X201157Y101659D01*
X201134Y101600D01*
X201107Y101543D01*
X201077Y101487D01*
X201044Y101434D01*
X201007Y101383D01*
X200967Y101334D01*
X200924Y101287D01*
X200878Y101244D01*
X200830Y101203D01*
X200779Y101165D01*
X200726Y101131D01*
X200671Y101100D01*
X200614Y101072D01*
X200556Y101048D01*
X200496Y101028D01*
X200435Y101012D01*
X200373Y100999D01*
X200310Y100990D01*
X200247Y100985D01*
X200184Y100984D01*
X200121Y100987D01*
X200058Y100994D01*
X199996Y101005D01*
X199934Y101019D01*
X199874Y101038D01*
X199815Y101060D01*
X199757Y101086D01*
X199701Y101115D01*
X199647Y101148D01*
X199595Y101184D01*
X199546Y101223D01*
X199499Y101265D01*
X199454Y101310D01*
X199413Y101358D01*
X199374Y101408D01*
X199339Y101460D01*
X199307Y101515D01*
X199279Y101571D01*
X199254Y101630D01*
X199233Y101689D01*
X199215Y101750D01*
X199202Y101811D01*
X199192Y101874D01*
X199186Y101937D01*
X199184Y102000D01*
D11*
X138000Y138000D02*
X116000Y138000D01*
X138000Y138000D02*
X138000Y116000D01*
X116000Y116000D01*
X116000Y138000D01*
D12*
X113967Y139820D02*
X113969Y139862D01*
X113975Y139904D01*
X113985Y139946D01*
X113998Y139986D01*
X114016Y140025D01*
X114037Y140062D01*
X114061Y140096D01*
X114089Y140129D01*
X114119Y140159D01*
X114152Y140185D01*
X114187Y140209D01*
X114225Y140229D01*
X114264Y140245D01*
X114304Y140258D01*
X114346Y140267D01*
X114388Y140272D01*
X114431Y140273D01*
X114473Y140270D01*
X114515Y140263D01*
X114556Y140252D01*
X114596Y140237D01*
X114634Y140219D01*
X114671Y140197D01*
X114705Y140172D01*
X114737Y140144D01*
X114765Y140113D01*
X114791Y140079D01*
X114814Y140043D01*
X114833Y140006D01*
X114849Y139966D01*
X114861Y139925D01*
X114869Y139884D01*
X114873Y139841D01*
X114873Y139799D01*
X114869Y139756D01*
X114861Y139715D01*
X114849Y139674D01*
X114833Y139634D01*
X114814Y139597D01*
X114791Y139561D01*
X114765Y139527D01*
X114737Y139496D01*
X114705Y139468D01*
X114671Y139443D01*
X114634Y139421D01*
X114596Y139403D01*
X114556Y139388D01*
X114515Y139377D01*
X114473Y139370D01*
X114431Y139367D01*
X114388Y139368D01*
X114346Y139373D01*
X114304Y139382D01*
X114264Y139395D01*
X114225Y139411D01*
X114187Y139431D01*
X114152Y139455D01*
X114119Y139481D01*
X114089Y139511D01*
X114061Y139544D01*
X114037Y139578D01*
X114016Y139615D01*
X113998Y139654D01*
X113985Y139694D01*
X113975Y139736D01*
X113969Y139778D01*
X113967Y139820D01*
M02*
