G04 EAGLE Gerber RS-274X export*
G75*
%MOMM*%
%FSLAX34Y34*%
%LPD*%
%INTop Copper*%
%IPPOS*%
%AMOC8*
5,1,8,0,0,1.08239X$1,22.5*%
G01*
%ADD10C,0.100000*%
%ADD11C,0.300000*%
%ADD12C,1.000000*%
%ADD13C,0.096000*%
%ADD14C,0.102000*%
%ADD15C,1.879600*%
%ADD16C,0.102500*%
%ADD17C,0.508000*%
%ADD18C,0.254000*%
%ADD19C,0.660400*%
%ADD20C,0.177800*%
%ADD21C,0.705600*%

G36*
X40896Y2812D02*
X40896Y2812D01*
X41034Y2825D01*
X41053Y2832D01*
X41073Y2835D01*
X41202Y2886D01*
X41333Y2933D01*
X41350Y2944D01*
X41368Y2952D01*
X41481Y3033D01*
X41596Y3112D01*
X41610Y3127D01*
X41626Y3138D01*
X41715Y3246D01*
X41807Y3350D01*
X41816Y3368D01*
X41829Y3383D01*
X41888Y3509D01*
X41951Y3634D01*
X41956Y3653D01*
X41964Y3671D01*
X41990Y3808D01*
X42021Y3944D01*
X42020Y3964D01*
X42024Y3983D01*
X42015Y4122D01*
X42011Y4262D01*
X42005Y4281D01*
X42004Y4301D01*
X41961Y4433D01*
X41922Y4567D01*
X41912Y4584D01*
X41906Y4603D01*
X41831Y4721D01*
X41761Y4841D01*
X41742Y4862D01*
X41736Y4872D01*
X41721Y4886D01*
X41716Y4892D01*
X40589Y6443D01*
X39736Y8117D01*
X39155Y9904D01*
X39115Y10161D01*
X49530Y10161D01*
X49648Y10176D01*
X49767Y10183D01*
X49805Y10196D01*
X49845Y10201D01*
X49956Y10244D01*
X50069Y10281D01*
X50103Y10303D01*
X50141Y10318D01*
X50237Y10388D01*
X50338Y10451D01*
X50366Y10481D01*
X50398Y10504D01*
X50474Y10596D01*
X50556Y10683D01*
X50575Y10718D01*
X50601Y10749D01*
X50652Y10857D01*
X50709Y10961D01*
X50720Y11001D01*
X50737Y11037D01*
X50759Y11154D01*
X50789Y11269D01*
X50793Y11330D01*
X50797Y11350D01*
X50795Y11370D01*
X50799Y11430D01*
X50799Y12701D01*
X52070Y12701D01*
X52188Y12716D01*
X52307Y12723D01*
X52345Y12736D01*
X52385Y12741D01*
X52496Y12785D01*
X52609Y12821D01*
X52644Y12843D01*
X52681Y12858D01*
X52777Y12928D01*
X52878Y12991D01*
X52906Y13021D01*
X52939Y13045D01*
X53014Y13136D01*
X53096Y13223D01*
X53116Y13258D01*
X53141Y13290D01*
X53192Y13397D01*
X53250Y13502D01*
X53260Y13541D01*
X53277Y13577D01*
X53299Y13694D01*
X53329Y13809D01*
X53333Y13870D01*
X53337Y13890D01*
X53335Y13910D01*
X53339Y13970D01*
X53339Y24385D01*
X53596Y24345D01*
X55383Y23764D01*
X57057Y22911D01*
X58578Y21806D01*
X59906Y20478D01*
X61011Y18957D01*
X61864Y17283D01*
X62445Y15496D01*
X62520Y15023D01*
X62555Y14900D01*
X62586Y14774D01*
X62600Y14747D01*
X62608Y14718D01*
X62674Y14607D01*
X62734Y14493D01*
X62755Y14470D01*
X62770Y14444D01*
X62862Y14353D01*
X62948Y14257D01*
X62974Y14241D01*
X62995Y14219D01*
X63106Y14153D01*
X63214Y14082D01*
X63243Y14073D01*
X63269Y14057D01*
X63393Y14021D01*
X63515Y13979D01*
X63545Y13977D01*
X63574Y13968D01*
X63703Y13964D01*
X63832Y13954D01*
X63862Y13959D01*
X63892Y13958D01*
X64018Y13986D01*
X64145Y14008D01*
X64173Y14021D01*
X64202Y14027D01*
X64317Y14086D01*
X64435Y14139D01*
X64459Y14158D01*
X64486Y14171D01*
X64582Y14257D01*
X64684Y14338D01*
X64702Y14362D01*
X64724Y14382D01*
X64797Y14488D01*
X64875Y14592D01*
X64894Y14630D01*
X64903Y14644D01*
X64911Y14665D01*
X64946Y14736D01*
X66725Y19031D01*
X69869Y22175D01*
X71098Y22684D01*
X71123Y22699D01*
X71151Y22708D01*
X71261Y22777D01*
X71374Y22842D01*
X71395Y22862D01*
X71420Y22878D01*
X71509Y22973D01*
X71602Y23063D01*
X71618Y23088D01*
X71638Y23110D01*
X71701Y23223D01*
X71769Y23334D01*
X71777Y23362D01*
X71792Y23388D01*
X71824Y23514D01*
X71862Y23638D01*
X71864Y23668D01*
X71871Y23696D01*
X71881Y23857D01*
X71881Y61185D01*
X71869Y61284D01*
X71866Y61383D01*
X71860Y61404D01*
X71859Y61417D01*
X71848Y61452D01*
X71841Y61501D01*
X71805Y61593D01*
X71777Y61688D01*
X71763Y61712D01*
X71761Y61720D01*
X71745Y61745D01*
X71724Y61797D01*
X71666Y61877D01*
X71616Y61962D01*
X71550Y62037D01*
X71538Y62054D01*
X71528Y62062D01*
X71510Y62083D01*
X36683Y96910D01*
X33781Y99811D01*
X33781Y128789D01*
X38410Y133417D01*
X41617Y136625D01*
X41686Y136713D01*
X41761Y136797D01*
X41783Y136839D01*
X41812Y136876D01*
X41857Y136979D01*
X41909Y137078D01*
X41919Y137124D01*
X41938Y137168D01*
X41956Y137279D01*
X41982Y137388D01*
X41981Y137435D01*
X41988Y137482D01*
X41978Y137594D01*
X41975Y137706D01*
X41963Y137751D01*
X41958Y137798D01*
X41920Y137904D01*
X41890Y138012D01*
X41858Y138077D01*
X41851Y138098D01*
X41840Y138113D01*
X41819Y138157D01*
X41717Y138332D01*
X41509Y139108D01*
X41509Y140501D01*
X50570Y140501D01*
X50688Y140516D01*
X50807Y140523D01*
X50814Y140525D01*
X50870Y140511D01*
X50930Y140507D01*
X50950Y140503D01*
X50970Y140505D01*
X51030Y140501D01*
X60091Y140501D01*
X60091Y139108D01*
X59883Y138332D01*
X59819Y138223D01*
X59768Y138100D01*
X59712Y137981D01*
X59707Y137954D01*
X59696Y137929D01*
X59677Y137798D01*
X59652Y137668D01*
X59654Y137642D01*
X59650Y137615D01*
X59663Y137483D01*
X59672Y137351D01*
X59680Y137325D01*
X59683Y137299D01*
X59729Y137174D01*
X59770Y137049D01*
X59784Y137026D01*
X59794Y137000D01*
X59869Y136892D01*
X59940Y136780D01*
X59960Y136761D01*
X59975Y136739D01*
X60075Y136653D01*
X60171Y136562D01*
X60195Y136549D01*
X60216Y136531D01*
X60334Y136472D01*
X60450Y136408D01*
X60476Y136402D01*
X60500Y136390D01*
X60630Y136362D01*
X60758Y136329D01*
X60796Y136327D01*
X60811Y136323D01*
X60833Y136324D01*
X60919Y136319D01*
X98589Y136319D01*
X98687Y136331D01*
X98786Y136334D01*
X98845Y136351D01*
X98905Y136359D01*
X98996Y136395D01*
X99092Y136423D01*
X99144Y136453D01*
X99200Y136476D01*
X99280Y136534D01*
X99366Y136584D01*
X99441Y136650D01*
X99458Y136662D01*
X99465Y136672D01*
X99487Y136690D01*
X100489Y137693D01*
X100495Y137700D01*
X100502Y137706D01*
X100593Y137827D01*
X100659Y137913D01*
X100669Y137924D01*
X100670Y137926D01*
X100684Y137944D01*
X100688Y137953D01*
X100693Y137960D01*
X100764Y138105D01*
X101430Y139711D01*
X102859Y141140D01*
X104465Y141806D01*
X104473Y141810D01*
X104482Y141813D01*
X104611Y141889D01*
X104741Y141963D01*
X104748Y141970D01*
X104756Y141975D01*
X104877Y142081D01*
X111206Y148410D01*
X116975Y154179D01*
X119984Y154179D01*
X120122Y154196D01*
X120261Y154209D01*
X120280Y154216D01*
X120300Y154219D01*
X120429Y154270D01*
X120560Y154317D01*
X120577Y154328D01*
X120596Y154336D01*
X120708Y154417D01*
X120823Y154495D01*
X120837Y154511D01*
X120853Y154522D01*
X120942Y154630D01*
X121034Y154734D01*
X121043Y154752D01*
X121056Y154767D01*
X121115Y154893D01*
X121178Y155017D01*
X121183Y155037D01*
X121191Y155055D01*
X121217Y155191D01*
X121248Y155327D01*
X121247Y155348D01*
X121251Y155367D01*
X121242Y155506D01*
X121238Y155645D01*
X121233Y155665D01*
X121231Y155685D01*
X121189Y155817D01*
X121150Y155951D01*
X121140Y155968D01*
X121133Y155987D01*
X121059Y156105D01*
X120988Y156225D01*
X120970Y156246D01*
X120963Y156256D01*
X120948Y156270D01*
X120882Y156345D01*
X120221Y157006D01*
X120221Y158632D01*
X120206Y158750D01*
X120199Y158869D01*
X120186Y158907D01*
X120181Y158948D01*
X120138Y159058D01*
X120101Y159171D01*
X120079Y159206D01*
X120064Y159243D01*
X119995Y159339D01*
X119931Y159440D01*
X119901Y159468D01*
X119878Y159501D01*
X119786Y159577D01*
X119699Y159658D01*
X119664Y159678D01*
X119633Y159703D01*
X119525Y159754D01*
X119421Y159812D01*
X119381Y159822D01*
X119345Y159839D01*
X119228Y159861D01*
X119113Y159891D01*
X119053Y159895D01*
X119033Y159899D01*
X119012Y159897D01*
X118952Y159901D01*
X115998Y159901D01*
X115880Y159886D01*
X115761Y159879D01*
X115723Y159866D01*
X115682Y159861D01*
X115572Y159818D01*
X115459Y159781D01*
X115424Y159759D01*
X115387Y159744D01*
X115291Y159675D01*
X115190Y159611D01*
X115162Y159581D01*
X115129Y159558D01*
X115053Y159466D01*
X114972Y159379D01*
X114952Y159344D01*
X114927Y159313D01*
X114876Y159205D01*
X114818Y159101D01*
X114808Y159061D01*
X114791Y159025D01*
X114769Y158908D01*
X114739Y158793D01*
X114735Y158733D01*
X114731Y158713D01*
X114733Y158692D01*
X114729Y158632D01*
X114729Y157006D01*
X113394Y155671D01*
X102506Y155671D01*
X101171Y157006D01*
X101171Y165247D01*
X101156Y165365D01*
X101149Y165484D01*
X101137Y165522D01*
X101131Y165563D01*
X101088Y165673D01*
X101051Y165787D01*
X101029Y165821D01*
X101014Y165858D01*
X100945Y165955D01*
X100881Y166055D01*
X100851Y166083D01*
X100828Y166116D01*
X100736Y166192D01*
X100649Y166273D01*
X100614Y166293D01*
X100583Y166318D01*
X100475Y166369D01*
X100371Y166427D01*
X100331Y166437D01*
X100295Y166454D01*
X100178Y166476D01*
X100063Y166506D01*
X100003Y166510D01*
X99983Y166514D01*
X99962Y166513D01*
X99902Y166516D01*
X97902Y166516D01*
X96035Y167290D01*
X94606Y168719D01*
X93832Y170586D01*
X93832Y172608D01*
X94606Y174475D01*
X96035Y175904D01*
X97902Y176678D01*
X99841Y176678D01*
X99939Y176690D01*
X100038Y176693D01*
X100096Y176710D01*
X100156Y176718D01*
X100248Y176754D01*
X100343Y176782D01*
X100395Y176812D01*
X100452Y176835D01*
X100532Y176893D01*
X100617Y176943D01*
X100693Y177010D01*
X100709Y177022D01*
X100711Y177024D01*
X100713Y177026D01*
X100720Y177033D01*
X100738Y177050D01*
X100800Y177111D01*
X100860Y177189D01*
X100928Y177261D01*
X100957Y177314D01*
X100994Y177362D01*
X101034Y177453D01*
X101082Y177540D01*
X101097Y177599D01*
X101121Y177654D01*
X101136Y177752D01*
X101161Y177848D01*
X101167Y177948D01*
X101171Y177968D01*
X101169Y177981D01*
X101171Y178009D01*
X101171Y185894D01*
X102506Y187229D01*
X113394Y187229D01*
X114729Y185894D01*
X114729Y174006D01*
X113070Y172348D01*
X112997Y172253D01*
X112918Y172164D01*
X112900Y172128D01*
X112875Y172096D01*
X112828Y171987D01*
X112774Y171881D01*
X112765Y171842D01*
X112749Y171804D01*
X112730Y171687D01*
X112704Y171571D01*
X112705Y171530D01*
X112699Y171490D01*
X112710Y171372D01*
X112714Y171253D01*
X112725Y171214D01*
X112729Y171174D01*
X112769Y171061D01*
X112802Y170947D01*
X112823Y170913D01*
X112836Y170874D01*
X112903Y170776D01*
X112964Y170673D01*
X113004Y170628D01*
X113015Y170611D01*
X113030Y170598D01*
X113070Y170553D01*
X114729Y168894D01*
X114729Y167268D01*
X114744Y167150D01*
X114751Y167031D01*
X114764Y166993D01*
X114769Y166952D01*
X114812Y166842D01*
X114849Y166729D01*
X114871Y166694D01*
X114886Y166657D01*
X114955Y166561D01*
X115019Y166460D01*
X115049Y166432D01*
X115072Y166399D01*
X115164Y166323D01*
X115251Y166242D01*
X115286Y166222D01*
X115317Y166197D01*
X115425Y166146D01*
X115529Y166088D01*
X115569Y166078D01*
X115605Y166061D01*
X115722Y166039D01*
X115837Y166009D01*
X115897Y166005D01*
X115917Y166001D01*
X115938Y166003D01*
X115998Y165999D01*
X118952Y165999D01*
X119070Y166014D01*
X119189Y166021D01*
X119227Y166034D01*
X119268Y166039D01*
X119378Y166082D01*
X119491Y166119D01*
X119526Y166141D01*
X119563Y166156D01*
X119659Y166225D01*
X119760Y166289D01*
X119788Y166319D01*
X119821Y166342D01*
X119897Y166434D01*
X119978Y166521D01*
X119998Y166556D01*
X120023Y166587D01*
X120074Y166695D01*
X120132Y166799D01*
X120142Y166839D01*
X120159Y166875D01*
X120181Y166992D01*
X120211Y167107D01*
X120215Y167167D01*
X120219Y167187D01*
X120217Y167208D01*
X120221Y167268D01*
X120221Y168894D01*
X121499Y170172D01*
X121576Y170271D01*
X121658Y170366D01*
X121673Y170396D01*
X121694Y170423D01*
X121744Y170539D01*
X121800Y170651D01*
X121807Y170684D01*
X121820Y170715D01*
X121840Y170839D01*
X121866Y170962D01*
X121865Y170996D01*
X121870Y171029D01*
X121859Y171154D01*
X121853Y171280D01*
X121844Y171312D01*
X121840Y171346D01*
X121798Y171464D01*
X121762Y171584D01*
X121744Y171613D01*
X121733Y171645D01*
X121662Y171749D01*
X121597Y171857D01*
X121573Y171880D01*
X121554Y171908D01*
X121460Y171991D01*
X121370Y172079D01*
X121330Y172106D01*
X121316Y172119D01*
X121296Y172128D01*
X121236Y172168D01*
X120633Y172517D01*
X120067Y173083D01*
X119666Y173776D01*
X119459Y174550D01*
X119459Y177451D01*
X125770Y177451D01*
X125888Y177466D01*
X126007Y177473D01*
X126045Y177485D01*
X126085Y177491D01*
X126196Y177534D01*
X126309Y177571D01*
X126343Y177593D01*
X126381Y177608D01*
X126477Y177677D01*
X126578Y177741D01*
X126606Y177771D01*
X126638Y177794D01*
X126714Y177886D01*
X126796Y177973D01*
X126815Y178008D01*
X126841Y178039D01*
X126892Y178147D01*
X126949Y178251D01*
X126959Y178291D01*
X126977Y178327D01*
X126997Y178434D01*
X127001Y178404D01*
X127045Y178294D01*
X127081Y178181D01*
X127103Y178146D01*
X127118Y178109D01*
X127188Y178012D01*
X127251Y177912D01*
X127281Y177884D01*
X127305Y177851D01*
X127396Y177775D01*
X127483Y177694D01*
X127518Y177674D01*
X127550Y177649D01*
X127657Y177598D01*
X127762Y177540D01*
X127801Y177530D01*
X127837Y177513D01*
X127954Y177491D01*
X128070Y177461D01*
X128130Y177457D01*
X128150Y177453D01*
X128170Y177455D01*
X128230Y177451D01*
X134541Y177451D01*
X134541Y174550D01*
X134334Y173776D01*
X133933Y173083D01*
X133367Y172517D01*
X132764Y172168D01*
X132663Y172092D01*
X132560Y172022D01*
X132537Y171997D01*
X132510Y171976D01*
X132432Y171878D01*
X132349Y171783D01*
X132334Y171753D01*
X132313Y171727D01*
X132262Y171612D01*
X132204Y171500D01*
X132197Y171467D01*
X132183Y171437D01*
X132162Y171312D01*
X132135Y171190D01*
X132136Y171156D01*
X132130Y171123D01*
X132141Y170998D01*
X132144Y170872D01*
X132154Y170840D01*
X132157Y170806D01*
X132198Y170687D01*
X132233Y170567D01*
X132250Y170537D01*
X132261Y170506D01*
X132331Y170401D01*
X132394Y170293D01*
X132427Y170256D01*
X132437Y170241D01*
X132453Y170226D01*
X132501Y170172D01*
X133779Y168894D01*
X133779Y157006D01*
X133118Y156345D01*
X133033Y156236D01*
X132944Y156129D01*
X132936Y156110D01*
X132923Y156094D01*
X132868Y155967D01*
X132809Y155841D01*
X132805Y155821D01*
X132797Y155802D01*
X132775Y155664D01*
X132749Y155528D01*
X132750Y155508D01*
X132747Y155488D01*
X132760Y155349D01*
X132769Y155211D01*
X132775Y155192D01*
X132777Y155172D01*
X132824Y155040D01*
X132867Y154909D01*
X132877Y154891D01*
X132884Y154872D01*
X132962Y154757D01*
X133037Y154640D01*
X133052Y154626D01*
X133063Y154609D01*
X133167Y154517D01*
X133268Y154422D01*
X133286Y154412D01*
X133301Y154399D01*
X133425Y154336D01*
X133547Y154268D01*
X133567Y154263D01*
X133585Y154254D01*
X133720Y154224D01*
X133855Y154189D01*
X133883Y154187D01*
X133895Y154184D01*
X133915Y154185D01*
X134016Y154179D01*
X138018Y154179D01*
X138149Y154195D01*
X138281Y154206D01*
X138307Y154215D01*
X138333Y154219D01*
X138456Y154267D01*
X138581Y154311D01*
X138604Y154326D01*
X138629Y154336D01*
X138736Y154413D01*
X138846Y154487D01*
X138865Y154507D01*
X138886Y154522D01*
X138971Y154625D01*
X139059Y154723D01*
X139072Y154747D01*
X139089Y154767D01*
X139146Y154887D01*
X139207Y155004D01*
X139213Y155031D01*
X139225Y155055D01*
X139250Y155185D01*
X139280Y155314D01*
X139279Y155341D01*
X139284Y155367D01*
X139276Y155499D01*
X139274Y155632D01*
X139266Y155658D01*
X139265Y155685D01*
X139224Y155811D01*
X139188Y155938D01*
X139171Y155973D01*
X139167Y155987D01*
X139155Y156006D01*
X139117Y156083D01*
X138716Y156776D01*
X138509Y157550D01*
X138509Y160451D01*
X144820Y160451D01*
X144938Y160466D01*
X145057Y160473D01*
X145095Y160485D01*
X145135Y160491D01*
X145246Y160534D01*
X145359Y160571D01*
X145393Y160593D01*
X145431Y160608D01*
X145527Y160677D01*
X145628Y160741D01*
X145656Y160771D01*
X145688Y160794D01*
X145764Y160886D01*
X145846Y160973D01*
X145865Y161008D01*
X145891Y161039D01*
X145942Y161147D01*
X145999Y161251D01*
X146009Y161291D01*
X146027Y161327D01*
X146047Y161434D01*
X146051Y161404D01*
X146095Y161294D01*
X146131Y161181D01*
X146153Y161146D01*
X146168Y161109D01*
X146238Y161012D01*
X146301Y160912D01*
X146331Y160884D01*
X146355Y160851D01*
X146446Y160775D01*
X146533Y160694D01*
X146568Y160674D01*
X146600Y160649D01*
X146707Y160598D01*
X146812Y160540D01*
X146851Y160530D01*
X146887Y160513D01*
X147004Y160491D01*
X147120Y160461D01*
X147180Y160457D01*
X147200Y160453D01*
X147220Y160455D01*
X147280Y160451D01*
X153591Y160451D01*
X153591Y157550D01*
X153384Y156776D01*
X152983Y156083D01*
X152417Y155517D01*
X151724Y155116D01*
X150950Y154909D01*
X149519Y154909D01*
X149381Y154892D01*
X149243Y154879D01*
X149224Y154872D01*
X149203Y154869D01*
X149074Y154818D01*
X148943Y154771D01*
X148926Y154760D01*
X148908Y154752D01*
X148795Y154671D01*
X148680Y154593D01*
X148667Y154577D01*
X148650Y154566D01*
X148562Y154458D01*
X148470Y154354D01*
X148460Y154336D01*
X148448Y154321D01*
X148388Y154195D01*
X148325Y154071D01*
X148321Y154051D01*
X148312Y154033D01*
X148286Y153896D01*
X148255Y153761D01*
X148256Y153740D01*
X148252Y153721D01*
X148261Y153582D01*
X148265Y153443D01*
X148271Y153423D01*
X148272Y153403D01*
X148315Y153271D01*
X148353Y153137D01*
X148364Y153120D01*
X148370Y153101D01*
X148444Y152983D01*
X148515Y152863D01*
X148534Y152842D01*
X148540Y152832D01*
X148555Y152818D01*
X148621Y152743D01*
X150087Y151277D01*
X170553Y130811D01*
X170663Y130726D01*
X170769Y130638D01*
X170788Y130629D01*
X170804Y130616D01*
X170932Y130561D01*
X171057Y130502D01*
X171077Y130498D01*
X171096Y130490D01*
X171234Y130468D01*
X171370Y130442D01*
X171390Y130443D01*
X171410Y130440D01*
X171549Y130453D01*
X171687Y130462D01*
X171706Y130468D01*
X171726Y130470D01*
X171858Y130517D01*
X171989Y130560D01*
X172007Y130571D01*
X172026Y130578D01*
X172141Y130656D01*
X172258Y130730D01*
X172272Y130745D01*
X172289Y130756D01*
X172381Y130861D01*
X172476Y130962D01*
X172486Y130980D01*
X172499Y130995D01*
X172562Y131118D01*
X172630Y131240D01*
X172635Y131260D01*
X172644Y131278D01*
X172674Y131414D01*
X172709Y131548D01*
X172711Y131576D01*
X172714Y131588D01*
X172713Y131609D01*
X172719Y131709D01*
X172719Y133011D01*
X173493Y134878D01*
X174922Y136307D01*
X176789Y137081D01*
X178811Y137081D01*
X180678Y136307D01*
X181565Y135420D01*
X181643Y135360D01*
X181715Y135292D01*
X181768Y135263D01*
X181816Y135226D01*
X181907Y135186D01*
X181994Y135138D01*
X182052Y135123D01*
X182108Y135099D01*
X182206Y135084D01*
X182302Y135059D01*
X182402Y135053D01*
X182422Y135049D01*
X182434Y135051D01*
X182462Y135049D01*
X187624Y135049D01*
X187694Y135057D01*
X187763Y135056D01*
X187851Y135077D01*
X187940Y135089D01*
X188005Y135114D01*
X188073Y135131D01*
X188152Y135173D01*
X188236Y135206D01*
X188292Y135247D01*
X188354Y135279D01*
X188420Y135340D01*
X188493Y135392D01*
X188537Y135446D01*
X188589Y135493D01*
X188638Y135568D01*
X188696Y135637D01*
X188725Y135700D01*
X188764Y135759D01*
X188793Y135844D01*
X188831Y135925D01*
X188844Y135994D01*
X188867Y136060D01*
X188874Y136149D01*
X188891Y136237D01*
X188887Y136307D01*
X188892Y136377D01*
X188877Y136465D01*
X188871Y136555D01*
X188850Y136621D01*
X188838Y136690D01*
X188801Y136772D01*
X188773Y136857D01*
X188736Y136916D01*
X188707Y136980D01*
X188651Y137050D01*
X188603Y137126D01*
X188552Y137174D01*
X188509Y137228D01*
X188437Y137282D01*
X188371Y137344D01*
X188310Y137378D01*
X188255Y137420D01*
X188110Y137491D01*
X187622Y137693D01*
X186193Y139122D01*
X185419Y140989D01*
X185419Y143011D01*
X186193Y144878D01*
X187622Y146307D01*
X189489Y147081D01*
X191511Y147081D01*
X193378Y146307D01*
X193562Y146124D01*
X193656Y146050D01*
X193745Y145972D01*
X193781Y145953D01*
X193813Y145929D01*
X193922Y145881D01*
X194028Y145827D01*
X194068Y145818D01*
X194105Y145802D01*
X194222Y145784D01*
X194339Y145757D01*
X194379Y145759D01*
X194419Y145752D01*
X194537Y145764D01*
X194656Y145767D01*
X194695Y145778D01*
X194736Y145782D01*
X194848Y145823D01*
X194962Y145856D01*
X194997Y145876D01*
X195035Y145890D01*
X195133Y145957D01*
X195236Y146017D01*
X195281Y146057D01*
X195298Y146068D01*
X195311Y146084D01*
X195357Y146123D01*
X196012Y146779D01*
X210388Y146779D01*
X211729Y145438D01*
X211729Y138562D01*
X211064Y137897D01*
X210991Y137803D01*
X210912Y137714D01*
X210894Y137678D01*
X210869Y137646D01*
X210822Y137537D01*
X210768Y137431D01*
X210759Y137392D01*
X210743Y137354D01*
X210724Y137237D01*
X210698Y137121D01*
X210699Y137080D01*
X210693Y137040D01*
X210704Y136922D01*
X210708Y136803D01*
X210719Y136764D01*
X210723Y136724D01*
X210763Y136612D01*
X210796Y136497D01*
X210817Y136462D01*
X210831Y136424D01*
X210897Y136326D01*
X210958Y136223D01*
X210998Y136178D01*
X211009Y136161D01*
X211024Y136148D01*
X211064Y136102D01*
X211729Y135438D01*
X211729Y128562D01*
X211064Y127897D01*
X210991Y127803D01*
X210912Y127713D01*
X210894Y127678D01*
X210869Y127646D01*
X210822Y127536D01*
X210768Y127430D01*
X210759Y127391D01*
X210743Y127354D01*
X210724Y127236D01*
X210698Y127120D01*
X210699Y127080D01*
X210693Y127040D01*
X210704Y126921D01*
X210708Y126802D01*
X210719Y126764D01*
X210723Y126724D01*
X210763Y126611D01*
X210797Y126496D01*
X210817Y126462D01*
X210831Y126424D01*
X210898Y126325D01*
X210958Y126223D01*
X210998Y126178D01*
X211009Y126161D01*
X211024Y126148D01*
X211028Y126142D01*
X211033Y126138D01*
X211065Y126102D01*
X211084Y126083D01*
X211178Y126010D01*
X211267Y125932D01*
X211303Y125913D01*
X211335Y125888D01*
X211444Y125841D01*
X211550Y125787D01*
X211590Y125778D01*
X211627Y125762D01*
X211745Y125743D01*
X211860Y125717D01*
X211901Y125719D01*
X211942Y125712D01*
X212060Y125724D01*
X212178Y125727D01*
X212217Y125739D01*
X212258Y125742D01*
X212370Y125783D01*
X212484Y125816D01*
X212519Y125836D01*
X212557Y125850D01*
X212655Y125917D01*
X212757Y125977D01*
X212803Y126018D01*
X212820Y126029D01*
X212834Y126044D01*
X212878Y126084D01*
X213022Y126227D01*
X214889Y127001D01*
X216911Y127001D01*
X218778Y126227D01*
X220207Y124798D01*
X220981Y122931D01*
X220981Y120689D01*
X220993Y120591D01*
X220996Y120492D01*
X221013Y120434D01*
X221021Y120374D01*
X221057Y120282D01*
X221085Y120187D01*
X221115Y120134D01*
X221138Y120078D01*
X221196Y119998D01*
X221246Y119913D01*
X221312Y119837D01*
X221324Y119821D01*
X221334Y119813D01*
X221352Y119792D01*
X224537Y116608D01*
X224537Y108182D01*
X218939Y102585D01*
X218879Y102507D01*
X218811Y102435D01*
X218782Y102382D01*
X218745Y102334D01*
X218705Y102243D01*
X218657Y102156D01*
X218642Y102098D01*
X218618Y102042D01*
X218603Y101944D01*
X218578Y101848D01*
X218572Y101748D01*
X218568Y101728D01*
X218570Y101716D01*
X218568Y101688D01*
X218568Y93248D01*
X218583Y93130D01*
X218590Y93011D01*
X218603Y92973D01*
X218608Y92932D01*
X218651Y92822D01*
X218688Y92709D01*
X218710Y92674D01*
X218725Y92637D01*
X218794Y92541D01*
X218858Y92440D01*
X218888Y92412D01*
X218911Y92379D01*
X219003Y92303D01*
X219090Y92222D01*
X219125Y92202D01*
X219156Y92177D01*
X219264Y92126D01*
X219368Y92068D01*
X219408Y92058D01*
X219444Y92041D01*
X219561Y92019D01*
X219676Y91989D01*
X219736Y91985D01*
X219756Y91981D01*
X219777Y91983D01*
X219837Y91979D01*
X221344Y91979D01*
X222679Y90644D01*
X222679Y78756D01*
X221020Y77097D01*
X220947Y77003D01*
X220868Y76914D01*
X220850Y76878D01*
X220825Y76846D01*
X220778Y76737D01*
X220724Y76631D01*
X220715Y76592D01*
X220699Y76554D01*
X220680Y76437D01*
X220654Y76321D01*
X220655Y76280D01*
X220649Y76240D01*
X220660Y76122D01*
X220664Y76003D01*
X220675Y75964D01*
X220679Y75924D01*
X220719Y75812D01*
X220752Y75697D01*
X220773Y75662D01*
X220786Y75624D01*
X220853Y75526D01*
X220914Y75423D01*
X220954Y75378D01*
X220965Y75361D01*
X220980Y75348D01*
X221020Y75302D01*
X222679Y73644D01*
X222679Y61756D01*
X221344Y60421D01*
X210456Y60421D01*
X209121Y61756D01*
X209121Y63763D01*
X209106Y63881D01*
X209099Y64000D01*
X209086Y64038D01*
X209081Y64079D01*
X209038Y64189D01*
X209001Y64302D01*
X208979Y64337D01*
X208964Y64374D01*
X208895Y64470D01*
X208831Y64571D01*
X208801Y64599D01*
X208778Y64632D01*
X208686Y64708D01*
X208599Y64789D01*
X208564Y64809D01*
X208533Y64834D01*
X208425Y64885D01*
X208321Y64943D01*
X208281Y64953D01*
X208245Y64970D01*
X208128Y64992D01*
X208013Y65022D01*
X207953Y65026D01*
X207933Y65030D01*
X207912Y65028D01*
X207852Y65032D01*
X206785Y65032D01*
X206376Y65442D01*
X206297Y65502D01*
X206225Y65570D01*
X206172Y65599D01*
X206124Y65636D01*
X206033Y65676D01*
X205947Y65724D01*
X205888Y65739D01*
X205833Y65763D01*
X205735Y65778D01*
X205639Y65803D01*
X205539Y65809D01*
X205519Y65813D01*
X205506Y65811D01*
X205478Y65813D01*
X203414Y65813D01*
X201464Y66621D01*
X199971Y68114D01*
X199163Y70064D01*
X199163Y72176D01*
X199971Y74126D01*
X201464Y75619D01*
X203414Y76427D01*
X205526Y76427D01*
X207476Y75619D01*
X208389Y74706D01*
X208483Y74633D01*
X208572Y74555D01*
X208608Y74536D01*
X208640Y74511D01*
X208749Y74464D01*
X208855Y74410D01*
X208895Y74401D01*
X208932Y74385D01*
X209049Y74366D01*
X209165Y74340D01*
X209206Y74341D01*
X209246Y74335D01*
X209364Y74346D01*
X209483Y74350D01*
X209522Y74361D01*
X209562Y74365D01*
X209674Y74405D01*
X209789Y74438D01*
X209824Y74459D01*
X209862Y74473D01*
X209960Y74539D01*
X210063Y74600D01*
X210108Y74640D01*
X210125Y74651D01*
X210138Y74666D01*
X210184Y74706D01*
X210780Y75302D01*
X210853Y75397D01*
X210932Y75486D01*
X210950Y75522D01*
X210975Y75554D01*
X211022Y75663D01*
X211076Y75769D01*
X211085Y75808D01*
X211101Y75846D01*
X211120Y75963D01*
X211146Y76079D01*
X211145Y76120D01*
X211151Y76160D01*
X211140Y76278D01*
X211136Y76397D01*
X211125Y76436D01*
X211121Y76476D01*
X211081Y76588D01*
X211048Y76703D01*
X211027Y76738D01*
X211014Y76776D01*
X210947Y76874D01*
X210886Y76977D01*
X210846Y77022D01*
X210835Y77039D01*
X210820Y77052D01*
X210780Y77097D01*
X209121Y78756D01*
X209121Y90644D01*
X210456Y91979D01*
X211963Y91979D01*
X212081Y91994D01*
X212200Y92001D01*
X212238Y92014D01*
X212279Y92019D01*
X212389Y92062D01*
X212502Y92099D01*
X212537Y92121D01*
X212574Y92136D01*
X212670Y92205D01*
X212771Y92269D01*
X212799Y92299D01*
X212832Y92322D01*
X212908Y92414D01*
X212989Y92501D01*
X213009Y92536D01*
X213034Y92567D01*
X213085Y92675D01*
X213143Y92779D01*
X213153Y92819D01*
X213170Y92855D01*
X213192Y92972D01*
X213222Y93087D01*
X213226Y93147D01*
X213230Y93167D01*
X213228Y93188D01*
X213232Y93248D01*
X213232Y104424D01*
X218830Y110021D01*
X218890Y110099D01*
X218958Y110171D01*
X218987Y110224D01*
X219024Y110272D01*
X219064Y110363D01*
X219112Y110450D01*
X219127Y110508D01*
X219151Y110564D01*
X219166Y110662D01*
X219191Y110758D01*
X219197Y110858D01*
X219201Y110878D01*
X219199Y110890D01*
X219201Y110918D01*
X219201Y113872D01*
X219189Y113970D01*
X219186Y114069D01*
X219169Y114127D01*
X219161Y114187D01*
X219125Y114279D01*
X219097Y114374D01*
X219067Y114427D01*
X219044Y114483D01*
X218986Y114563D01*
X218936Y114648D01*
X218870Y114724D01*
X218858Y114740D01*
X218848Y114748D01*
X218830Y114769D01*
X217131Y116468D01*
X217053Y116528D01*
X216981Y116596D01*
X216928Y116625D01*
X216880Y116662D01*
X216789Y116702D01*
X216702Y116750D01*
X216644Y116765D01*
X216588Y116789D01*
X216490Y116804D01*
X216394Y116829D01*
X216294Y116835D01*
X216274Y116839D01*
X216262Y116837D01*
X216234Y116839D01*
X214889Y116839D01*
X213982Y117215D01*
X213928Y117230D01*
X213876Y117253D01*
X213775Y117272D01*
X213675Y117299D01*
X213619Y117300D01*
X213563Y117310D01*
X213461Y117302D01*
X213357Y117304D01*
X213303Y117291D01*
X213246Y117287D01*
X213149Y117254D01*
X213048Y117230D01*
X212998Y117204D01*
X212945Y117186D01*
X212858Y117129D01*
X212767Y117081D01*
X212725Y117043D01*
X212678Y117013D01*
X212608Y116937D01*
X212532Y116867D01*
X212501Y116820D01*
X212462Y116779D01*
X212414Y116688D01*
X212357Y116602D01*
X212339Y116548D01*
X212312Y116499D01*
X212287Y116398D01*
X212254Y116301D01*
X212249Y116244D01*
X212236Y116190D01*
X212237Y116087D01*
X212228Y115984D01*
X212238Y115928D01*
X212239Y115872D01*
X212270Y115714D01*
X212491Y114892D01*
X212491Y113499D01*
X203430Y113499D01*
X203312Y113484D01*
X203193Y113477D01*
X203186Y113475D01*
X203130Y113489D01*
X203070Y113493D01*
X203050Y113497D01*
X203030Y113495D01*
X202970Y113499D01*
X193909Y113499D01*
X193909Y114892D01*
X194117Y115667D01*
X194181Y115777D01*
X194232Y115900D01*
X194288Y116019D01*
X194293Y116046D01*
X194304Y116070D01*
X194323Y116202D01*
X194348Y116332D01*
X194346Y116358D01*
X194350Y116385D01*
X194337Y116517D01*
X194328Y116649D01*
X194320Y116674D01*
X194317Y116701D01*
X194271Y116826D01*
X194230Y116951D01*
X194216Y116974D01*
X194207Y116999D01*
X194131Y117108D01*
X194060Y117220D01*
X194041Y117239D01*
X194025Y117261D01*
X193925Y117347D01*
X193829Y117438D01*
X193805Y117451D01*
X193785Y117469D01*
X193666Y117528D01*
X193550Y117592D01*
X193524Y117598D01*
X193500Y117610D01*
X193370Y117638D01*
X193242Y117671D01*
X193204Y117673D01*
X193189Y117677D01*
X193167Y117676D01*
X193081Y117681D01*
X171467Y117681D01*
X168566Y120583D01*
X143979Y145170D01*
X143901Y145230D01*
X143829Y145298D01*
X143776Y145327D01*
X143728Y145364D01*
X143637Y145404D01*
X143550Y145452D01*
X143492Y145467D01*
X143436Y145491D01*
X143338Y145506D01*
X143242Y145531D01*
X143142Y145537D01*
X143122Y145541D01*
X143110Y145539D01*
X143082Y145541D01*
X124725Y145541D01*
X124587Y145524D01*
X124448Y145511D01*
X124429Y145504D01*
X124409Y145501D01*
X124280Y145450D01*
X124149Y145403D01*
X124132Y145392D01*
X124113Y145384D01*
X124001Y145303D01*
X123886Y145225D01*
X123872Y145209D01*
X123856Y145198D01*
X123767Y145090D01*
X123675Y144986D01*
X123666Y144968D01*
X123653Y144953D01*
X123594Y144827D01*
X123531Y144703D01*
X123526Y144683D01*
X123518Y144665D01*
X123492Y144528D01*
X123461Y144393D01*
X123462Y144372D01*
X123458Y144353D01*
X123466Y144214D01*
X123471Y144075D01*
X123476Y144055D01*
X123478Y144035D01*
X123520Y143903D01*
X123559Y143769D01*
X123569Y143752D01*
X123576Y143733D01*
X123650Y143615D01*
X123721Y143495D01*
X123739Y143474D01*
X123746Y143464D01*
X123761Y143450D01*
X123827Y143375D01*
X125049Y142153D01*
X125049Y139810D01*
X125064Y139692D01*
X125071Y139573D01*
X125084Y139535D01*
X125089Y139494D01*
X125132Y139384D01*
X125169Y139271D01*
X125191Y139236D01*
X125206Y139199D01*
X125275Y139103D01*
X125339Y139002D01*
X125369Y138974D01*
X125392Y138941D01*
X125484Y138865D01*
X125571Y138784D01*
X125606Y138764D01*
X125637Y138739D01*
X125731Y138695D01*
X125731Y136280D01*
X125733Y136264D01*
X125731Y136249D01*
X125753Y136106D01*
X125770Y135964D01*
X125776Y135950D01*
X125778Y135934D01*
X125835Y135802D01*
X125887Y135668D01*
X125897Y135656D01*
X125903Y135641D01*
X125990Y135527D01*
X126074Y135411D01*
X126086Y135401D01*
X126096Y135389D01*
X126209Y135300D01*
X126319Y135208D01*
X126333Y135202D01*
X126346Y135192D01*
X126478Y135134D01*
X126607Y135073D01*
X126622Y135070D01*
X126637Y135064D01*
X126779Y135040D01*
X126919Y135013D01*
X126935Y135014D01*
X126950Y135011D01*
X127094Y135024D01*
X127237Y135033D01*
X127252Y135038D01*
X127267Y135039D01*
X127403Y135087D01*
X127539Y135131D01*
X127552Y135139D01*
X127567Y135144D01*
X127687Y135224D01*
X127808Y135301D01*
X127819Y135312D01*
X127832Y135321D01*
X127927Y135428D01*
X128026Y135533D01*
X128033Y135546D01*
X128044Y135558D01*
X128110Y135685D01*
X128179Y135811D01*
X128183Y135826D01*
X128190Y135840D01*
X128237Y135994D01*
X128237Y135995D01*
X128243Y136058D01*
X128259Y136119D01*
X128259Y136120D01*
X128269Y136281D01*
X128269Y136414D01*
X128269Y136416D01*
X128269Y138506D01*
X128966Y138319D01*
X129057Y138272D01*
X129109Y138260D01*
X129158Y138239D01*
X129263Y138223D01*
X129366Y138199D01*
X129420Y138200D01*
X129473Y138192D01*
X129578Y138203D01*
X129684Y138205D01*
X129736Y138220D01*
X129789Y138225D01*
X129889Y138262D01*
X129991Y138290D01*
X130066Y138328D01*
X130731Y138506D01*
X130731Y136281D01*
X130740Y136210D01*
X130739Y136139D01*
X130767Y135980D01*
X130767Y135979D01*
X130770Y135973D01*
X130770Y135966D01*
X130771Y135965D01*
X130771Y135964D01*
X130827Y135823D01*
X130881Y135682D01*
X130885Y135676D01*
X130888Y135669D01*
X130977Y135546D01*
X131064Y135422D01*
X131070Y135417D01*
X131075Y135411D01*
X131192Y135314D01*
X131307Y135217D01*
X131314Y135213D01*
X131320Y135208D01*
X131456Y135144D01*
X131593Y135078D01*
X131600Y135076D01*
X131607Y135073D01*
X131755Y135045D01*
X131904Y135014D01*
X131912Y135015D01*
X131920Y135013D01*
X132071Y135023D01*
X132222Y135030D01*
X132229Y135032D01*
X132237Y135033D01*
X132382Y135080D01*
X132526Y135125D01*
X132532Y135129D01*
X132540Y135131D01*
X132668Y135212D01*
X132796Y135291D01*
X132802Y135297D01*
X132808Y135301D01*
X132912Y135412D01*
X133017Y135520D01*
X133021Y135527D01*
X133026Y135533D01*
X133099Y135664D01*
X133174Y135797D01*
X133176Y135805D01*
X133180Y135811D01*
X133217Y135957D01*
X133257Y136104D01*
X133257Y136112D01*
X133259Y136119D01*
X133269Y136280D01*
X133269Y138506D01*
X133916Y138333D01*
X134612Y137931D01*
X135181Y137362D01*
X135583Y136666D01*
X135666Y136356D01*
X135701Y136270D01*
X135726Y136181D01*
X135761Y136124D01*
X135786Y136061D01*
X135841Y135987D01*
X135888Y135907D01*
X135891Y135904D01*
X135891Y133818D01*
X135906Y133700D01*
X135913Y133581D01*
X135926Y133543D01*
X135931Y133502D01*
X135974Y133392D01*
X136011Y133279D01*
X136033Y133244D01*
X136048Y133207D01*
X136117Y133111D01*
X136181Y133010D01*
X136211Y132982D01*
X136234Y132949D01*
X136326Y132873D01*
X136413Y132792D01*
X136448Y132772D01*
X136479Y132747D01*
X136587Y132696D01*
X136691Y132638D01*
X136731Y132628D01*
X136767Y132611D01*
X136884Y132589D01*
X136999Y132559D01*
X137059Y132555D01*
X137079Y132551D01*
X137100Y132553D01*
X137160Y132549D01*
X143543Y132549D01*
X185929Y90163D01*
X185929Y34809D01*
X185941Y34710D01*
X185944Y34611D01*
X185961Y34553D01*
X185969Y34493D01*
X186005Y34401D01*
X186033Y34306D01*
X186063Y34254D01*
X186086Y34197D01*
X186144Y34117D01*
X186194Y34032D01*
X186260Y33957D01*
X186272Y33940D01*
X186282Y33932D01*
X186300Y33911D01*
X197095Y23117D01*
X197118Y23099D01*
X197137Y23076D01*
X197243Y23002D01*
X197346Y22922D01*
X197373Y22910D01*
X197397Y22893D01*
X197519Y22847D01*
X197638Y22796D01*
X197667Y22791D01*
X197695Y22780D01*
X197824Y22766D01*
X197952Y22746D01*
X197981Y22748D01*
X198011Y22745D01*
X198139Y22763D01*
X198269Y22775D01*
X198296Y22785D01*
X198326Y22790D01*
X198478Y22842D01*
X200977Y23877D01*
X205423Y23877D01*
X209531Y22175D01*
X212675Y19031D01*
X214377Y14923D01*
X214377Y10477D01*
X212675Y6369D01*
X211268Y4961D01*
X211182Y4852D01*
X211094Y4745D01*
X211085Y4726D01*
X211073Y4710D01*
X211017Y4582D01*
X210958Y4457D01*
X210955Y4437D01*
X210946Y4418D01*
X210925Y4280D01*
X210899Y4144D01*
X210900Y4124D01*
X210897Y4104D01*
X210910Y3965D01*
X210918Y3827D01*
X210925Y3808D01*
X210926Y3788D01*
X210974Y3656D01*
X211016Y3525D01*
X211027Y3507D01*
X211034Y3488D01*
X211112Y3373D01*
X211186Y3256D01*
X211201Y3242D01*
X211213Y3225D01*
X211317Y3133D01*
X211418Y3038D01*
X211436Y3028D01*
X211451Y3015D01*
X211575Y2951D01*
X211697Y2884D01*
X211716Y2879D01*
X211734Y2870D01*
X211870Y2840D01*
X212005Y2805D01*
X212033Y2803D01*
X212045Y2800D01*
X212065Y2801D01*
X212165Y2795D01*
X249936Y2795D01*
X250054Y2810D01*
X250173Y2817D01*
X250211Y2830D01*
X250252Y2835D01*
X250362Y2878D01*
X250475Y2915D01*
X250510Y2937D01*
X250547Y2952D01*
X250643Y3021D01*
X250744Y3085D01*
X250772Y3115D01*
X250805Y3138D01*
X250881Y3230D01*
X250962Y3317D01*
X250982Y3352D01*
X251007Y3383D01*
X251058Y3491D01*
X251116Y3595D01*
X251126Y3635D01*
X251143Y3671D01*
X251165Y3788D01*
X251195Y3903D01*
X251199Y3963D01*
X251203Y3983D01*
X251201Y4004D01*
X251205Y4064D01*
X251205Y89952D01*
X251190Y90070D01*
X251183Y90189D01*
X251170Y90227D01*
X251165Y90268D01*
X251122Y90378D01*
X251085Y90491D01*
X251063Y90526D01*
X251048Y90563D01*
X250979Y90659D01*
X250915Y90760D01*
X250885Y90788D01*
X250862Y90821D01*
X250770Y90897D01*
X250683Y90978D01*
X250648Y90998D01*
X250617Y91023D01*
X250509Y91074D01*
X250405Y91132D01*
X250365Y91142D01*
X250329Y91159D01*
X250212Y91181D01*
X250097Y91211D01*
X250037Y91215D01*
X250017Y91219D01*
X249996Y91217D01*
X249936Y91221D01*
X229494Y91221D01*
X228171Y92544D01*
X228171Y105456D01*
X229494Y106779D01*
X249936Y106779D01*
X250054Y106794D01*
X250173Y106801D01*
X250211Y106814D01*
X250252Y106819D01*
X250362Y106862D01*
X250475Y106899D01*
X250510Y106921D01*
X250547Y106936D01*
X250643Y107005D01*
X250744Y107069D01*
X250772Y107099D01*
X250805Y107122D01*
X250881Y107214D01*
X250962Y107301D01*
X250982Y107336D01*
X251007Y107367D01*
X251058Y107475D01*
X251116Y107579D01*
X251126Y107619D01*
X251143Y107655D01*
X251165Y107772D01*
X251195Y107887D01*
X251199Y107947D01*
X251203Y107967D01*
X251201Y107988D01*
X251205Y108048D01*
X251205Y145952D01*
X251190Y146070D01*
X251183Y146189D01*
X251170Y146227D01*
X251165Y146268D01*
X251122Y146378D01*
X251085Y146491D01*
X251063Y146526D01*
X251048Y146563D01*
X250979Y146659D01*
X250915Y146760D01*
X250885Y146788D01*
X250862Y146821D01*
X250770Y146897D01*
X250683Y146978D01*
X250648Y146998D01*
X250617Y147023D01*
X250509Y147074D01*
X250405Y147132D01*
X250365Y147142D01*
X250329Y147159D01*
X250212Y147181D01*
X250097Y147211D01*
X250037Y147215D01*
X250017Y147219D01*
X249996Y147217D01*
X249936Y147221D01*
X229494Y147221D01*
X228171Y148544D01*
X228171Y161456D01*
X229220Y162505D01*
X229305Y162614D01*
X229394Y162721D01*
X229403Y162740D01*
X229415Y162756D01*
X229470Y162883D01*
X229530Y163009D01*
X229533Y163029D01*
X229541Y163048D01*
X229563Y163186D01*
X229589Y163322D01*
X229588Y163342D01*
X229591Y163362D01*
X229578Y163501D01*
X229570Y163639D01*
X229563Y163658D01*
X229562Y163678D01*
X229514Y163810D01*
X229472Y163941D01*
X229461Y163959D01*
X229454Y163978D01*
X229376Y164093D01*
X229301Y164210D01*
X229287Y164224D01*
X229275Y164241D01*
X229171Y164333D01*
X229070Y164428D01*
X229052Y164438D01*
X229037Y164451D01*
X228913Y164515D01*
X228791Y164582D01*
X228772Y164587D01*
X228754Y164596D01*
X228674Y164614D01*
X227338Y165949D01*
X227239Y166026D01*
X227144Y166108D01*
X227114Y166123D01*
X227087Y166144D01*
X226971Y166194D01*
X226859Y166250D01*
X226826Y166257D01*
X226795Y166270D01*
X226671Y166290D01*
X226548Y166316D01*
X226514Y166315D01*
X226481Y166320D01*
X226356Y166309D01*
X226230Y166303D01*
X226198Y166294D01*
X226164Y166290D01*
X226046Y166248D01*
X225926Y166212D01*
X225897Y166194D01*
X225865Y166183D01*
X225761Y166112D01*
X225653Y166047D01*
X225630Y166023D01*
X225602Y166004D01*
X225519Y165910D01*
X225431Y165820D01*
X225404Y165780D01*
X225391Y165766D01*
X225382Y165746D01*
X225342Y165686D01*
X224993Y165083D01*
X224427Y164517D01*
X223734Y164116D01*
X222960Y163909D01*
X220059Y163909D01*
X220059Y170220D01*
X220044Y170338D01*
X220037Y170457D01*
X220024Y170495D01*
X220019Y170535D01*
X219976Y170646D01*
X219939Y170759D01*
X219917Y170793D01*
X219902Y170831D01*
X219833Y170927D01*
X219769Y171028D01*
X219739Y171056D01*
X219716Y171088D01*
X219624Y171164D01*
X219537Y171246D01*
X219502Y171265D01*
X219471Y171291D01*
X219363Y171342D01*
X219259Y171399D01*
X219219Y171409D01*
X219183Y171427D01*
X219076Y171447D01*
X219106Y171451D01*
X219216Y171495D01*
X219329Y171531D01*
X219364Y171553D01*
X219401Y171568D01*
X219497Y171638D01*
X219598Y171701D01*
X219626Y171731D01*
X219659Y171755D01*
X219735Y171846D01*
X219816Y171933D01*
X219836Y171968D01*
X219861Y172000D01*
X219912Y172107D01*
X219970Y172212D01*
X219980Y172251D01*
X219997Y172287D01*
X220019Y172404D01*
X220049Y172520D01*
X220053Y172580D01*
X220057Y172600D01*
X220055Y172620D01*
X220059Y172680D01*
X220059Y178991D01*
X222960Y178991D01*
X223734Y178784D01*
X224427Y178383D01*
X224993Y177817D01*
X225342Y177214D01*
X225418Y177113D01*
X225488Y177010D01*
X225513Y176987D01*
X225534Y176960D01*
X225632Y176882D01*
X225727Y176799D01*
X225757Y176784D01*
X225783Y176763D01*
X225898Y176712D01*
X226010Y176654D01*
X226043Y176647D01*
X226073Y176633D01*
X226198Y176612D01*
X226320Y176585D01*
X226354Y176586D01*
X226387Y176580D01*
X226512Y176591D01*
X226638Y176594D01*
X226670Y176604D01*
X226704Y176607D01*
X226823Y176648D01*
X226943Y176683D01*
X226973Y176700D01*
X227004Y176711D01*
X227109Y176781D01*
X227217Y176844D01*
X227254Y176877D01*
X227269Y176887D01*
X227284Y176903D01*
X227338Y176951D01*
X228616Y178229D01*
X230242Y178229D01*
X230360Y178244D01*
X230479Y178251D01*
X230517Y178264D01*
X230558Y178269D01*
X230668Y178312D01*
X230781Y178349D01*
X230816Y178371D01*
X230853Y178386D01*
X230949Y178455D01*
X231050Y178519D01*
X231078Y178549D01*
X231111Y178572D01*
X231187Y178664D01*
X231268Y178751D01*
X231288Y178786D01*
X231313Y178817D01*
X231364Y178925D01*
X231422Y179029D01*
X231432Y179069D01*
X231449Y179105D01*
X231471Y179222D01*
X231501Y179337D01*
X231505Y179397D01*
X231509Y179417D01*
X231507Y179438D01*
X231511Y179498D01*
X231511Y182452D01*
X231496Y182570D01*
X231489Y182689D01*
X231476Y182727D01*
X231471Y182768D01*
X231428Y182878D01*
X231391Y182991D01*
X231369Y183026D01*
X231354Y183063D01*
X231285Y183159D01*
X231221Y183260D01*
X231191Y183288D01*
X231168Y183321D01*
X231076Y183397D01*
X230989Y183478D01*
X230954Y183498D01*
X230923Y183523D01*
X230815Y183574D01*
X230711Y183632D01*
X230671Y183642D01*
X230635Y183659D01*
X230518Y183681D01*
X230403Y183711D01*
X230343Y183715D01*
X230323Y183719D01*
X230302Y183717D01*
X230242Y183721D01*
X229972Y183721D01*
X228051Y185642D01*
X228051Y195358D01*
X229972Y197279D01*
X239688Y197279D01*
X241609Y195358D01*
X241609Y185642D01*
X239688Y183721D01*
X238878Y183721D01*
X238760Y183706D01*
X238641Y183699D01*
X238603Y183686D01*
X238562Y183681D01*
X238452Y183638D01*
X238339Y183601D01*
X238304Y183579D01*
X238267Y183564D01*
X238171Y183495D01*
X238070Y183431D01*
X238042Y183401D01*
X238009Y183378D01*
X237933Y183286D01*
X237852Y183199D01*
X237832Y183164D01*
X237807Y183133D01*
X237756Y183025D01*
X237698Y182921D01*
X237688Y182881D01*
X237671Y182845D01*
X237649Y182728D01*
X237619Y182613D01*
X237615Y182553D01*
X237611Y182533D01*
X237613Y182512D01*
X237609Y182452D01*
X237609Y179498D01*
X237624Y179380D01*
X237631Y179261D01*
X237644Y179223D01*
X237649Y179182D01*
X237692Y179072D01*
X237729Y178959D01*
X237751Y178924D01*
X237766Y178887D01*
X237835Y178791D01*
X237899Y178690D01*
X237929Y178662D01*
X237952Y178629D01*
X238044Y178553D01*
X238131Y178472D01*
X238166Y178452D01*
X238197Y178427D01*
X238305Y178376D01*
X238409Y178318D01*
X238449Y178308D01*
X238485Y178291D01*
X238602Y178269D01*
X238717Y178239D01*
X238777Y178235D01*
X238797Y178231D01*
X238818Y178233D01*
X238878Y178229D01*
X240504Y178229D01*
X241839Y176894D01*
X241839Y166006D01*
X240778Y164945D01*
X240693Y164836D01*
X240604Y164729D01*
X240596Y164710D01*
X240583Y164694D01*
X240528Y164567D01*
X240469Y164441D01*
X240465Y164421D01*
X240457Y164402D01*
X240435Y164264D01*
X240409Y164128D01*
X240410Y164108D01*
X240407Y164088D01*
X240420Y163949D01*
X240429Y163811D01*
X240435Y163792D01*
X240437Y163772D01*
X240484Y163640D01*
X240527Y163509D01*
X240537Y163491D01*
X240544Y163472D01*
X240622Y163357D01*
X240697Y163240D01*
X240712Y163226D01*
X240723Y163209D01*
X240827Y163117D01*
X240928Y163022D01*
X240946Y163012D01*
X240961Y162999D01*
X241085Y162935D01*
X241207Y162868D01*
X241227Y162863D01*
X241245Y162854D01*
X241380Y162824D01*
X241515Y162789D01*
X241543Y162787D01*
X241555Y162784D01*
X241575Y162785D01*
X241676Y162779D01*
X249936Y162779D01*
X250054Y162794D01*
X250173Y162801D01*
X250211Y162814D01*
X250252Y162819D01*
X250362Y162862D01*
X250475Y162899D01*
X250510Y162921D01*
X250547Y162936D01*
X250643Y163005D01*
X250744Y163069D01*
X250772Y163099D01*
X250805Y163122D01*
X250881Y163214D01*
X250962Y163301D01*
X250982Y163336D01*
X251007Y163367D01*
X251058Y163475D01*
X251116Y163579D01*
X251126Y163619D01*
X251143Y163655D01*
X251165Y163772D01*
X251195Y163887D01*
X251199Y163947D01*
X251203Y163967D01*
X251201Y163988D01*
X251205Y164048D01*
X251205Y249936D01*
X251190Y250054D01*
X251183Y250173D01*
X251170Y250211D01*
X251165Y250252D01*
X251122Y250362D01*
X251085Y250475D01*
X251063Y250510D01*
X251048Y250547D01*
X250979Y250643D01*
X250915Y250744D01*
X250885Y250772D01*
X250862Y250805D01*
X250770Y250881D01*
X250683Y250962D01*
X250648Y250982D01*
X250617Y251007D01*
X250509Y251058D01*
X250405Y251116D01*
X250365Y251126D01*
X250329Y251143D01*
X250212Y251165D01*
X250097Y251195D01*
X250037Y251199D01*
X250017Y251203D01*
X249996Y251201D01*
X249936Y251205D01*
X4064Y251205D01*
X3946Y251190D01*
X3827Y251183D01*
X3789Y251170D01*
X3748Y251165D01*
X3638Y251122D01*
X3525Y251085D01*
X3490Y251063D01*
X3453Y251048D01*
X3357Y250979D01*
X3256Y250915D01*
X3228Y250885D01*
X3195Y250862D01*
X3119Y250770D01*
X3038Y250683D01*
X3018Y250648D01*
X2993Y250617D01*
X2942Y250509D01*
X2884Y250405D01*
X2874Y250365D01*
X2857Y250329D01*
X2835Y250212D01*
X2805Y250097D01*
X2801Y250037D01*
X2797Y250017D01*
X2799Y249996D01*
X2795Y249936D01*
X2795Y164048D01*
X2810Y163930D01*
X2817Y163811D01*
X2830Y163773D01*
X2835Y163732D01*
X2878Y163622D01*
X2915Y163509D01*
X2937Y163474D01*
X2952Y163437D01*
X3021Y163341D01*
X3085Y163240D01*
X3115Y163212D01*
X3138Y163179D01*
X3230Y163103D01*
X3317Y163022D01*
X3352Y163002D01*
X3383Y162977D01*
X3491Y162926D01*
X3595Y162868D01*
X3635Y162858D01*
X3671Y162841D01*
X3788Y162819D01*
X3903Y162789D01*
X3963Y162785D01*
X3983Y162781D01*
X4004Y162783D01*
X4064Y162779D01*
X24506Y162779D01*
X25829Y161456D01*
X25829Y148544D01*
X24506Y147221D01*
X4064Y147221D01*
X3946Y147206D01*
X3827Y147199D01*
X3789Y147186D01*
X3748Y147181D01*
X3638Y147138D01*
X3525Y147101D01*
X3490Y147079D01*
X3453Y147064D01*
X3357Y146995D01*
X3256Y146931D01*
X3228Y146901D01*
X3195Y146878D01*
X3119Y146786D01*
X3038Y146699D01*
X3018Y146664D01*
X2993Y146633D01*
X2942Y146525D01*
X2884Y146421D01*
X2874Y146381D01*
X2857Y146345D01*
X2835Y146228D01*
X2805Y146113D01*
X2801Y146053D01*
X2797Y146033D01*
X2799Y146012D01*
X2795Y145952D01*
X2795Y108048D01*
X2810Y107930D01*
X2817Y107811D01*
X2830Y107773D01*
X2835Y107732D01*
X2878Y107622D01*
X2915Y107509D01*
X2937Y107474D01*
X2952Y107437D01*
X3021Y107341D01*
X3085Y107240D01*
X3115Y107212D01*
X3138Y107179D01*
X3230Y107103D01*
X3317Y107022D01*
X3352Y107002D01*
X3383Y106977D01*
X3491Y106926D01*
X3595Y106868D01*
X3635Y106858D01*
X3671Y106841D01*
X3788Y106819D01*
X3903Y106789D01*
X3963Y106785D01*
X3983Y106781D01*
X4004Y106783D01*
X4064Y106779D01*
X24506Y106779D01*
X25829Y105456D01*
X25829Y92544D01*
X24506Y91221D01*
X4064Y91221D01*
X3946Y91206D01*
X3827Y91199D01*
X3789Y91186D01*
X3748Y91181D01*
X3638Y91138D01*
X3525Y91101D01*
X3490Y91079D01*
X3453Y91064D01*
X3357Y90995D01*
X3256Y90931D01*
X3228Y90901D01*
X3195Y90878D01*
X3119Y90786D01*
X3038Y90699D01*
X3018Y90664D01*
X2993Y90633D01*
X2942Y90525D01*
X2884Y90421D01*
X2874Y90381D01*
X2857Y90345D01*
X2835Y90228D01*
X2805Y90113D01*
X2801Y90053D01*
X2797Y90033D01*
X2799Y90012D01*
X2795Y89952D01*
X2795Y4064D01*
X2810Y3946D01*
X2817Y3827D01*
X2830Y3789D01*
X2835Y3748D01*
X2878Y3638D01*
X2915Y3525D01*
X2937Y3490D01*
X2952Y3453D01*
X3021Y3357D01*
X3085Y3256D01*
X3115Y3228D01*
X3138Y3195D01*
X3230Y3119D01*
X3317Y3038D01*
X3352Y3018D01*
X3383Y2993D01*
X3491Y2942D01*
X3595Y2884D01*
X3635Y2874D01*
X3671Y2857D01*
X3788Y2835D01*
X3903Y2805D01*
X3963Y2801D01*
X3983Y2797D01*
X4004Y2799D01*
X4064Y2795D01*
X40757Y2795D01*
X40896Y2812D01*
G37*
G36*
X92773Y2812D02*
X92773Y2812D01*
X92911Y2825D01*
X92930Y2832D01*
X92950Y2835D01*
X93080Y2886D01*
X93210Y2933D01*
X93227Y2944D01*
X93246Y2952D01*
X93358Y3033D01*
X93474Y3111D01*
X93487Y3127D01*
X93503Y3138D01*
X93592Y3246D01*
X93684Y3350D01*
X93693Y3368D01*
X93706Y3383D01*
X93765Y3509D01*
X93829Y3633D01*
X93833Y3653D01*
X93842Y3671D01*
X93868Y3808D01*
X93898Y3943D01*
X93898Y3964D01*
X93901Y3983D01*
X93893Y4122D01*
X93889Y4261D01*
X93883Y4281D01*
X93882Y4301D01*
X93839Y4433D01*
X93800Y4567D01*
X93790Y4584D01*
X93784Y4603D01*
X93709Y4721D01*
X93639Y4841D01*
X93620Y4862D01*
X93614Y4872D01*
X93599Y4886D01*
X93532Y4961D01*
X92125Y6369D01*
X90423Y10477D01*
X90423Y14923D01*
X92125Y19031D01*
X95269Y22175D01*
X97768Y23210D01*
X97793Y23225D01*
X97821Y23234D01*
X97854Y23254D01*
X97867Y23260D01*
X97901Y23284D01*
X97931Y23303D01*
X98044Y23368D01*
X98065Y23388D01*
X98090Y23404D01*
X98179Y23499D01*
X98272Y23589D01*
X98288Y23614D01*
X98308Y23636D01*
X98371Y23750D01*
X98439Y23860D01*
X98447Y23888D01*
X98462Y23914D01*
X98494Y24040D01*
X98532Y24164D01*
X98534Y24194D01*
X98541Y24222D01*
X98551Y24383D01*
X98551Y26663D01*
X110880Y38991D01*
X110940Y39069D01*
X111008Y39141D01*
X111037Y39194D01*
X111074Y39242D01*
X111114Y39333D01*
X111162Y39420D01*
X111177Y39479D01*
X111201Y39534D01*
X111216Y39632D01*
X111241Y39728D01*
X111247Y39828D01*
X111251Y39848D01*
X111249Y39861D01*
X111251Y39889D01*
X111251Y57882D01*
X111236Y58000D01*
X111229Y58119D01*
X111216Y58157D01*
X111211Y58198D01*
X111168Y58308D01*
X111131Y58421D01*
X111109Y58456D01*
X111094Y58493D01*
X111025Y58589D01*
X110961Y58690D01*
X110931Y58718D01*
X110908Y58751D01*
X110816Y58827D01*
X110729Y58908D01*
X110694Y58928D01*
X110663Y58953D01*
X110555Y59004D01*
X110451Y59062D01*
X110411Y59072D01*
X110375Y59089D01*
X110258Y59111D01*
X110143Y59141D01*
X110083Y59145D01*
X110063Y59149D01*
X110042Y59147D01*
X109982Y59151D01*
X108856Y59151D01*
X107521Y60486D01*
X107521Y72374D01*
X109180Y74032D01*
X109253Y74127D01*
X109332Y74216D01*
X109350Y74252D01*
X109375Y74284D01*
X109422Y74393D01*
X109476Y74499D01*
X109485Y74538D01*
X109501Y74576D01*
X109520Y74693D01*
X109546Y74809D01*
X109545Y74850D01*
X109551Y74890D01*
X109540Y75008D01*
X109536Y75127D01*
X109525Y75166D01*
X109521Y75206D01*
X109481Y75319D01*
X109448Y75433D01*
X109427Y75467D01*
X109414Y75506D01*
X109347Y75604D01*
X109286Y75707D01*
X109246Y75752D01*
X109235Y75769D01*
X109220Y75782D01*
X109180Y75827D01*
X107521Y77486D01*
X107521Y89374D01*
X108861Y90714D01*
X108881Y90713D01*
X108988Y90735D01*
X109098Y90749D01*
X109144Y90767D01*
X109193Y90777D01*
X109291Y90825D01*
X109393Y90866D01*
X109433Y90895D01*
X109478Y90917D01*
X109562Y90988D01*
X109651Y91052D01*
X109682Y91091D01*
X109720Y91123D01*
X109783Y91213D01*
X109854Y91297D01*
X109875Y91342D01*
X109903Y91383D01*
X109942Y91486D01*
X109989Y91585D01*
X109998Y91634D01*
X110016Y91680D01*
X110028Y91790D01*
X110049Y91897D01*
X110046Y91947D01*
X110051Y91996D01*
X110036Y92105D01*
X110029Y92215D01*
X110014Y92262D01*
X110007Y92311D01*
X109955Y92464D01*
X109219Y94239D01*
X109219Y96261D01*
X109993Y98128D01*
X111422Y99557D01*
X113289Y100331D01*
X115311Y100331D01*
X117178Y99557D01*
X118607Y98128D01*
X118969Y97254D01*
X119004Y97193D01*
X119030Y97128D01*
X119082Y97055D01*
X119127Y96977D01*
X119175Y96927D01*
X119216Y96871D01*
X119286Y96813D01*
X119348Y96749D01*
X119408Y96713D01*
X119461Y96668D01*
X119543Y96630D01*
X119619Y96583D01*
X119686Y96562D01*
X119749Y96532D01*
X119837Y96516D01*
X119923Y96489D01*
X119993Y96486D01*
X120062Y96473D01*
X120151Y96478D01*
X120241Y96474D01*
X120309Y96488D01*
X120379Y96492D01*
X120464Y96520D01*
X120552Y96538D01*
X120615Y96569D01*
X120681Y96590D01*
X120757Y96639D01*
X120838Y96678D01*
X120891Y96723D01*
X120950Y96761D01*
X121012Y96826D01*
X121080Y96884D01*
X121120Y96941D01*
X121168Y96992D01*
X121212Y97071D01*
X121263Y97144D01*
X121288Y97210D01*
X121322Y97271D01*
X121344Y97358D01*
X121376Y97442D01*
X121384Y97511D01*
X121401Y97579D01*
X121411Y97739D01*
X121411Y111753D01*
X122951Y113293D01*
X123036Y113402D01*
X123125Y113509D01*
X123133Y113528D01*
X123146Y113544D01*
X123201Y113672D01*
X123260Y113797D01*
X123264Y113817D01*
X123272Y113836D01*
X123294Y113974D01*
X123320Y114110D01*
X123319Y114130D01*
X123322Y114150D01*
X123309Y114289D01*
X123300Y114427D01*
X123294Y114446D01*
X123292Y114466D01*
X123269Y114530D01*
X123269Y119375D01*
X123254Y119493D01*
X123247Y119612D01*
X123235Y119650D01*
X123230Y119690D01*
X123186Y119801D01*
X123149Y119914D01*
X123127Y119948D01*
X123113Y119986D01*
X123043Y120082D01*
X122979Y120183D01*
X122949Y120211D01*
X122926Y120243D01*
X122834Y120319D01*
X122747Y120401D01*
X122712Y120420D01*
X122681Y120446D01*
X122573Y120497D01*
X122469Y120554D01*
X122430Y120564D01*
X122393Y120582D01*
X122276Y120604D01*
X122161Y120634D01*
X122101Y120638D01*
X122081Y120641D01*
X122080Y120641D01*
X122060Y120640D01*
X122000Y120644D01*
X121882Y120629D01*
X121763Y120622D01*
X121724Y120609D01*
X121684Y120604D01*
X121574Y120560D01*
X121460Y120524D01*
X121426Y120502D01*
X121389Y120487D01*
X121292Y120417D01*
X121192Y120353D01*
X121164Y120324D01*
X121131Y120300D01*
X121055Y120208D01*
X120974Y120122D01*
X120954Y120086D01*
X120928Y120055D01*
X120878Y119948D01*
X120820Y119843D01*
X120810Y119804D01*
X120793Y119768D01*
X120771Y119651D01*
X120741Y119535D01*
X120737Y119475D01*
X120733Y119455D01*
X120734Y119435D01*
X120731Y119375D01*
X120731Y115494D01*
X120084Y115667D01*
X119388Y116069D01*
X118819Y116638D01*
X118417Y117334D01*
X118334Y117644D01*
X118299Y117730D01*
X118274Y117819D01*
X118239Y117876D01*
X118214Y117939D01*
X118159Y118013D01*
X118112Y118093D01*
X118109Y118096D01*
X118109Y120182D01*
X118094Y120300D01*
X118087Y120419D01*
X118074Y120457D01*
X118069Y120498D01*
X118026Y120608D01*
X117989Y120721D01*
X117967Y120756D01*
X117952Y120793D01*
X117883Y120889D01*
X117819Y120990D01*
X117789Y121018D01*
X117766Y121051D01*
X117674Y121127D01*
X117587Y121208D01*
X117552Y121228D01*
X117521Y121253D01*
X117413Y121304D01*
X117309Y121362D01*
X117269Y121372D01*
X117233Y121389D01*
X117116Y121411D01*
X117001Y121441D01*
X116941Y121445D01*
X116921Y121449D01*
X116900Y121447D01*
X116840Y121451D01*
X114729Y121451D01*
X114630Y121439D01*
X114531Y121436D01*
X114473Y121419D01*
X114413Y121411D01*
X114321Y121375D01*
X114226Y121347D01*
X114174Y121317D01*
X114117Y121294D01*
X114037Y121236D01*
X113952Y121186D01*
X113877Y121120D01*
X113860Y121108D01*
X113852Y121098D01*
X113831Y121080D01*
X101703Y108951D01*
X68162Y108951D01*
X68064Y108939D01*
X67965Y108936D01*
X67907Y108919D01*
X67847Y108911D01*
X67755Y108875D01*
X67660Y108847D01*
X67607Y108817D01*
X67551Y108794D01*
X67471Y108736D01*
X67386Y108686D01*
X67310Y108620D01*
X67294Y108608D01*
X67286Y108598D01*
X67265Y108580D01*
X66378Y107693D01*
X64511Y106919D01*
X62489Y106919D01*
X60622Y107693D01*
X60438Y107876D01*
X60344Y107950D01*
X60255Y108028D01*
X60219Y108047D01*
X60187Y108071D01*
X60078Y108119D01*
X59972Y108173D01*
X59932Y108182D01*
X59895Y108198D01*
X59778Y108216D01*
X59661Y108243D01*
X59621Y108241D01*
X59581Y108248D01*
X59463Y108236D01*
X59344Y108233D01*
X59305Y108222D01*
X59264Y108218D01*
X59152Y108177D01*
X59038Y108144D01*
X59003Y108124D01*
X58965Y108110D01*
X58867Y108043D01*
X58764Y107983D01*
X58719Y107943D01*
X58702Y107932D01*
X58689Y107916D01*
X58643Y107877D01*
X57988Y107221D01*
X43688Y107221D01*
X43570Y107206D01*
X43451Y107199D01*
X43413Y107186D01*
X43372Y107181D01*
X43262Y107138D01*
X43149Y107101D01*
X43114Y107079D01*
X43077Y107064D01*
X42981Y106995D01*
X42880Y106931D01*
X42852Y106901D01*
X42819Y106878D01*
X42743Y106786D01*
X42662Y106699D01*
X42642Y106664D01*
X42617Y106633D01*
X42566Y106525D01*
X42508Y106421D01*
X42498Y106381D01*
X42481Y106345D01*
X42459Y106228D01*
X42429Y106113D01*
X42425Y106053D01*
X42421Y106033D01*
X42423Y106012D01*
X42419Y105952D01*
X42419Y103915D01*
X42431Y103816D01*
X42434Y103717D01*
X42451Y103659D01*
X42459Y103599D01*
X42495Y103507D01*
X42523Y103412D01*
X42553Y103360D01*
X42576Y103303D01*
X42634Y103223D01*
X42684Y103138D01*
X42750Y103063D01*
X42762Y103046D01*
X42772Y103038D01*
X42790Y103017D01*
X77617Y68190D01*
X80519Y65289D01*
X80519Y23857D01*
X80522Y23827D01*
X80520Y23798D01*
X80542Y23670D01*
X80559Y23541D01*
X80569Y23514D01*
X80574Y23485D01*
X80628Y23366D01*
X80676Y23246D01*
X80693Y23222D01*
X80705Y23195D01*
X80786Y23093D01*
X80862Y22988D01*
X80885Y22969D01*
X80904Y22946D01*
X81007Y22868D01*
X81107Y22785D01*
X81134Y22773D01*
X81158Y22755D01*
X81302Y22684D01*
X82531Y22175D01*
X85675Y19031D01*
X87377Y14923D01*
X87377Y10477D01*
X85675Y6369D01*
X84268Y4961D01*
X84182Y4852D01*
X84094Y4745D01*
X84085Y4726D01*
X84073Y4710D01*
X84017Y4582D01*
X83958Y4457D01*
X83955Y4437D01*
X83946Y4418D01*
X83925Y4280D01*
X83899Y4144D01*
X83900Y4124D01*
X83897Y4104D01*
X83910Y3965D01*
X83918Y3827D01*
X83925Y3808D01*
X83926Y3788D01*
X83974Y3656D01*
X84016Y3525D01*
X84027Y3507D01*
X84034Y3488D01*
X84112Y3373D01*
X84186Y3256D01*
X84201Y3242D01*
X84213Y3225D01*
X84317Y3133D01*
X84418Y3038D01*
X84436Y3028D01*
X84451Y3015D01*
X84575Y2951D01*
X84697Y2884D01*
X84716Y2879D01*
X84734Y2870D01*
X84870Y2840D01*
X85005Y2805D01*
X85033Y2803D01*
X85045Y2800D01*
X85065Y2801D01*
X85165Y2795D01*
X92635Y2795D01*
X92773Y2812D01*
G37*
G36*
X118173Y2812D02*
X118173Y2812D01*
X118311Y2825D01*
X118330Y2832D01*
X118350Y2835D01*
X118480Y2886D01*
X118610Y2933D01*
X118627Y2944D01*
X118646Y2952D01*
X118758Y3033D01*
X118874Y3111D01*
X118887Y3127D01*
X118903Y3138D01*
X118992Y3246D01*
X119084Y3350D01*
X119093Y3368D01*
X119106Y3383D01*
X119165Y3509D01*
X119229Y3633D01*
X119233Y3653D01*
X119242Y3671D01*
X119268Y3808D01*
X119298Y3943D01*
X119298Y3964D01*
X119301Y3983D01*
X119293Y4122D01*
X119289Y4261D01*
X119283Y4281D01*
X119282Y4301D01*
X119239Y4433D01*
X119200Y4567D01*
X119190Y4584D01*
X119184Y4603D01*
X119109Y4721D01*
X119039Y4841D01*
X119020Y4862D01*
X119014Y4872D01*
X118999Y4886D01*
X118932Y4961D01*
X117525Y6369D01*
X115823Y10477D01*
X115823Y14923D01*
X117525Y19031D01*
X120669Y22175D01*
X123168Y23210D01*
X123193Y23225D01*
X123221Y23234D01*
X123254Y23254D01*
X123267Y23260D01*
X123301Y23284D01*
X123331Y23303D01*
X123444Y23368D01*
X123465Y23388D01*
X123490Y23404D01*
X123579Y23499D01*
X123672Y23589D01*
X123688Y23614D01*
X123708Y23636D01*
X123771Y23750D01*
X123839Y23860D01*
X123847Y23888D01*
X123862Y23914D01*
X123894Y24040D01*
X123932Y24164D01*
X123934Y24194D01*
X123941Y24222D01*
X123951Y24383D01*
X123951Y26663D01*
X136280Y38991D01*
X136340Y39069D01*
X136408Y39141D01*
X136437Y39194D01*
X136474Y39242D01*
X136514Y39333D01*
X136562Y39420D01*
X136577Y39479D01*
X136601Y39534D01*
X136616Y39632D01*
X136641Y39728D01*
X136647Y39828D01*
X136651Y39848D01*
X136649Y39861D01*
X136651Y39889D01*
X136651Y49948D01*
X136639Y50046D01*
X136636Y50145D01*
X136619Y50203D01*
X136611Y50263D01*
X136575Y50355D01*
X136547Y50451D01*
X136517Y50503D01*
X136494Y50559D01*
X136436Y50639D01*
X136386Y50724D01*
X136320Y50800D01*
X136308Y50816D01*
X136298Y50824D01*
X136279Y50845D01*
X135393Y51732D01*
X134619Y53599D01*
X134619Y55621D01*
X135355Y57396D01*
X135368Y57444D01*
X135389Y57489D01*
X135410Y57597D01*
X135439Y57703D01*
X135439Y57753D01*
X135449Y57802D01*
X135442Y57911D01*
X135444Y58021D01*
X135432Y58069D01*
X135429Y58119D01*
X135395Y58223D01*
X135370Y58330D01*
X135346Y58374D01*
X135331Y58421D01*
X135272Y58514D01*
X135221Y58611D01*
X135188Y58648D01*
X135161Y58690D01*
X135081Y58765D01*
X135007Y58847D01*
X134965Y58874D01*
X134929Y58908D01*
X134833Y58961D01*
X134741Y59021D01*
X134694Y59038D01*
X134651Y59062D01*
X134544Y59089D01*
X134440Y59125D01*
X134391Y59129D01*
X134343Y59141D01*
X134261Y59146D01*
X132921Y60486D01*
X132921Y72374D01*
X134580Y74033D01*
X134653Y74127D01*
X134732Y74216D01*
X134750Y74252D01*
X134775Y74284D01*
X134822Y74393D01*
X134876Y74499D01*
X134885Y74538D01*
X134901Y74576D01*
X134920Y74693D01*
X134946Y74809D01*
X134945Y74850D01*
X134951Y74890D01*
X134940Y75008D01*
X134936Y75127D01*
X134925Y75166D01*
X134921Y75206D01*
X134881Y75318D01*
X134848Y75433D01*
X134827Y75468D01*
X134814Y75506D01*
X134747Y75604D01*
X134686Y75707D01*
X134646Y75752D01*
X134635Y75769D01*
X134620Y75782D01*
X134580Y75828D01*
X132921Y77486D01*
X132921Y89374D01*
X134261Y90714D01*
X134281Y90713D01*
X134388Y90735D01*
X134498Y90749D01*
X134544Y90767D01*
X134593Y90777D01*
X134691Y90825D01*
X134793Y90866D01*
X134833Y90895D01*
X134878Y90917D01*
X134962Y90988D01*
X135051Y91052D01*
X135082Y91091D01*
X135120Y91123D01*
X135183Y91213D01*
X135254Y91297D01*
X135275Y91342D01*
X135303Y91383D01*
X135342Y91486D01*
X135389Y91585D01*
X135398Y91634D01*
X135416Y91680D01*
X135428Y91790D01*
X135449Y91897D01*
X135446Y91947D01*
X135451Y91996D01*
X135436Y92105D01*
X135429Y92215D01*
X135414Y92262D01*
X135407Y92311D01*
X135355Y92464D01*
X134619Y94239D01*
X134619Y96261D01*
X135393Y98128D01*
X136822Y99557D01*
X138689Y100331D01*
X140711Y100331D01*
X142578Y99557D01*
X144007Y98128D01*
X144781Y96261D01*
X144781Y94239D01*
X144045Y92464D01*
X144032Y92416D01*
X144011Y92371D01*
X143990Y92263D01*
X143961Y92157D01*
X143961Y92107D01*
X143951Y92058D01*
X143958Y91949D01*
X143956Y91839D01*
X143968Y91791D01*
X143971Y91741D01*
X144005Y91637D01*
X144030Y91530D01*
X144054Y91486D01*
X144069Y91439D01*
X144128Y91346D01*
X144179Y91249D01*
X144212Y91212D01*
X144239Y91170D01*
X144319Y91095D01*
X144393Y91013D01*
X144435Y90986D01*
X144471Y90952D01*
X144567Y90899D01*
X144659Y90839D01*
X144706Y90822D01*
X144749Y90798D01*
X144856Y90771D01*
X144960Y90735D01*
X145009Y90731D01*
X145057Y90719D01*
X145139Y90714D01*
X146479Y89374D01*
X146479Y77486D01*
X144820Y75828D01*
X144747Y75733D01*
X144668Y75644D01*
X144650Y75608D01*
X144625Y75576D01*
X144578Y75467D01*
X144524Y75361D01*
X144515Y75322D01*
X144499Y75284D01*
X144480Y75167D01*
X144454Y75051D01*
X144455Y75010D01*
X144449Y74970D01*
X144460Y74852D01*
X144464Y74733D01*
X144475Y74694D01*
X144479Y74654D01*
X144519Y74541D01*
X144552Y74427D01*
X144573Y74393D01*
X144586Y74354D01*
X144653Y74256D01*
X144714Y74153D01*
X144754Y74108D01*
X144765Y74091D01*
X144780Y74078D01*
X144820Y74033D01*
X146479Y72374D01*
X146479Y60486D01*
X145139Y59146D01*
X145119Y59147D01*
X145012Y59125D01*
X144902Y59111D01*
X144856Y59093D01*
X144807Y59083D01*
X144709Y59035D01*
X144607Y58994D01*
X144567Y58965D01*
X144522Y58943D01*
X144438Y58872D01*
X144349Y58808D01*
X144318Y58769D01*
X144280Y58737D01*
X144217Y58647D01*
X144146Y58563D01*
X144125Y58518D01*
X144097Y58477D01*
X144058Y58374D01*
X144011Y58275D01*
X144002Y58226D01*
X143984Y58180D01*
X143972Y58070D01*
X143951Y57963D01*
X143954Y57913D01*
X143949Y57864D01*
X143964Y57755D01*
X143971Y57645D01*
X143986Y57598D01*
X143993Y57549D01*
X144045Y57396D01*
X144781Y55621D01*
X144781Y53599D01*
X144007Y51732D01*
X143121Y50845D01*
X143060Y50767D01*
X142992Y50695D01*
X142963Y50642D01*
X142926Y50594D01*
X142886Y50503D01*
X142838Y50416D01*
X142823Y50358D01*
X142799Y50302D01*
X142784Y50204D01*
X142759Y50108D01*
X142753Y50008D01*
X142749Y49988D01*
X142751Y49976D01*
X142749Y49948D01*
X142749Y36837D01*
X140591Y34680D01*
X130966Y25054D01*
X130935Y25015D01*
X130899Y24982D01*
X130838Y24890D01*
X130771Y24803D01*
X130751Y24758D01*
X130724Y24716D01*
X130688Y24612D01*
X130645Y24511D01*
X130637Y24462D01*
X130621Y24415D01*
X130612Y24306D01*
X130595Y24197D01*
X130599Y24148D01*
X130596Y24098D01*
X130614Y23990D01*
X130625Y23881D01*
X130641Y23834D01*
X130650Y23785D01*
X130695Y23685D01*
X130732Y23581D01*
X130760Y23540D01*
X130781Y23495D01*
X130849Y23409D01*
X130911Y23318D01*
X130948Y23285D01*
X130979Y23246D01*
X131067Y23180D01*
X131149Y23108D01*
X131194Y23085D01*
X131233Y23055D01*
X131378Y22984D01*
X133331Y22175D01*
X136475Y19031D01*
X138177Y14923D01*
X138177Y10477D01*
X136475Y6369D01*
X135068Y4961D01*
X134982Y4852D01*
X134894Y4745D01*
X134885Y4726D01*
X134873Y4710D01*
X134817Y4582D01*
X134758Y4457D01*
X134755Y4437D01*
X134746Y4418D01*
X134725Y4280D01*
X134699Y4144D01*
X134700Y4124D01*
X134697Y4104D01*
X134710Y3965D01*
X134718Y3827D01*
X134725Y3808D01*
X134726Y3788D01*
X134774Y3656D01*
X134816Y3525D01*
X134827Y3507D01*
X134834Y3488D01*
X134912Y3373D01*
X134986Y3256D01*
X135001Y3242D01*
X135013Y3225D01*
X135117Y3133D01*
X135218Y3038D01*
X135236Y3028D01*
X135251Y3015D01*
X135375Y2951D01*
X135497Y2884D01*
X135516Y2879D01*
X135534Y2870D01*
X135670Y2840D01*
X135805Y2805D01*
X135833Y2803D01*
X135845Y2800D01*
X135865Y2801D01*
X135965Y2795D01*
X143435Y2795D01*
X143573Y2812D01*
X143711Y2825D01*
X143730Y2832D01*
X143750Y2835D01*
X143880Y2886D01*
X144010Y2933D01*
X144027Y2944D01*
X144046Y2952D01*
X144158Y3033D01*
X144274Y3111D01*
X144287Y3127D01*
X144303Y3138D01*
X144392Y3246D01*
X144484Y3350D01*
X144493Y3368D01*
X144506Y3383D01*
X144565Y3509D01*
X144629Y3633D01*
X144633Y3653D01*
X144642Y3671D01*
X144668Y3808D01*
X144698Y3943D01*
X144698Y3964D01*
X144701Y3983D01*
X144693Y4122D01*
X144689Y4261D01*
X144683Y4281D01*
X144682Y4301D01*
X144639Y4433D01*
X144600Y4567D01*
X144590Y4584D01*
X144584Y4603D01*
X144509Y4721D01*
X144439Y4841D01*
X144420Y4862D01*
X144414Y4872D01*
X144399Y4886D01*
X144332Y4961D01*
X142925Y6369D01*
X141223Y10477D01*
X141223Y14923D01*
X142925Y19031D01*
X146069Y22175D01*
X148568Y23210D01*
X148593Y23225D01*
X148621Y23234D01*
X148654Y23254D01*
X148667Y23260D01*
X148701Y23284D01*
X148731Y23303D01*
X148844Y23368D01*
X148865Y23388D01*
X148890Y23404D01*
X148979Y23499D01*
X149072Y23589D01*
X149088Y23614D01*
X149108Y23636D01*
X149171Y23750D01*
X149239Y23860D01*
X149247Y23888D01*
X149262Y23914D01*
X149294Y24040D01*
X149332Y24164D01*
X149334Y24194D01*
X149341Y24222D01*
X149351Y24383D01*
X149351Y26663D01*
X157870Y35181D01*
X157930Y35259D01*
X157998Y35331D01*
X158027Y35384D01*
X158064Y35432D01*
X158104Y35523D01*
X158152Y35610D01*
X158167Y35669D01*
X158191Y35724D01*
X158206Y35822D01*
X158231Y35918D01*
X158237Y36018D01*
X158241Y36038D01*
X158239Y36051D01*
X158241Y36079D01*
X158241Y92191D01*
X158229Y92290D01*
X158226Y92389D01*
X158209Y92447D01*
X158201Y92507D01*
X158165Y92599D01*
X158137Y92694D01*
X158107Y92746D01*
X158084Y92803D01*
X158026Y92883D01*
X157976Y92968D01*
X157910Y93043D01*
X157898Y93060D01*
X157888Y93068D01*
X157870Y93089D01*
X153541Y97418D01*
X153463Y97478D01*
X153391Y97546D01*
X153338Y97575D01*
X153290Y97612D01*
X153199Y97652D01*
X153112Y97700D01*
X153054Y97715D01*
X152998Y97739D01*
X152900Y97754D01*
X152804Y97779D01*
X152704Y97785D01*
X152684Y97789D01*
X152671Y97787D01*
X152643Y97789D01*
X151389Y97789D01*
X149522Y98563D01*
X148093Y99992D01*
X147319Y101859D01*
X147319Y103113D01*
X147307Y103212D01*
X147304Y103311D01*
X147287Y103369D01*
X147279Y103429D01*
X147243Y103521D01*
X147215Y103616D01*
X147185Y103668D01*
X147162Y103725D01*
X147104Y103805D01*
X147054Y103890D01*
X146988Y103965D01*
X146976Y103982D01*
X146966Y103990D01*
X146948Y104011D01*
X143889Y107070D01*
X143811Y107130D01*
X143739Y107198D01*
X143686Y107227D01*
X143638Y107264D01*
X143547Y107304D01*
X143460Y107352D01*
X143401Y107367D01*
X143346Y107391D01*
X143248Y107406D01*
X143152Y107431D01*
X143052Y107437D01*
X143032Y107441D01*
X143019Y107439D01*
X142991Y107441D01*
X133457Y107441D01*
X131300Y109599D01*
X131299Y109599D01*
X130488Y110411D01*
X130394Y110484D01*
X130304Y110563D01*
X130268Y110581D01*
X130236Y110606D01*
X130127Y110653D01*
X130021Y110707D01*
X129982Y110716D01*
X129944Y110732D01*
X129827Y110751D01*
X129711Y110777D01*
X129670Y110776D01*
X129630Y110782D01*
X129512Y110771D01*
X129393Y110767D01*
X129354Y110756D01*
X129314Y110752D01*
X129202Y110712D01*
X129087Y110679D01*
X129052Y110658D01*
X129014Y110645D01*
X128916Y110578D01*
X128813Y110517D01*
X128768Y110477D01*
X128751Y110466D01*
X128738Y110451D01*
X128693Y110411D01*
X127880Y109599D01*
X127820Y109521D01*
X127752Y109449D01*
X127723Y109396D01*
X127686Y109348D01*
X127646Y109257D01*
X127598Y109170D01*
X127583Y109111D01*
X127559Y109056D01*
X127544Y108958D01*
X127519Y108862D01*
X127513Y108762D01*
X127509Y108742D01*
X127511Y108729D01*
X127509Y108701D01*
X127509Y87212D01*
X127521Y87114D01*
X127524Y87015D01*
X127541Y86957D01*
X127549Y86897D01*
X127585Y86805D01*
X127613Y86710D01*
X127643Y86657D01*
X127666Y86601D01*
X127724Y86521D01*
X127774Y86436D01*
X127840Y86360D01*
X127852Y86344D01*
X127862Y86336D01*
X127880Y86315D01*
X128767Y85428D01*
X129541Y83561D01*
X129541Y81539D01*
X128767Y79672D01*
X127880Y78785D01*
X127820Y78707D01*
X127752Y78635D01*
X127723Y78582D01*
X127686Y78534D01*
X127646Y78443D01*
X127598Y78356D01*
X127583Y78298D01*
X127559Y78242D01*
X127544Y78144D01*
X127519Y78048D01*
X127513Y77948D01*
X127509Y77928D01*
X127511Y77916D01*
X127509Y77888D01*
X127509Y75327D01*
X121450Y69269D01*
X121390Y69191D01*
X121322Y69119D01*
X121293Y69066D01*
X121256Y69018D01*
X121216Y68927D01*
X121168Y68840D01*
X121153Y68781D01*
X121129Y68726D01*
X121114Y68628D01*
X121089Y68532D01*
X121083Y68432D01*
X121079Y68412D01*
X121081Y68399D01*
X121079Y68371D01*
X121079Y60486D01*
X119744Y59151D01*
X118618Y59151D01*
X118500Y59136D01*
X118381Y59129D01*
X118343Y59116D01*
X118302Y59111D01*
X118192Y59068D01*
X118079Y59031D01*
X118044Y59009D01*
X118007Y58994D01*
X117911Y58925D01*
X117810Y58861D01*
X117782Y58831D01*
X117749Y58808D01*
X117673Y58716D01*
X117592Y58629D01*
X117572Y58594D01*
X117547Y58563D01*
X117496Y58455D01*
X117438Y58351D01*
X117428Y58311D01*
X117411Y58275D01*
X117389Y58158D01*
X117359Y58043D01*
X117355Y57983D01*
X117351Y57963D01*
X117353Y57942D01*
X117349Y57882D01*
X117349Y36837D01*
X115191Y34680D01*
X105566Y25054D01*
X105535Y25015D01*
X105499Y24982D01*
X105438Y24890D01*
X105371Y24803D01*
X105351Y24758D01*
X105324Y24716D01*
X105288Y24612D01*
X105245Y24511D01*
X105237Y24462D01*
X105221Y24415D01*
X105212Y24306D01*
X105195Y24197D01*
X105199Y24148D01*
X105196Y24098D01*
X105214Y23990D01*
X105225Y23881D01*
X105241Y23834D01*
X105250Y23785D01*
X105295Y23685D01*
X105332Y23581D01*
X105360Y23540D01*
X105381Y23495D01*
X105449Y23409D01*
X105511Y23318D01*
X105548Y23285D01*
X105579Y23246D01*
X105667Y23180D01*
X105749Y23108D01*
X105794Y23085D01*
X105833Y23055D01*
X105978Y22984D01*
X107931Y22175D01*
X111075Y19031D01*
X112777Y14923D01*
X112777Y10477D01*
X111075Y6369D01*
X109668Y4961D01*
X109582Y4852D01*
X109494Y4745D01*
X109485Y4726D01*
X109473Y4710D01*
X109417Y4582D01*
X109358Y4457D01*
X109355Y4437D01*
X109346Y4418D01*
X109325Y4280D01*
X109299Y4144D01*
X109300Y4124D01*
X109297Y4104D01*
X109310Y3965D01*
X109318Y3827D01*
X109325Y3808D01*
X109326Y3788D01*
X109374Y3656D01*
X109416Y3525D01*
X109427Y3507D01*
X109434Y3488D01*
X109512Y3373D01*
X109586Y3256D01*
X109601Y3242D01*
X109613Y3225D01*
X109717Y3133D01*
X109818Y3038D01*
X109836Y3028D01*
X109851Y3015D01*
X109975Y2951D01*
X110097Y2884D01*
X110116Y2879D01*
X110134Y2870D01*
X110270Y2840D01*
X110405Y2805D01*
X110433Y2803D01*
X110445Y2800D01*
X110465Y2801D01*
X110565Y2795D01*
X118035Y2795D01*
X118173Y2812D01*
G37*
%LPC*%
G36*
X224709Y209041D02*
X224709Y209041D01*
X217521Y212019D01*
X212145Y217394D01*
X212036Y217480D01*
X211929Y217568D01*
X211910Y217577D01*
X211894Y217589D01*
X211766Y217645D01*
X211641Y217704D01*
X211621Y217708D01*
X211602Y217716D01*
X211464Y217738D01*
X211328Y217764D01*
X211308Y217762D01*
X211288Y217765D01*
X211149Y217752D01*
X211011Y217744D01*
X210992Y217738D01*
X210972Y217736D01*
X210840Y217688D01*
X210709Y217646D01*
X210691Y217635D01*
X210672Y217628D01*
X210557Y217550D01*
X210440Y217476D01*
X210426Y217461D01*
X210409Y217449D01*
X210317Y217345D01*
X210222Y217244D01*
X210212Y217226D01*
X210199Y217211D01*
X210135Y217087D01*
X210068Y216965D01*
X210063Y216946D01*
X210054Y216928D01*
X210024Y216792D01*
X209989Y216658D01*
X209987Y216629D01*
X209984Y216617D01*
X209985Y216597D01*
X209979Y216497D01*
X209979Y214552D01*
X208947Y212060D01*
X207040Y210153D01*
X204548Y209121D01*
X201852Y209121D01*
X199360Y210153D01*
X197453Y212060D01*
X196421Y214552D01*
X196421Y217248D01*
X197453Y219740D01*
X199360Y221647D01*
X201852Y222679D01*
X204548Y222679D01*
X207040Y221647D01*
X208110Y220576D01*
X208165Y220534D01*
X208214Y220483D01*
X208291Y220436D01*
X208361Y220381D01*
X208425Y220354D01*
X208485Y220317D01*
X208571Y220291D01*
X208653Y220255D01*
X208722Y220244D01*
X208789Y220224D01*
X208878Y220219D01*
X208967Y220205D01*
X209037Y220212D01*
X209107Y220208D01*
X209194Y220227D01*
X209284Y220235D01*
X209350Y220259D01*
X209418Y220273D01*
X209499Y220312D01*
X209583Y220343D01*
X209641Y220382D01*
X209704Y220412D01*
X209772Y220471D01*
X209846Y220521D01*
X209893Y220574D01*
X209946Y220619D01*
X209998Y220692D01*
X210057Y220760D01*
X210089Y220822D01*
X210129Y220879D01*
X210161Y220963D01*
X210202Y221043D01*
X210217Y221111D01*
X210242Y221176D01*
X210252Y221266D01*
X210271Y221353D01*
X210269Y221423D01*
X210277Y221492D01*
X210264Y221581D01*
X210262Y221671D01*
X210242Y221738D01*
X210232Y221807D01*
X210180Y221960D01*
X209041Y224709D01*
X209041Y232491D01*
X212019Y239679D01*
X217521Y245181D01*
X224709Y248159D01*
X232491Y248159D01*
X239679Y245181D01*
X245181Y239679D01*
X248159Y232491D01*
X248159Y224709D01*
X245181Y217521D01*
X239679Y212019D01*
X232491Y209041D01*
X224709Y209041D01*
G37*
%LPD*%
%LPC*%
G36*
X21510Y209041D02*
X21510Y209041D01*
X14321Y212019D01*
X8819Y217521D01*
X5841Y224709D01*
X5841Y232491D01*
X8819Y239679D01*
X14321Y245181D01*
X21509Y248159D01*
X29291Y248159D01*
X36479Y245181D01*
X41981Y239679D01*
X44959Y232491D01*
X44959Y224709D01*
X41981Y217521D01*
X36479Y212019D01*
X29291Y209041D01*
X21510Y209041D01*
G37*
%LPD*%
G36*
X168973Y2812D02*
X168973Y2812D01*
X169111Y2825D01*
X169130Y2832D01*
X169150Y2835D01*
X169280Y2886D01*
X169410Y2933D01*
X169427Y2944D01*
X169446Y2952D01*
X169558Y3033D01*
X169674Y3111D01*
X169687Y3127D01*
X169703Y3138D01*
X169792Y3246D01*
X169884Y3350D01*
X169893Y3368D01*
X169906Y3383D01*
X169965Y3509D01*
X170029Y3633D01*
X170033Y3653D01*
X170042Y3671D01*
X170068Y3808D01*
X170098Y3943D01*
X170098Y3964D01*
X170101Y3983D01*
X170093Y4122D01*
X170089Y4261D01*
X170083Y4281D01*
X170082Y4301D01*
X170039Y4433D01*
X170000Y4567D01*
X169990Y4584D01*
X169984Y4603D01*
X169909Y4721D01*
X169839Y4841D01*
X169820Y4862D01*
X169814Y4872D01*
X169799Y4886D01*
X169732Y4961D01*
X168325Y6369D01*
X166623Y10477D01*
X166623Y14923D01*
X168325Y19031D01*
X171469Y22175D01*
X173968Y23210D01*
X173993Y23225D01*
X174021Y23234D01*
X174054Y23254D01*
X174067Y23260D01*
X174101Y23284D01*
X174131Y23303D01*
X174244Y23368D01*
X174265Y23388D01*
X174290Y23404D01*
X174379Y23499D01*
X174472Y23589D01*
X174488Y23614D01*
X174508Y23636D01*
X174571Y23750D01*
X174639Y23860D01*
X174647Y23888D01*
X174662Y23914D01*
X174694Y24040D01*
X174732Y24164D01*
X174734Y24194D01*
X174741Y24222D01*
X174751Y24383D01*
X174751Y63901D01*
X174748Y63930D01*
X174750Y63960D01*
X174728Y64088D01*
X174711Y64217D01*
X174701Y64244D01*
X174696Y64273D01*
X174642Y64392D01*
X174594Y64512D01*
X174577Y64536D01*
X174565Y64563D01*
X174484Y64665D01*
X174408Y64770D01*
X174385Y64788D01*
X174366Y64812D01*
X174263Y64890D01*
X174163Y64972D01*
X174136Y64985D01*
X174112Y65003D01*
X173968Y65074D01*
X173298Y65351D01*
X171805Y66844D01*
X170997Y68794D01*
X170997Y70906D01*
X171805Y72856D01*
X173298Y74349D01*
X173968Y74626D01*
X173993Y74641D01*
X174021Y74650D01*
X174131Y74719D01*
X174244Y74784D01*
X174265Y74804D01*
X174290Y74820D01*
X174379Y74915D01*
X174472Y75005D01*
X174488Y75030D01*
X174508Y75052D01*
X174571Y75166D01*
X174639Y75276D01*
X174647Y75304D01*
X174662Y75330D01*
X174694Y75456D01*
X174732Y75580D01*
X174734Y75610D01*
X174741Y75638D01*
X174751Y75799D01*
X174751Y85841D01*
X174739Y85940D01*
X174736Y86039D01*
X174719Y86097D01*
X174711Y86157D01*
X174675Y86249D01*
X174647Y86344D01*
X174617Y86396D01*
X174594Y86453D01*
X174536Y86533D01*
X174486Y86618D01*
X174420Y86693D01*
X174408Y86710D01*
X174398Y86718D01*
X174380Y86739D01*
X166505Y94613D01*
X166396Y94698D01*
X166289Y94787D01*
X166270Y94795D01*
X166254Y94808D01*
X166126Y94863D01*
X166001Y94922D01*
X165981Y94926D01*
X165962Y94934D01*
X165824Y94956D01*
X165688Y94982D01*
X165668Y94981D01*
X165648Y94984D01*
X165509Y94971D01*
X165371Y94962D01*
X165352Y94956D01*
X165332Y94954D01*
X165200Y94907D01*
X165069Y94864D01*
X165051Y94854D01*
X165032Y94847D01*
X164917Y94769D01*
X164800Y94694D01*
X164786Y94679D01*
X164769Y94668D01*
X164677Y94564D01*
X164582Y94463D01*
X164572Y94445D01*
X164559Y94430D01*
X164495Y94306D01*
X164428Y94184D01*
X164423Y94165D01*
X164414Y94146D01*
X164384Y94011D01*
X164349Y93876D01*
X164347Y93848D01*
X164344Y93836D01*
X164345Y93816D01*
X164339Y93715D01*
X164339Y33027D01*
X156366Y25054D01*
X156335Y25015D01*
X156299Y24982D01*
X156238Y24890D01*
X156171Y24803D01*
X156151Y24758D01*
X156124Y24716D01*
X156088Y24612D01*
X156045Y24511D01*
X156037Y24462D01*
X156021Y24415D01*
X156012Y24306D01*
X155995Y24197D01*
X155999Y24148D01*
X155996Y24098D01*
X156014Y23990D01*
X156025Y23881D01*
X156041Y23834D01*
X156050Y23785D01*
X156095Y23685D01*
X156132Y23581D01*
X156160Y23540D01*
X156181Y23495D01*
X156249Y23409D01*
X156311Y23318D01*
X156348Y23285D01*
X156379Y23246D01*
X156467Y23180D01*
X156549Y23108D01*
X156594Y23085D01*
X156633Y23055D01*
X156778Y22984D01*
X158731Y22175D01*
X161875Y19031D01*
X163577Y14923D01*
X163577Y10477D01*
X161875Y6369D01*
X160468Y4961D01*
X160382Y4852D01*
X160294Y4745D01*
X160285Y4726D01*
X160273Y4710D01*
X160217Y4582D01*
X160158Y4457D01*
X160155Y4437D01*
X160146Y4418D01*
X160125Y4280D01*
X160099Y4144D01*
X160100Y4124D01*
X160097Y4104D01*
X160110Y3965D01*
X160118Y3827D01*
X160125Y3808D01*
X160126Y3788D01*
X160174Y3656D01*
X160216Y3525D01*
X160227Y3507D01*
X160234Y3488D01*
X160312Y3373D01*
X160386Y3256D01*
X160401Y3242D01*
X160413Y3225D01*
X160517Y3133D01*
X160618Y3038D01*
X160636Y3028D01*
X160651Y3015D01*
X160775Y2951D01*
X160897Y2884D01*
X160916Y2879D01*
X160934Y2870D01*
X161070Y2840D01*
X161205Y2805D01*
X161233Y2803D01*
X161245Y2800D01*
X161265Y2801D01*
X161365Y2795D01*
X168835Y2795D01*
X168973Y2812D01*
G37*
%LPC*%
G36*
X146049Y164496D02*
X146049Y164496D01*
X146005Y164606D01*
X145969Y164719D01*
X145947Y164754D01*
X145932Y164791D01*
X145862Y164887D01*
X145799Y164988D01*
X145769Y165016D01*
X145745Y165049D01*
X145654Y165125D01*
X145567Y165206D01*
X145532Y165226D01*
X145500Y165251D01*
X145393Y165302D01*
X145288Y165360D01*
X145249Y165370D01*
X145213Y165387D01*
X145096Y165409D01*
X144980Y165439D01*
X144920Y165443D01*
X144900Y165447D01*
X144880Y165445D01*
X144820Y165449D01*
X138509Y165449D01*
X138509Y168350D01*
X138716Y169124D01*
X139117Y169817D01*
X139683Y170383D01*
X140286Y170732D01*
X140387Y170808D01*
X140490Y170878D01*
X140513Y170903D01*
X140540Y170924D01*
X140618Y171022D01*
X140701Y171117D01*
X140716Y171147D01*
X140737Y171173D01*
X140788Y171288D01*
X140846Y171400D01*
X140853Y171433D01*
X140867Y171463D01*
X140888Y171588D01*
X140915Y171710D01*
X140914Y171744D01*
X140920Y171777D01*
X140909Y171902D01*
X140906Y172028D01*
X140896Y172060D01*
X140893Y172094D01*
X140852Y172213D01*
X140817Y172333D01*
X140800Y172363D01*
X140789Y172394D01*
X140719Y172499D01*
X140656Y172607D01*
X140623Y172644D01*
X140613Y172659D01*
X140597Y172674D01*
X140549Y172728D01*
X139271Y174006D01*
X139271Y185894D01*
X140606Y187229D01*
X151494Y187229D01*
X152829Y185894D01*
X152829Y178009D01*
X152841Y177910D01*
X152844Y177811D01*
X152861Y177753D01*
X152869Y177693D01*
X152905Y177601D01*
X152933Y177506D01*
X152963Y177454D01*
X152986Y177397D01*
X153044Y177317D01*
X153094Y177232D01*
X153160Y177157D01*
X153172Y177140D01*
X153182Y177132D01*
X153200Y177111D01*
X153262Y177050D01*
X153340Y176989D01*
X153412Y176921D01*
X153465Y176892D01*
X153513Y176855D01*
X153604Y176815D01*
X153691Y176768D01*
X153749Y176752D01*
X153805Y176728D01*
X153903Y176713D01*
X153999Y176688D01*
X154099Y176682D01*
X154119Y176678D01*
X154131Y176680D01*
X154159Y176678D01*
X156098Y176678D01*
X157965Y175904D01*
X159394Y174475D01*
X160168Y172608D01*
X160168Y170586D01*
X159394Y168719D01*
X157965Y167290D01*
X156098Y166516D01*
X154860Y166516D01*
X154742Y166501D01*
X154623Y166494D01*
X154585Y166482D01*
X154544Y166477D01*
X154434Y166433D01*
X154321Y166396D01*
X154286Y166374D01*
X154249Y166359D01*
X154153Y166290D01*
X154052Y166226D01*
X154024Y166196D01*
X153991Y166173D01*
X153915Y166081D01*
X153834Y165994D01*
X153814Y165959D01*
X153789Y165928D01*
X153738Y165820D01*
X153680Y165716D01*
X153670Y165677D01*
X153653Y165640D01*
X153631Y165523D01*
X153612Y165449D01*
X147280Y165449D01*
X147162Y165434D01*
X147043Y165427D01*
X147005Y165414D01*
X146965Y165409D01*
X146854Y165366D01*
X146741Y165329D01*
X146707Y165307D01*
X146669Y165292D01*
X146573Y165223D01*
X146472Y165159D01*
X146444Y165129D01*
X146412Y165106D01*
X146336Y165014D01*
X146254Y164927D01*
X146235Y164892D01*
X146209Y164861D01*
X146158Y164753D01*
X146101Y164649D01*
X146091Y164609D01*
X146073Y164573D01*
X146053Y164466D01*
X146049Y164496D01*
G37*
%LPD*%
G36*
X98750Y115061D02*
X98750Y115061D01*
X98849Y115064D01*
X98907Y115081D01*
X98967Y115089D01*
X99059Y115125D01*
X99154Y115153D01*
X99206Y115183D01*
X99263Y115206D01*
X99343Y115264D01*
X99428Y115314D01*
X99503Y115380D01*
X99520Y115392D01*
X99528Y115402D01*
X99549Y115420D01*
X110296Y126167D01*
X110369Y126262D01*
X110448Y126351D01*
X110466Y126387D01*
X110491Y126419D01*
X110538Y126528D01*
X110592Y126634D01*
X110601Y126673D01*
X110617Y126711D01*
X110636Y126828D01*
X110662Y126944D01*
X110661Y126985D01*
X110667Y127025D01*
X110656Y127143D01*
X110652Y127262D01*
X110641Y127301D01*
X110637Y127341D01*
X110597Y127454D01*
X110564Y127568D01*
X110543Y127602D01*
X110530Y127641D01*
X110463Y127739D01*
X110402Y127842D01*
X110362Y127887D01*
X110351Y127904D01*
X110336Y127917D01*
X110296Y127962D01*
X107532Y130726D01*
X107438Y130799D01*
X107349Y130878D01*
X107313Y130896D01*
X107281Y130921D01*
X107172Y130968D01*
X107066Y131022D01*
X107026Y131031D01*
X106989Y131047D01*
X106872Y131066D01*
X106756Y131092D01*
X106715Y131091D01*
X106675Y131097D01*
X106557Y131086D01*
X106438Y131082D01*
X106399Y131071D01*
X106359Y131067D01*
X106246Y131027D01*
X106132Y130994D01*
X106097Y130973D01*
X106059Y130960D01*
X105961Y130893D01*
X105858Y130832D01*
X105813Y130793D01*
X105796Y130781D01*
X105783Y130766D01*
X105737Y130726D01*
X102693Y127681D01*
X80768Y127681D01*
X80630Y127664D01*
X80492Y127651D01*
X80473Y127644D01*
X80453Y127641D01*
X80323Y127590D01*
X80193Y127543D01*
X80176Y127532D01*
X80157Y127524D01*
X80044Y127443D01*
X79929Y127365D01*
X79916Y127349D01*
X79900Y127338D01*
X79811Y127230D01*
X79719Y127126D01*
X79710Y127108D01*
X79697Y127093D01*
X79638Y126967D01*
X79574Y126843D01*
X79570Y126823D01*
X79561Y126805D01*
X79535Y126668D01*
X79505Y126533D01*
X79505Y126512D01*
X79502Y126493D01*
X79510Y126354D01*
X79514Y126215D01*
X79520Y126195D01*
X79521Y126175D01*
X79564Y126043D01*
X79603Y125909D01*
X79613Y125892D01*
X79619Y125873D01*
X79694Y125755D01*
X79764Y125635D01*
X79783Y125614D01*
X79789Y125604D01*
X79804Y125590D01*
X79871Y125515D01*
X80437Y124948D01*
X81211Y123081D01*
X81211Y121059D01*
X80437Y119192D01*
X79008Y117763D01*
X78350Y117491D01*
X78290Y117456D01*
X78225Y117430D01*
X78152Y117378D01*
X78074Y117333D01*
X78024Y117285D01*
X77968Y117244D01*
X77910Y117174D01*
X77846Y117112D01*
X77809Y117052D01*
X77765Y116999D01*
X77727Y116917D01*
X77680Y116841D01*
X77659Y116774D01*
X77629Y116711D01*
X77612Y116623D01*
X77586Y116537D01*
X77583Y116467D01*
X77569Y116398D01*
X77575Y116309D01*
X77571Y116219D01*
X77585Y116151D01*
X77589Y116081D01*
X77617Y115996D01*
X77635Y115908D01*
X77666Y115845D01*
X77687Y115779D01*
X77735Y115703D01*
X77775Y115622D01*
X77820Y115569D01*
X77857Y115510D01*
X77923Y115448D01*
X77981Y115380D01*
X78038Y115340D01*
X78089Y115292D01*
X78168Y115249D01*
X78241Y115197D01*
X78306Y115172D01*
X78368Y115138D01*
X78455Y115116D01*
X78539Y115084D01*
X78608Y115076D01*
X78675Y115059D01*
X78836Y115049D01*
X98651Y115049D01*
X98750Y115061D01*
G37*
%LPC*%
G36*
X212432Y183721D02*
X212432Y183721D01*
X210511Y185642D01*
X210511Y186182D01*
X210496Y186300D01*
X210489Y186419D01*
X210476Y186457D01*
X210471Y186498D01*
X210428Y186608D01*
X210391Y186721D01*
X210369Y186756D01*
X210354Y186793D01*
X210285Y186889D01*
X210221Y186990D01*
X210191Y187018D01*
X210168Y187051D01*
X210076Y187127D01*
X209989Y187208D01*
X209954Y187228D01*
X209923Y187253D01*
X209815Y187304D01*
X209711Y187362D01*
X209671Y187372D01*
X209635Y187389D01*
X209518Y187411D01*
X209403Y187441D01*
X209343Y187445D01*
X209323Y187449D01*
X209302Y187447D01*
X209242Y187451D01*
X209132Y187451D01*
X209034Y187439D01*
X208935Y187436D01*
X208877Y187419D01*
X208817Y187411D01*
X208725Y187375D01*
X208630Y187347D01*
X208577Y187317D01*
X208521Y187294D01*
X208441Y187236D01*
X208356Y187186D01*
X208280Y187120D01*
X208264Y187108D01*
X208256Y187098D01*
X208235Y187080D01*
X207348Y186193D01*
X205481Y185419D01*
X203459Y185419D01*
X201592Y186193D01*
X200163Y187622D01*
X199389Y189489D01*
X199389Y191511D01*
X200163Y193378D01*
X201592Y194807D01*
X203459Y195581D01*
X205481Y195581D01*
X207348Y194807D01*
X208235Y193920D01*
X208313Y193860D01*
X208385Y193792D01*
X208438Y193763D01*
X208486Y193726D01*
X208577Y193686D01*
X208664Y193638D01*
X208722Y193623D01*
X208778Y193599D01*
X208876Y193584D01*
X208972Y193559D01*
X209072Y193553D01*
X209092Y193549D01*
X209104Y193551D01*
X209132Y193549D01*
X209242Y193549D01*
X209360Y193564D01*
X209479Y193571D01*
X209517Y193584D01*
X209558Y193589D01*
X209668Y193632D01*
X209781Y193669D01*
X209816Y193691D01*
X209853Y193706D01*
X209949Y193775D01*
X210050Y193839D01*
X210078Y193869D01*
X210111Y193892D01*
X210187Y193984D01*
X210268Y194071D01*
X210288Y194106D01*
X210313Y194137D01*
X210364Y194245D01*
X210422Y194349D01*
X210432Y194389D01*
X210449Y194425D01*
X210471Y194542D01*
X210501Y194657D01*
X210505Y194717D01*
X210509Y194737D01*
X210507Y194758D01*
X210511Y194818D01*
X210511Y195358D01*
X212432Y197279D01*
X222148Y197279D01*
X224069Y195358D01*
X224069Y185642D01*
X222148Y183721D01*
X212432Y183721D01*
G37*
%LPD*%
%LPC*%
G36*
X11352Y5921D02*
X11352Y5921D01*
X8860Y6953D01*
X6953Y8860D01*
X5921Y11352D01*
X5921Y14048D01*
X6953Y16540D01*
X8860Y18447D01*
X11352Y19479D01*
X14048Y19479D01*
X16540Y18447D01*
X18447Y16540D01*
X19479Y14048D01*
X19479Y11352D01*
X18447Y8860D01*
X16540Y6953D01*
X14048Y5921D01*
X11352Y5921D01*
G37*
%LPD*%
%LPC*%
G36*
X39115Y15239D02*
X39115Y15239D01*
X39155Y15496D01*
X39736Y17283D01*
X40589Y18957D01*
X41694Y20478D01*
X43022Y21806D01*
X44543Y22911D01*
X46217Y23764D01*
X48004Y24345D01*
X48261Y24385D01*
X48261Y15239D01*
X39115Y15239D01*
G37*
%LPD*%
%LPC*%
G36*
X52299Y143499D02*
X52299Y143499D01*
X52299Y147541D01*
X57442Y147541D01*
X58218Y147333D01*
X58913Y146931D01*
X59481Y146363D01*
X59883Y145668D01*
X60091Y144892D01*
X60091Y143499D01*
X52299Y143499D01*
G37*
%LPD*%
%LPC*%
G36*
X41509Y143499D02*
X41509Y143499D01*
X41509Y144892D01*
X41717Y145668D01*
X42119Y146363D01*
X42687Y146931D01*
X43382Y147333D01*
X44158Y147541D01*
X49301Y147541D01*
X49301Y143499D01*
X41509Y143499D01*
G37*
%LPD*%
%LPC*%
G36*
X204699Y110501D02*
X204699Y110501D01*
X212491Y110501D01*
X212491Y109108D01*
X212283Y108332D01*
X211881Y107637D01*
X211313Y107069D01*
X210618Y106667D01*
X209842Y106459D01*
X204699Y106459D01*
X204699Y110501D01*
G37*
%LPD*%
%LPC*%
G36*
X196558Y106459D02*
X196558Y106459D01*
X195782Y106667D01*
X195087Y107069D01*
X194519Y107637D01*
X194117Y108332D01*
X193909Y109108D01*
X193909Y110501D01*
X201701Y110501D01*
X201701Y106459D01*
X196558Y106459D01*
G37*
%LPD*%
%LPC*%
G36*
X129499Y182449D02*
X129499Y182449D01*
X129499Y187991D01*
X131900Y187991D01*
X132674Y187784D01*
X133367Y187383D01*
X133933Y186817D01*
X134334Y186124D01*
X134541Y185350D01*
X134541Y182449D01*
X129499Y182449D01*
G37*
%LPD*%
%LPC*%
G36*
X209519Y173949D02*
X209519Y173949D01*
X209519Y176350D01*
X209726Y177124D01*
X210127Y177817D01*
X210693Y178383D01*
X211386Y178784D01*
X212160Y178991D01*
X215061Y178991D01*
X215061Y173949D01*
X209519Y173949D01*
G37*
%LPD*%
%LPC*%
G36*
X119459Y182449D02*
X119459Y182449D01*
X119459Y185350D01*
X119666Y186124D01*
X120067Y186817D01*
X120633Y187383D01*
X121326Y187784D01*
X122100Y187991D01*
X124501Y187991D01*
X124501Y182449D01*
X119459Y182449D01*
G37*
%LPD*%
%LPC*%
G36*
X212160Y163909D02*
X212160Y163909D01*
X211386Y164116D01*
X210693Y164517D01*
X210127Y165083D01*
X209726Y165776D01*
X209519Y166550D01*
X209519Y168951D01*
X215061Y168951D01*
X215061Y163909D01*
X212160Y163909D01*
G37*
%LPD*%
D10*
X131500Y167950D02*
X131500Y157950D01*
X122500Y157950D01*
X122500Y167950D01*
X131500Y167950D01*
X131500Y158900D02*
X122500Y158900D01*
X122500Y159850D02*
X131500Y159850D01*
X131500Y160800D02*
X122500Y160800D01*
X122500Y161750D02*
X131500Y161750D01*
X131500Y162700D02*
X122500Y162700D01*
X122500Y163650D02*
X131500Y163650D01*
X131500Y164600D02*
X122500Y164600D01*
X122500Y165550D02*
X131500Y165550D01*
X131500Y166500D02*
X122500Y166500D01*
X122500Y167450D02*
X131500Y167450D01*
X131500Y174950D02*
X131500Y184950D01*
X131500Y174950D02*
X122500Y174950D01*
X122500Y184950D01*
X131500Y184950D01*
X131500Y175900D02*
X122500Y175900D01*
X122500Y176850D02*
X131500Y176850D01*
X131500Y177800D02*
X122500Y177800D01*
X122500Y178750D02*
X131500Y178750D01*
X131500Y179700D02*
X122500Y179700D01*
X122500Y180650D02*
X131500Y180650D01*
X131500Y181600D02*
X122500Y181600D01*
X122500Y182550D02*
X131500Y182550D01*
X131500Y183500D02*
X122500Y183500D01*
X122500Y184450D02*
X131500Y184450D01*
D11*
X231330Y187000D02*
X231330Y194000D01*
X238330Y194000D01*
X238330Y187000D01*
X231330Y187000D01*
X231330Y189850D02*
X238330Y189850D01*
X238330Y192700D02*
X231330Y192700D01*
X213790Y194000D02*
X213790Y187000D01*
X213790Y194000D02*
X220790Y194000D01*
X220790Y187000D01*
X213790Y187000D01*
X213790Y189850D02*
X220790Y189850D01*
X220790Y192700D02*
X213790Y192700D01*
D12*
X203200Y215900D03*
X12700Y12700D03*
D13*
X4530Y149480D02*
X4530Y160520D01*
X23570Y160520D01*
X23570Y149480D01*
X4530Y149480D01*
X4530Y150392D02*
X23570Y150392D01*
X23570Y151304D02*
X4530Y151304D01*
X4530Y152216D02*
X23570Y152216D01*
X23570Y153128D02*
X4530Y153128D01*
X4530Y154040D02*
X23570Y154040D01*
X23570Y154952D02*
X4530Y154952D01*
X4530Y155864D02*
X23570Y155864D01*
X23570Y156776D02*
X4530Y156776D01*
X4530Y157688D02*
X23570Y157688D01*
X23570Y158600D02*
X4530Y158600D01*
X4530Y159512D02*
X23570Y159512D01*
X23570Y160424D02*
X4530Y160424D01*
X4530Y104520D02*
X4530Y93480D01*
X4530Y104520D02*
X23570Y104520D01*
X23570Y93480D01*
X4530Y93480D01*
X4530Y94392D02*
X23570Y94392D01*
X23570Y95304D02*
X4530Y95304D01*
X4530Y96216D02*
X23570Y96216D01*
X23570Y97128D02*
X4530Y97128D01*
X4530Y98040D02*
X23570Y98040D01*
X23570Y98952D02*
X4530Y98952D01*
X4530Y99864D02*
X23570Y99864D01*
X23570Y100776D02*
X4530Y100776D01*
X4530Y101688D02*
X23570Y101688D01*
X23570Y102600D02*
X4530Y102600D01*
X4530Y103512D02*
X23570Y103512D01*
X23570Y104424D02*
X4530Y104424D01*
D14*
X44560Y139510D02*
X44560Y144490D01*
X57040Y144490D01*
X57040Y139510D01*
X44560Y139510D01*
X44560Y140479D02*
X57040Y140479D01*
X57040Y141448D02*
X44560Y141448D01*
X44560Y142417D02*
X57040Y142417D01*
X57040Y143386D02*
X44560Y143386D01*
X44560Y144355D02*
X57040Y144355D01*
X44560Y134490D02*
X44560Y129510D01*
X44560Y134490D02*
X57040Y134490D01*
X57040Y129510D01*
X44560Y129510D01*
X44560Y130479D02*
X57040Y130479D01*
X57040Y131448D02*
X44560Y131448D01*
X44560Y132417D02*
X57040Y132417D01*
X57040Y133386D02*
X44560Y133386D01*
X44560Y134355D02*
X57040Y134355D01*
X44560Y124490D02*
X44560Y119510D01*
X44560Y124490D02*
X57040Y124490D01*
X57040Y119510D01*
X44560Y119510D01*
X44560Y120479D02*
X57040Y120479D01*
X57040Y121448D02*
X44560Y121448D01*
X44560Y122417D02*
X57040Y122417D01*
X57040Y123386D02*
X44560Y123386D01*
X44560Y124355D02*
X57040Y124355D01*
X44560Y114490D02*
X44560Y109510D01*
X44560Y114490D02*
X57040Y114490D01*
X57040Y109510D01*
X44560Y109510D01*
X44560Y110479D02*
X57040Y110479D01*
X57040Y111448D02*
X44560Y111448D01*
X44560Y112417D02*
X57040Y112417D01*
X57040Y113386D02*
X44560Y113386D01*
X44560Y114355D02*
X57040Y114355D01*
D13*
X249470Y104520D02*
X249470Y93480D01*
X230430Y93480D01*
X230430Y104520D01*
X249470Y104520D01*
X249470Y94392D02*
X230430Y94392D01*
X230430Y95304D02*
X249470Y95304D01*
X249470Y96216D02*
X230430Y96216D01*
X230430Y97128D02*
X249470Y97128D01*
X249470Y98040D02*
X230430Y98040D01*
X230430Y98952D02*
X249470Y98952D01*
X249470Y99864D02*
X230430Y99864D01*
X230430Y100776D02*
X249470Y100776D01*
X249470Y101688D02*
X230430Y101688D01*
X230430Y102600D02*
X249470Y102600D01*
X249470Y103512D02*
X230430Y103512D01*
X230430Y104424D02*
X249470Y104424D01*
X249470Y149480D02*
X249470Y160520D01*
X249470Y149480D02*
X230430Y149480D01*
X230430Y160520D01*
X249470Y160520D01*
X249470Y150392D02*
X230430Y150392D01*
X230430Y151304D02*
X249470Y151304D01*
X249470Y152216D02*
X230430Y152216D01*
X230430Y153128D02*
X249470Y153128D01*
X249470Y154040D02*
X230430Y154040D01*
X230430Y154952D02*
X249470Y154952D01*
X249470Y155864D02*
X230430Y155864D01*
X230430Y156776D02*
X249470Y156776D01*
X249470Y157688D02*
X230430Y157688D01*
X230430Y158600D02*
X249470Y158600D01*
X249470Y159512D02*
X230430Y159512D01*
X230430Y160424D02*
X249470Y160424D01*
D14*
X209440Y114490D02*
X209440Y109510D01*
X196960Y109510D01*
X196960Y114490D01*
X209440Y114490D01*
X209440Y110479D02*
X196960Y110479D01*
X196960Y111448D02*
X209440Y111448D01*
X209440Y112417D02*
X196960Y112417D01*
X196960Y113386D02*
X209440Y113386D01*
X209440Y114355D02*
X196960Y114355D01*
X209440Y119510D02*
X209440Y124490D01*
X209440Y119510D02*
X196960Y119510D01*
X196960Y124490D01*
X209440Y124490D01*
X209440Y120479D02*
X196960Y120479D01*
X196960Y121448D02*
X209440Y121448D01*
X209440Y122417D02*
X196960Y122417D01*
X196960Y123386D02*
X209440Y123386D01*
X209440Y124355D02*
X196960Y124355D01*
X209440Y129510D02*
X209440Y134490D01*
X209440Y129510D02*
X196960Y129510D01*
X196960Y134490D01*
X209440Y134490D01*
X209440Y130479D02*
X196960Y130479D01*
X196960Y131448D02*
X209440Y131448D01*
X209440Y132417D02*
X196960Y132417D01*
X196960Y133386D02*
X209440Y133386D01*
X209440Y134355D02*
X196960Y134355D01*
X209440Y139510D02*
X209440Y144490D01*
X209440Y139510D02*
X196960Y139510D01*
X196960Y144490D01*
X209440Y144490D01*
X209440Y140479D02*
X196960Y140479D01*
X196960Y141448D02*
X209440Y141448D01*
X209440Y142417D02*
X196960Y142417D01*
X196960Y143386D02*
X209440Y143386D01*
X209440Y144355D02*
X196960Y144355D01*
D15*
X50800Y12700D03*
X76200Y12700D03*
X101600Y12700D03*
X127000Y12700D03*
X152400Y12700D03*
X177800Y12700D03*
X203200Y12700D03*
D10*
X118800Y61430D02*
X118800Y71430D01*
X118800Y61430D02*
X109800Y61430D01*
X109800Y71430D01*
X118800Y71430D01*
X118800Y62380D02*
X109800Y62380D01*
X109800Y63330D02*
X118800Y63330D01*
X118800Y64280D02*
X109800Y64280D01*
X109800Y65230D02*
X118800Y65230D01*
X118800Y66180D02*
X109800Y66180D01*
X109800Y67130D02*
X118800Y67130D01*
X118800Y68080D02*
X109800Y68080D01*
X109800Y69030D02*
X118800Y69030D01*
X118800Y69980D02*
X109800Y69980D01*
X109800Y70930D02*
X118800Y70930D01*
X118800Y78430D02*
X118800Y88430D01*
X118800Y78430D02*
X109800Y78430D01*
X109800Y88430D01*
X118800Y88430D01*
X118800Y79380D02*
X109800Y79380D01*
X109800Y80330D02*
X118800Y80330D01*
X118800Y81280D02*
X109800Y81280D01*
X109800Y82230D02*
X118800Y82230D01*
X118800Y83180D02*
X109800Y83180D01*
X109800Y84130D02*
X118800Y84130D01*
X118800Y85080D02*
X109800Y85080D01*
X109800Y86030D02*
X118800Y86030D01*
X118800Y86980D02*
X109800Y86980D01*
X109800Y87930D02*
X118800Y87930D01*
X135200Y88430D02*
X135200Y78430D01*
X135200Y88430D02*
X144200Y88430D01*
X144200Y78430D01*
X135200Y78430D01*
X135200Y79380D02*
X144200Y79380D01*
X144200Y80330D02*
X135200Y80330D01*
X135200Y81280D02*
X144200Y81280D01*
X144200Y82230D02*
X135200Y82230D01*
X135200Y83180D02*
X144200Y83180D01*
X144200Y84130D02*
X135200Y84130D01*
X135200Y85080D02*
X144200Y85080D01*
X144200Y86030D02*
X135200Y86030D01*
X135200Y86980D02*
X144200Y86980D01*
X144200Y87930D02*
X135200Y87930D01*
X135200Y71430D02*
X135200Y61430D01*
X135200Y71430D02*
X144200Y71430D01*
X144200Y61430D01*
X135200Y61430D01*
X135200Y62380D02*
X144200Y62380D01*
X144200Y63330D02*
X135200Y63330D01*
X135200Y64280D02*
X144200Y64280D01*
X144200Y65230D02*
X135200Y65230D01*
X135200Y66180D02*
X144200Y66180D01*
X144200Y67130D02*
X135200Y67130D01*
X135200Y68080D02*
X144200Y68080D01*
X144200Y69030D02*
X135200Y69030D01*
X135200Y69980D02*
X144200Y69980D01*
X144200Y70930D02*
X135200Y70930D01*
X103450Y174950D02*
X103450Y184950D01*
X112450Y184950D01*
X112450Y174950D01*
X103450Y174950D01*
X103450Y175900D02*
X112450Y175900D01*
X112450Y176850D02*
X103450Y176850D01*
X103450Y177800D02*
X112450Y177800D01*
X112450Y178750D02*
X103450Y178750D01*
X103450Y179700D02*
X112450Y179700D01*
X112450Y180650D02*
X103450Y180650D01*
X103450Y181600D02*
X112450Y181600D01*
X112450Y182550D02*
X103450Y182550D01*
X103450Y183500D02*
X112450Y183500D01*
X112450Y184450D02*
X103450Y184450D01*
X103450Y167950D02*
X103450Y157950D01*
X103450Y167950D02*
X112450Y167950D01*
X112450Y157950D01*
X103450Y157950D01*
X103450Y158900D02*
X112450Y158900D01*
X112450Y159850D02*
X103450Y159850D01*
X103450Y160800D02*
X112450Y160800D01*
X112450Y161750D02*
X103450Y161750D01*
X103450Y162700D02*
X112450Y162700D01*
X112450Y163650D02*
X103450Y163650D01*
X103450Y164600D02*
X112450Y164600D01*
X112450Y165550D02*
X103450Y165550D01*
X103450Y166500D02*
X112450Y166500D01*
X112450Y167450D02*
X103450Y167450D01*
X150550Y167950D02*
X150550Y157950D01*
X141550Y157950D01*
X141550Y167950D01*
X150550Y167950D01*
X150550Y158900D02*
X141550Y158900D01*
X141550Y159850D02*
X150550Y159850D01*
X150550Y160800D02*
X141550Y160800D01*
X141550Y161750D02*
X150550Y161750D01*
X150550Y162700D02*
X141550Y162700D01*
X141550Y163650D02*
X150550Y163650D01*
X150550Y164600D02*
X141550Y164600D01*
X141550Y165550D02*
X150550Y165550D01*
X150550Y166500D02*
X141550Y166500D01*
X141550Y167450D02*
X150550Y167450D01*
X150550Y174950D02*
X150550Y184950D01*
X150550Y174950D02*
X141550Y174950D01*
X141550Y184950D01*
X150550Y184950D01*
X150550Y175900D02*
X141550Y175900D01*
X141550Y176850D02*
X150550Y176850D01*
X150550Y177800D02*
X141550Y177800D01*
X141550Y178750D02*
X150550Y178750D01*
X150550Y179700D02*
X141550Y179700D01*
X141550Y180650D02*
X150550Y180650D01*
X150550Y181600D02*
X141550Y181600D01*
X141550Y182550D02*
X150550Y182550D01*
X150550Y183500D02*
X141550Y183500D01*
X141550Y184450D02*
X150550Y184450D01*
X212560Y166950D02*
X222560Y166950D01*
X212560Y166950D02*
X212560Y175950D01*
X222560Y175950D01*
X222560Y166950D01*
X222560Y167900D02*
X212560Y167900D01*
X212560Y168850D02*
X222560Y168850D01*
X222560Y169800D02*
X212560Y169800D01*
X212560Y170750D02*
X222560Y170750D01*
X222560Y171700D02*
X212560Y171700D01*
X212560Y172650D02*
X222560Y172650D01*
X222560Y173600D02*
X212560Y173600D01*
X212560Y174550D02*
X222560Y174550D01*
X222560Y175500D02*
X212560Y175500D01*
X229560Y166950D02*
X239560Y166950D01*
X229560Y166950D02*
X229560Y175950D01*
X239560Y175950D01*
X239560Y166950D01*
X239560Y167900D02*
X229560Y167900D01*
X229560Y168850D02*
X239560Y168850D01*
X239560Y169800D02*
X229560Y169800D01*
X229560Y170750D02*
X239560Y170750D01*
X239560Y171700D02*
X229560Y171700D01*
X229560Y172650D02*
X239560Y172650D01*
X239560Y173600D02*
X229560Y173600D01*
X229560Y174550D02*
X239560Y174550D01*
X239560Y175500D02*
X229560Y175500D01*
D16*
X127738Y135488D02*
X127738Y133762D01*
X126262Y133762D01*
X126262Y135488D01*
X127738Y135488D01*
X127738Y134736D02*
X126262Y134736D01*
X122738Y135488D02*
X122738Y133762D01*
X121262Y133762D01*
X121262Y135488D01*
X122738Y135488D01*
X122738Y134736D02*
X121262Y134736D01*
X132738Y135488D02*
X132738Y133762D01*
X131262Y133762D01*
X131262Y135488D01*
X132738Y135488D01*
X132738Y134736D02*
X131262Y134736D01*
X127738Y120238D02*
X127738Y118512D01*
X126262Y118512D01*
X126262Y120238D01*
X127738Y120238D01*
X127738Y119486D02*
X126262Y119486D01*
X122738Y120238D02*
X122738Y118512D01*
X121262Y118512D01*
X121262Y120238D01*
X122738Y120238D01*
X122738Y119486D02*
X121262Y119486D01*
X132738Y120238D02*
X132738Y118512D01*
X131262Y118512D01*
X131262Y120238D01*
X132738Y120238D01*
X132738Y119486D02*
X131262Y119486D01*
X120238Y123762D02*
X120238Y125238D01*
X120238Y123762D02*
X118512Y123762D01*
X118512Y125238D01*
X120238Y125238D01*
X120238Y124736D02*
X118512Y124736D01*
X120238Y128762D02*
X120238Y130238D01*
X120238Y128762D02*
X118512Y128762D01*
X118512Y130238D01*
X120238Y130238D01*
X120238Y129736D02*
X118512Y129736D01*
X135488Y125238D02*
X135488Y123762D01*
X133762Y123762D01*
X133762Y125238D01*
X135488Y125238D01*
X135488Y124736D02*
X133762Y124736D01*
X135488Y128762D02*
X135488Y130238D01*
X135488Y128762D02*
X133762Y128762D01*
X133762Y130238D01*
X135488Y130238D01*
X135488Y129736D02*
X133762Y129736D01*
D10*
X220400Y72700D02*
X220400Y62700D01*
X211400Y62700D01*
X211400Y72700D01*
X220400Y72700D01*
X220400Y63650D02*
X211400Y63650D01*
X211400Y64600D02*
X220400Y64600D01*
X220400Y65550D02*
X211400Y65550D01*
X211400Y66500D02*
X220400Y66500D01*
X220400Y67450D02*
X211400Y67450D01*
X211400Y68400D02*
X220400Y68400D01*
X220400Y69350D02*
X211400Y69350D01*
X211400Y70300D02*
X220400Y70300D01*
X220400Y71250D02*
X211400Y71250D01*
X211400Y72200D02*
X220400Y72200D01*
X220400Y79700D02*
X220400Y89700D01*
X220400Y79700D02*
X211400Y79700D01*
X211400Y89700D01*
X220400Y89700D01*
X220400Y80650D02*
X211400Y80650D01*
X211400Y81600D02*
X220400Y81600D01*
X220400Y82550D02*
X211400Y82550D01*
X211400Y83500D02*
X220400Y83500D01*
X220400Y84450D02*
X211400Y84450D01*
X211400Y85400D02*
X220400Y85400D01*
X220400Y86350D02*
X211400Y86350D01*
X211400Y87300D02*
X220400Y87300D01*
X220400Y88250D02*
X211400Y88250D01*
X211400Y89200D02*
X220400Y89200D01*
D17*
X127000Y149860D02*
X118764Y149860D01*
X127000Y149860D02*
X145396Y149860D01*
X173256Y122000D02*
X203200Y122000D01*
X173256Y122000D02*
X145396Y149860D01*
X100904Y132000D02*
X50800Y132000D01*
X100904Y132000D02*
X105737Y136833D01*
X115897Y146993D01*
X118764Y149860D01*
X76200Y63500D02*
X76200Y12700D01*
X76200Y63500D02*
X38100Y101600D01*
X38100Y127000D01*
X43100Y132000D01*
X50800Y132000D01*
D18*
X127000Y149860D02*
X127000Y162950D01*
X107950Y162950D01*
D19*
X215900Y121920D03*
D18*
X203280Y121920D01*
X203200Y122000D01*
D19*
X105737Y136833D03*
D18*
X122000Y134625D02*
X122000Y140890D01*
X115897Y146993D01*
X113070Y129500D02*
X119375Y129500D01*
X113070Y129500D02*
X105737Y136833D01*
D20*
X221869Y115503D02*
X221869Y109288D01*
X215900Y103319D02*
X215900Y84700D01*
X215900Y121472D02*
X215900Y121920D01*
X221869Y109288D02*
X215900Y103319D01*
X221869Y115503D02*
X215900Y121472D01*
D18*
X129540Y142240D02*
X127000Y142240D01*
X129540Y142240D02*
X132000Y142240D01*
D19*
X129540Y142240D03*
X114300Y25400D03*
X139700Y25400D03*
X165100Y25400D03*
X241300Y12700D03*
X190500Y241300D03*
X63500Y241300D03*
X127000Y191770D03*
X106680Y104140D03*
X88900Y25400D03*
X57150Y102870D03*
X63500Y142240D03*
X215900Y113030D03*
X160020Y123190D03*
X101600Y78740D03*
X167640Y87630D03*
X184150Y113030D03*
X163830Y171450D03*
X105410Y148590D03*
X130810Y96520D03*
X85090Y121920D03*
X181610Y140970D03*
X74930Y105410D03*
X127000Y66040D03*
X195580Y184150D03*
X90170Y171450D03*
X152400Y76200D03*
X149860Y92710D03*
D18*
X127000Y134625D02*
X127000Y142240D01*
X132000Y142240D02*
X132000Y134625D01*
D19*
X228600Y113030D03*
X190500Y57150D03*
D18*
X101600Y25400D02*
X101600Y12700D01*
X101600Y25400D02*
X114300Y38100D01*
X114300Y66430D01*
D19*
X124460Y82550D03*
D18*
X124460Y76590D02*
X114300Y66430D01*
X124460Y76590D02*
X124460Y82550D01*
X124460Y110490D01*
X177800Y132000D02*
X203200Y132000D01*
D19*
X177800Y132000D03*
X76130Y122070D03*
D18*
X50870Y122070D01*
X50800Y122000D01*
X127000Y119375D02*
X127000Y113030D01*
X124460Y110490D01*
X139700Y38100D02*
X127000Y25400D01*
X127000Y12700D01*
X139700Y38100D02*
X139700Y54610D01*
X139700Y66430D01*
X63500Y112000D02*
X50800Y112000D01*
X63500Y112000D02*
X100440Y112000D01*
D19*
X63500Y112000D03*
D18*
X190500Y142000D02*
X203200Y142000D01*
D19*
X190500Y142000D03*
X139700Y54610D03*
D18*
X119375Y124500D02*
X112940Y124500D01*
X100440Y112000D01*
X152400Y102870D02*
X161290Y93980D01*
X161290Y34290D01*
X152400Y25400D01*
X152400Y12700D01*
D19*
X152400Y102870D03*
D18*
X144780Y110490D01*
X132000Y113210D02*
X132000Y119375D01*
X132000Y113210D02*
X134720Y110490D01*
X144780Y110490D01*
X182880Y88900D02*
X182880Y33020D01*
X203200Y12700D01*
X142280Y129500D02*
X134625Y129500D01*
X142280Y129500D02*
X182880Y88900D01*
X177800Y69850D02*
X177800Y12700D01*
X177800Y69850D02*
X177800Y87630D01*
X140930Y124500D02*
X134625Y124500D01*
X140930Y124500D02*
X177800Y87630D01*
D21*
X176304Y69850D03*
D20*
X177800Y69850D01*
D18*
X99597Y171597D02*
X107950Y179950D01*
X99597Y171597D02*
X98913Y171597D01*
D19*
X98913Y171597D03*
D18*
X146050Y179950D02*
X154403Y171597D01*
X155087Y171597D01*
D19*
X155087Y171597D03*
D18*
X139700Y95250D02*
X139700Y83430D01*
D19*
X139700Y95250D03*
D18*
X114300Y95250D02*
X114300Y83430D01*
D19*
X114300Y95250D03*
D18*
X204470Y190500D02*
X217290Y190500D01*
D19*
X204470Y190500D03*
D18*
X234560Y190230D02*
X234560Y171450D01*
X234560Y190230D02*
X234830Y190500D01*
D21*
X204470Y71120D03*
D20*
X207890Y67700D01*
X215900Y67700D01*
M02*
