M48
;GenerationSoftware,Autodesk,EAGLE,9.6.2*%
;CreationDate,2022-05-25T23:19:25Z*%
FMAT,2
ICI,OFF
METRIC,TZ,000.000
T3C0.305
T2C1.016
T1C3.302
%
G90
M71
T1
X22860Y74676
X132080Y100584
X2540Y22860
X22860Y22860
X28448Y22860
X48768Y22860
X54356Y22860
X74676Y22860
X80264Y22860
X100584Y22860
X106172Y22860
X126492Y22860
X132080Y22860
X152400Y22860
X2540Y48768
X22860Y48768
X28448Y48768
X48768Y48768
X54356Y48768
X74676Y48768
X80264Y48768
X100584Y48768
X106172Y48768
X126492Y48768
X132080Y48768
X152400Y48768
X2540Y74676
X152400Y100584
X28448Y74676
X48768Y74676
X54356Y74676
X74676Y74676
X80264Y74676
X100584Y74676
X106172Y74676
X126492Y74676
X132080Y74676
X152400Y74676
X2540Y100584
X22860Y100584
X28448Y100584
X48768Y100584
X54356Y100584
X74676Y100584
X80264Y100584
X100584Y100584
X106172Y100584
X126492Y100584
T2
X56896Y1270
X149860Y78994
X5080Y1270
X7620Y1270
X10160Y1270
X12700Y1270
X15240Y1270
X17780Y1270
X20320Y1270
X30988Y1270
X33528Y1270
X36068Y1270
X38608Y1270
X41148Y1270
X43688Y1270
X46228Y1270
X59436Y1270
X61976Y1270
X64516Y1270
X67056Y1270
X69596Y1270
X72136Y1270
X82804Y1270
X85344Y1270
X87884Y1270
X90424Y1270
X92964Y1270
X95504Y1270
X98044Y1270
X108712Y1270
X111252Y1270
X113792Y1270
X116332Y1270
X118872Y1270
X121412Y1270
X123952Y1270
X134620Y1270
X137160Y1270
X139700Y1270
X142240Y1270
X144780Y1270
X147320Y1270
X149860Y1270
X5080Y27178
X7620Y27178
X10160Y27178
X12700Y27178
X15240Y27178
X17780Y27178
X20320Y27178
X30988Y27178
X33528Y27178
X36068Y27178
X38608Y27178
X41148Y27178
X43688Y27178
X46228Y27178
X56896Y27178
X59436Y27178
X61976Y27178
X64516Y27178
X67056Y27178
X69596Y27178
X72136Y27178
X82804Y27178
X85344Y27178
X87884Y27178
X90424Y27178
X92964Y27178
X95504Y27178
X98044Y27178
X108712Y27178
X111252Y27178
X113792Y27178
X116332Y27178
X118872Y27178
X121412Y27178
X123952Y27178
X134620Y27178
X137160Y27178
X139700Y27178
X142240Y27178
X144780Y27178
X147320Y27178
X149860Y27178
X5080Y53086
X7620Y53086
X10160Y53086
X12700Y53086
X15240Y53086
X17780Y53086
X20320Y53086
X30988Y53086
X33528Y53086
X36068Y53086
X38608Y53086
X41148Y53086
X43688Y53086
X46228Y53086
X56896Y53086
X59436Y53086
X61976Y53086
X64516Y53086
X67056Y53086
X69596Y53086
X72136Y53086
X82804Y53086
X85344Y53086
X87884Y53086
X90424Y53086
X92964Y53086
X95504Y53086
X98044Y53086
X108712Y53086
X111252Y53086
X113792Y53086
X116332Y53086
X118872Y53086
X121412Y53086
X123952Y53086
X134620Y53086
X137160Y53086
X139700Y53086
X142240Y53086
X144780Y53086
X147320Y53086
X149860Y53086
X5080Y78994
X7620Y78994
X10160Y78994
X12700Y78994
X15240Y78994
X17780Y78994
X20320Y78994
X30988Y78994
X33528Y78994
X36068Y78994
X38608Y78994
X41148Y78994
X43688Y78994
X46228Y78994
X56896Y78994
X59436Y78994
X61976Y78994
X64516Y78994
X67056Y78994
X69596Y78994
X72136Y78994
X82804Y78994
X85344Y78994
X87884Y78994
X90424Y78994
X92964Y78994
X95504Y78994
X98044Y78994
X108712Y78994
X111252Y78994
X113792Y78994
X116332Y78994
X118872Y78994
X121412Y78994
X123952Y78994
X134620Y78994
X137160Y78994
X139700Y78994
X142240Y78994
X144780Y78994
X147320Y78994
T3
X153670Y1270
X148590Y24130
X135890Y24130
X142240Y19177
X140208Y10414
X138430Y2540
X135255Y10287
X135890Y14224
X151130Y11303
X145542Y12319
X139700Y7874
X146304Y8763
X147955Y11303
X145923Y17145
X140081Y14859
X142621Y9652
X138049Y12192
X147701Y14097
X137033Y10541
X142240Y6604
X149098Y18415
X138557Y17145
X144780Y7620
X144526Y9271
X141986Y8255
X147320Y13200
X137153Y12207
X135890Y11200
X148590Y14200
X143510Y5461
X144780Y10287
X139431Y17160
X145049Y17160
X143510Y9525
X140970Y9525
X149987Y19050
X21590Y38100
X10574Y39591
X12954Y40132
X11430Y28448
X13970Y28448
X16510Y28448
X24130Y27178
X19050Y50038
X6350Y50038
X12700Y45085
X10668Y36322
X8890Y28448
X5715Y36195
X6350Y40132
X21590Y37211
X16002Y38227
X10160Y33782
X16764Y34671
X18415Y37211
X16383Y43053
X10541Y40767
X13081Y35560
X8509Y38100
X18161Y40005
X7493Y36449
X12700Y32512
X19558Y44323
X9017Y43053
X15240Y33528
X14986Y35179
X12446Y34163
X17780Y39108
X7613Y38115
X6350Y37108
X19050Y40108
X13970Y31369
X15240Y36195
X9891Y43068
X15509Y43068
X13970Y35433
X11430Y35433
X20447Y44958
X47498Y38100
X36482Y39591
X38862Y40132
X37338Y28448
X39878Y28448
X42418Y28448
X50038Y27178
X44958Y50038
X32258Y50038
X38608Y45085
X36576Y36322
X34798Y28448
X31623Y36195
X32258Y40132
X47498Y37211
X41910Y38227
X36068Y33782
X42672Y34671
X44323Y37211
X42291Y43053
X36449Y40767
X38989Y35560
X34417Y38100
X44069Y40005
X33401Y36449
X38608Y32512
X45466Y44323
X34925Y43053
X41148Y33528
X40894Y35179
X38354Y34163
X43688Y39108
X33521Y38115
X32258Y37108
X44958Y40108
X39878Y31369
X41148Y36195
X35799Y43068
X41417Y43068
X39878Y35433
X37338Y35433
X46355Y44958
X73406Y38100
X62390Y39591
X64770Y40132
X63246Y28448
X65786Y28448
X68326Y28448
X75946Y27178
X70866Y50038
X58166Y50038
X64516Y45085
X62484Y36322
X60706Y28448
X57531Y36195
X58166Y40132
X73406Y37211
X67818Y38227
X61976Y33782
X68580Y34671
X70231Y37211
X68199Y43053
X62357Y40767
X64897Y35560
X60325Y38100
X69977Y40005
X59309Y36449
X64516Y32512
X71374Y44323
X60833Y43053
X67056Y33528
X66802Y35179
X64262Y34163
X69596Y39108
X59429Y38115
X58166Y37108
X70866Y40108
X65786Y31369
X67056Y36195
X61707Y43068
X67325Y43068
X65786Y35433
X63246Y35433
X72263Y44958
X99314Y38100
X88298Y39591
X90678Y40132
X89154Y28448
X91694Y28448
X94234Y28448
X101854Y27178
X96774Y50038
X84074Y50038
X90424Y45085
X88392Y36322
X86614Y28448
X83439Y36195
X84074Y40132
X99314Y37211
X93726Y38227
X87884Y33782
X94488Y34671
X96139Y37211
X94107Y43053
X88265Y40767
X90805Y35560
X86233Y38100
X95885Y40005
X85217Y36449
X90424Y32512
X97282Y44323
X86741Y43053
X92964Y33528
X92710Y35179
X90170Y34163
X95504Y39108
X85337Y38115
X84074Y37108
X96774Y40108
X91694Y31369
X92964Y36195
X87615Y43068
X93233Y43068
X91694Y35433
X89154Y35433
X98171Y44958
X125222Y38100
X114206Y39591
X116586Y40132
X115062Y28448
X117602Y28448
X120142Y28448
X127762Y27178
X122682Y50038
X109982Y50038
X116332Y45085
X114300Y36322
X112522Y28448
X109347Y36195
X109982Y40132
X125222Y37211
X119634Y38227
X113792Y33782
X120396Y34671
X122047Y37211
X120015Y43053
X114173Y40767
X116713Y35560
X112141Y38100
X121793Y40005
X111125Y36449
X116332Y32512
X123190Y44323
X112649Y43053
X118872Y33528
X118618Y35179
X116078Y34163
X121412Y39108
X111245Y38115
X109982Y37108
X122682Y40108
X117602Y31369
X118872Y36195
X113523Y43068
X119141Y43068
X117602Y35433
X115062Y35433
X124079Y44958
X151130Y38100
X140114Y39591
X142494Y40132
X140970Y28448
X143510Y28448
X146050Y28448
X153670Y27178
X148590Y50038
X135890Y50038
X142240Y45085
X140208Y36322
X138430Y28448
X135255Y36195
X135890Y40132
X151130Y37211
X145542Y38227
X139700Y33782
X146304Y34671
X147955Y37211
X145923Y43053
X140081Y40767
X142621Y35560
X138049Y38100
X147701Y40005
X137033Y36449
X142240Y32512
X149098Y44323
X138557Y43053
X144780Y33528
X144526Y35179
X141986Y34163
X147320Y39108
X137153Y38115
X135890Y37108
X148590Y40108
X143510Y31369
X144780Y36195
X139431Y43068
X145049Y43068
X143510Y35433
X140970Y35433
X149987Y44958
X21590Y64008
X10574Y65499
X12954Y66040
X11430Y54356
X13970Y54356
X16510Y54356
X24130Y53086
X19050Y75946
X6350Y75946
X12700Y70993
X10668Y62230
X8890Y54356
X5715Y62103
X6350Y66040
X21590Y63119
X16002Y64135
X10160Y59690
X16764Y60579
X18415Y63119
X16383Y68961
X10541Y66675
X13081Y61468
X8509Y64008
X18161Y65913
X7493Y62357
X12700Y58420
X19558Y70231
X9017Y68961
X15240Y59436
X14986Y61087
X12446Y60071
X17780Y65016
X7613Y64023
X6350Y63016
X19050Y66016
X13970Y57277
X15240Y62103
X9891Y68976
X15509Y68976
X13970Y61341
X11430Y61341
X20447Y70866
X47498Y64008
X36482Y65499
X38862Y66040
X37338Y54356
X39878Y54356
X42418Y54356
X50038Y53086
X44958Y75946
X32258Y75946
X38608Y70993
X36576Y62230
X34798Y54356
X31623Y62103
X32258Y66040
X47498Y63119
X41910Y64135
X36068Y59690
X42672Y60579
X44323Y63119
X42291Y68961
X36449Y66675
X38989Y61468
X34417Y64008
X44069Y65913
X33401Y62357
X38608Y58420
X45466Y70231
X34925Y68961
X41148Y59436
X40894Y61087
X38354Y60071
X43688Y65016
X33521Y64023
X32258Y63016
X44958Y66016
X39878Y57277
X41148Y62103
X35799Y68976
X41417Y68976
X39878Y61341
X37338Y61341
X46355Y70866
X73406Y64008
X62390Y65499
X64770Y66040
X63246Y54356
X65786Y54356
X68326Y54356
X75946Y53086
X70866Y75946
X58166Y75946
X64516Y70993
X62484Y62230
X60706Y54356
X57531Y62103
X58166Y66040
X73406Y63119
X67818Y64135
X61976Y59690
X68580Y60579
X70231Y63119
X68199Y68961
X62357Y66675
X64897Y61468
X60325Y64008
X69977Y65913
X86741Y17145
X64516Y58420
X71374Y70231
X60833Y68961
X67056Y59436
X66802Y61087
X64262Y60071
X69596Y65016
X59429Y64023
X58166Y63016
X70866Y66016
X65786Y57277
X67056Y62103
X61707Y68976
X67325Y68976
X65786Y61341
X63246Y61341
X72263Y70866
X99314Y64008
X88298Y65499
X90678Y66040
X89154Y54356
X91694Y54356
X94234Y54356
X101854Y53086
X96774Y75946
X84074Y75946
X90424Y70993
X88392Y62230
X86614Y54356
X83439Y62103
X84074Y66040
X99314Y63119
X93726Y64135
X87884Y59690
X94488Y60579
X96139Y63119
X94107Y68961
X88265Y66675
X90805Y61468
X86233Y64008
X95885Y65913
X85217Y62357
X90424Y58420
X97282Y70231
X86741Y68961
X92964Y59436
X92710Y61087
X90170Y60071
X95504Y65016
X85337Y64023
X84074Y63016
X96774Y66016
X91694Y57277
X92964Y62103
X87615Y68976
X93233Y68976
X91694Y61341
X89154Y61341
X98171Y70866
X125222Y64008
X114206Y65499
X116586Y66040
X115062Y54356
X117602Y54356
X120142Y54356
X127762Y53086
X122682Y75946
X109982Y75946
X116332Y70993
X114300Y62230
X112522Y54356
X109347Y62103
X109982Y66040
X125222Y63119
X119634Y64135
X113792Y59690
X120396Y60579
X122047Y63119
X120015Y68961
X114173Y66675
X116713Y61468
X112141Y64008
X121793Y65913
X111125Y62357
X116332Y58420
X123190Y70231
X112649Y68961
X118872Y59436
X118618Y61087
X116078Y60071
X121412Y65016
X111245Y64023
X109982Y63016
X122682Y66016
X117602Y57277
X118872Y62103
X113523Y68976
X119141Y68976
X117602Y61341
X115062Y61341
X124079Y70866
X151130Y64008
X140114Y65499
X142494Y66040
X140970Y54356
X143510Y54356
X146050Y54356
X153670Y53086
X148590Y75946
X135890Y75946
X142240Y70993
X140208Y62230
X138430Y54356
X135255Y62103
X135890Y66040
X151130Y63119
X145542Y64135
X139700Y59690
X146304Y60579
X147955Y63119
X145923Y68961
X140081Y66675
X142621Y61468
X138049Y64008
X147701Y65913
X137033Y62357
X142240Y58420
X149098Y70231
X138557Y68961
X144780Y59436
X144526Y61087
X141986Y60071
X147320Y65016
X137153Y64023
X135890Y63016
X148590Y66016
X143510Y57277
X144780Y62103
X139431Y68976
X145049Y68976
X143510Y61341
X140970Y61341
X149987Y70866
X21590Y89916
X10574Y91407
X12954Y91948
X11430Y80264
X13970Y80264
X16510Y80264
X24130Y78994
X19050Y101854
X6350Y101854
X12700Y96901
X10668Y88138
X8890Y80264
X5715Y88011
X6350Y91948
X21590Y89027
X16002Y90043
X10160Y85598
X16764Y86487
X18415Y89027
X16383Y94869
X10541Y92583
X13081Y87376
X8509Y89916
X18161Y91821
X7493Y88265
X12700Y84328
X19558Y96139
X9017Y94869
X15240Y85344
X14986Y86995
X12446Y85979
X17780Y90924
X7613Y89931
X6350Y88924
X19050Y91924
X13970Y83185
X15240Y88011
X9891Y94884
X15509Y94884
X13970Y87249
X11430Y87249
X20447Y96774
X47498Y89916
X36482Y91407
X38862Y91948
X37338Y80264
X39878Y80264
X42418Y80264
X50038Y78994
X44958Y101854
X32258Y101854
X38608Y96901
X36576Y88138
X34798Y80264
X31623Y88011
X32258Y91948
X47498Y89027
X41910Y90043
X36068Y85598
X42672Y86487
X44323Y89027
X42291Y94869
X36449Y92583
X38989Y87376
X34417Y89916
X44069Y91821
X33401Y88265
X38608Y84328
X45466Y96139
X34925Y94869
X41148Y85344
X40894Y86995
X38354Y85979
X43688Y90924
X33521Y89931
X32258Y88924
X44958Y91924
X39878Y83185
X41148Y88011
X35799Y94884
X41417Y94884
X39878Y87249
X37338Y87249
X46355Y96774
X73406Y89916
X62390Y91407
X64770Y91948
X63246Y80264
X65786Y80264
X68326Y80264
X75946Y78994
X70866Y101854
X58166Y101854
X64516Y96901
X62484Y88138
X60706Y80264
X57531Y88011
X58166Y91948
X73406Y89027
X67818Y90043
X61976Y85598
X68580Y86487
X70231Y89027
X68199Y94869
X62357Y92583
X64897Y87376
X60325Y89916
X69977Y91821
X59309Y88265
X64516Y84328
X71374Y96139
X60833Y94869
X67056Y85344
X66802Y86995
X64262Y85979
X69596Y90924
X59429Y89931
X58166Y88924
X70866Y91924
X65786Y83185
X67056Y88011
X61707Y94884
X67325Y94884
X65786Y87249
X63246Y87249
X72263Y96774
X99314Y89916
X88298Y91407
X90678Y91948
X89154Y80264
X91694Y80264
X94234Y80264
X101854Y78994
X96774Y101854
X84074Y101854
X90424Y96901
X88392Y88138
X86614Y80264
X83439Y88011
X84074Y91948
X99314Y89027
X93726Y90043
X87884Y85598
X94488Y86487
X96139Y89027
X94107Y94869
X88265Y92583
X90805Y87376
X86233Y89916
X95885Y91821
X85217Y88265
X90424Y84328
X97282Y96139
X86741Y94869
X92964Y85344
X92710Y86995
X90170Y85979
X95504Y90924
X85337Y89931
X84074Y88924
X96774Y91924
X21590Y12192
X92964Y88011
X87615Y94884
X93233Y94884
X91694Y87249
X89154Y87249
X98171Y96774
X125222Y89916
X114206Y91407
X116586Y91948
X115062Y80264
X117602Y80264
X120142Y80264
X127762Y78994
X122682Y101854
X109982Y101854
X116332Y96901
X114300Y88138
X112522Y80264
X109347Y88011
X109982Y91948
X125222Y89027
X119634Y90043
X113792Y85598
X120396Y86487
X122047Y89027
X120015Y94869
X114173Y92583
X116713Y87376
X112141Y89916
X121793Y91821
X111125Y88265
X116332Y84328
X123190Y96139
X112649Y94869
X118872Y85344
X118618Y86995
X116078Y85979
X121412Y90924
X111245Y89931
X109982Y88924
X122682Y91924
X117602Y83185
X118872Y88011
X113523Y94884
X119141Y94884
X117602Y87249
X115062Y87249
X124079Y96774
X151130Y89916
X140114Y91407
X142494Y91948
X140970Y80264
X143510Y80264
X146050Y80264
X153670Y78994
X148590Y101854
X135890Y101854
X142240Y96901
X140208Y88138
X138430Y80264
X135255Y88011
X135890Y91948
X151130Y89027
X145542Y90043
X139700Y85598
X146304Y86487
X147955Y89027
X145923Y94869
X140081Y92583
X142621Y87376
X138049Y89916
X147701Y91821
X137033Y88265
X142240Y84328
X149098Y96139
X138557Y94869
X144780Y85344
X144526Y86995
X141986Y85979
X147320Y90924
X137153Y89931
X135890Y88924
X148590Y91924
X143510Y83185
X144780Y88011
X139431Y94884
X145049Y94884
X143510Y87249
X140970Y87249
X149987Y96774
X10574Y13683
X12954Y14224
X11430Y2540
X13970Y2540
X16510Y2540
X24130Y1270
X19050Y24130
X6350Y24130
X12700Y19177
X10668Y10414
X8890Y2540
X5715Y10287
X6350Y14224
X21590Y11303
X16002Y12319
X10160Y7874
X16764Y8763
X18415Y11303
X16383Y17145
X10541Y14859
X13081Y9652
X8509Y12192
X18161Y14097
X7493Y10541
X12700Y6604
X19558Y18415
X9017Y17145
X15240Y7620
X14986Y9271
X12446Y8255
X17780Y13200
X7613Y12207
X6350Y11200
X19050Y14200
X13970Y5461
X15240Y10287
X9891Y17160
X15509Y17160
X13970Y9525
X11430Y9525
X20447Y19050
X47498Y12192
X36482Y13683
X38862Y14224
X37338Y2540
X39878Y2540
X42418Y2540
X50038Y1270
X44958Y24130
X32258Y24130
X38608Y19177
X36576Y10414
X34798Y2540
X31623Y10287
X32258Y14224
X47498Y11303
X41910Y12319
X36068Y7874
X42672Y8763
X44323Y11303
X42291Y17145
X36449Y14859
X59309Y62357
X38989Y9652
X34417Y12192
X44069Y14097
X33401Y10541
X38608Y6604
X45466Y18415
X34925Y17145
X41148Y7620
X40894Y9271
X38354Y8255
X43688Y13200
X33521Y12207
X32258Y11200
X44958Y14200
X39878Y5461
X41148Y10287
X35799Y17160
X41417Y17160
X39878Y9525
X37338Y9525
X46355Y19050
X73406Y12192
X62390Y13683
X64770Y14224
X63246Y2540
X65786Y2540
X68326Y2540
X75946Y1270
X70866Y24130
X58166Y24130
X64516Y19177
X62484Y10414
X60706Y2540
X57531Y10287
X58166Y14224
X73406Y11303
X67818Y12319
X61976Y7874
X68580Y8763
X70231Y11303
X68199Y17145
X62357Y14859
X64897Y9652
X60325Y12192
X69977Y14097
X59309Y10541
X64516Y6604
X71374Y18415
X60833Y17145
X67056Y7620
X66802Y9271
X64262Y8255
X69596Y13200
X59429Y12207
X58166Y11200
X70866Y14200
X65786Y5461
X67056Y10287
X61707Y17160
X67325Y17160
X65786Y9525
X63246Y9525
X72263Y19050
X99314Y12192
X88298Y13683
X90678Y14224
X89154Y2540
X91694Y2540
X94234Y2540
X101854Y1270
X96774Y24130
X84074Y24130
X90424Y19177
X88392Y10414
X86614Y2540
X83439Y10287
X84074Y14224
X99314Y11303
X93726Y12319
X87884Y7874
X94488Y8763
X96139Y11303
X94107Y17145
X88265Y14859
X90805Y9652
X86233Y12192
X95885Y14097
X85217Y10541
X90424Y6604
X97282Y18415
X92964Y7620
X92710Y9271
X90170Y8255
X95504Y13200
X85337Y12207
X84074Y11200
X96774Y14200
X91694Y5461
X92964Y10287
X87615Y17160
X93233Y17160
X91694Y9525
X89154Y9525
X98171Y19050
X125222Y12192
X114206Y13683
X116586Y14224
X115062Y2540
X117602Y2540
X120142Y2540
X127762Y1270
X122682Y24130
X109982Y24130
X116332Y19177
X114300Y10414
X112522Y2540
X109347Y10287
X109982Y14224
X125222Y11303
X119634Y12319
X113792Y7874
X120396Y8763
X122047Y11303
X120015Y17145
X114173Y14859
X116713Y9652
X112141Y12192
X121793Y14097
X111125Y10541
X116332Y6604
X123190Y18415
X112649Y17145
X118872Y7620
X118618Y9271
X116078Y8255
X121412Y13200
X111245Y12207
X109982Y11200
X122682Y14200
X117602Y5461
X118872Y10287
X113523Y17160
X119141Y17160
X117602Y9525
X115062Y9525
X124079Y19050
X151130Y12192
X140114Y13683
X142494Y14224
X140970Y2540
X143510Y2540
X146050Y2540
X91694Y83185
M30