G04 EAGLE Gerber RS-274X export*
G75*
%MOMM*%
%FSLAX34Y34*%
%LPD*%
%INSoldermask Top*%
%IPPOS*%
%AMOC8*
5,1,8,0,0,1.08239X$1,22.5*%
G01*
%ADD10C,0.253525*%
%ADD11C,0.449434*%
%ADD12C,1.152400*%
%ADD13C,3.454400*%
%ADD14C,0.243431*%
%ADD15C,0.255816*%
%ADD16C,2.032000*%
%ADD17C,0.253509*%
%ADD18C,1.270000*%
%ADD19C,1.652400*%


D10*
X131495Y167945D02*
X131495Y157955D01*
X122505Y157955D01*
X122505Y167945D01*
X131495Y167945D01*
X131495Y160363D02*
X122505Y160363D01*
X122505Y162771D02*
X131495Y162771D01*
X131495Y165179D02*
X122505Y165179D01*
X122505Y167587D02*
X131495Y167587D01*
X131495Y174955D02*
X131495Y184945D01*
X131495Y174955D02*
X122505Y174955D01*
X122505Y184945D01*
X131495Y184945D01*
X131495Y177363D02*
X122505Y177363D01*
X122505Y179771D02*
X131495Y179771D01*
X131495Y182179D02*
X122505Y182179D01*
X122505Y184587D02*
X131495Y184587D01*
D11*
X231315Y186985D02*
X231315Y194015D01*
X238345Y194015D01*
X238345Y186985D01*
X231315Y186985D01*
X231315Y191254D02*
X238345Y191254D01*
X213775Y194015D02*
X213775Y186985D01*
X213775Y194015D02*
X220805Y194015D01*
X220805Y186985D01*
X213775Y186985D01*
X213775Y191254D02*
X220805Y191254D01*
D12*
X203200Y215900D03*
X12700Y12700D03*
D13*
X25400Y228600D03*
X228600Y228600D03*
D14*
X4505Y160545D02*
X4505Y149455D01*
X4505Y160545D02*
X23595Y160545D01*
X23595Y149455D01*
X4505Y149455D01*
X4505Y151767D02*
X23595Y151767D01*
X23595Y154079D02*
X4505Y154079D01*
X4505Y156391D02*
X23595Y156391D01*
X23595Y158703D02*
X4505Y158703D01*
X4505Y104545D02*
X4505Y93455D01*
X4505Y104545D02*
X23595Y104545D01*
X23595Y93455D01*
X4505Y93455D01*
X4505Y95767D02*
X23595Y95767D01*
X23595Y98079D02*
X4505Y98079D01*
X4505Y100391D02*
X23595Y100391D01*
X23595Y102703D02*
X4505Y102703D01*
D15*
X44567Y139517D02*
X44567Y144483D01*
X57033Y144483D01*
X57033Y139517D01*
X44567Y139517D01*
X44567Y141947D02*
X57033Y141947D01*
X57033Y144377D02*
X44567Y144377D01*
X44567Y134483D02*
X44567Y129517D01*
X44567Y134483D02*
X57033Y134483D01*
X57033Y129517D01*
X44567Y129517D01*
X44567Y131947D02*
X57033Y131947D01*
X57033Y134377D02*
X44567Y134377D01*
X44567Y124483D02*
X44567Y119517D01*
X44567Y124483D02*
X57033Y124483D01*
X57033Y119517D01*
X44567Y119517D01*
X44567Y121947D02*
X57033Y121947D01*
X57033Y124377D02*
X44567Y124377D01*
X44567Y114483D02*
X44567Y109517D01*
X44567Y114483D02*
X57033Y114483D01*
X57033Y109517D01*
X44567Y109517D01*
X44567Y111947D02*
X57033Y111947D01*
X57033Y114377D02*
X44567Y114377D01*
D14*
X249495Y104545D02*
X249495Y93455D01*
X230405Y93455D01*
X230405Y104545D01*
X249495Y104545D01*
X249495Y95767D02*
X230405Y95767D01*
X230405Y98079D02*
X249495Y98079D01*
X249495Y100391D02*
X230405Y100391D01*
X230405Y102703D02*
X249495Y102703D01*
X249495Y149455D02*
X249495Y160545D01*
X249495Y149455D02*
X230405Y149455D01*
X230405Y160545D01*
X249495Y160545D01*
X249495Y151767D02*
X230405Y151767D01*
X230405Y154079D02*
X249495Y154079D01*
X249495Y156391D02*
X230405Y156391D01*
X230405Y158703D02*
X249495Y158703D01*
D15*
X209433Y114483D02*
X209433Y109517D01*
X196967Y109517D01*
X196967Y114483D01*
X209433Y114483D01*
X209433Y111947D02*
X196967Y111947D01*
X196967Y114377D02*
X209433Y114377D01*
X209433Y119517D02*
X209433Y124483D01*
X209433Y119517D02*
X196967Y119517D01*
X196967Y124483D01*
X209433Y124483D01*
X209433Y121947D02*
X196967Y121947D01*
X196967Y124377D02*
X209433Y124377D01*
X209433Y129517D02*
X209433Y134483D01*
X209433Y129517D02*
X196967Y129517D01*
X196967Y134483D01*
X209433Y134483D01*
X209433Y131947D02*
X196967Y131947D01*
X196967Y134377D02*
X209433Y134377D01*
X209433Y139517D02*
X209433Y144483D01*
X209433Y139517D02*
X196967Y139517D01*
X196967Y144483D01*
X209433Y144483D01*
X209433Y141947D02*
X196967Y141947D01*
X196967Y144377D02*
X209433Y144377D01*
D16*
X50800Y12700D03*
X76200Y12700D03*
X101600Y12700D03*
X127000Y12700D03*
X152400Y12700D03*
X177800Y12700D03*
X203200Y12700D03*
D10*
X118795Y61435D02*
X118795Y71425D01*
X118795Y61435D02*
X109805Y61435D01*
X109805Y71425D01*
X118795Y71425D01*
X118795Y63843D02*
X109805Y63843D01*
X109805Y66251D02*
X118795Y66251D01*
X118795Y68659D02*
X109805Y68659D01*
X109805Y71067D02*
X118795Y71067D01*
X118795Y78435D02*
X118795Y88425D01*
X118795Y78435D02*
X109805Y78435D01*
X109805Y88425D01*
X118795Y88425D01*
X118795Y80843D02*
X109805Y80843D01*
X109805Y83251D02*
X118795Y83251D01*
X118795Y85659D02*
X109805Y85659D01*
X109805Y88067D02*
X118795Y88067D01*
X135205Y88425D02*
X135205Y78435D01*
X135205Y88425D02*
X144195Y88425D01*
X144195Y78435D01*
X135205Y78435D01*
X135205Y80843D02*
X144195Y80843D01*
X144195Y83251D02*
X135205Y83251D01*
X135205Y85659D02*
X144195Y85659D01*
X144195Y88067D02*
X135205Y88067D01*
X135205Y71425D02*
X135205Y61435D01*
X135205Y71425D02*
X144195Y71425D01*
X144195Y61435D01*
X135205Y61435D01*
X135205Y63843D02*
X144195Y63843D01*
X144195Y66251D02*
X135205Y66251D01*
X135205Y68659D02*
X144195Y68659D01*
X144195Y71067D02*
X135205Y71067D01*
X103455Y174955D02*
X103455Y184945D01*
X112445Y184945D01*
X112445Y174955D01*
X103455Y174955D01*
X103455Y177363D02*
X112445Y177363D01*
X112445Y179771D02*
X103455Y179771D01*
X103455Y182179D02*
X112445Y182179D01*
X112445Y184587D02*
X103455Y184587D01*
X103455Y167945D02*
X103455Y157955D01*
X103455Y167945D02*
X112445Y167945D01*
X112445Y157955D01*
X103455Y157955D01*
X103455Y160363D02*
X112445Y160363D01*
X112445Y162771D02*
X103455Y162771D01*
X103455Y165179D02*
X112445Y165179D01*
X112445Y167587D02*
X103455Y167587D01*
X150545Y167945D02*
X150545Y157955D01*
X141555Y157955D01*
X141555Y167945D01*
X150545Y167945D01*
X150545Y160363D02*
X141555Y160363D01*
X141555Y162771D02*
X150545Y162771D01*
X150545Y165179D02*
X141555Y165179D01*
X141555Y167587D02*
X150545Y167587D01*
X150545Y174955D02*
X150545Y184945D01*
X150545Y174955D02*
X141555Y174955D01*
X141555Y184945D01*
X150545Y184945D01*
X150545Y177363D02*
X141555Y177363D01*
X141555Y179771D02*
X150545Y179771D01*
X150545Y182179D02*
X141555Y182179D01*
X141555Y184587D02*
X150545Y184587D01*
X212565Y166955D02*
X222555Y166955D01*
X212565Y166955D02*
X212565Y175945D01*
X222555Y175945D01*
X222555Y166955D01*
X222555Y169363D02*
X212565Y169363D01*
X212565Y171771D02*
X222555Y171771D01*
X222555Y174179D02*
X212565Y174179D01*
X229565Y166955D02*
X239555Y166955D01*
X229565Y166955D02*
X229565Y175945D01*
X239555Y175945D01*
X239555Y166955D01*
X239555Y169363D02*
X229565Y169363D01*
X229565Y171771D02*
X239555Y171771D01*
X239555Y174179D02*
X229565Y174179D01*
D17*
X127745Y135495D02*
X127745Y133755D01*
X126255Y133755D01*
X126255Y135495D01*
X127745Y135495D01*
X122745Y135495D02*
X122745Y133755D01*
X121255Y133755D01*
X121255Y135495D01*
X122745Y135495D01*
X132745Y135495D02*
X132745Y133755D01*
X131255Y133755D01*
X131255Y135495D01*
X132745Y135495D01*
X127745Y120245D02*
X127745Y118505D01*
X126255Y118505D01*
X126255Y120245D01*
X127745Y120245D01*
X122745Y120245D02*
X122745Y118505D01*
X121255Y118505D01*
X121255Y120245D01*
X122745Y120245D01*
X132745Y120245D02*
X132745Y118505D01*
X131255Y118505D01*
X131255Y120245D01*
X132745Y120245D01*
X120245Y123755D02*
X120245Y125245D01*
X120245Y123755D02*
X118505Y123755D01*
X118505Y125245D01*
X120245Y125245D01*
X120245Y128755D02*
X120245Y130245D01*
X120245Y128755D02*
X118505Y128755D01*
X118505Y130245D01*
X120245Y130245D01*
X135495Y125245D02*
X135495Y123755D01*
X133755Y123755D01*
X133755Y125245D01*
X135495Y125245D01*
X135495Y128755D02*
X135495Y130245D01*
X135495Y128755D02*
X133755Y128755D01*
X133755Y130245D01*
X135495Y130245D01*
D10*
X390575Y157955D02*
X390575Y167945D01*
X390575Y157955D02*
X381585Y157955D01*
X381585Y167945D01*
X390575Y167945D01*
X390575Y160363D02*
X381585Y160363D01*
X381585Y162771D02*
X390575Y162771D01*
X390575Y165179D02*
X381585Y165179D01*
X381585Y167587D02*
X390575Y167587D01*
X390575Y174955D02*
X390575Y184945D01*
X390575Y174955D02*
X381585Y174955D01*
X381585Y184945D01*
X390575Y184945D01*
X390575Y177363D02*
X381585Y177363D01*
X381585Y179771D02*
X390575Y179771D01*
X390575Y182179D02*
X381585Y182179D01*
X381585Y184587D02*
X390575Y184587D01*
D11*
X490395Y186985D02*
X490395Y194015D01*
X497425Y194015D01*
X497425Y186985D01*
X490395Y186985D01*
X490395Y191254D02*
X497425Y191254D01*
X472855Y194015D02*
X472855Y186985D01*
X472855Y194015D02*
X479885Y194015D01*
X479885Y186985D01*
X472855Y186985D01*
X472855Y191254D02*
X479885Y191254D01*
D12*
X462280Y215900D03*
X271780Y12700D03*
D13*
X284480Y228600D03*
X487680Y228600D03*
D14*
X263585Y160545D02*
X263585Y149455D01*
X263585Y160545D02*
X282675Y160545D01*
X282675Y149455D01*
X263585Y149455D01*
X263585Y151767D02*
X282675Y151767D01*
X282675Y154079D02*
X263585Y154079D01*
X263585Y156391D02*
X282675Y156391D01*
X282675Y158703D02*
X263585Y158703D01*
X263585Y104545D02*
X263585Y93455D01*
X263585Y104545D02*
X282675Y104545D01*
X282675Y93455D01*
X263585Y93455D01*
X263585Y95767D02*
X282675Y95767D01*
X282675Y98079D02*
X263585Y98079D01*
X263585Y100391D02*
X282675Y100391D01*
X282675Y102703D02*
X263585Y102703D01*
D15*
X303647Y139517D02*
X303647Y144483D01*
X316113Y144483D01*
X316113Y139517D01*
X303647Y139517D01*
X303647Y141947D02*
X316113Y141947D01*
X316113Y144377D02*
X303647Y144377D01*
X303647Y134483D02*
X303647Y129517D01*
X303647Y134483D02*
X316113Y134483D01*
X316113Y129517D01*
X303647Y129517D01*
X303647Y131947D02*
X316113Y131947D01*
X316113Y134377D02*
X303647Y134377D01*
X303647Y124483D02*
X303647Y119517D01*
X303647Y124483D02*
X316113Y124483D01*
X316113Y119517D01*
X303647Y119517D01*
X303647Y121947D02*
X316113Y121947D01*
X316113Y124377D02*
X303647Y124377D01*
X303647Y114483D02*
X303647Y109517D01*
X303647Y114483D02*
X316113Y114483D01*
X316113Y109517D01*
X303647Y109517D01*
X303647Y111947D02*
X316113Y111947D01*
X316113Y114377D02*
X303647Y114377D01*
D14*
X508575Y104545D02*
X508575Y93455D01*
X489485Y93455D01*
X489485Y104545D01*
X508575Y104545D01*
X508575Y95767D02*
X489485Y95767D01*
X489485Y98079D02*
X508575Y98079D01*
X508575Y100391D02*
X489485Y100391D01*
X489485Y102703D02*
X508575Y102703D01*
X508575Y149455D02*
X508575Y160545D01*
X508575Y149455D02*
X489485Y149455D01*
X489485Y160545D01*
X508575Y160545D01*
X508575Y151767D02*
X489485Y151767D01*
X489485Y154079D02*
X508575Y154079D01*
X508575Y156391D02*
X489485Y156391D01*
X489485Y158703D02*
X508575Y158703D01*
D15*
X468513Y114483D02*
X468513Y109517D01*
X456047Y109517D01*
X456047Y114483D01*
X468513Y114483D01*
X468513Y111947D02*
X456047Y111947D01*
X456047Y114377D02*
X468513Y114377D01*
X468513Y119517D02*
X468513Y124483D01*
X468513Y119517D02*
X456047Y119517D01*
X456047Y124483D01*
X468513Y124483D01*
X468513Y121947D02*
X456047Y121947D01*
X456047Y124377D02*
X468513Y124377D01*
X468513Y129517D02*
X468513Y134483D01*
X468513Y129517D02*
X456047Y129517D01*
X456047Y134483D01*
X468513Y134483D01*
X468513Y131947D02*
X456047Y131947D01*
X456047Y134377D02*
X468513Y134377D01*
X468513Y139517D02*
X468513Y144483D01*
X468513Y139517D02*
X456047Y139517D01*
X456047Y144483D01*
X468513Y144483D01*
X468513Y141947D02*
X456047Y141947D01*
X456047Y144377D02*
X468513Y144377D01*
D16*
X309880Y12700D03*
X335280Y12700D03*
X360680Y12700D03*
X386080Y12700D03*
X411480Y12700D03*
X436880Y12700D03*
X462280Y12700D03*
D10*
X377875Y61435D02*
X377875Y71425D01*
X377875Y61435D02*
X368885Y61435D01*
X368885Y71425D01*
X377875Y71425D01*
X377875Y63843D02*
X368885Y63843D01*
X368885Y66251D02*
X377875Y66251D01*
X377875Y68659D02*
X368885Y68659D01*
X368885Y71067D02*
X377875Y71067D01*
X377875Y78435D02*
X377875Y88425D01*
X377875Y78435D02*
X368885Y78435D01*
X368885Y88425D01*
X377875Y88425D01*
X377875Y80843D02*
X368885Y80843D01*
X368885Y83251D02*
X377875Y83251D01*
X377875Y85659D02*
X368885Y85659D01*
X368885Y88067D02*
X377875Y88067D01*
X394285Y88425D02*
X394285Y78435D01*
X394285Y88425D02*
X403275Y88425D01*
X403275Y78435D01*
X394285Y78435D01*
X394285Y80843D02*
X403275Y80843D01*
X403275Y83251D02*
X394285Y83251D01*
X394285Y85659D02*
X403275Y85659D01*
X403275Y88067D02*
X394285Y88067D01*
X394285Y71425D02*
X394285Y61435D01*
X394285Y71425D02*
X403275Y71425D01*
X403275Y61435D01*
X394285Y61435D01*
X394285Y63843D02*
X403275Y63843D01*
X403275Y66251D02*
X394285Y66251D01*
X394285Y68659D02*
X403275Y68659D01*
X403275Y71067D02*
X394285Y71067D01*
X362535Y174955D02*
X362535Y184945D01*
X371525Y184945D01*
X371525Y174955D01*
X362535Y174955D01*
X362535Y177363D02*
X371525Y177363D01*
X371525Y179771D02*
X362535Y179771D01*
X362535Y182179D02*
X371525Y182179D01*
X371525Y184587D02*
X362535Y184587D01*
X362535Y167945D02*
X362535Y157955D01*
X362535Y167945D02*
X371525Y167945D01*
X371525Y157955D01*
X362535Y157955D01*
X362535Y160363D02*
X371525Y160363D01*
X371525Y162771D02*
X362535Y162771D01*
X362535Y165179D02*
X371525Y165179D01*
X371525Y167587D02*
X362535Y167587D01*
X409625Y167945D02*
X409625Y157955D01*
X400635Y157955D01*
X400635Y167945D01*
X409625Y167945D01*
X409625Y160363D02*
X400635Y160363D01*
X400635Y162771D02*
X409625Y162771D01*
X409625Y165179D02*
X400635Y165179D01*
X400635Y167587D02*
X409625Y167587D01*
X409625Y174955D02*
X409625Y184945D01*
X409625Y174955D02*
X400635Y174955D01*
X400635Y184945D01*
X409625Y184945D01*
X409625Y177363D02*
X400635Y177363D01*
X400635Y179771D02*
X409625Y179771D01*
X409625Y182179D02*
X400635Y182179D01*
X400635Y184587D02*
X409625Y184587D01*
X471645Y166955D02*
X481635Y166955D01*
X471645Y166955D02*
X471645Y175945D01*
X481635Y175945D01*
X481635Y166955D01*
X481635Y169363D02*
X471645Y169363D01*
X471645Y171771D02*
X481635Y171771D01*
X481635Y174179D02*
X471645Y174179D01*
X488645Y166955D02*
X498635Y166955D01*
X488645Y166955D02*
X488645Y175945D01*
X498635Y175945D01*
X498635Y166955D01*
X498635Y169363D02*
X488645Y169363D01*
X488645Y171771D02*
X498635Y171771D01*
X498635Y174179D02*
X488645Y174179D01*
D17*
X386825Y135495D02*
X386825Y133755D01*
X385335Y133755D01*
X385335Y135495D01*
X386825Y135495D01*
X381825Y135495D02*
X381825Y133755D01*
X380335Y133755D01*
X380335Y135495D01*
X381825Y135495D01*
X391825Y135495D02*
X391825Y133755D01*
X390335Y133755D01*
X390335Y135495D01*
X391825Y135495D01*
X386825Y120245D02*
X386825Y118505D01*
X385335Y118505D01*
X385335Y120245D01*
X386825Y120245D01*
X381825Y120245D02*
X381825Y118505D01*
X380335Y118505D01*
X380335Y120245D01*
X381825Y120245D01*
X391825Y120245D02*
X391825Y118505D01*
X390335Y118505D01*
X390335Y120245D01*
X391825Y120245D01*
X379325Y123755D02*
X379325Y125245D01*
X379325Y123755D02*
X377585Y123755D01*
X377585Y125245D01*
X379325Y125245D01*
X379325Y128755D02*
X379325Y130245D01*
X379325Y128755D02*
X377585Y128755D01*
X377585Y130245D01*
X379325Y130245D01*
X394575Y125245D02*
X394575Y123755D01*
X392835Y123755D01*
X392835Y125245D01*
X394575Y125245D01*
X394575Y128755D02*
X394575Y130245D01*
X394575Y128755D02*
X392835Y128755D01*
X392835Y130245D01*
X394575Y130245D01*
D10*
X649655Y157955D02*
X649655Y167945D01*
X649655Y157955D02*
X640665Y157955D01*
X640665Y167945D01*
X649655Y167945D01*
X649655Y160363D02*
X640665Y160363D01*
X640665Y162771D02*
X649655Y162771D01*
X649655Y165179D02*
X640665Y165179D01*
X640665Y167587D02*
X649655Y167587D01*
X649655Y174955D02*
X649655Y184945D01*
X649655Y174955D02*
X640665Y174955D01*
X640665Y184945D01*
X649655Y184945D01*
X649655Y177363D02*
X640665Y177363D01*
X640665Y179771D02*
X649655Y179771D01*
X649655Y182179D02*
X640665Y182179D01*
X640665Y184587D02*
X649655Y184587D01*
D11*
X749475Y186985D02*
X749475Y194015D01*
X756505Y194015D01*
X756505Y186985D01*
X749475Y186985D01*
X749475Y191254D02*
X756505Y191254D01*
X731935Y194015D02*
X731935Y186985D01*
X731935Y194015D02*
X738965Y194015D01*
X738965Y186985D01*
X731935Y186985D01*
X731935Y191254D02*
X738965Y191254D01*
D12*
X721360Y215900D03*
X530860Y12700D03*
D13*
X543560Y228600D03*
X746760Y228600D03*
D14*
X522665Y160545D02*
X522665Y149455D01*
X522665Y160545D02*
X541755Y160545D01*
X541755Y149455D01*
X522665Y149455D01*
X522665Y151767D02*
X541755Y151767D01*
X541755Y154079D02*
X522665Y154079D01*
X522665Y156391D02*
X541755Y156391D01*
X541755Y158703D02*
X522665Y158703D01*
X522665Y104545D02*
X522665Y93455D01*
X522665Y104545D02*
X541755Y104545D01*
X541755Y93455D01*
X522665Y93455D01*
X522665Y95767D02*
X541755Y95767D01*
X541755Y98079D02*
X522665Y98079D01*
X522665Y100391D02*
X541755Y100391D01*
X541755Y102703D02*
X522665Y102703D01*
D15*
X562727Y139517D02*
X562727Y144483D01*
X575193Y144483D01*
X575193Y139517D01*
X562727Y139517D01*
X562727Y141947D02*
X575193Y141947D01*
X575193Y144377D02*
X562727Y144377D01*
X562727Y134483D02*
X562727Y129517D01*
X562727Y134483D02*
X575193Y134483D01*
X575193Y129517D01*
X562727Y129517D01*
X562727Y131947D02*
X575193Y131947D01*
X575193Y134377D02*
X562727Y134377D01*
X562727Y124483D02*
X562727Y119517D01*
X562727Y124483D02*
X575193Y124483D01*
X575193Y119517D01*
X562727Y119517D01*
X562727Y121947D02*
X575193Y121947D01*
X575193Y124377D02*
X562727Y124377D01*
X562727Y114483D02*
X562727Y109517D01*
X562727Y114483D02*
X575193Y114483D01*
X575193Y109517D01*
X562727Y109517D01*
X562727Y111947D02*
X575193Y111947D01*
X575193Y114377D02*
X562727Y114377D01*
D14*
X767655Y104545D02*
X767655Y93455D01*
X748565Y93455D01*
X748565Y104545D01*
X767655Y104545D01*
X767655Y95767D02*
X748565Y95767D01*
X748565Y98079D02*
X767655Y98079D01*
X767655Y100391D02*
X748565Y100391D01*
X748565Y102703D02*
X767655Y102703D01*
X767655Y149455D02*
X767655Y160545D01*
X767655Y149455D02*
X748565Y149455D01*
X748565Y160545D01*
X767655Y160545D01*
X767655Y151767D02*
X748565Y151767D01*
X748565Y154079D02*
X767655Y154079D01*
X767655Y156391D02*
X748565Y156391D01*
X748565Y158703D02*
X767655Y158703D01*
D15*
X727593Y114483D02*
X727593Y109517D01*
X715127Y109517D01*
X715127Y114483D01*
X727593Y114483D01*
X727593Y111947D02*
X715127Y111947D01*
X715127Y114377D02*
X727593Y114377D01*
X727593Y119517D02*
X727593Y124483D01*
X727593Y119517D02*
X715127Y119517D01*
X715127Y124483D01*
X727593Y124483D01*
X727593Y121947D02*
X715127Y121947D01*
X715127Y124377D02*
X727593Y124377D01*
X727593Y129517D02*
X727593Y134483D01*
X727593Y129517D02*
X715127Y129517D01*
X715127Y134483D01*
X727593Y134483D01*
X727593Y131947D02*
X715127Y131947D01*
X715127Y134377D02*
X727593Y134377D01*
X727593Y139517D02*
X727593Y144483D01*
X727593Y139517D02*
X715127Y139517D01*
X715127Y144483D01*
X727593Y144483D01*
X727593Y141947D02*
X715127Y141947D01*
X715127Y144377D02*
X727593Y144377D01*
D16*
X568960Y12700D03*
X594360Y12700D03*
X619760Y12700D03*
X645160Y12700D03*
X670560Y12700D03*
X695960Y12700D03*
X721360Y12700D03*
D10*
X636955Y61435D02*
X636955Y71425D01*
X636955Y61435D02*
X627965Y61435D01*
X627965Y71425D01*
X636955Y71425D01*
X636955Y63843D02*
X627965Y63843D01*
X627965Y66251D02*
X636955Y66251D01*
X636955Y68659D02*
X627965Y68659D01*
X627965Y71067D02*
X636955Y71067D01*
X636955Y78435D02*
X636955Y88425D01*
X636955Y78435D02*
X627965Y78435D01*
X627965Y88425D01*
X636955Y88425D01*
X636955Y80843D02*
X627965Y80843D01*
X627965Y83251D02*
X636955Y83251D01*
X636955Y85659D02*
X627965Y85659D01*
X627965Y88067D02*
X636955Y88067D01*
X653365Y88425D02*
X653365Y78435D01*
X653365Y88425D02*
X662355Y88425D01*
X662355Y78435D01*
X653365Y78435D01*
X653365Y80843D02*
X662355Y80843D01*
X662355Y83251D02*
X653365Y83251D01*
X653365Y85659D02*
X662355Y85659D01*
X662355Y88067D02*
X653365Y88067D01*
X653365Y71425D02*
X653365Y61435D01*
X653365Y71425D02*
X662355Y71425D01*
X662355Y61435D01*
X653365Y61435D01*
X653365Y63843D02*
X662355Y63843D01*
X662355Y66251D02*
X653365Y66251D01*
X653365Y68659D02*
X662355Y68659D01*
X662355Y71067D02*
X653365Y71067D01*
X621615Y174955D02*
X621615Y184945D01*
X630605Y184945D01*
X630605Y174955D01*
X621615Y174955D01*
X621615Y177363D02*
X630605Y177363D01*
X630605Y179771D02*
X621615Y179771D01*
X621615Y182179D02*
X630605Y182179D01*
X630605Y184587D02*
X621615Y184587D01*
X621615Y167945D02*
X621615Y157955D01*
X621615Y167945D02*
X630605Y167945D01*
X630605Y157955D01*
X621615Y157955D01*
X621615Y160363D02*
X630605Y160363D01*
X630605Y162771D02*
X621615Y162771D01*
X621615Y165179D02*
X630605Y165179D01*
X630605Y167587D02*
X621615Y167587D01*
X668705Y167945D02*
X668705Y157955D01*
X659715Y157955D01*
X659715Y167945D01*
X668705Y167945D01*
X668705Y160363D02*
X659715Y160363D01*
X659715Y162771D02*
X668705Y162771D01*
X668705Y165179D02*
X659715Y165179D01*
X659715Y167587D02*
X668705Y167587D01*
X668705Y174955D02*
X668705Y184945D01*
X668705Y174955D02*
X659715Y174955D01*
X659715Y184945D01*
X668705Y184945D01*
X668705Y177363D02*
X659715Y177363D01*
X659715Y179771D02*
X668705Y179771D01*
X668705Y182179D02*
X659715Y182179D01*
X659715Y184587D02*
X668705Y184587D01*
X730725Y166955D02*
X740715Y166955D01*
X730725Y166955D02*
X730725Y175945D01*
X740715Y175945D01*
X740715Y166955D01*
X740715Y169363D02*
X730725Y169363D01*
X730725Y171771D02*
X740715Y171771D01*
X740715Y174179D02*
X730725Y174179D01*
X747725Y166955D02*
X757715Y166955D01*
X747725Y166955D02*
X747725Y175945D01*
X757715Y175945D01*
X757715Y166955D01*
X757715Y169363D02*
X747725Y169363D01*
X747725Y171771D02*
X757715Y171771D01*
X757715Y174179D02*
X747725Y174179D01*
D17*
X645905Y135495D02*
X645905Y133755D01*
X644415Y133755D01*
X644415Y135495D01*
X645905Y135495D01*
X640905Y135495D02*
X640905Y133755D01*
X639415Y133755D01*
X639415Y135495D01*
X640905Y135495D01*
X650905Y135495D02*
X650905Y133755D01*
X649415Y133755D01*
X649415Y135495D01*
X650905Y135495D01*
X645905Y120245D02*
X645905Y118505D01*
X644415Y118505D01*
X644415Y120245D01*
X645905Y120245D01*
X640905Y120245D02*
X640905Y118505D01*
X639415Y118505D01*
X639415Y120245D01*
X640905Y120245D01*
X650905Y120245D02*
X650905Y118505D01*
X649415Y118505D01*
X649415Y120245D01*
X650905Y120245D01*
X638405Y123755D02*
X638405Y125245D01*
X638405Y123755D02*
X636665Y123755D01*
X636665Y125245D01*
X638405Y125245D01*
X638405Y128755D02*
X638405Y130245D01*
X638405Y128755D02*
X636665Y128755D01*
X636665Y130245D01*
X638405Y130245D01*
X653655Y125245D02*
X653655Y123755D01*
X651915Y123755D01*
X651915Y125245D01*
X653655Y125245D01*
X653655Y128755D02*
X653655Y130245D01*
X653655Y128755D02*
X651915Y128755D01*
X651915Y130245D01*
X653655Y130245D01*
D10*
X908735Y157955D02*
X908735Y167945D01*
X908735Y157955D02*
X899745Y157955D01*
X899745Y167945D01*
X908735Y167945D01*
X908735Y160363D02*
X899745Y160363D01*
X899745Y162771D02*
X908735Y162771D01*
X908735Y165179D02*
X899745Y165179D01*
X899745Y167587D02*
X908735Y167587D01*
X908735Y174955D02*
X908735Y184945D01*
X908735Y174955D02*
X899745Y174955D01*
X899745Y184945D01*
X908735Y184945D01*
X908735Y177363D02*
X899745Y177363D01*
X899745Y179771D02*
X908735Y179771D01*
X908735Y182179D02*
X899745Y182179D01*
X899745Y184587D02*
X908735Y184587D01*
D11*
X1008555Y186985D02*
X1008555Y194015D01*
X1015585Y194015D01*
X1015585Y186985D01*
X1008555Y186985D01*
X1008555Y191254D02*
X1015585Y191254D01*
X991015Y194015D02*
X991015Y186985D01*
X991015Y194015D02*
X998045Y194015D01*
X998045Y186985D01*
X991015Y186985D01*
X991015Y191254D02*
X998045Y191254D01*
D12*
X980440Y215900D03*
X789940Y12700D03*
D13*
X802640Y228600D03*
X1005840Y228600D03*
D14*
X781745Y160545D02*
X781745Y149455D01*
X781745Y160545D02*
X800835Y160545D01*
X800835Y149455D01*
X781745Y149455D01*
X781745Y151767D02*
X800835Y151767D01*
X800835Y154079D02*
X781745Y154079D01*
X781745Y156391D02*
X800835Y156391D01*
X800835Y158703D02*
X781745Y158703D01*
X781745Y104545D02*
X781745Y93455D01*
X781745Y104545D02*
X800835Y104545D01*
X800835Y93455D01*
X781745Y93455D01*
X781745Y95767D02*
X800835Y95767D01*
X800835Y98079D02*
X781745Y98079D01*
X781745Y100391D02*
X800835Y100391D01*
X800835Y102703D02*
X781745Y102703D01*
D15*
X821807Y139517D02*
X821807Y144483D01*
X834273Y144483D01*
X834273Y139517D01*
X821807Y139517D01*
X821807Y141947D02*
X834273Y141947D01*
X834273Y144377D02*
X821807Y144377D01*
X821807Y134483D02*
X821807Y129517D01*
X821807Y134483D02*
X834273Y134483D01*
X834273Y129517D01*
X821807Y129517D01*
X821807Y131947D02*
X834273Y131947D01*
X834273Y134377D02*
X821807Y134377D01*
X821807Y124483D02*
X821807Y119517D01*
X821807Y124483D02*
X834273Y124483D01*
X834273Y119517D01*
X821807Y119517D01*
X821807Y121947D02*
X834273Y121947D01*
X834273Y124377D02*
X821807Y124377D01*
X821807Y114483D02*
X821807Y109517D01*
X821807Y114483D02*
X834273Y114483D01*
X834273Y109517D01*
X821807Y109517D01*
X821807Y111947D02*
X834273Y111947D01*
X834273Y114377D02*
X821807Y114377D01*
D14*
X1026735Y104545D02*
X1026735Y93455D01*
X1007645Y93455D01*
X1007645Y104545D01*
X1026735Y104545D01*
X1026735Y95767D02*
X1007645Y95767D01*
X1007645Y98079D02*
X1026735Y98079D01*
X1026735Y100391D02*
X1007645Y100391D01*
X1007645Y102703D02*
X1026735Y102703D01*
X1026735Y149455D02*
X1026735Y160545D01*
X1026735Y149455D02*
X1007645Y149455D01*
X1007645Y160545D01*
X1026735Y160545D01*
X1026735Y151767D02*
X1007645Y151767D01*
X1007645Y154079D02*
X1026735Y154079D01*
X1026735Y156391D02*
X1007645Y156391D01*
X1007645Y158703D02*
X1026735Y158703D01*
D15*
X986673Y114483D02*
X986673Y109517D01*
X974207Y109517D01*
X974207Y114483D01*
X986673Y114483D01*
X986673Y111947D02*
X974207Y111947D01*
X974207Y114377D02*
X986673Y114377D01*
X986673Y119517D02*
X986673Y124483D01*
X986673Y119517D02*
X974207Y119517D01*
X974207Y124483D01*
X986673Y124483D01*
X986673Y121947D02*
X974207Y121947D01*
X974207Y124377D02*
X986673Y124377D01*
X986673Y129517D02*
X986673Y134483D01*
X986673Y129517D02*
X974207Y129517D01*
X974207Y134483D01*
X986673Y134483D01*
X986673Y131947D02*
X974207Y131947D01*
X974207Y134377D02*
X986673Y134377D01*
X986673Y139517D02*
X986673Y144483D01*
X986673Y139517D02*
X974207Y139517D01*
X974207Y144483D01*
X986673Y144483D01*
X986673Y141947D02*
X974207Y141947D01*
X974207Y144377D02*
X986673Y144377D01*
D16*
X828040Y12700D03*
X853440Y12700D03*
X878840Y12700D03*
X904240Y12700D03*
X929640Y12700D03*
X955040Y12700D03*
X980440Y12700D03*
D10*
X896035Y61435D02*
X896035Y71425D01*
X896035Y61435D02*
X887045Y61435D01*
X887045Y71425D01*
X896035Y71425D01*
X896035Y63843D02*
X887045Y63843D01*
X887045Y66251D02*
X896035Y66251D01*
X896035Y68659D02*
X887045Y68659D01*
X887045Y71067D02*
X896035Y71067D01*
X896035Y78435D02*
X896035Y88425D01*
X896035Y78435D02*
X887045Y78435D01*
X887045Y88425D01*
X896035Y88425D01*
X896035Y80843D02*
X887045Y80843D01*
X887045Y83251D02*
X896035Y83251D01*
X896035Y85659D02*
X887045Y85659D01*
X887045Y88067D02*
X896035Y88067D01*
X912445Y88425D02*
X912445Y78435D01*
X912445Y88425D02*
X921435Y88425D01*
X921435Y78435D01*
X912445Y78435D01*
X912445Y80843D02*
X921435Y80843D01*
X921435Y83251D02*
X912445Y83251D01*
X912445Y85659D02*
X921435Y85659D01*
X921435Y88067D02*
X912445Y88067D01*
X912445Y71425D02*
X912445Y61435D01*
X912445Y71425D02*
X921435Y71425D01*
X921435Y61435D01*
X912445Y61435D01*
X912445Y63843D02*
X921435Y63843D01*
X921435Y66251D02*
X912445Y66251D01*
X912445Y68659D02*
X921435Y68659D01*
X921435Y71067D02*
X912445Y71067D01*
X880695Y174955D02*
X880695Y184945D01*
X889685Y184945D01*
X889685Y174955D01*
X880695Y174955D01*
X880695Y177363D02*
X889685Y177363D01*
X889685Y179771D02*
X880695Y179771D01*
X880695Y182179D02*
X889685Y182179D01*
X889685Y184587D02*
X880695Y184587D01*
X880695Y167945D02*
X880695Y157955D01*
X880695Y167945D02*
X889685Y167945D01*
X889685Y157955D01*
X880695Y157955D01*
X880695Y160363D02*
X889685Y160363D01*
X889685Y162771D02*
X880695Y162771D01*
X880695Y165179D02*
X889685Y165179D01*
X889685Y167587D02*
X880695Y167587D01*
X927785Y167945D02*
X927785Y157955D01*
X918795Y157955D01*
X918795Y167945D01*
X927785Y167945D01*
X927785Y160363D02*
X918795Y160363D01*
X918795Y162771D02*
X927785Y162771D01*
X927785Y165179D02*
X918795Y165179D01*
X918795Y167587D02*
X927785Y167587D01*
X927785Y174955D02*
X927785Y184945D01*
X927785Y174955D02*
X918795Y174955D01*
X918795Y184945D01*
X927785Y184945D01*
X927785Y177363D02*
X918795Y177363D01*
X918795Y179771D02*
X927785Y179771D01*
X927785Y182179D02*
X918795Y182179D01*
X918795Y184587D02*
X927785Y184587D01*
X989805Y166955D02*
X999795Y166955D01*
X989805Y166955D02*
X989805Y175945D01*
X999795Y175945D01*
X999795Y166955D01*
X999795Y169363D02*
X989805Y169363D01*
X989805Y171771D02*
X999795Y171771D01*
X999795Y174179D02*
X989805Y174179D01*
X1006805Y166955D02*
X1016795Y166955D01*
X1006805Y166955D02*
X1006805Y175945D01*
X1016795Y175945D01*
X1016795Y166955D01*
X1016795Y169363D02*
X1006805Y169363D01*
X1006805Y171771D02*
X1016795Y171771D01*
X1016795Y174179D02*
X1006805Y174179D01*
D17*
X904985Y135495D02*
X904985Y133755D01*
X903495Y133755D01*
X903495Y135495D01*
X904985Y135495D01*
X899985Y135495D02*
X899985Y133755D01*
X898495Y133755D01*
X898495Y135495D01*
X899985Y135495D01*
X909985Y135495D02*
X909985Y133755D01*
X908495Y133755D01*
X908495Y135495D01*
X909985Y135495D01*
X904985Y120245D02*
X904985Y118505D01*
X903495Y118505D01*
X903495Y120245D01*
X904985Y120245D01*
X899985Y120245D02*
X899985Y118505D01*
X898495Y118505D01*
X898495Y120245D01*
X899985Y120245D01*
X909985Y120245D02*
X909985Y118505D01*
X908495Y118505D01*
X908495Y120245D01*
X909985Y120245D01*
X897485Y123755D02*
X897485Y125245D01*
X897485Y123755D02*
X895745Y123755D01*
X895745Y125245D01*
X897485Y125245D01*
X897485Y128755D02*
X897485Y130245D01*
X897485Y128755D02*
X895745Y128755D01*
X895745Y130245D01*
X897485Y130245D01*
X912735Y125245D02*
X912735Y123755D01*
X910995Y123755D01*
X910995Y125245D01*
X912735Y125245D01*
X912735Y128755D02*
X912735Y130245D01*
X912735Y128755D02*
X910995Y128755D01*
X910995Y130245D01*
X912735Y130245D01*
D10*
X1167815Y157955D02*
X1167815Y167945D01*
X1167815Y157955D02*
X1158825Y157955D01*
X1158825Y167945D01*
X1167815Y167945D01*
X1167815Y160363D02*
X1158825Y160363D01*
X1158825Y162771D02*
X1167815Y162771D01*
X1167815Y165179D02*
X1158825Y165179D01*
X1158825Y167587D02*
X1167815Y167587D01*
X1167815Y174955D02*
X1167815Y184945D01*
X1167815Y174955D02*
X1158825Y174955D01*
X1158825Y184945D01*
X1167815Y184945D01*
X1167815Y177363D02*
X1158825Y177363D01*
X1158825Y179771D02*
X1167815Y179771D01*
X1167815Y182179D02*
X1158825Y182179D01*
X1158825Y184587D02*
X1167815Y184587D01*
D11*
X1267635Y186985D02*
X1267635Y194015D01*
X1274665Y194015D01*
X1274665Y186985D01*
X1267635Y186985D01*
X1267635Y191254D02*
X1274665Y191254D01*
X1250095Y194015D02*
X1250095Y186985D01*
X1250095Y194015D02*
X1257125Y194015D01*
X1257125Y186985D01*
X1250095Y186985D01*
X1250095Y191254D02*
X1257125Y191254D01*
D12*
X1239520Y215900D03*
X1049020Y12700D03*
D13*
X1061720Y228600D03*
X1264920Y228600D03*
D14*
X1040825Y160545D02*
X1040825Y149455D01*
X1040825Y160545D02*
X1059915Y160545D01*
X1059915Y149455D01*
X1040825Y149455D01*
X1040825Y151767D02*
X1059915Y151767D01*
X1059915Y154079D02*
X1040825Y154079D01*
X1040825Y156391D02*
X1059915Y156391D01*
X1059915Y158703D02*
X1040825Y158703D01*
X1040825Y104545D02*
X1040825Y93455D01*
X1040825Y104545D02*
X1059915Y104545D01*
X1059915Y93455D01*
X1040825Y93455D01*
X1040825Y95767D02*
X1059915Y95767D01*
X1059915Y98079D02*
X1040825Y98079D01*
X1040825Y100391D02*
X1059915Y100391D01*
X1059915Y102703D02*
X1040825Y102703D01*
D15*
X1080887Y139517D02*
X1080887Y144483D01*
X1093353Y144483D01*
X1093353Y139517D01*
X1080887Y139517D01*
X1080887Y141947D02*
X1093353Y141947D01*
X1093353Y144377D02*
X1080887Y144377D01*
X1080887Y134483D02*
X1080887Y129517D01*
X1080887Y134483D02*
X1093353Y134483D01*
X1093353Y129517D01*
X1080887Y129517D01*
X1080887Y131947D02*
X1093353Y131947D01*
X1093353Y134377D02*
X1080887Y134377D01*
X1080887Y124483D02*
X1080887Y119517D01*
X1080887Y124483D02*
X1093353Y124483D01*
X1093353Y119517D01*
X1080887Y119517D01*
X1080887Y121947D02*
X1093353Y121947D01*
X1093353Y124377D02*
X1080887Y124377D01*
X1080887Y114483D02*
X1080887Y109517D01*
X1080887Y114483D02*
X1093353Y114483D01*
X1093353Y109517D01*
X1080887Y109517D01*
X1080887Y111947D02*
X1093353Y111947D01*
X1093353Y114377D02*
X1080887Y114377D01*
D14*
X1285815Y104545D02*
X1285815Y93455D01*
X1266725Y93455D01*
X1266725Y104545D01*
X1285815Y104545D01*
X1285815Y95767D02*
X1266725Y95767D01*
X1266725Y98079D02*
X1285815Y98079D01*
X1285815Y100391D02*
X1266725Y100391D01*
X1266725Y102703D02*
X1285815Y102703D01*
X1285815Y149455D02*
X1285815Y160545D01*
X1285815Y149455D02*
X1266725Y149455D01*
X1266725Y160545D01*
X1285815Y160545D01*
X1285815Y151767D02*
X1266725Y151767D01*
X1266725Y154079D02*
X1285815Y154079D01*
X1285815Y156391D02*
X1266725Y156391D01*
X1266725Y158703D02*
X1285815Y158703D01*
D15*
X1245753Y114483D02*
X1245753Y109517D01*
X1233287Y109517D01*
X1233287Y114483D01*
X1245753Y114483D01*
X1245753Y111947D02*
X1233287Y111947D01*
X1233287Y114377D02*
X1245753Y114377D01*
X1245753Y119517D02*
X1245753Y124483D01*
X1245753Y119517D02*
X1233287Y119517D01*
X1233287Y124483D01*
X1245753Y124483D01*
X1245753Y121947D02*
X1233287Y121947D01*
X1233287Y124377D02*
X1245753Y124377D01*
X1245753Y129517D02*
X1245753Y134483D01*
X1245753Y129517D02*
X1233287Y129517D01*
X1233287Y134483D01*
X1245753Y134483D01*
X1245753Y131947D02*
X1233287Y131947D01*
X1233287Y134377D02*
X1245753Y134377D01*
X1245753Y139517D02*
X1245753Y144483D01*
X1245753Y139517D02*
X1233287Y139517D01*
X1233287Y144483D01*
X1245753Y144483D01*
X1245753Y141947D02*
X1233287Y141947D01*
X1233287Y144377D02*
X1245753Y144377D01*
D16*
X1087120Y12700D03*
X1112520Y12700D03*
X1137920Y12700D03*
X1163320Y12700D03*
X1188720Y12700D03*
X1214120Y12700D03*
X1239520Y12700D03*
D10*
X1155115Y61435D02*
X1155115Y71425D01*
X1155115Y61435D02*
X1146125Y61435D01*
X1146125Y71425D01*
X1155115Y71425D01*
X1155115Y63843D02*
X1146125Y63843D01*
X1146125Y66251D02*
X1155115Y66251D01*
X1155115Y68659D02*
X1146125Y68659D01*
X1146125Y71067D02*
X1155115Y71067D01*
X1155115Y78435D02*
X1155115Y88425D01*
X1155115Y78435D02*
X1146125Y78435D01*
X1146125Y88425D01*
X1155115Y88425D01*
X1155115Y80843D02*
X1146125Y80843D01*
X1146125Y83251D02*
X1155115Y83251D01*
X1155115Y85659D02*
X1146125Y85659D01*
X1146125Y88067D02*
X1155115Y88067D01*
X1171525Y88425D02*
X1171525Y78435D01*
X1171525Y88425D02*
X1180515Y88425D01*
X1180515Y78435D01*
X1171525Y78435D01*
X1171525Y80843D02*
X1180515Y80843D01*
X1180515Y83251D02*
X1171525Y83251D01*
X1171525Y85659D02*
X1180515Y85659D01*
X1180515Y88067D02*
X1171525Y88067D01*
X1171525Y71425D02*
X1171525Y61435D01*
X1171525Y71425D02*
X1180515Y71425D01*
X1180515Y61435D01*
X1171525Y61435D01*
X1171525Y63843D02*
X1180515Y63843D01*
X1180515Y66251D02*
X1171525Y66251D01*
X1171525Y68659D02*
X1180515Y68659D01*
X1180515Y71067D02*
X1171525Y71067D01*
X1139775Y174955D02*
X1139775Y184945D01*
X1148765Y184945D01*
X1148765Y174955D01*
X1139775Y174955D01*
X1139775Y177363D02*
X1148765Y177363D01*
X1148765Y179771D02*
X1139775Y179771D01*
X1139775Y182179D02*
X1148765Y182179D01*
X1148765Y184587D02*
X1139775Y184587D01*
X1139775Y167945D02*
X1139775Y157955D01*
X1139775Y167945D02*
X1148765Y167945D01*
X1148765Y157955D01*
X1139775Y157955D01*
X1139775Y160363D02*
X1148765Y160363D01*
X1148765Y162771D02*
X1139775Y162771D01*
X1139775Y165179D02*
X1148765Y165179D01*
X1148765Y167587D02*
X1139775Y167587D01*
X1186865Y167945D02*
X1186865Y157955D01*
X1177875Y157955D01*
X1177875Y167945D01*
X1186865Y167945D01*
X1186865Y160363D02*
X1177875Y160363D01*
X1177875Y162771D02*
X1186865Y162771D01*
X1186865Y165179D02*
X1177875Y165179D01*
X1177875Y167587D02*
X1186865Y167587D01*
X1186865Y174955D02*
X1186865Y184945D01*
X1186865Y174955D02*
X1177875Y174955D01*
X1177875Y184945D01*
X1186865Y184945D01*
X1186865Y177363D02*
X1177875Y177363D01*
X1177875Y179771D02*
X1186865Y179771D01*
X1186865Y182179D02*
X1177875Y182179D01*
X1177875Y184587D02*
X1186865Y184587D01*
X1248885Y166955D02*
X1258875Y166955D01*
X1248885Y166955D02*
X1248885Y175945D01*
X1258875Y175945D01*
X1258875Y166955D01*
X1258875Y169363D02*
X1248885Y169363D01*
X1248885Y171771D02*
X1258875Y171771D01*
X1258875Y174179D02*
X1248885Y174179D01*
X1265885Y166955D02*
X1275875Y166955D01*
X1265885Y166955D02*
X1265885Y175945D01*
X1275875Y175945D01*
X1275875Y166955D01*
X1275875Y169363D02*
X1265885Y169363D01*
X1265885Y171771D02*
X1275875Y171771D01*
X1275875Y174179D02*
X1265885Y174179D01*
D17*
X1164065Y135495D02*
X1164065Y133755D01*
X1162575Y133755D01*
X1162575Y135495D01*
X1164065Y135495D01*
X1159065Y135495D02*
X1159065Y133755D01*
X1157575Y133755D01*
X1157575Y135495D01*
X1159065Y135495D01*
X1169065Y135495D02*
X1169065Y133755D01*
X1167575Y133755D01*
X1167575Y135495D01*
X1169065Y135495D01*
X1164065Y120245D02*
X1164065Y118505D01*
X1162575Y118505D01*
X1162575Y120245D01*
X1164065Y120245D01*
X1159065Y120245D02*
X1159065Y118505D01*
X1157575Y118505D01*
X1157575Y120245D01*
X1159065Y120245D01*
X1169065Y120245D02*
X1169065Y118505D01*
X1167575Y118505D01*
X1167575Y120245D01*
X1169065Y120245D01*
X1156565Y123755D02*
X1156565Y125245D01*
X1156565Y123755D02*
X1154825Y123755D01*
X1154825Y125245D01*
X1156565Y125245D01*
X1156565Y128755D02*
X1156565Y130245D01*
X1156565Y128755D02*
X1154825Y128755D01*
X1154825Y130245D01*
X1156565Y130245D01*
X1171815Y125245D02*
X1171815Y123755D01*
X1170075Y123755D01*
X1170075Y125245D01*
X1171815Y125245D01*
X1171815Y128755D02*
X1171815Y130245D01*
X1171815Y128755D02*
X1170075Y128755D01*
X1170075Y130245D01*
X1171815Y130245D01*
D10*
X1426895Y157955D02*
X1426895Y167945D01*
X1426895Y157955D02*
X1417905Y157955D01*
X1417905Y167945D01*
X1426895Y167945D01*
X1426895Y160363D02*
X1417905Y160363D01*
X1417905Y162771D02*
X1426895Y162771D01*
X1426895Y165179D02*
X1417905Y165179D01*
X1417905Y167587D02*
X1426895Y167587D01*
X1426895Y174955D02*
X1426895Y184945D01*
X1426895Y174955D02*
X1417905Y174955D01*
X1417905Y184945D01*
X1426895Y184945D01*
X1426895Y177363D02*
X1417905Y177363D01*
X1417905Y179771D02*
X1426895Y179771D01*
X1426895Y182179D02*
X1417905Y182179D01*
X1417905Y184587D02*
X1426895Y184587D01*
D11*
X1526715Y186985D02*
X1526715Y194015D01*
X1533745Y194015D01*
X1533745Y186985D01*
X1526715Y186985D01*
X1526715Y191254D02*
X1533745Y191254D01*
X1509175Y194015D02*
X1509175Y186985D01*
X1509175Y194015D02*
X1516205Y194015D01*
X1516205Y186985D01*
X1509175Y186985D01*
X1509175Y191254D02*
X1516205Y191254D01*
D12*
X1498600Y215900D03*
X1308100Y12700D03*
D13*
X1320800Y228600D03*
X1524000Y228600D03*
D14*
X1299905Y160545D02*
X1299905Y149455D01*
X1299905Y160545D02*
X1318995Y160545D01*
X1318995Y149455D01*
X1299905Y149455D01*
X1299905Y151767D02*
X1318995Y151767D01*
X1318995Y154079D02*
X1299905Y154079D01*
X1299905Y156391D02*
X1318995Y156391D01*
X1318995Y158703D02*
X1299905Y158703D01*
X1299905Y104545D02*
X1299905Y93455D01*
X1299905Y104545D02*
X1318995Y104545D01*
X1318995Y93455D01*
X1299905Y93455D01*
X1299905Y95767D02*
X1318995Y95767D01*
X1318995Y98079D02*
X1299905Y98079D01*
X1299905Y100391D02*
X1318995Y100391D01*
X1318995Y102703D02*
X1299905Y102703D01*
D15*
X1339967Y139517D02*
X1339967Y144483D01*
X1352433Y144483D01*
X1352433Y139517D01*
X1339967Y139517D01*
X1339967Y141947D02*
X1352433Y141947D01*
X1352433Y144377D02*
X1339967Y144377D01*
X1339967Y134483D02*
X1339967Y129517D01*
X1339967Y134483D02*
X1352433Y134483D01*
X1352433Y129517D01*
X1339967Y129517D01*
X1339967Y131947D02*
X1352433Y131947D01*
X1352433Y134377D02*
X1339967Y134377D01*
X1339967Y124483D02*
X1339967Y119517D01*
X1339967Y124483D02*
X1352433Y124483D01*
X1352433Y119517D01*
X1339967Y119517D01*
X1339967Y121947D02*
X1352433Y121947D01*
X1352433Y124377D02*
X1339967Y124377D01*
X1339967Y114483D02*
X1339967Y109517D01*
X1339967Y114483D02*
X1352433Y114483D01*
X1352433Y109517D01*
X1339967Y109517D01*
X1339967Y111947D02*
X1352433Y111947D01*
X1352433Y114377D02*
X1339967Y114377D01*
D14*
X1544895Y104545D02*
X1544895Y93455D01*
X1525805Y93455D01*
X1525805Y104545D01*
X1544895Y104545D01*
X1544895Y95767D02*
X1525805Y95767D01*
X1525805Y98079D02*
X1544895Y98079D01*
X1544895Y100391D02*
X1525805Y100391D01*
X1525805Y102703D02*
X1544895Y102703D01*
X1544895Y149455D02*
X1544895Y160545D01*
X1544895Y149455D02*
X1525805Y149455D01*
X1525805Y160545D01*
X1544895Y160545D01*
X1544895Y151767D02*
X1525805Y151767D01*
X1525805Y154079D02*
X1544895Y154079D01*
X1544895Y156391D02*
X1525805Y156391D01*
X1525805Y158703D02*
X1544895Y158703D01*
D15*
X1504833Y114483D02*
X1504833Y109517D01*
X1492367Y109517D01*
X1492367Y114483D01*
X1504833Y114483D01*
X1504833Y111947D02*
X1492367Y111947D01*
X1492367Y114377D02*
X1504833Y114377D01*
X1504833Y119517D02*
X1504833Y124483D01*
X1504833Y119517D02*
X1492367Y119517D01*
X1492367Y124483D01*
X1504833Y124483D01*
X1504833Y121947D02*
X1492367Y121947D01*
X1492367Y124377D02*
X1504833Y124377D01*
X1504833Y129517D02*
X1504833Y134483D01*
X1504833Y129517D02*
X1492367Y129517D01*
X1492367Y134483D01*
X1504833Y134483D01*
X1504833Y131947D02*
X1492367Y131947D01*
X1492367Y134377D02*
X1504833Y134377D01*
X1504833Y139517D02*
X1504833Y144483D01*
X1504833Y139517D02*
X1492367Y139517D01*
X1492367Y144483D01*
X1504833Y144483D01*
X1504833Y141947D02*
X1492367Y141947D01*
X1492367Y144377D02*
X1504833Y144377D01*
D16*
X1346200Y12700D03*
X1371600Y12700D03*
X1397000Y12700D03*
X1422400Y12700D03*
X1447800Y12700D03*
X1473200Y12700D03*
X1498600Y12700D03*
D10*
X1414195Y61435D02*
X1414195Y71425D01*
X1414195Y61435D02*
X1405205Y61435D01*
X1405205Y71425D01*
X1414195Y71425D01*
X1414195Y63843D02*
X1405205Y63843D01*
X1405205Y66251D02*
X1414195Y66251D01*
X1414195Y68659D02*
X1405205Y68659D01*
X1405205Y71067D02*
X1414195Y71067D01*
X1414195Y78435D02*
X1414195Y88425D01*
X1414195Y78435D02*
X1405205Y78435D01*
X1405205Y88425D01*
X1414195Y88425D01*
X1414195Y80843D02*
X1405205Y80843D01*
X1405205Y83251D02*
X1414195Y83251D01*
X1414195Y85659D02*
X1405205Y85659D01*
X1405205Y88067D02*
X1414195Y88067D01*
X1430605Y88425D02*
X1430605Y78435D01*
X1430605Y88425D02*
X1439595Y88425D01*
X1439595Y78435D01*
X1430605Y78435D01*
X1430605Y80843D02*
X1439595Y80843D01*
X1439595Y83251D02*
X1430605Y83251D01*
X1430605Y85659D02*
X1439595Y85659D01*
X1439595Y88067D02*
X1430605Y88067D01*
X1430605Y71425D02*
X1430605Y61435D01*
X1430605Y71425D02*
X1439595Y71425D01*
X1439595Y61435D01*
X1430605Y61435D01*
X1430605Y63843D02*
X1439595Y63843D01*
X1439595Y66251D02*
X1430605Y66251D01*
X1430605Y68659D02*
X1439595Y68659D01*
X1439595Y71067D02*
X1430605Y71067D01*
X1398855Y174955D02*
X1398855Y184945D01*
X1407845Y184945D01*
X1407845Y174955D01*
X1398855Y174955D01*
X1398855Y177363D02*
X1407845Y177363D01*
X1407845Y179771D02*
X1398855Y179771D01*
X1398855Y182179D02*
X1407845Y182179D01*
X1407845Y184587D02*
X1398855Y184587D01*
X1398855Y167945D02*
X1398855Y157955D01*
X1398855Y167945D02*
X1407845Y167945D01*
X1407845Y157955D01*
X1398855Y157955D01*
X1398855Y160363D02*
X1407845Y160363D01*
X1407845Y162771D02*
X1398855Y162771D01*
X1398855Y165179D02*
X1407845Y165179D01*
X1407845Y167587D02*
X1398855Y167587D01*
X1445945Y167945D02*
X1445945Y157955D01*
X1436955Y157955D01*
X1436955Y167945D01*
X1445945Y167945D01*
X1445945Y160363D02*
X1436955Y160363D01*
X1436955Y162771D02*
X1445945Y162771D01*
X1445945Y165179D02*
X1436955Y165179D01*
X1436955Y167587D02*
X1445945Y167587D01*
X1445945Y174955D02*
X1445945Y184945D01*
X1445945Y174955D02*
X1436955Y174955D01*
X1436955Y184945D01*
X1445945Y184945D01*
X1445945Y177363D02*
X1436955Y177363D01*
X1436955Y179771D02*
X1445945Y179771D01*
X1445945Y182179D02*
X1436955Y182179D01*
X1436955Y184587D02*
X1445945Y184587D01*
X1507965Y166955D02*
X1517955Y166955D01*
X1507965Y166955D02*
X1507965Y175945D01*
X1517955Y175945D01*
X1517955Y166955D01*
X1517955Y169363D02*
X1507965Y169363D01*
X1507965Y171771D02*
X1517955Y171771D01*
X1517955Y174179D02*
X1507965Y174179D01*
X1524965Y166955D02*
X1534955Y166955D01*
X1524965Y166955D02*
X1524965Y175945D01*
X1534955Y175945D01*
X1534955Y166955D01*
X1534955Y169363D02*
X1524965Y169363D01*
X1524965Y171771D02*
X1534955Y171771D01*
X1534955Y174179D02*
X1524965Y174179D01*
D17*
X1423145Y135495D02*
X1423145Y133755D01*
X1421655Y133755D01*
X1421655Y135495D01*
X1423145Y135495D01*
X1418145Y135495D02*
X1418145Y133755D01*
X1416655Y133755D01*
X1416655Y135495D01*
X1418145Y135495D01*
X1428145Y135495D02*
X1428145Y133755D01*
X1426655Y133755D01*
X1426655Y135495D01*
X1428145Y135495D01*
X1423145Y120245D02*
X1423145Y118505D01*
X1421655Y118505D01*
X1421655Y120245D01*
X1423145Y120245D01*
X1418145Y120245D02*
X1418145Y118505D01*
X1416655Y118505D01*
X1416655Y120245D01*
X1418145Y120245D01*
X1428145Y120245D02*
X1428145Y118505D01*
X1426655Y118505D01*
X1426655Y120245D01*
X1428145Y120245D01*
X1415645Y123755D02*
X1415645Y125245D01*
X1415645Y123755D02*
X1413905Y123755D01*
X1413905Y125245D01*
X1415645Y125245D01*
X1415645Y128755D02*
X1415645Y130245D01*
X1415645Y128755D02*
X1413905Y128755D01*
X1413905Y130245D01*
X1415645Y130245D01*
X1430895Y125245D02*
X1430895Y123755D01*
X1429155Y123755D01*
X1429155Y125245D01*
X1430895Y125245D01*
X1430895Y128755D02*
X1430895Y130245D01*
X1430895Y128755D02*
X1429155Y128755D01*
X1429155Y130245D01*
X1430895Y130245D01*
D10*
X131495Y417035D02*
X131495Y427025D01*
X131495Y417035D02*
X122505Y417035D01*
X122505Y427025D01*
X131495Y427025D01*
X131495Y419443D02*
X122505Y419443D01*
X122505Y421851D02*
X131495Y421851D01*
X131495Y424259D02*
X122505Y424259D01*
X122505Y426667D02*
X131495Y426667D01*
X131495Y434035D02*
X131495Y444025D01*
X131495Y434035D02*
X122505Y434035D01*
X122505Y444025D01*
X131495Y444025D01*
X131495Y436443D02*
X122505Y436443D01*
X122505Y438851D02*
X131495Y438851D01*
X131495Y441259D02*
X122505Y441259D01*
X122505Y443667D02*
X131495Y443667D01*
D11*
X231315Y446065D02*
X231315Y453095D01*
X238345Y453095D01*
X238345Y446065D01*
X231315Y446065D01*
X231315Y450334D02*
X238345Y450334D01*
X213775Y453095D02*
X213775Y446065D01*
X213775Y453095D02*
X220805Y453095D01*
X220805Y446065D01*
X213775Y446065D01*
X213775Y450334D02*
X220805Y450334D01*
D12*
X203200Y474980D03*
X12700Y271780D03*
D13*
X25400Y487680D03*
X228600Y487680D03*
D14*
X4505Y419625D02*
X4505Y408535D01*
X4505Y419625D02*
X23595Y419625D01*
X23595Y408535D01*
X4505Y408535D01*
X4505Y410847D02*
X23595Y410847D01*
X23595Y413159D02*
X4505Y413159D01*
X4505Y415471D02*
X23595Y415471D01*
X23595Y417783D02*
X4505Y417783D01*
X4505Y363625D02*
X4505Y352535D01*
X4505Y363625D02*
X23595Y363625D01*
X23595Y352535D01*
X4505Y352535D01*
X4505Y354847D02*
X23595Y354847D01*
X23595Y357159D02*
X4505Y357159D01*
X4505Y359471D02*
X23595Y359471D01*
X23595Y361783D02*
X4505Y361783D01*
D15*
X44567Y398597D02*
X44567Y403563D01*
X57033Y403563D01*
X57033Y398597D01*
X44567Y398597D01*
X44567Y401027D02*
X57033Y401027D01*
X57033Y403457D02*
X44567Y403457D01*
X44567Y393563D02*
X44567Y388597D01*
X44567Y393563D02*
X57033Y393563D01*
X57033Y388597D01*
X44567Y388597D01*
X44567Y391027D02*
X57033Y391027D01*
X57033Y393457D02*
X44567Y393457D01*
X44567Y383563D02*
X44567Y378597D01*
X44567Y383563D02*
X57033Y383563D01*
X57033Y378597D01*
X44567Y378597D01*
X44567Y381027D02*
X57033Y381027D01*
X57033Y383457D02*
X44567Y383457D01*
X44567Y373563D02*
X44567Y368597D01*
X44567Y373563D02*
X57033Y373563D01*
X57033Y368597D01*
X44567Y368597D01*
X44567Y371027D02*
X57033Y371027D01*
X57033Y373457D02*
X44567Y373457D01*
D14*
X249495Y363625D02*
X249495Y352535D01*
X230405Y352535D01*
X230405Y363625D01*
X249495Y363625D01*
X249495Y354847D02*
X230405Y354847D01*
X230405Y357159D02*
X249495Y357159D01*
X249495Y359471D02*
X230405Y359471D01*
X230405Y361783D02*
X249495Y361783D01*
X249495Y408535D02*
X249495Y419625D01*
X249495Y408535D02*
X230405Y408535D01*
X230405Y419625D01*
X249495Y419625D01*
X249495Y410847D02*
X230405Y410847D01*
X230405Y413159D02*
X249495Y413159D01*
X249495Y415471D02*
X230405Y415471D01*
X230405Y417783D02*
X249495Y417783D01*
D15*
X209433Y373563D02*
X209433Y368597D01*
X196967Y368597D01*
X196967Y373563D01*
X209433Y373563D01*
X209433Y371027D02*
X196967Y371027D01*
X196967Y373457D02*
X209433Y373457D01*
X209433Y378597D02*
X209433Y383563D01*
X209433Y378597D02*
X196967Y378597D01*
X196967Y383563D01*
X209433Y383563D01*
X209433Y381027D02*
X196967Y381027D01*
X196967Y383457D02*
X209433Y383457D01*
X209433Y388597D02*
X209433Y393563D01*
X209433Y388597D02*
X196967Y388597D01*
X196967Y393563D01*
X209433Y393563D01*
X209433Y391027D02*
X196967Y391027D01*
X196967Y393457D02*
X209433Y393457D01*
X209433Y398597D02*
X209433Y403563D01*
X209433Y398597D02*
X196967Y398597D01*
X196967Y403563D01*
X209433Y403563D01*
X209433Y401027D02*
X196967Y401027D01*
X196967Y403457D02*
X209433Y403457D01*
D16*
X50800Y271780D03*
X76200Y271780D03*
X101600Y271780D03*
X127000Y271780D03*
X152400Y271780D03*
X177800Y271780D03*
X203200Y271780D03*
D10*
X118795Y320515D02*
X118795Y330505D01*
X118795Y320515D02*
X109805Y320515D01*
X109805Y330505D01*
X118795Y330505D01*
X118795Y322923D02*
X109805Y322923D01*
X109805Y325331D02*
X118795Y325331D01*
X118795Y327739D02*
X109805Y327739D01*
X109805Y330147D02*
X118795Y330147D01*
X118795Y337515D02*
X118795Y347505D01*
X118795Y337515D02*
X109805Y337515D01*
X109805Y347505D01*
X118795Y347505D01*
X118795Y339923D02*
X109805Y339923D01*
X109805Y342331D02*
X118795Y342331D01*
X118795Y344739D02*
X109805Y344739D01*
X109805Y347147D02*
X118795Y347147D01*
X135205Y347505D02*
X135205Y337515D01*
X135205Y347505D02*
X144195Y347505D01*
X144195Y337515D01*
X135205Y337515D01*
X135205Y339923D02*
X144195Y339923D01*
X144195Y342331D02*
X135205Y342331D01*
X135205Y344739D02*
X144195Y344739D01*
X144195Y347147D02*
X135205Y347147D01*
X135205Y330505D02*
X135205Y320515D01*
X135205Y330505D02*
X144195Y330505D01*
X144195Y320515D01*
X135205Y320515D01*
X135205Y322923D02*
X144195Y322923D01*
X144195Y325331D02*
X135205Y325331D01*
X135205Y327739D02*
X144195Y327739D01*
X144195Y330147D02*
X135205Y330147D01*
X103455Y434035D02*
X103455Y444025D01*
X112445Y444025D01*
X112445Y434035D01*
X103455Y434035D01*
X103455Y436443D02*
X112445Y436443D01*
X112445Y438851D02*
X103455Y438851D01*
X103455Y441259D02*
X112445Y441259D01*
X112445Y443667D02*
X103455Y443667D01*
X103455Y427025D02*
X103455Y417035D01*
X103455Y427025D02*
X112445Y427025D01*
X112445Y417035D01*
X103455Y417035D01*
X103455Y419443D02*
X112445Y419443D01*
X112445Y421851D02*
X103455Y421851D01*
X103455Y424259D02*
X112445Y424259D01*
X112445Y426667D02*
X103455Y426667D01*
X150545Y427025D02*
X150545Y417035D01*
X141555Y417035D01*
X141555Y427025D01*
X150545Y427025D01*
X150545Y419443D02*
X141555Y419443D01*
X141555Y421851D02*
X150545Y421851D01*
X150545Y424259D02*
X141555Y424259D01*
X141555Y426667D02*
X150545Y426667D01*
X150545Y434035D02*
X150545Y444025D01*
X150545Y434035D02*
X141555Y434035D01*
X141555Y444025D01*
X150545Y444025D01*
X150545Y436443D02*
X141555Y436443D01*
X141555Y438851D02*
X150545Y438851D01*
X150545Y441259D02*
X141555Y441259D01*
X141555Y443667D02*
X150545Y443667D01*
X212565Y426035D02*
X222555Y426035D01*
X212565Y426035D02*
X212565Y435025D01*
X222555Y435025D01*
X222555Y426035D01*
X222555Y428443D02*
X212565Y428443D01*
X212565Y430851D02*
X222555Y430851D01*
X222555Y433259D02*
X212565Y433259D01*
X229565Y426035D02*
X239555Y426035D01*
X229565Y426035D02*
X229565Y435025D01*
X239555Y435025D01*
X239555Y426035D01*
X239555Y428443D02*
X229565Y428443D01*
X229565Y430851D02*
X239555Y430851D01*
X239555Y433259D02*
X229565Y433259D01*
D17*
X127745Y394575D02*
X127745Y392835D01*
X126255Y392835D01*
X126255Y394575D01*
X127745Y394575D01*
X122745Y394575D02*
X122745Y392835D01*
X121255Y392835D01*
X121255Y394575D01*
X122745Y394575D01*
X132745Y394575D02*
X132745Y392835D01*
X131255Y392835D01*
X131255Y394575D01*
X132745Y394575D01*
X127745Y379325D02*
X127745Y377585D01*
X126255Y377585D01*
X126255Y379325D01*
X127745Y379325D01*
X122745Y379325D02*
X122745Y377585D01*
X121255Y377585D01*
X121255Y379325D01*
X122745Y379325D01*
X132745Y379325D02*
X132745Y377585D01*
X131255Y377585D01*
X131255Y379325D01*
X132745Y379325D01*
X120245Y382835D02*
X120245Y384325D01*
X120245Y382835D02*
X118505Y382835D01*
X118505Y384325D01*
X120245Y384325D01*
X120245Y387835D02*
X120245Y389325D01*
X120245Y387835D02*
X118505Y387835D01*
X118505Y389325D01*
X120245Y389325D01*
X135495Y384325D02*
X135495Y382835D01*
X133755Y382835D01*
X133755Y384325D01*
X135495Y384325D01*
X135495Y387835D02*
X135495Y389325D01*
X135495Y387835D02*
X133755Y387835D01*
X133755Y389325D01*
X135495Y389325D01*
D10*
X390575Y417035D02*
X390575Y427025D01*
X390575Y417035D02*
X381585Y417035D01*
X381585Y427025D01*
X390575Y427025D01*
X390575Y419443D02*
X381585Y419443D01*
X381585Y421851D02*
X390575Y421851D01*
X390575Y424259D02*
X381585Y424259D01*
X381585Y426667D02*
X390575Y426667D01*
X390575Y434035D02*
X390575Y444025D01*
X390575Y434035D02*
X381585Y434035D01*
X381585Y444025D01*
X390575Y444025D01*
X390575Y436443D02*
X381585Y436443D01*
X381585Y438851D02*
X390575Y438851D01*
X390575Y441259D02*
X381585Y441259D01*
X381585Y443667D02*
X390575Y443667D01*
D11*
X490395Y446065D02*
X490395Y453095D01*
X497425Y453095D01*
X497425Y446065D01*
X490395Y446065D01*
X490395Y450334D02*
X497425Y450334D01*
X472855Y453095D02*
X472855Y446065D01*
X472855Y453095D02*
X479885Y453095D01*
X479885Y446065D01*
X472855Y446065D01*
X472855Y450334D02*
X479885Y450334D01*
D12*
X462280Y474980D03*
X271780Y271780D03*
D13*
X284480Y487680D03*
X487680Y487680D03*
D14*
X263585Y419625D02*
X263585Y408535D01*
X263585Y419625D02*
X282675Y419625D01*
X282675Y408535D01*
X263585Y408535D01*
X263585Y410847D02*
X282675Y410847D01*
X282675Y413159D02*
X263585Y413159D01*
X263585Y415471D02*
X282675Y415471D01*
X282675Y417783D02*
X263585Y417783D01*
X263585Y363625D02*
X263585Y352535D01*
X263585Y363625D02*
X282675Y363625D01*
X282675Y352535D01*
X263585Y352535D01*
X263585Y354847D02*
X282675Y354847D01*
X282675Y357159D02*
X263585Y357159D01*
X263585Y359471D02*
X282675Y359471D01*
X282675Y361783D02*
X263585Y361783D01*
D15*
X303647Y398597D02*
X303647Y403563D01*
X316113Y403563D01*
X316113Y398597D01*
X303647Y398597D01*
X303647Y401027D02*
X316113Y401027D01*
X316113Y403457D02*
X303647Y403457D01*
X303647Y393563D02*
X303647Y388597D01*
X303647Y393563D02*
X316113Y393563D01*
X316113Y388597D01*
X303647Y388597D01*
X303647Y391027D02*
X316113Y391027D01*
X316113Y393457D02*
X303647Y393457D01*
X303647Y383563D02*
X303647Y378597D01*
X303647Y383563D02*
X316113Y383563D01*
X316113Y378597D01*
X303647Y378597D01*
X303647Y381027D02*
X316113Y381027D01*
X316113Y383457D02*
X303647Y383457D01*
X303647Y373563D02*
X303647Y368597D01*
X303647Y373563D02*
X316113Y373563D01*
X316113Y368597D01*
X303647Y368597D01*
X303647Y371027D02*
X316113Y371027D01*
X316113Y373457D02*
X303647Y373457D01*
D14*
X508575Y363625D02*
X508575Y352535D01*
X489485Y352535D01*
X489485Y363625D01*
X508575Y363625D01*
X508575Y354847D02*
X489485Y354847D01*
X489485Y357159D02*
X508575Y357159D01*
X508575Y359471D02*
X489485Y359471D01*
X489485Y361783D02*
X508575Y361783D01*
X508575Y408535D02*
X508575Y419625D01*
X508575Y408535D02*
X489485Y408535D01*
X489485Y419625D01*
X508575Y419625D01*
X508575Y410847D02*
X489485Y410847D01*
X489485Y413159D02*
X508575Y413159D01*
X508575Y415471D02*
X489485Y415471D01*
X489485Y417783D02*
X508575Y417783D01*
D15*
X468513Y373563D02*
X468513Y368597D01*
X456047Y368597D01*
X456047Y373563D01*
X468513Y373563D01*
X468513Y371027D02*
X456047Y371027D01*
X456047Y373457D02*
X468513Y373457D01*
X468513Y378597D02*
X468513Y383563D01*
X468513Y378597D02*
X456047Y378597D01*
X456047Y383563D01*
X468513Y383563D01*
X468513Y381027D02*
X456047Y381027D01*
X456047Y383457D02*
X468513Y383457D01*
X468513Y388597D02*
X468513Y393563D01*
X468513Y388597D02*
X456047Y388597D01*
X456047Y393563D01*
X468513Y393563D01*
X468513Y391027D02*
X456047Y391027D01*
X456047Y393457D02*
X468513Y393457D01*
X468513Y398597D02*
X468513Y403563D01*
X468513Y398597D02*
X456047Y398597D01*
X456047Y403563D01*
X468513Y403563D01*
X468513Y401027D02*
X456047Y401027D01*
X456047Y403457D02*
X468513Y403457D01*
D16*
X309880Y271780D03*
X335280Y271780D03*
X360680Y271780D03*
X386080Y271780D03*
X411480Y271780D03*
X436880Y271780D03*
X462280Y271780D03*
D10*
X377875Y320515D02*
X377875Y330505D01*
X377875Y320515D02*
X368885Y320515D01*
X368885Y330505D01*
X377875Y330505D01*
X377875Y322923D02*
X368885Y322923D01*
X368885Y325331D02*
X377875Y325331D01*
X377875Y327739D02*
X368885Y327739D01*
X368885Y330147D02*
X377875Y330147D01*
X377875Y337515D02*
X377875Y347505D01*
X377875Y337515D02*
X368885Y337515D01*
X368885Y347505D01*
X377875Y347505D01*
X377875Y339923D02*
X368885Y339923D01*
X368885Y342331D02*
X377875Y342331D01*
X377875Y344739D02*
X368885Y344739D01*
X368885Y347147D02*
X377875Y347147D01*
X394285Y347505D02*
X394285Y337515D01*
X394285Y347505D02*
X403275Y347505D01*
X403275Y337515D01*
X394285Y337515D01*
X394285Y339923D02*
X403275Y339923D01*
X403275Y342331D02*
X394285Y342331D01*
X394285Y344739D02*
X403275Y344739D01*
X403275Y347147D02*
X394285Y347147D01*
X394285Y330505D02*
X394285Y320515D01*
X394285Y330505D02*
X403275Y330505D01*
X403275Y320515D01*
X394285Y320515D01*
X394285Y322923D02*
X403275Y322923D01*
X403275Y325331D02*
X394285Y325331D01*
X394285Y327739D02*
X403275Y327739D01*
X403275Y330147D02*
X394285Y330147D01*
X362535Y434035D02*
X362535Y444025D01*
X371525Y444025D01*
X371525Y434035D01*
X362535Y434035D01*
X362535Y436443D02*
X371525Y436443D01*
X371525Y438851D02*
X362535Y438851D01*
X362535Y441259D02*
X371525Y441259D01*
X371525Y443667D02*
X362535Y443667D01*
X362535Y427025D02*
X362535Y417035D01*
X362535Y427025D02*
X371525Y427025D01*
X371525Y417035D01*
X362535Y417035D01*
X362535Y419443D02*
X371525Y419443D01*
X371525Y421851D02*
X362535Y421851D01*
X362535Y424259D02*
X371525Y424259D01*
X371525Y426667D02*
X362535Y426667D01*
X409625Y427025D02*
X409625Y417035D01*
X400635Y417035D01*
X400635Y427025D01*
X409625Y427025D01*
X409625Y419443D02*
X400635Y419443D01*
X400635Y421851D02*
X409625Y421851D01*
X409625Y424259D02*
X400635Y424259D01*
X400635Y426667D02*
X409625Y426667D01*
X409625Y434035D02*
X409625Y444025D01*
X409625Y434035D02*
X400635Y434035D01*
X400635Y444025D01*
X409625Y444025D01*
X409625Y436443D02*
X400635Y436443D01*
X400635Y438851D02*
X409625Y438851D01*
X409625Y441259D02*
X400635Y441259D01*
X400635Y443667D02*
X409625Y443667D01*
X471645Y426035D02*
X481635Y426035D01*
X471645Y426035D02*
X471645Y435025D01*
X481635Y435025D01*
X481635Y426035D01*
X481635Y428443D02*
X471645Y428443D01*
X471645Y430851D02*
X481635Y430851D01*
X481635Y433259D02*
X471645Y433259D01*
X488645Y426035D02*
X498635Y426035D01*
X488645Y426035D02*
X488645Y435025D01*
X498635Y435025D01*
X498635Y426035D01*
X498635Y428443D02*
X488645Y428443D01*
X488645Y430851D02*
X498635Y430851D01*
X498635Y433259D02*
X488645Y433259D01*
D17*
X386825Y394575D02*
X386825Y392835D01*
X385335Y392835D01*
X385335Y394575D01*
X386825Y394575D01*
X381825Y394575D02*
X381825Y392835D01*
X380335Y392835D01*
X380335Y394575D01*
X381825Y394575D01*
X391825Y394575D02*
X391825Y392835D01*
X390335Y392835D01*
X390335Y394575D01*
X391825Y394575D01*
X386825Y379325D02*
X386825Y377585D01*
X385335Y377585D01*
X385335Y379325D01*
X386825Y379325D01*
X381825Y379325D02*
X381825Y377585D01*
X380335Y377585D01*
X380335Y379325D01*
X381825Y379325D01*
X391825Y379325D02*
X391825Y377585D01*
X390335Y377585D01*
X390335Y379325D01*
X391825Y379325D01*
X379325Y382835D02*
X379325Y384325D01*
X379325Y382835D02*
X377585Y382835D01*
X377585Y384325D01*
X379325Y384325D01*
X379325Y387835D02*
X379325Y389325D01*
X379325Y387835D02*
X377585Y387835D01*
X377585Y389325D01*
X379325Y389325D01*
X394575Y384325D02*
X394575Y382835D01*
X392835Y382835D01*
X392835Y384325D01*
X394575Y384325D01*
X394575Y387835D02*
X394575Y389325D01*
X394575Y387835D02*
X392835Y387835D01*
X392835Y389325D01*
X394575Y389325D01*
D10*
X649655Y417035D02*
X649655Y427025D01*
X649655Y417035D02*
X640665Y417035D01*
X640665Y427025D01*
X649655Y427025D01*
X649655Y419443D02*
X640665Y419443D01*
X640665Y421851D02*
X649655Y421851D01*
X649655Y424259D02*
X640665Y424259D01*
X640665Y426667D02*
X649655Y426667D01*
X649655Y434035D02*
X649655Y444025D01*
X649655Y434035D02*
X640665Y434035D01*
X640665Y444025D01*
X649655Y444025D01*
X649655Y436443D02*
X640665Y436443D01*
X640665Y438851D02*
X649655Y438851D01*
X649655Y441259D02*
X640665Y441259D01*
X640665Y443667D02*
X649655Y443667D01*
D11*
X749475Y446065D02*
X749475Y453095D01*
X756505Y453095D01*
X756505Y446065D01*
X749475Y446065D01*
X749475Y450334D02*
X756505Y450334D01*
X731935Y453095D02*
X731935Y446065D01*
X731935Y453095D02*
X738965Y453095D01*
X738965Y446065D01*
X731935Y446065D01*
X731935Y450334D02*
X738965Y450334D01*
D12*
X721360Y474980D03*
X530860Y271780D03*
D13*
X543560Y487680D03*
X746760Y487680D03*
D14*
X522665Y419625D02*
X522665Y408535D01*
X522665Y419625D02*
X541755Y419625D01*
X541755Y408535D01*
X522665Y408535D01*
X522665Y410847D02*
X541755Y410847D01*
X541755Y413159D02*
X522665Y413159D01*
X522665Y415471D02*
X541755Y415471D01*
X541755Y417783D02*
X522665Y417783D01*
X522665Y363625D02*
X522665Y352535D01*
X522665Y363625D02*
X541755Y363625D01*
X541755Y352535D01*
X522665Y352535D01*
X522665Y354847D02*
X541755Y354847D01*
X541755Y357159D02*
X522665Y357159D01*
X522665Y359471D02*
X541755Y359471D01*
X541755Y361783D02*
X522665Y361783D01*
D15*
X562727Y398597D02*
X562727Y403563D01*
X575193Y403563D01*
X575193Y398597D01*
X562727Y398597D01*
X562727Y401027D02*
X575193Y401027D01*
X575193Y403457D02*
X562727Y403457D01*
X562727Y393563D02*
X562727Y388597D01*
X562727Y393563D02*
X575193Y393563D01*
X575193Y388597D01*
X562727Y388597D01*
X562727Y391027D02*
X575193Y391027D01*
X575193Y393457D02*
X562727Y393457D01*
X562727Y383563D02*
X562727Y378597D01*
X562727Y383563D02*
X575193Y383563D01*
X575193Y378597D01*
X562727Y378597D01*
X562727Y381027D02*
X575193Y381027D01*
X575193Y383457D02*
X562727Y383457D01*
X562727Y373563D02*
X562727Y368597D01*
X562727Y373563D02*
X575193Y373563D01*
X575193Y368597D01*
X562727Y368597D01*
X562727Y371027D02*
X575193Y371027D01*
X575193Y373457D02*
X562727Y373457D01*
D14*
X767655Y363625D02*
X767655Y352535D01*
X748565Y352535D01*
X748565Y363625D01*
X767655Y363625D01*
X767655Y354847D02*
X748565Y354847D01*
X748565Y357159D02*
X767655Y357159D01*
X767655Y359471D02*
X748565Y359471D01*
X748565Y361783D02*
X767655Y361783D01*
X767655Y408535D02*
X767655Y419625D01*
X767655Y408535D02*
X748565Y408535D01*
X748565Y419625D01*
X767655Y419625D01*
X767655Y410847D02*
X748565Y410847D01*
X748565Y413159D02*
X767655Y413159D01*
X767655Y415471D02*
X748565Y415471D01*
X748565Y417783D02*
X767655Y417783D01*
D15*
X727593Y373563D02*
X727593Y368597D01*
X715127Y368597D01*
X715127Y373563D01*
X727593Y373563D01*
X727593Y371027D02*
X715127Y371027D01*
X715127Y373457D02*
X727593Y373457D01*
X727593Y378597D02*
X727593Y383563D01*
X727593Y378597D02*
X715127Y378597D01*
X715127Y383563D01*
X727593Y383563D01*
X727593Y381027D02*
X715127Y381027D01*
X715127Y383457D02*
X727593Y383457D01*
X727593Y388597D02*
X727593Y393563D01*
X727593Y388597D02*
X715127Y388597D01*
X715127Y393563D01*
X727593Y393563D01*
X727593Y391027D02*
X715127Y391027D01*
X715127Y393457D02*
X727593Y393457D01*
X727593Y398597D02*
X727593Y403563D01*
X727593Y398597D02*
X715127Y398597D01*
X715127Y403563D01*
X727593Y403563D01*
X727593Y401027D02*
X715127Y401027D01*
X715127Y403457D02*
X727593Y403457D01*
D16*
X568960Y271780D03*
X594360Y271780D03*
X619760Y271780D03*
X645160Y271780D03*
X670560Y271780D03*
X695960Y271780D03*
X721360Y271780D03*
D10*
X636955Y320515D02*
X636955Y330505D01*
X636955Y320515D02*
X627965Y320515D01*
X627965Y330505D01*
X636955Y330505D01*
X636955Y322923D02*
X627965Y322923D01*
X627965Y325331D02*
X636955Y325331D01*
X636955Y327739D02*
X627965Y327739D01*
X627965Y330147D02*
X636955Y330147D01*
X636955Y337515D02*
X636955Y347505D01*
X636955Y337515D02*
X627965Y337515D01*
X627965Y347505D01*
X636955Y347505D01*
X636955Y339923D02*
X627965Y339923D01*
X627965Y342331D02*
X636955Y342331D01*
X636955Y344739D02*
X627965Y344739D01*
X627965Y347147D02*
X636955Y347147D01*
X653365Y347505D02*
X653365Y337515D01*
X653365Y347505D02*
X662355Y347505D01*
X662355Y337515D01*
X653365Y337515D01*
X653365Y339923D02*
X662355Y339923D01*
X662355Y342331D02*
X653365Y342331D01*
X653365Y344739D02*
X662355Y344739D01*
X662355Y347147D02*
X653365Y347147D01*
X653365Y330505D02*
X653365Y320515D01*
X653365Y330505D02*
X662355Y330505D01*
X662355Y320515D01*
X653365Y320515D01*
X653365Y322923D02*
X662355Y322923D01*
X662355Y325331D02*
X653365Y325331D01*
X653365Y327739D02*
X662355Y327739D01*
X662355Y330147D02*
X653365Y330147D01*
X621615Y434035D02*
X621615Y444025D01*
X630605Y444025D01*
X630605Y434035D01*
X621615Y434035D01*
X621615Y436443D02*
X630605Y436443D01*
X630605Y438851D02*
X621615Y438851D01*
X621615Y441259D02*
X630605Y441259D01*
X630605Y443667D02*
X621615Y443667D01*
X621615Y427025D02*
X621615Y417035D01*
X621615Y427025D02*
X630605Y427025D01*
X630605Y417035D01*
X621615Y417035D01*
X621615Y419443D02*
X630605Y419443D01*
X630605Y421851D02*
X621615Y421851D01*
X621615Y424259D02*
X630605Y424259D01*
X630605Y426667D02*
X621615Y426667D01*
X668705Y427025D02*
X668705Y417035D01*
X659715Y417035D01*
X659715Y427025D01*
X668705Y427025D01*
X668705Y419443D02*
X659715Y419443D01*
X659715Y421851D02*
X668705Y421851D01*
X668705Y424259D02*
X659715Y424259D01*
X659715Y426667D02*
X668705Y426667D01*
X668705Y434035D02*
X668705Y444025D01*
X668705Y434035D02*
X659715Y434035D01*
X659715Y444025D01*
X668705Y444025D01*
X668705Y436443D02*
X659715Y436443D01*
X659715Y438851D02*
X668705Y438851D01*
X668705Y441259D02*
X659715Y441259D01*
X659715Y443667D02*
X668705Y443667D01*
X730725Y426035D02*
X740715Y426035D01*
X730725Y426035D02*
X730725Y435025D01*
X740715Y435025D01*
X740715Y426035D01*
X740715Y428443D02*
X730725Y428443D01*
X730725Y430851D02*
X740715Y430851D01*
X740715Y433259D02*
X730725Y433259D01*
X747725Y426035D02*
X757715Y426035D01*
X747725Y426035D02*
X747725Y435025D01*
X757715Y435025D01*
X757715Y426035D01*
X757715Y428443D02*
X747725Y428443D01*
X747725Y430851D02*
X757715Y430851D01*
X757715Y433259D02*
X747725Y433259D01*
D17*
X645905Y394575D02*
X645905Y392835D01*
X644415Y392835D01*
X644415Y394575D01*
X645905Y394575D01*
X640905Y394575D02*
X640905Y392835D01*
X639415Y392835D01*
X639415Y394575D01*
X640905Y394575D01*
X650905Y394575D02*
X650905Y392835D01*
X649415Y392835D01*
X649415Y394575D01*
X650905Y394575D01*
X645905Y379325D02*
X645905Y377585D01*
X644415Y377585D01*
X644415Y379325D01*
X645905Y379325D01*
X640905Y379325D02*
X640905Y377585D01*
X639415Y377585D01*
X639415Y379325D01*
X640905Y379325D01*
X650905Y379325D02*
X650905Y377585D01*
X649415Y377585D01*
X649415Y379325D01*
X650905Y379325D01*
X638405Y382835D02*
X638405Y384325D01*
X638405Y382835D02*
X636665Y382835D01*
X636665Y384325D01*
X638405Y384325D01*
X638405Y387835D02*
X638405Y389325D01*
X638405Y387835D02*
X636665Y387835D01*
X636665Y389325D01*
X638405Y389325D01*
X653655Y384325D02*
X653655Y382835D01*
X651915Y382835D01*
X651915Y384325D01*
X653655Y384325D01*
X653655Y387835D02*
X653655Y389325D01*
X653655Y387835D02*
X651915Y387835D01*
X651915Y389325D01*
X653655Y389325D01*
D10*
X908735Y417035D02*
X908735Y427025D01*
X908735Y417035D02*
X899745Y417035D01*
X899745Y427025D01*
X908735Y427025D01*
X908735Y419443D02*
X899745Y419443D01*
X899745Y421851D02*
X908735Y421851D01*
X908735Y424259D02*
X899745Y424259D01*
X899745Y426667D02*
X908735Y426667D01*
X908735Y434035D02*
X908735Y444025D01*
X908735Y434035D02*
X899745Y434035D01*
X899745Y444025D01*
X908735Y444025D01*
X908735Y436443D02*
X899745Y436443D01*
X899745Y438851D02*
X908735Y438851D01*
X908735Y441259D02*
X899745Y441259D01*
X899745Y443667D02*
X908735Y443667D01*
D11*
X1008555Y446065D02*
X1008555Y453095D01*
X1015585Y453095D01*
X1015585Y446065D01*
X1008555Y446065D01*
X1008555Y450334D02*
X1015585Y450334D01*
X991015Y453095D02*
X991015Y446065D01*
X991015Y453095D02*
X998045Y453095D01*
X998045Y446065D01*
X991015Y446065D01*
X991015Y450334D02*
X998045Y450334D01*
D12*
X980440Y474980D03*
X789940Y271780D03*
D13*
X802640Y487680D03*
X1005840Y487680D03*
D14*
X781745Y419625D02*
X781745Y408535D01*
X781745Y419625D02*
X800835Y419625D01*
X800835Y408535D01*
X781745Y408535D01*
X781745Y410847D02*
X800835Y410847D01*
X800835Y413159D02*
X781745Y413159D01*
X781745Y415471D02*
X800835Y415471D01*
X800835Y417783D02*
X781745Y417783D01*
X781745Y363625D02*
X781745Y352535D01*
X781745Y363625D02*
X800835Y363625D01*
X800835Y352535D01*
X781745Y352535D01*
X781745Y354847D02*
X800835Y354847D01*
X800835Y357159D02*
X781745Y357159D01*
X781745Y359471D02*
X800835Y359471D01*
X800835Y361783D02*
X781745Y361783D01*
D15*
X821807Y398597D02*
X821807Y403563D01*
X834273Y403563D01*
X834273Y398597D01*
X821807Y398597D01*
X821807Y401027D02*
X834273Y401027D01*
X834273Y403457D02*
X821807Y403457D01*
X821807Y393563D02*
X821807Y388597D01*
X821807Y393563D02*
X834273Y393563D01*
X834273Y388597D01*
X821807Y388597D01*
X821807Y391027D02*
X834273Y391027D01*
X834273Y393457D02*
X821807Y393457D01*
X821807Y383563D02*
X821807Y378597D01*
X821807Y383563D02*
X834273Y383563D01*
X834273Y378597D01*
X821807Y378597D01*
X821807Y381027D02*
X834273Y381027D01*
X834273Y383457D02*
X821807Y383457D01*
X821807Y373563D02*
X821807Y368597D01*
X821807Y373563D02*
X834273Y373563D01*
X834273Y368597D01*
X821807Y368597D01*
X821807Y371027D02*
X834273Y371027D01*
X834273Y373457D02*
X821807Y373457D01*
D14*
X1026735Y363625D02*
X1026735Y352535D01*
X1007645Y352535D01*
X1007645Y363625D01*
X1026735Y363625D01*
X1026735Y354847D02*
X1007645Y354847D01*
X1007645Y357159D02*
X1026735Y357159D01*
X1026735Y359471D02*
X1007645Y359471D01*
X1007645Y361783D02*
X1026735Y361783D01*
X1026735Y408535D02*
X1026735Y419625D01*
X1026735Y408535D02*
X1007645Y408535D01*
X1007645Y419625D01*
X1026735Y419625D01*
X1026735Y410847D02*
X1007645Y410847D01*
X1007645Y413159D02*
X1026735Y413159D01*
X1026735Y415471D02*
X1007645Y415471D01*
X1007645Y417783D02*
X1026735Y417783D01*
D15*
X986673Y373563D02*
X986673Y368597D01*
X974207Y368597D01*
X974207Y373563D01*
X986673Y373563D01*
X986673Y371027D02*
X974207Y371027D01*
X974207Y373457D02*
X986673Y373457D01*
X986673Y378597D02*
X986673Y383563D01*
X986673Y378597D02*
X974207Y378597D01*
X974207Y383563D01*
X986673Y383563D01*
X986673Y381027D02*
X974207Y381027D01*
X974207Y383457D02*
X986673Y383457D01*
X986673Y388597D02*
X986673Y393563D01*
X986673Y388597D02*
X974207Y388597D01*
X974207Y393563D01*
X986673Y393563D01*
X986673Y391027D02*
X974207Y391027D01*
X974207Y393457D02*
X986673Y393457D01*
X986673Y398597D02*
X986673Y403563D01*
X986673Y398597D02*
X974207Y398597D01*
X974207Y403563D01*
X986673Y403563D01*
X986673Y401027D02*
X974207Y401027D01*
X974207Y403457D02*
X986673Y403457D01*
D16*
X828040Y271780D03*
X853440Y271780D03*
X878840Y271780D03*
X904240Y271780D03*
X929640Y271780D03*
X955040Y271780D03*
X980440Y271780D03*
D10*
X896035Y320515D02*
X896035Y330505D01*
X896035Y320515D02*
X887045Y320515D01*
X887045Y330505D01*
X896035Y330505D01*
X896035Y322923D02*
X887045Y322923D01*
X887045Y325331D02*
X896035Y325331D01*
X896035Y327739D02*
X887045Y327739D01*
X887045Y330147D02*
X896035Y330147D01*
X896035Y337515D02*
X896035Y347505D01*
X896035Y337515D02*
X887045Y337515D01*
X887045Y347505D01*
X896035Y347505D01*
X896035Y339923D02*
X887045Y339923D01*
X887045Y342331D02*
X896035Y342331D01*
X896035Y344739D02*
X887045Y344739D01*
X887045Y347147D02*
X896035Y347147D01*
X912445Y347505D02*
X912445Y337515D01*
X912445Y347505D02*
X921435Y347505D01*
X921435Y337515D01*
X912445Y337515D01*
X912445Y339923D02*
X921435Y339923D01*
X921435Y342331D02*
X912445Y342331D01*
X912445Y344739D02*
X921435Y344739D01*
X921435Y347147D02*
X912445Y347147D01*
X912445Y330505D02*
X912445Y320515D01*
X912445Y330505D02*
X921435Y330505D01*
X921435Y320515D01*
X912445Y320515D01*
X912445Y322923D02*
X921435Y322923D01*
X921435Y325331D02*
X912445Y325331D01*
X912445Y327739D02*
X921435Y327739D01*
X921435Y330147D02*
X912445Y330147D01*
X880695Y434035D02*
X880695Y444025D01*
X889685Y444025D01*
X889685Y434035D01*
X880695Y434035D01*
X880695Y436443D02*
X889685Y436443D01*
X889685Y438851D02*
X880695Y438851D01*
X880695Y441259D02*
X889685Y441259D01*
X889685Y443667D02*
X880695Y443667D01*
X880695Y427025D02*
X880695Y417035D01*
X880695Y427025D02*
X889685Y427025D01*
X889685Y417035D01*
X880695Y417035D01*
X880695Y419443D02*
X889685Y419443D01*
X889685Y421851D02*
X880695Y421851D01*
X880695Y424259D02*
X889685Y424259D01*
X889685Y426667D02*
X880695Y426667D01*
X927785Y427025D02*
X927785Y417035D01*
X918795Y417035D01*
X918795Y427025D01*
X927785Y427025D01*
X927785Y419443D02*
X918795Y419443D01*
X918795Y421851D02*
X927785Y421851D01*
X927785Y424259D02*
X918795Y424259D01*
X918795Y426667D02*
X927785Y426667D01*
X927785Y434035D02*
X927785Y444025D01*
X927785Y434035D02*
X918795Y434035D01*
X918795Y444025D01*
X927785Y444025D01*
X927785Y436443D02*
X918795Y436443D01*
X918795Y438851D02*
X927785Y438851D01*
X927785Y441259D02*
X918795Y441259D01*
X918795Y443667D02*
X927785Y443667D01*
X989805Y426035D02*
X999795Y426035D01*
X989805Y426035D02*
X989805Y435025D01*
X999795Y435025D01*
X999795Y426035D01*
X999795Y428443D02*
X989805Y428443D01*
X989805Y430851D02*
X999795Y430851D01*
X999795Y433259D02*
X989805Y433259D01*
X1006805Y426035D02*
X1016795Y426035D01*
X1006805Y426035D02*
X1006805Y435025D01*
X1016795Y435025D01*
X1016795Y426035D01*
X1016795Y428443D02*
X1006805Y428443D01*
X1006805Y430851D02*
X1016795Y430851D01*
X1016795Y433259D02*
X1006805Y433259D01*
D17*
X904985Y394575D02*
X904985Y392835D01*
X903495Y392835D01*
X903495Y394575D01*
X904985Y394575D01*
X899985Y394575D02*
X899985Y392835D01*
X898495Y392835D01*
X898495Y394575D01*
X899985Y394575D01*
X909985Y394575D02*
X909985Y392835D01*
X908495Y392835D01*
X908495Y394575D01*
X909985Y394575D01*
X904985Y379325D02*
X904985Y377585D01*
X903495Y377585D01*
X903495Y379325D01*
X904985Y379325D01*
X899985Y379325D02*
X899985Y377585D01*
X898495Y377585D01*
X898495Y379325D01*
X899985Y379325D01*
X909985Y379325D02*
X909985Y377585D01*
X908495Y377585D01*
X908495Y379325D01*
X909985Y379325D01*
X897485Y382835D02*
X897485Y384325D01*
X897485Y382835D02*
X895745Y382835D01*
X895745Y384325D01*
X897485Y384325D01*
X897485Y387835D02*
X897485Y389325D01*
X897485Y387835D02*
X895745Y387835D01*
X895745Y389325D01*
X897485Y389325D01*
X912735Y384325D02*
X912735Y382835D01*
X910995Y382835D01*
X910995Y384325D01*
X912735Y384325D01*
X912735Y387835D02*
X912735Y389325D01*
X912735Y387835D02*
X910995Y387835D01*
X910995Y389325D01*
X912735Y389325D01*
D10*
X1167815Y417035D02*
X1167815Y427025D01*
X1167815Y417035D02*
X1158825Y417035D01*
X1158825Y427025D01*
X1167815Y427025D01*
X1167815Y419443D02*
X1158825Y419443D01*
X1158825Y421851D02*
X1167815Y421851D01*
X1167815Y424259D02*
X1158825Y424259D01*
X1158825Y426667D02*
X1167815Y426667D01*
X1167815Y434035D02*
X1167815Y444025D01*
X1167815Y434035D02*
X1158825Y434035D01*
X1158825Y444025D01*
X1167815Y444025D01*
X1167815Y436443D02*
X1158825Y436443D01*
X1158825Y438851D02*
X1167815Y438851D01*
X1167815Y441259D02*
X1158825Y441259D01*
X1158825Y443667D02*
X1167815Y443667D01*
D11*
X1267635Y446065D02*
X1267635Y453095D01*
X1274665Y453095D01*
X1274665Y446065D01*
X1267635Y446065D01*
X1267635Y450334D02*
X1274665Y450334D01*
X1250095Y453095D02*
X1250095Y446065D01*
X1250095Y453095D02*
X1257125Y453095D01*
X1257125Y446065D01*
X1250095Y446065D01*
X1250095Y450334D02*
X1257125Y450334D01*
D12*
X1239520Y474980D03*
X1049020Y271780D03*
D13*
X1061720Y487680D03*
X1264920Y487680D03*
D14*
X1040825Y419625D02*
X1040825Y408535D01*
X1040825Y419625D02*
X1059915Y419625D01*
X1059915Y408535D01*
X1040825Y408535D01*
X1040825Y410847D02*
X1059915Y410847D01*
X1059915Y413159D02*
X1040825Y413159D01*
X1040825Y415471D02*
X1059915Y415471D01*
X1059915Y417783D02*
X1040825Y417783D01*
X1040825Y363625D02*
X1040825Y352535D01*
X1040825Y363625D02*
X1059915Y363625D01*
X1059915Y352535D01*
X1040825Y352535D01*
X1040825Y354847D02*
X1059915Y354847D01*
X1059915Y357159D02*
X1040825Y357159D01*
X1040825Y359471D02*
X1059915Y359471D01*
X1059915Y361783D02*
X1040825Y361783D01*
D15*
X1080887Y398597D02*
X1080887Y403563D01*
X1093353Y403563D01*
X1093353Y398597D01*
X1080887Y398597D01*
X1080887Y401027D02*
X1093353Y401027D01*
X1093353Y403457D02*
X1080887Y403457D01*
X1080887Y393563D02*
X1080887Y388597D01*
X1080887Y393563D02*
X1093353Y393563D01*
X1093353Y388597D01*
X1080887Y388597D01*
X1080887Y391027D02*
X1093353Y391027D01*
X1093353Y393457D02*
X1080887Y393457D01*
X1080887Y383563D02*
X1080887Y378597D01*
X1080887Y383563D02*
X1093353Y383563D01*
X1093353Y378597D01*
X1080887Y378597D01*
X1080887Y381027D02*
X1093353Y381027D01*
X1093353Y383457D02*
X1080887Y383457D01*
X1080887Y373563D02*
X1080887Y368597D01*
X1080887Y373563D02*
X1093353Y373563D01*
X1093353Y368597D01*
X1080887Y368597D01*
X1080887Y371027D02*
X1093353Y371027D01*
X1093353Y373457D02*
X1080887Y373457D01*
D14*
X1285815Y363625D02*
X1285815Y352535D01*
X1266725Y352535D01*
X1266725Y363625D01*
X1285815Y363625D01*
X1285815Y354847D02*
X1266725Y354847D01*
X1266725Y357159D02*
X1285815Y357159D01*
X1285815Y359471D02*
X1266725Y359471D01*
X1266725Y361783D02*
X1285815Y361783D01*
X1285815Y408535D02*
X1285815Y419625D01*
X1285815Y408535D02*
X1266725Y408535D01*
X1266725Y419625D01*
X1285815Y419625D01*
X1285815Y410847D02*
X1266725Y410847D01*
X1266725Y413159D02*
X1285815Y413159D01*
X1285815Y415471D02*
X1266725Y415471D01*
X1266725Y417783D02*
X1285815Y417783D01*
D15*
X1245753Y373563D02*
X1245753Y368597D01*
X1233287Y368597D01*
X1233287Y373563D01*
X1245753Y373563D01*
X1245753Y371027D02*
X1233287Y371027D01*
X1233287Y373457D02*
X1245753Y373457D01*
X1245753Y378597D02*
X1245753Y383563D01*
X1245753Y378597D02*
X1233287Y378597D01*
X1233287Y383563D01*
X1245753Y383563D01*
X1245753Y381027D02*
X1233287Y381027D01*
X1233287Y383457D02*
X1245753Y383457D01*
X1245753Y388597D02*
X1245753Y393563D01*
X1245753Y388597D02*
X1233287Y388597D01*
X1233287Y393563D01*
X1245753Y393563D01*
X1245753Y391027D02*
X1233287Y391027D01*
X1233287Y393457D02*
X1245753Y393457D01*
X1245753Y398597D02*
X1245753Y403563D01*
X1245753Y398597D02*
X1233287Y398597D01*
X1233287Y403563D01*
X1245753Y403563D01*
X1245753Y401027D02*
X1233287Y401027D01*
X1233287Y403457D02*
X1245753Y403457D01*
D16*
X1087120Y271780D03*
X1112520Y271780D03*
X1137920Y271780D03*
X1163320Y271780D03*
X1188720Y271780D03*
X1214120Y271780D03*
X1239520Y271780D03*
D10*
X1155115Y320515D02*
X1155115Y330505D01*
X1155115Y320515D02*
X1146125Y320515D01*
X1146125Y330505D01*
X1155115Y330505D01*
X1155115Y322923D02*
X1146125Y322923D01*
X1146125Y325331D02*
X1155115Y325331D01*
X1155115Y327739D02*
X1146125Y327739D01*
X1146125Y330147D02*
X1155115Y330147D01*
X1155115Y337515D02*
X1155115Y347505D01*
X1155115Y337515D02*
X1146125Y337515D01*
X1146125Y347505D01*
X1155115Y347505D01*
X1155115Y339923D02*
X1146125Y339923D01*
X1146125Y342331D02*
X1155115Y342331D01*
X1155115Y344739D02*
X1146125Y344739D01*
X1146125Y347147D02*
X1155115Y347147D01*
X1171525Y347505D02*
X1171525Y337515D01*
X1171525Y347505D02*
X1180515Y347505D01*
X1180515Y337515D01*
X1171525Y337515D01*
X1171525Y339923D02*
X1180515Y339923D01*
X1180515Y342331D02*
X1171525Y342331D01*
X1171525Y344739D02*
X1180515Y344739D01*
X1180515Y347147D02*
X1171525Y347147D01*
X1171525Y330505D02*
X1171525Y320515D01*
X1171525Y330505D02*
X1180515Y330505D01*
X1180515Y320515D01*
X1171525Y320515D01*
X1171525Y322923D02*
X1180515Y322923D01*
X1180515Y325331D02*
X1171525Y325331D01*
X1171525Y327739D02*
X1180515Y327739D01*
X1180515Y330147D02*
X1171525Y330147D01*
X1139775Y434035D02*
X1139775Y444025D01*
X1148765Y444025D01*
X1148765Y434035D01*
X1139775Y434035D01*
X1139775Y436443D02*
X1148765Y436443D01*
X1148765Y438851D02*
X1139775Y438851D01*
X1139775Y441259D02*
X1148765Y441259D01*
X1148765Y443667D02*
X1139775Y443667D01*
X1139775Y427025D02*
X1139775Y417035D01*
X1139775Y427025D02*
X1148765Y427025D01*
X1148765Y417035D01*
X1139775Y417035D01*
X1139775Y419443D02*
X1148765Y419443D01*
X1148765Y421851D02*
X1139775Y421851D01*
X1139775Y424259D02*
X1148765Y424259D01*
X1148765Y426667D02*
X1139775Y426667D01*
X1186865Y427025D02*
X1186865Y417035D01*
X1177875Y417035D01*
X1177875Y427025D01*
X1186865Y427025D01*
X1186865Y419443D02*
X1177875Y419443D01*
X1177875Y421851D02*
X1186865Y421851D01*
X1186865Y424259D02*
X1177875Y424259D01*
X1177875Y426667D02*
X1186865Y426667D01*
X1186865Y434035D02*
X1186865Y444025D01*
X1186865Y434035D02*
X1177875Y434035D01*
X1177875Y444025D01*
X1186865Y444025D01*
X1186865Y436443D02*
X1177875Y436443D01*
X1177875Y438851D02*
X1186865Y438851D01*
X1186865Y441259D02*
X1177875Y441259D01*
X1177875Y443667D02*
X1186865Y443667D01*
X1248885Y426035D02*
X1258875Y426035D01*
X1248885Y426035D02*
X1248885Y435025D01*
X1258875Y435025D01*
X1258875Y426035D01*
X1258875Y428443D02*
X1248885Y428443D01*
X1248885Y430851D02*
X1258875Y430851D01*
X1258875Y433259D02*
X1248885Y433259D01*
X1265885Y426035D02*
X1275875Y426035D01*
X1265885Y426035D02*
X1265885Y435025D01*
X1275875Y435025D01*
X1275875Y426035D01*
X1275875Y428443D02*
X1265885Y428443D01*
X1265885Y430851D02*
X1275875Y430851D01*
X1275875Y433259D02*
X1265885Y433259D01*
D17*
X1164065Y394575D02*
X1164065Y392835D01*
X1162575Y392835D01*
X1162575Y394575D01*
X1164065Y394575D01*
X1159065Y394575D02*
X1159065Y392835D01*
X1157575Y392835D01*
X1157575Y394575D01*
X1159065Y394575D01*
X1169065Y394575D02*
X1169065Y392835D01*
X1167575Y392835D01*
X1167575Y394575D01*
X1169065Y394575D01*
X1164065Y379325D02*
X1164065Y377585D01*
X1162575Y377585D01*
X1162575Y379325D01*
X1164065Y379325D01*
X1159065Y379325D02*
X1159065Y377585D01*
X1157575Y377585D01*
X1157575Y379325D01*
X1159065Y379325D01*
X1169065Y379325D02*
X1169065Y377585D01*
X1167575Y377585D01*
X1167575Y379325D01*
X1169065Y379325D01*
X1156565Y382835D02*
X1156565Y384325D01*
X1156565Y382835D02*
X1154825Y382835D01*
X1154825Y384325D01*
X1156565Y384325D01*
X1156565Y387835D02*
X1156565Y389325D01*
X1156565Y387835D02*
X1154825Y387835D01*
X1154825Y389325D01*
X1156565Y389325D01*
X1171815Y384325D02*
X1171815Y382835D01*
X1170075Y382835D01*
X1170075Y384325D01*
X1171815Y384325D01*
X1171815Y387835D02*
X1171815Y389325D01*
X1171815Y387835D02*
X1170075Y387835D01*
X1170075Y389325D01*
X1171815Y389325D01*
D10*
X1426895Y417035D02*
X1426895Y427025D01*
X1426895Y417035D02*
X1417905Y417035D01*
X1417905Y427025D01*
X1426895Y427025D01*
X1426895Y419443D02*
X1417905Y419443D01*
X1417905Y421851D02*
X1426895Y421851D01*
X1426895Y424259D02*
X1417905Y424259D01*
X1417905Y426667D02*
X1426895Y426667D01*
X1426895Y434035D02*
X1426895Y444025D01*
X1426895Y434035D02*
X1417905Y434035D01*
X1417905Y444025D01*
X1426895Y444025D01*
X1426895Y436443D02*
X1417905Y436443D01*
X1417905Y438851D02*
X1426895Y438851D01*
X1426895Y441259D02*
X1417905Y441259D01*
X1417905Y443667D02*
X1426895Y443667D01*
D11*
X1526715Y446065D02*
X1526715Y453095D01*
X1533745Y453095D01*
X1533745Y446065D01*
X1526715Y446065D01*
X1526715Y450334D02*
X1533745Y450334D01*
X1509175Y453095D02*
X1509175Y446065D01*
X1509175Y453095D02*
X1516205Y453095D01*
X1516205Y446065D01*
X1509175Y446065D01*
X1509175Y450334D02*
X1516205Y450334D01*
D12*
X1498600Y474980D03*
X1308100Y271780D03*
D13*
X1320800Y487680D03*
X1524000Y487680D03*
D14*
X1299905Y419625D02*
X1299905Y408535D01*
X1299905Y419625D02*
X1318995Y419625D01*
X1318995Y408535D01*
X1299905Y408535D01*
X1299905Y410847D02*
X1318995Y410847D01*
X1318995Y413159D02*
X1299905Y413159D01*
X1299905Y415471D02*
X1318995Y415471D01*
X1318995Y417783D02*
X1299905Y417783D01*
X1299905Y363625D02*
X1299905Y352535D01*
X1299905Y363625D02*
X1318995Y363625D01*
X1318995Y352535D01*
X1299905Y352535D01*
X1299905Y354847D02*
X1318995Y354847D01*
X1318995Y357159D02*
X1299905Y357159D01*
X1299905Y359471D02*
X1318995Y359471D01*
X1318995Y361783D02*
X1299905Y361783D01*
D15*
X1339967Y398597D02*
X1339967Y403563D01*
X1352433Y403563D01*
X1352433Y398597D01*
X1339967Y398597D01*
X1339967Y401027D02*
X1352433Y401027D01*
X1352433Y403457D02*
X1339967Y403457D01*
X1339967Y393563D02*
X1339967Y388597D01*
X1339967Y393563D02*
X1352433Y393563D01*
X1352433Y388597D01*
X1339967Y388597D01*
X1339967Y391027D02*
X1352433Y391027D01*
X1352433Y393457D02*
X1339967Y393457D01*
X1339967Y383563D02*
X1339967Y378597D01*
X1339967Y383563D02*
X1352433Y383563D01*
X1352433Y378597D01*
X1339967Y378597D01*
X1339967Y381027D02*
X1352433Y381027D01*
X1352433Y383457D02*
X1339967Y383457D01*
X1339967Y373563D02*
X1339967Y368597D01*
X1339967Y373563D02*
X1352433Y373563D01*
X1352433Y368597D01*
X1339967Y368597D01*
X1339967Y371027D02*
X1352433Y371027D01*
X1352433Y373457D02*
X1339967Y373457D01*
D14*
X1544895Y363625D02*
X1544895Y352535D01*
X1525805Y352535D01*
X1525805Y363625D01*
X1544895Y363625D01*
X1544895Y354847D02*
X1525805Y354847D01*
X1525805Y357159D02*
X1544895Y357159D01*
X1544895Y359471D02*
X1525805Y359471D01*
X1525805Y361783D02*
X1544895Y361783D01*
X1544895Y408535D02*
X1544895Y419625D01*
X1544895Y408535D02*
X1525805Y408535D01*
X1525805Y419625D01*
X1544895Y419625D01*
X1544895Y410847D02*
X1525805Y410847D01*
X1525805Y413159D02*
X1544895Y413159D01*
X1544895Y415471D02*
X1525805Y415471D01*
X1525805Y417783D02*
X1544895Y417783D01*
D15*
X1504833Y373563D02*
X1504833Y368597D01*
X1492367Y368597D01*
X1492367Y373563D01*
X1504833Y373563D01*
X1504833Y371027D02*
X1492367Y371027D01*
X1492367Y373457D02*
X1504833Y373457D01*
X1504833Y378597D02*
X1504833Y383563D01*
X1504833Y378597D02*
X1492367Y378597D01*
X1492367Y383563D01*
X1504833Y383563D01*
X1504833Y381027D02*
X1492367Y381027D01*
X1492367Y383457D02*
X1504833Y383457D01*
X1504833Y388597D02*
X1504833Y393563D01*
X1504833Y388597D02*
X1492367Y388597D01*
X1492367Y393563D01*
X1504833Y393563D01*
X1504833Y391027D02*
X1492367Y391027D01*
X1492367Y393457D02*
X1504833Y393457D01*
X1504833Y398597D02*
X1504833Y403563D01*
X1504833Y398597D02*
X1492367Y398597D01*
X1492367Y403563D01*
X1504833Y403563D01*
X1504833Y401027D02*
X1492367Y401027D01*
X1492367Y403457D02*
X1504833Y403457D01*
D16*
X1346200Y271780D03*
X1371600Y271780D03*
X1397000Y271780D03*
X1422400Y271780D03*
X1447800Y271780D03*
X1473200Y271780D03*
X1498600Y271780D03*
D10*
X1414195Y320515D02*
X1414195Y330505D01*
X1414195Y320515D02*
X1405205Y320515D01*
X1405205Y330505D01*
X1414195Y330505D01*
X1414195Y322923D02*
X1405205Y322923D01*
X1405205Y325331D02*
X1414195Y325331D01*
X1414195Y327739D02*
X1405205Y327739D01*
X1405205Y330147D02*
X1414195Y330147D01*
X1414195Y337515D02*
X1414195Y347505D01*
X1414195Y337515D02*
X1405205Y337515D01*
X1405205Y347505D01*
X1414195Y347505D01*
X1414195Y339923D02*
X1405205Y339923D01*
X1405205Y342331D02*
X1414195Y342331D01*
X1414195Y344739D02*
X1405205Y344739D01*
X1405205Y347147D02*
X1414195Y347147D01*
X1430605Y347505D02*
X1430605Y337515D01*
X1430605Y347505D02*
X1439595Y347505D01*
X1439595Y337515D01*
X1430605Y337515D01*
X1430605Y339923D02*
X1439595Y339923D01*
X1439595Y342331D02*
X1430605Y342331D01*
X1430605Y344739D02*
X1439595Y344739D01*
X1439595Y347147D02*
X1430605Y347147D01*
X1430605Y330505D02*
X1430605Y320515D01*
X1430605Y330505D02*
X1439595Y330505D01*
X1439595Y320515D01*
X1430605Y320515D01*
X1430605Y322923D02*
X1439595Y322923D01*
X1439595Y325331D02*
X1430605Y325331D01*
X1430605Y327739D02*
X1439595Y327739D01*
X1439595Y330147D02*
X1430605Y330147D01*
X1398855Y434035D02*
X1398855Y444025D01*
X1407845Y444025D01*
X1407845Y434035D01*
X1398855Y434035D01*
X1398855Y436443D02*
X1407845Y436443D01*
X1407845Y438851D02*
X1398855Y438851D01*
X1398855Y441259D02*
X1407845Y441259D01*
X1407845Y443667D02*
X1398855Y443667D01*
X1398855Y427025D02*
X1398855Y417035D01*
X1398855Y427025D02*
X1407845Y427025D01*
X1407845Y417035D01*
X1398855Y417035D01*
X1398855Y419443D02*
X1407845Y419443D01*
X1407845Y421851D02*
X1398855Y421851D01*
X1398855Y424259D02*
X1407845Y424259D01*
X1407845Y426667D02*
X1398855Y426667D01*
X1445945Y427025D02*
X1445945Y417035D01*
X1436955Y417035D01*
X1436955Y427025D01*
X1445945Y427025D01*
X1445945Y419443D02*
X1436955Y419443D01*
X1436955Y421851D02*
X1445945Y421851D01*
X1445945Y424259D02*
X1436955Y424259D01*
X1436955Y426667D02*
X1445945Y426667D01*
X1445945Y434035D02*
X1445945Y444025D01*
X1445945Y434035D02*
X1436955Y434035D01*
X1436955Y444025D01*
X1445945Y444025D01*
X1445945Y436443D02*
X1436955Y436443D01*
X1436955Y438851D02*
X1445945Y438851D01*
X1445945Y441259D02*
X1436955Y441259D01*
X1436955Y443667D02*
X1445945Y443667D01*
X1507965Y426035D02*
X1517955Y426035D01*
X1507965Y426035D02*
X1507965Y435025D01*
X1517955Y435025D01*
X1517955Y426035D01*
X1517955Y428443D02*
X1507965Y428443D01*
X1507965Y430851D02*
X1517955Y430851D01*
X1517955Y433259D02*
X1507965Y433259D01*
X1524965Y426035D02*
X1534955Y426035D01*
X1524965Y426035D02*
X1524965Y435025D01*
X1534955Y435025D01*
X1534955Y426035D01*
X1534955Y428443D02*
X1524965Y428443D01*
X1524965Y430851D02*
X1534955Y430851D01*
X1534955Y433259D02*
X1524965Y433259D01*
D17*
X1423145Y394575D02*
X1423145Y392835D01*
X1421655Y392835D01*
X1421655Y394575D01*
X1423145Y394575D01*
X1418145Y394575D02*
X1418145Y392835D01*
X1416655Y392835D01*
X1416655Y394575D01*
X1418145Y394575D01*
X1428145Y394575D02*
X1428145Y392835D01*
X1426655Y392835D01*
X1426655Y394575D01*
X1428145Y394575D01*
X1423145Y379325D02*
X1423145Y377585D01*
X1421655Y377585D01*
X1421655Y379325D01*
X1423145Y379325D01*
X1418145Y379325D02*
X1418145Y377585D01*
X1416655Y377585D01*
X1416655Y379325D01*
X1418145Y379325D01*
X1428145Y379325D02*
X1428145Y377585D01*
X1426655Y377585D01*
X1426655Y379325D01*
X1428145Y379325D01*
X1415645Y382835D02*
X1415645Y384325D01*
X1415645Y382835D02*
X1413905Y382835D01*
X1413905Y384325D01*
X1415645Y384325D01*
X1415645Y387835D02*
X1415645Y389325D01*
X1415645Y387835D02*
X1413905Y387835D01*
X1413905Y389325D01*
X1415645Y389325D01*
X1430895Y384325D02*
X1430895Y382835D01*
X1429155Y382835D01*
X1429155Y384325D01*
X1430895Y384325D01*
X1430895Y387835D02*
X1430895Y389325D01*
X1430895Y387835D02*
X1429155Y387835D01*
X1429155Y389325D01*
X1430895Y389325D01*
D10*
X131495Y676115D02*
X131495Y686105D01*
X131495Y676115D02*
X122505Y676115D01*
X122505Y686105D01*
X131495Y686105D01*
X131495Y678523D02*
X122505Y678523D01*
X122505Y680931D02*
X131495Y680931D01*
X131495Y683339D02*
X122505Y683339D01*
X122505Y685747D02*
X131495Y685747D01*
X131495Y693115D02*
X131495Y703105D01*
X131495Y693115D02*
X122505Y693115D01*
X122505Y703105D01*
X131495Y703105D01*
X131495Y695523D02*
X122505Y695523D01*
X122505Y697931D02*
X131495Y697931D01*
X131495Y700339D02*
X122505Y700339D01*
X122505Y702747D02*
X131495Y702747D01*
D11*
X231315Y705145D02*
X231315Y712175D01*
X238345Y712175D01*
X238345Y705145D01*
X231315Y705145D01*
X231315Y709414D02*
X238345Y709414D01*
X213775Y712175D02*
X213775Y705145D01*
X213775Y712175D02*
X220805Y712175D01*
X220805Y705145D01*
X213775Y705145D01*
X213775Y709414D02*
X220805Y709414D01*
D12*
X203200Y734060D03*
X12700Y530860D03*
D13*
X25400Y746760D03*
X228600Y746760D03*
D14*
X4505Y678705D02*
X4505Y667615D01*
X4505Y678705D02*
X23595Y678705D01*
X23595Y667615D01*
X4505Y667615D01*
X4505Y669927D02*
X23595Y669927D01*
X23595Y672239D02*
X4505Y672239D01*
X4505Y674551D02*
X23595Y674551D01*
X23595Y676863D02*
X4505Y676863D01*
X4505Y622705D02*
X4505Y611615D01*
X4505Y622705D02*
X23595Y622705D01*
X23595Y611615D01*
X4505Y611615D01*
X4505Y613927D02*
X23595Y613927D01*
X23595Y616239D02*
X4505Y616239D01*
X4505Y618551D02*
X23595Y618551D01*
X23595Y620863D02*
X4505Y620863D01*
D15*
X44567Y657677D02*
X44567Y662643D01*
X57033Y662643D01*
X57033Y657677D01*
X44567Y657677D01*
X44567Y660107D02*
X57033Y660107D01*
X57033Y662537D02*
X44567Y662537D01*
X44567Y652643D02*
X44567Y647677D01*
X44567Y652643D02*
X57033Y652643D01*
X57033Y647677D01*
X44567Y647677D01*
X44567Y650107D02*
X57033Y650107D01*
X57033Y652537D02*
X44567Y652537D01*
X44567Y642643D02*
X44567Y637677D01*
X44567Y642643D02*
X57033Y642643D01*
X57033Y637677D01*
X44567Y637677D01*
X44567Y640107D02*
X57033Y640107D01*
X57033Y642537D02*
X44567Y642537D01*
X44567Y632643D02*
X44567Y627677D01*
X44567Y632643D02*
X57033Y632643D01*
X57033Y627677D01*
X44567Y627677D01*
X44567Y630107D02*
X57033Y630107D01*
X57033Y632537D02*
X44567Y632537D01*
D14*
X249495Y622705D02*
X249495Y611615D01*
X230405Y611615D01*
X230405Y622705D01*
X249495Y622705D01*
X249495Y613927D02*
X230405Y613927D01*
X230405Y616239D02*
X249495Y616239D01*
X249495Y618551D02*
X230405Y618551D01*
X230405Y620863D02*
X249495Y620863D01*
X249495Y667615D02*
X249495Y678705D01*
X249495Y667615D02*
X230405Y667615D01*
X230405Y678705D01*
X249495Y678705D01*
X249495Y669927D02*
X230405Y669927D01*
X230405Y672239D02*
X249495Y672239D01*
X249495Y674551D02*
X230405Y674551D01*
X230405Y676863D02*
X249495Y676863D01*
D15*
X209433Y632643D02*
X209433Y627677D01*
X196967Y627677D01*
X196967Y632643D01*
X209433Y632643D01*
X209433Y630107D02*
X196967Y630107D01*
X196967Y632537D02*
X209433Y632537D01*
X209433Y637677D02*
X209433Y642643D01*
X209433Y637677D02*
X196967Y637677D01*
X196967Y642643D01*
X209433Y642643D01*
X209433Y640107D02*
X196967Y640107D01*
X196967Y642537D02*
X209433Y642537D01*
X209433Y647677D02*
X209433Y652643D01*
X209433Y647677D02*
X196967Y647677D01*
X196967Y652643D01*
X209433Y652643D01*
X209433Y650107D02*
X196967Y650107D01*
X196967Y652537D02*
X209433Y652537D01*
X209433Y657677D02*
X209433Y662643D01*
X209433Y657677D02*
X196967Y657677D01*
X196967Y662643D01*
X209433Y662643D01*
X209433Y660107D02*
X196967Y660107D01*
X196967Y662537D02*
X209433Y662537D01*
D16*
X50800Y530860D03*
X76200Y530860D03*
X101600Y530860D03*
X127000Y530860D03*
X152400Y530860D03*
X177800Y530860D03*
X203200Y530860D03*
D10*
X118795Y579595D02*
X118795Y589585D01*
X118795Y579595D02*
X109805Y579595D01*
X109805Y589585D01*
X118795Y589585D01*
X118795Y582003D02*
X109805Y582003D01*
X109805Y584411D02*
X118795Y584411D01*
X118795Y586819D02*
X109805Y586819D01*
X109805Y589227D02*
X118795Y589227D01*
X118795Y596595D02*
X118795Y606585D01*
X118795Y596595D02*
X109805Y596595D01*
X109805Y606585D01*
X118795Y606585D01*
X118795Y599003D02*
X109805Y599003D01*
X109805Y601411D02*
X118795Y601411D01*
X118795Y603819D02*
X109805Y603819D01*
X109805Y606227D02*
X118795Y606227D01*
X135205Y606585D02*
X135205Y596595D01*
X135205Y606585D02*
X144195Y606585D01*
X144195Y596595D01*
X135205Y596595D01*
X135205Y599003D02*
X144195Y599003D01*
X144195Y601411D02*
X135205Y601411D01*
X135205Y603819D02*
X144195Y603819D01*
X144195Y606227D02*
X135205Y606227D01*
X135205Y589585D02*
X135205Y579595D01*
X135205Y589585D02*
X144195Y589585D01*
X144195Y579595D01*
X135205Y579595D01*
X135205Y582003D02*
X144195Y582003D01*
X144195Y584411D02*
X135205Y584411D01*
X135205Y586819D02*
X144195Y586819D01*
X144195Y589227D02*
X135205Y589227D01*
X103455Y693115D02*
X103455Y703105D01*
X112445Y703105D01*
X112445Y693115D01*
X103455Y693115D01*
X103455Y695523D02*
X112445Y695523D01*
X112445Y697931D02*
X103455Y697931D01*
X103455Y700339D02*
X112445Y700339D01*
X112445Y702747D02*
X103455Y702747D01*
X103455Y686105D02*
X103455Y676115D01*
X103455Y686105D02*
X112445Y686105D01*
X112445Y676115D01*
X103455Y676115D01*
X103455Y678523D02*
X112445Y678523D01*
X112445Y680931D02*
X103455Y680931D01*
X103455Y683339D02*
X112445Y683339D01*
X112445Y685747D02*
X103455Y685747D01*
X150545Y686105D02*
X150545Y676115D01*
X141555Y676115D01*
X141555Y686105D01*
X150545Y686105D01*
X150545Y678523D02*
X141555Y678523D01*
X141555Y680931D02*
X150545Y680931D01*
X150545Y683339D02*
X141555Y683339D01*
X141555Y685747D02*
X150545Y685747D01*
X150545Y693115D02*
X150545Y703105D01*
X150545Y693115D02*
X141555Y693115D01*
X141555Y703105D01*
X150545Y703105D01*
X150545Y695523D02*
X141555Y695523D01*
X141555Y697931D02*
X150545Y697931D01*
X150545Y700339D02*
X141555Y700339D01*
X141555Y702747D02*
X150545Y702747D01*
X212565Y685115D02*
X222555Y685115D01*
X212565Y685115D02*
X212565Y694105D01*
X222555Y694105D01*
X222555Y685115D01*
X222555Y687523D02*
X212565Y687523D01*
X212565Y689931D02*
X222555Y689931D01*
X222555Y692339D02*
X212565Y692339D01*
X229565Y685115D02*
X239555Y685115D01*
X229565Y685115D02*
X229565Y694105D01*
X239555Y694105D01*
X239555Y685115D01*
X239555Y687523D02*
X229565Y687523D01*
X229565Y689931D02*
X239555Y689931D01*
X239555Y692339D02*
X229565Y692339D01*
D17*
X127745Y653655D02*
X127745Y651915D01*
X126255Y651915D01*
X126255Y653655D01*
X127745Y653655D01*
X122745Y653655D02*
X122745Y651915D01*
X121255Y651915D01*
X121255Y653655D01*
X122745Y653655D01*
X132745Y653655D02*
X132745Y651915D01*
X131255Y651915D01*
X131255Y653655D01*
X132745Y653655D01*
X127745Y638405D02*
X127745Y636665D01*
X126255Y636665D01*
X126255Y638405D01*
X127745Y638405D01*
X122745Y638405D02*
X122745Y636665D01*
X121255Y636665D01*
X121255Y638405D01*
X122745Y638405D01*
X132745Y638405D02*
X132745Y636665D01*
X131255Y636665D01*
X131255Y638405D01*
X132745Y638405D01*
X120245Y641915D02*
X120245Y643405D01*
X120245Y641915D02*
X118505Y641915D01*
X118505Y643405D01*
X120245Y643405D01*
X120245Y646915D02*
X120245Y648405D01*
X120245Y646915D02*
X118505Y646915D01*
X118505Y648405D01*
X120245Y648405D01*
X135495Y643405D02*
X135495Y641915D01*
X133755Y641915D01*
X133755Y643405D01*
X135495Y643405D01*
X135495Y646915D02*
X135495Y648405D01*
X135495Y646915D02*
X133755Y646915D01*
X133755Y648405D01*
X135495Y648405D01*
D10*
X390575Y676115D02*
X390575Y686105D01*
X390575Y676115D02*
X381585Y676115D01*
X381585Y686105D01*
X390575Y686105D01*
X390575Y678523D02*
X381585Y678523D01*
X381585Y680931D02*
X390575Y680931D01*
X390575Y683339D02*
X381585Y683339D01*
X381585Y685747D02*
X390575Y685747D01*
X390575Y693115D02*
X390575Y703105D01*
X390575Y693115D02*
X381585Y693115D01*
X381585Y703105D01*
X390575Y703105D01*
X390575Y695523D02*
X381585Y695523D01*
X381585Y697931D02*
X390575Y697931D01*
X390575Y700339D02*
X381585Y700339D01*
X381585Y702747D02*
X390575Y702747D01*
D11*
X490395Y705145D02*
X490395Y712175D01*
X497425Y712175D01*
X497425Y705145D01*
X490395Y705145D01*
X490395Y709414D02*
X497425Y709414D01*
X472855Y712175D02*
X472855Y705145D01*
X472855Y712175D02*
X479885Y712175D01*
X479885Y705145D01*
X472855Y705145D01*
X472855Y709414D02*
X479885Y709414D01*
D12*
X462280Y734060D03*
X271780Y530860D03*
D13*
X284480Y746760D03*
X487680Y746760D03*
D14*
X263585Y678705D02*
X263585Y667615D01*
X263585Y678705D02*
X282675Y678705D01*
X282675Y667615D01*
X263585Y667615D01*
X263585Y669927D02*
X282675Y669927D01*
X282675Y672239D02*
X263585Y672239D01*
X263585Y674551D02*
X282675Y674551D01*
X282675Y676863D02*
X263585Y676863D01*
X263585Y622705D02*
X263585Y611615D01*
X263585Y622705D02*
X282675Y622705D01*
X282675Y611615D01*
X263585Y611615D01*
X263585Y613927D02*
X282675Y613927D01*
X282675Y616239D02*
X263585Y616239D01*
X263585Y618551D02*
X282675Y618551D01*
X282675Y620863D02*
X263585Y620863D01*
D15*
X303647Y657677D02*
X303647Y662643D01*
X316113Y662643D01*
X316113Y657677D01*
X303647Y657677D01*
X303647Y660107D02*
X316113Y660107D01*
X316113Y662537D02*
X303647Y662537D01*
X303647Y652643D02*
X303647Y647677D01*
X303647Y652643D02*
X316113Y652643D01*
X316113Y647677D01*
X303647Y647677D01*
X303647Y650107D02*
X316113Y650107D01*
X316113Y652537D02*
X303647Y652537D01*
X303647Y642643D02*
X303647Y637677D01*
X303647Y642643D02*
X316113Y642643D01*
X316113Y637677D01*
X303647Y637677D01*
X303647Y640107D02*
X316113Y640107D01*
X316113Y642537D02*
X303647Y642537D01*
X303647Y632643D02*
X303647Y627677D01*
X303647Y632643D02*
X316113Y632643D01*
X316113Y627677D01*
X303647Y627677D01*
X303647Y630107D02*
X316113Y630107D01*
X316113Y632537D02*
X303647Y632537D01*
D14*
X508575Y622705D02*
X508575Y611615D01*
X489485Y611615D01*
X489485Y622705D01*
X508575Y622705D01*
X508575Y613927D02*
X489485Y613927D01*
X489485Y616239D02*
X508575Y616239D01*
X508575Y618551D02*
X489485Y618551D01*
X489485Y620863D02*
X508575Y620863D01*
X508575Y667615D02*
X508575Y678705D01*
X508575Y667615D02*
X489485Y667615D01*
X489485Y678705D01*
X508575Y678705D01*
X508575Y669927D02*
X489485Y669927D01*
X489485Y672239D02*
X508575Y672239D01*
X508575Y674551D02*
X489485Y674551D01*
X489485Y676863D02*
X508575Y676863D01*
D15*
X468513Y632643D02*
X468513Y627677D01*
X456047Y627677D01*
X456047Y632643D01*
X468513Y632643D01*
X468513Y630107D02*
X456047Y630107D01*
X456047Y632537D02*
X468513Y632537D01*
X468513Y637677D02*
X468513Y642643D01*
X468513Y637677D02*
X456047Y637677D01*
X456047Y642643D01*
X468513Y642643D01*
X468513Y640107D02*
X456047Y640107D01*
X456047Y642537D02*
X468513Y642537D01*
X468513Y647677D02*
X468513Y652643D01*
X468513Y647677D02*
X456047Y647677D01*
X456047Y652643D01*
X468513Y652643D01*
X468513Y650107D02*
X456047Y650107D01*
X456047Y652537D02*
X468513Y652537D01*
X468513Y657677D02*
X468513Y662643D01*
X468513Y657677D02*
X456047Y657677D01*
X456047Y662643D01*
X468513Y662643D01*
X468513Y660107D02*
X456047Y660107D01*
X456047Y662537D02*
X468513Y662537D01*
D16*
X309880Y530860D03*
X335280Y530860D03*
X360680Y530860D03*
X386080Y530860D03*
X411480Y530860D03*
X436880Y530860D03*
X462280Y530860D03*
D10*
X377875Y579595D02*
X377875Y589585D01*
X377875Y579595D02*
X368885Y579595D01*
X368885Y589585D01*
X377875Y589585D01*
X377875Y582003D02*
X368885Y582003D01*
X368885Y584411D02*
X377875Y584411D01*
X377875Y586819D02*
X368885Y586819D01*
X368885Y589227D02*
X377875Y589227D01*
X377875Y596595D02*
X377875Y606585D01*
X377875Y596595D02*
X368885Y596595D01*
X368885Y606585D01*
X377875Y606585D01*
X377875Y599003D02*
X368885Y599003D01*
X368885Y601411D02*
X377875Y601411D01*
X377875Y603819D02*
X368885Y603819D01*
X368885Y606227D02*
X377875Y606227D01*
X394285Y606585D02*
X394285Y596595D01*
X394285Y606585D02*
X403275Y606585D01*
X403275Y596595D01*
X394285Y596595D01*
X394285Y599003D02*
X403275Y599003D01*
X403275Y601411D02*
X394285Y601411D01*
X394285Y603819D02*
X403275Y603819D01*
X403275Y606227D02*
X394285Y606227D01*
X394285Y589585D02*
X394285Y579595D01*
X394285Y589585D02*
X403275Y589585D01*
X403275Y579595D01*
X394285Y579595D01*
X394285Y582003D02*
X403275Y582003D01*
X403275Y584411D02*
X394285Y584411D01*
X394285Y586819D02*
X403275Y586819D01*
X403275Y589227D02*
X394285Y589227D01*
X362535Y693115D02*
X362535Y703105D01*
X371525Y703105D01*
X371525Y693115D01*
X362535Y693115D01*
X362535Y695523D02*
X371525Y695523D01*
X371525Y697931D02*
X362535Y697931D01*
X362535Y700339D02*
X371525Y700339D01*
X371525Y702747D02*
X362535Y702747D01*
X362535Y686105D02*
X362535Y676115D01*
X362535Y686105D02*
X371525Y686105D01*
X371525Y676115D01*
X362535Y676115D01*
X362535Y678523D02*
X371525Y678523D01*
X371525Y680931D02*
X362535Y680931D01*
X362535Y683339D02*
X371525Y683339D01*
X371525Y685747D02*
X362535Y685747D01*
X409625Y686105D02*
X409625Y676115D01*
X400635Y676115D01*
X400635Y686105D01*
X409625Y686105D01*
X409625Y678523D02*
X400635Y678523D01*
X400635Y680931D02*
X409625Y680931D01*
X409625Y683339D02*
X400635Y683339D01*
X400635Y685747D02*
X409625Y685747D01*
X409625Y693115D02*
X409625Y703105D01*
X409625Y693115D02*
X400635Y693115D01*
X400635Y703105D01*
X409625Y703105D01*
X409625Y695523D02*
X400635Y695523D01*
X400635Y697931D02*
X409625Y697931D01*
X409625Y700339D02*
X400635Y700339D01*
X400635Y702747D02*
X409625Y702747D01*
X471645Y685115D02*
X481635Y685115D01*
X471645Y685115D02*
X471645Y694105D01*
X481635Y694105D01*
X481635Y685115D01*
X481635Y687523D02*
X471645Y687523D01*
X471645Y689931D02*
X481635Y689931D01*
X481635Y692339D02*
X471645Y692339D01*
X488645Y685115D02*
X498635Y685115D01*
X488645Y685115D02*
X488645Y694105D01*
X498635Y694105D01*
X498635Y685115D01*
X498635Y687523D02*
X488645Y687523D01*
X488645Y689931D02*
X498635Y689931D01*
X498635Y692339D02*
X488645Y692339D01*
D17*
X386825Y653655D02*
X386825Y651915D01*
X385335Y651915D01*
X385335Y653655D01*
X386825Y653655D01*
X381825Y653655D02*
X381825Y651915D01*
X380335Y651915D01*
X380335Y653655D01*
X381825Y653655D01*
X391825Y653655D02*
X391825Y651915D01*
X390335Y651915D01*
X390335Y653655D01*
X391825Y653655D01*
X386825Y638405D02*
X386825Y636665D01*
X385335Y636665D01*
X385335Y638405D01*
X386825Y638405D01*
X381825Y638405D02*
X381825Y636665D01*
X380335Y636665D01*
X380335Y638405D01*
X381825Y638405D01*
X391825Y638405D02*
X391825Y636665D01*
X390335Y636665D01*
X390335Y638405D01*
X391825Y638405D01*
X379325Y641915D02*
X379325Y643405D01*
X379325Y641915D02*
X377585Y641915D01*
X377585Y643405D01*
X379325Y643405D01*
X379325Y646915D02*
X379325Y648405D01*
X379325Y646915D02*
X377585Y646915D01*
X377585Y648405D01*
X379325Y648405D01*
X394575Y643405D02*
X394575Y641915D01*
X392835Y641915D01*
X392835Y643405D01*
X394575Y643405D01*
X394575Y646915D02*
X394575Y648405D01*
X394575Y646915D02*
X392835Y646915D01*
X392835Y648405D01*
X394575Y648405D01*
D10*
X649655Y676115D02*
X649655Y686105D01*
X649655Y676115D02*
X640665Y676115D01*
X640665Y686105D01*
X649655Y686105D01*
X649655Y678523D02*
X640665Y678523D01*
X640665Y680931D02*
X649655Y680931D01*
X649655Y683339D02*
X640665Y683339D01*
X640665Y685747D02*
X649655Y685747D01*
X649655Y693115D02*
X649655Y703105D01*
X649655Y693115D02*
X640665Y693115D01*
X640665Y703105D01*
X649655Y703105D01*
X649655Y695523D02*
X640665Y695523D01*
X640665Y697931D02*
X649655Y697931D01*
X649655Y700339D02*
X640665Y700339D01*
X640665Y702747D02*
X649655Y702747D01*
D11*
X749475Y705145D02*
X749475Y712175D01*
X756505Y712175D01*
X756505Y705145D01*
X749475Y705145D01*
X749475Y709414D02*
X756505Y709414D01*
X731935Y712175D02*
X731935Y705145D01*
X731935Y712175D02*
X738965Y712175D01*
X738965Y705145D01*
X731935Y705145D01*
X731935Y709414D02*
X738965Y709414D01*
D12*
X721360Y734060D03*
X530860Y530860D03*
D13*
X543560Y746760D03*
X746760Y746760D03*
D14*
X522665Y678705D02*
X522665Y667615D01*
X522665Y678705D02*
X541755Y678705D01*
X541755Y667615D01*
X522665Y667615D01*
X522665Y669927D02*
X541755Y669927D01*
X541755Y672239D02*
X522665Y672239D01*
X522665Y674551D02*
X541755Y674551D01*
X541755Y676863D02*
X522665Y676863D01*
X522665Y622705D02*
X522665Y611615D01*
X522665Y622705D02*
X541755Y622705D01*
X541755Y611615D01*
X522665Y611615D01*
X522665Y613927D02*
X541755Y613927D01*
X541755Y616239D02*
X522665Y616239D01*
X522665Y618551D02*
X541755Y618551D01*
X541755Y620863D02*
X522665Y620863D01*
D15*
X562727Y657677D02*
X562727Y662643D01*
X575193Y662643D01*
X575193Y657677D01*
X562727Y657677D01*
X562727Y660107D02*
X575193Y660107D01*
X575193Y662537D02*
X562727Y662537D01*
X562727Y652643D02*
X562727Y647677D01*
X562727Y652643D02*
X575193Y652643D01*
X575193Y647677D01*
X562727Y647677D01*
X562727Y650107D02*
X575193Y650107D01*
X575193Y652537D02*
X562727Y652537D01*
X562727Y642643D02*
X562727Y637677D01*
X562727Y642643D02*
X575193Y642643D01*
X575193Y637677D01*
X562727Y637677D01*
X562727Y640107D02*
X575193Y640107D01*
X575193Y642537D02*
X562727Y642537D01*
X562727Y632643D02*
X562727Y627677D01*
X562727Y632643D02*
X575193Y632643D01*
X575193Y627677D01*
X562727Y627677D01*
X562727Y630107D02*
X575193Y630107D01*
X575193Y632537D02*
X562727Y632537D01*
D14*
X767655Y622705D02*
X767655Y611615D01*
X748565Y611615D01*
X748565Y622705D01*
X767655Y622705D01*
X767655Y613927D02*
X748565Y613927D01*
X748565Y616239D02*
X767655Y616239D01*
X767655Y618551D02*
X748565Y618551D01*
X748565Y620863D02*
X767655Y620863D01*
X767655Y667615D02*
X767655Y678705D01*
X767655Y667615D02*
X748565Y667615D01*
X748565Y678705D01*
X767655Y678705D01*
X767655Y669927D02*
X748565Y669927D01*
X748565Y672239D02*
X767655Y672239D01*
X767655Y674551D02*
X748565Y674551D01*
X748565Y676863D02*
X767655Y676863D01*
D15*
X727593Y632643D02*
X727593Y627677D01*
X715127Y627677D01*
X715127Y632643D01*
X727593Y632643D01*
X727593Y630107D02*
X715127Y630107D01*
X715127Y632537D02*
X727593Y632537D01*
X727593Y637677D02*
X727593Y642643D01*
X727593Y637677D02*
X715127Y637677D01*
X715127Y642643D01*
X727593Y642643D01*
X727593Y640107D02*
X715127Y640107D01*
X715127Y642537D02*
X727593Y642537D01*
X727593Y647677D02*
X727593Y652643D01*
X727593Y647677D02*
X715127Y647677D01*
X715127Y652643D01*
X727593Y652643D01*
X727593Y650107D02*
X715127Y650107D01*
X715127Y652537D02*
X727593Y652537D01*
X727593Y657677D02*
X727593Y662643D01*
X727593Y657677D02*
X715127Y657677D01*
X715127Y662643D01*
X727593Y662643D01*
X727593Y660107D02*
X715127Y660107D01*
X715127Y662537D02*
X727593Y662537D01*
D16*
X568960Y530860D03*
X594360Y530860D03*
X619760Y530860D03*
X645160Y530860D03*
X670560Y530860D03*
X695960Y530860D03*
X721360Y530860D03*
D10*
X636955Y579595D02*
X636955Y589585D01*
X636955Y579595D02*
X627965Y579595D01*
X627965Y589585D01*
X636955Y589585D01*
X636955Y582003D02*
X627965Y582003D01*
X627965Y584411D02*
X636955Y584411D01*
X636955Y586819D02*
X627965Y586819D01*
X627965Y589227D02*
X636955Y589227D01*
X636955Y596595D02*
X636955Y606585D01*
X636955Y596595D02*
X627965Y596595D01*
X627965Y606585D01*
X636955Y606585D01*
X636955Y599003D02*
X627965Y599003D01*
X627965Y601411D02*
X636955Y601411D01*
X636955Y603819D02*
X627965Y603819D01*
X627965Y606227D02*
X636955Y606227D01*
X653365Y606585D02*
X653365Y596595D01*
X653365Y606585D02*
X662355Y606585D01*
X662355Y596595D01*
X653365Y596595D01*
X653365Y599003D02*
X662355Y599003D01*
X662355Y601411D02*
X653365Y601411D01*
X653365Y603819D02*
X662355Y603819D01*
X662355Y606227D02*
X653365Y606227D01*
X653365Y589585D02*
X653365Y579595D01*
X653365Y589585D02*
X662355Y589585D01*
X662355Y579595D01*
X653365Y579595D01*
X653365Y582003D02*
X662355Y582003D01*
X662355Y584411D02*
X653365Y584411D01*
X653365Y586819D02*
X662355Y586819D01*
X662355Y589227D02*
X653365Y589227D01*
X621615Y693115D02*
X621615Y703105D01*
X630605Y703105D01*
X630605Y693115D01*
X621615Y693115D01*
X621615Y695523D02*
X630605Y695523D01*
X630605Y697931D02*
X621615Y697931D01*
X621615Y700339D02*
X630605Y700339D01*
X630605Y702747D02*
X621615Y702747D01*
X621615Y686105D02*
X621615Y676115D01*
X621615Y686105D02*
X630605Y686105D01*
X630605Y676115D01*
X621615Y676115D01*
X621615Y678523D02*
X630605Y678523D01*
X630605Y680931D02*
X621615Y680931D01*
X621615Y683339D02*
X630605Y683339D01*
X630605Y685747D02*
X621615Y685747D01*
X668705Y686105D02*
X668705Y676115D01*
X659715Y676115D01*
X659715Y686105D01*
X668705Y686105D01*
X668705Y678523D02*
X659715Y678523D01*
X659715Y680931D02*
X668705Y680931D01*
X668705Y683339D02*
X659715Y683339D01*
X659715Y685747D02*
X668705Y685747D01*
X668705Y693115D02*
X668705Y703105D01*
X668705Y693115D02*
X659715Y693115D01*
X659715Y703105D01*
X668705Y703105D01*
X668705Y695523D02*
X659715Y695523D01*
X659715Y697931D02*
X668705Y697931D01*
X668705Y700339D02*
X659715Y700339D01*
X659715Y702747D02*
X668705Y702747D01*
X730725Y685115D02*
X740715Y685115D01*
X730725Y685115D02*
X730725Y694105D01*
X740715Y694105D01*
X740715Y685115D01*
X740715Y687523D02*
X730725Y687523D01*
X730725Y689931D02*
X740715Y689931D01*
X740715Y692339D02*
X730725Y692339D01*
X747725Y685115D02*
X757715Y685115D01*
X747725Y685115D02*
X747725Y694105D01*
X757715Y694105D01*
X757715Y685115D01*
X757715Y687523D02*
X747725Y687523D01*
X747725Y689931D02*
X757715Y689931D01*
X757715Y692339D02*
X747725Y692339D01*
D17*
X645905Y653655D02*
X645905Y651915D01*
X644415Y651915D01*
X644415Y653655D01*
X645905Y653655D01*
X640905Y653655D02*
X640905Y651915D01*
X639415Y651915D01*
X639415Y653655D01*
X640905Y653655D01*
X650905Y653655D02*
X650905Y651915D01*
X649415Y651915D01*
X649415Y653655D01*
X650905Y653655D01*
X645905Y638405D02*
X645905Y636665D01*
X644415Y636665D01*
X644415Y638405D01*
X645905Y638405D01*
X640905Y638405D02*
X640905Y636665D01*
X639415Y636665D01*
X639415Y638405D01*
X640905Y638405D01*
X650905Y638405D02*
X650905Y636665D01*
X649415Y636665D01*
X649415Y638405D01*
X650905Y638405D01*
X638405Y641915D02*
X638405Y643405D01*
X638405Y641915D02*
X636665Y641915D01*
X636665Y643405D01*
X638405Y643405D01*
X638405Y646915D02*
X638405Y648405D01*
X638405Y646915D02*
X636665Y646915D01*
X636665Y648405D01*
X638405Y648405D01*
X653655Y643405D02*
X653655Y641915D01*
X651915Y641915D01*
X651915Y643405D01*
X653655Y643405D01*
X653655Y646915D02*
X653655Y648405D01*
X653655Y646915D02*
X651915Y646915D01*
X651915Y648405D01*
X653655Y648405D01*
D10*
X908735Y676115D02*
X908735Y686105D01*
X908735Y676115D02*
X899745Y676115D01*
X899745Y686105D01*
X908735Y686105D01*
X908735Y678523D02*
X899745Y678523D01*
X899745Y680931D02*
X908735Y680931D01*
X908735Y683339D02*
X899745Y683339D01*
X899745Y685747D02*
X908735Y685747D01*
X908735Y693115D02*
X908735Y703105D01*
X908735Y693115D02*
X899745Y693115D01*
X899745Y703105D01*
X908735Y703105D01*
X908735Y695523D02*
X899745Y695523D01*
X899745Y697931D02*
X908735Y697931D01*
X908735Y700339D02*
X899745Y700339D01*
X899745Y702747D02*
X908735Y702747D01*
D11*
X1008555Y705145D02*
X1008555Y712175D01*
X1015585Y712175D01*
X1015585Y705145D01*
X1008555Y705145D01*
X1008555Y709414D02*
X1015585Y709414D01*
X991015Y712175D02*
X991015Y705145D01*
X991015Y712175D02*
X998045Y712175D01*
X998045Y705145D01*
X991015Y705145D01*
X991015Y709414D02*
X998045Y709414D01*
D12*
X980440Y734060D03*
X789940Y530860D03*
D13*
X802640Y746760D03*
X1005840Y746760D03*
D14*
X781745Y678705D02*
X781745Y667615D01*
X781745Y678705D02*
X800835Y678705D01*
X800835Y667615D01*
X781745Y667615D01*
X781745Y669927D02*
X800835Y669927D01*
X800835Y672239D02*
X781745Y672239D01*
X781745Y674551D02*
X800835Y674551D01*
X800835Y676863D02*
X781745Y676863D01*
X781745Y622705D02*
X781745Y611615D01*
X781745Y622705D02*
X800835Y622705D01*
X800835Y611615D01*
X781745Y611615D01*
X781745Y613927D02*
X800835Y613927D01*
X800835Y616239D02*
X781745Y616239D01*
X781745Y618551D02*
X800835Y618551D01*
X800835Y620863D02*
X781745Y620863D01*
D15*
X821807Y657677D02*
X821807Y662643D01*
X834273Y662643D01*
X834273Y657677D01*
X821807Y657677D01*
X821807Y660107D02*
X834273Y660107D01*
X834273Y662537D02*
X821807Y662537D01*
X821807Y652643D02*
X821807Y647677D01*
X821807Y652643D02*
X834273Y652643D01*
X834273Y647677D01*
X821807Y647677D01*
X821807Y650107D02*
X834273Y650107D01*
X834273Y652537D02*
X821807Y652537D01*
X821807Y642643D02*
X821807Y637677D01*
X821807Y642643D02*
X834273Y642643D01*
X834273Y637677D01*
X821807Y637677D01*
X821807Y640107D02*
X834273Y640107D01*
X834273Y642537D02*
X821807Y642537D01*
X821807Y632643D02*
X821807Y627677D01*
X821807Y632643D02*
X834273Y632643D01*
X834273Y627677D01*
X821807Y627677D01*
X821807Y630107D02*
X834273Y630107D01*
X834273Y632537D02*
X821807Y632537D01*
D14*
X1026735Y622705D02*
X1026735Y611615D01*
X1007645Y611615D01*
X1007645Y622705D01*
X1026735Y622705D01*
X1026735Y613927D02*
X1007645Y613927D01*
X1007645Y616239D02*
X1026735Y616239D01*
X1026735Y618551D02*
X1007645Y618551D01*
X1007645Y620863D02*
X1026735Y620863D01*
X1026735Y667615D02*
X1026735Y678705D01*
X1026735Y667615D02*
X1007645Y667615D01*
X1007645Y678705D01*
X1026735Y678705D01*
X1026735Y669927D02*
X1007645Y669927D01*
X1007645Y672239D02*
X1026735Y672239D01*
X1026735Y674551D02*
X1007645Y674551D01*
X1007645Y676863D02*
X1026735Y676863D01*
D15*
X986673Y632643D02*
X986673Y627677D01*
X974207Y627677D01*
X974207Y632643D01*
X986673Y632643D01*
X986673Y630107D02*
X974207Y630107D01*
X974207Y632537D02*
X986673Y632537D01*
X986673Y637677D02*
X986673Y642643D01*
X986673Y637677D02*
X974207Y637677D01*
X974207Y642643D01*
X986673Y642643D01*
X986673Y640107D02*
X974207Y640107D01*
X974207Y642537D02*
X986673Y642537D01*
X986673Y647677D02*
X986673Y652643D01*
X986673Y647677D02*
X974207Y647677D01*
X974207Y652643D01*
X986673Y652643D01*
X986673Y650107D02*
X974207Y650107D01*
X974207Y652537D02*
X986673Y652537D01*
X986673Y657677D02*
X986673Y662643D01*
X986673Y657677D02*
X974207Y657677D01*
X974207Y662643D01*
X986673Y662643D01*
X986673Y660107D02*
X974207Y660107D01*
X974207Y662537D02*
X986673Y662537D01*
D16*
X828040Y530860D03*
X853440Y530860D03*
X878840Y530860D03*
X904240Y530860D03*
X929640Y530860D03*
X955040Y530860D03*
X980440Y530860D03*
D10*
X896035Y579595D02*
X896035Y589585D01*
X896035Y579595D02*
X887045Y579595D01*
X887045Y589585D01*
X896035Y589585D01*
X896035Y582003D02*
X887045Y582003D01*
X887045Y584411D02*
X896035Y584411D01*
X896035Y586819D02*
X887045Y586819D01*
X887045Y589227D02*
X896035Y589227D01*
X896035Y596595D02*
X896035Y606585D01*
X896035Y596595D02*
X887045Y596595D01*
X887045Y606585D01*
X896035Y606585D01*
X896035Y599003D02*
X887045Y599003D01*
X887045Y601411D02*
X896035Y601411D01*
X896035Y603819D02*
X887045Y603819D01*
X887045Y606227D02*
X896035Y606227D01*
X912445Y606585D02*
X912445Y596595D01*
X912445Y606585D02*
X921435Y606585D01*
X921435Y596595D01*
X912445Y596595D01*
X912445Y599003D02*
X921435Y599003D01*
X921435Y601411D02*
X912445Y601411D01*
X912445Y603819D02*
X921435Y603819D01*
X921435Y606227D02*
X912445Y606227D01*
X912445Y589585D02*
X912445Y579595D01*
X912445Y589585D02*
X921435Y589585D01*
X921435Y579595D01*
X912445Y579595D01*
X912445Y582003D02*
X921435Y582003D01*
X921435Y584411D02*
X912445Y584411D01*
X912445Y586819D02*
X921435Y586819D01*
X921435Y589227D02*
X912445Y589227D01*
X880695Y693115D02*
X880695Y703105D01*
X889685Y703105D01*
X889685Y693115D01*
X880695Y693115D01*
X880695Y695523D02*
X889685Y695523D01*
X889685Y697931D02*
X880695Y697931D01*
X880695Y700339D02*
X889685Y700339D01*
X889685Y702747D02*
X880695Y702747D01*
X880695Y686105D02*
X880695Y676115D01*
X880695Y686105D02*
X889685Y686105D01*
X889685Y676115D01*
X880695Y676115D01*
X880695Y678523D02*
X889685Y678523D01*
X889685Y680931D02*
X880695Y680931D01*
X880695Y683339D02*
X889685Y683339D01*
X889685Y685747D02*
X880695Y685747D01*
X927785Y686105D02*
X927785Y676115D01*
X918795Y676115D01*
X918795Y686105D01*
X927785Y686105D01*
X927785Y678523D02*
X918795Y678523D01*
X918795Y680931D02*
X927785Y680931D01*
X927785Y683339D02*
X918795Y683339D01*
X918795Y685747D02*
X927785Y685747D01*
X927785Y693115D02*
X927785Y703105D01*
X927785Y693115D02*
X918795Y693115D01*
X918795Y703105D01*
X927785Y703105D01*
X927785Y695523D02*
X918795Y695523D01*
X918795Y697931D02*
X927785Y697931D01*
X927785Y700339D02*
X918795Y700339D01*
X918795Y702747D02*
X927785Y702747D01*
X989805Y685115D02*
X999795Y685115D01*
X989805Y685115D02*
X989805Y694105D01*
X999795Y694105D01*
X999795Y685115D01*
X999795Y687523D02*
X989805Y687523D01*
X989805Y689931D02*
X999795Y689931D01*
X999795Y692339D02*
X989805Y692339D01*
X1006805Y685115D02*
X1016795Y685115D01*
X1006805Y685115D02*
X1006805Y694105D01*
X1016795Y694105D01*
X1016795Y685115D01*
X1016795Y687523D02*
X1006805Y687523D01*
X1006805Y689931D02*
X1016795Y689931D01*
X1016795Y692339D02*
X1006805Y692339D01*
D17*
X904985Y653655D02*
X904985Y651915D01*
X903495Y651915D01*
X903495Y653655D01*
X904985Y653655D01*
X899985Y653655D02*
X899985Y651915D01*
X898495Y651915D01*
X898495Y653655D01*
X899985Y653655D01*
X909985Y653655D02*
X909985Y651915D01*
X908495Y651915D01*
X908495Y653655D01*
X909985Y653655D01*
X904985Y638405D02*
X904985Y636665D01*
X903495Y636665D01*
X903495Y638405D01*
X904985Y638405D01*
X899985Y638405D02*
X899985Y636665D01*
X898495Y636665D01*
X898495Y638405D01*
X899985Y638405D01*
X909985Y638405D02*
X909985Y636665D01*
X908495Y636665D01*
X908495Y638405D01*
X909985Y638405D01*
X897485Y641915D02*
X897485Y643405D01*
X897485Y641915D02*
X895745Y641915D01*
X895745Y643405D01*
X897485Y643405D01*
X897485Y646915D02*
X897485Y648405D01*
X897485Y646915D02*
X895745Y646915D01*
X895745Y648405D01*
X897485Y648405D01*
X912735Y643405D02*
X912735Y641915D01*
X910995Y641915D01*
X910995Y643405D01*
X912735Y643405D01*
X912735Y646915D02*
X912735Y648405D01*
X912735Y646915D02*
X910995Y646915D01*
X910995Y648405D01*
X912735Y648405D01*
D10*
X1167815Y676115D02*
X1167815Y686105D01*
X1167815Y676115D02*
X1158825Y676115D01*
X1158825Y686105D01*
X1167815Y686105D01*
X1167815Y678523D02*
X1158825Y678523D01*
X1158825Y680931D02*
X1167815Y680931D01*
X1167815Y683339D02*
X1158825Y683339D01*
X1158825Y685747D02*
X1167815Y685747D01*
X1167815Y693115D02*
X1167815Y703105D01*
X1167815Y693115D02*
X1158825Y693115D01*
X1158825Y703105D01*
X1167815Y703105D01*
X1167815Y695523D02*
X1158825Y695523D01*
X1158825Y697931D02*
X1167815Y697931D01*
X1167815Y700339D02*
X1158825Y700339D01*
X1158825Y702747D02*
X1167815Y702747D01*
D11*
X1267635Y705145D02*
X1267635Y712175D01*
X1274665Y712175D01*
X1274665Y705145D01*
X1267635Y705145D01*
X1267635Y709414D02*
X1274665Y709414D01*
X1250095Y712175D02*
X1250095Y705145D01*
X1250095Y712175D02*
X1257125Y712175D01*
X1257125Y705145D01*
X1250095Y705145D01*
X1250095Y709414D02*
X1257125Y709414D01*
D12*
X1239520Y734060D03*
X1049020Y530860D03*
D13*
X1061720Y746760D03*
X1264920Y746760D03*
D14*
X1040825Y678705D02*
X1040825Y667615D01*
X1040825Y678705D02*
X1059915Y678705D01*
X1059915Y667615D01*
X1040825Y667615D01*
X1040825Y669927D02*
X1059915Y669927D01*
X1059915Y672239D02*
X1040825Y672239D01*
X1040825Y674551D02*
X1059915Y674551D01*
X1059915Y676863D02*
X1040825Y676863D01*
X1040825Y622705D02*
X1040825Y611615D01*
X1040825Y622705D02*
X1059915Y622705D01*
X1059915Y611615D01*
X1040825Y611615D01*
X1040825Y613927D02*
X1059915Y613927D01*
X1059915Y616239D02*
X1040825Y616239D01*
X1040825Y618551D02*
X1059915Y618551D01*
X1059915Y620863D02*
X1040825Y620863D01*
D15*
X1080887Y657677D02*
X1080887Y662643D01*
X1093353Y662643D01*
X1093353Y657677D01*
X1080887Y657677D01*
X1080887Y660107D02*
X1093353Y660107D01*
X1093353Y662537D02*
X1080887Y662537D01*
X1080887Y652643D02*
X1080887Y647677D01*
X1080887Y652643D02*
X1093353Y652643D01*
X1093353Y647677D01*
X1080887Y647677D01*
X1080887Y650107D02*
X1093353Y650107D01*
X1093353Y652537D02*
X1080887Y652537D01*
X1080887Y642643D02*
X1080887Y637677D01*
X1080887Y642643D02*
X1093353Y642643D01*
X1093353Y637677D01*
X1080887Y637677D01*
X1080887Y640107D02*
X1093353Y640107D01*
X1093353Y642537D02*
X1080887Y642537D01*
X1080887Y632643D02*
X1080887Y627677D01*
X1080887Y632643D02*
X1093353Y632643D01*
X1093353Y627677D01*
X1080887Y627677D01*
X1080887Y630107D02*
X1093353Y630107D01*
X1093353Y632537D02*
X1080887Y632537D01*
D14*
X1285815Y622705D02*
X1285815Y611615D01*
X1266725Y611615D01*
X1266725Y622705D01*
X1285815Y622705D01*
X1285815Y613927D02*
X1266725Y613927D01*
X1266725Y616239D02*
X1285815Y616239D01*
X1285815Y618551D02*
X1266725Y618551D01*
X1266725Y620863D02*
X1285815Y620863D01*
X1285815Y667615D02*
X1285815Y678705D01*
X1285815Y667615D02*
X1266725Y667615D01*
X1266725Y678705D01*
X1285815Y678705D01*
X1285815Y669927D02*
X1266725Y669927D01*
X1266725Y672239D02*
X1285815Y672239D01*
X1285815Y674551D02*
X1266725Y674551D01*
X1266725Y676863D02*
X1285815Y676863D01*
D15*
X1245753Y632643D02*
X1245753Y627677D01*
X1233287Y627677D01*
X1233287Y632643D01*
X1245753Y632643D01*
X1245753Y630107D02*
X1233287Y630107D01*
X1233287Y632537D02*
X1245753Y632537D01*
X1245753Y637677D02*
X1245753Y642643D01*
X1245753Y637677D02*
X1233287Y637677D01*
X1233287Y642643D01*
X1245753Y642643D01*
X1245753Y640107D02*
X1233287Y640107D01*
X1233287Y642537D02*
X1245753Y642537D01*
X1245753Y647677D02*
X1245753Y652643D01*
X1245753Y647677D02*
X1233287Y647677D01*
X1233287Y652643D01*
X1245753Y652643D01*
X1245753Y650107D02*
X1233287Y650107D01*
X1233287Y652537D02*
X1245753Y652537D01*
X1245753Y657677D02*
X1245753Y662643D01*
X1245753Y657677D02*
X1233287Y657677D01*
X1233287Y662643D01*
X1245753Y662643D01*
X1245753Y660107D02*
X1233287Y660107D01*
X1233287Y662537D02*
X1245753Y662537D01*
D16*
X1087120Y530860D03*
X1112520Y530860D03*
X1137920Y530860D03*
X1163320Y530860D03*
X1188720Y530860D03*
X1214120Y530860D03*
X1239520Y530860D03*
D10*
X1155115Y579595D02*
X1155115Y589585D01*
X1155115Y579595D02*
X1146125Y579595D01*
X1146125Y589585D01*
X1155115Y589585D01*
X1155115Y582003D02*
X1146125Y582003D01*
X1146125Y584411D02*
X1155115Y584411D01*
X1155115Y586819D02*
X1146125Y586819D01*
X1146125Y589227D02*
X1155115Y589227D01*
X1155115Y596595D02*
X1155115Y606585D01*
X1155115Y596595D02*
X1146125Y596595D01*
X1146125Y606585D01*
X1155115Y606585D01*
X1155115Y599003D02*
X1146125Y599003D01*
X1146125Y601411D02*
X1155115Y601411D01*
X1155115Y603819D02*
X1146125Y603819D01*
X1146125Y606227D02*
X1155115Y606227D01*
X1171525Y606585D02*
X1171525Y596595D01*
X1171525Y606585D02*
X1180515Y606585D01*
X1180515Y596595D01*
X1171525Y596595D01*
X1171525Y599003D02*
X1180515Y599003D01*
X1180515Y601411D02*
X1171525Y601411D01*
X1171525Y603819D02*
X1180515Y603819D01*
X1180515Y606227D02*
X1171525Y606227D01*
X1171525Y589585D02*
X1171525Y579595D01*
X1171525Y589585D02*
X1180515Y589585D01*
X1180515Y579595D01*
X1171525Y579595D01*
X1171525Y582003D02*
X1180515Y582003D01*
X1180515Y584411D02*
X1171525Y584411D01*
X1171525Y586819D02*
X1180515Y586819D01*
X1180515Y589227D02*
X1171525Y589227D01*
X1139775Y693115D02*
X1139775Y703105D01*
X1148765Y703105D01*
X1148765Y693115D01*
X1139775Y693115D01*
X1139775Y695523D02*
X1148765Y695523D01*
X1148765Y697931D02*
X1139775Y697931D01*
X1139775Y700339D02*
X1148765Y700339D01*
X1148765Y702747D02*
X1139775Y702747D01*
X1139775Y686105D02*
X1139775Y676115D01*
X1139775Y686105D02*
X1148765Y686105D01*
X1148765Y676115D01*
X1139775Y676115D01*
X1139775Y678523D02*
X1148765Y678523D01*
X1148765Y680931D02*
X1139775Y680931D01*
X1139775Y683339D02*
X1148765Y683339D01*
X1148765Y685747D02*
X1139775Y685747D01*
X1186865Y686105D02*
X1186865Y676115D01*
X1177875Y676115D01*
X1177875Y686105D01*
X1186865Y686105D01*
X1186865Y678523D02*
X1177875Y678523D01*
X1177875Y680931D02*
X1186865Y680931D01*
X1186865Y683339D02*
X1177875Y683339D01*
X1177875Y685747D02*
X1186865Y685747D01*
X1186865Y693115D02*
X1186865Y703105D01*
X1186865Y693115D02*
X1177875Y693115D01*
X1177875Y703105D01*
X1186865Y703105D01*
X1186865Y695523D02*
X1177875Y695523D01*
X1177875Y697931D02*
X1186865Y697931D01*
X1186865Y700339D02*
X1177875Y700339D01*
X1177875Y702747D02*
X1186865Y702747D01*
X1248885Y685115D02*
X1258875Y685115D01*
X1248885Y685115D02*
X1248885Y694105D01*
X1258875Y694105D01*
X1258875Y685115D01*
X1258875Y687523D02*
X1248885Y687523D01*
X1248885Y689931D02*
X1258875Y689931D01*
X1258875Y692339D02*
X1248885Y692339D01*
X1265885Y685115D02*
X1275875Y685115D01*
X1265885Y685115D02*
X1265885Y694105D01*
X1275875Y694105D01*
X1275875Y685115D01*
X1275875Y687523D02*
X1265885Y687523D01*
X1265885Y689931D02*
X1275875Y689931D01*
X1275875Y692339D02*
X1265885Y692339D01*
D17*
X1164065Y653655D02*
X1164065Y651915D01*
X1162575Y651915D01*
X1162575Y653655D01*
X1164065Y653655D01*
X1159065Y653655D02*
X1159065Y651915D01*
X1157575Y651915D01*
X1157575Y653655D01*
X1159065Y653655D01*
X1169065Y653655D02*
X1169065Y651915D01*
X1167575Y651915D01*
X1167575Y653655D01*
X1169065Y653655D01*
X1164065Y638405D02*
X1164065Y636665D01*
X1162575Y636665D01*
X1162575Y638405D01*
X1164065Y638405D01*
X1159065Y638405D02*
X1159065Y636665D01*
X1157575Y636665D01*
X1157575Y638405D01*
X1159065Y638405D01*
X1169065Y638405D02*
X1169065Y636665D01*
X1167575Y636665D01*
X1167575Y638405D01*
X1169065Y638405D01*
X1156565Y641915D02*
X1156565Y643405D01*
X1156565Y641915D02*
X1154825Y641915D01*
X1154825Y643405D01*
X1156565Y643405D01*
X1156565Y646915D02*
X1156565Y648405D01*
X1156565Y646915D02*
X1154825Y646915D01*
X1154825Y648405D01*
X1156565Y648405D01*
X1171815Y643405D02*
X1171815Y641915D01*
X1170075Y641915D01*
X1170075Y643405D01*
X1171815Y643405D01*
X1171815Y646915D02*
X1171815Y648405D01*
X1171815Y646915D02*
X1170075Y646915D01*
X1170075Y648405D01*
X1171815Y648405D01*
D10*
X1426895Y676115D02*
X1426895Y686105D01*
X1426895Y676115D02*
X1417905Y676115D01*
X1417905Y686105D01*
X1426895Y686105D01*
X1426895Y678523D02*
X1417905Y678523D01*
X1417905Y680931D02*
X1426895Y680931D01*
X1426895Y683339D02*
X1417905Y683339D01*
X1417905Y685747D02*
X1426895Y685747D01*
X1426895Y693115D02*
X1426895Y703105D01*
X1426895Y693115D02*
X1417905Y693115D01*
X1417905Y703105D01*
X1426895Y703105D01*
X1426895Y695523D02*
X1417905Y695523D01*
X1417905Y697931D02*
X1426895Y697931D01*
X1426895Y700339D02*
X1417905Y700339D01*
X1417905Y702747D02*
X1426895Y702747D01*
D11*
X1526715Y705145D02*
X1526715Y712175D01*
X1533745Y712175D01*
X1533745Y705145D01*
X1526715Y705145D01*
X1526715Y709414D02*
X1533745Y709414D01*
X1509175Y712175D02*
X1509175Y705145D01*
X1509175Y712175D02*
X1516205Y712175D01*
X1516205Y705145D01*
X1509175Y705145D01*
X1509175Y709414D02*
X1516205Y709414D01*
D12*
X1498600Y734060D03*
X1308100Y530860D03*
D13*
X1320800Y746760D03*
X1524000Y746760D03*
D14*
X1299905Y678705D02*
X1299905Y667615D01*
X1299905Y678705D02*
X1318995Y678705D01*
X1318995Y667615D01*
X1299905Y667615D01*
X1299905Y669927D02*
X1318995Y669927D01*
X1318995Y672239D02*
X1299905Y672239D01*
X1299905Y674551D02*
X1318995Y674551D01*
X1318995Y676863D02*
X1299905Y676863D01*
X1299905Y622705D02*
X1299905Y611615D01*
X1299905Y622705D02*
X1318995Y622705D01*
X1318995Y611615D01*
X1299905Y611615D01*
X1299905Y613927D02*
X1318995Y613927D01*
X1318995Y616239D02*
X1299905Y616239D01*
X1299905Y618551D02*
X1318995Y618551D01*
X1318995Y620863D02*
X1299905Y620863D01*
D15*
X1339967Y657677D02*
X1339967Y662643D01*
X1352433Y662643D01*
X1352433Y657677D01*
X1339967Y657677D01*
X1339967Y660107D02*
X1352433Y660107D01*
X1352433Y662537D02*
X1339967Y662537D01*
X1339967Y652643D02*
X1339967Y647677D01*
X1339967Y652643D02*
X1352433Y652643D01*
X1352433Y647677D01*
X1339967Y647677D01*
X1339967Y650107D02*
X1352433Y650107D01*
X1352433Y652537D02*
X1339967Y652537D01*
X1339967Y642643D02*
X1339967Y637677D01*
X1339967Y642643D02*
X1352433Y642643D01*
X1352433Y637677D01*
X1339967Y637677D01*
X1339967Y640107D02*
X1352433Y640107D01*
X1352433Y642537D02*
X1339967Y642537D01*
X1339967Y632643D02*
X1339967Y627677D01*
X1339967Y632643D02*
X1352433Y632643D01*
X1352433Y627677D01*
X1339967Y627677D01*
X1339967Y630107D02*
X1352433Y630107D01*
X1352433Y632537D02*
X1339967Y632537D01*
D14*
X1544895Y622705D02*
X1544895Y611615D01*
X1525805Y611615D01*
X1525805Y622705D01*
X1544895Y622705D01*
X1544895Y613927D02*
X1525805Y613927D01*
X1525805Y616239D02*
X1544895Y616239D01*
X1544895Y618551D02*
X1525805Y618551D01*
X1525805Y620863D02*
X1544895Y620863D01*
X1544895Y667615D02*
X1544895Y678705D01*
X1544895Y667615D02*
X1525805Y667615D01*
X1525805Y678705D01*
X1544895Y678705D01*
X1544895Y669927D02*
X1525805Y669927D01*
X1525805Y672239D02*
X1544895Y672239D01*
X1544895Y674551D02*
X1525805Y674551D01*
X1525805Y676863D02*
X1544895Y676863D01*
D15*
X1504833Y632643D02*
X1504833Y627677D01*
X1492367Y627677D01*
X1492367Y632643D01*
X1504833Y632643D01*
X1504833Y630107D02*
X1492367Y630107D01*
X1492367Y632537D02*
X1504833Y632537D01*
X1504833Y637677D02*
X1504833Y642643D01*
X1504833Y637677D02*
X1492367Y637677D01*
X1492367Y642643D01*
X1504833Y642643D01*
X1504833Y640107D02*
X1492367Y640107D01*
X1492367Y642537D02*
X1504833Y642537D01*
X1504833Y647677D02*
X1504833Y652643D01*
X1504833Y647677D02*
X1492367Y647677D01*
X1492367Y652643D01*
X1504833Y652643D01*
X1504833Y650107D02*
X1492367Y650107D01*
X1492367Y652537D02*
X1504833Y652537D01*
X1504833Y657677D02*
X1504833Y662643D01*
X1504833Y657677D02*
X1492367Y657677D01*
X1492367Y662643D01*
X1504833Y662643D01*
X1504833Y660107D02*
X1492367Y660107D01*
X1492367Y662537D02*
X1504833Y662537D01*
D16*
X1346200Y530860D03*
X1371600Y530860D03*
X1397000Y530860D03*
X1422400Y530860D03*
X1447800Y530860D03*
X1473200Y530860D03*
X1498600Y530860D03*
D10*
X1414195Y579595D02*
X1414195Y589585D01*
X1414195Y579595D02*
X1405205Y579595D01*
X1405205Y589585D01*
X1414195Y589585D01*
X1414195Y582003D02*
X1405205Y582003D01*
X1405205Y584411D02*
X1414195Y584411D01*
X1414195Y586819D02*
X1405205Y586819D01*
X1405205Y589227D02*
X1414195Y589227D01*
X1414195Y596595D02*
X1414195Y606585D01*
X1414195Y596595D02*
X1405205Y596595D01*
X1405205Y606585D01*
X1414195Y606585D01*
X1414195Y599003D02*
X1405205Y599003D01*
X1405205Y601411D02*
X1414195Y601411D01*
X1414195Y603819D02*
X1405205Y603819D01*
X1405205Y606227D02*
X1414195Y606227D01*
X1430605Y606585D02*
X1430605Y596595D01*
X1430605Y606585D02*
X1439595Y606585D01*
X1439595Y596595D01*
X1430605Y596595D01*
X1430605Y599003D02*
X1439595Y599003D01*
X1439595Y601411D02*
X1430605Y601411D01*
X1430605Y603819D02*
X1439595Y603819D01*
X1439595Y606227D02*
X1430605Y606227D01*
X1430605Y589585D02*
X1430605Y579595D01*
X1430605Y589585D02*
X1439595Y589585D01*
X1439595Y579595D01*
X1430605Y579595D01*
X1430605Y582003D02*
X1439595Y582003D01*
X1439595Y584411D02*
X1430605Y584411D01*
X1430605Y586819D02*
X1439595Y586819D01*
X1439595Y589227D02*
X1430605Y589227D01*
X1398855Y693115D02*
X1398855Y703105D01*
X1407845Y703105D01*
X1407845Y693115D01*
X1398855Y693115D01*
X1398855Y695523D02*
X1407845Y695523D01*
X1407845Y697931D02*
X1398855Y697931D01*
X1398855Y700339D02*
X1407845Y700339D01*
X1407845Y702747D02*
X1398855Y702747D01*
X1398855Y686105D02*
X1398855Y676115D01*
X1398855Y686105D02*
X1407845Y686105D01*
X1407845Y676115D01*
X1398855Y676115D01*
X1398855Y678523D02*
X1407845Y678523D01*
X1407845Y680931D02*
X1398855Y680931D01*
X1398855Y683339D02*
X1407845Y683339D01*
X1407845Y685747D02*
X1398855Y685747D01*
X1445945Y686105D02*
X1445945Y676115D01*
X1436955Y676115D01*
X1436955Y686105D01*
X1445945Y686105D01*
X1445945Y678523D02*
X1436955Y678523D01*
X1436955Y680931D02*
X1445945Y680931D01*
X1445945Y683339D02*
X1436955Y683339D01*
X1436955Y685747D02*
X1445945Y685747D01*
X1445945Y693115D02*
X1445945Y703105D01*
X1445945Y693115D02*
X1436955Y693115D01*
X1436955Y703105D01*
X1445945Y703105D01*
X1445945Y695523D02*
X1436955Y695523D01*
X1436955Y697931D02*
X1445945Y697931D01*
X1445945Y700339D02*
X1436955Y700339D01*
X1436955Y702747D02*
X1445945Y702747D01*
X1507965Y685115D02*
X1517955Y685115D01*
X1507965Y685115D02*
X1507965Y694105D01*
X1517955Y694105D01*
X1517955Y685115D01*
X1517955Y687523D02*
X1507965Y687523D01*
X1507965Y689931D02*
X1517955Y689931D01*
X1517955Y692339D02*
X1507965Y692339D01*
X1524965Y685115D02*
X1534955Y685115D01*
X1524965Y685115D02*
X1524965Y694105D01*
X1534955Y694105D01*
X1534955Y685115D01*
X1534955Y687523D02*
X1524965Y687523D01*
X1524965Y689931D02*
X1534955Y689931D01*
X1534955Y692339D02*
X1524965Y692339D01*
D17*
X1423145Y653655D02*
X1423145Y651915D01*
X1421655Y651915D01*
X1421655Y653655D01*
X1423145Y653655D01*
X1418145Y653655D02*
X1418145Y651915D01*
X1416655Y651915D01*
X1416655Y653655D01*
X1418145Y653655D01*
X1428145Y653655D02*
X1428145Y651915D01*
X1426655Y651915D01*
X1426655Y653655D01*
X1428145Y653655D01*
X1423145Y638405D02*
X1423145Y636665D01*
X1421655Y636665D01*
X1421655Y638405D01*
X1423145Y638405D01*
X1418145Y638405D02*
X1418145Y636665D01*
X1416655Y636665D01*
X1416655Y638405D01*
X1418145Y638405D01*
X1428145Y638405D02*
X1428145Y636665D01*
X1426655Y636665D01*
X1426655Y638405D01*
X1428145Y638405D01*
X1415645Y641915D02*
X1415645Y643405D01*
X1415645Y641915D02*
X1413905Y641915D01*
X1413905Y643405D01*
X1415645Y643405D01*
X1415645Y646915D02*
X1415645Y648405D01*
X1415645Y646915D02*
X1413905Y646915D01*
X1413905Y648405D01*
X1415645Y648405D01*
X1430895Y643405D02*
X1430895Y641915D01*
X1429155Y641915D01*
X1429155Y643405D01*
X1430895Y643405D01*
X1430895Y646915D02*
X1430895Y648405D01*
X1430895Y646915D02*
X1429155Y646915D01*
X1429155Y648405D01*
X1430895Y648405D01*
D10*
X131495Y935195D02*
X131495Y945185D01*
X131495Y935195D02*
X122505Y935195D01*
X122505Y945185D01*
X131495Y945185D01*
X131495Y937603D02*
X122505Y937603D01*
X122505Y940011D02*
X131495Y940011D01*
X131495Y942419D02*
X122505Y942419D01*
X122505Y944827D02*
X131495Y944827D01*
X131495Y952195D02*
X131495Y962185D01*
X131495Y952195D02*
X122505Y952195D01*
X122505Y962185D01*
X131495Y962185D01*
X131495Y954603D02*
X122505Y954603D01*
X122505Y957011D02*
X131495Y957011D01*
X131495Y959419D02*
X122505Y959419D01*
X122505Y961827D02*
X131495Y961827D01*
D11*
X231315Y964225D02*
X231315Y971255D01*
X238345Y971255D01*
X238345Y964225D01*
X231315Y964225D01*
X231315Y968494D02*
X238345Y968494D01*
X213775Y971255D02*
X213775Y964225D01*
X213775Y971255D02*
X220805Y971255D01*
X220805Y964225D01*
X213775Y964225D01*
X213775Y968494D02*
X220805Y968494D01*
D12*
X203200Y993140D03*
X12700Y789940D03*
D13*
X25400Y1005840D03*
X228600Y1005840D03*
D14*
X4505Y937785D02*
X4505Y926695D01*
X4505Y937785D02*
X23595Y937785D01*
X23595Y926695D01*
X4505Y926695D01*
X4505Y929007D02*
X23595Y929007D01*
X23595Y931319D02*
X4505Y931319D01*
X4505Y933631D02*
X23595Y933631D01*
X23595Y935943D02*
X4505Y935943D01*
X4505Y881785D02*
X4505Y870695D01*
X4505Y881785D02*
X23595Y881785D01*
X23595Y870695D01*
X4505Y870695D01*
X4505Y873007D02*
X23595Y873007D01*
X23595Y875319D02*
X4505Y875319D01*
X4505Y877631D02*
X23595Y877631D01*
X23595Y879943D02*
X4505Y879943D01*
D15*
X44567Y916757D02*
X44567Y921723D01*
X57033Y921723D01*
X57033Y916757D01*
X44567Y916757D01*
X44567Y919187D02*
X57033Y919187D01*
X57033Y921617D02*
X44567Y921617D01*
X44567Y911723D02*
X44567Y906757D01*
X44567Y911723D02*
X57033Y911723D01*
X57033Y906757D01*
X44567Y906757D01*
X44567Y909187D02*
X57033Y909187D01*
X57033Y911617D02*
X44567Y911617D01*
X44567Y901723D02*
X44567Y896757D01*
X44567Y901723D02*
X57033Y901723D01*
X57033Y896757D01*
X44567Y896757D01*
X44567Y899187D02*
X57033Y899187D01*
X57033Y901617D02*
X44567Y901617D01*
X44567Y891723D02*
X44567Y886757D01*
X44567Y891723D02*
X57033Y891723D01*
X57033Y886757D01*
X44567Y886757D01*
X44567Y889187D02*
X57033Y889187D01*
X57033Y891617D02*
X44567Y891617D01*
D14*
X249495Y881785D02*
X249495Y870695D01*
X230405Y870695D01*
X230405Y881785D01*
X249495Y881785D01*
X249495Y873007D02*
X230405Y873007D01*
X230405Y875319D02*
X249495Y875319D01*
X249495Y877631D02*
X230405Y877631D01*
X230405Y879943D02*
X249495Y879943D01*
X249495Y926695D02*
X249495Y937785D01*
X249495Y926695D02*
X230405Y926695D01*
X230405Y937785D01*
X249495Y937785D01*
X249495Y929007D02*
X230405Y929007D01*
X230405Y931319D02*
X249495Y931319D01*
X249495Y933631D02*
X230405Y933631D01*
X230405Y935943D02*
X249495Y935943D01*
D15*
X209433Y891723D02*
X209433Y886757D01*
X196967Y886757D01*
X196967Y891723D01*
X209433Y891723D01*
X209433Y889187D02*
X196967Y889187D01*
X196967Y891617D02*
X209433Y891617D01*
X209433Y896757D02*
X209433Y901723D01*
X209433Y896757D02*
X196967Y896757D01*
X196967Y901723D01*
X209433Y901723D01*
X209433Y899187D02*
X196967Y899187D01*
X196967Y901617D02*
X209433Y901617D01*
X209433Y906757D02*
X209433Y911723D01*
X209433Y906757D02*
X196967Y906757D01*
X196967Y911723D01*
X209433Y911723D01*
X209433Y909187D02*
X196967Y909187D01*
X196967Y911617D02*
X209433Y911617D01*
X209433Y916757D02*
X209433Y921723D01*
X209433Y916757D02*
X196967Y916757D01*
X196967Y921723D01*
X209433Y921723D01*
X209433Y919187D02*
X196967Y919187D01*
X196967Y921617D02*
X209433Y921617D01*
D16*
X50800Y789940D03*
X76200Y789940D03*
X101600Y789940D03*
X127000Y789940D03*
X152400Y789940D03*
X177800Y789940D03*
X203200Y789940D03*
D10*
X118795Y838675D02*
X118795Y848665D01*
X118795Y838675D02*
X109805Y838675D01*
X109805Y848665D01*
X118795Y848665D01*
X118795Y841083D02*
X109805Y841083D01*
X109805Y843491D02*
X118795Y843491D01*
X118795Y845899D02*
X109805Y845899D01*
X109805Y848307D02*
X118795Y848307D01*
X118795Y855675D02*
X118795Y865665D01*
X118795Y855675D02*
X109805Y855675D01*
X109805Y865665D01*
X118795Y865665D01*
X118795Y858083D02*
X109805Y858083D01*
X109805Y860491D02*
X118795Y860491D01*
X118795Y862899D02*
X109805Y862899D01*
X109805Y865307D02*
X118795Y865307D01*
X135205Y865665D02*
X135205Y855675D01*
X135205Y865665D02*
X144195Y865665D01*
X144195Y855675D01*
X135205Y855675D01*
X135205Y858083D02*
X144195Y858083D01*
X144195Y860491D02*
X135205Y860491D01*
X135205Y862899D02*
X144195Y862899D01*
X144195Y865307D02*
X135205Y865307D01*
X135205Y848665D02*
X135205Y838675D01*
X135205Y848665D02*
X144195Y848665D01*
X144195Y838675D01*
X135205Y838675D01*
X135205Y841083D02*
X144195Y841083D01*
X144195Y843491D02*
X135205Y843491D01*
X135205Y845899D02*
X144195Y845899D01*
X144195Y848307D02*
X135205Y848307D01*
X103455Y952195D02*
X103455Y962185D01*
X112445Y962185D01*
X112445Y952195D01*
X103455Y952195D01*
X103455Y954603D02*
X112445Y954603D01*
X112445Y957011D02*
X103455Y957011D01*
X103455Y959419D02*
X112445Y959419D01*
X112445Y961827D02*
X103455Y961827D01*
X103455Y945185D02*
X103455Y935195D01*
X103455Y945185D02*
X112445Y945185D01*
X112445Y935195D01*
X103455Y935195D01*
X103455Y937603D02*
X112445Y937603D01*
X112445Y940011D02*
X103455Y940011D01*
X103455Y942419D02*
X112445Y942419D01*
X112445Y944827D02*
X103455Y944827D01*
X150545Y945185D02*
X150545Y935195D01*
X141555Y935195D01*
X141555Y945185D01*
X150545Y945185D01*
X150545Y937603D02*
X141555Y937603D01*
X141555Y940011D02*
X150545Y940011D01*
X150545Y942419D02*
X141555Y942419D01*
X141555Y944827D02*
X150545Y944827D01*
X150545Y952195D02*
X150545Y962185D01*
X150545Y952195D02*
X141555Y952195D01*
X141555Y962185D01*
X150545Y962185D01*
X150545Y954603D02*
X141555Y954603D01*
X141555Y957011D02*
X150545Y957011D01*
X150545Y959419D02*
X141555Y959419D01*
X141555Y961827D02*
X150545Y961827D01*
X212565Y944195D02*
X222555Y944195D01*
X212565Y944195D02*
X212565Y953185D01*
X222555Y953185D01*
X222555Y944195D01*
X222555Y946603D02*
X212565Y946603D01*
X212565Y949011D02*
X222555Y949011D01*
X222555Y951419D02*
X212565Y951419D01*
X229565Y944195D02*
X239555Y944195D01*
X229565Y944195D02*
X229565Y953185D01*
X239555Y953185D01*
X239555Y944195D01*
X239555Y946603D02*
X229565Y946603D01*
X229565Y949011D02*
X239555Y949011D01*
X239555Y951419D02*
X229565Y951419D01*
D17*
X127745Y912735D02*
X127745Y910995D01*
X126255Y910995D01*
X126255Y912735D01*
X127745Y912735D01*
X122745Y912735D02*
X122745Y910995D01*
X121255Y910995D01*
X121255Y912735D01*
X122745Y912735D01*
X132745Y912735D02*
X132745Y910995D01*
X131255Y910995D01*
X131255Y912735D01*
X132745Y912735D01*
X127745Y897485D02*
X127745Y895745D01*
X126255Y895745D01*
X126255Y897485D01*
X127745Y897485D01*
X122745Y897485D02*
X122745Y895745D01*
X121255Y895745D01*
X121255Y897485D01*
X122745Y897485D01*
X132745Y897485D02*
X132745Y895745D01*
X131255Y895745D01*
X131255Y897485D01*
X132745Y897485D01*
X120245Y900995D02*
X120245Y902485D01*
X120245Y900995D02*
X118505Y900995D01*
X118505Y902485D01*
X120245Y902485D01*
X120245Y905995D02*
X120245Y907485D01*
X120245Y905995D02*
X118505Y905995D01*
X118505Y907485D01*
X120245Y907485D01*
X135495Y902485D02*
X135495Y900995D01*
X133755Y900995D01*
X133755Y902485D01*
X135495Y902485D01*
X135495Y905995D02*
X135495Y907485D01*
X135495Y905995D02*
X133755Y905995D01*
X133755Y907485D01*
X135495Y907485D01*
D10*
X390575Y935195D02*
X390575Y945185D01*
X390575Y935195D02*
X381585Y935195D01*
X381585Y945185D01*
X390575Y945185D01*
X390575Y937603D02*
X381585Y937603D01*
X381585Y940011D02*
X390575Y940011D01*
X390575Y942419D02*
X381585Y942419D01*
X381585Y944827D02*
X390575Y944827D01*
X390575Y952195D02*
X390575Y962185D01*
X390575Y952195D02*
X381585Y952195D01*
X381585Y962185D01*
X390575Y962185D01*
X390575Y954603D02*
X381585Y954603D01*
X381585Y957011D02*
X390575Y957011D01*
X390575Y959419D02*
X381585Y959419D01*
X381585Y961827D02*
X390575Y961827D01*
D11*
X490395Y964225D02*
X490395Y971255D01*
X497425Y971255D01*
X497425Y964225D01*
X490395Y964225D01*
X490395Y968494D02*
X497425Y968494D01*
X472855Y971255D02*
X472855Y964225D01*
X472855Y971255D02*
X479885Y971255D01*
X479885Y964225D01*
X472855Y964225D01*
X472855Y968494D02*
X479885Y968494D01*
D12*
X462280Y993140D03*
X271780Y789940D03*
D13*
X284480Y1005840D03*
X487680Y1005840D03*
D14*
X263585Y937785D02*
X263585Y926695D01*
X263585Y937785D02*
X282675Y937785D01*
X282675Y926695D01*
X263585Y926695D01*
X263585Y929007D02*
X282675Y929007D01*
X282675Y931319D02*
X263585Y931319D01*
X263585Y933631D02*
X282675Y933631D01*
X282675Y935943D02*
X263585Y935943D01*
X263585Y881785D02*
X263585Y870695D01*
X263585Y881785D02*
X282675Y881785D01*
X282675Y870695D01*
X263585Y870695D01*
X263585Y873007D02*
X282675Y873007D01*
X282675Y875319D02*
X263585Y875319D01*
X263585Y877631D02*
X282675Y877631D01*
X282675Y879943D02*
X263585Y879943D01*
D15*
X303647Y916757D02*
X303647Y921723D01*
X316113Y921723D01*
X316113Y916757D01*
X303647Y916757D01*
X303647Y919187D02*
X316113Y919187D01*
X316113Y921617D02*
X303647Y921617D01*
X303647Y911723D02*
X303647Y906757D01*
X303647Y911723D02*
X316113Y911723D01*
X316113Y906757D01*
X303647Y906757D01*
X303647Y909187D02*
X316113Y909187D01*
X316113Y911617D02*
X303647Y911617D01*
X303647Y901723D02*
X303647Y896757D01*
X303647Y901723D02*
X316113Y901723D01*
X316113Y896757D01*
X303647Y896757D01*
X303647Y899187D02*
X316113Y899187D01*
X316113Y901617D02*
X303647Y901617D01*
X303647Y891723D02*
X303647Y886757D01*
X303647Y891723D02*
X316113Y891723D01*
X316113Y886757D01*
X303647Y886757D01*
X303647Y889187D02*
X316113Y889187D01*
X316113Y891617D02*
X303647Y891617D01*
D14*
X508575Y881785D02*
X508575Y870695D01*
X489485Y870695D01*
X489485Y881785D01*
X508575Y881785D01*
X508575Y873007D02*
X489485Y873007D01*
X489485Y875319D02*
X508575Y875319D01*
X508575Y877631D02*
X489485Y877631D01*
X489485Y879943D02*
X508575Y879943D01*
X508575Y926695D02*
X508575Y937785D01*
X508575Y926695D02*
X489485Y926695D01*
X489485Y937785D01*
X508575Y937785D01*
X508575Y929007D02*
X489485Y929007D01*
X489485Y931319D02*
X508575Y931319D01*
X508575Y933631D02*
X489485Y933631D01*
X489485Y935943D02*
X508575Y935943D01*
D15*
X468513Y891723D02*
X468513Y886757D01*
X456047Y886757D01*
X456047Y891723D01*
X468513Y891723D01*
X468513Y889187D02*
X456047Y889187D01*
X456047Y891617D02*
X468513Y891617D01*
X468513Y896757D02*
X468513Y901723D01*
X468513Y896757D02*
X456047Y896757D01*
X456047Y901723D01*
X468513Y901723D01*
X468513Y899187D02*
X456047Y899187D01*
X456047Y901617D02*
X468513Y901617D01*
X468513Y906757D02*
X468513Y911723D01*
X468513Y906757D02*
X456047Y906757D01*
X456047Y911723D01*
X468513Y911723D01*
X468513Y909187D02*
X456047Y909187D01*
X456047Y911617D02*
X468513Y911617D01*
X468513Y916757D02*
X468513Y921723D01*
X468513Y916757D02*
X456047Y916757D01*
X456047Y921723D01*
X468513Y921723D01*
X468513Y919187D02*
X456047Y919187D01*
X456047Y921617D02*
X468513Y921617D01*
D16*
X309880Y789940D03*
X335280Y789940D03*
X360680Y789940D03*
X386080Y789940D03*
X411480Y789940D03*
X436880Y789940D03*
X462280Y789940D03*
D10*
X377875Y838675D02*
X377875Y848665D01*
X377875Y838675D02*
X368885Y838675D01*
X368885Y848665D01*
X377875Y848665D01*
X377875Y841083D02*
X368885Y841083D01*
X368885Y843491D02*
X377875Y843491D01*
X377875Y845899D02*
X368885Y845899D01*
X368885Y848307D02*
X377875Y848307D01*
X377875Y855675D02*
X377875Y865665D01*
X377875Y855675D02*
X368885Y855675D01*
X368885Y865665D01*
X377875Y865665D01*
X377875Y858083D02*
X368885Y858083D01*
X368885Y860491D02*
X377875Y860491D01*
X377875Y862899D02*
X368885Y862899D01*
X368885Y865307D02*
X377875Y865307D01*
X394285Y865665D02*
X394285Y855675D01*
X394285Y865665D02*
X403275Y865665D01*
X403275Y855675D01*
X394285Y855675D01*
X394285Y858083D02*
X403275Y858083D01*
X403275Y860491D02*
X394285Y860491D01*
X394285Y862899D02*
X403275Y862899D01*
X403275Y865307D02*
X394285Y865307D01*
X394285Y848665D02*
X394285Y838675D01*
X394285Y848665D02*
X403275Y848665D01*
X403275Y838675D01*
X394285Y838675D01*
X394285Y841083D02*
X403275Y841083D01*
X403275Y843491D02*
X394285Y843491D01*
X394285Y845899D02*
X403275Y845899D01*
X403275Y848307D02*
X394285Y848307D01*
X362535Y952195D02*
X362535Y962185D01*
X371525Y962185D01*
X371525Y952195D01*
X362535Y952195D01*
X362535Y954603D02*
X371525Y954603D01*
X371525Y957011D02*
X362535Y957011D01*
X362535Y959419D02*
X371525Y959419D01*
X371525Y961827D02*
X362535Y961827D01*
X362535Y945185D02*
X362535Y935195D01*
X362535Y945185D02*
X371525Y945185D01*
X371525Y935195D01*
X362535Y935195D01*
X362535Y937603D02*
X371525Y937603D01*
X371525Y940011D02*
X362535Y940011D01*
X362535Y942419D02*
X371525Y942419D01*
X371525Y944827D02*
X362535Y944827D01*
X409625Y945185D02*
X409625Y935195D01*
X400635Y935195D01*
X400635Y945185D01*
X409625Y945185D01*
X409625Y937603D02*
X400635Y937603D01*
X400635Y940011D02*
X409625Y940011D01*
X409625Y942419D02*
X400635Y942419D01*
X400635Y944827D02*
X409625Y944827D01*
X409625Y952195D02*
X409625Y962185D01*
X409625Y952195D02*
X400635Y952195D01*
X400635Y962185D01*
X409625Y962185D01*
X409625Y954603D02*
X400635Y954603D01*
X400635Y957011D02*
X409625Y957011D01*
X409625Y959419D02*
X400635Y959419D01*
X400635Y961827D02*
X409625Y961827D01*
X471645Y944195D02*
X481635Y944195D01*
X471645Y944195D02*
X471645Y953185D01*
X481635Y953185D01*
X481635Y944195D01*
X481635Y946603D02*
X471645Y946603D01*
X471645Y949011D02*
X481635Y949011D01*
X481635Y951419D02*
X471645Y951419D01*
X488645Y944195D02*
X498635Y944195D01*
X488645Y944195D02*
X488645Y953185D01*
X498635Y953185D01*
X498635Y944195D01*
X498635Y946603D02*
X488645Y946603D01*
X488645Y949011D02*
X498635Y949011D01*
X498635Y951419D02*
X488645Y951419D01*
D17*
X386825Y912735D02*
X386825Y910995D01*
X385335Y910995D01*
X385335Y912735D01*
X386825Y912735D01*
X381825Y912735D02*
X381825Y910995D01*
X380335Y910995D01*
X380335Y912735D01*
X381825Y912735D01*
X391825Y912735D02*
X391825Y910995D01*
X390335Y910995D01*
X390335Y912735D01*
X391825Y912735D01*
X386825Y897485D02*
X386825Y895745D01*
X385335Y895745D01*
X385335Y897485D01*
X386825Y897485D01*
X381825Y897485D02*
X381825Y895745D01*
X380335Y895745D01*
X380335Y897485D01*
X381825Y897485D01*
X391825Y897485D02*
X391825Y895745D01*
X390335Y895745D01*
X390335Y897485D01*
X391825Y897485D01*
X379325Y900995D02*
X379325Y902485D01*
X379325Y900995D02*
X377585Y900995D01*
X377585Y902485D01*
X379325Y902485D01*
X379325Y905995D02*
X379325Y907485D01*
X379325Y905995D02*
X377585Y905995D01*
X377585Y907485D01*
X379325Y907485D01*
X394575Y902485D02*
X394575Y900995D01*
X392835Y900995D01*
X392835Y902485D01*
X394575Y902485D01*
X394575Y905995D02*
X394575Y907485D01*
X394575Y905995D02*
X392835Y905995D01*
X392835Y907485D01*
X394575Y907485D01*
D10*
X649655Y935195D02*
X649655Y945185D01*
X649655Y935195D02*
X640665Y935195D01*
X640665Y945185D01*
X649655Y945185D01*
X649655Y937603D02*
X640665Y937603D01*
X640665Y940011D02*
X649655Y940011D01*
X649655Y942419D02*
X640665Y942419D01*
X640665Y944827D02*
X649655Y944827D01*
X649655Y952195D02*
X649655Y962185D01*
X649655Y952195D02*
X640665Y952195D01*
X640665Y962185D01*
X649655Y962185D01*
X649655Y954603D02*
X640665Y954603D01*
X640665Y957011D02*
X649655Y957011D01*
X649655Y959419D02*
X640665Y959419D01*
X640665Y961827D02*
X649655Y961827D01*
D11*
X749475Y964225D02*
X749475Y971255D01*
X756505Y971255D01*
X756505Y964225D01*
X749475Y964225D01*
X749475Y968494D02*
X756505Y968494D01*
X731935Y971255D02*
X731935Y964225D01*
X731935Y971255D02*
X738965Y971255D01*
X738965Y964225D01*
X731935Y964225D01*
X731935Y968494D02*
X738965Y968494D01*
D12*
X721360Y993140D03*
X530860Y789940D03*
D13*
X543560Y1005840D03*
X746760Y1005840D03*
D14*
X522665Y937785D02*
X522665Y926695D01*
X522665Y937785D02*
X541755Y937785D01*
X541755Y926695D01*
X522665Y926695D01*
X522665Y929007D02*
X541755Y929007D01*
X541755Y931319D02*
X522665Y931319D01*
X522665Y933631D02*
X541755Y933631D01*
X541755Y935943D02*
X522665Y935943D01*
X522665Y881785D02*
X522665Y870695D01*
X522665Y881785D02*
X541755Y881785D01*
X541755Y870695D01*
X522665Y870695D01*
X522665Y873007D02*
X541755Y873007D01*
X541755Y875319D02*
X522665Y875319D01*
X522665Y877631D02*
X541755Y877631D01*
X541755Y879943D02*
X522665Y879943D01*
D15*
X562727Y916757D02*
X562727Y921723D01*
X575193Y921723D01*
X575193Y916757D01*
X562727Y916757D01*
X562727Y919187D02*
X575193Y919187D01*
X575193Y921617D02*
X562727Y921617D01*
X562727Y911723D02*
X562727Y906757D01*
X562727Y911723D02*
X575193Y911723D01*
X575193Y906757D01*
X562727Y906757D01*
X562727Y909187D02*
X575193Y909187D01*
X575193Y911617D02*
X562727Y911617D01*
X562727Y901723D02*
X562727Y896757D01*
X562727Y901723D02*
X575193Y901723D01*
X575193Y896757D01*
X562727Y896757D01*
X562727Y899187D02*
X575193Y899187D01*
X575193Y901617D02*
X562727Y901617D01*
X562727Y891723D02*
X562727Y886757D01*
X562727Y891723D02*
X575193Y891723D01*
X575193Y886757D01*
X562727Y886757D01*
X562727Y889187D02*
X575193Y889187D01*
X575193Y891617D02*
X562727Y891617D01*
D14*
X767655Y881785D02*
X767655Y870695D01*
X748565Y870695D01*
X748565Y881785D01*
X767655Y881785D01*
X767655Y873007D02*
X748565Y873007D01*
X748565Y875319D02*
X767655Y875319D01*
X767655Y877631D02*
X748565Y877631D01*
X748565Y879943D02*
X767655Y879943D01*
X767655Y926695D02*
X767655Y937785D01*
X767655Y926695D02*
X748565Y926695D01*
X748565Y937785D01*
X767655Y937785D01*
X767655Y929007D02*
X748565Y929007D01*
X748565Y931319D02*
X767655Y931319D01*
X767655Y933631D02*
X748565Y933631D01*
X748565Y935943D02*
X767655Y935943D01*
D15*
X727593Y891723D02*
X727593Y886757D01*
X715127Y886757D01*
X715127Y891723D01*
X727593Y891723D01*
X727593Y889187D02*
X715127Y889187D01*
X715127Y891617D02*
X727593Y891617D01*
X727593Y896757D02*
X727593Y901723D01*
X727593Y896757D02*
X715127Y896757D01*
X715127Y901723D01*
X727593Y901723D01*
X727593Y899187D02*
X715127Y899187D01*
X715127Y901617D02*
X727593Y901617D01*
X727593Y906757D02*
X727593Y911723D01*
X727593Y906757D02*
X715127Y906757D01*
X715127Y911723D01*
X727593Y911723D01*
X727593Y909187D02*
X715127Y909187D01*
X715127Y911617D02*
X727593Y911617D01*
X727593Y916757D02*
X727593Y921723D01*
X727593Y916757D02*
X715127Y916757D01*
X715127Y921723D01*
X727593Y921723D01*
X727593Y919187D02*
X715127Y919187D01*
X715127Y921617D02*
X727593Y921617D01*
D16*
X568960Y789940D03*
X594360Y789940D03*
X619760Y789940D03*
X645160Y789940D03*
X670560Y789940D03*
X695960Y789940D03*
X721360Y789940D03*
D10*
X636955Y838675D02*
X636955Y848665D01*
X636955Y838675D02*
X627965Y838675D01*
X627965Y848665D01*
X636955Y848665D01*
X636955Y841083D02*
X627965Y841083D01*
X627965Y843491D02*
X636955Y843491D01*
X636955Y845899D02*
X627965Y845899D01*
X627965Y848307D02*
X636955Y848307D01*
X636955Y855675D02*
X636955Y865665D01*
X636955Y855675D02*
X627965Y855675D01*
X627965Y865665D01*
X636955Y865665D01*
X636955Y858083D02*
X627965Y858083D01*
X627965Y860491D02*
X636955Y860491D01*
X636955Y862899D02*
X627965Y862899D01*
X627965Y865307D02*
X636955Y865307D01*
X653365Y865665D02*
X653365Y855675D01*
X653365Y865665D02*
X662355Y865665D01*
X662355Y855675D01*
X653365Y855675D01*
X653365Y858083D02*
X662355Y858083D01*
X662355Y860491D02*
X653365Y860491D01*
X653365Y862899D02*
X662355Y862899D01*
X662355Y865307D02*
X653365Y865307D01*
X653365Y848665D02*
X653365Y838675D01*
X653365Y848665D02*
X662355Y848665D01*
X662355Y838675D01*
X653365Y838675D01*
X653365Y841083D02*
X662355Y841083D01*
X662355Y843491D02*
X653365Y843491D01*
X653365Y845899D02*
X662355Y845899D01*
X662355Y848307D02*
X653365Y848307D01*
X621615Y952195D02*
X621615Y962185D01*
X630605Y962185D01*
X630605Y952195D01*
X621615Y952195D01*
X621615Y954603D02*
X630605Y954603D01*
X630605Y957011D02*
X621615Y957011D01*
X621615Y959419D02*
X630605Y959419D01*
X630605Y961827D02*
X621615Y961827D01*
X621615Y945185D02*
X621615Y935195D01*
X621615Y945185D02*
X630605Y945185D01*
X630605Y935195D01*
X621615Y935195D01*
X621615Y937603D02*
X630605Y937603D01*
X630605Y940011D02*
X621615Y940011D01*
X621615Y942419D02*
X630605Y942419D01*
X630605Y944827D02*
X621615Y944827D01*
X668705Y945185D02*
X668705Y935195D01*
X659715Y935195D01*
X659715Y945185D01*
X668705Y945185D01*
X668705Y937603D02*
X659715Y937603D01*
X659715Y940011D02*
X668705Y940011D01*
X668705Y942419D02*
X659715Y942419D01*
X659715Y944827D02*
X668705Y944827D01*
X668705Y952195D02*
X668705Y962185D01*
X668705Y952195D02*
X659715Y952195D01*
X659715Y962185D01*
X668705Y962185D01*
X668705Y954603D02*
X659715Y954603D01*
X659715Y957011D02*
X668705Y957011D01*
X668705Y959419D02*
X659715Y959419D01*
X659715Y961827D02*
X668705Y961827D01*
X730725Y944195D02*
X740715Y944195D01*
X730725Y944195D02*
X730725Y953185D01*
X740715Y953185D01*
X740715Y944195D01*
X740715Y946603D02*
X730725Y946603D01*
X730725Y949011D02*
X740715Y949011D01*
X740715Y951419D02*
X730725Y951419D01*
X747725Y944195D02*
X757715Y944195D01*
X747725Y944195D02*
X747725Y953185D01*
X757715Y953185D01*
X757715Y944195D01*
X757715Y946603D02*
X747725Y946603D01*
X747725Y949011D02*
X757715Y949011D01*
X757715Y951419D02*
X747725Y951419D01*
D17*
X645905Y912735D02*
X645905Y910995D01*
X644415Y910995D01*
X644415Y912735D01*
X645905Y912735D01*
X640905Y912735D02*
X640905Y910995D01*
X639415Y910995D01*
X639415Y912735D01*
X640905Y912735D01*
X650905Y912735D02*
X650905Y910995D01*
X649415Y910995D01*
X649415Y912735D01*
X650905Y912735D01*
X645905Y897485D02*
X645905Y895745D01*
X644415Y895745D01*
X644415Y897485D01*
X645905Y897485D01*
X640905Y897485D02*
X640905Y895745D01*
X639415Y895745D01*
X639415Y897485D01*
X640905Y897485D01*
X650905Y897485D02*
X650905Y895745D01*
X649415Y895745D01*
X649415Y897485D01*
X650905Y897485D01*
X638405Y900995D02*
X638405Y902485D01*
X638405Y900995D02*
X636665Y900995D01*
X636665Y902485D01*
X638405Y902485D01*
X638405Y905995D02*
X638405Y907485D01*
X638405Y905995D02*
X636665Y905995D01*
X636665Y907485D01*
X638405Y907485D01*
X653655Y902485D02*
X653655Y900995D01*
X651915Y900995D01*
X651915Y902485D01*
X653655Y902485D01*
X653655Y905995D02*
X653655Y907485D01*
X653655Y905995D02*
X651915Y905995D01*
X651915Y907485D01*
X653655Y907485D01*
D10*
X908735Y935195D02*
X908735Y945185D01*
X908735Y935195D02*
X899745Y935195D01*
X899745Y945185D01*
X908735Y945185D01*
X908735Y937603D02*
X899745Y937603D01*
X899745Y940011D02*
X908735Y940011D01*
X908735Y942419D02*
X899745Y942419D01*
X899745Y944827D02*
X908735Y944827D01*
X908735Y952195D02*
X908735Y962185D01*
X908735Y952195D02*
X899745Y952195D01*
X899745Y962185D01*
X908735Y962185D01*
X908735Y954603D02*
X899745Y954603D01*
X899745Y957011D02*
X908735Y957011D01*
X908735Y959419D02*
X899745Y959419D01*
X899745Y961827D02*
X908735Y961827D01*
D11*
X1008555Y964225D02*
X1008555Y971255D01*
X1015585Y971255D01*
X1015585Y964225D01*
X1008555Y964225D01*
X1008555Y968494D02*
X1015585Y968494D01*
X991015Y971255D02*
X991015Y964225D01*
X991015Y971255D02*
X998045Y971255D01*
X998045Y964225D01*
X991015Y964225D01*
X991015Y968494D02*
X998045Y968494D01*
D12*
X980440Y993140D03*
X789940Y789940D03*
D13*
X802640Y1005840D03*
X1005840Y1005840D03*
D14*
X781745Y937785D02*
X781745Y926695D01*
X781745Y937785D02*
X800835Y937785D01*
X800835Y926695D01*
X781745Y926695D01*
X781745Y929007D02*
X800835Y929007D01*
X800835Y931319D02*
X781745Y931319D01*
X781745Y933631D02*
X800835Y933631D01*
X800835Y935943D02*
X781745Y935943D01*
X781745Y881785D02*
X781745Y870695D01*
X781745Y881785D02*
X800835Y881785D01*
X800835Y870695D01*
X781745Y870695D01*
X781745Y873007D02*
X800835Y873007D01*
X800835Y875319D02*
X781745Y875319D01*
X781745Y877631D02*
X800835Y877631D01*
X800835Y879943D02*
X781745Y879943D01*
D15*
X821807Y916757D02*
X821807Y921723D01*
X834273Y921723D01*
X834273Y916757D01*
X821807Y916757D01*
X821807Y919187D02*
X834273Y919187D01*
X834273Y921617D02*
X821807Y921617D01*
X821807Y911723D02*
X821807Y906757D01*
X821807Y911723D02*
X834273Y911723D01*
X834273Y906757D01*
X821807Y906757D01*
X821807Y909187D02*
X834273Y909187D01*
X834273Y911617D02*
X821807Y911617D01*
X821807Y901723D02*
X821807Y896757D01*
X821807Y901723D02*
X834273Y901723D01*
X834273Y896757D01*
X821807Y896757D01*
X821807Y899187D02*
X834273Y899187D01*
X834273Y901617D02*
X821807Y901617D01*
X821807Y891723D02*
X821807Y886757D01*
X821807Y891723D02*
X834273Y891723D01*
X834273Y886757D01*
X821807Y886757D01*
X821807Y889187D02*
X834273Y889187D01*
X834273Y891617D02*
X821807Y891617D01*
D14*
X1026735Y881785D02*
X1026735Y870695D01*
X1007645Y870695D01*
X1007645Y881785D01*
X1026735Y881785D01*
X1026735Y873007D02*
X1007645Y873007D01*
X1007645Y875319D02*
X1026735Y875319D01*
X1026735Y877631D02*
X1007645Y877631D01*
X1007645Y879943D02*
X1026735Y879943D01*
X1026735Y926695D02*
X1026735Y937785D01*
X1026735Y926695D02*
X1007645Y926695D01*
X1007645Y937785D01*
X1026735Y937785D01*
X1026735Y929007D02*
X1007645Y929007D01*
X1007645Y931319D02*
X1026735Y931319D01*
X1026735Y933631D02*
X1007645Y933631D01*
X1007645Y935943D02*
X1026735Y935943D01*
D15*
X986673Y891723D02*
X986673Y886757D01*
X974207Y886757D01*
X974207Y891723D01*
X986673Y891723D01*
X986673Y889187D02*
X974207Y889187D01*
X974207Y891617D02*
X986673Y891617D01*
X986673Y896757D02*
X986673Y901723D01*
X986673Y896757D02*
X974207Y896757D01*
X974207Y901723D01*
X986673Y901723D01*
X986673Y899187D02*
X974207Y899187D01*
X974207Y901617D02*
X986673Y901617D01*
X986673Y906757D02*
X986673Y911723D01*
X986673Y906757D02*
X974207Y906757D01*
X974207Y911723D01*
X986673Y911723D01*
X986673Y909187D02*
X974207Y909187D01*
X974207Y911617D02*
X986673Y911617D01*
X986673Y916757D02*
X986673Y921723D01*
X986673Y916757D02*
X974207Y916757D01*
X974207Y921723D01*
X986673Y921723D01*
X986673Y919187D02*
X974207Y919187D01*
X974207Y921617D02*
X986673Y921617D01*
D16*
X828040Y789940D03*
X853440Y789940D03*
X878840Y789940D03*
X904240Y789940D03*
X929640Y789940D03*
X955040Y789940D03*
X980440Y789940D03*
D10*
X896035Y838675D02*
X896035Y848665D01*
X896035Y838675D02*
X887045Y838675D01*
X887045Y848665D01*
X896035Y848665D01*
X896035Y841083D02*
X887045Y841083D01*
X887045Y843491D02*
X896035Y843491D01*
X896035Y845899D02*
X887045Y845899D01*
X887045Y848307D02*
X896035Y848307D01*
X896035Y855675D02*
X896035Y865665D01*
X896035Y855675D02*
X887045Y855675D01*
X887045Y865665D01*
X896035Y865665D01*
X896035Y858083D02*
X887045Y858083D01*
X887045Y860491D02*
X896035Y860491D01*
X896035Y862899D02*
X887045Y862899D01*
X887045Y865307D02*
X896035Y865307D01*
X912445Y865665D02*
X912445Y855675D01*
X912445Y865665D02*
X921435Y865665D01*
X921435Y855675D01*
X912445Y855675D01*
X912445Y858083D02*
X921435Y858083D01*
X921435Y860491D02*
X912445Y860491D01*
X912445Y862899D02*
X921435Y862899D01*
X921435Y865307D02*
X912445Y865307D01*
X912445Y848665D02*
X912445Y838675D01*
X912445Y848665D02*
X921435Y848665D01*
X921435Y838675D01*
X912445Y838675D01*
X912445Y841083D02*
X921435Y841083D01*
X921435Y843491D02*
X912445Y843491D01*
X912445Y845899D02*
X921435Y845899D01*
X921435Y848307D02*
X912445Y848307D01*
X880695Y952195D02*
X880695Y962185D01*
X889685Y962185D01*
X889685Y952195D01*
X880695Y952195D01*
X880695Y954603D02*
X889685Y954603D01*
X889685Y957011D02*
X880695Y957011D01*
X880695Y959419D02*
X889685Y959419D01*
X889685Y961827D02*
X880695Y961827D01*
X880695Y945185D02*
X880695Y935195D01*
X880695Y945185D02*
X889685Y945185D01*
X889685Y935195D01*
X880695Y935195D01*
X880695Y937603D02*
X889685Y937603D01*
X889685Y940011D02*
X880695Y940011D01*
X880695Y942419D02*
X889685Y942419D01*
X889685Y944827D02*
X880695Y944827D01*
X927785Y945185D02*
X927785Y935195D01*
X918795Y935195D01*
X918795Y945185D01*
X927785Y945185D01*
X927785Y937603D02*
X918795Y937603D01*
X918795Y940011D02*
X927785Y940011D01*
X927785Y942419D02*
X918795Y942419D01*
X918795Y944827D02*
X927785Y944827D01*
X927785Y952195D02*
X927785Y962185D01*
X927785Y952195D02*
X918795Y952195D01*
X918795Y962185D01*
X927785Y962185D01*
X927785Y954603D02*
X918795Y954603D01*
X918795Y957011D02*
X927785Y957011D01*
X927785Y959419D02*
X918795Y959419D01*
X918795Y961827D02*
X927785Y961827D01*
X989805Y944195D02*
X999795Y944195D01*
X989805Y944195D02*
X989805Y953185D01*
X999795Y953185D01*
X999795Y944195D01*
X999795Y946603D02*
X989805Y946603D01*
X989805Y949011D02*
X999795Y949011D01*
X999795Y951419D02*
X989805Y951419D01*
X1006805Y944195D02*
X1016795Y944195D01*
X1006805Y944195D02*
X1006805Y953185D01*
X1016795Y953185D01*
X1016795Y944195D01*
X1016795Y946603D02*
X1006805Y946603D01*
X1006805Y949011D02*
X1016795Y949011D01*
X1016795Y951419D02*
X1006805Y951419D01*
D17*
X904985Y912735D02*
X904985Y910995D01*
X903495Y910995D01*
X903495Y912735D01*
X904985Y912735D01*
X899985Y912735D02*
X899985Y910995D01*
X898495Y910995D01*
X898495Y912735D01*
X899985Y912735D01*
X909985Y912735D02*
X909985Y910995D01*
X908495Y910995D01*
X908495Y912735D01*
X909985Y912735D01*
X904985Y897485D02*
X904985Y895745D01*
X903495Y895745D01*
X903495Y897485D01*
X904985Y897485D01*
X899985Y897485D02*
X899985Y895745D01*
X898495Y895745D01*
X898495Y897485D01*
X899985Y897485D01*
X909985Y897485D02*
X909985Y895745D01*
X908495Y895745D01*
X908495Y897485D01*
X909985Y897485D01*
X897485Y900995D02*
X897485Y902485D01*
X897485Y900995D02*
X895745Y900995D01*
X895745Y902485D01*
X897485Y902485D01*
X897485Y905995D02*
X897485Y907485D01*
X897485Y905995D02*
X895745Y905995D01*
X895745Y907485D01*
X897485Y907485D01*
X912735Y902485D02*
X912735Y900995D01*
X910995Y900995D01*
X910995Y902485D01*
X912735Y902485D01*
X912735Y905995D02*
X912735Y907485D01*
X912735Y905995D02*
X910995Y905995D01*
X910995Y907485D01*
X912735Y907485D01*
D10*
X1167815Y935195D02*
X1167815Y945185D01*
X1167815Y935195D02*
X1158825Y935195D01*
X1158825Y945185D01*
X1167815Y945185D01*
X1167815Y937603D02*
X1158825Y937603D01*
X1158825Y940011D02*
X1167815Y940011D01*
X1167815Y942419D02*
X1158825Y942419D01*
X1158825Y944827D02*
X1167815Y944827D01*
X1167815Y952195D02*
X1167815Y962185D01*
X1167815Y952195D02*
X1158825Y952195D01*
X1158825Y962185D01*
X1167815Y962185D01*
X1167815Y954603D02*
X1158825Y954603D01*
X1158825Y957011D02*
X1167815Y957011D01*
X1167815Y959419D02*
X1158825Y959419D01*
X1158825Y961827D02*
X1167815Y961827D01*
D11*
X1267635Y964225D02*
X1267635Y971255D01*
X1274665Y971255D01*
X1274665Y964225D01*
X1267635Y964225D01*
X1267635Y968494D02*
X1274665Y968494D01*
X1250095Y971255D02*
X1250095Y964225D01*
X1250095Y971255D02*
X1257125Y971255D01*
X1257125Y964225D01*
X1250095Y964225D01*
X1250095Y968494D02*
X1257125Y968494D01*
D12*
X1239520Y993140D03*
X1049020Y789940D03*
D13*
X1061720Y1005840D03*
X1264920Y1005840D03*
D14*
X1040825Y937785D02*
X1040825Y926695D01*
X1040825Y937785D02*
X1059915Y937785D01*
X1059915Y926695D01*
X1040825Y926695D01*
X1040825Y929007D02*
X1059915Y929007D01*
X1059915Y931319D02*
X1040825Y931319D01*
X1040825Y933631D02*
X1059915Y933631D01*
X1059915Y935943D02*
X1040825Y935943D01*
X1040825Y881785D02*
X1040825Y870695D01*
X1040825Y881785D02*
X1059915Y881785D01*
X1059915Y870695D01*
X1040825Y870695D01*
X1040825Y873007D02*
X1059915Y873007D01*
X1059915Y875319D02*
X1040825Y875319D01*
X1040825Y877631D02*
X1059915Y877631D01*
X1059915Y879943D02*
X1040825Y879943D01*
D15*
X1080887Y916757D02*
X1080887Y921723D01*
X1093353Y921723D01*
X1093353Y916757D01*
X1080887Y916757D01*
X1080887Y919187D02*
X1093353Y919187D01*
X1093353Y921617D02*
X1080887Y921617D01*
X1080887Y911723D02*
X1080887Y906757D01*
X1080887Y911723D02*
X1093353Y911723D01*
X1093353Y906757D01*
X1080887Y906757D01*
X1080887Y909187D02*
X1093353Y909187D01*
X1093353Y911617D02*
X1080887Y911617D01*
X1080887Y901723D02*
X1080887Y896757D01*
X1080887Y901723D02*
X1093353Y901723D01*
X1093353Y896757D01*
X1080887Y896757D01*
X1080887Y899187D02*
X1093353Y899187D01*
X1093353Y901617D02*
X1080887Y901617D01*
X1080887Y891723D02*
X1080887Y886757D01*
X1080887Y891723D02*
X1093353Y891723D01*
X1093353Y886757D01*
X1080887Y886757D01*
X1080887Y889187D02*
X1093353Y889187D01*
X1093353Y891617D02*
X1080887Y891617D01*
D14*
X1285815Y881785D02*
X1285815Y870695D01*
X1266725Y870695D01*
X1266725Y881785D01*
X1285815Y881785D01*
X1285815Y873007D02*
X1266725Y873007D01*
X1266725Y875319D02*
X1285815Y875319D01*
X1285815Y877631D02*
X1266725Y877631D01*
X1266725Y879943D02*
X1285815Y879943D01*
X1285815Y926695D02*
X1285815Y937785D01*
X1285815Y926695D02*
X1266725Y926695D01*
X1266725Y937785D01*
X1285815Y937785D01*
X1285815Y929007D02*
X1266725Y929007D01*
X1266725Y931319D02*
X1285815Y931319D01*
X1285815Y933631D02*
X1266725Y933631D01*
X1266725Y935943D02*
X1285815Y935943D01*
D15*
X1245753Y891723D02*
X1245753Y886757D01*
X1233287Y886757D01*
X1233287Y891723D01*
X1245753Y891723D01*
X1245753Y889187D02*
X1233287Y889187D01*
X1233287Y891617D02*
X1245753Y891617D01*
X1245753Y896757D02*
X1245753Y901723D01*
X1245753Y896757D02*
X1233287Y896757D01*
X1233287Y901723D01*
X1245753Y901723D01*
X1245753Y899187D02*
X1233287Y899187D01*
X1233287Y901617D02*
X1245753Y901617D01*
X1245753Y906757D02*
X1245753Y911723D01*
X1245753Y906757D02*
X1233287Y906757D01*
X1233287Y911723D01*
X1245753Y911723D01*
X1245753Y909187D02*
X1233287Y909187D01*
X1233287Y911617D02*
X1245753Y911617D01*
X1245753Y916757D02*
X1245753Y921723D01*
X1245753Y916757D02*
X1233287Y916757D01*
X1233287Y921723D01*
X1245753Y921723D01*
X1245753Y919187D02*
X1233287Y919187D01*
X1233287Y921617D02*
X1245753Y921617D01*
D16*
X1087120Y789940D03*
X1112520Y789940D03*
X1137920Y789940D03*
X1163320Y789940D03*
X1188720Y789940D03*
X1214120Y789940D03*
X1239520Y789940D03*
D10*
X1155115Y838675D02*
X1155115Y848665D01*
X1155115Y838675D02*
X1146125Y838675D01*
X1146125Y848665D01*
X1155115Y848665D01*
X1155115Y841083D02*
X1146125Y841083D01*
X1146125Y843491D02*
X1155115Y843491D01*
X1155115Y845899D02*
X1146125Y845899D01*
X1146125Y848307D02*
X1155115Y848307D01*
X1155115Y855675D02*
X1155115Y865665D01*
X1155115Y855675D02*
X1146125Y855675D01*
X1146125Y865665D01*
X1155115Y865665D01*
X1155115Y858083D02*
X1146125Y858083D01*
X1146125Y860491D02*
X1155115Y860491D01*
X1155115Y862899D02*
X1146125Y862899D01*
X1146125Y865307D02*
X1155115Y865307D01*
X1171525Y865665D02*
X1171525Y855675D01*
X1171525Y865665D02*
X1180515Y865665D01*
X1180515Y855675D01*
X1171525Y855675D01*
X1171525Y858083D02*
X1180515Y858083D01*
X1180515Y860491D02*
X1171525Y860491D01*
X1171525Y862899D02*
X1180515Y862899D01*
X1180515Y865307D02*
X1171525Y865307D01*
X1171525Y848665D02*
X1171525Y838675D01*
X1171525Y848665D02*
X1180515Y848665D01*
X1180515Y838675D01*
X1171525Y838675D01*
X1171525Y841083D02*
X1180515Y841083D01*
X1180515Y843491D02*
X1171525Y843491D01*
X1171525Y845899D02*
X1180515Y845899D01*
X1180515Y848307D02*
X1171525Y848307D01*
X1139775Y952195D02*
X1139775Y962185D01*
X1148765Y962185D01*
X1148765Y952195D01*
X1139775Y952195D01*
X1139775Y954603D02*
X1148765Y954603D01*
X1148765Y957011D02*
X1139775Y957011D01*
X1139775Y959419D02*
X1148765Y959419D01*
X1148765Y961827D02*
X1139775Y961827D01*
X1139775Y945185D02*
X1139775Y935195D01*
X1139775Y945185D02*
X1148765Y945185D01*
X1148765Y935195D01*
X1139775Y935195D01*
X1139775Y937603D02*
X1148765Y937603D01*
X1148765Y940011D02*
X1139775Y940011D01*
X1139775Y942419D02*
X1148765Y942419D01*
X1148765Y944827D02*
X1139775Y944827D01*
X1186865Y945185D02*
X1186865Y935195D01*
X1177875Y935195D01*
X1177875Y945185D01*
X1186865Y945185D01*
X1186865Y937603D02*
X1177875Y937603D01*
X1177875Y940011D02*
X1186865Y940011D01*
X1186865Y942419D02*
X1177875Y942419D01*
X1177875Y944827D02*
X1186865Y944827D01*
X1186865Y952195D02*
X1186865Y962185D01*
X1186865Y952195D02*
X1177875Y952195D01*
X1177875Y962185D01*
X1186865Y962185D01*
X1186865Y954603D02*
X1177875Y954603D01*
X1177875Y957011D02*
X1186865Y957011D01*
X1186865Y959419D02*
X1177875Y959419D01*
X1177875Y961827D02*
X1186865Y961827D01*
X1248885Y944195D02*
X1258875Y944195D01*
X1248885Y944195D02*
X1248885Y953185D01*
X1258875Y953185D01*
X1258875Y944195D01*
X1258875Y946603D02*
X1248885Y946603D01*
X1248885Y949011D02*
X1258875Y949011D01*
X1258875Y951419D02*
X1248885Y951419D01*
X1265885Y944195D02*
X1275875Y944195D01*
X1265885Y944195D02*
X1265885Y953185D01*
X1275875Y953185D01*
X1275875Y944195D01*
X1275875Y946603D02*
X1265885Y946603D01*
X1265885Y949011D02*
X1275875Y949011D01*
X1275875Y951419D02*
X1265885Y951419D01*
D17*
X1164065Y912735D02*
X1164065Y910995D01*
X1162575Y910995D01*
X1162575Y912735D01*
X1164065Y912735D01*
X1159065Y912735D02*
X1159065Y910995D01*
X1157575Y910995D01*
X1157575Y912735D01*
X1159065Y912735D01*
X1169065Y912735D02*
X1169065Y910995D01*
X1167575Y910995D01*
X1167575Y912735D01*
X1169065Y912735D01*
X1164065Y897485D02*
X1164065Y895745D01*
X1162575Y895745D01*
X1162575Y897485D01*
X1164065Y897485D01*
X1159065Y897485D02*
X1159065Y895745D01*
X1157575Y895745D01*
X1157575Y897485D01*
X1159065Y897485D01*
X1169065Y897485D02*
X1169065Y895745D01*
X1167575Y895745D01*
X1167575Y897485D01*
X1169065Y897485D01*
X1156565Y900995D02*
X1156565Y902485D01*
X1156565Y900995D02*
X1154825Y900995D01*
X1154825Y902485D01*
X1156565Y902485D01*
X1156565Y905995D02*
X1156565Y907485D01*
X1156565Y905995D02*
X1154825Y905995D01*
X1154825Y907485D01*
X1156565Y907485D01*
X1171815Y902485D02*
X1171815Y900995D01*
X1170075Y900995D01*
X1170075Y902485D01*
X1171815Y902485D01*
X1171815Y905995D02*
X1171815Y907485D01*
X1171815Y905995D02*
X1170075Y905995D01*
X1170075Y907485D01*
X1171815Y907485D01*
D10*
X1426895Y935195D02*
X1426895Y945185D01*
X1426895Y935195D02*
X1417905Y935195D01*
X1417905Y945185D01*
X1426895Y945185D01*
X1426895Y937603D02*
X1417905Y937603D01*
X1417905Y940011D02*
X1426895Y940011D01*
X1426895Y942419D02*
X1417905Y942419D01*
X1417905Y944827D02*
X1426895Y944827D01*
X1426895Y952195D02*
X1426895Y962185D01*
X1426895Y952195D02*
X1417905Y952195D01*
X1417905Y962185D01*
X1426895Y962185D01*
X1426895Y954603D02*
X1417905Y954603D01*
X1417905Y957011D02*
X1426895Y957011D01*
X1426895Y959419D02*
X1417905Y959419D01*
X1417905Y961827D02*
X1426895Y961827D01*
D11*
X1526715Y964225D02*
X1526715Y971255D01*
X1533745Y971255D01*
X1533745Y964225D01*
X1526715Y964225D01*
X1526715Y968494D02*
X1533745Y968494D01*
X1509175Y971255D02*
X1509175Y964225D01*
X1509175Y971255D02*
X1516205Y971255D01*
X1516205Y964225D01*
X1509175Y964225D01*
X1509175Y968494D02*
X1516205Y968494D01*
D12*
X1498600Y993140D03*
X1308100Y789940D03*
D13*
X1320800Y1005840D03*
X1524000Y1005840D03*
D14*
X1299905Y937785D02*
X1299905Y926695D01*
X1299905Y937785D02*
X1318995Y937785D01*
X1318995Y926695D01*
X1299905Y926695D01*
X1299905Y929007D02*
X1318995Y929007D01*
X1318995Y931319D02*
X1299905Y931319D01*
X1299905Y933631D02*
X1318995Y933631D01*
X1318995Y935943D02*
X1299905Y935943D01*
X1299905Y881785D02*
X1299905Y870695D01*
X1299905Y881785D02*
X1318995Y881785D01*
X1318995Y870695D01*
X1299905Y870695D01*
X1299905Y873007D02*
X1318995Y873007D01*
X1318995Y875319D02*
X1299905Y875319D01*
X1299905Y877631D02*
X1318995Y877631D01*
X1318995Y879943D02*
X1299905Y879943D01*
D15*
X1339967Y916757D02*
X1339967Y921723D01*
X1352433Y921723D01*
X1352433Y916757D01*
X1339967Y916757D01*
X1339967Y919187D02*
X1352433Y919187D01*
X1352433Y921617D02*
X1339967Y921617D01*
X1339967Y911723D02*
X1339967Y906757D01*
X1339967Y911723D02*
X1352433Y911723D01*
X1352433Y906757D01*
X1339967Y906757D01*
X1339967Y909187D02*
X1352433Y909187D01*
X1352433Y911617D02*
X1339967Y911617D01*
X1339967Y901723D02*
X1339967Y896757D01*
X1339967Y901723D02*
X1352433Y901723D01*
X1352433Y896757D01*
X1339967Y896757D01*
X1339967Y899187D02*
X1352433Y899187D01*
X1352433Y901617D02*
X1339967Y901617D01*
X1339967Y891723D02*
X1339967Y886757D01*
X1339967Y891723D02*
X1352433Y891723D01*
X1352433Y886757D01*
X1339967Y886757D01*
X1339967Y889187D02*
X1352433Y889187D01*
X1352433Y891617D02*
X1339967Y891617D01*
D14*
X1544895Y881785D02*
X1544895Y870695D01*
X1525805Y870695D01*
X1525805Y881785D01*
X1544895Y881785D01*
X1544895Y873007D02*
X1525805Y873007D01*
X1525805Y875319D02*
X1544895Y875319D01*
X1544895Y877631D02*
X1525805Y877631D01*
X1525805Y879943D02*
X1544895Y879943D01*
X1544895Y926695D02*
X1544895Y937785D01*
X1544895Y926695D02*
X1525805Y926695D01*
X1525805Y937785D01*
X1544895Y937785D01*
X1544895Y929007D02*
X1525805Y929007D01*
X1525805Y931319D02*
X1544895Y931319D01*
X1544895Y933631D02*
X1525805Y933631D01*
X1525805Y935943D02*
X1544895Y935943D01*
D15*
X1504833Y891723D02*
X1504833Y886757D01*
X1492367Y886757D01*
X1492367Y891723D01*
X1504833Y891723D01*
X1504833Y889187D02*
X1492367Y889187D01*
X1492367Y891617D02*
X1504833Y891617D01*
X1504833Y896757D02*
X1504833Y901723D01*
X1504833Y896757D02*
X1492367Y896757D01*
X1492367Y901723D01*
X1504833Y901723D01*
X1504833Y899187D02*
X1492367Y899187D01*
X1492367Y901617D02*
X1504833Y901617D01*
X1504833Y906757D02*
X1504833Y911723D01*
X1504833Y906757D02*
X1492367Y906757D01*
X1492367Y911723D01*
X1504833Y911723D01*
X1504833Y909187D02*
X1492367Y909187D01*
X1492367Y911617D02*
X1504833Y911617D01*
X1504833Y916757D02*
X1504833Y921723D01*
X1504833Y916757D02*
X1492367Y916757D01*
X1492367Y921723D01*
X1504833Y921723D01*
X1504833Y919187D02*
X1492367Y919187D01*
X1492367Y921617D02*
X1504833Y921617D01*
D16*
X1346200Y789940D03*
X1371600Y789940D03*
X1397000Y789940D03*
X1422400Y789940D03*
X1447800Y789940D03*
X1473200Y789940D03*
X1498600Y789940D03*
D10*
X1414195Y838675D02*
X1414195Y848665D01*
X1414195Y838675D02*
X1405205Y838675D01*
X1405205Y848665D01*
X1414195Y848665D01*
X1414195Y841083D02*
X1405205Y841083D01*
X1405205Y843491D02*
X1414195Y843491D01*
X1414195Y845899D02*
X1405205Y845899D01*
X1405205Y848307D02*
X1414195Y848307D01*
X1414195Y855675D02*
X1414195Y865665D01*
X1414195Y855675D02*
X1405205Y855675D01*
X1405205Y865665D01*
X1414195Y865665D01*
X1414195Y858083D02*
X1405205Y858083D01*
X1405205Y860491D02*
X1414195Y860491D01*
X1414195Y862899D02*
X1405205Y862899D01*
X1405205Y865307D02*
X1414195Y865307D01*
X1430605Y865665D02*
X1430605Y855675D01*
X1430605Y865665D02*
X1439595Y865665D01*
X1439595Y855675D01*
X1430605Y855675D01*
X1430605Y858083D02*
X1439595Y858083D01*
X1439595Y860491D02*
X1430605Y860491D01*
X1430605Y862899D02*
X1439595Y862899D01*
X1439595Y865307D02*
X1430605Y865307D01*
X1430605Y848665D02*
X1430605Y838675D01*
X1430605Y848665D02*
X1439595Y848665D01*
X1439595Y838675D01*
X1430605Y838675D01*
X1430605Y841083D02*
X1439595Y841083D01*
X1439595Y843491D02*
X1430605Y843491D01*
X1430605Y845899D02*
X1439595Y845899D01*
X1439595Y848307D02*
X1430605Y848307D01*
X1398855Y952195D02*
X1398855Y962185D01*
X1407845Y962185D01*
X1407845Y952195D01*
X1398855Y952195D01*
X1398855Y954603D02*
X1407845Y954603D01*
X1407845Y957011D02*
X1398855Y957011D01*
X1398855Y959419D02*
X1407845Y959419D01*
X1407845Y961827D02*
X1398855Y961827D01*
X1398855Y945185D02*
X1398855Y935195D01*
X1398855Y945185D02*
X1407845Y945185D01*
X1407845Y935195D01*
X1398855Y935195D01*
X1398855Y937603D02*
X1407845Y937603D01*
X1407845Y940011D02*
X1398855Y940011D01*
X1398855Y942419D02*
X1407845Y942419D01*
X1407845Y944827D02*
X1398855Y944827D01*
X1445945Y945185D02*
X1445945Y935195D01*
X1436955Y935195D01*
X1436955Y945185D01*
X1445945Y945185D01*
X1445945Y937603D02*
X1436955Y937603D01*
X1436955Y940011D02*
X1445945Y940011D01*
X1445945Y942419D02*
X1436955Y942419D01*
X1436955Y944827D02*
X1445945Y944827D01*
X1445945Y952195D02*
X1445945Y962185D01*
X1445945Y952195D02*
X1436955Y952195D01*
X1436955Y962185D01*
X1445945Y962185D01*
X1445945Y954603D02*
X1436955Y954603D01*
X1436955Y957011D02*
X1445945Y957011D01*
X1445945Y959419D02*
X1436955Y959419D01*
X1436955Y961827D02*
X1445945Y961827D01*
X1507965Y944195D02*
X1517955Y944195D01*
X1507965Y944195D02*
X1507965Y953185D01*
X1517955Y953185D01*
X1517955Y944195D01*
X1517955Y946603D02*
X1507965Y946603D01*
X1507965Y949011D02*
X1517955Y949011D01*
X1517955Y951419D02*
X1507965Y951419D01*
X1524965Y944195D02*
X1534955Y944195D01*
X1524965Y944195D02*
X1524965Y953185D01*
X1534955Y953185D01*
X1534955Y944195D01*
X1534955Y946603D02*
X1524965Y946603D01*
X1524965Y949011D02*
X1534955Y949011D01*
X1534955Y951419D02*
X1524965Y951419D01*
D17*
X1423145Y912735D02*
X1423145Y910995D01*
X1421655Y910995D01*
X1421655Y912735D01*
X1423145Y912735D01*
X1418145Y912735D02*
X1418145Y910995D01*
X1416655Y910995D01*
X1416655Y912735D01*
X1418145Y912735D01*
X1428145Y912735D02*
X1428145Y910995D01*
X1426655Y910995D01*
X1426655Y912735D01*
X1428145Y912735D01*
X1423145Y897485D02*
X1423145Y895745D01*
X1421655Y895745D01*
X1421655Y897485D01*
X1423145Y897485D01*
X1418145Y897485D02*
X1418145Y895745D01*
X1416655Y895745D01*
X1416655Y897485D01*
X1418145Y897485D01*
X1428145Y897485D02*
X1428145Y895745D01*
X1426655Y895745D01*
X1426655Y897485D01*
X1428145Y897485D01*
X1415645Y900995D02*
X1415645Y902485D01*
X1415645Y900995D02*
X1413905Y900995D01*
X1413905Y902485D01*
X1415645Y902485D01*
X1415645Y905995D02*
X1415645Y907485D01*
X1415645Y905995D02*
X1413905Y905995D01*
X1413905Y907485D01*
X1415645Y907485D01*
X1430895Y902485D02*
X1430895Y900995D01*
X1429155Y900995D01*
X1429155Y902485D01*
X1430895Y902485D01*
X1430895Y905995D02*
X1430895Y907485D01*
X1430895Y905995D02*
X1429155Y905995D01*
X1429155Y907485D01*
X1430895Y907485D01*
D12*
X68580Y1052195D03*
X1480185Y1052195D03*
D18*
X59525Y-20955D02*
X59528Y-20733D01*
X59536Y-20511D01*
X59550Y-20289D01*
X59569Y-20067D01*
X59593Y-19847D01*
X59623Y-19626D01*
X59658Y-19407D01*
X59699Y-19188D01*
X59745Y-18971D01*
X59796Y-18755D01*
X59853Y-18540D01*
X59915Y-18326D01*
X59982Y-18115D01*
X60054Y-17904D01*
X60132Y-17696D01*
X60214Y-17490D01*
X60302Y-17286D01*
X60394Y-17083D01*
X60492Y-16884D01*
X60594Y-16687D01*
X60701Y-16492D01*
X60813Y-16300D01*
X60930Y-16111D01*
X61051Y-15924D01*
X61177Y-15741D01*
X61307Y-15561D01*
X61442Y-15384D01*
X61580Y-15211D01*
X61723Y-15041D01*
X61871Y-14874D01*
X62022Y-14711D01*
X62177Y-14552D01*
X62336Y-14397D01*
X62499Y-14246D01*
X62666Y-14098D01*
X62836Y-13955D01*
X63009Y-13817D01*
X63186Y-13682D01*
X63366Y-13552D01*
X63549Y-13426D01*
X63736Y-13305D01*
X63925Y-13188D01*
X64117Y-13076D01*
X64312Y-12969D01*
X64509Y-12867D01*
X64708Y-12769D01*
X64911Y-12677D01*
X65115Y-12589D01*
X65321Y-12507D01*
X65529Y-12429D01*
X65740Y-12357D01*
X65951Y-12290D01*
X66165Y-12228D01*
X66380Y-12171D01*
X66596Y-12120D01*
X66813Y-12074D01*
X67032Y-12033D01*
X67251Y-11998D01*
X67472Y-11968D01*
X67692Y-11944D01*
X67914Y-11925D01*
X68136Y-11911D01*
X68358Y-11903D01*
X68580Y-11900D01*
X68802Y-11903D01*
X69024Y-11911D01*
X69246Y-11925D01*
X69468Y-11944D01*
X69688Y-11968D01*
X69909Y-11998D01*
X70128Y-12033D01*
X70347Y-12074D01*
X70564Y-12120D01*
X70780Y-12171D01*
X70995Y-12228D01*
X71209Y-12290D01*
X71420Y-12357D01*
X71631Y-12429D01*
X71839Y-12507D01*
X72045Y-12589D01*
X72249Y-12677D01*
X72452Y-12769D01*
X72651Y-12867D01*
X72848Y-12969D01*
X73043Y-13076D01*
X73235Y-13188D01*
X73424Y-13305D01*
X73611Y-13426D01*
X73794Y-13552D01*
X73974Y-13682D01*
X74151Y-13817D01*
X74324Y-13955D01*
X74494Y-14098D01*
X74661Y-14246D01*
X74824Y-14397D01*
X74983Y-14552D01*
X75138Y-14711D01*
X75289Y-14874D01*
X75437Y-15041D01*
X75580Y-15211D01*
X75718Y-15384D01*
X75853Y-15561D01*
X75983Y-15741D01*
X76109Y-15924D01*
X76230Y-16111D01*
X76347Y-16300D01*
X76459Y-16492D01*
X76566Y-16687D01*
X76668Y-16884D01*
X76766Y-17083D01*
X76858Y-17286D01*
X76946Y-17490D01*
X77028Y-17696D01*
X77106Y-17904D01*
X77178Y-18115D01*
X77245Y-18326D01*
X77307Y-18540D01*
X77364Y-18755D01*
X77415Y-18971D01*
X77461Y-19188D01*
X77502Y-19407D01*
X77537Y-19626D01*
X77567Y-19847D01*
X77591Y-20067D01*
X77610Y-20289D01*
X77624Y-20511D01*
X77632Y-20733D01*
X77635Y-20955D01*
X77632Y-21177D01*
X77624Y-21399D01*
X77610Y-21621D01*
X77591Y-21843D01*
X77567Y-22063D01*
X77537Y-22284D01*
X77502Y-22503D01*
X77461Y-22722D01*
X77415Y-22939D01*
X77364Y-23155D01*
X77307Y-23370D01*
X77245Y-23584D01*
X77178Y-23795D01*
X77106Y-24006D01*
X77028Y-24214D01*
X76946Y-24420D01*
X76858Y-24624D01*
X76766Y-24827D01*
X76668Y-25026D01*
X76566Y-25223D01*
X76459Y-25418D01*
X76347Y-25610D01*
X76230Y-25799D01*
X76109Y-25986D01*
X75983Y-26169D01*
X75853Y-26349D01*
X75718Y-26526D01*
X75580Y-26699D01*
X75437Y-26869D01*
X75289Y-27036D01*
X75138Y-27199D01*
X74983Y-27358D01*
X74824Y-27513D01*
X74661Y-27664D01*
X74494Y-27812D01*
X74324Y-27955D01*
X74151Y-28093D01*
X73974Y-28228D01*
X73794Y-28358D01*
X73611Y-28484D01*
X73424Y-28605D01*
X73235Y-28722D01*
X73043Y-28834D01*
X72848Y-28941D01*
X72651Y-29043D01*
X72452Y-29141D01*
X72249Y-29233D01*
X72045Y-29321D01*
X71839Y-29403D01*
X71631Y-29481D01*
X71420Y-29553D01*
X71209Y-29620D01*
X70995Y-29682D01*
X70780Y-29739D01*
X70564Y-29790D01*
X70347Y-29836D01*
X70128Y-29877D01*
X69909Y-29912D01*
X69688Y-29942D01*
X69468Y-29966D01*
X69246Y-29985D01*
X69024Y-29999D01*
X68802Y-30007D01*
X68580Y-30010D01*
X68358Y-30007D01*
X68136Y-29999D01*
X67914Y-29985D01*
X67692Y-29966D01*
X67472Y-29942D01*
X67251Y-29912D01*
X67032Y-29877D01*
X66813Y-29836D01*
X66596Y-29790D01*
X66380Y-29739D01*
X66165Y-29682D01*
X65951Y-29620D01*
X65740Y-29553D01*
X65529Y-29481D01*
X65321Y-29403D01*
X65115Y-29321D01*
X64911Y-29233D01*
X64708Y-29141D01*
X64509Y-29043D01*
X64312Y-28941D01*
X64117Y-28834D01*
X63925Y-28722D01*
X63736Y-28605D01*
X63549Y-28484D01*
X63366Y-28358D01*
X63186Y-28228D01*
X63009Y-28093D01*
X62836Y-27955D01*
X62666Y-27812D01*
X62499Y-27664D01*
X62336Y-27513D01*
X62177Y-27358D01*
X62022Y-27199D01*
X61871Y-27036D01*
X61723Y-26869D01*
X61580Y-26699D01*
X61442Y-26526D01*
X61307Y-26349D01*
X61177Y-26169D01*
X61051Y-25986D01*
X60930Y-25799D01*
X60813Y-25610D01*
X60701Y-25418D01*
X60594Y-25223D01*
X60492Y-25026D01*
X60394Y-24827D01*
X60302Y-24624D01*
X60214Y-24420D01*
X60132Y-24214D01*
X60054Y-24006D01*
X59982Y-23795D01*
X59915Y-23584D01*
X59853Y-23370D01*
X59796Y-23155D01*
X59745Y-22939D01*
X59699Y-22722D01*
X59658Y-22503D01*
X59623Y-22284D01*
X59593Y-22063D01*
X59569Y-21843D01*
X59550Y-21621D01*
X59536Y-21399D01*
X59528Y-21177D01*
X59525Y-20955D01*
D19*
X68580Y-20955D03*
M02*
