M48
;GenerationSoftware,Autodesk,EAGLE,9.6.2*%
;CreationDate,2022-05-26T19:04:34Z*%
FMAT,2
ICI,OFF
METRIC,TZ,000.000
T3C0.305
T2C0.700
T1C3.302
%
G90
M71
T1
X3810Y16510
T2
X1270Y13970
X6350Y13970
T3
X3861Y7595
X3302Y3937
X4115Y10566
X2286Y3937
X3810Y1270
X2032Y1270
X5588Y1270
X4318Y6223
X6548Y8509
X1778Y12319
X6985Y9779
X6985Y6350
X4826Y3429
X762Y11430
X3810Y8890
X5842Y6604
X2540Y6350
X1143Y8890
X5105Y10846
X4318Y3937
X5334Y3937
X3124Y10846
X6223Y11557
X6528Y7366
X6604Y10414
X1016Y7747
X1016Y10160
M30