G04 EAGLE Gerber RS-274X export*
G75*
%MOMM*%
%FSLAX34Y34*%
%LPD*%
%INBottom Copper*%
%IPPOS*%
%AMOC8*
5,1,8,0,0,1.08239X$1,22.5*%
G01*
%ADD10C,0.152400*%
%ADD11C,0.635000*%
%ADD12C,1.200000*%
%ADD13C,0.762000*%
%ADD14C,0.099059*%
%ADD15C,0.558800*%
%ADD16C,0.127000*%

G36*
X25235Y2803D02*
X25235Y2803D01*
X25305Y2802D01*
X25392Y2823D01*
X25481Y2835D01*
X25546Y2860D01*
X25614Y2877D01*
X25694Y2919D01*
X25777Y2952D01*
X25833Y2993D01*
X25895Y3025D01*
X25962Y3086D01*
X26034Y3138D01*
X26079Y3192D01*
X26131Y3239D01*
X26180Y3314D01*
X26237Y3383D01*
X26267Y3447D01*
X26305Y3505D01*
X26335Y3590D01*
X26373Y3671D01*
X26386Y3740D01*
X26409Y3806D01*
X26416Y3895D01*
X26432Y3983D01*
X26428Y4053D01*
X26434Y4123D01*
X26418Y4211D01*
X26413Y4301D01*
X26391Y4367D01*
X26379Y4436D01*
X26342Y4518D01*
X26315Y4603D01*
X26277Y4662D01*
X26249Y4726D01*
X26193Y4796D01*
X26145Y4872D01*
X26094Y4920D01*
X26050Y4975D01*
X25978Y5029D01*
X25913Y5090D01*
X25852Y5124D01*
X25796Y5166D01*
X25704Y5211D01*
X24268Y6647D01*
X23494Y8514D01*
X23494Y10536D01*
X24268Y12403D01*
X25697Y13832D01*
X27564Y14606D01*
X29763Y14606D01*
X29765Y14605D01*
X29770Y14606D01*
X29838Y14606D01*
X29887Y14612D01*
X29982Y14610D01*
X30031Y14622D01*
X30082Y14625D01*
X30139Y14644D01*
X30154Y14646D01*
X30189Y14660D01*
X30291Y14684D01*
X30336Y14708D01*
X30384Y14723D01*
X30442Y14760D01*
X30449Y14763D01*
X30467Y14776D01*
X30476Y14781D01*
X30573Y14832D01*
X30610Y14866D01*
X30653Y14893D01*
X30704Y14948D01*
X30707Y14949D01*
X30712Y14956D01*
X30728Y14973D01*
X30808Y15046D01*
X30836Y15088D01*
X30871Y15125D01*
X30909Y15194D01*
X30910Y15196D01*
X30924Y15220D01*
X30983Y15311D01*
X31000Y15359D01*
X31025Y15403D01*
X31045Y15481D01*
X31045Y15482D01*
X31045Y15484D01*
X31052Y15509D01*
X31087Y15612D01*
X31091Y15662D01*
X31104Y15711D01*
X31114Y15872D01*
X31114Y35002D01*
X31102Y35100D01*
X31099Y35199D01*
X31082Y35257D01*
X31074Y35317D01*
X31038Y35409D01*
X31010Y35504D01*
X30980Y35556D01*
X30957Y35613D01*
X30899Y35693D01*
X30849Y35778D01*
X30783Y35854D01*
X30771Y35870D01*
X30761Y35878D01*
X30743Y35899D01*
X28955Y37686D01*
X28955Y41054D01*
X31336Y43435D01*
X34704Y43435D01*
X37202Y40936D01*
X37297Y40863D01*
X37386Y40784D01*
X37422Y40766D01*
X37454Y40741D01*
X37563Y40694D01*
X37669Y40640D01*
X37708Y40631D01*
X37746Y40615D01*
X37863Y40596D01*
X37979Y40570D01*
X38020Y40571D01*
X38060Y40565D01*
X38178Y40576D01*
X38297Y40580D01*
X38336Y40591D01*
X38376Y40595D01*
X38489Y40635D01*
X38603Y40668D01*
X38637Y40688D01*
X38676Y40702D01*
X38774Y40769D01*
X38877Y40829D01*
X38922Y40869D01*
X38939Y40881D01*
X38952Y40896D01*
X38997Y40936D01*
X41496Y43435D01*
X44864Y43435D01*
X47362Y40936D01*
X47457Y40863D01*
X47546Y40784D01*
X47582Y40766D01*
X47614Y40741D01*
X47723Y40694D01*
X47829Y40640D01*
X47868Y40631D01*
X47906Y40615D01*
X48023Y40596D01*
X48139Y40570D01*
X48180Y40571D01*
X48220Y40565D01*
X48338Y40576D01*
X48457Y40580D01*
X48496Y40591D01*
X48536Y40595D01*
X48649Y40635D01*
X48763Y40668D01*
X48797Y40688D01*
X48836Y40702D01*
X48934Y40769D01*
X49037Y40829D01*
X49082Y40869D01*
X49099Y40881D01*
X49112Y40896D01*
X49157Y40936D01*
X51656Y43435D01*
X55024Y43435D01*
X57405Y41054D01*
X57405Y37686D01*
X55617Y35899D01*
X55557Y35821D01*
X55489Y35749D01*
X55460Y35696D01*
X55423Y35648D01*
X55383Y35557D01*
X55335Y35470D01*
X55320Y35412D01*
X55296Y35356D01*
X55281Y35258D01*
X55256Y35162D01*
X55250Y35062D01*
X55246Y35042D01*
X55248Y35030D01*
X55246Y35002D01*
X55246Y24175D01*
X55258Y24077D01*
X55261Y23978D01*
X55278Y23920D01*
X55286Y23860D01*
X55322Y23768D01*
X55350Y23672D01*
X55380Y23620D01*
X55403Y23564D01*
X55461Y23484D01*
X55511Y23398D01*
X55577Y23323D01*
X55589Y23307D01*
X55599Y23299D01*
X55617Y23278D01*
X64092Y14803D01*
X64116Y14785D01*
X64135Y14762D01*
X64241Y14687D01*
X64344Y14608D01*
X64371Y14596D01*
X64395Y14579D01*
X64516Y14533D01*
X64636Y14481D01*
X64665Y14477D01*
X64692Y14466D01*
X64821Y14452D01*
X64950Y14432D01*
X64979Y14434D01*
X65008Y14431D01*
X65137Y14449D01*
X65266Y14461D01*
X65294Y14471D01*
X65323Y14476D01*
X65476Y14528D01*
X65664Y14606D01*
X67686Y14606D01*
X69553Y13832D01*
X70990Y12395D01*
X71003Y12374D01*
X71024Y12323D01*
X71076Y12250D01*
X71121Y12172D01*
X71151Y12142D01*
X71151Y12141D01*
X71155Y12137D01*
X71169Y12122D01*
X71210Y12066D01*
X71280Y12008D01*
X71342Y11944D01*
X71402Y11907D01*
X71455Y11863D01*
X71537Y11825D01*
X71613Y11778D01*
X71680Y11757D01*
X71743Y11727D01*
X71831Y11710D01*
X71917Y11684D01*
X71987Y11681D01*
X72056Y11668D01*
X72145Y11673D01*
X72235Y11669D01*
X72303Y11683D01*
X72373Y11687D01*
X72458Y11715D01*
X72546Y11733D01*
X72609Y11764D01*
X72675Y11785D01*
X72751Y11833D01*
X72832Y11873D01*
X72885Y11918D01*
X72944Y11955D01*
X73006Y12021D01*
X73074Y12079D01*
X73114Y12136D01*
X73162Y12187D01*
X73205Y12266D01*
X73206Y12266D01*
X73207Y12268D01*
X73208Y12269D01*
X73257Y12339D01*
X73282Y12404D01*
X73316Y12466D01*
X73334Y12537D01*
X73343Y12556D01*
X73347Y12575D01*
X73370Y12636D01*
X73378Y12706D01*
X73395Y12774D01*
X73400Y12855D01*
X73403Y12868D01*
X73402Y12881D01*
X73405Y12934D01*
X73405Y134967D01*
X73392Y135071D01*
X73388Y135175D01*
X73372Y135228D01*
X73365Y135283D01*
X73327Y135380D01*
X73297Y135480D01*
X73269Y135527D01*
X73248Y135579D01*
X73187Y135663D01*
X73133Y135753D01*
X73094Y135791D01*
X73062Y135836D01*
X72981Y135903D01*
X72907Y135976D01*
X72859Y136004D01*
X72817Y136039D01*
X72722Y136083D01*
X72632Y136136D01*
X72579Y136151D01*
X72529Y136174D01*
X72427Y136194D01*
X72326Y136222D01*
X72271Y136224D01*
X72217Y136234D01*
X72112Y136227D01*
X72008Y136230D01*
X71954Y136218D01*
X71899Y136214D01*
X71800Y136182D01*
X71698Y136159D01*
X71649Y136133D01*
X71597Y136116D01*
X71508Y136060D01*
X71416Y136012D01*
X71375Y135976D01*
X71328Y135946D01*
X71256Y135870D01*
X71178Y135800D01*
X71125Y135730D01*
X71110Y135714D01*
X71103Y135701D01*
X71081Y135672D01*
X70134Y134256D01*
X68944Y133066D01*
X67546Y132131D01*
X65991Y131488D01*
X65249Y131340D01*
X65249Y139220D01*
X65234Y139338D01*
X65227Y139457D01*
X65214Y139495D01*
X65209Y139535D01*
X65166Y139646D01*
X65150Y139694D01*
X65160Y139712D01*
X65170Y139751D01*
X65187Y139787D01*
X65209Y139904D01*
X65239Y140020D01*
X65243Y140080D01*
X65247Y140100D01*
X65245Y140120D01*
X65249Y140180D01*
X65249Y148060D01*
X65991Y147912D01*
X67546Y147269D01*
X68944Y146334D01*
X70134Y145144D01*
X71081Y143728D01*
X71149Y143649D01*
X71210Y143564D01*
X71253Y143529D01*
X71289Y143487D01*
X71375Y143428D01*
X71455Y143361D01*
X71505Y143338D01*
X71551Y143306D01*
X71649Y143270D01*
X71743Y143226D01*
X71797Y143215D01*
X71849Y143196D01*
X71953Y143186D01*
X72056Y143166D01*
X72110Y143169D01*
X72165Y143164D01*
X72269Y143179D01*
X72373Y143186D01*
X72425Y143203D01*
X72480Y143211D01*
X72576Y143252D01*
X72675Y143284D01*
X72722Y143313D01*
X72773Y143335D01*
X72856Y143398D01*
X72944Y143454D01*
X72982Y143494D01*
X73026Y143527D01*
X73091Y143610D01*
X73162Y143686D01*
X73189Y143734D01*
X73223Y143777D01*
X73265Y143873D01*
X73316Y143964D01*
X73329Y144017D01*
X73352Y144068D01*
X73369Y144171D01*
X73395Y144272D01*
X73401Y144360D01*
X73404Y144381D01*
X73403Y144396D01*
X73405Y144433D01*
X73405Y178435D01*
X73390Y178553D01*
X73383Y178672D01*
X73370Y178710D01*
X73365Y178751D01*
X73322Y178861D01*
X73285Y178974D01*
X73263Y179009D01*
X73248Y179046D01*
X73179Y179142D01*
X73115Y179243D01*
X73085Y179271D01*
X73062Y179304D01*
X72970Y179380D01*
X72883Y179461D01*
X72848Y179481D01*
X72817Y179506D01*
X72709Y179557D01*
X72605Y179615D01*
X72565Y179625D01*
X72529Y179642D01*
X72412Y179664D01*
X72297Y179694D01*
X72237Y179698D01*
X72217Y179702D01*
X72196Y179700D01*
X72136Y179704D01*
X68009Y179704D01*
X65404Y182309D01*
X65404Y186436D01*
X65389Y186554D01*
X65382Y186673D01*
X65369Y186711D01*
X65364Y186752D01*
X65321Y186862D01*
X65284Y186975D01*
X65262Y187010D01*
X65247Y187047D01*
X65178Y187143D01*
X65114Y187244D01*
X65084Y187272D01*
X65061Y187305D01*
X64969Y187381D01*
X64882Y187462D01*
X64847Y187482D01*
X64816Y187507D01*
X64708Y187558D01*
X64604Y187616D01*
X64564Y187626D01*
X64528Y187643D01*
X64411Y187665D01*
X64296Y187695D01*
X64236Y187699D01*
X64216Y187703D01*
X64195Y187701D01*
X64135Y187705D01*
X44335Y187705D01*
X44266Y187697D01*
X44196Y187698D01*
X44109Y187677D01*
X44020Y187665D01*
X43955Y187640D01*
X43887Y187623D01*
X43807Y187581D01*
X43724Y187548D01*
X43667Y187507D01*
X43606Y187475D01*
X43539Y187414D01*
X43466Y187362D01*
X43422Y187308D01*
X43370Y187261D01*
X43321Y187186D01*
X43264Y187117D01*
X43234Y187053D01*
X43196Y186995D01*
X43166Y186910D01*
X43128Y186829D01*
X43115Y186760D01*
X43092Y186694D01*
X43085Y186605D01*
X43068Y186517D01*
X43073Y186447D01*
X43067Y186377D01*
X43083Y186289D01*
X43088Y186199D01*
X43110Y186133D01*
X43122Y186064D01*
X43158Y185982D01*
X43186Y185897D01*
X43223Y185838D01*
X43252Y185774D01*
X43308Y185704D01*
X43356Y185628D01*
X43407Y185580D01*
X43451Y185526D01*
X43523Y185471D01*
X43588Y185410D01*
X43649Y185376D01*
X43705Y185334D01*
X43849Y185263D01*
X49899Y182758D01*
X55758Y176899D01*
X58929Y169243D01*
X58929Y160957D01*
X55758Y153301D01*
X49899Y147442D01*
X42243Y144271D01*
X33957Y144271D01*
X26301Y147442D01*
X20442Y153301D01*
X17271Y160957D01*
X17271Y169243D01*
X19983Y175790D01*
X19996Y175838D01*
X20017Y175883D01*
X20038Y175991D01*
X20067Y176097D01*
X20068Y176147D01*
X20077Y176196D01*
X20070Y176305D01*
X20072Y176415D01*
X20061Y176463D01*
X20058Y176513D01*
X20024Y176617D01*
X19998Y176724D01*
X19975Y176768D01*
X19959Y176815D01*
X19901Y176908D01*
X19849Y177005D01*
X19816Y177042D01*
X19789Y177084D01*
X19709Y177159D01*
X19635Y177241D01*
X19594Y177268D01*
X19558Y177302D01*
X19462Y177355D01*
X19370Y177415D01*
X19323Y177432D01*
X19279Y177456D01*
X19173Y177483D01*
X19069Y177519D01*
X19019Y177523D01*
X18971Y177535D01*
X18811Y177545D01*
X18380Y177545D01*
X16589Y178824D01*
X16565Y178885D01*
X16536Y178926D01*
X16513Y178971D01*
X16443Y179054D01*
X16378Y179142D01*
X16340Y179175D01*
X16307Y179213D01*
X16218Y179275D01*
X16133Y179345D01*
X16088Y179367D01*
X16047Y179396D01*
X15944Y179434D01*
X15846Y179481D01*
X15796Y179490D01*
X15749Y179508D01*
X15640Y179520D01*
X15533Y179541D01*
X15483Y179537D01*
X15433Y179543D01*
X15325Y179528D01*
X15216Y179521D01*
X15168Y179505D01*
X15118Y179498D01*
X15017Y179456D01*
X14913Y179423D01*
X14871Y179396D01*
X14824Y179377D01*
X14737Y179311D01*
X14645Y179253D01*
X14610Y179216D01*
X14570Y179186D01*
X14502Y179101D01*
X14427Y179021D01*
X14402Y178977D01*
X14371Y178938D01*
X14359Y178912D01*
X13717Y178270D01*
X13709Y178259D01*
X13624Y178165D01*
X13163Y177589D01*
X13089Y177545D01*
X12334Y177545D01*
X12319Y177543D01*
X12194Y177538D01*
X11460Y177456D01*
X11377Y177477D01*
X10843Y178011D01*
X10831Y178020D01*
X10738Y178105D01*
X8837Y179626D01*
X8774Y179665D01*
X8717Y179711D01*
X8639Y179747D01*
X8565Y179792D01*
X8495Y179814D01*
X8428Y179845D01*
X8344Y179860D01*
X8261Y179886D01*
X8188Y179889D01*
X8115Y179902D01*
X8030Y179896D01*
X7944Y179900D01*
X7871Y179885D01*
X7798Y179880D01*
X7642Y179839D01*
X6879Y179585D01*
X6135Y179957D01*
X6107Y179967D01*
X6081Y179982D01*
X5957Y180019D01*
X5835Y180062D01*
X5805Y180065D01*
X5777Y180073D01*
X5647Y180078D01*
X5518Y180090D01*
X5489Y180085D01*
X5459Y180086D01*
X5332Y180059D01*
X5204Y180038D01*
X5177Y180026D01*
X5148Y180019D01*
X5000Y179957D01*
X4215Y179564D01*
X4153Y179577D01*
X4149Y179576D01*
X4144Y179577D01*
X3991Y179568D01*
X3836Y179559D01*
X3832Y179558D01*
X3827Y179558D01*
X3682Y179510D01*
X3533Y179463D01*
X3529Y179461D01*
X3525Y179460D01*
X3394Y179377D01*
X3263Y179295D01*
X3260Y179292D01*
X3256Y179289D01*
X3149Y179176D01*
X3043Y179065D01*
X3041Y179061D01*
X3038Y179058D01*
X2963Y178922D01*
X2888Y178788D01*
X2887Y178783D01*
X2884Y178779D01*
X2846Y178631D01*
X2806Y178480D01*
X2806Y178476D01*
X2805Y178471D01*
X2795Y178311D01*
X2795Y62865D01*
X2810Y62747D01*
X2817Y62628D01*
X2830Y62590D01*
X2835Y62549D01*
X2878Y62439D01*
X2915Y62326D01*
X2937Y62291D01*
X2952Y62254D01*
X3021Y62158D01*
X3085Y62057D01*
X3115Y62029D01*
X3138Y61996D01*
X3230Y61920D01*
X3317Y61839D01*
X3352Y61819D01*
X3383Y61794D01*
X3491Y61743D01*
X3595Y61685D01*
X3635Y61675D01*
X3671Y61658D01*
X3788Y61636D01*
X3903Y61606D01*
X3963Y61602D01*
X3983Y61598D01*
X4004Y61600D01*
X4064Y61596D01*
X8191Y61596D01*
X10796Y58991D01*
X10796Y55309D01*
X8191Y52704D01*
X4064Y52704D01*
X3946Y52689D01*
X3827Y52682D01*
X3789Y52669D01*
X3748Y52664D01*
X3638Y52621D01*
X3525Y52584D01*
X3490Y52562D01*
X3453Y52547D01*
X3357Y52478D01*
X3256Y52414D01*
X3228Y52384D01*
X3195Y52361D01*
X3119Y52269D01*
X3038Y52182D01*
X3018Y52147D01*
X2993Y52116D01*
X2942Y52008D01*
X2884Y51904D01*
X2874Y51864D01*
X2857Y51828D01*
X2835Y51711D01*
X2805Y51596D01*
X2801Y51536D01*
X2797Y51516D01*
X2799Y51495D01*
X2795Y51435D01*
X2795Y14840D01*
X2812Y14702D01*
X2825Y14564D01*
X2832Y14545D01*
X2835Y14525D01*
X2886Y14395D01*
X2933Y14265D01*
X2944Y14248D01*
X2952Y14229D01*
X3033Y14116D01*
X3111Y14001D01*
X3127Y13988D01*
X3138Y13972D01*
X3246Y13883D01*
X3350Y13791D01*
X3368Y13782D01*
X3383Y13769D01*
X3509Y13710D01*
X3633Y13646D01*
X3653Y13642D01*
X3671Y13633D01*
X3807Y13607D01*
X3943Y13577D01*
X3964Y13577D01*
X3983Y13574D01*
X4122Y13582D01*
X4261Y13586D01*
X4281Y13592D01*
X4301Y13593D01*
X4433Y13636D01*
X4567Y13675D01*
X4584Y13685D01*
X4603Y13691D01*
X4721Y13766D01*
X4841Y13836D01*
X4862Y13855D01*
X4872Y13861D01*
X4886Y13876D01*
X4962Y13943D01*
X5477Y14458D01*
X6517Y15153D01*
X7621Y15610D01*
X7621Y10160D01*
X7636Y10042D01*
X7643Y9923D01*
X7655Y9885D01*
X7661Y9845D01*
X7704Y9734D01*
X7741Y9621D01*
X7763Y9587D01*
X7778Y9549D01*
X7847Y9453D01*
X7911Y9352D01*
X7941Y9324D01*
X7964Y9292D01*
X8056Y9216D01*
X8143Y9134D01*
X8178Y9115D01*
X8209Y9089D01*
X8317Y9038D01*
X8421Y8981D01*
X8461Y8971D01*
X8497Y8953D01*
X8614Y8931D01*
X8729Y8901D01*
X8789Y8897D01*
X8809Y8894D01*
X8830Y8895D01*
X8890Y8891D01*
X8891Y8891D01*
X8891Y8890D01*
X8906Y8772D01*
X8913Y8653D01*
X8926Y8615D01*
X8931Y8574D01*
X8975Y8464D01*
X9011Y8351D01*
X9033Y8316D01*
X9048Y8279D01*
X9118Y8182D01*
X9181Y8082D01*
X9211Y8054D01*
X9235Y8021D01*
X9326Y7945D01*
X9413Y7864D01*
X9448Y7844D01*
X9480Y7819D01*
X9587Y7768D01*
X9692Y7710D01*
X9731Y7700D01*
X9767Y7683D01*
X9884Y7661D01*
X10000Y7631D01*
X10060Y7627D01*
X10080Y7623D01*
X10100Y7625D01*
X10160Y7621D01*
X15610Y7621D01*
X15153Y6517D01*
X14458Y5477D01*
X13943Y4962D01*
X13858Y4852D01*
X13769Y4745D01*
X13760Y4726D01*
X13748Y4710D01*
X13692Y4582D01*
X13633Y4457D01*
X13630Y4437D01*
X13621Y4418D01*
X13600Y4280D01*
X13574Y4144D01*
X13575Y4124D01*
X13572Y4104D01*
X13585Y3965D01*
X13593Y3827D01*
X13600Y3808D01*
X13601Y3788D01*
X13648Y3657D01*
X13691Y3525D01*
X13702Y3507D01*
X13709Y3488D01*
X13787Y3374D01*
X13861Y3256D01*
X13876Y3242D01*
X13888Y3225D01*
X13992Y3133D01*
X14093Y3038D01*
X14111Y3028D01*
X14126Y3015D01*
X14250Y2952D01*
X14372Y2884D01*
X14391Y2879D01*
X14409Y2870D01*
X14545Y2840D01*
X14680Y2805D01*
X14708Y2803D01*
X14720Y2800D01*
X14740Y2801D01*
X14840Y2795D01*
X25166Y2795D01*
X25235Y2803D01*
G37*
%LPC*%
G36*
X63594Y69595D02*
X63594Y69595D01*
X61213Y71976D01*
X61213Y74504D01*
X61201Y74602D01*
X61198Y74701D01*
X61181Y74759D01*
X61173Y74819D01*
X61137Y74911D01*
X61109Y75007D01*
X61079Y75059D01*
X61056Y75115D01*
X60998Y75195D01*
X60948Y75280D01*
X60882Y75356D01*
X60870Y75372D01*
X60860Y75380D01*
X60842Y75401D01*
X60588Y75655D01*
X60478Y75740D01*
X60371Y75829D01*
X60352Y75838D01*
X60336Y75850D01*
X60209Y75906D01*
X60083Y75965D01*
X60063Y75969D01*
X60044Y75977D01*
X59907Y75998D01*
X59770Y76025D01*
X59750Y76023D01*
X59730Y76027D01*
X59592Y76014D01*
X59453Y76005D01*
X59434Y75999D01*
X59414Y75997D01*
X59283Y75950D01*
X59151Y75907D01*
X59133Y75896D01*
X59114Y75889D01*
X58999Y75811D01*
X58882Y75737D01*
X58868Y75722D01*
X58851Y75711D01*
X58759Y75606D01*
X58664Y75505D01*
X58654Y75487D01*
X58641Y75472D01*
X58578Y75348D01*
X58510Y75227D01*
X58505Y75207D01*
X58496Y75189D01*
X58466Y75053D01*
X58445Y74972D01*
X57386Y73913D01*
X44214Y73913D01*
X44166Y73961D01*
X44072Y74034D01*
X43983Y74113D01*
X43947Y74131D01*
X43915Y74156D01*
X43805Y74203D01*
X43700Y74257D01*
X43660Y74266D01*
X43623Y74282D01*
X43505Y74301D01*
X43389Y74327D01*
X43349Y74326D01*
X43309Y74332D01*
X43190Y74321D01*
X43071Y74317D01*
X43033Y74306D01*
X42992Y74302D01*
X42880Y74262D01*
X42766Y74229D01*
X42731Y74208D01*
X42693Y74195D01*
X42594Y74128D01*
X42492Y74067D01*
X42447Y74027D01*
X42430Y74016D01*
X42416Y74001D01*
X42371Y73961D01*
X40292Y71881D01*
X36924Y71881D01*
X34337Y74469D01*
X34243Y74542D01*
X34153Y74621D01*
X34117Y74639D01*
X34085Y74664D01*
X33976Y74711D01*
X33870Y74765D01*
X33831Y74774D01*
X33794Y74790D01*
X33676Y74809D01*
X33560Y74835D01*
X33520Y74834D01*
X33480Y74840D01*
X33361Y74829D01*
X33242Y74825D01*
X33203Y74814D01*
X33163Y74810D01*
X33051Y74770D01*
X32937Y74737D01*
X32902Y74716D01*
X32864Y74703D01*
X32765Y74636D01*
X32663Y74575D01*
X32617Y74535D01*
X32601Y74524D01*
X32587Y74509D01*
X32542Y74469D01*
X31986Y73913D01*
X18814Y73913D01*
X17779Y74948D01*
X17779Y75311D01*
X17764Y75429D01*
X17757Y75548D01*
X17744Y75586D01*
X17739Y75627D01*
X17696Y75737D01*
X17659Y75850D01*
X17637Y75885D01*
X17622Y75922D01*
X17553Y76018D01*
X17489Y76119D01*
X17459Y76147D01*
X17436Y76180D01*
X17344Y76256D01*
X17257Y76337D01*
X17222Y76357D01*
X17191Y76382D01*
X17083Y76433D01*
X16979Y76491D01*
X16939Y76501D01*
X16903Y76518D01*
X16786Y76540D01*
X16671Y76570D01*
X16611Y76574D01*
X16591Y76578D01*
X16570Y76576D01*
X16510Y76580D01*
X15494Y76580D01*
X15376Y76565D01*
X15257Y76558D01*
X15219Y76545D01*
X15178Y76540D01*
X15068Y76497D01*
X14955Y76460D01*
X14920Y76438D01*
X14883Y76423D01*
X14787Y76354D01*
X14686Y76290D01*
X14658Y76260D01*
X14625Y76237D01*
X14549Y76145D01*
X14468Y76058D01*
X14448Y76023D01*
X14423Y75992D01*
X14416Y75978D01*
X11844Y73405D01*
X8476Y73405D01*
X6095Y75786D01*
X6095Y79154D01*
X8476Y81535D01*
X11844Y81535D01*
X12615Y80763D01*
X12693Y80703D01*
X12765Y80635D01*
X12818Y80606D01*
X12866Y80569D01*
X12957Y80529D01*
X13044Y80481D01*
X13102Y80466D01*
X13158Y80442D01*
X13256Y80427D01*
X13352Y80402D01*
X13452Y80396D01*
X13472Y80392D01*
X13484Y80394D01*
X13512Y80392D01*
X16510Y80392D01*
X16628Y80407D01*
X16747Y80414D01*
X16785Y80427D01*
X16826Y80432D01*
X16936Y80475D01*
X17049Y80512D01*
X17084Y80534D01*
X17121Y80549D01*
X17217Y80618D01*
X17318Y80682D01*
X17346Y80712D01*
X17379Y80735D01*
X17455Y80827D01*
X17536Y80914D01*
X17556Y80949D01*
X17581Y80980D01*
X17632Y81088D01*
X17690Y81192D01*
X17700Y81232D01*
X17717Y81268D01*
X17739Y81385D01*
X17769Y81500D01*
X17773Y81560D01*
X17777Y81580D01*
X17775Y81601D01*
X17779Y81661D01*
X17779Y82024D01*
X18551Y82796D01*
X18624Y82890D01*
X18702Y82979D01*
X18721Y83015D01*
X18745Y83047D01*
X18793Y83156D01*
X18847Y83262D01*
X18856Y83301D01*
X18872Y83339D01*
X18891Y83456D01*
X18917Y83572D01*
X18915Y83613D01*
X18922Y83653D01*
X18911Y83771D01*
X18907Y83890D01*
X18896Y83929D01*
X18892Y83969D01*
X18852Y84081D01*
X18818Y84196D01*
X18798Y84231D01*
X18784Y84269D01*
X18717Y84367D01*
X18657Y84470D01*
X18617Y84515D01*
X18606Y84532D01*
X18590Y84545D01*
X18551Y84591D01*
X17779Y85362D01*
X17779Y92438D01*
X18551Y93210D01*
X18624Y93304D01*
X18702Y93393D01*
X18721Y93429D01*
X18745Y93461D01*
X18793Y93570D01*
X18847Y93676D01*
X18856Y93715D01*
X18872Y93753D01*
X18891Y93870D01*
X18917Y93986D01*
X18915Y94027D01*
X18922Y94067D01*
X18911Y94185D01*
X18907Y94304D01*
X18896Y94343D01*
X18892Y94383D01*
X18852Y94495D01*
X18818Y94610D01*
X18798Y94645D01*
X18784Y94683D01*
X18717Y94781D01*
X18657Y94884D01*
X18617Y94929D01*
X18606Y94946D01*
X18590Y94959D01*
X18551Y95005D01*
X17779Y95776D01*
X17779Y96139D01*
X17764Y96257D01*
X17757Y96376D01*
X17744Y96414D01*
X17739Y96455D01*
X17696Y96565D01*
X17659Y96678D01*
X17637Y96713D01*
X17622Y96750D01*
X17553Y96846D01*
X17489Y96947D01*
X17459Y96975D01*
X17436Y97008D01*
X17344Y97084D01*
X17257Y97165D01*
X17222Y97185D01*
X17191Y97210D01*
X17083Y97261D01*
X16979Y97319D01*
X16939Y97329D01*
X16903Y97346D01*
X16786Y97368D01*
X16671Y97398D01*
X16611Y97402D01*
X16591Y97406D01*
X16570Y97404D01*
X16510Y97408D01*
X11540Y97408D01*
X11472Y97446D01*
X11414Y97461D01*
X11358Y97485D01*
X11260Y97500D01*
X11165Y97525D01*
X11065Y97531D01*
X11044Y97535D01*
X11032Y97533D01*
X11004Y97535D01*
X8476Y97535D01*
X6095Y99916D01*
X6095Y103284D01*
X8476Y105665D01*
X11844Y105665D01*
X14225Y103284D01*
X14225Y102489D01*
X14240Y102371D01*
X14247Y102252D01*
X14260Y102214D01*
X14265Y102173D01*
X14308Y102063D01*
X14345Y101950D01*
X14367Y101915D01*
X14382Y101878D01*
X14451Y101782D01*
X14515Y101681D01*
X14545Y101653D01*
X14568Y101620D01*
X14660Y101544D01*
X14747Y101463D01*
X14782Y101443D01*
X14813Y101418D01*
X14921Y101367D01*
X15025Y101309D01*
X15065Y101299D01*
X15101Y101282D01*
X15218Y101260D01*
X15333Y101230D01*
X15393Y101226D01*
X15413Y101222D01*
X15434Y101224D01*
X15494Y101220D01*
X16510Y101220D01*
X16628Y101235D01*
X16747Y101242D01*
X16785Y101255D01*
X16826Y101260D01*
X16936Y101303D01*
X17049Y101340D01*
X17084Y101362D01*
X17121Y101377D01*
X17217Y101446D01*
X17318Y101510D01*
X17346Y101540D01*
X17379Y101563D01*
X17455Y101655D01*
X17536Y101742D01*
X17556Y101777D01*
X17581Y101808D01*
X17632Y101916D01*
X17690Y102020D01*
X17700Y102060D01*
X17717Y102096D01*
X17739Y102213D01*
X17769Y102328D01*
X17773Y102388D01*
X17777Y102408D01*
X17775Y102429D01*
X17779Y102489D01*
X17779Y102852D01*
X18814Y103887D01*
X27001Y103887D01*
X27139Y103904D01*
X27277Y103917D01*
X27296Y103924D01*
X27316Y103927D01*
X27445Y103978D01*
X27576Y104025D01*
X27593Y104036D01*
X27612Y104044D01*
X27724Y104125D01*
X27839Y104203D01*
X27853Y104219D01*
X27869Y104230D01*
X27958Y104338D01*
X28050Y104442D01*
X28059Y104460D01*
X28072Y104475D01*
X28131Y104601D01*
X28194Y104725D01*
X28199Y104745D01*
X28208Y104763D01*
X28234Y104900D01*
X28264Y105035D01*
X28264Y105056D01*
X28267Y105075D01*
X28259Y105214D01*
X28254Y105353D01*
X28249Y105373D01*
X28248Y105393D01*
X28205Y105525D01*
X28166Y105659D01*
X28156Y105676D01*
X28150Y105695D01*
X28075Y105813D01*
X28005Y105933D01*
X27986Y105954D01*
X27979Y105964D01*
X27964Y105978D01*
X27898Y106053D01*
X27177Y106774D01*
X27177Y110142D01*
X29558Y112523D01*
X32926Y112523D01*
X35307Y110142D01*
X35307Y108635D01*
X35324Y108497D01*
X35337Y108359D01*
X35344Y108340D01*
X35347Y108320D01*
X35398Y108191D01*
X35445Y108060D01*
X35456Y108043D01*
X35464Y108024D01*
X35545Y107912D01*
X35623Y107797D01*
X35639Y107783D01*
X35650Y107767D01*
X35758Y107678D01*
X35862Y107586D01*
X35880Y107577D01*
X35895Y107564D01*
X36021Y107505D01*
X36145Y107442D01*
X36165Y107437D01*
X36183Y107428D01*
X36320Y107402D01*
X36455Y107372D01*
X36476Y107372D01*
X36495Y107369D01*
X36634Y107377D01*
X36773Y107382D01*
X36793Y107387D01*
X36813Y107388D01*
X36945Y107431D01*
X37079Y107470D01*
X37096Y107480D01*
X37115Y107486D01*
X37233Y107561D01*
X37353Y107631D01*
X37374Y107650D01*
X37384Y107657D01*
X37398Y107672D01*
X37473Y107738D01*
X38871Y109135D01*
X38931Y109213D01*
X38999Y109285D01*
X39028Y109338D01*
X39065Y109386D01*
X39105Y109477D01*
X39153Y109564D01*
X39168Y109622D01*
X39192Y109678D01*
X39207Y109776D01*
X39232Y109872D01*
X39238Y109972D01*
X39242Y109992D01*
X39240Y110004D01*
X39242Y110032D01*
X39242Y116994D01*
X41919Y119671D01*
X41979Y119749D01*
X42047Y119821D01*
X42076Y119874D01*
X42113Y119922D01*
X42153Y120013D01*
X42201Y120100D01*
X42216Y120158D01*
X42240Y120214D01*
X42255Y120312D01*
X42280Y120407D01*
X42286Y120507D01*
X42290Y120528D01*
X42288Y120540D01*
X42290Y120568D01*
X42290Y132316D01*
X43325Y133351D01*
X50401Y133351D01*
X51173Y132579D01*
X51267Y132506D01*
X51356Y132428D01*
X51392Y132409D01*
X51424Y132385D01*
X51533Y132337D01*
X51639Y132283D01*
X51678Y132274D01*
X51716Y132258D01*
X51833Y132239D01*
X51949Y132213D01*
X51990Y132215D01*
X52030Y132208D01*
X52148Y132219D01*
X52267Y132223D01*
X52306Y132234D01*
X52346Y132238D01*
X52458Y132278D01*
X52573Y132312D01*
X52608Y132332D01*
X52646Y132346D01*
X52744Y132413D01*
X52847Y132473D01*
X52892Y132513D01*
X52909Y132524D01*
X52922Y132540D01*
X52968Y132579D01*
X53739Y133351D01*
X55096Y133351D01*
X55111Y133353D01*
X55125Y133351D01*
X55268Y133372D01*
X55412Y133391D01*
X55425Y133396D01*
X55440Y133398D01*
X55573Y133455D01*
X55707Y133508D01*
X55719Y133516D01*
X55733Y133522D01*
X55848Y133610D01*
X55965Y133694D01*
X55974Y133706D01*
X55986Y133715D01*
X56075Y133828D01*
X56167Y133939D01*
X56174Y133953D01*
X56183Y133964D01*
X56241Y134097D01*
X56303Y134227D01*
X56306Y134242D01*
X56312Y134255D01*
X56336Y134398D01*
X56363Y134539D01*
X56362Y134554D01*
X56364Y134569D01*
X56352Y134713D01*
X56343Y134857D01*
X56338Y134871D01*
X56337Y134886D01*
X56289Y135023D01*
X56245Y135159D01*
X56237Y135172D01*
X56232Y135186D01*
X56151Y135325D01*
X55931Y135655D01*
X55288Y137209D01*
X55140Y137951D01*
X61751Y137951D01*
X61751Y132941D01*
X61763Y132843D01*
X61766Y132744D01*
X61783Y132686D01*
X61791Y132625D01*
X61827Y132533D01*
X61850Y132455D01*
X61850Y120904D01*
X61865Y120786D01*
X61872Y120667D01*
X61885Y120629D01*
X61890Y120588D01*
X61933Y120478D01*
X61970Y120365D01*
X61992Y120330D01*
X62007Y120293D01*
X62076Y120197D01*
X62140Y120096D01*
X62170Y120068D01*
X62193Y120035D01*
X62285Y119959D01*
X62372Y119878D01*
X62407Y119858D01*
X62438Y119833D01*
X62546Y119782D01*
X62650Y119724D01*
X62690Y119714D01*
X62726Y119697D01*
X62843Y119675D01*
X62958Y119645D01*
X63018Y119641D01*
X63038Y119637D01*
X63059Y119639D01*
X63119Y119635D01*
X63914Y119635D01*
X66295Y117254D01*
X66295Y113886D01*
X63914Y111505D01*
X60546Y111505D01*
X58165Y113886D01*
X58165Y116840D01*
X58150Y116958D01*
X58143Y117077D01*
X58130Y117115D01*
X58125Y117156D01*
X58082Y117266D01*
X58045Y117379D01*
X58023Y117414D01*
X58008Y117451D01*
X57939Y117547D01*
X57875Y117648D01*
X57845Y117676D01*
X57822Y117709D01*
X57730Y117785D01*
X57643Y117866D01*
X57608Y117886D01*
X57577Y117911D01*
X57469Y117962D01*
X57365Y118020D01*
X57325Y118030D01*
X57289Y118047D01*
X57172Y118069D01*
X57057Y118099D01*
X56997Y118103D01*
X56977Y118107D01*
X56956Y118105D01*
X56896Y118109D01*
X53739Y118109D01*
X52968Y118881D01*
X52874Y118953D01*
X52784Y119032D01*
X52748Y119051D01*
X52716Y119075D01*
X52607Y119123D01*
X52501Y119177D01*
X52462Y119186D01*
X52424Y119202D01*
X52307Y119221D01*
X52191Y119247D01*
X52150Y119245D01*
X52110Y119252D01*
X51992Y119241D01*
X51873Y119237D01*
X51834Y119226D01*
X51794Y119222D01*
X51681Y119182D01*
X51567Y119148D01*
X51533Y119128D01*
X51494Y119114D01*
X51396Y119047D01*
X51293Y118987D01*
X51248Y118947D01*
X51231Y118936D01*
X51218Y118920D01*
X51173Y118881D01*
X50401Y118109D01*
X46273Y118109D01*
X46175Y118097D01*
X46076Y118094D01*
X46018Y118077D01*
X45958Y118069D01*
X45866Y118033D01*
X45770Y118005D01*
X45718Y117975D01*
X45662Y117952D01*
X45582Y117894D01*
X45496Y117844D01*
X45421Y117778D01*
X45405Y117766D01*
X45397Y117756D01*
X45376Y117738D01*
X43425Y115787D01*
X43365Y115709D01*
X43297Y115637D01*
X43268Y115584D01*
X43231Y115536D01*
X43191Y115445D01*
X43143Y115358D01*
X43128Y115300D01*
X43104Y115244D01*
X43089Y115146D01*
X43064Y115051D01*
X43058Y114951D01*
X43054Y114930D01*
X43056Y114918D01*
X43054Y114890D01*
X43054Y110032D01*
X43066Y109934D01*
X43069Y109835D01*
X43086Y109777D01*
X43094Y109717D01*
X43130Y109625D01*
X43158Y109530D01*
X43188Y109478D01*
X43211Y109421D01*
X43269Y109341D01*
X43319Y109256D01*
X43385Y109180D01*
X43397Y109164D01*
X43407Y109156D01*
X43425Y109135D01*
X45213Y107348D01*
X45213Y105156D01*
X45228Y105038D01*
X45235Y104919D01*
X45248Y104881D01*
X45253Y104840D01*
X45296Y104730D01*
X45333Y104617D01*
X45355Y104582D01*
X45370Y104545D01*
X45439Y104449D01*
X45503Y104348D01*
X45533Y104320D01*
X45556Y104287D01*
X45648Y104211D01*
X45735Y104130D01*
X45770Y104110D01*
X45801Y104085D01*
X45909Y104034D01*
X46013Y103976D01*
X46053Y103966D01*
X46089Y103949D01*
X46206Y103927D01*
X46321Y103897D01*
X46381Y103893D01*
X46401Y103889D01*
X46422Y103891D01*
X46482Y103887D01*
X57386Y103887D01*
X58421Y102852D01*
X58421Y102489D01*
X58436Y102371D01*
X58443Y102252D01*
X58456Y102214D01*
X58461Y102173D01*
X58504Y102063D01*
X58541Y101950D01*
X58563Y101915D01*
X58578Y101878D01*
X58647Y101782D01*
X58711Y101681D01*
X58741Y101653D01*
X58764Y101620D01*
X58856Y101544D01*
X58943Y101463D01*
X58978Y101443D01*
X59009Y101418D01*
X59117Y101367D01*
X59221Y101309D01*
X59261Y101299D01*
X59297Y101282D01*
X59414Y101260D01*
X59529Y101230D01*
X59589Y101226D01*
X59609Y101222D01*
X59630Y101224D01*
X59690Y101220D01*
X59899Y101220D01*
X59997Y101232D01*
X60096Y101235D01*
X60154Y101252D01*
X60214Y101260D01*
X60306Y101296D01*
X60402Y101324D01*
X60454Y101354D01*
X60510Y101377D01*
X60590Y101435D01*
X60676Y101485D01*
X60751Y101551D01*
X60767Y101563D01*
X60775Y101573D01*
X60796Y101591D01*
X61604Y102399D01*
X61664Y102477D01*
X61732Y102549D01*
X61761Y102602D01*
X61798Y102650D01*
X61838Y102741D01*
X61886Y102828D01*
X61901Y102886D01*
X61925Y102942D01*
X61940Y103040D01*
X61965Y103135D01*
X61971Y103235D01*
X61975Y103256D01*
X61973Y103268D01*
X61975Y103296D01*
X61975Y105824D01*
X64356Y108205D01*
X67724Y108205D01*
X70105Y105824D01*
X70105Y102456D01*
X67724Y100075D01*
X65196Y100075D01*
X65098Y100063D01*
X64999Y100060D01*
X64941Y100043D01*
X64881Y100035D01*
X64789Y99999D01*
X64693Y99971D01*
X64641Y99941D01*
X64585Y99918D01*
X64505Y99860D01*
X64419Y99810D01*
X64344Y99744D01*
X64328Y99732D01*
X64320Y99722D01*
X64299Y99704D01*
X62003Y97408D01*
X59690Y97408D01*
X59572Y97393D01*
X59453Y97386D01*
X59415Y97373D01*
X59374Y97368D01*
X59264Y97325D01*
X59151Y97288D01*
X59116Y97266D01*
X59079Y97251D01*
X58983Y97182D01*
X58882Y97118D01*
X58854Y97088D01*
X58821Y97065D01*
X58745Y96973D01*
X58664Y96886D01*
X58644Y96851D01*
X58619Y96820D01*
X58568Y96712D01*
X58510Y96608D01*
X58500Y96568D01*
X58483Y96532D01*
X58461Y96415D01*
X58431Y96300D01*
X58427Y96240D01*
X58423Y96220D01*
X58425Y96199D01*
X58421Y96139D01*
X58421Y95776D01*
X57649Y95005D01*
X57577Y94911D01*
X57498Y94821D01*
X57479Y94785D01*
X57455Y94753D01*
X57407Y94644D01*
X57353Y94538D01*
X57344Y94499D01*
X57328Y94461D01*
X57309Y94344D01*
X57283Y94228D01*
X57285Y94187D01*
X57278Y94147D01*
X57289Y94029D01*
X57293Y93910D01*
X57304Y93871D01*
X57308Y93831D01*
X57348Y93718D01*
X57382Y93604D01*
X57402Y93570D01*
X57416Y93531D01*
X57483Y93433D01*
X57543Y93330D01*
X57583Y93285D01*
X57594Y93268D01*
X57610Y93255D01*
X57649Y93210D01*
X58421Y92438D01*
X58421Y85362D01*
X57649Y84590D01*
X57576Y84496D01*
X57498Y84407D01*
X57479Y84371D01*
X57455Y84339D01*
X57407Y84230D01*
X57353Y84124D01*
X57344Y84085D01*
X57328Y84047D01*
X57309Y83930D01*
X57283Y83814D01*
X57285Y83773D01*
X57278Y83733D01*
X57289Y83615D01*
X57293Y83496D01*
X57304Y83457D01*
X57308Y83417D01*
X57348Y83305D01*
X57382Y83190D01*
X57402Y83155D01*
X57416Y83117D01*
X57483Y83019D01*
X57543Y82916D01*
X57583Y82871D01*
X57594Y82854D01*
X57610Y82841D01*
X57649Y82795D01*
X58421Y82024D01*
X58421Y81661D01*
X58436Y81543D01*
X58443Y81424D01*
X58456Y81386D01*
X58461Y81345D01*
X58504Y81235D01*
X58541Y81122D01*
X58563Y81087D01*
X58578Y81050D01*
X58647Y80954D01*
X58711Y80853D01*
X58741Y80825D01*
X58764Y80792D01*
X58856Y80716D01*
X58943Y80635D01*
X58978Y80615D01*
X59009Y80590D01*
X59117Y80539D01*
X59221Y80481D01*
X59261Y80471D01*
X59297Y80454D01*
X59414Y80432D01*
X59529Y80402D01*
X59589Y80398D01*
X59609Y80394D01*
X59630Y80396D01*
X59690Y80392D01*
X61241Y80392D01*
X63537Y78096D01*
X63615Y78036D01*
X63687Y77968D01*
X63740Y77939D01*
X63788Y77902D01*
X63879Y77862D01*
X63966Y77814D01*
X64024Y77799D01*
X64080Y77775D01*
X64178Y77760D01*
X64273Y77735D01*
X64373Y77729D01*
X64394Y77725D01*
X64406Y77727D01*
X64434Y77725D01*
X66962Y77725D01*
X69343Y75344D01*
X69343Y71976D01*
X66962Y69595D01*
X63594Y69595D01*
G37*
%LPD*%
G36*
X63335Y2803D02*
X63335Y2803D01*
X63405Y2802D01*
X63492Y2823D01*
X63581Y2835D01*
X63646Y2860D01*
X63714Y2877D01*
X63794Y2919D01*
X63877Y2952D01*
X63933Y2993D01*
X63995Y3025D01*
X64062Y3086D01*
X64134Y3138D01*
X64179Y3192D01*
X64231Y3239D01*
X64280Y3314D01*
X64337Y3383D01*
X64367Y3447D01*
X64405Y3505D01*
X64435Y3590D01*
X64473Y3671D01*
X64486Y3740D01*
X64509Y3806D01*
X64516Y3895D01*
X64532Y3983D01*
X64528Y4053D01*
X64534Y4123D01*
X64518Y4211D01*
X64513Y4301D01*
X64491Y4367D01*
X64479Y4436D01*
X64442Y4518D01*
X64415Y4603D01*
X64377Y4662D01*
X64349Y4726D01*
X64293Y4796D01*
X64245Y4872D01*
X64194Y4920D01*
X64150Y4975D01*
X64078Y5029D01*
X64013Y5090D01*
X63952Y5124D01*
X63896Y5166D01*
X63804Y5211D01*
X62368Y6647D01*
X61594Y8514D01*
X61594Y10536D01*
X61672Y10724D01*
X61680Y10753D01*
X61694Y10779D01*
X61722Y10906D01*
X61756Y11031D01*
X61757Y11061D01*
X61763Y11089D01*
X61759Y11219D01*
X61761Y11349D01*
X61755Y11378D01*
X61754Y11407D01*
X61718Y11532D01*
X61687Y11658D01*
X61673Y11684D01*
X61665Y11713D01*
X61599Y11824D01*
X61539Y11939D01*
X61519Y11961D01*
X61504Y11987D01*
X61397Y12108D01*
X51434Y22071D01*
X51434Y35002D01*
X51422Y35100D01*
X51419Y35199D01*
X51402Y35257D01*
X51394Y35317D01*
X51358Y35409D01*
X51330Y35504D01*
X51300Y35556D01*
X51277Y35613D01*
X51219Y35693D01*
X51169Y35778D01*
X51103Y35854D01*
X51091Y35870D01*
X51081Y35878D01*
X51063Y35899D01*
X49157Y37804D01*
X49063Y37877D01*
X48974Y37956D01*
X48938Y37974D01*
X48906Y37999D01*
X48797Y38046D01*
X48691Y38100D01*
X48652Y38109D01*
X48614Y38125D01*
X48497Y38144D01*
X48381Y38170D01*
X48340Y38169D01*
X48300Y38175D01*
X48182Y38164D01*
X48063Y38160D01*
X48024Y38149D01*
X47984Y38145D01*
X47872Y38105D01*
X47757Y38072D01*
X47722Y38052D01*
X47684Y38038D01*
X47586Y37971D01*
X47483Y37910D01*
X47438Y37871D01*
X47421Y37859D01*
X47408Y37844D01*
X47362Y37804D01*
X45457Y35899D01*
X45397Y35821D01*
X45329Y35749D01*
X45300Y35696D01*
X45263Y35648D01*
X45223Y35557D01*
X45175Y35470D01*
X45160Y35412D01*
X45136Y35356D01*
X45121Y35258D01*
X45096Y35162D01*
X45090Y35062D01*
X45086Y35042D01*
X45088Y35030D01*
X45086Y35002D01*
X45086Y15872D01*
X45092Y15822D01*
X45090Y15771D01*
X45112Y15664D01*
X45115Y15643D01*
X45115Y15638D01*
X45115Y15636D01*
X45126Y15557D01*
X45144Y15509D01*
X45155Y15460D01*
X45203Y15362D01*
X45213Y15337D01*
X45213Y15336D01*
X45213Y15335D01*
X45243Y15261D01*
X45272Y15220D01*
X45295Y15174D01*
X45366Y15092D01*
X45381Y15071D01*
X45383Y15067D01*
X45384Y15066D01*
X45429Y15004D01*
X45469Y14971D01*
X45502Y14933D01*
X45591Y14870D01*
X45604Y14859D01*
X45615Y14849D01*
X45619Y14847D01*
X45674Y14801D01*
X45720Y14779D01*
X45762Y14750D01*
X45864Y14711D01*
X45865Y14711D01*
X45893Y14695D01*
X45904Y14693D01*
X45962Y14665D01*
X46012Y14656D01*
X46060Y14638D01*
X46159Y14627D01*
X46201Y14616D01*
X46229Y14614D01*
X46274Y14605D01*
X46321Y14608D01*
X46336Y14607D01*
X46376Y14603D01*
X46395Y14606D01*
X48636Y14606D01*
X50503Y13832D01*
X51932Y12403D01*
X52706Y10536D01*
X52706Y8514D01*
X51932Y6647D01*
X50487Y5202D01*
X50423Y5176D01*
X50350Y5124D01*
X50272Y5079D01*
X50222Y5031D01*
X50166Y4990D01*
X50108Y4920D01*
X50044Y4858D01*
X50007Y4798D01*
X49963Y4745D01*
X49925Y4663D01*
X49878Y4587D01*
X49857Y4520D01*
X49827Y4457D01*
X49810Y4369D01*
X49784Y4283D01*
X49781Y4213D01*
X49768Y4144D01*
X49773Y4055D01*
X49769Y3965D01*
X49783Y3897D01*
X49787Y3827D01*
X49815Y3742D01*
X49833Y3654D01*
X49864Y3591D01*
X49885Y3525D01*
X49933Y3449D01*
X49973Y3368D01*
X50018Y3315D01*
X50055Y3256D01*
X50121Y3194D01*
X50179Y3126D01*
X50236Y3086D01*
X50287Y3038D01*
X50366Y2995D01*
X50439Y2943D01*
X50504Y2918D01*
X50566Y2884D01*
X50653Y2862D01*
X50736Y2830D01*
X50806Y2822D01*
X50874Y2805D01*
X51034Y2795D01*
X63266Y2795D01*
X63335Y2803D01*
G37*
G36*
X44285Y2803D02*
X44285Y2803D01*
X44355Y2802D01*
X44442Y2823D01*
X44531Y2835D01*
X44596Y2860D01*
X44664Y2877D01*
X44744Y2919D01*
X44827Y2952D01*
X44883Y2993D01*
X44945Y3025D01*
X45012Y3086D01*
X45084Y3138D01*
X45129Y3192D01*
X45181Y3239D01*
X45230Y3314D01*
X45287Y3383D01*
X45317Y3447D01*
X45355Y3505D01*
X45385Y3590D01*
X45423Y3671D01*
X45436Y3740D01*
X45459Y3806D01*
X45466Y3895D01*
X45482Y3983D01*
X45478Y4053D01*
X45484Y4123D01*
X45468Y4211D01*
X45463Y4301D01*
X45441Y4367D01*
X45429Y4436D01*
X45392Y4518D01*
X45365Y4603D01*
X45327Y4662D01*
X45299Y4726D01*
X45243Y4796D01*
X45195Y4872D01*
X45144Y4920D01*
X45100Y4975D01*
X45028Y5029D01*
X44963Y5090D01*
X44902Y5124D01*
X44846Y5166D01*
X44754Y5211D01*
X43318Y6647D01*
X42544Y8514D01*
X42544Y10536D01*
X42622Y10724D01*
X42630Y10753D01*
X42644Y10779D01*
X42672Y10906D01*
X42706Y11031D01*
X42707Y11061D01*
X42713Y11089D01*
X42709Y11219D01*
X42711Y11349D01*
X42705Y11378D01*
X42704Y11407D01*
X42668Y11532D01*
X42637Y11658D01*
X42623Y11684D01*
X42615Y11713D01*
X42549Y11825D01*
X42489Y11939D01*
X42469Y11961D01*
X42454Y11987D01*
X42347Y12108D01*
X41274Y13181D01*
X41274Y35002D01*
X41262Y35100D01*
X41259Y35199D01*
X41242Y35257D01*
X41234Y35317D01*
X41198Y35409D01*
X41170Y35504D01*
X41140Y35556D01*
X41117Y35613D01*
X41059Y35693D01*
X41009Y35778D01*
X40943Y35854D01*
X40931Y35870D01*
X40921Y35878D01*
X40903Y35899D01*
X38997Y37804D01*
X38903Y37877D01*
X38814Y37956D01*
X38778Y37974D01*
X38746Y37999D01*
X38637Y38046D01*
X38531Y38100D01*
X38492Y38109D01*
X38454Y38125D01*
X38337Y38144D01*
X38221Y38170D01*
X38180Y38169D01*
X38140Y38175D01*
X38022Y38164D01*
X37903Y38160D01*
X37864Y38149D01*
X37824Y38145D01*
X37712Y38105D01*
X37597Y38072D01*
X37562Y38052D01*
X37524Y38038D01*
X37426Y37971D01*
X37323Y37910D01*
X37278Y37871D01*
X37261Y37859D01*
X37248Y37844D01*
X37202Y37804D01*
X35297Y35899D01*
X35237Y35821D01*
X35169Y35749D01*
X35140Y35696D01*
X35103Y35648D01*
X35063Y35557D01*
X35015Y35470D01*
X35000Y35412D01*
X34976Y35356D01*
X34961Y35258D01*
X34936Y35162D01*
X34930Y35062D01*
X34926Y35042D01*
X34928Y35030D01*
X34926Y35002D01*
X34926Y13181D01*
X33853Y12108D01*
X33835Y12084D01*
X33812Y12065D01*
X33737Y11959D01*
X33658Y11856D01*
X33646Y11829D01*
X33629Y11805D01*
X33583Y11684D01*
X33531Y11564D01*
X33527Y11535D01*
X33516Y11508D01*
X33502Y11379D01*
X33482Y11250D01*
X33484Y11221D01*
X33481Y11192D01*
X33499Y11063D01*
X33511Y10934D01*
X33521Y10906D01*
X33526Y10877D01*
X33578Y10724D01*
X33656Y10536D01*
X33656Y8514D01*
X32882Y6647D01*
X31437Y5202D01*
X31373Y5176D01*
X31300Y5124D01*
X31222Y5079D01*
X31172Y5031D01*
X31116Y4990D01*
X31058Y4920D01*
X30994Y4858D01*
X30957Y4798D01*
X30913Y4745D01*
X30875Y4663D01*
X30828Y4587D01*
X30807Y4520D01*
X30777Y4457D01*
X30760Y4369D01*
X30734Y4283D01*
X30731Y4213D01*
X30718Y4144D01*
X30723Y4055D01*
X30719Y3965D01*
X30733Y3897D01*
X30737Y3827D01*
X30765Y3742D01*
X30783Y3654D01*
X30814Y3591D01*
X30835Y3525D01*
X30883Y3449D01*
X30923Y3368D01*
X30968Y3315D01*
X31005Y3256D01*
X31071Y3194D01*
X31129Y3126D01*
X31186Y3086D01*
X31237Y3038D01*
X31316Y2995D01*
X31389Y2943D01*
X31454Y2918D01*
X31516Y2884D01*
X31603Y2862D01*
X31686Y2830D01*
X31756Y2822D01*
X31824Y2805D01*
X31984Y2795D01*
X44216Y2795D01*
X44285Y2803D01*
G37*
%LPC*%
G36*
X11254Y132429D02*
X11254Y132429D01*
X8581Y133536D01*
X6536Y135581D01*
X5429Y138254D01*
X5429Y141146D01*
X6536Y143819D01*
X8581Y145864D01*
X11254Y146971D01*
X14146Y146971D01*
X16819Y145864D01*
X18864Y143819D01*
X19971Y141146D01*
X19971Y138254D01*
X18864Y135581D01*
X16819Y133536D01*
X14146Y132429D01*
X11254Y132429D01*
G37*
%LPD*%
G36*
X34348Y77913D02*
X34348Y77913D01*
X34487Y77918D01*
X34507Y77923D01*
X34527Y77924D01*
X34659Y77967D01*
X34793Y78006D01*
X34810Y78016D01*
X34829Y78022D01*
X34947Y78097D01*
X35067Y78167D01*
X35088Y78186D01*
X35098Y78193D01*
X35112Y78208D01*
X35187Y78274D01*
X36331Y79417D01*
X36391Y79495D01*
X36459Y79567D01*
X36488Y79620D01*
X36525Y79668D01*
X36565Y79759D01*
X36613Y79846D01*
X36628Y79904D01*
X36652Y79960D01*
X36667Y80058D01*
X36692Y80154D01*
X36698Y80254D01*
X36702Y80274D01*
X36700Y80286D01*
X36702Y80314D01*
X36702Y81307D01*
X38190Y82795D01*
X42808Y87413D01*
X42868Y87491D01*
X42936Y87563D01*
X42965Y87616D01*
X43002Y87664D01*
X43042Y87755D01*
X43090Y87841D01*
X43105Y87900D01*
X43129Y87956D01*
X43144Y88054D01*
X43169Y88149D01*
X43175Y88249D01*
X43179Y88270D01*
X43177Y88282D01*
X43179Y88310D01*
X43179Y90098D01*
X43167Y90196D01*
X43164Y90295D01*
X43147Y90353D01*
X43139Y90413D01*
X43103Y90505D01*
X43075Y90601D01*
X43045Y90653D01*
X43022Y90709D01*
X42964Y90789D01*
X42914Y90874D01*
X42848Y90950D01*
X42836Y90966D01*
X42826Y90974D01*
X42808Y90995D01*
X42431Y91371D01*
X42431Y91372D01*
X39242Y94561D01*
X39242Y101296D01*
X39230Y101394D01*
X39227Y101493D01*
X39210Y101551D01*
X39202Y101611D01*
X39166Y101703D01*
X39138Y101798D01*
X39108Y101851D01*
X39085Y101907D01*
X39027Y101987D01*
X38977Y102072D01*
X38911Y102148D01*
X38899Y102164D01*
X38889Y102172D01*
X38871Y102193D01*
X37854Y103209D01*
X37745Y103294D01*
X37638Y103383D01*
X37619Y103392D01*
X37603Y103404D01*
X37476Y103459D01*
X37350Y103519D01*
X37330Y103522D01*
X37311Y103530D01*
X37173Y103552D01*
X37037Y103578D01*
X37017Y103577D01*
X36997Y103580D01*
X36858Y103567D01*
X36720Y103559D01*
X36701Y103552D01*
X36681Y103550D01*
X36549Y103503D01*
X36418Y103461D01*
X36400Y103450D01*
X36381Y103443D01*
X36266Y103365D01*
X36149Y103290D01*
X36135Y103276D01*
X36118Y103264D01*
X36026Y103160D01*
X35931Y103059D01*
X35921Y103041D01*
X35908Y103026D01*
X35845Y102902D01*
X35777Y102780D01*
X35772Y102761D01*
X35763Y102743D01*
X35733Y102607D01*
X35698Y102472D01*
X35696Y102444D01*
X35693Y102432D01*
X35694Y102412D01*
X35688Y102312D01*
X35688Y92683D01*
X33392Y90387D01*
X33332Y90309D01*
X33264Y90237D01*
X33235Y90184D01*
X33198Y90136D01*
X33158Y90045D01*
X33110Y89958D01*
X33095Y89900D01*
X33071Y89844D01*
X33056Y89746D01*
X33031Y89651D01*
X33025Y89551D01*
X33021Y89530D01*
X33023Y89518D01*
X33021Y89490D01*
X33021Y85362D01*
X32249Y84591D01*
X32177Y84497D01*
X32098Y84407D01*
X32079Y84371D01*
X32055Y84339D01*
X32007Y84230D01*
X31953Y84124D01*
X31944Y84085D01*
X31928Y84047D01*
X31909Y83930D01*
X31883Y83814D01*
X31885Y83773D01*
X31878Y83733D01*
X31889Y83615D01*
X31893Y83496D01*
X31904Y83457D01*
X31908Y83417D01*
X31948Y83304D01*
X31982Y83190D01*
X32002Y83156D01*
X32016Y83117D01*
X32083Y83019D01*
X32143Y82916D01*
X32183Y82871D01*
X32194Y82854D01*
X32210Y82841D01*
X32249Y82796D01*
X33021Y82024D01*
X33021Y79171D01*
X33038Y79033D01*
X33051Y78895D01*
X33058Y78876D01*
X33061Y78856D01*
X33112Y78727D01*
X33159Y78596D01*
X33170Y78579D01*
X33178Y78560D01*
X33259Y78448D01*
X33337Y78333D01*
X33353Y78319D01*
X33364Y78303D01*
X33472Y78214D01*
X33576Y78122D01*
X33594Y78113D01*
X33609Y78100D01*
X33735Y78041D01*
X33859Y77978D01*
X33879Y77973D01*
X33897Y77964D01*
X34034Y77938D01*
X34169Y77908D01*
X34190Y77908D01*
X34209Y77905D01*
X34348Y77913D01*
G37*
G36*
X52089Y76530D02*
X52089Y76530D01*
X52111Y76534D01*
X52118Y76549D01*
X52127Y76555D01*
X52126Y76565D01*
X52133Y76581D01*
X52133Y101219D01*
X52121Y101238D01*
X52117Y101260D01*
X52102Y101267D01*
X52096Y101276D01*
X52086Y101275D01*
X52070Y101282D01*
X49530Y101282D01*
X49511Y101270D01*
X49489Y101266D01*
X49482Y101251D01*
X49473Y101245D01*
X49474Y101235D01*
X49467Y101219D01*
X49467Y76581D01*
X49479Y76562D01*
X49483Y76540D01*
X49498Y76533D01*
X49504Y76524D01*
X49514Y76525D01*
X49530Y76518D01*
X52070Y76518D01*
X52089Y76530D01*
G37*
G36*
X26689Y76530D02*
X26689Y76530D01*
X26711Y76534D01*
X26718Y76549D01*
X26727Y76555D01*
X26726Y76565D01*
X26733Y76581D01*
X26733Y90805D01*
X26721Y90824D01*
X26717Y90846D01*
X26702Y90853D01*
X26696Y90862D01*
X26686Y90861D01*
X26670Y90868D01*
X24130Y90868D01*
X24111Y90856D01*
X24089Y90852D01*
X24082Y90837D01*
X24073Y90831D01*
X24074Y90821D01*
X24067Y90805D01*
X24067Y76581D01*
X24079Y76562D01*
X24083Y76540D01*
X24098Y76533D01*
X24104Y76524D01*
X24114Y76525D01*
X24130Y76518D01*
X26670Y76518D01*
X26689Y76530D01*
G37*
G36*
X59074Y124409D02*
X59074Y124409D01*
X59096Y124413D01*
X59103Y124428D01*
X59112Y124434D01*
X59111Y124444D01*
X59118Y124460D01*
X59118Y127000D01*
X59106Y127019D01*
X59102Y127041D01*
X59087Y127048D01*
X59081Y127057D01*
X59071Y127056D01*
X59055Y127063D01*
X45085Y127063D01*
X45066Y127051D01*
X45044Y127047D01*
X45037Y127032D01*
X45028Y127026D01*
X45029Y127016D01*
X45022Y127000D01*
X45022Y124460D01*
X45034Y124441D01*
X45038Y124419D01*
X45053Y124412D01*
X45059Y124403D01*
X45069Y124404D01*
X45085Y124397D01*
X59055Y124397D01*
X59074Y124409D01*
G37*
%LPC*%
G36*
X55140Y141449D02*
X55140Y141449D01*
X55288Y142191D01*
X55931Y143746D01*
X56866Y145144D01*
X58056Y146334D01*
X59454Y147269D01*
X61009Y147912D01*
X61751Y148060D01*
X61751Y141449D01*
X55140Y141449D01*
G37*
%LPD*%
%LPC*%
G36*
X11429Y11429D02*
X11429Y11429D01*
X11429Y15610D01*
X12533Y15153D01*
X13573Y14458D01*
X14458Y13573D01*
X15153Y12533D01*
X15610Y11429D01*
X11429Y11429D01*
G37*
%LPD*%
D10*
X4100Y181779D02*
X5567Y186182D01*
X7035Y181779D01*
X10316Y181046D02*
X12151Y179578D01*
X12151Y186182D01*
X13985Y186182D02*
X10316Y186182D01*
X17632Y182880D02*
X17634Y182735D01*
X17640Y182590D01*
X17649Y182445D01*
X17663Y182300D01*
X17680Y182156D01*
X17702Y182013D01*
X17727Y181869D01*
X17756Y181727D01*
X17788Y181586D01*
X17825Y181445D01*
X17865Y181306D01*
X17909Y181167D01*
X17956Y181030D01*
X18007Y180894D01*
X18062Y180760D01*
X18120Y180627D01*
X18182Y180495D01*
X18181Y180496D02*
X18207Y180427D01*
X18236Y180360D01*
X18269Y180294D01*
X18305Y180231D01*
X18345Y180169D01*
X18388Y180110D01*
X18434Y180053D01*
X18483Y179999D01*
X18535Y179947D01*
X18590Y179898D01*
X18647Y179853D01*
X18707Y179810D01*
X18769Y179771D01*
X18832Y179735D01*
X18898Y179702D01*
X18965Y179674D01*
X19034Y179648D01*
X19104Y179627D01*
X19175Y179609D01*
X19247Y179596D01*
X19320Y179586D01*
X19393Y179580D01*
X19466Y179578D01*
X19539Y179580D01*
X19612Y179586D01*
X19685Y179596D01*
X19757Y179609D01*
X19828Y179627D01*
X19898Y179648D01*
X19966Y179674D01*
X20034Y179702D01*
X20099Y179735D01*
X20163Y179771D01*
X20225Y179810D01*
X20284Y179852D01*
X20341Y179898D01*
X20396Y179947D01*
X20448Y179998D01*
X20497Y180053D01*
X20543Y180110D01*
X20586Y180169D01*
X20626Y180230D01*
X20662Y180294D01*
X20695Y180359D01*
X20724Y180426D01*
X20750Y180495D01*
X20812Y180627D01*
X20870Y180760D01*
X20925Y180894D01*
X20976Y181030D01*
X21023Y181167D01*
X21067Y181306D01*
X21107Y181445D01*
X21144Y181586D01*
X21176Y181727D01*
X21205Y181869D01*
X21230Y182012D01*
X21252Y182156D01*
X21269Y182300D01*
X21283Y182445D01*
X21292Y182590D01*
X21298Y182735D01*
X21300Y182880D01*
X17632Y182880D02*
X17634Y183025D01*
X17640Y183170D01*
X17649Y183315D01*
X17663Y183460D01*
X17680Y183604D01*
X17702Y183747D01*
X17727Y183891D01*
X17756Y184033D01*
X17788Y184174D01*
X17825Y184315D01*
X17865Y184454D01*
X17909Y184593D01*
X17956Y184730D01*
X18007Y184866D01*
X18062Y185000D01*
X18120Y185133D01*
X18182Y185265D01*
X18181Y185264D02*
X18207Y185333D01*
X18236Y185400D01*
X18269Y185466D01*
X18305Y185529D01*
X18345Y185591D01*
X18388Y185650D01*
X18434Y185707D01*
X18483Y185761D01*
X18535Y185813D01*
X18590Y185862D01*
X18647Y185907D01*
X18707Y185950D01*
X18769Y185989D01*
X18832Y186025D01*
X18898Y186058D01*
X18965Y186086D01*
X19034Y186112D01*
X19104Y186133D01*
X19175Y186151D01*
X19247Y186164D01*
X19320Y186174D01*
X19393Y186180D01*
X19466Y186182D01*
X20750Y185265D02*
X20812Y185133D01*
X20870Y185000D01*
X20925Y184866D01*
X20976Y184730D01*
X21023Y184593D01*
X21067Y184454D01*
X21107Y184315D01*
X21144Y184174D01*
X21176Y184033D01*
X21205Y183891D01*
X21230Y183748D01*
X21252Y183604D01*
X21269Y183460D01*
X21283Y183315D01*
X21292Y183170D01*
X21298Y183025D01*
X21300Y182880D01*
X20750Y185265D02*
X20724Y185334D01*
X20695Y185401D01*
X20662Y185466D01*
X20626Y185530D01*
X20586Y185591D01*
X20543Y185650D01*
X20497Y185707D01*
X20448Y185762D01*
X20396Y185813D01*
X20341Y185862D01*
X20284Y185908D01*
X20225Y185950D01*
X20163Y185989D01*
X20099Y186025D01*
X20034Y186058D01*
X19966Y186086D01*
X19898Y186112D01*
X19828Y186133D01*
X19756Y186151D01*
X19685Y186164D01*
X19612Y186174D01*
X19539Y186180D01*
X19466Y186182D01*
X17998Y184714D02*
X20934Y181046D01*
D11*
X69850Y184150D03*
X6350Y57150D03*
D12*
X12700Y139700D03*
X63500Y139700D03*
D13*
X9525Y9525D03*
X28575Y9525D03*
X47625Y9525D03*
X66675Y9525D03*
D14*
X60084Y131585D02*
X54470Y131585D01*
X60084Y131585D02*
X60084Y119875D01*
X54470Y119875D01*
X54470Y131585D01*
X54470Y120816D02*
X60084Y120816D01*
X60084Y121757D02*
X54470Y121757D01*
X54470Y122698D02*
X60084Y122698D01*
X60084Y123639D02*
X54470Y123639D01*
X54470Y124580D02*
X60084Y124580D01*
X60084Y125521D02*
X54470Y125521D01*
X54470Y126462D02*
X60084Y126462D01*
X60084Y127403D02*
X54470Y127403D01*
X54470Y128344D02*
X60084Y128344D01*
X60084Y129285D02*
X54470Y129285D01*
X54470Y130226D02*
X60084Y130226D01*
X60084Y131167D02*
X54470Y131167D01*
X49670Y131585D02*
X44056Y131585D01*
X49670Y131585D02*
X49670Y119875D01*
X44056Y119875D01*
X44056Y131585D01*
X44056Y120816D02*
X49670Y120816D01*
X49670Y121757D02*
X44056Y121757D01*
X44056Y122698D02*
X49670Y122698D01*
X49670Y123639D02*
X44056Y123639D01*
X44056Y124580D02*
X49670Y124580D01*
X49670Y125521D02*
X44056Y125521D01*
X44056Y126462D02*
X49670Y126462D01*
X49670Y127403D02*
X44056Y127403D01*
X44056Y128344D02*
X49670Y128344D01*
X49670Y129285D02*
X44056Y129285D01*
X44056Y130226D02*
X49670Y130226D01*
X49670Y131167D02*
X44056Y131167D01*
X56655Y81293D02*
X56655Y75679D01*
X44945Y75679D01*
X44945Y81293D01*
X56655Y81293D01*
X56655Y76620D02*
X44945Y76620D01*
X44945Y77561D02*
X56655Y77561D01*
X56655Y78502D02*
X44945Y78502D01*
X44945Y79443D02*
X56655Y79443D01*
X56655Y80384D02*
X44945Y80384D01*
X56655Y86093D02*
X56655Y91707D01*
X56655Y86093D02*
X44945Y86093D01*
X44945Y91707D01*
X56655Y91707D01*
X56655Y87034D02*
X44945Y87034D01*
X44945Y87975D02*
X56655Y87975D01*
X56655Y88916D02*
X44945Y88916D01*
X44945Y89857D02*
X56655Y89857D01*
X56655Y90798D02*
X44945Y90798D01*
X56655Y96507D02*
X56655Y102121D01*
X56655Y96507D02*
X44945Y96507D01*
X44945Y102121D01*
X56655Y102121D01*
X56655Y97448D02*
X44945Y97448D01*
X44945Y98389D02*
X56655Y98389D01*
X56655Y99330D02*
X44945Y99330D01*
X44945Y100271D02*
X56655Y100271D01*
X56655Y101212D02*
X44945Y101212D01*
X19545Y102121D02*
X19545Y96507D01*
X19545Y102121D02*
X31255Y102121D01*
X31255Y96507D01*
X19545Y96507D01*
X19545Y97448D02*
X31255Y97448D01*
X31255Y98389D02*
X19545Y98389D01*
X19545Y99330D02*
X31255Y99330D01*
X31255Y100271D02*
X19545Y100271D01*
X19545Y101212D02*
X31255Y101212D01*
X19545Y91707D02*
X19545Y86093D01*
X19545Y91707D02*
X31255Y91707D01*
X31255Y86093D01*
X19545Y86093D01*
X19545Y87034D02*
X31255Y87034D01*
X31255Y87975D02*
X19545Y87975D01*
X19545Y88916D02*
X31255Y88916D01*
X31255Y89857D02*
X19545Y89857D01*
X19545Y90798D02*
X31255Y90798D01*
X19545Y81293D02*
X19545Y75679D01*
X19545Y81293D02*
X31255Y81293D01*
X31255Y75679D01*
X19545Y75679D01*
X19545Y76620D02*
X31255Y76620D01*
X31255Y77561D02*
X19545Y77561D01*
X19545Y78502D02*
X31255Y78502D01*
X31255Y79443D02*
X19545Y79443D01*
X19545Y80384D02*
X31255Y80384D01*
D15*
X38608Y75946D03*
D16*
X38608Y80518D02*
X46990Y88900D01*
X38608Y80518D02*
X38608Y75946D01*
D15*
X33020Y39370D03*
D16*
X33020Y13970D01*
X28575Y9525D01*
X46990Y88900D02*
X50800Y88900D01*
X47598Y88900D01*
X42849Y93649D01*
X46863Y121920D02*
X46863Y125730D01*
D15*
X41148Y105664D03*
D16*
X41148Y95350D02*
X42849Y93649D01*
X41148Y95350D02*
X41148Y105664D01*
X41148Y116205D01*
X46863Y121920D01*
X10369Y9525D02*
X9525Y9525D01*
D15*
X22860Y39370D03*
X38100Y12700D03*
X20320Y12700D03*
X55880Y12700D03*
X43180Y62230D03*
X65479Y85090D03*
X17780Y123190D03*
X69850Y97790D03*
X69850Y63500D03*
X48260Y34290D03*
X7620Y114300D03*
X38100Y88900D03*
D16*
X36322Y90678D01*
X36322Y114554D01*
X38100Y88900D02*
X38100Y83602D01*
X33671Y70501D02*
X33020Y69850D01*
X33671Y79173D02*
X38100Y83602D01*
X33671Y79173D02*
X33671Y70501D01*
D15*
X58420Y66040D03*
X25400Y63500D03*
X11430Y88900D03*
X51054Y108458D03*
X43180Y39370D03*
D16*
X43180Y13970D01*
X47625Y9525D01*
D15*
X53340Y39370D03*
D16*
X53340Y22860D01*
X66675Y9525D01*
D15*
X31242Y108458D03*
D16*
X29210Y88900D02*
X25400Y88900D01*
X29210Y88900D02*
X33782Y93472D01*
X33782Y105918D02*
X31242Y108458D01*
X33782Y105918D02*
X33782Y93472D01*
D15*
X62230Y115570D03*
D16*
X62230Y116967D01*
X57277Y121920D01*
X57277Y125730D01*
D15*
X65278Y73660D03*
D16*
X60452Y78486D01*
X50800Y78486D01*
D15*
X66040Y104140D03*
D16*
X61214Y99314D01*
X50800Y99314D01*
D15*
X10160Y77470D03*
D16*
X11176Y78486D01*
X25400Y78486D01*
D15*
X10160Y101600D03*
D16*
X12446Y99314D01*
X25400Y99314D01*
M02*
