G04 EAGLE Gerber RS-274X export*
G75*
%MOMM*%
%FSLAX34Y34*%
%LPD*%
%INSoldermask Top*%
%IPPOS*%
%AMOC8*
5,1,8,0,0,1.08239X$1,22.5*%
G01*
%ADD10C,0.762000*%
%ADD11C,3.429000*%
%ADD12C,0.225588*%
%ADD13C,0.225369*%
%ADD14C,1.327000*%
%ADD15C,0.229969*%


D10*
X69850Y184150D03*
X6350Y57150D03*
D11*
X38100Y165100D03*
D12*
X15607Y4543D02*
X4593Y4543D01*
X4593Y23557D01*
X15607Y23557D01*
X15607Y4543D01*
X15607Y6686D02*
X4593Y6686D01*
X4593Y8829D02*
X15607Y8829D01*
X15607Y10972D02*
X4593Y10972D01*
X4593Y13115D02*
X15607Y13115D01*
X15607Y15258D02*
X4593Y15258D01*
X4593Y17401D02*
X15607Y17401D01*
X15607Y19544D02*
X4593Y19544D01*
X4593Y21687D02*
X15607Y21687D01*
X60593Y4543D02*
X71607Y4543D01*
X60593Y4543D02*
X60593Y23557D01*
X71607Y23557D01*
X71607Y4543D01*
X71607Y6686D02*
X60593Y6686D01*
X60593Y8829D02*
X71607Y8829D01*
X71607Y10972D02*
X60593Y10972D01*
X60593Y13115D02*
X71607Y13115D01*
X71607Y15258D02*
X60593Y15258D01*
X60593Y17401D02*
X71607Y17401D01*
X71607Y19544D02*
X60593Y19544D01*
X60593Y21687D02*
X71607Y21687D01*
D13*
X25608Y44542D02*
X20592Y44542D01*
X20592Y57058D01*
X25608Y57058D01*
X25608Y44542D01*
X25608Y46683D02*
X20592Y46683D01*
X20592Y48824D02*
X25608Y48824D01*
X25608Y50965D02*
X20592Y50965D01*
X20592Y53106D02*
X25608Y53106D01*
X25608Y55247D02*
X20592Y55247D01*
X30592Y44542D02*
X35608Y44542D01*
X30592Y44542D02*
X30592Y57058D01*
X35608Y57058D01*
X35608Y44542D01*
X35608Y46683D02*
X30592Y46683D01*
X30592Y48824D02*
X35608Y48824D01*
X35608Y50965D02*
X30592Y50965D01*
X30592Y53106D02*
X35608Y53106D01*
X35608Y55247D02*
X30592Y55247D01*
X40592Y44542D02*
X45608Y44542D01*
X40592Y44542D02*
X40592Y57058D01*
X45608Y57058D01*
X45608Y44542D01*
X45608Y46683D02*
X40592Y46683D01*
X40592Y48824D02*
X45608Y48824D01*
X45608Y50965D02*
X40592Y50965D01*
X40592Y53106D02*
X45608Y53106D01*
X45608Y55247D02*
X40592Y55247D01*
X50592Y44542D02*
X55608Y44542D01*
X50592Y44542D02*
X50592Y57058D01*
X55608Y57058D01*
X55608Y44542D01*
X55608Y46683D02*
X50592Y46683D01*
X50592Y48824D02*
X55608Y48824D01*
X55608Y50965D02*
X50592Y50965D01*
X50592Y53106D02*
X55608Y53106D01*
X55608Y55247D02*
X50592Y55247D01*
D14*
X12700Y139700D03*
X63500Y139700D03*
D15*
X31335Y89635D02*
X29615Y89635D01*
X31335Y89635D02*
X31335Y88165D01*
X29615Y88165D01*
X29615Y89635D01*
X29615Y84635D02*
X31335Y84635D01*
X31335Y83165D01*
X29615Y83165D01*
X29615Y84635D01*
X29615Y94635D02*
X31335Y94635D01*
X31335Y93165D01*
X29615Y93165D01*
X29615Y94635D01*
X44865Y89635D02*
X46585Y89635D01*
X46585Y88165D01*
X44865Y88165D01*
X44865Y89635D01*
X44865Y84635D02*
X46585Y84635D01*
X46585Y83165D01*
X44865Y83165D01*
X44865Y84635D01*
X44865Y94635D02*
X46585Y94635D01*
X46585Y93165D01*
X44865Y93165D01*
X44865Y94635D01*
X41335Y82135D02*
X39865Y82135D01*
X41335Y82135D02*
X41335Y80415D01*
X39865Y80415D01*
X39865Y82135D01*
X36335Y82135D02*
X34865Y82135D01*
X36335Y82135D02*
X36335Y80415D01*
X34865Y80415D01*
X34865Y82135D01*
X39865Y97385D02*
X41335Y97385D01*
X41335Y95665D01*
X39865Y95665D01*
X39865Y97385D01*
X36335Y97385D02*
X34865Y97385D01*
X36335Y97385D02*
X36335Y95665D01*
X34865Y95665D01*
X34865Y97385D01*
D13*
X52022Y118078D02*
X57038Y118078D01*
X57038Y113062D01*
X52022Y113062D01*
X52022Y118078D01*
X52022Y115203D02*
X57038Y115203D01*
X57038Y117344D02*
X52022Y117344D01*
X47038Y118078D02*
X42022Y118078D01*
X47038Y118078D02*
X47038Y113062D01*
X42022Y113062D01*
X42022Y118078D01*
X42022Y115203D02*
X47038Y115203D01*
X47038Y117344D02*
X42022Y117344D01*
X22908Y113062D02*
X17892Y113062D01*
X17892Y118078D01*
X22908Y118078D01*
X22908Y113062D01*
X22908Y115203D02*
X17892Y115203D01*
X17892Y117344D02*
X22908Y117344D01*
X27892Y113062D02*
X32908Y113062D01*
X27892Y113062D02*
X27892Y118078D01*
X32908Y118078D01*
X32908Y113062D01*
X32908Y115203D02*
X27892Y115203D01*
X27892Y117344D02*
X32908Y117344D01*
X60928Y96568D02*
X60928Y91552D01*
X55912Y91552D01*
X55912Y96568D01*
X60928Y96568D01*
X60928Y93693D02*
X55912Y93693D01*
X55912Y95834D02*
X60928Y95834D01*
X60928Y101552D02*
X60928Y106568D01*
X60928Y101552D02*
X55912Y101552D01*
X55912Y106568D01*
X60928Y106568D01*
X60928Y103693D02*
X55912Y103693D01*
X55912Y105834D02*
X60928Y105834D01*
X60928Y76248D02*
X60928Y71232D01*
X55912Y71232D01*
X55912Y76248D01*
X60928Y76248D01*
X60928Y73373D02*
X55912Y73373D01*
X55912Y75514D02*
X60928Y75514D01*
X60928Y81232D02*
X60928Y86248D01*
X60928Y81232D02*
X55912Y81232D01*
X55912Y86248D01*
X60928Y86248D01*
X60928Y83373D02*
X55912Y83373D01*
X55912Y85514D02*
X60928Y85514D01*
X35608Y66834D02*
X30592Y66834D01*
X30592Y71850D01*
X35608Y71850D01*
X35608Y66834D01*
X35608Y68975D02*
X30592Y68975D01*
X30592Y71116D02*
X35608Y71116D01*
X40592Y66834D02*
X45608Y66834D01*
X40592Y66834D02*
X40592Y71850D01*
X45608Y71850D01*
X45608Y66834D01*
X45608Y68975D02*
X40592Y68975D01*
X40592Y71116D02*
X45608Y71116D01*
X20288Y71232D02*
X20288Y76248D01*
X20288Y71232D02*
X15272Y71232D01*
X15272Y76248D01*
X20288Y76248D01*
X20288Y73373D02*
X15272Y73373D01*
X15272Y75514D02*
X20288Y75514D01*
X20288Y81232D02*
X20288Y86248D01*
X20288Y81232D02*
X15272Y81232D01*
X15272Y86248D01*
X20288Y86248D01*
X20288Y83373D02*
X15272Y83373D01*
X15272Y85514D02*
X20288Y85514D01*
X20288Y91552D02*
X20288Y96568D01*
X20288Y91552D02*
X15272Y91552D01*
X15272Y96568D01*
X20288Y96568D01*
X20288Y93693D02*
X15272Y93693D01*
X15272Y95834D02*
X20288Y95834D01*
X20288Y101552D02*
X20288Y106568D01*
X20288Y101552D02*
X15272Y101552D01*
X15272Y106568D01*
X20288Y106568D01*
X20288Y103693D02*
X15272Y103693D01*
X15272Y105834D02*
X20288Y105834D01*
M02*
